<svg width="24" height="25" viewBox="0 0 24 25" fill="none" xmlns="http://www.w3.org/2000/svg">
<g clip-path="url(#clip0_2520_5671)">
<path d="M12.1148 1.06836C10.651 1.06927 9.24741 1.65154 8.21278 2.68713C7.17816 3.72272 6.5972 5.12684 6.59766 6.5907C6.59766 8.82664 7.91391 10.7246 9.82359 11.6152H9.82406L14.2777 11.671C15.4476 11.1715 16.4093 10.2834 17.0002 9.15674C17.591 8.03012 17.7748 6.73407 17.5206 5.48758C17.2663 4.24109 16.5895 3.12059 15.6046 2.3154C14.6197 1.51022 13.387 1.06973 12.1148 1.06836Z" fill="#6ADDC7"/>
<path d="M8.00391 6.59069C8.00368 5.24856 8.49221 3.95228 9.37818 2.94414C10.2642 1.93599 11.4869 1.28498 12.818 1.11279C12.0401 1.01351 11.25 1.08107 10.5003 1.31096C9.75057 1.54086 9.05842 1.92782 8.46992 2.44608C7.88142 2.96434 7.41007 3.60202 7.08724 4.31666C6.76441 5.0313 6.59751 5.80652 6.59766 6.59069C6.59766 8.82663 7.91391 10.7246 9.82359 11.6152H11.2298C9.32016 10.7246 8.00391 8.82663 8.00391 6.59069Z" fill="#55A394"/>
<path d="M19.2959 17.485L18.5211 14.2919C18.3336 13.6187 18.0833 13.1392 17.5752 12.7872C17.2667 12.5729 16.8631 12.4061 16.3208 12.2711C15.868 12.1634 15.4095 12.0818 14.9473 12.0269C13.9658 17.1601 9.75828 18.3601 9.75828 18.3601L9.65234 20.3036H16.0948L18.2586 19.4654C18.6427 19.3179 18.9599 19.0354 19.1508 18.6709C19.3417 18.3064 19.3933 17.8848 19.2959 17.485Z" fill="#FB6771"/>
<path d="M15.0564 7.23586C15.0564 7.23586 16.2152 7.21383 15.2945 8.73914C15.2223 8.85961 15.1605 8.95429 15.1431 9.04992C14.9716 9.98039 14.1836 9.38461 14.1836 9.38461C14.3678 9.04791 14.4641 8.67014 14.4634 8.28633V7.50164H14.4958C14.6031 7.50169 14.7091 7.47786 14.806 7.4319C14.903 7.38593 14.9885 7.31896 15.0564 7.23586Z" fill="#EFC597"/>
<path d="M15.2211 6.44859V6.77484C15.2212 6.96734 15.1449 7.15201 15.0089 7.28826C14.873 7.4245 14.6884 7.50117 14.4959 7.50141H14.4636V6.51844C14.4636 6.34972 14.424 6.18335 14.3479 6.03279C14.2717 5.88222 14.1612 5.75168 14.0253 5.65172C13.8995 5.5638 13.7489 5.51816 13.5955 5.52141C13.424 5.52476 13.2552 5.56421 13.1 5.63719C12.5563 6.00234 11.9956 6.02063 11.3117 5.60906C11.2156 5.54016 11.0502 5.49937 10.8823 5.49937C10.7202 5.49937 10.5556 5.53734 10.4497 5.625C10.2804 5.73213 10.1409 5.8803 10.0442 6.05576C9.94753 6.23121 9.89674 6.42826 9.89656 6.62859V7.50141C9.70415 7.50106 9.51974 7.42434 9.38385 7.2881C9.24797 7.15187 9.17173 6.96726 9.17188 6.77484V6.44859C9.17188 5.40562 9.69734 4.76531 10.4975 4.22016C10.5838 4.16148 10.6564 4.0848 10.7102 3.99537C10.764 3.90595 10.7978 3.80593 10.8092 3.70219C10.8575 3.26484 11.1017 2.55516 12.1794 2.55469C13.1797 2.55469 13.4544 3.28359 13.5289 3.71344C13.5456 3.80895 13.5819 3.89999 13.6353 3.98088C13.6888 4.06178 13.7584 4.13078 13.8397 4.18359C14.6708 4.72359 15.2211 5.38219 15.2211 6.44859Z" fill="#6D7486"/>
<path d="M9.75781 16.8232V15.2726C9.75781 15.2726 13.2214 15.2065 14.0389 11.4321C14.1135 11.5156 14.1926 11.5948 14.2761 11.6693C14.4927 11.8606 14.7256 11.9984 14.9469 12.027C13.9653 17.1603 9.75781 18.3603 9.75781 18.3603V16.8232Z" fill="#FC8692"/>
<path d="M13.3714 10.2378L10.8458 10.1436C10.7005 10.7023 10.2594 11.2507 9.8225 11.6112H9.82203C9.80047 11.629 9.77937 11.6459 9.75781 11.6628V15.2721C9.75781 15.2721 13.2214 15.2061 14.0389 11.4317C13.6784 11.03 13.4028 10.5237 13.3714 10.2378Z" fill="#EFC597"/>
<path d="M9.75739 18.9448L8.72801 18.3598L7.49989 17.6614L7.50082 17.66L7.40942 12.3354C6.18129 12.6959 5.75848 13.2795 5.47723 14.2915L4.70239 17.4847C4.605 17.8845 4.65659 18.306 4.84752 18.6706C5.03844 19.0351 5.35562 19.3175 5.73973 19.4651L7.91567 20.3033H9.83942V20.2948L10.3766 19.2969L9.75739 18.9448Z" fill="#EFC597"/>
<path d="M10.2428 9.5002C10.2428 9.5002 9.46189 9.78613 9.32173 9.04973C9.30345 8.9541 9.24251 8.85941 9.17032 8.73895C8.2497 7.21363 9.35782 7.26238 9.35782 7.26238C9.42558 7.33769 9.50842 7.3979 9.60097 7.43909C9.69353 7.48027 9.79371 7.50152 9.89501 7.50145V8.28613C9.89433 8.7155 10.0149 9.13633 10.2428 9.5002Z" fill="#EFC597"/>
<path d="M9.05172 12.0268C8.84078 12.0526 8.64344 12.0798 8.45781 12.1093C8.10417 12.1626 7.75425 12.2383 7.41016 12.3357L7.50156 17.6603L7.50063 17.6617L8.72875 18.3601L9.75812 18.9451L9.75859 18.9446V11.6631C9.49422 11.8698 9.23594 12.0043 9.05172 12.0268Z" fill="#E75163"/>
<path d="M14.4084 19.873C14.4306 19.9132 14.4423 19.9584 14.4421 20.0043C14.4413 20.0829 14.4099 20.158 14.3546 20.2138C14.2993 20.2697 14.2244 20.3018 14.1459 20.3033H11.6582C11.9816 20.2855 12.2273 19.9663 11.9873 19.6883L12.3421 19.4254C12.5026 19.3053 12.687 19.2212 12.8829 19.1785C13.0787 19.1359 13.2814 19.1358 13.4773 19.1782C13.6731 19.2207 13.8576 19.3047 14.0183 19.4245C14.1789 19.5444 14.3119 19.6973 14.4084 19.873Z" fill="#EFC597"/>
<path d="M11.9861 19.6883C12.2261 19.9662 11.9805 20.2855 11.657 20.3033H9.83923V20.2948C9.78974 20.2949 9.74109 20.2821 9.69809 20.2576C9.6551 20.233 9.61925 20.1977 9.5941 20.1551C9.56895 20.1125 9.55538 20.064 9.55471 20.0145C9.55405 19.965 9.56633 19.9162 9.59032 19.873C9.67177 19.7257 9.78426 19.5979 9.91999 19.4984C10.0557 19.399 10.2115 19.3302 10.3764 19.2969C10.5198 19.2682 10.6665 19.2592 10.8124 19.2702C11.238 19.2987 11.628 19.4652 11.7883 19.542C11.8515 19.5713 11.9093 19.6109 11.9594 19.6592C11.9688 19.6686 11.9777 19.6784 11.9861 19.6883Z" fill="#FFD8B7"/>
<path d="M14.0252 5.65186C13.8994 5.56393 13.7489 5.5183 13.5954 5.52154C13.4239 5.5249 13.2551 5.56435 13.0999 5.63732C12.5562 6.00248 11.9955 6.02076 11.3116 5.6092C11.2155 5.54029 11.0501 5.49951 10.8823 5.49951C10.7201 5.49951 10.5555 5.53748 10.4496 5.62514C10.2803 5.73227 10.1409 5.88044 10.0442 6.05589C9.94745 6.23135 9.89666 6.42839 9.89648 6.62873V8.28623C9.89648 8.58611 9.95555 8.88305 10.0703 9.16009C10.1851 9.43714 10.3533 9.68888 10.5653 9.90092C10.7774 10.113 11.0291 10.2812 11.3061 10.3959C11.5832 10.5107 11.8801 10.5697 12.18 10.5697C12.4799 10.5697 12.7768 10.5107 13.0539 10.3959C13.3309 10.2812 13.5826 10.113 13.7947 9.90092C14.0067 9.68888 14.1749 9.43714 14.2897 9.16009C14.4045 8.88305 14.4635 8.58611 14.4635 8.28623V6.51857C14.4636 6.34985 14.4239 6.18349 14.3478 6.03292C14.2716 5.88236 14.1612 5.75182 14.0252 5.65186Z" fill="#FFD8B7"/>
<path d="M21.2095 22.0793V22.2617C21.2095 22.7326 21.0224 23.1842 20.6894 23.5172C20.3565 23.8502 19.9048 24.0373 19.4339 24.0373H7.04297C7.04297 24.0373 9.16453 23.81 11.5364 22.1407C14.1347 20.3121 16.0594 20.3037 16.0941 20.3037H19.4339C19.9048 20.3037 20.3565 20.4908 20.6894 20.8238C21.0224 21.1568 21.2095 21.6084 21.2095 22.0793Z" fill="#C24E38"/>
<path d="M4.56516 20.2871C3.58453 20.2871 2.8125 21.0985 2.8125 22.0791V22.2615C2.8125 23.2421 3.58453 24.0371 4.56516 24.0371H7.04391C7.04391 24.0371 9.16547 23.8016 11.5373 22.1323C14.1356 20.3037 16.0603 20.2871 16.095 20.2871H4.56516Z" fill="#ED6337"/>
<path d="M6.10865 17.4852L6.8835 14.292C7.01235 13.8283 7.17126 13.4547 7.42345 13.1512L7.40939 12.3359C6.18126 12.6964 5.75845 13.28 5.4772 14.292L4.70235 17.4852C4.60497 17.8839 4.65666 18.3045 4.84772 18.6678C5.03878 19.031 5.35602 19.312 5.73975 19.4577L7.91568 20.2873H9.32193L7.146 19.4577C6.76228 19.3119 6.44505 19.031 6.254 18.6677C6.06295 18.3045 6.01126 17.8839 6.10865 17.4852Z" fill="#CEA882"/>
<path d="M4.21875 22.2615V22.0791C4.21875 21.0985 4.99078 20.2871 5.97141 20.2871H4.56516C3.58453 20.2871 2.8125 21.0985 2.8125 22.0791V22.2615C2.8125 23.2421 3.58453 24.0371 4.56516 24.0371H5.97141C4.99078 24.0371 4.21875 23.2421 4.21875 22.2615Z" fill="#CC593A"/>
<path d="M4.35547 21.8574H4.48203C4.55662 21.8574 4.62816 21.8278 4.68091 21.775C4.73365 21.7223 4.76328 21.6508 4.76328 21.5762C4.76328 21.5016 4.73365 21.43 4.68091 21.3773C4.62816 21.3246 4.55662 21.2949 4.48203 21.2949H4.35547C4.28088 21.2949 4.20934 21.3246 4.1566 21.3773C4.10385 21.43 4.07422 21.5016 4.07422 21.5762C4.07422 21.6508 4.10385 21.7223 4.1566 21.775C4.20934 21.8278 4.28088 21.8574 4.35547 21.8574Z" fill="#284268"/>
<path d="M5.38867 21.8574H8.98445C9.05905 21.8574 9.13058 21.8278 9.18333 21.775C9.23607 21.7223 9.2657 21.6508 9.2657 21.5762C9.2657 21.5016 9.23607 21.43 9.18333 21.3773C9.13058 21.3246 9.05905 21.2949 8.98445 21.2949H5.38867C5.31408 21.2949 5.24254 21.3246 5.1898 21.3773C5.13705 21.43 5.10742 21.5016 5.10742 21.5762C5.10742 21.6508 5.13705 21.7223 5.1898 21.775C5.24254 21.8278 5.31408 21.8574 5.38867 21.8574Z" fill="#284268"/>
<path d="M4.56445 24.3184H12.8975C12.9721 24.3184 13.0436 24.2887 13.0964 24.236C13.1491 24.1832 13.1788 24.1117 13.1788 24.0371C13.1788 23.9625 13.1491 23.891 13.0964 23.8382C13.0436 23.7855 12.9721 23.7559 12.8975 23.7559H9.12347C10.0343 23.399 10.899 22.9339 11.6988 22.3706C14.2039 20.6075 16.0761 20.585 16.0939 20.5849H19.4346C19.6308 20.5849 19.8251 20.6236 20.0064 20.6986C20.1877 20.7737 20.3524 20.8838 20.4911 21.0225C20.6299 21.1613 20.7399 21.326 20.815 21.5073C20.8901 21.6886 20.9288 21.8829 20.9287 22.0791V22.2619C20.9287 22.6581 20.7713 23.0381 20.4911 23.3183C20.2109 23.5985 19.8308 23.7559 19.4346 23.7559H14.7725C14.6979 23.7559 14.6264 23.7855 14.5736 23.8382C14.5209 23.891 14.4913 23.9625 14.4913 24.0371C14.4913 24.1117 14.5209 24.1832 14.5736 24.236C14.6264 24.2887 14.6979 24.3184 14.7725 24.3184H19.4346C19.9801 24.3183 20.5032 24.1017 20.8889 23.716C21.2746 23.3302 21.4912 22.8071 21.4912 22.2617V22.0789C21.4912 21.5334 21.2746 21.0103 20.8889 20.6246C20.5032 20.2389 19.9801 20.0222 19.4346 20.0222H17.5999L18.3595 19.7279C18.8069 19.555 19.1762 19.2255 19.3987 18.8007C19.6213 18.3758 19.682 17.8846 19.5695 17.4184L18.7945 14.2251C18.7938 14.2221 18.793 14.2191 18.7921 14.2161C18.3495 12.6236 17.4952 12.0699 14.9831 11.7476C14.9343 11.7408 14.8865 11.728 14.8408 11.7095C15.7694 11.2151 16.5459 10.4773 17.087 9.57516C17.6282 8.67304 17.9136 7.64063 17.9126 6.58864C17.9126 3.38975 15.3114 0.787109 12.114 0.787109C8.9167 0.787109 6.31561 3.38975 6.31561 6.58887C6.31616 7.61939 6.59082 8.63122 7.11141 9.52057C7.63201 10.4099 8.37981 11.1448 9.27811 11.6498C9.19787 11.6976 9.10971 11.7307 9.01781 11.7476C7.67686 11.9099 6.86203 12.1434 6.29311 12.528C5.75339 12.893 5.43862 13.3821 5.20678 14.2164C5.20594 14.2194 5.20514 14.2223 5.20444 14.2254L4.42955 17.4186C4.31706 17.8848 4.37768 18.3759 4.60013 18.8007C4.82258 19.2255 5.19172 19.555 5.63892 19.728L6.40327 20.0224H4.56445C4.01899 20.0224 3.49588 20.2391 3.11019 20.6248C2.72449 21.0105 2.50781 21.5336 2.50781 22.0791V22.2619C2.50787 22.8073 2.72458 23.3304 3.11027 23.716C3.49596 24.1017 4.01903 24.3183 4.56445 24.3184ZM14.1453 20.0224H12.3558C12.3698 19.9397 12.3658 19.855 12.3442 19.774L12.5103 19.6508C12.6384 19.5552 12.7855 19.4881 12.9416 19.454C13.0978 19.4199 13.2594 19.4196 13.4157 19.4531C13.5719 19.4866 13.7192 19.553 13.8477 19.6481C13.9762 19.7432 14.0829 19.8646 14.1606 20.0042C14.16 20.0102 14.1507 20.0224 14.1453 20.0224ZM15.1701 12.3408C15.4905 12.3867 15.7747 12.437 16.0279 12.4925C15.9839 13.0323 15.773 14.4418 14.7754 15.3973C14.7215 15.4488 14.6904 15.5197 14.6887 15.5943C14.6871 15.6689 14.7152 15.7411 14.7668 15.7949C14.8184 15.8488 14.8893 15.88 14.9639 15.8816C15.0384 15.8832 15.1106 15.8552 15.1645 15.8036C16.2476 14.7665 16.515 13.3103 16.5809 12.6367C16.83 12.7104 17.0697 12.8129 17.2951 12.9421C17.2852 13.5368 17.117 15.8679 15.1497 17.1671C15.1186 17.1873 15.0917 17.2135 15.0708 17.2441C15.0498 17.2747 15.0351 17.3092 15.0276 17.3455C15.02 17.3819 15.0197 17.4193 15.0267 17.4558C15.0336 17.4922 15.0478 17.5269 15.0682 17.5579C15.0887 17.5889 15.1151 17.6155 15.1458 17.6362C15.1766 17.6569 15.2112 17.6714 15.2476 17.6787C15.284 17.686 15.3214 17.686 15.3578 17.6787C15.3942 17.6715 15.4288 17.6571 15.4597 17.6364C16.5082 16.944 17.2552 15.8833 17.6199 14.5693C17.7245 14.1917 17.7956 13.8056 17.8325 13.4154C18.0294 13.6786 18.1454 13.9906 18.249 14.3623L19.0229 17.5511C19.1034 17.8846 19.06 18.236 18.9008 18.5399C18.7416 18.8438 18.4773 19.0794 18.1573 19.2031L16.0426 20.0222H14.7227C14.726 19.9227 14.7023 19.8242 14.6542 19.7371C14.5594 19.5651 14.4352 19.4111 14.2873 19.2819L14.7743 18.998C15.3474 19.2876 15.9812 19.4369 16.6233 19.4336C16.7005 19.4336 16.7795 19.4315 16.86 19.427C16.8971 19.4252 16.9335 19.4162 16.9671 19.4003C17.0007 19.3844 17.0308 19.3621 17.0557 19.3345C17.0806 19.3069 17.0998 19.2747 17.1122 19.2397C17.1245 19.2046 17.1298 19.1675 17.1278 19.1304C17.1257 19.0933 17.1163 19.057 17.1001 19.0235C17.084 18.9901 17.0613 18.9602 17.0335 18.9355C17.0057 18.9109 16.9733 18.892 16.9382 18.88C16.903 18.8679 16.8659 18.8629 16.8288 18.8653C16.3345 18.893 15.8397 18.819 15.3751 18.648L17.0972 17.6445C17.1291 17.6259 17.1571 17.6012 17.1794 17.5718C17.2018 17.5424 17.2182 17.5089 17.2276 17.4732C17.237 17.4375 17.2393 17.4002 17.2343 17.3636C17.2294 17.327 17.2172 17.2918 17.1986 17.2599C17.18 17.228 17.1553 17.2 17.1259 17.1777C17.0965 17.1553 17.063 17.1389 17.0273 17.1295C16.9916 17.1201 16.9544 17.1178 16.9178 17.1228C16.8812 17.1278 16.8459 17.1399 16.814 17.1585L13.7273 18.9571C13.4684 18.8673 13.1914 18.8424 12.9207 18.8846C12.6499 18.9268 12.3937 19.0348 12.1744 19.1991L11.9934 19.3333C11.9671 19.3177 11.9399 19.3026 11.9107 19.2886C11.8583 19.2636 11.8051 19.2397 11.751 19.2169C13.5312 18.42 14.0807 17.2942 14.1062 17.24C14.1373 17.1727 14.1407 17.0959 14.1155 17.0262C14.0903 16.9565 14.0386 16.8995 13.9716 16.8677C13.9046 16.8359 13.8278 16.8319 13.7579 16.8564C13.6879 16.881 13.6305 16.9321 13.5981 16.9988C13.5965 17.002 13.4352 17.3292 13.0042 17.737C12.6107 18.1093 11.9053 18.6257 10.7754 18.9866C10.6599 18.9818 10.5443 18.9873 10.4298 19.0031L10.0396 18.7812V18.5621C10.8071 18.2691 11.5231 17.8559 12.1608 17.3379C13.2336 16.4779 14.6085 14.9199 15.1701 12.3408ZM11.7996 19.9355C11.7834 19.9619 11.7608 19.9837 11.7339 19.9989C11.707 20.0141 11.6767 20.0223 11.6458 20.0226H9.83902V20.0142L9.83761 20.009C10.0725 19.6167 10.4512 19.5258 10.8103 19.5516H10.8132H10.8135C11.1103 19.5821 11.3993 19.6648 11.6672 19.796C11.7017 19.8114 11.7334 19.8324 11.761 19.8582C11.7833 19.8808 11.8083 19.9124 11.7996 19.9355ZM12.499 15.3201C12.446 15.2676 12.3744 15.2383 12.2998 15.2386C12.2252 15.2389 12.1538 15.2688 12.1013 15.3218C11.1953 16.2354 10.4211 16.4683 10.0396 16.526V15.5308C10.6244 15.4566 11.1923 15.2833 11.719 15.0184C12.5815 14.5832 13.6753 13.7051 14.1922 11.9659C14.3222 12.0711 14.466 12.1582 14.6196 12.2246C14.1991 14.1605 13.2612 15.7273 11.8286 16.8835C11.2857 17.3238 10.6835 17.6853 10.0396 17.9574V17.0938C10.5037 17.0413 11.4348 16.7925 12.5005 15.7177C12.5531 15.6647 12.5824 15.5931 12.5821 15.5185C12.5818 15.4439 12.5519 15.3725 12.499 15.32V15.3201ZM9.80766 9.26178C9.78242 9.25619 9.7581 9.24705 9.73542 9.23464C9.7102 9.22034 9.63356 9.17684 9.59948 8.99708C9.57323 8.85931 9.5032 8.74367 9.429 8.62128L9.41236 8.59377C9.09183 8.06248 9.04748 7.75231 9.11292 7.63925C9.13032 7.61595 9.15223 7.5964 9.17735 7.58175C9.20247 7.5671 9.23028 7.55766 9.25912 7.55398C9.36396 7.64006 9.48515 7.70401 9.61538 7.74195V8.28641C9.61509 8.62097 9.68042 8.95235 9.80766 9.26178ZM9.61519 6.62877V7.11912C9.56434 7.07733 9.52338 7.02479 9.49527 6.96527C9.46717 6.90575 9.4526 6.84074 9.45263 6.77492V6.44858C9.45263 5.61308 9.80119 5.03478 10.6558 4.4525C10.7755 4.37097 10.8762 4.26447 10.9509 4.14032C11.0256 4.01616 11.0725 3.87731 11.0884 3.7333C11.1545 3.13798 11.5215 2.83634 12.1793 2.8362H12.1798C12.7845 2.8362 13.1451 3.14759 13.2517 3.7617C13.2752 3.89524 13.3259 4.02253 13.4006 4.13565C13.4754 4.24877 13.5726 4.34531 13.6862 4.41927C14.5645 4.99011 14.9393 5.597 14.9393 6.44858V6.77492C14.9393 6.84758 14.9216 6.91914 14.8876 6.98336C14.8536 7.04759 14.8045 7.10253 14.7444 7.14341V6.51866C14.7439 6.3054 14.6935 6.09522 14.5971 5.905C14.5007 5.71477 14.361 5.5498 14.1893 5.42333C13.6609 5.04364 13.0001 5.37261 12.9722 5.38681C12.9622 5.39192 12.9525 5.39761 12.9431 5.40387C12.4721 5.71986 12.0294 5.71081 11.4645 5.37308C11.1807 5.17925 10.605 5.14808 10.2854 5.39623C10.0792 5.52886 9.90966 5.71129 9.79252 5.92671C9.67539 6.14212 9.6144 6.38357 9.61519 6.62877ZM15.1593 7.53041C15.1949 7.53566 15.2291 7.54795 15.2599 7.56657C15.2907 7.58519 15.3174 7.60975 15.3386 7.63883C15.372 7.69672 15.4502 7.93672 15.0538 8.59377L15.035 8.62503C14.9614 8.74634 14.8919 8.861 14.8665 8.99877C14.8379 9.15425 14.7864 9.2607 14.7288 9.28339C14.6691 9.29643 14.6067 9.28965 14.5512 9.26408C14.6791 8.95401 14.7448 8.62182 14.7446 8.28641V7.7503C14.8983 7.71084 15.0404 7.63548 15.1593 7.53041ZM10.1777 6.62877C10.1772 6.47583 10.2157 6.32528 10.2895 6.19133C10.3633 6.05738 10.47 5.94444 10.5996 5.86316C10.6097 5.85676 10.6195 5.84971 10.6287 5.84206C10.6807 5.79912 10.7792 5.78113 10.8784 5.78113C10.9889 5.78113 11.0999 5.8033 11.1479 5.83766C11.154 5.84206 11.1603 5.84623 11.1666 5.85013C11.9117 6.29872 12.5896 6.3095 13.2382 5.88294C13.3056 5.85289 13.6371 5.71887 13.8585 5.87797C13.9587 5.95205 14.0401 6.04856 14.0963 6.15977C14.1525 6.27098 14.1818 6.39379 14.182 6.51837V8.28613C14.1833 8.54986 14.1324 8.81125 14.0324 9.05527C13.9323 9.2993 13.7851 9.52116 13.599 9.7081C13.413 9.89504 13.1918 10.0434 12.9483 10.1446C12.7048 10.2458 12.4436 10.2979 12.1799 10.2979C11.9161 10.2979 11.655 10.2458 11.4115 10.1446C11.1679 10.0434 10.9468 9.89504 10.7607 9.7081C10.5747 9.52116 10.4274 9.2993 10.3274 9.05527C10.2273 8.81125 10.1765 8.54986 10.1778 8.28613L10.1777 6.62877ZM10.9948 10.564C11.333 10.7412 11.7066 10.8404 12.0881 10.8541C12.4696 10.8679 12.8494 10.7959 13.1994 10.6434C13.3345 10.9558 13.5138 11.2472 13.7318 11.5085C13.3963 12.9064 12.6421 13.9152 11.4861 14.5059C11.0321 14.736 10.5435 14.8904 10.0396 14.9628V11.7953C10.4183 11.4771 10.7842 11.0397 10.9948 10.564ZM6.87806 6.58897C6.87883 5.65095 7.13157 4.73036 7.60987 3.92344C8.08817 3.11652 8.77445 2.45291 9.59698 2.00198C10.4195 1.55106 11.3481 1.32938 12.2856 1.36012C13.2231 1.39086 14.1351 1.67289 14.9264 2.17673C15.7176 2.68056 16.3589 3.38771 16.7833 4.22422C17.2078 5.06074 17.3997 5.99591 17.339 6.93197C17.2783 7.86803 16.9673 8.77059 16.4384 9.54531C15.9095 10.32 15.1822 10.9384 14.3326 11.3359C14.0403 11.0345 13.7858 10.6337 13.6904 10.3612C13.9178 10.1944 14.1164 9.99168 14.2784 9.76091C14.405 9.81898 14.5422 9.85053 14.6815 9.85363C14.7672 9.85415 14.8522 9.83865 14.9322 9.80792C15.1078 9.73967 15.3348 9.56155 15.4197 9.10072C15.4443 9.03577 15.4766 8.97404 15.516 8.91687L15.5356 8.88444C15.9385 8.21675 16.0335 7.71725 15.8262 7.35781C15.7433 7.21594 15.6167 7.10476 15.4653 7.04098C15.4894 6.95437 15.5017 6.86491 15.502 6.77502V6.44867C15.502 5.39731 15.0366 4.62603 13.9929 3.94775C13.9441 3.91603 13.9023 3.87461 13.8702 3.82607C13.8381 3.77752 13.8162 3.72289 13.8061 3.66556C13.6525 2.78103 13.0599 2.2738 12.18 2.2738H12.1794C10.8304 2.27412 10.5763 3.25119 10.5294 3.67133C10.5224 3.73468 10.5018 3.79577 10.4689 3.85039C10.4361 3.90501 10.3918 3.95187 10.3391 3.98773C9.66455 4.44739 8.89022 5.1425 8.89022 6.44867V6.77502C8.89015 6.87627 8.90537 6.97695 8.93536 7.07366C8.80823 7.13359 8.70188 7.2301 8.62992 7.35083C8.42147 7.70188 8.51981 8.20353 8.93067 8.88448L8.94783 8.91284C8.98837 8.97182 9.02161 9.03548 9.04683 9.10245C9.11541 9.46231 9.30825 9.63908 9.45797 9.72402C9.59855 9.80062 9.75662 9.83938 9.91669 9.83652C9.98579 9.83634 10.0548 9.83058 10.1229 9.81931C10.2389 9.97481 10.372 10.1168 10.5197 10.2425C10.3726 10.63 10.0785 11.0013 9.77831 11.2785C8.90707 10.8433 8.17425 10.174 7.66199 9.34568C7.14974 8.51738 6.87828 7.56278 6.87806 6.58887V6.58897ZM8.1765 12.4424V14.233C8.1765 14.3076 8.20613 14.3791 8.25888 14.4319C8.31162 14.4846 8.38316 14.5143 8.45775 14.5143C8.53234 14.5143 8.60388 14.4846 8.65662 14.4319C8.70937 14.3791 8.739 14.3076 8.739 14.233V12.3512C8.85019 12.3355 8.96581 12.3205 9.08588 12.3059C9.22279 12.2843 9.35512 12.2399 9.47742 12.1747V18.4616L9.01036 18.1961V16.3965C9.01036 16.3219 8.98073 16.2504 8.92798 16.1976C8.87524 16.1449 8.8037 16.1152 8.72911 16.1152C8.65452 16.1152 8.58298 16.1449 8.53024 16.1976C8.47749 16.2504 8.44786 16.3219 8.44786 16.3965V17.8767L7.78012 17.497L7.69509 12.547C7.84308 12.5094 8.00311 12.4747 8.17636 12.4423L8.1765 12.4424ZM5.84095 19.203C5.52111 19.0792 5.25711 18.8435 5.09804 18.5397C4.93897 18.2359 4.89568 17.8846 4.9762 17.5513L5.75006 14.3626C5.97708 13.5482 6.29025 13.0509 7.13517 12.7216L7.21167 17.1738L7.197 17.1661C7.13072 17.1309 7.05326 17.1233 6.98141 17.1449C6.90956 17.1665 6.84913 17.2156 6.81321 17.2815C6.7773 17.3473 6.7688 17.4247 6.78955 17.4968C6.81031 17.5689 6.85865 17.6299 6.92409 17.6666L8.589 18.6041C8.59177 18.6057 8.59448 18.6073 8.59734 18.6087L9.75914 19.2692C9.59217 19.3932 9.45251 19.5502 9.34884 19.7304C9.34744 19.7328 9.34613 19.7351 9.34477 19.7375C9.29652 19.8247 9.27217 19.923 9.27417 20.0225H7.96852L5.84095 19.203ZM3.07031 22.0791C3.07031 21.8829 3.10895 21.6886 3.18403 21.5073C3.25912 21.326 3.36918 21.1613 3.50792 21.0225C3.64666 20.8838 3.81138 20.7737 3.99266 20.6986C4.17394 20.6236 4.36824 20.5849 4.56445 20.5849H13.7723C12.9251 20.9337 12.1208 21.3785 11.375 21.9106C9.19172 23.4474 7.20464 23.7329 7.02633 23.7559H4.56445C4.36824 23.7559 4.17394 23.7172 3.99266 23.6421C3.81138 23.567 3.64666 23.457 3.50792 23.3182C3.36918 23.1795 3.25912 23.0148 3.18403 22.8335C3.10895 22.6522 3.07031 22.4579 3.07031 22.2617V22.0791Z" fill="#284268"/>
</g>
<defs>
<clipPath id="clip0_2520_5671">
<rect width="24" height="24" fill="white" transform="translate(0 0.552734)"/>
</clipPath>
</defs>
</svg>
