<svg width="24" height="25" viewBox="0 0 24 25" fill="none" xmlns="http://www.w3.org/2000/svg">
<g clip-path="url(#clip0_2520_5623)">
<path d="M15.75 13.3027V23.0527H21.75V17.8027L15.75 13.3027Z" fill="#FCEDED"/>
<path d="M8.25 13.3027V23.0527H2.25V17.8027L8.25 13.3027Z" fill="#FCEDED"/>
<path d="M2.25 17.8027V19.6777L5.25 17.4277V23.0527H8.25V13.3027L2.25 17.8027Z" fill="#EDDFDF"/>
<path d="M21.75 17.8027L15.75 13.3027V23.0527H18.75V17.4277L21.75 19.6777V17.8027Z" fill="#EDDFDF"/>
<path d="M14.6992 13.4526L15.5992 12.2526L23.5492 18.2151L22.6492 19.4151L14.6992 13.4526Z" fill="#FF6D81"/>
<path d="M15.0605 13.7227L15.6005 13.0027L23.1905 18.6952L22.6505 19.4152L15.0605 13.7227Z" fill="#FF4861"/>
<path d="M0.449219 18.2153L8.39922 12.2528L9.29922 13.4528L1.34922 19.4153L0.449219 18.2153Z" fill="#FF6D81"/>
<path d="M0.810547 18.6958L8.40055 13.0033L8.94055 13.7233L1.35055 19.4158L0.810547 18.6958Z" fill="#FF4861"/>
<path d="M18 23.0526H6V11.5L12 7L18 11.5V23.0526Z" fill="#FCEDED"/>
<path d="M18.8992 13.1125L11.9992 7.9375L5.09922 13.1125L4.19922 11.9125L11.9992 6.0625L19.7992 11.9125L18.8992 13.1125Z" fill="#FF6D81"/>
<path d="M6 11.5V13.375L12 8.875L18 13.375V11.5L12 7L6 11.5Z" fill="#EDDFDF"/>
<path d="M4.56055 12.3925L5.10055 13.1125L12.0005 7.9375L18.9005 13.1125L19.4405 12.3925L12.0005 6.8125L4.56055 12.3925Z" fill="#FF4861"/>
<path d="M12.5625 2.42773V0.927734H11.4375V2.42773H9.75V3.55273H11.4375V6.48448H12.5625V3.55273H14.25V2.42773H12.5625Z" fill="#FFFC6B"/>
<path d="M12.5625 2.42773V1.49023H12V2.99023H10.3125V3.55273H12V6.48448H12.5625V3.55273H14.25V2.42773H12.5625Z" fill="#FFE746"/>
<path d="M12 12.1777C13.1935 12.1777 14.3381 12.6518 15.182 13.4958C16.0259 14.3397 16.5 15.4843 16.5 16.6777V23.0527H7.5V16.6777C7.5 15.4843 7.97411 14.3397 8.81802 13.4958C9.66193 12.6518 10.8065 12.1777 12 12.1777Z" fill="#FFE746"/>
<path d="M12 13.3027C12.8951 13.3027 13.7536 13.6583 14.3865 14.2912C15.0194 14.9242 15.375 15.7826 15.375 16.6777V23.0527H8.625V16.6777C8.625 15.7826 8.98058 14.9242 9.61351 14.2912C10.2465 13.6583 11.1049 13.3027 12 13.3027Z" fill="#D9F5FF"/>
<path d="M12 15.1777C12.1492 15.1777 12.2923 15.237 12.3977 15.3425C12.5032 15.448 12.5625 15.5911 12.5625 15.7402V17.0527H11.4375V15.7402C11.4375 15.5911 11.4968 15.448 11.6023 15.3425C11.7077 15.237 11.8508 15.1777 12 15.1777Z" fill="#FFDA1E"/>
<path d="M12 16.3027C12.4476 16.3027 12.8768 16.4805 13.1932 16.797C13.5097 17.1135 13.6875 17.5427 13.6875 17.9902V19.8652H10.3125V17.9902C10.3125 17.5427 10.4903 17.1135 10.8068 16.797C11.1232 16.4805 11.5524 16.3027 12 16.3027Z" fill="#FFDA1E"/>
<path d="M12 16.3027C11.5524 16.3027 11.1232 16.4805 10.8068 16.797C10.4903 17.1135 10.3125 17.5427 10.3125 17.9902H13.6875C13.6875 17.5427 13.5097 17.1135 13.1932 16.797C12.8768 16.4805 12.4476 16.3027 12 16.3027Z" fill="#FFE746"/>
<path d="M10.5 19.6777H13.5C13.6989 19.6777 13.8897 19.7568 14.0303 19.8974C14.171 20.0381 14.25 20.2288 14.25 20.4277V20.8027H9.75V20.4277C9.75 20.2288 9.82902 20.0381 9.96967 19.8974C10.1103 19.7568 10.3011 19.6777 10.5 19.6777Z" fill="#FFFC6B"/>
<path d="M11.25 20.8027H12.75V21.1777C12.75 21.3766 12.671 21.5674 12.5303 21.7081C12.3897 21.8487 12.1989 21.9277 12 21.9277C11.8011 21.9277 11.6103 21.8487 11.4697 21.7081C11.329 21.5674 11.25 21.3766 11.25 21.1777V20.8027Z" fill="#FFDA1E"/>
<path d="M0.375 23.0527H23.625V24.1777H0.375V23.0527Z" fill="#11DA77"/>
<path d="M23.625 22.7715H22.0312V19.3027L22.4813 19.6402C22.541 19.6849 22.6159 19.704 22.6898 19.6935C22.7636 19.683 22.8302 19.6436 22.875 19.584L23.775 18.384C23.8197 18.3243 23.8388 18.2493 23.8283 18.1755C23.8177 18.1017 23.7783 18.0351 23.7188 17.9902L18.2812 13.9125V13.0001L18.7313 13.3376C18.7608 13.3598 18.7944 13.3759 18.8302 13.3851C18.866 13.3942 18.9032 13.3963 18.9398 13.391C18.9763 13.3858 19.0115 13.3734 19.0433 13.3546C19.0751 13.3358 19.1028 13.3109 19.125 13.2814L20.025 12.0814C20.0697 12.0217 20.0888 11.9467 20.0783 11.8729C20.0677 11.799 20.0283 11.7324 19.9688 11.6876L12.8438 6.34386V3.83398H14.25C14.3246 3.83398 14.3961 3.80435 14.4489 3.75161C14.5016 3.69886 14.5312 3.62733 14.5312 3.55273V2.42773C14.5312 2.35314 14.5016 2.28161 14.4489 2.22886C14.3961 2.17612 14.3246 2.14648 14.25 2.14648H12.8438V0.927734C12.8438 0.853142 12.8141 0.781605 12.7614 0.728861C12.7086 0.676116 12.6371 0.646484 12.5625 0.646484H11.4375C11.3629 0.646484 11.2914 0.676116 11.2386 0.728861C11.1859 0.781605 11.1562 0.853142 11.1562 0.927734V2.14648H9.75C9.67541 2.14648 9.60387 2.17612 9.55113 2.22886C9.49838 2.28161 9.46875 2.35314 9.46875 2.42773V3.55273C9.46875 3.62733 9.49838 3.69886 9.55113 3.75161C9.60387 3.80435 9.67541 3.83398 9.75 3.83398H11.1562V6.34386L4.03125 11.6876C3.97166 11.7324 3.93227 11.799 3.92173 11.8729C3.91119 11.9467 3.93034 12.0217 3.975 12.0814L4.875 13.2814C4.91981 13.341 4.98647 13.3804 5.06031 13.3908C5.13414 13.4013 5.20912 13.382 5.26875 13.3372L5.71875 12.9997V13.9121L0.28125 17.9902C0.22166 18.0351 0.182275 18.1017 0.17173 18.1755C0.161185 18.2493 0.180342 18.3243 0.225 18.384L1.125 19.584C1.16982 19.6436 1.23643 19.683 1.31025 19.6935C1.38406 19.704 1.45904 19.6849 1.51875 19.6402L1.96875 19.3027V22.7715H0.375C0.300408 22.7715 0.228871 22.8011 0.176126 22.8539C0.123382 22.9066 0.09375 22.9781 0.09375 23.0527V24.1777C0.09375 24.2523 0.123382 24.3239 0.176126 24.3766C0.228871 24.4294 0.300408 24.459 0.375 24.459H23.625C23.6996 24.459 23.7711 24.4294 23.8239 24.3766C23.8766 24.3239 23.9062 24.2523 23.9062 24.1777V23.0527C23.9062 22.9781 23.8766 22.9066 23.8239 22.8539C23.7711 22.8011 23.6996 22.7715 23.625 22.7715ZM23.1562 18.2715L22.5938 19.0215L18.2812 15.7871V14.6152L23.1562 18.2715ZM21.4688 18.8809V22.7715H18.2812V16.4902L21.4688 18.8809ZM10.0312 3.27148V2.70898H11.4375C11.5121 2.70898 11.5836 2.67935 11.6364 2.62661C11.6891 2.57386 11.7188 2.50233 11.7188 2.42773V1.20898H12.2812V2.42773C12.2812 2.50233 12.3109 2.57386 12.3636 2.62661C12.4164 2.67935 12.4879 2.70898 12.5625 2.70898H13.9688V3.27148H12.5625C12.4879 3.27148 12.4164 3.30112 12.3636 3.35386C12.3109 3.40661 12.2812 3.47814 12.2812 3.55273V6.20323H11.7188V3.55273C11.7188 3.47814 11.6891 3.40661 11.6364 3.35386C11.5836 3.30112 11.5121 3.27148 11.4375 3.27148H10.0312ZM5.15625 12.7189L4.59375 11.9689L11.5312 6.76573H12.4688L19.4062 11.9689L18.8438 12.7189L12.1688 7.71261C12.1201 7.6761 12.0609 7.65636 12 7.65636C11.9391 7.65636 11.8799 7.6761 11.8312 7.71261L5.15625 12.7189ZM12 11.8965C10.7324 11.898 9.51713 12.4022 8.62079 13.2985C7.72445 14.1949 7.22024 15.4101 7.21875 16.6777V22.7715H6.28125V12.5782L12 8.28898L17.7188 12.5782V22.7715H16.7812V16.6777C16.7798 15.4101 16.2755 14.1949 15.3792 13.2985C14.4829 12.4022 13.2676 11.898 12 11.8965ZM12 13.0215C11.0306 13.0226 10.1013 13.4081 9.41585 14.0936C8.7304 14.779 8.34484 15.7084 8.34375 16.6777V22.7715H7.78125V16.6777C7.78125 15.5589 8.22572 14.4858 9.01689 13.6946C9.80806 12.9035 10.8811 12.459 12 12.459C13.1189 12.459 14.1919 12.9035 14.9831 13.6946C15.7743 14.4858 16.2188 15.5589 16.2188 16.6777V22.7715H15.6562V16.6777C15.6552 15.7084 15.2696 14.779 14.5842 14.0936C13.8987 13.4081 12.9694 13.0226 12 13.0215ZM10.0312 20.5215V20.4277C10.0314 20.3035 10.0809 20.1844 10.1688 20.0965C10.2566 20.0086 10.3757 19.9592 10.5 19.959H13.5C13.6243 19.9592 13.7434 20.0086 13.8312 20.0965C13.9191 20.1844 13.9686 20.3035 13.9688 20.4277V20.5215H10.0312ZM12.4688 21.084V21.1777C12.4688 21.3021 12.4194 21.4213 12.3315 21.5092C12.2435 21.5971 12.1243 21.6465 12 21.6465C11.8757 21.6465 11.7565 21.5971 11.6685 21.5092C11.5806 21.4213 11.5312 21.3021 11.5312 21.1777V21.084H12.4688ZM13.4062 19.3965H10.5938V18.2715H13.4062V19.3965ZM10.6222 17.709C10.6872 17.3915 10.8597 17.1062 11.1108 16.9012C11.3618 16.6963 11.6759 16.5844 12 16.5844C12.3241 16.5844 12.6382 16.6963 12.8892 16.9012C13.1403 17.1062 13.3128 17.3915 13.3778 17.709H10.6222ZM11.7188 16.05V15.7402C11.7188 15.6656 11.7484 15.5941 11.8011 15.5414C11.8539 15.4886 11.9254 15.459 12 15.459C12.0746 15.459 12.1461 15.4886 12.1989 15.5414C12.2516 15.5941 12.2812 15.6656 12.2812 15.7402V16.05C12.0957 16.012 11.9043 16.012 11.7188 16.05ZM12.8438 16.0215V15.7402C12.8438 15.5165 12.7549 15.3018 12.5966 15.1436C12.4384 14.9854 12.2238 14.8965 12 14.8965C11.7762 14.8965 11.5616 14.9854 11.4034 15.1436C11.2451 15.3018 11.1562 15.5165 11.1562 15.7402V16.0215H8.97787C9.12745 15.3311 9.50888 14.7128 10.0587 14.2693C10.6085 13.8259 11.2936 13.584 12 13.584C12.7064 13.584 13.3915 13.8259 13.9413 14.2693C14.4911 14.7128 14.8725 15.3311 15.0221 16.0215H12.8438ZM10.6264 16.584C10.4382 16.7667 10.2886 16.9853 10.1863 17.2268C10.0841 17.4684 10.0314 17.728 10.0312 17.9902V19.5146C9.86255 19.6003 9.72077 19.7309 9.62152 19.892C9.52228 20.0531 9.46941 20.2385 9.46875 20.4277V20.8027C9.46875 20.8773 9.49838 20.9489 9.55113 21.0016C9.60387 21.0544 9.67541 21.084 9.75 21.084H10.9688V21.1777C10.9688 21.4512 11.0774 21.7135 11.2708 21.9069C11.4642 22.1003 11.7265 22.209 12 22.209C12.2735 22.209 12.5358 22.1003 12.7292 21.9069C12.9226 21.7135 13.0312 21.4512 13.0312 21.1777V21.084H14.25C14.3246 21.084 14.3961 21.0544 14.4489 21.0016C14.5016 20.9489 14.5312 20.8773 14.5312 20.8027V20.4277C14.5306 20.2385 14.4777 20.0531 14.3785 19.892C14.2792 19.7309 14.1375 19.6003 13.9688 19.5146V17.9902C13.9686 17.728 13.9159 17.4684 13.8137 17.2268C13.7114 16.9853 13.5618 16.7667 13.3736 16.584H15.0889C15.0889 16.6155 15.0938 16.6462 15.0938 16.6777V22.7715H8.90625V16.6777C8.90625 16.6462 8.91 16.6155 8.91113 16.584H10.6264ZM1.40625 19.0215L0.84375 18.2715L5.71875 14.6152V15.7871L1.40625 19.0215ZM5.71875 16.4902V22.7715H2.53125V18.8809L5.71875 16.4902ZM23.3438 23.8965H0.65625V23.334H23.3438V23.8965Z" fill="black"/>
</g>
<defs>
<clipPath id="clip0_2520_5623">
<rect width="24" height="24" fill="white" transform="translate(0 0.552734)"/>
</clipPath>
</defs>
</svg>
