<svg width="350" height="350" viewBox="0 0 350 350" fill="none" xmlns="http://www.w3.org/2000/svg">
<path d="M113.382 205.798C113.382 205.46 113.697 205.155 114.335 205.015H115.956C116.594 205.155 116.909 205.46 116.909 205.806C116.909 206.152 116.594 206.448 115.956 206.597H114.335C113.697 206.448 113.382 206.152 113.382 205.798Z" fill="#D1DCF8"/>
<path d="M100.122 205.798C100.122 205.46 100.715 205.155 101.915 205.015H104.963C106.161 205.155 106.754 205.46 106.754 205.806C106.754 206.152 106.161 206.448 104.963 206.597H101.915C100.715 206.448 100.122 206.152 100.122 205.798Z" fill="#D1DCF8"/>
<path d="M86.8555 205.797C86.8555 205.459 87.4486 205.154 88.648 205.014H91.6961C92.8944 205.154 93.4875 205.459 93.4875 205.805C93.4875 206.151 92.8943 206.447 91.6961 206.596H88.648C87.4486 206.447 86.8555 206.151 86.8555 205.797Z" fill="#D1DCF8"/>
<path d="M73.5928 205.798C73.5928 205.46 74.1859 205.155 75.3853 205.015H78.4334C79.6317 205.155 80.2248 205.46 80.2248 205.806C80.2248 206.152 79.6316 206.448 78.4334 206.597H75.3853C74.1859 206.448 73.5928 206.152 73.5928 205.798Z" fill="#D1DCF8"/>
<path d="M63.4408 202.277C63.7783 202.277 64.0832 202.908 64.2232 204.184V205.013H65.0542C66.3288 205.153 66.9598 205.458 66.9598 205.804C66.9598 206.15 66.3288 206.447 65.0542 206.595H62.6416V204.184C62.7899 202.908 63.0865 202.277 63.4408 202.277Z" fill="#D1DCF8"/>
<path d="M63.4407 191.207C63.7783 191.207 64.0832 191.702 64.2232 192.703V195.248C64.0832 196.248 63.7783 196.743 63.4324 196.743C63.0865 196.743 62.7899 196.248 62.6416 195.248V192.703C62.7899 191.702 63.0864 191.207 63.4407 191.207Z" fill="#D1DCF8"/>
<path d="M66.9597 182.151C66.9597 182.489 66.3288 182.794 65.0529 182.934H64.2232V183.765C64.0832 185.039 63.7783 185.67 63.4324 185.67C63.0865 185.67 62.7899 185.039 62.6416 183.765V181.352H65.053C66.3288 181.5 66.9597 181.797 66.9597 182.151Z" fill="#D1DCF8"/>
<path d="M76.7645 182.151C76.7645 182.489 76.326 182.794 75.4394 182.934H73.1864C72.3007 182.794 71.8623 182.489 71.8623 182.143C71.8623 181.797 72.3008 181.501 73.1864 181.352H75.4394C76.326 181.5 76.7645 181.797 76.7645 182.151Z" fill="#D1DCF8"/>
<path d="M85.186 185.669C84.8484 185.669 84.5435 185.038 84.4035 183.762V182.932H83.5725C82.298 182.792 81.667 182.487 81.667 182.141C81.667 181.796 82.298 181.499 83.5725 181.351H85.9852V183.762C85.8368 185.038 85.5402 185.669 85.186 185.669Z" fill="#D1DCF8"/>
<path d="M85.1887 199.185C84.8512 199.185 84.5463 198.581 84.4062 197.358V194.252C84.5463 193.031 84.8512 192.427 85.197 192.427C85.5429 192.427 85.8395 193.031 85.9878 194.252V197.358C85.8395 198.581 85.543 199.185 85.1887 199.185Z" fill="#D1DCF8"/>
<path d="M85.1887 212.701C84.8512 212.701 84.5463 212.097 84.4062 210.875V207.768C84.5463 206.547 84.8512 205.943 85.197 205.943C85.5429 205.943 85.8395 206.547 85.9878 207.768V210.875C85.8395 212.097 85.543 212.701 85.1887 212.701Z" fill="#D1DCF8"/>
<path d="M81.667 222.979C81.667 222.642 82.2979 222.337 83.5738 222.197H84.4035V221.366C84.5435 220.091 84.8484 219.46 85.1943 219.46C85.5402 219.46 85.8368 220.091 85.9851 221.366V223.779H83.5737C82.2979 223.63 81.667 223.334 81.667 222.979Z" fill="#D1DCF8"/>
<path d="M66.0811 222.979C66.0811 222.641 66.778 222.336 68.1874 222.196H71.769C73.177 222.336 73.874 222.641 73.874 222.987C73.874 223.333 73.177 223.63 71.769 223.778H68.1874C66.778 223.63 66.0811 223.333 66.0811 222.979Z" fill="#D1DCF8"/>
<path d="M50.4951 222.979C50.4951 222.641 51.1921 222.336 52.6015 222.196H56.1832C57.5912 222.336 58.2881 222.641 58.2881 222.987C58.2881 223.333 57.5912 223.63 56.1832 223.778H52.6015C51.1921 223.63 50.4951 223.333 50.4951 222.979Z" fill="#D1DCF8"/>
<path d="M39.1859 219.459C39.5234 219.459 39.8284 220.09 39.9684 221.366V222.196H40.7993C42.074 222.336 42.7049 222.64 42.7049 222.986C42.7049 223.332 42.074 223.629 40.7993 223.777H38.3867V221.366C38.535 220.09 38.8316 219.459 39.1859 219.459Z" fill="#D1DCF8"/>
<path d="M39.1859 206.462C39.5234 206.462 39.8284 207.044 39.9684 208.219V211.206C39.8284 212.38 39.5235 212.961 39.1776 212.961C38.8316 212.961 38.5351 212.38 38.3867 211.206V208.219C38.535 207.044 38.8316 206.462 39.1859 206.462Z" fill="#D1DCF8"/>
<path d="M39.1859 193.466C39.5234 193.466 39.8284 194.047 39.9684 195.222V198.209C39.8284 199.383 39.5235 199.965 39.1776 199.965C38.8316 199.965 38.5351 199.383 38.3867 198.209V195.222C38.535 194.047 38.8316 193.466 39.1859 193.466Z" fill="#D1DCF8"/>
<path d="M39.1859 180.467C39.5234 180.467 39.8284 181.048 39.9684 182.223V185.21C39.8284 186.384 39.5235 186.966 39.1776 186.966C38.8316 186.966 38.5351 186.384 38.3867 185.21V182.223C38.535 181.048 38.8316 180.467 39.1859 180.467Z" fill="#D1DCF8"/>
<path d="M39.1859 167.47C39.5234 167.47 39.8284 168.051 39.9684 169.227V172.214C39.8284 173.388 39.5235 173.969 39.1776 173.969C38.8316 173.969 38.5351 173.388 38.3867 172.214V169.227C38.535 168.051 38.8316 167.47 39.1859 167.47Z" fill="#D1DCF8"/>
<path d="M39.1859 154.474C39.5234 154.474 39.8284 155.055 39.9684 156.23V159.217C39.8284 160.391 39.5235 160.973 39.1776 160.973C38.8316 160.973 38.5351 160.391 38.3867 159.217V156.23C38.535 155.055 38.8316 154.474 39.1859 154.474Z" fill="#D1DCF8"/>
<path d="M39.1859 141.473C39.5234 141.473 39.8284 142.054 39.9684 143.23V146.217C39.8284 147.391 39.5235 147.972 39.1776 147.972C38.8316 147.972 38.5351 147.391 38.3867 146.217V143.23C38.535 142.054 38.8316 141.473 39.1859 141.473Z" fill="#D1DCF8"/>
<path d="M42.7049 131.456C42.7049 131.794 42.074 132.099 40.7981 132.239H39.9684V133.07C39.8284 134.344 39.5235 134.975 39.1776 134.975C38.8316 134.975 38.5351 134.344 38.3867 133.07V130.657H40.7981C42.0739 130.806 42.7049 131.102 42.7049 131.456Z" fill="#D1DCF8"/>
<path d="M53.7218 131.455C53.7218 131.793 53.229 132.098 52.2325 132.238H49.7002C48.7047 132.098 48.2119 131.793 48.2119 131.447C48.2119 131.101 48.7046 130.805 49.7002 130.656H52.2325C53.229 130.805 53.7218 131.101 53.7218 131.455Z" fill="#D1DCF8"/>
<path d="M64.7413 131.455C64.7413 131.793 64.2485 132.098 63.252 132.238H60.7197C59.7242 132.098 59.2314 131.793 59.2314 131.447C59.2314 131.101 59.7242 130.805 60.7197 130.656H63.252C64.2486 130.805 64.7413 131.101 64.7413 131.455Z" fill="#D1DCF8"/>
<path d="M73.7877 127.92C74.1252 127.92 74.4301 128.551 74.5701 129.827V132.239H72.1575C70.8829 132.099 70.252 131.794 70.252 131.448C70.252 131.102 70.8829 130.805 72.1575 130.657H72.9885V129.827C73.1369 128.551 73.4334 127.92 73.7877 127.92Z" fill="#D1DCF8"/>
<path d="M73.7854 114.132C74.123 114.132 74.4279 114.749 74.5679 115.995V119.164C74.4279 120.41 74.123 121.026 73.7771 121.026C73.4312 121.026 73.1347 120.41 72.9863 119.164V115.995C73.1347 114.749 73.4312 114.132 73.7854 114.132Z" fill="#D1DCF8"/>
<path d="M73.7854 100.341C74.123 100.341 74.4279 100.958 74.5679 102.205V105.374C74.4279 106.619 74.123 107.236 73.7771 107.236C73.4312 107.236 73.1347 106.619 72.9863 105.374V102.205C73.1347 100.958 73.4312 100.341 73.7854 100.341Z" fill="#D1DCF8"/>
<path d="M73.7854 86.5532C74.123 86.5532 74.4279 87.1699 74.5679 88.4168V91.5855C74.4279 92.8312 74.123 93.4478 73.7771 93.4478C73.4312 93.4478 73.1347 92.8312 72.9863 91.5855V88.4168C73.1347 87.1699 73.4312 86.5532 73.7854 86.5532Z" fill="#D1DCF8"/>
<path d="M73.7854 72.7627C74.123 72.7627 74.4279 73.3793 74.5679 74.6262V77.7949C74.4279 79.0406 74.123 79.6572 73.7771 79.6572C73.4312 79.6572 73.1347 79.0406 72.9863 77.7949V74.6262C73.1347 73.3793 73.4312 72.7627 73.7854 72.7627Z" fill="#D1DCF8"/>
<path d="M77.3044 62.35C77.3044 62.6874 76.6735 62.9924 75.3976 63.1324H74.5679V63.9634C74.4279 65.238 74.123 65.8689 73.7771 65.8689C73.4312 65.8689 73.1347 65.238 72.9863 63.9634V61.5508H75.3977C76.6735 61.6992 77.3044 61.9957 77.3044 62.35Z" fill="#D1DCF8"/>
<path d="M91.0989 62.35C91.0989 62.6875 90.4821 62.9925 89.2348 63.1325H86.0651C84.819 62.9925 84.2021 62.6876 84.2021 62.3416C84.2021 61.9958 84.819 61.6992 86.0651 61.5508H89.2348C90.4821 61.6993 91.0989 61.9958 91.0989 62.35Z" fill="#D1DCF8"/>
<path d="M104.893 62.35C104.893 62.6875 104.276 62.9925 103.029 63.1325H99.859C98.6129 62.9925 97.9961 62.6876 97.9961 62.3416C97.9961 61.9958 98.6129 61.6992 99.859 61.5508H103.029C104.276 61.6993 104.893 61.9958 104.893 62.35Z" fill="#D1DCF8"/>
<path d="M118.688 62.35C118.688 62.6875 118.071 62.9925 116.824 63.1325H113.654C112.408 62.9925 111.791 62.6876 111.791 62.3416C111.791 61.9958 112.408 61.6992 113.654 61.5508H116.824C118.071 61.6993 118.688 61.9958 118.688 62.35Z" fill="#D1DCF8"/>
<path d="M132.479 62.35C132.479 62.6875 131.862 62.9925 130.615 63.1325H127.445C126.199 62.9925 125.582 62.6876 125.582 62.3416C125.582 61.9958 126.199 61.6992 127.445 61.5508H130.615C131.862 61.6993 132.479 61.9958 132.479 62.35Z" fill="#D1DCF8"/>
<path d="M146.273 62.35C146.273 62.6875 145.656 62.9925 144.409 63.1325H141.239C139.993 62.9925 139.376 62.6876 139.376 62.3416C139.376 61.9958 139.993 61.6992 141.239 61.5508H144.409C145.656 61.6993 146.273 61.9958 146.273 62.35Z" fill="#D1DCF8"/>
<path d="M160.064 62.35C160.064 62.6875 159.447 62.9925 158.2 63.1325H155.03C153.784 62.9925 153.167 62.6876 153.167 62.3416C153.167 61.9958 153.784 61.6992 155.03 61.5508H158.2C159.447 61.6993 160.064 61.9958 160.064 62.35Z" fill="#D1DCF8"/>
<path d="M173.861 62.35C173.861 62.6875 173.244 62.9925 171.997 63.1325H168.827C167.581 62.9925 166.964 62.6876 166.964 62.3416C166.964 61.9958 167.581 61.6992 168.827 61.5508H171.997C173.244 61.6993 173.861 61.9958 173.861 62.35Z" fill="#D1DCF8"/>
<path d="M187.656 62.35C187.656 62.6875 187.039 62.9925 185.791 63.1325H182.622C181.376 62.9925 180.759 62.6876 180.759 62.3416C180.759 61.9958 181.376 61.6992 182.622 61.5508H185.791C187.039 61.6993 187.656 61.9958 187.656 62.35Z" fill="#D1DCF8"/>
<path d="M201.45 62.35C201.45 62.6875 200.834 62.9925 199.586 63.1325H196.417C195.171 62.9925 194.554 62.6876 194.554 62.3416C194.554 61.9958 195.171 61.6992 196.417 61.5508H199.586C200.834 61.6993 201.45 61.9958 201.45 62.35Z" fill="#D1DCF8"/>
<path d="M215.241 62.35C215.241 62.6875 214.625 62.9925 213.377 63.1325H210.208C208.962 62.9925 208.345 62.6876 208.345 62.3416C208.345 61.9958 208.962 61.6992 210.208 61.5508H213.377C214.625 61.6993 215.241 61.9958 215.241 62.35Z" fill="#D1DCF8"/>
<path d="M229.035 62.35C229.035 62.6875 228.419 62.9925 227.171 63.1325H224.002C222.756 62.9925 222.139 62.6876 222.139 62.3416C222.139 61.9958 222.756 61.6992 224.002 61.5508H227.171C228.419 61.6993 229.035 61.9958 229.035 62.35Z" fill="#D1DCF8"/>
<path d="M242.829 62.35C242.829 62.6875 242.213 62.9925 240.965 63.1325H237.796C236.549 62.9925 235.933 62.6876 235.933 62.3416C235.933 61.9958 236.549 61.6992 237.796 61.5508H240.965C242.213 61.6993 242.829 61.9958 242.829 62.35Z" fill="#D1DCF8"/>
<path d="M256.623 62.35C256.623 62.6875 256.006 62.9925 254.759 63.1325H251.589C250.343 62.9925 249.727 62.6876 249.727 62.3416C249.727 61.9958 250.343 61.6992 251.589 61.5508H254.759C256.006 61.6993 256.623 61.9958 256.623 62.35Z" fill="#D1DCF8"/>
<path d="M267.04 65.8699C266.703 65.8699 266.398 65.239 266.258 63.9631V63.1335H265.427C264.152 62.9935 263.521 62.6886 263.521 62.3426C263.521 61.9967 264.152 61.7002 265.427 61.5518H267.84V63.9631C267.691 65.2389 267.395 65.8699 267.04 65.8699Z" fill="#D1DCF8"/>
<path d="M267.04 80.8058C266.703 80.8058 266.398 80.1378 266.258 78.787V75.3543C266.398 74.0049 266.703 73.3369 267.049 73.3369C267.394 73.3369 267.691 74.005 267.839 75.3543V78.787C267.691 80.1378 267.395 80.8058 267.04 80.8058Z" fill="#D1DCF8"/>
<path d="M267.04 91.8037C266.703 91.8037 266.398 91.4882 266.258 90.8503V89.2292C266.398 88.5919 266.703 88.2764 267.049 88.2764C267.394 88.2764 267.691 88.5919 267.839 89.2292V90.8503C267.691 91.4882 267.395 91.8037 267.04 91.8037Z" fill="#D1DCF8"/>
<path d="M234.94 94.6725V282.888C234.94 292.777 226.913 300.788 217.025 300.788H119.411C109.522 300.788 101.496 292.777 101.496 282.888V94.6725C101.496 84.7837 109.522 76.7725 119.411 76.7725H217.025C226.913 76.7725 234.94 84.7837 234.94 94.6725Z" fill="#3A4146"/>
<path d="M234.94 94.6725V282.888C234.94 292.777 226.913 300.788 217.025 300.788H119.411C109.522 300.788 101.496 292.777 101.496 282.888V94.6725C101.496 84.7837 109.522 76.7725 119.411 76.7725H217.025C226.913 76.7725 234.94 84.7837 234.94 94.6725Z" fill="#4A5258"/>
<path d="M119.411 295.768C112.302 295.768 106.518 289.99 106.518 282.889V94.673C106.518 87.5716 112.295 81.7939 119.397 81.7939H134.607C135.848 81.7939 136.859 82.8036 136.859 84.0452C136.859 86.4391 138.806 88.3863 141.2 88.3863H196.109C198.503 88.3863 200.45 86.4391 200.45 84.0452C200.45 82.8036 201.461 81.7939 202.702 81.7939H217.026C224.135 81.7939 229.919 87.578 229.919 94.6883V282.889C229.919 289.99 224.135 295.768 217.026 295.768H119.411Z" fill="white"/>
<g opacity="0.5">
<path d="M119.411 295.768C112.302 295.768 106.518 289.99 106.518 282.889V94.673C106.518 87.5716 112.295 81.7939 119.397 81.7939H134.607C135.848 81.7939 136.859 82.8036 136.859 84.0452C136.859 86.4391 138.806 88.3863 141.2 88.3863H196.109C198.503 88.3863 200.45 86.4391 200.45 84.0452C200.45 82.8036 201.461 81.7939 202.702 81.7939H217.026C224.135 81.7939 229.919 87.578 229.919 94.6883V282.889C229.919 289.99 224.135 295.768 217.026 295.768H119.411Z" fill="#64D3FF"/>
</g>
<g opacity="0.1">
<path d="M111.182 189.984V278.505L118.462 273.172L123.433 278.747L128.417 273.17L133.391 278.749L138.364 273.172L143.335 278.747L148.319 273.17L153.293 278.749L158.267 273.172L163.238 278.747L168.221 273.17L173.196 278.749L178.169 273.172L183.141 278.747L188.123 273.17L193.098 278.749L198.071 273.172L203.044 278.749L208.019 273.17L213.002 278.747L217.974 273.172L225.254 278.505V189.984H111.182Z" fill="black"/>
</g>
<path d="M151.714 85.9268C152.926 85.9268 153.908 84.9446 153.908 83.7329C153.908 82.5213 152.926 81.5391 151.714 81.5391C150.503 81.5391 149.521 82.5213 149.521 83.7329C149.521 84.9446 150.503 85.9268 151.714 85.9268Z" fill="#2E363A"/>
<path d="M186.911 83.7265V83.7381C186.911 84.2708 186.485 84.6965 185.953 84.6965H156.763C156.231 84.6965 155.805 84.2707 155.805 83.7381V83.7265C155.805 83.1939 156.231 82.7681 156.763 82.7681H185.953C186.485 82.768 186.911 83.1938 186.911 83.7265Z" fill="#2E363A"/>
<path d="M225.256 104.182V272.808L220.074 267.23L214.893 272.808L209.699 267.23L204.517 272.808L199.323 267.23L194.142 272.808L188.96 267.23L183.766 272.808L178.584 267.23L173.403 272.808L168.221 267.23L163.027 272.808L157.845 267.23L152.664 272.808L147.482 267.23L142.288 272.808L137.106 267.23L131.925 272.808L126.743 267.23L121.549 272.808L116.367 267.23L111.186 272.808V104.182C111.186 101.717 113.181 99.7212 115.634 99.7212H220.795C223.26 99.7212 225.256 101.717 225.256 104.182Z" fill="white"/>
<path d="M146.915 117.31C146.824 117.219 146.779 117.108 146.779 116.976V110.536C146.779 110.404 146.824 110.29 146.915 110.196C147.005 110.102 147.116 110.056 147.249 110.056C147.381 110.056 147.494 110.102 147.588 110.196C147.682 110.29 147.729 110.404 147.729 110.536V116.976C147.729 117.108 147.682 117.219 147.588 117.31C147.494 117.4 147.381 117.446 147.249 117.446C147.116 117.445 147.005 117.4 146.915 117.31Z" fill="#4A5258"/>
<path d="M149.888 117.311C149.798 117.22 149.753 117.109 149.753 116.976V110.745C149.753 110.557 149.819 110.395 149.951 110.259C150.083 110.124 150.243 110.056 150.431 110.056H150.567C150.789 110.056 150.981 110.16 151.141 110.369L155.159 116.173V110.536C155.159 110.404 155.205 110.291 155.295 110.197C155.386 110.103 155.497 110.056 155.63 110.056C155.762 110.056 155.875 110.103 155.968 110.197C156.062 110.291 156.109 110.404 156.109 110.536V116.768C156.109 116.955 156.042 117.115 155.906 117.248C155.77 117.38 155.608 117.446 155.421 117.446H155.295C155.184 117.446 155.08 117.42 154.982 117.368C154.884 117.316 154.805 117.248 154.742 117.164L150.703 111.33V116.977C150.703 117.109 150.656 117.22 150.562 117.311C150.468 117.401 150.355 117.446 150.223 117.446C150.09 117.446 149.979 117.401 149.888 117.311Z" fill="#4A5258"/>
<path d="M159.983 116.968L157.405 110.715C157.384 110.659 157.373 110.6 157.373 110.538C157.373 110.391 157.415 110.275 157.499 110.188C157.582 110.101 157.697 110.058 157.843 110.058C157.94 110.058 158.029 110.087 158.109 110.146C158.189 110.205 158.25 110.284 158.292 110.381L160.745 116.497L163.197 110.381C163.239 110.284 163.3 110.205 163.38 110.146C163.46 110.087 163.549 110.058 163.646 110.058C163.793 110.058 163.907 110.101 163.991 110.188C164.075 110.275 164.116 110.391 164.116 110.538C164.116 110.6 164.106 110.659 164.085 110.715L161.507 116.968C161.361 117.287 161.145 117.448 160.86 117.448H160.63C160.345 117.448 160.129 117.287 159.983 116.968Z" fill="#4A5258"/>
<path d="M166.546 117.018C165.996 116.698 165.571 116.256 165.272 115.692C164.973 115.129 164.817 114.482 164.803 113.751C164.817 113.02 164.973 112.373 165.272 111.81C165.571 111.246 165.996 110.804 166.546 110.484C167.096 110.164 167.736 110.004 168.467 110.004C169.197 110.004 169.835 110.164 170.382 110.484C170.928 110.804 171.353 111.247 171.655 111.815C171.958 112.382 172.116 113.027 172.13 113.751C172.116 114.475 171.958 115.12 171.655 115.687C171.353 116.254 170.928 116.698 170.382 117.018C169.835 117.338 169.197 117.498 168.467 117.498C167.736 117.498 167.096 117.338 166.546 117.018ZM169.917 116.235C170.328 115.985 170.641 115.644 170.857 115.212C171.073 114.781 171.181 114.294 171.181 113.751C171.181 113.208 171.073 112.721 170.857 112.29C170.641 111.858 170.328 111.517 169.917 111.267C169.506 111.016 169.023 110.891 168.467 110.891C167.903 110.891 167.417 111.016 167.01 111.267C166.603 111.517 166.292 111.858 166.076 112.29C165.86 112.721 165.752 113.208 165.752 113.751C165.752 114.294 165.86 114.781 166.076 115.212C166.292 115.644 166.603 115.985 167.01 116.235C167.417 116.486 167.903 116.611 168.467 116.611C169.023 116.611 169.506 116.486 169.917 116.235Z" fill="#4A5258"/>
<path d="M173.852 117.312C173.762 117.221 173.717 117.11 173.717 116.978V110.538C173.717 110.406 173.762 110.292 173.852 110.198C173.942 110.104 174.054 110.058 174.186 110.058C174.318 110.058 174.431 110.104 174.526 110.198C174.619 110.292 174.666 110.406 174.666 110.538V116.978C174.666 117.11 174.619 117.221 174.526 117.312C174.431 117.402 174.318 117.448 174.186 117.448C174.054 117.447 173.942 117.402 173.852 117.312Z" fill="#4A5258"/>
<path d="M178.034 117.046C177.48 116.743 177.046 116.308 176.729 115.741C176.412 115.174 176.254 114.511 176.254 113.753C176.254 112.994 176.412 112.331 176.729 111.764C177.046 111.197 177.48 110.762 178.034 110.459C178.587 110.156 179.211 110.005 179.907 110.005C180.38 110.005 180.803 110.061 181.175 110.172C181.548 110.284 181.918 110.443 182.287 110.652C182.44 110.736 182.517 110.868 182.517 111.049C182.517 111.154 182.478 111.245 182.402 111.326C182.325 111.406 182.225 111.446 182.099 111.446C182.029 111.446 181.967 111.432 181.911 111.404C181.605 111.244 181.306 111.122 181.014 111.039C180.722 110.955 180.383 110.914 180.001 110.914C179.402 110.914 178.893 111.037 178.472 111.284C178.051 111.531 177.734 111.868 177.522 112.297C177.31 112.724 177.203 113.209 177.203 113.753C177.203 114.295 177.31 114.781 177.522 115.208C177.734 115.636 178.051 115.974 178.472 116.221C178.893 116.468 179.402 116.592 180.001 116.592C180.383 116.592 180.722 116.55 181.014 116.466C181.306 116.383 181.605 116.261 181.911 116.101C181.967 116.073 182.029 116.059 182.099 116.059C182.225 116.059 182.325 116.098 182.402 116.174C182.478 116.25 182.517 116.345 182.517 116.456C182.517 116.637 182.44 116.769 182.287 116.853C181.918 117.061 181.548 117.221 181.175 117.333C180.803 117.444 180.38 117.5 179.907 117.5C179.211 117.5 178.587 117.348 178.034 117.046Z" fill="#4A5258"/>
<path d="M184.082 117.259C183.991 117.168 183.946 117.057 183.946 116.925V110.589C183.946 110.457 183.991 110.344 184.082 110.25C184.172 110.155 184.283 110.109 184.416 110.109H188.601C188.727 110.109 188.833 110.152 188.92 110.239C189.007 110.327 189.05 110.432 189.05 110.557C189.05 110.683 189.007 110.787 188.92 110.871C188.833 110.954 188.727 110.996 188.601 110.996H184.896V113.303H188.226C188.351 113.303 188.457 113.346 188.544 113.433C188.631 113.52 188.675 113.627 188.675 113.752C188.675 113.877 188.631 113.981 188.544 114.065C188.457 114.148 188.351 114.19 188.226 114.19H184.896V116.507H188.601C188.727 116.507 188.833 116.55 188.92 116.638C189.007 116.725 189.05 116.831 189.05 116.956C189.05 117.082 189.007 117.186 188.92 117.269C188.833 117.353 188.727 117.394 188.601 117.394H184.416C184.283 117.394 184.172 117.349 184.082 117.259Z" fill="#4A5258"/>
<path d="M118.866 129.928C118.866 130.266 118.551 130.571 117.913 130.711H116.292C115.654 130.571 115.339 130.266 115.339 129.92C115.339 129.574 115.654 129.277 116.292 129.129H117.913C118.551 129.277 118.866 129.574 118.866 129.928Z" fill="#D1DCF8"/>
<path d="M132.03 129.928C132.03 130.266 131.441 130.571 130.251 130.711H127.227C126.038 130.571 125.449 130.266 125.449 129.92C125.449 129.574 126.038 129.277 127.227 129.129H130.251C131.441 129.277 132.03 129.574 132.03 129.928Z" fill="#D1DCF8"/>
<path d="M145.191 129.929C145.191 130.267 144.602 130.572 143.412 130.712H140.388C139.199 130.572 138.61 130.267 138.61 129.921C138.61 129.575 139.199 129.278 140.388 129.13H143.412C144.602 129.278 145.191 129.575 145.191 129.929Z" fill="#D1DCF8"/>
<path d="M158.35 129.929C158.35 130.266 157.762 130.571 156.571 130.711H153.547C152.358 130.571 151.77 130.266 151.77 129.92C151.77 129.574 152.358 129.278 153.547 129.129H156.571C157.762 129.278 158.35 129.574 158.35 129.929Z" fill="#D1DCF8"/>
<path d="M171.514 129.928C171.514 130.266 170.926 130.571 169.736 130.711H166.711C165.522 130.571 164.934 130.266 164.934 129.92C164.934 129.574 165.522 129.277 166.711 129.129H169.736C170.926 129.277 171.514 129.574 171.514 129.928Z" fill="#D1DCF8"/>
<path d="M184.673 129.928C184.673 130.266 184.085 130.571 182.895 130.711H179.87C178.681 130.571 178.093 130.266 178.093 129.92C178.093 129.574 178.681 129.277 179.87 129.129H182.895C184.085 129.277 184.673 129.574 184.673 129.928Z" fill="#D1DCF8"/>
<path d="M197.835 129.929C197.835 130.267 197.247 130.572 196.057 130.712H193.032C191.843 130.572 191.255 130.267 191.255 129.921C191.255 129.575 191.843 129.278 193.032 129.13H196.057C197.247 129.278 197.835 129.575 197.835 129.929Z" fill="#D1DCF8"/>
<path d="M210.995 129.929C210.995 130.266 210.406 130.571 209.216 130.711H206.192C205.003 130.571 204.414 130.266 204.414 129.92C204.414 129.574 205.003 129.278 206.192 129.129H209.216C210.406 129.278 210.995 129.574 210.995 129.929Z" fill="#D1DCF8"/>
<path d="M221.105 129.928C221.105 130.266 220.789 130.571 220.151 130.711H218.53C217.893 130.571 217.577 130.266 217.577 129.92C217.577 129.574 217.893 129.277 218.53 129.129H220.151C220.789 129.277 221.105 129.574 221.105 129.928Z" fill="#D1DCF8"/>
<path d="M151.148 143.527H117.992C117.395 143.527 116.91 143.043 116.91 142.445V140.513C116.91 139.916 117.394 139.431 117.992 139.431H151.148C151.746 139.431 152.23 139.915 152.23 140.513V142.445C152.23 143.043 151.746 143.527 151.148 143.527Z" fill="#D1DCF8"/>
<path d="M198.15 152.259H117.992C117.395 152.259 116.91 151.775 116.91 151.177V149.245C116.91 148.647 117.394 148.163 117.992 148.163H198.15C198.747 148.163 199.231 148.647 199.231 149.245V151.177C199.231 151.775 198.747 152.259 198.15 152.259Z" fill="#D1DCF8"/>
<path d="M219.121 220.98H117.32C117.076 220.98 116.879 220.783 116.879 220.539V159.526C116.879 159.282 117.076 159.085 117.32 159.085H219.121C219.364 159.085 219.562 159.282 219.562 159.526V220.539C219.562 220.783 219.364 220.98 219.121 220.98ZM117.761 220.098H218.68V159.967H117.761V220.098Z" fill="#D1DCF8"/>
<path d="M219.121 170.866H117.32C117.076 170.866 116.879 170.668 116.879 170.425V159.526C116.879 159.282 117.076 159.085 117.32 159.085H219.121C219.364 159.085 219.562 159.282 219.562 159.526V170.425C219.562 170.668 219.364 170.866 219.121 170.866ZM117.761 169.984H218.68V159.967H117.761V169.984Z" fill="#D1DCF8"/>
<path d="M172.057 180.191H123.022C122.615 180.191 122.284 179.861 122.284 179.453V176.816C122.284 176.409 122.615 176.078 123.022 176.078H172.057C172.465 176.078 172.796 176.409 172.796 176.816V179.453C172.796 179.861 172.465 180.191 172.057 180.191Z" fill="#E4ECF9"/>
<path d="M213.42 180.191H191.3C190.892 180.191 190.562 179.861 190.562 179.453V176.816C190.562 176.409 190.892 176.078 191.3 176.078H213.42C213.828 176.078 214.158 176.409 214.158 176.816V179.453C214.158 179.861 213.828 180.191 213.42 180.191Z" fill="#E4ECF9"/>
<path d="M172.057 188.782H123.022C122.615 188.782 122.284 188.451 122.284 188.044V185.407C122.284 185 122.615 184.669 123.022 184.669H172.057C172.465 184.669 172.796 184.999 172.796 185.407V188.044C172.796 188.451 172.465 188.782 172.057 188.782Z" fill="#E4ECF9"/>
<path d="M213.42 188.781H191.3C190.892 188.781 190.562 188.45 190.562 188.042V185.406C190.562 184.998 190.892 184.667 191.3 184.667H213.42C213.828 184.667 214.158 184.998 214.158 185.406V188.042C214.158 188.45 213.828 188.781 213.42 188.781Z" fill="#E4ECF9"/>
<path d="M172.057 197.372H123.022C122.615 197.372 122.284 197.041 122.284 196.633V193.997C122.284 193.589 122.615 193.259 123.022 193.259H172.057C172.465 193.259 172.796 193.589 172.796 193.997V196.633C172.796 197.041 172.465 197.372 172.057 197.372Z" fill="#E4ECF9"/>
<path d="M213.42 197.372H191.3C190.892 197.372 190.562 197.041 190.562 196.633V193.997C190.562 193.589 190.892 193.259 191.3 193.259H213.42C213.828 193.259 214.158 193.589 214.158 193.997V196.633C214.158 197.041 213.828 197.372 213.42 197.372Z" fill="#E4ECF9"/>
<path d="M172.057 205.963H123.022C122.615 205.963 122.284 205.632 122.284 205.224V202.588C122.284 202.18 122.615 201.85 123.022 201.85H172.057C172.465 201.85 172.796 202.18 172.796 202.588V205.224C172.796 205.632 172.465 205.963 172.057 205.963Z" fill="#E4ECF9"/>
<path d="M213.42 205.963H191.3C190.892 205.963 190.562 205.632 190.562 205.224V202.588C190.562 202.18 190.892 201.85 191.3 201.85H213.42C213.828 201.85 214.158 202.18 214.158 202.588V205.224C214.158 205.632 213.828 205.963 213.42 205.963Z" fill="#E4ECF9"/>
<path d="M164.683 248.113H122.686C121.603 248.113 120.725 247.235 120.725 246.152V239.85C120.725 238.767 121.603 237.889 122.686 237.889H164.683C165.766 237.889 166.644 238.767 166.644 239.85V246.152C166.644 247.235 165.766 248.113 164.683 248.113Z" fill="#E4ECF9"/>
<path d="M271.869 293.145L265.853 297.272L262.355 295.733C262.355 295.733 262.268 292.847 262.198 288.562C262.163 285.327 262.11 282.441 262.11 282.266C262.11 281.829 271.1 282.354 271.519 282.494C271.694 282.546 271.782 284.522 271.817 286.901C271.904 290.434 271.869 292.83 271.869 293.145Z" fill="#FEC9AC"/>
<g opacity="0.5">
<path d="M271.817 286.901C269.123 288.178 266.133 288.79 263.16 288.65C262.845 288.632 262.513 288.615 262.198 288.562C262.163 285.327 262.11 282.441 262.11 282.266C262.11 281.829 271.1 282.354 271.519 282.494C271.694 282.546 271.782 284.522 271.817 286.901Z" fill="#FFAB90"/>
</g>
<path d="M274.877 299.853C274.796 300.396 274.322 300.778 273.767 300.778H246.675C246.201 300.778 245.785 300.489 245.612 300.049C245.207 298.951 244.664 296.917 245.924 296.05C247.681 294.848 251.402 295.958 253.968 294.143C256.523 292.34 259.585 286.203 263.261 290.375C263.261 290.375 266.22 294.906 268.231 293.947C270.242 292.987 271.744 288.029 274.16 289.924C275.374 290.884 275.27 297.518 274.877 299.853Z" fill="#2E363A"/>
<path d="M294.977 293.145L288.96 297.272L285.463 295.733C285.463 295.733 285.375 292.847 285.305 288.562C285.27 285.327 285.218 282.441 285.218 282.266C285.218 281.829 294.207 282.354 294.627 282.494C294.802 282.546 294.889 284.522 294.924 286.901C295.011 290.434 294.977 292.83 294.977 293.145Z" fill="#FEC9AC"/>
<g opacity="0.5">
<path d="M294.924 286.901C292.231 288.178 289.24 288.79 286.267 288.65C285.952 288.632 285.62 288.615 285.305 288.562C285.27 285.327 285.218 282.441 285.218 282.266C285.218 281.829 294.207 282.354 294.627 282.494C294.802 282.546 294.889 284.522 294.924 286.901Z" fill="#FFAB90"/>
</g>
<path d="M297.982 299.852C297.901 300.396 297.427 300.777 296.873 300.777H269.78C269.307 300.777 268.89 300.488 268.717 300.049C268.313 298.951 267.769 296.917 269.029 296.05C270.786 294.848 274.508 295.957 277.074 294.143C279.628 292.34 282.691 286.202 286.366 290.375C286.366 290.375 289.325 294.906 291.336 293.946C293.347 292.987 294.85 288.029 297.266 289.924C298.479 290.883 298.375 297.518 297.982 299.852Z" fill="#3A4146"/>
<path d="M257.505 166.232C257.505 166.232 250.006 173.046 240.823 171.542C240.655 171.519 240.487 171.474 240.318 171.43C232.999 169.443 217.81 149.741 213.241 142.118C213.241 142.118 207.92 141.602 208.077 138.773C208.302 134.799 212.051 132.172 212.051 132.172C212.051 132.172 205.989 124.853 207.819 123.438C209.649 122.035 215.991 131.802 215.991 131.802C215.991 131.802 216.036 128.557 217.956 127.85C219.887 127.154 217.776 135.27 217.776 135.27C217.776 135.27 241.216 153.008 243.215 154.68C243.81 154.108 248.266 151.447 250.938 149.876C252.128 149.168 252.959 148.686 252.959 148.686L257.505 166.232Z" fill="#FEC9AC"/>
<g opacity="0.5">
<path d="M257.505 166.232C257.505 166.232 250.006 173.046 240.824 171.542C240.655 171.519 240.487 171.474 240.318 171.43C243.63 168.657 246.089 164.862 247.772 160.843C248.895 158.149 249.703 155.343 250.366 152.502C250.568 151.627 250.759 150.751 250.938 149.876C252.128 149.168 252.959 148.686 252.959 148.686L257.505 166.232Z" fill="#FFAB90"/>
</g>
<path d="M242.901 154.792C242.676 154.837 242.654 154.792 242.766 154.68C242.856 154.736 242.901 154.781 242.901 154.792Z" fill="#FEC9AC"/>
<path d="M292.274 127.519C292.233 127.561 288.655 131.558 287.243 131.138C285.832 130.719 285.398 128.511 285.398 128.511L286.74 126.583L289.004 125.479L292.274 127.519Z" fill="#2E363A"/>
<path d="M256.184 285.261C256.184 288.238 274.651 288.238 274.651 285.261C274.651 284.772 272.061 251.964 272.061 251.964L281.201 285.227V285.261C281.443 287.799 297.999 286.22 297.757 283.681C298.041 283.614 298.367 263.34 298.204 243.033C298.082 224.307 297.554 205.513 296.292 202.487C296.292 202.487 259.641 193.813 254.435 202.117C254.231 202.487 254.028 202.89 253.947 203.361C251.709 213.682 256.184 285.261 256.184 285.261Z" fill="#3A4146"/>
<path d="M267.045 216.876C267.045 216.876 267.045 269.761 274.651 285.261C275.14 285.261 272.061 251.963 272.061 251.963L281.201 285.227C281.201 283.176 267.045 216.876 267.045 216.876Z" fill="#2E363A"/>
<path d="M254.435 202.117C260.049 202.755 265.174 205.513 269.079 208.976C273.269 212.741 276.198 217.313 278.923 221.886C281.649 226.492 284.252 231.165 287.953 235.301C290.72 238.427 294.137 241.184 298.204 243.033C298.082 224.307 297.554 205.513 296.293 202.487C296.293 202.487 259.642 193.813 254.435 202.117Z" fill="#2E363A"/>
<path d="M256.541 171.124C256.541 171.124 259.17 157.876 263.848 149.776L256.541 171.124Z" fill="#42C1F4"/>
<path d="M316.308 163.155C314.911 167.237 310.215 173.372 306.26 176.53C304.205 178.179 302.333 179.004 301.243 178.305L297.218 176.516L295.526 175.762L301.159 202.875C301.159 202.875 279.035 216.277 252.635 202.399C252.635 202.399 252.802 200.136 253.096 196.767C253.739 189.57 254.983 177.299 256.534 171.122H256.31L254.172 171.052C250.371 171.597 247.645 151.081 250.678 148.048C250.72 147.978 250.776 147.936 250.832 147.894C250.832 147.894 263.298 138.6 281.844 140.724C294.45 142.15 305.868 150.438 311.864 155.581C314.687 157.999 316.308 159.717 316.308 159.717C316.909 160.402 316.839 161.632 316.308 163.155Z" fill="#FE4C40"/>
<path d="M278.285 147.796C270.794 146.845 275.406 142.261 275.979 140.402C276.091 140.039 276.105 139.466 276.077 138.823C276.049 138.362 275.993 137.859 275.937 137.384C275.923 137.3 275.909 137.216 275.895 137.146C275.755 136.112 275.587 135.246 275.587 135.204L277.782 133.107L278.802 132.129L279.85 131.137H285.454L286.796 132.408L287.453 140.514L287.509 141.227L287.565 141.856C287.565 141.856 288.319 149.082 278.285 147.796Z" fill="#FEC9AC"/>
<path d="M287.507 141.227C287.074 140.794 286.697 140.291 286.417 139.746C285.663 138.293 285.523 136.546 286.054 135.008C284.628 136.196 283.077 137.244 281.358 137.957C279.695 138.67 277.864 139.019 276.075 138.823C276.047 138.362 275.991 137.859 275.935 137.384C275.921 137.3 275.907 137.216 275.893 137.146C275.754 136.112 275.586 135.246 275.586 135.204L277.78 133.107L278.8 132.129L279.849 131.137H285.453L286.795 132.408L287.451 140.514L287.507 141.227Z" fill="#F2BDA2"/>
<path d="M286.034 134.456C286.034 134.456 274.122 141.338 271.343 134.103C268.564 126.868 276.505 116.676 276.505 116.676L285.549 119.456C285.549 119.456 288.593 126.295 288.152 127.044C287.711 127.794 286.652 129.603 286.784 129.603C286.917 129.603 290.559 128.386 290.129 132.148C289.726 135.682 286.034 134.456 286.034 134.456Z" fill="#FEC9AC"/>
<path d="M278.211 127.702C278.059 128.223 278.304 128.753 278.759 128.886C279.214 129.019 279.706 128.705 279.858 128.184C280.01 127.663 279.765 127.133 279.31 127C278.856 126.867 278.363 127.182 278.211 127.702Z" fill="#4F2D2B"/>
<path d="M273.514 125.758C273.378 126.225 273.597 126.699 274.004 126.818C274.412 126.937 274.852 126.656 274.989 126.19C275.125 125.723 274.905 125.249 274.498 125.13C274.091 125.011 273.65 125.292 273.514 125.758Z" fill="#4F2D2B"/>
<path d="M274.772 131.449C274.723 131.502 274.263 131.211 273.667 130.325C273.611 130.226 273.55 130.144 273.494 129.998C273.431 129.852 273.47 129.636 273.536 129.528C273.659 129.312 273.8 129.159 273.932 128.971C274.201 128.613 274.466 128.247 274.752 127.92C275.441 127.149 275.828 126.805 275.894 126.861C275.961 126.916 275.69 127.356 275.056 128.173C274.764 128.507 274.516 128.852 274.258 129.195C274.138 129.364 273.984 129.541 273.889 129.704C273.852 129.789 273.848 129.806 273.868 129.868C273.888 129.929 273.952 130.029 274.005 130.119C274.507 130.993 274.846 131.381 274.772 131.449Z" fill="#4F2D2B"/>
<path d="M282.041 125.473C281.954 125.504 281.835 125.295 281.534 124.976C281.301 124.693 280.974 124.465 280.636 124.37C280.245 124.231 280.048 124.329 279.991 124.252C279.918 124.205 280.161 123.881 280.736 123.987C281.184 124.115 281.552 124.382 281.839 124.725C282.14 125.165 282.116 125.452 282.041 125.473Z" fill="#4F2D2B"/>
<path d="M274.253 122.122C274.21 122.064 274.362 121.828 274.855 121.757C275.269 121.737 275.688 121.898 275.987 122.182C276.147 122.359 276.234 122.535 276.233 122.692C276.227 122.854 276.126 122.897 276.097 122.87C276.032 122.802 276.034 122.722 275.716 122.47C275.49 122.256 275.181 122.137 274.871 122.152C274.503 122.137 274.299 122.207 274.253 122.122Z" fill="#4F2D2B"/>
<path d="M277.505 134.027C277.523 134.097 277.233 134.278 276.586 134.264C276.045 134.216 275.517 134.043 275.052 133.762C274.522 133.391 274.394 133.074 274.452 133.027C274.523 132.961 274.753 133.156 275.256 133.423C275.668 133.673 276.141 133.828 276.621 133.87C277.185 133.952 277.486 133.93 277.505 134.027Z" fill="#4F2D2B"/>
<path d="M286.781 129.602C286.163 129.942 285.872 131.041 285.789 132.243C285.719 133.375 284.573 128.428 285.16 125.604C284.671 124.137 284.14 122.614 283.608 121.761C282.253 119.553 279.74 120.55 276.704 119.609C274.866 119.039 270.765 117.079 271.156 114.27C271.561 111.447 274.175 114.298 275.796 112.006C277.417 109.714 280.632 108.484 283.65 113.278C283.65 113.278 292.343 110.441 293.825 118.742C295.767 129.602 289.615 128.039 286.781 129.602Z" fill="#2E363A"/>
<path d="M316.317 163.156C314.913 167.242 310.221 173.371 306.258 176.537C304.204 178.176 302.34 179.007 301.251 178.311L297.221 176.515L295.526 175.762L301.162 202.873C301.162 202.873 279.035 216.277 252.643 202.402C252.643 202.402 252.811 200.134 253.103 196.766C261.163 195.823 269.785 198.304 277.183 194.97C283.11 192.298 286.972 186.304 288.656 180.028C290.149 174.449 290.688 168.297 290.643 162.448C290.542 161.674 290.497 160.899 290.474 160.113C290.519 160.17 290.564 160.226 290.598 160.282C292.271 162.426 293.966 164.604 296.2 166.164C298.479 167.77 301.431 168.668 304.092 167.882C305.877 167.354 307.392 166.119 308.503 164.638C309.604 163.156 310.333 161.404 310.894 159.653C311.31 158.317 311.647 156.948 311.871 155.578C314.689 158.003 316.317 159.721 316.317 159.721C316.912 160.405 316.844 161.629 316.317 163.156Z" fill="#EA241F"/>
<path d="M301.585 195.666C301.585 195.666 292.193 205.561 289.021 196.043C286.84 189.475 299.572 189.027 299.572 189.027" fill="#FEC9AC"/>
<path d="M325.399 177.288C322.728 184.945 301.578 195.665 301.578 195.665L299.568 189.02L308.291 177.569L306.259 176.536C306.809 176.087 307.382 175.593 307.954 175.043C311.479 171.687 315.116 166.669 316.318 163.155C318.237 165.243 321.021 168.375 323.019 171.249C324.726 173.707 325.848 175.986 325.399 177.288Z" fill="#FEC9AC"/>
<path d="M262.551 159.585C260.538 161.178 257.529 168.704 256.453 171.038C256.411 171.052 256.355 171.08 256.313 171.122L254.175 171.052C250.374 171.597 247.648 151.081 250.681 148.048C251.114 158.291 255.983 158.878 262.551 159.585Z" fill="#EA241F"/>
<path d="M271.738 143.722C271.835 143.699 271.978 144.17 272.407 145.022C272.837 145.86 273.614 147.108 275.128 148.241C276.394 149.216 277.943 149.785 279.538 149.844C281.133 149.916 282.744 149.53 284.18 148.812C285.892 147.98 286.981 146.996 287.693 146.353C288.401 145.697 288.745 145.345 288.819 145.403C288.882 145.451 288.666 145.903 288.035 146.677C287.4 147.434 286.34 148.556 284.533 149.519C282.987 150.292 281.249 150.712 279.503 150.634C277.759 150.572 276.028 149.936 274.649 148.871C273.037 147.569 272.302 146.15 271.975 145.207C271.649 144.248 271.667 143.735 271.738 143.722Z" fill="white"/>
<path d="M43.0824 151.904C53.3452 151.904 61.6648 143.584 61.6648 133.321C61.6648 123.058 53.3452 114.739 43.0824 114.739C32.8196 114.739 24.5 123.058 24.5 133.321C24.5 143.584 32.8196 151.904 43.0824 151.904Z" fill="#71C687"/>
<path d="M43.0824 142.057C44.5465 142.057 45.7407 140.863 45.7407 139.399V133.788C45.7407 133.452 46.0187 133.174 46.3541 133.174C46.6976 133.174 46.9675 133.452 46.9675 133.788V139.399C46.9675 141.534 45.2253 143.284 43.0824 143.284C40.9394 143.284 39.1973 141.533 39.1973 139.399C39.1973 139.055 39.4753 138.785 39.8107 138.785C40.1542 138.785 40.4242 139.055 40.4242 139.399C40.4241 140.863 41.6183 142.057 43.0824 142.057Z" fill="white"/>
<path d="M50.2415 133.787V139.398C50.2415 143.34 47.0352 146.555 43.0846 146.555C39.1422 146.555 35.9277 143.34 35.9277 139.398V133.787C35.9277 130.875 37.6699 128.282 40.3691 127.17C40.6799 127.039 41.0398 127.186 41.1707 127.505C41.2934 127.816 41.1462 128.176 40.8354 128.298C38.6024 129.223 37.1547 131.374 37.1547 133.787V139.398C37.1547 142.661 39.8129 145.328 43.0847 145.328C46.3564 145.328 49.0147 142.661 49.0147 139.398V133.787C49.0147 130.515 46.3564 127.857 43.0847 127.857C42.7493 127.857 42.4712 127.587 42.4712 127.243C42.4712 126.908 42.7492 126.63 43.0847 126.63C47.0352 126.63 50.2415 129.844 50.2415 133.787Z" fill="white"/>
<path d="M32.1628 127.768C31.1485 129.6 30.6087 131.686 30.6087 133.788V135.947C30.6087 136.291 30.3388 136.561 29.9953 136.561C29.6599 136.561 29.3818 136.291 29.3818 135.947V133.788C29.3818 131.473 29.9707 129.191 31.0913 127.171C31.2549 126.876 31.6311 126.77 31.9256 126.934C32.2201 127.097 32.3263 127.474 32.1628 127.768Z" fill="white"/>
<path d="M56.785 133.787C56.785 134.131 56.5151 134.401 56.1715 134.401C55.8362 134.401 55.5581 134.131 55.5581 133.787C55.5581 126.908 49.9635 121.314 43.0847 121.314C39.8293 121.314 36.7375 122.573 34.3983 124.847C34.153 125.084 33.7685 125.076 33.5313 124.839C33.2941 124.594 33.3023 124.201 33.5395 123.972C36.1159 121.469 39.5022 120.087 43.0847 120.087C50.6424 120.087 56.785 126.238 56.785 133.787Z" fill="white"/>
<path d="M53.5116 133.787V139.398C53.5116 140.175 53.4298 140.944 53.258 141.696C53.1926 141.983 52.939 142.179 52.6609 142.179C52.6119 142.179 52.5709 142.171 52.5218 142.163C52.1947 142.089 51.982 141.762 52.0638 141.427C52.211 140.764 52.2847 140.077 52.2847 139.398V133.787C52.2847 128.716 48.1623 124.585 43.083 124.585C38.0118 124.585 33.8813 128.716 33.8813 133.787V139.398C33.8813 140.003 33.9467 140.609 34.0612 141.197C34.1266 141.525 33.9139 141.852 33.5786 141.917C33.2514 141.983 32.9242 141.77 32.8588 141.435C32.7197 140.764 32.6543 140.077 32.6543 139.398V133.787C32.6543 128.037 37.3328 123.358 43.0829 123.358C48.833 123.358 53.5116 128.037 53.5116 133.787Z" fill="white"/>
<path d="M43.0803 140.191C42.7449 140.191 42.4668 139.921 42.4668 139.577V133.598C42.4668 133.263 42.7448 132.985 43.0803 132.985C43.4238 132.985 43.6937 133.263 43.6937 133.598V139.577C43.6937 139.921 43.4238 140.191 43.0803 140.191Z" fill="white"/>
<path d="M45.6507 130.868C45.9042 131.089 45.9287 131.482 45.6998 131.736C45.4789 131.989 45.0945 132.014 44.8409 131.793C44.3502 131.367 43.7285 131.13 43.0824 131.13C41.6184 131.13 40.4242 132.324 40.4242 133.788V136.594C40.4242 136.929 40.1542 137.207 39.8107 137.207C39.4753 137.207 39.1973 136.929 39.1973 136.594V133.788C39.1973 131.645 40.9394 129.903 43.0824 129.903C44.0311 129.903 44.9391 130.247 45.6507 130.868Z" fill="white"/>
<path d="M77.6205 83.3342C87.1336 83.3342 94.8454 75.6223 94.8454 66.1092C94.8454 56.5962 87.1336 48.8843 77.6205 48.8843C68.1074 48.8843 60.3955 56.5962 60.3955 66.1092C60.3955 75.6223 68.1074 83.3342 77.6205 83.3342Z" fill="#F3F6FD"/>
<path d="M90.8215 67.2144V69.8942C90.8215 70.0875 90.6626 70.2463 90.4468 70.2463H88.0393C87.6873 69.5876 86.9946 69.1449 86.1883 69.1449C85.382 69.1449 84.6893 69.5876 84.3373 70.2463H80.4082V60.3782C80.4082 60.1284 80.6126 59.9014 80.8851 59.9014H85.6772C85.8703 59.9014 86.0634 60.0148 86.1542 60.1963L88.6184 65.7723C88.7206 65.9425 88.9024 66.0562 89.0953 66.0562H89.6745C90.3105 66.0561 90.8215 66.567 90.8215 67.2144Z" fill="#42C1F4"/>
<path d="M80.4048 59.1749V70.2469H72.5465C72.1944 69.5882 71.5017 69.1455 70.6954 69.1455C69.8892 69.1455 69.1965 69.5882 68.8444 70.2469H66.0054C65.8124 70.2469 65.6875 70.0994 65.6875 69.9289V59.1749C65.6875 59.0047 65.8124 58.8569 66.0054 58.8569H80.0868C80.2572 58.857 80.4048 59.0048 80.4048 59.1749Z" fill="#FFCF3D"/>
<path d="M81.9883 61.5629V65.3021C81.9883 65.3833 82.056 65.451 82.1371 65.451H86.6704C86.7809 65.451 86.8531 65.3315 86.8012 65.2323L85.2203 61.493C85.1932 61.4457 85.1436 61.4141 85.0873 61.4141H82.1372C82.056 61.4141 81.9883 61.4818 81.9883 61.5629Z" fill="white"/>
<path d="M88.3177 69.8293C88.3177 70.999 87.3638 71.9644 86.1828 71.9644C85.0018 71.9644 84.0479 70.999 84.0479 69.8293C84.0479 69.4547 84.1501 69.0913 84.3318 68.7846C84.6838 68.1259 85.3765 67.6831 86.1828 67.6831C86.989 67.6831 87.6818 68.1259 88.0338 68.7846C88.2155 69.0913 88.3177 69.4547 88.3177 69.8293Z" fill="#2E363A"/>
<path d="M72.8314 69.8288C72.8314 70.9985 71.8776 71.9639 70.6965 71.9639C69.5155 71.9639 68.5615 70.9985 68.5615 69.8288C68.5615 69.4542 68.6638 69.0908 68.8454 68.7841C69.1975 68.1254 69.8903 67.6826 70.6965 67.6826C71.5027 67.6826 72.1954 68.1254 72.5475 68.7841C72.7292 69.0908 72.8314 69.4542 72.8314 69.8288Z" fill="#2E363A"/>
<path d="M86.1862 70.7372C86.69 70.7372 87.1001 70.3278 87.1001 69.824C87.1001 69.3185 86.69 68.9072 86.1862 68.9072C85.6824 68.9072 85.2725 69.3185 85.2725 69.824C85.2724 70.3278 85.6824 70.7372 86.1862 70.7372Z" fill="white"/>
<path d="M70.6954 70.7387C71.1992 70.7387 71.6093 70.3293 71.6093 69.8255C71.6093 69.3199 71.1992 68.9087 70.6954 68.9087C70.1917 68.9087 69.7822 69.3199 69.7822 69.8255C69.7822 70.3293 70.1917 70.7387 70.6954 70.7387Z" fill="white"/>
<path d="M276.475 93.164C281.682 87.9562 281.682 79.5126 276.475 74.3047C271.267 69.0968 262.823 69.0968 257.615 74.3047C252.407 79.5126 252.407 87.9562 257.615 93.164C262.823 98.3719 271.267 98.3719 276.475 93.164Z" fill="#F3F6FD"/>
<path d="M270.004 81.2533C270.613 79.782 269.915 78.0951 268.443 77.4857C266.972 76.8762 265.285 77.5749 264.676 79.0463C264.066 80.5177 264.765 82.2045 266.236 82.814C267.708 83.4234 269.394 82.7247 270.004 81.2533Z" fill="#EE984F"/>
<path d="M261.396 89.5362H272.696C273.024 89.5362 273.3 89.2258 273.196 88.8981C272.437 86.224 269.987 84.2402 267.054 84.2402C264.122 84.2402 261.655 86.224 260.896 88.8981C260.809 89.2258 261.068 89.5362 261.396 89.5362Z" fill="#EE984F"/>
<path d="M43.2191 223.647C43.5813 221.415 42.0658 219.313 39.834 218.95C37.6023 218.588 35.4995 220.104 35.1373 222.336C34.7751 224.567 36.2906 226.67 38.5224 227.032C40.7541 227.394 42.8569 225.879 43.2191 223.647Z" fill="#BBCAEA"/>
<path d="M72.7086 296.116C84.0944 296.116 93.3245 294.719 93.3245 292.997C93.3245 291.274 84.0944 289.878 72.7086 289.878C61.3228 289.878 52.0928 291.274 52.0928 292.997C52.0928 294.719 61.3228 296.116 72.7086 296.116Z" fill="#FFD964"/>
<path d="M52.0928 297.995C52.0928 299.717 61.3228 301.114 72.7086 301.114C84.0945 301.114 93.3245 299.717 93.3245 297.995V292.996C93.3245 294.719 84.0944 296.115 72.7086 296.115C61.3228 296.115 52.0928 294.719 52.0928 292.996V297.995Z" fill="#FCC230"/>
<path d="M72.7086 290.196C84.0944 290.196 93.3245 288.799 93.3245 287.077C93.3245 285.354 84.0944 283.958 72.7086 283.958C61.3228 283.958 52.0928 285.354 52.0928 287.077C52.0928 288.799 61.3228 290.196 72.7086 290.196Z" fill="#FFD964"/>
<path d="M52.0928 292.075C52.0928 293.797 61.3228 295.194 72.7086 295.194C84.0945 295.194 93.3245 293.797 93.3245 292.075V287.076C93.3245 288.799 84.0944 290.195 72.7086 290.195C61.3228 290.195 52.0928 288.799 52.0928 287.076V292.075Z" fill="#FCC230"/>
<path d="M52.0928 286.155C52.0928 287.877 61.3228 289.274 72.7086 289.274C84.0945 289.274 93.3245 287.877 93.3245 286.155V281.156C93.3245 282.879 84.0944 284.275 72.7086 284.275C61.3228 284.275 52.0928 282.879 52.0928 281.156V286.155Z" fill="#FCC230"/>
<path d="M72.7086 284.276C84.0944 284.276 93.3245 282.88 93.3245 281.157C93.3245 279.434 84.0944 278.038 72.7086 278.038C61.3228 278.038 52.0928 279.434 52.0928 281.157C52.0928 282.88 61.3228 284.276 72.7086 284.276Z" fill="#FFD964"/>
<path d="M77.2145 277.098C88.6003 277.098 97.8303 275.702 97.8303 273.979C97.8303 272.257 88.6003 270.86 77.2145 270.86C65.8287 270.86 56.5986 272.257 56.5986 273.979C56.5986 275.702 65.8287 277.098 77.2145 277.098Z" fill="#FFD964"/>
<path d="M56.5986 278.978C56.5986 280.701 65.8286 282.097 77.2145 282.097C88.6003 282.097 97.8303 280.701 97.8303 278.978V273.979C97.8303 275.702 88.6003 277.098 77.2145 277.098C65.8287 277.098 56.5986 275.702 56.5986 273.979V278.978Z" fill="#FCC230"/>
<path d="M60.9746 271.799C60.9746 273.522 70.2046 274.918 81.5904 274.918C92.9763 274.918 102.206 273.522 102.206 271.799V266.801C102.206 268.523 92.9763 269.92 81.5904 269.92C70.2046 269.92 60.9746 268.523 60.9746 266.801V271.799Z" fill="#FCC230"/>
<path d="M81.5885 269.92C92.9743 269.92 102.204 268.524 102.204 266.802C102.204 265.079 92.9743 263.683 81.5885 263.683C70.2027 263.683 60.9727 265.079 60.9727 266.802C60.9727 268.524 70.2027 269.92 81.5885 269.92Z" fill="#FFD964"/>
<path d="M100.366 300.418C110.891 300.418 119.423 291.886 119.423 281.36C119.423 270.835 110.891 262.302 100.366 262.302C89.8401 262.302 81.3076 270.835 81.3076 281.36C81.3076 291.886 89.8401 300.418 100.366 300.418Z" fill="#FFCF3D"/>
<path d="M111.485 292.479C117.626 286.337 117.626 276.379 111.485 270.238C105.343 264.096 95.3848 264.096 89.2429 270.238C83.101 276.379 83.101 286.337 89.2429 292.479C95.3848 298.621 105.343 298.621 111.485 292.479Z" fill="#FFD964"/>
<path d="M104.102 285.549C103.8 286.005 103.37 286.369 102.814 286.638C102.258 286.909 101.613 287.065 100.882 287.107V288.236C100.882 288.374 100.837 288.488 100.747 288.578C100.657 288.668 100.538 288.713 100.39 288.713C100.252 288.713 100.137 288.671 100.048 288.586C99.9578 288.501 99.9124 288.385 99.9124 288.236V287.107C98.7682 287.033 97.6975 286.784 96.7014 286.361C96.5739 286.308 96.4677 286.22 96.3833 286.098C96.2983 285.976 96.2559 285.847 96.2559 285.708C96.2559 285.529 96.3167 285.372 96.439 285.239C96.5607 285.107 96.7169 285.041 96.9081 285.041C97.0137 285.041 97.1148 285.062 97.21 285.104C98.0683 285.486 98.9691 285.698 99.9124 285.74V282.084C99.1919 281.893 98.585 281.686 98.0924 281.464C97.5993 281.241 97.1888 280.926 96.8604 280.518C96.5314 280.11 96.3672 279.593 96.3672 278.968C96.3672 278.417 96.5021 277.908 96.7725 277.442C97.0429 276.975 97.4454 276.588 97.981 276.281C98.5161 275.974 99.1597 275.788 99.9123 275.724V274.612C99.9123 274.474 99.9577 274.357 100.048 274.262C100.137 274.166 100.252 274.119 100.389 274.119C100.527 274.119 100.644 274.166 100.739 274.262C100.834 274.357 100.882 274.474 100.882 274.612V275.708C101.921 275.751 102.843 275.926 103.649 276.233C103.945 276.339 104.094 276.551 104.094 276.869C104.094 277.039 104.035 277.192 103.919 277.33C103.802 277.468 103.649 277.537 103.458 277.537C103.394 277.537 103.309 277.516 103.203 277.473C102.483 277.219 101.709 277.076 100.882 277.044V280.828C101.646 281.008 102.279 281.204 102.782 281.416C103.285 281.628 103.707 281.943 104.046 282.362C104.385 282.781 104.555 283.334 104.555 284.023C104.555 284.585 104.404 285.094 104.102 285.549ZM98.3468 279.937C98.7016 280.192 99.2234 280.409 99.9124 280.59V277.092C99.2768 277.177 98.7682 277.37 98.3864 277.672C98.0046 277.974 97.814 278.369 97.814 278.856C97.814 279.323 97.9914 279.683 98.3468 279.937ZM103.124 283.928C103.124 283.515 102.936 283.194 102.56 282.966C102.183 282.738 101.624 282.524 100.882 282.322V285.74C102.376 285.634 103.124 285.03 103.124 283.928Z" fill="#FCC230"/>
<path d="M193.293 240.224C192.66 239.462 192.344 238.494 192.344 237.318C192.344 236.142 192.66 235.174 193.293 234.412C193.926 233.651 194.823 233.271 195.984 233.271C197.144 233.271 198.041 233.651 198.674 234.412C199.308 235.174 199.624 236.142 199.624 237.318C199.624 238.494 199.308 239.462 198.674 240.224C198.041 240.985 197.144 241.365 195.984 241.365C194.823 241.365 193.926 240.985 193.293 240.224ZM197.499 239.172C197.86 238.69 198.041 238.072 198.041 237.318C198.041 236.564 197.86 235.946 197.499 235.464C197.137 234.981 196.632 234.74 195.984 234.74C195.335 234.74 194.831 234.981 194.469 235.464C194.107 235.946 193.926 236.564 193.926 237.318C193.926 238.072 194.107 238.69 194.469 239.172C194.831 239.655 195.335 239.896 195.984 239.896C196.632 239.896 197.137 239.655 197.499 239.172ZM195.464 249.449C195.313 249.305 195.238 249.129 195.238 248.917C195.238 248.782 195.275 248.654 195.351 248.533L204.553 233.813C204.704 233.572 204.915 233.451 205.187 233.451C205.413 233.451 205.597 233.512 205.741 233.632C205.884 233.753 205.955 233.919 205.955 234.13C205.955 234.296 205.903 234.462 205.797 234.627L196.662 249.257C196.586 249.377 196.489 249.475 196.368 249.551C196.248 249.626 196.12 249.664 195.984 249.664C195.788 249.664 195.614 249.592 195.464 249.449ZM202.473 248.703C201.84 247.941 201.524 246.973 201.524 245.797C201.524 244.621 201.84 243.653 202.473 242.892C203.107 242.131 204.003 241.75 205.164 241.75C206.324 241.75 207.222 242.131 207.855 242.892C208.488 243.653 208.804 244.621 208.804 245.797C208.804 246.973 208.488 247.941 207.855 248.703C207.222 249.464 206.325 249.845 205.164 249.845C204.003 249.845 203.107 249.464 202.473 248.703ZM206.679 247.651C207.04 247.169 207.222 246.551 207.222 245.797C207.222 245.043 207.04 244.425 206.679 243.943C206.317 243.461 205.812 243.219 205.164 243.219C204.515 243.219 204.011 243.461 203.649 243.943C203.287 244.425 203.107 245.043 203.107 245.797C203.107 246.551 203.287 247.169 203.649 247.651C204.011 248.134 204.515 248.375 205.164 248.375C205.812 248.375 206.317 248.134 206.679 247.651Z" fill="#4A5258"/>
</svg>
