<svg width="24" height="25" viewBox="0 0 24 25" fill="none" xmlns="http://www.w3.org/2000/svg">
<g clip-path="url(#clip0_2520_5649)">
<path d="M19.6564 20.0013V13.7944H19.5198H13.9998H13.8633V20.0013H19.6564Z" fill="#802F34"/>
<path d="M16.788 8.05518C17.0387 8.49691 17.3816 8.87939 17.7935 9.17656C18.828 9.8469 20.897 10.149 20.897 12.1931C20.897 14.2083 19.6556 14.2083 19.6556 14.2083H13.8625C13.8625 14.2083 12.6211 14.2083 12.6211 12.1931C12.6211 10.149 14.6901 9.8469 15.7245 9.17656C16.1364 8.87939 16.4794 8.49691 16.7301 8.05518" fill="#F29C1F"/>
<path d="M16.7755 8.05518C16.9076 8.4622 17.112 8.84208 17.3788 9.17656C17.9995 9.8469 19.2409 10.149 19.2409 12.1931C19.2409 14.2083 18.4961 14.2083 18.4961 14.2083H15.0202C15.0202 14.2083 14.2754 14.2083 14.2754 12.1931C14.2754 10.149 15.5168 9.8469 16.1375 9.17656C16.4043 8.84208 16.6087 8.4622 16.7408 8.05518" fill="#F0C419"/>
<path d="M16.7592 8.41494C17.2163 8.41494 17.5868 8.04441 17.5868 7.58735C17.5868 7.13029 17.2163 6.75977 16.7592 6.75977C16.3022 6.75977 15.9316 7.13029 15.9316 7.58735C15.9316 8.04441 16.3022 8.41494 16.7592 8.41494Z" fill="#F29C1F"/>
<path d="M16.7847 6.7596C16.0796 6.75843 15.481 6.24267 15.3756 5.5455C15.2701 4.84833 15.6894 4.1786 16.3627 3.96897C16.5809 3.9011 16.8129 4.023 16.8807 4.24125C16.9486 4.4595 16.8267 4.69145 16.6085 4.75932C16.3454 4.84122 16.172 5.09184 16.1881 5.36688C16.2043 5.64191 16.4057 5.87057 16.6765 5.92118C16.9474 5.9718 17.2178 5.83135 17.3322 5.5807C17.3935 5.44617 17.522 5.35459 17.6692 5.34046C17.8164 5.32632 17.9599 5.39179 18.0457 5.51218C18.1316 5.63258 18.1466 5.78962 18.0853 5.92415C17.8527 6.43319 17.3444 6.75969 16.7847 6.7596Z" fill="#F0C419"/>
<path d="M15.5173 17.1049C15.2888 17.1049 15.1035 16.9196 15.1035 16.6911V15.8635C15.1035 15.635 15.2888 15.4497 15.5173 15.4497C15.7458 15.4497 15.9311 15.635 15.9311 15.8635V16.6911C15.9311 16.9196 15.7458 17.1049 15.5173 17.1049Z" fill="#D75E72"/>
<path d="M17.9997 17.1049C17.7712 17.1049 17.5859 16.9196 17.5859 16.6911V15.8635C17.5859 15.635 17.7712 15.4497 17.9997 15.4497C18.2283 15.4497 18.4135 15.635 18.4135 15.8635V16.6911C18.4135 16.9196 18.2283 17.1049 17.9997 17.1049Z" fill="#D75E72"/>
<path d="M13.8625 7.17383V20.4152L9.72461 17.9324V7.17383H13.8625Z" fill="#894B9D"/>
<path d="M12.2074 8.82883C12.2074 9.05736 12.0221 9.24263 11.7936 9.24263H9.72461V8.41504H11.7936C12.0221 8.41504 12.2074 8.6003 12.2074 8.82883Z" fill="#B49ACA"/>
<path d="M11.8133 2.62207C11.9861 2.94553 12.2259 3.22838 12.5168 3.45173C13.2413 3.94621 14.6896 4.1709 14.6896 5.68414C14.6896 7.17379 13.8206 7.17379 13.8206 7.17379H9.76545C9.76545 7.17379 8.89648 7.17379 8.89648 5.68414C8.89648 4.17214 10.3448 3.94869 11.0689 3.45297C11.36 3.22931 11.6 2.94602 11.7728 2.62207" fill="#F0C419"/>
<path d="M11.8054 2.62207C11.8917 2.91933 12.0277 3.19985 12.2076 3.45173C12.6214 3.94828 13.449 4.1709 13.449 5.6829C13.449 7.17379 12.9525 7.17379 12.9525 7.17379H10.6352C10.6352 7.17379 10.1387 7.17379 10.1387 5.68414C10.1387 4.17214 10.9663 3.94869 11.3801 3.45297C11.5601 3.20071 11.6961 2.91977 11.7823 2.62207" fill="#F3D55B"/>
<path d="M23.7521 17.2921C23.8337 17.1104 23.7763 16.8965 23.6148 16.78C23.4533 16.6635 23.2322 16.6766 23.0855 16.8113C20.3261 19.3492 16.4118 20.2002 12.8478 19.0371C9.28374 17.8739 6.62495 14.8778 5.89384 11.2007C5.16272 7.52367 6.47311 3.7383 9.32111 1.30024C9.47264 1.17296 9.51502 0.957292 9.42291 0.782135C9.3308 0.606979 9.1291 0.519666 8.93835 0.57238C3.53863 2.23883 -0.0233036 7.3793 0.312936 13.0203C0.649175 18.6613 4.79653 23.3423 10.356 24.3555C15.9154 25.3687 21.4475 22.4518 23.7521 17.2921Z" fill="#F29C1F"/>
<path d="M23.7513 17.291C23.6189 17.5889 23.474 17.8786 23.3127 18.1641C19.7324 21.6297 14.4262 22.6174 9.83884 20.672C5.25143 18.7266 2.27286 14.2256 2.27542 9.2427C2.2715 7.44895 2.66137 5.6762 3.41749 4.0496C4.91118 2.41535 6.81823 1.21451 8.93749 0.573738C9.12884 0.519197 9.33218 0.606546 9.42435 0.782878C9.51653 0.959209 9.47218 1.17603 9.31818 1.30201C6.51216 3.75179 5.23575 7.51842 5.97438 11.1694C6.71301 14.8204 9.35318 17.7946 12.8908 18.961C16.4284 20.1274 20.3198 19.3067 23.0851 16.811C23.2315 16.6764 23.4524 16.6632 23.6138 16.7795C23.7752 16.8958 23.8326 17.1095 23.7513 17.291Z" fill="#F0C419"/>
</g>
<defs>
<clipPath id="clip0_2520_5649">
<rect width="24" height="24" fill="white" transform="translate(0 0.552734)"/>
</clipPath>
</defs>
</svg>
