<svg width="24" height="24" viewBox="0 0 24 24" fill="none" xmlns="http://www.w3.org/2000/svg">
<g clip-path="url(#clip0_2859_5328)">
<mask id="path-1-outside-1_2859_5328" maskUnits="userSpaceOnUse" x="-1" y="-0.996094" width="26" height="26" fill="black">
<rect fill="white" x="-1" y="-0.996094" width="26" height="26"/>
<path fill-rule="evenodd" clip-rule="evenodd" d="M19 15.2929L12.3525 8.64641C12.1575 8.45116 11.8425 8.45116 11.6475 8.64641L6.75 13.5429L4.35248 11.1464C4.15748 10.9512 3.84252 10.9512 3.64752 11.1464L1 13.7929V4.00391C1 3.87141 1.05252 3.74416 1.14752 3.65041C1.24002 3.55666 1.3675 3.50391 1.5 3.50391H12.75C13.025 3.50391 13.25 3.27991 13.25 3.00391C13.25 2.72816 13.025 2.50391 12.75 2.50391H1.5C1.1025 2.50391 0.720002 2.66191 0.440002 2.94341C0.157502 3.22466 0 3.60616 0 4.00391V22.5039C0 22.9019 0.157502 23.2834 0.440002 23.5647C0.720002 23.8459 1.1025 24.0039 1.5 24.0039H18.5C18.8975 24.0039 19.28 23.8459 19.56 23.5647C19.8425 23.2834 20 22.9019 20 22.5039V13.0039C20 12.7282 19.775 12.5039 19.5 12.5039C19.225 12.5039 19 12.7282 19 13.0039V15.2929ZM12 9.70691L1 20.7069V22.5039C1 22.6367 1.05252 22.7637 1.14752 22.8577C1.24002 22.9514 1.3675 23.0039 1.5 23.0039H18.5C18.6325 23.0039 18.76 22.9514 18.8525 22.8577C18.9475 22.7637 19 22.6367 19 22.5039V16.7069L12 9.70691ZM1 15.2069V19.2929L6.04248 14.2499L4 12.2069L1 15.2069ZM21.46 6.83041C21.3875 6.63416 21.2 6.50391 20.9925 6.50391C20.7825 6.50391 20.595 6.63416 20.5225 6.83041L19.9275 8.43966L18.3175 9.03516C18.1225 9.10766 17.9925 9.29466 17.9925 9.50391C17.9925 9.71316 18.1225 9.90041 18.3175 9.97291L19.9275 10.5684L20.5225 12.1774C20.595 12.3737 20.7825 12.5039 20.9925 12.5039C21.2 12.5039 21.3875 12.3737 21.46 12.1774L22.055 10.5684L23.665 9.97291C23.8625 9.90041 23.9925 9.71316 23.9925 9.50391C23.9925 9.29466 23.8625 9.10766 23.665 9.03516L22.055 8.43966L21.46 6.83041ZM20.9925 8.44466L21.1975 9.00241C21.2475 9.13916 21.3575 9.24716 21.4925 9.29766L22.05 9.50391L21.4925 9.71041C21.3575 9.76091 21.2475 9.86891 21.1975 10.0057L20.9925 10.5632L20.785 10.0057C20.735 9.86891 20.6275 9.76091 20.49 9.71041L19.9325 9.50391L20.49 9.29766C20.6275 9.24716 20.735 9.13916 20.785 9.00241L20.9925 8.44466ZM16.97 0.330406C16.8975 0.134156 16.71 0.00390625 16.5 0.00390625C16.29 0.00390625 16.1025 0.134156 16.03 0.330406L14.8275 3.58191L11.5775 4.78516C11.38 4.85766 11.25 5.04466 11.25 5.25391C11.25 5.46316 11.38 5.65041 11.5775 5.72291L14.8275 6.92616L16.03 10.1774C16.1025 10.3737 16.29 10.5039 16.5 10.5039C16.71 10.5039 16.8975 10.3737 16.97 10.1774L18.1725 6.92616L21.4225 5.72291C21.62 5.65041 21.75 5.46316 21.75 5.25391C21.75 5.04466 21.62 4.85766 21.4225 4.78516L18.1725 3.58191L16.97 0.330406ZM7 5.24991C5.8975 5.24991 5 6.14616 5 7.24991C5 8.35366 5.8975 9.24991 7 9.24991C8.1025 9.24991 9 8.35366 9 7.24991C9 6.14616 8.1025 5.24991 7 5.24991ZM16.5 1.94466L17.315 4.14466C17.365 4.28141 17.4725 4.38941 17.61 4.43991L19.81 5.25391L17.61 6.06791C17.4725 6.11866 17.365 6.22666 17.315 6.36341L16.5 8.56316L15.685 6.36341C15.635 6.22666 15.5275 6.11866 15.39 6.06791L13.19 5.25391L15.39 4.43991C15.5275 4.38941 15.635 4.28141 15.685 4.14466L16.5 1.94466ZM7 6.24991C7.5525 6.24991 8 6.69791 8 7.24991C8 7.80191 7.5525 8.24991 7 8.24991C6.4475 8.24991 6 7.80191 6 7.24991C6 6.69791 6.4475 6.24991 7 6.24991ZM20.5 1.75391H20C19.725 1.75391 19.5 1.97816 19.5 2.25391C19.5 2.52991 19.725 2.75391 20 2.75391H20.5V3.25391C20.5 3.52991 20.725 3.75391 21 3.75391C21.275 3.75391 21.5 3.52991 21.5 3.25391V2.75391H22C22.275 2.75391 22.5 2.52991 22.5 2.25391C22.5 1.97816 22.275 1.75391 22 1.75391H21.5V1.25391C21.5 0.978156 21.275 0.753906 21 0.753906C20.725 0.753906 20.5 0.978156 20.5 1.25391V1.75391Z"/>
</mask>
<path fill-rule="evenodd" clip-rule="evenodd" d="M19 15.2929L12.3525 8.64641C12.1575 8.45116 11.8425 8.45116 11.6475 8.64641L6.75 13.5429L4.35248 11.1464C4.15748 10.9512 3.84252 10.9512 3.64752 11.1464L1 13.7929V4.00391C1 3.87141 1.05252 3.74416 1.14752 3.65041C1.24002 3.55666 1.3675 3.50391 1.5 3.50391H12.75C13.025 3.50391 13.25 3.27991 13.25 3.00391C13.25 2.72816 13.025 2.50391 12.75 2.50391H1.5C1.1025 2.50391 0.720002 2.66191 0.440002 2.94341C0.157502 3.22466 0 3.60616 0 4.00391V22.5039C0 22.9019 0.157502 23.2834 0.440002 23.5647C0.720002 23.8459 1.1025 24.0039 1.5 24.0039H18.5C18.8975 24.0039 19.28 23.8459 19.56 23.5647C19.8425 23.2834 20 22.9019 20 22.5039V13.0039C20 12.7282 19.775 12.5039 19.5 12.5039C19.225 12.5039 19 12.7282 19 13.0039V15.2929ZM12 9.70691L1 20.7069V22.5039C1 22.6367 1.05252 22.7637 1.14752 22.8577C1.24002 22.9514 1.3675 23.0039 1.5 23.0039H18.5C18.6325 23.0039 18.76 22.9514 18.8525 22.8577C18.9475 22.7637 19 22.6367 19 22.5039V16.7069L12 9.70691ZM1 15.2069V19.2929L6.04248 14.2499L4 12.2069L1 15.2069ZM21.46 6.83041C21.3875 6.63416 21.2 6.50391 20.9925 6.50391C20.7825 6.50391 20.595 6.63416 20.5225 6.83041L19.9275 8.43966L18.3175 9.03516C18.1225 9.10766 17.9925 9.29466 17.9925 9.50391C17.9925 9.71316 18.1225 9.90041 18.3175 9.97291L19.9275 10.5684L20.5225 12.1774C20.595 12.3737 20.7825 12.5039 20.9925 12.5039C21.2 12.5039 21.3875 12.3737 21.46 12.1774L22.055 10.5684L23.665 9.97291C23.8625 9.90041 23.9925 9.71316 23.9925 9.50391C23.9925 9.29466 23.8625 9.10766 23.665 9.03516L22.055 8.43966L21.46 6.83041ZM20.9925 8.44466L21.1975 9.00241C21.2475 9.13916 21.3575 9.24716 21.4925 9.29766L22.05 9.50391L21.4925 9.71041C21.3575 9.76091 21.2475 9.86891 21.1975 10.0057L20.9925 10.5632L20.785 10.0057C20.735 9.86891 20.6275 9.76091 20.49 9.71041L19.9325 9.50391L20.49 9.29766C20.6275 9.24716 20.735 9.13916 20.785 9.00241L20.9925 8.44466ZM16.97 0.330406C16.8975 0.134156 16.71 0.00390625 16.5 0.00390625C16.29 0.00390625 16.1025 0.134156 16.03 0.330406L14.8275 3.58191L11.5775 4.78516C11.38 4.85766 11.25 5.04466 11.25 5.25391C11.25 5.46316 11.38 5.65041 11.5775 5.72291L14.8275 6.92616L16.03 10.1774C16.1025 10.3737 16.29 10.5039 16.5 10.5039C16.71 10.5039 16.8975 10.3737 16.97 10.1774L18.1725 6.92616L21.4225 5.72291C21.62 5.65041 21.75 5.46316 21.75 5.25391C21.75 5.04466 21.62 4.85766 21.4225 4.78516L18.1725 3.58191L16.97 0.330406ZM7 5.24991C5.8975 5.24991 5 6.14616 5 7.24991C5 8.35366 5.8975 9.24991 7 9.24991C8.1025 9.24991 9 8.35366 9 7.24991C9 6.14616 8.1025 5.24991 7 5.24991ZM16.5 1.94466L17.315 4.14466C17.365 4.28141 17.4725 4.38941 17.61 4.43991L19.81 5.25391L17.61 6.06791C17.4725 6.11866 17.365 6.22666 17.315 6.36341L16.5 8.56316L15.685 6.36341C15.635 6.22666 15.5275 6.11866 15.39 6.06791L13.19 5.25391L15.39 4.43991C15.5275 4.38941 15.635 4.28141 15.685 4.14466L16.5 1.94466ZM7 6.24991C7.5525 6.24991 8 6.69791 8 7.24991C8 7.80191 7.5525 8.24991 7 8.24991C6.4475 8.24991 6 7.80191 6 7.24991C6 6.69791 6.4475 6.24991 7 6.24991ZM20.5 1.75391H20C19.725 1.75391 19.5 1.97816 19.5 2.25391C19.5 2.52991 19.725 2.75391 20 2.75391H20.5V3.25391C20.5 3.52991 20.725 3.75391 21 3.75391C21.275 3.75391 21.5 3.52991 21.5 3.25391V2.75391H22C22.275 2.75391 22.5 2.52991 22.5 2.25391C22.5 1.97816 22.275 1.75391 22 1.75391H21.5V1.25391C21.5 0.978156 21.275 0.753906 21 0.753906C20.725 0.753906 20.5 0.978156 20.5 1.25391V1.75391Z" fill="#252525"/>
<path fill-rule="evenodd" clip-rule="evenodd" d="M19 15.2929L12.3525 8.64641C12.1575 8.45116 11.8425 8.45116 11.6475 8.64641L6.75 13.5429L4.35248 11.1464C4.15748 10.9512 3.84252 10.9512 3.64752 11.1464L1 13.7929V4.00391C1 3.87141 1.05252 3.74416 1.14752 3.65041C1.24002 3.55666 1.3675 3.50391 1.5 3.50391H12.75C13.025 3.50391 13.25 3.27991 13.25 3.00391C13.25 2.72816 13.025 2.50391 12.75 2.50391H1.5C1.1025 2.50391 0.720002 2.66191 0.440002 2.94341C0.157502 3.22466 0 3.60616 0 4.00391V22.5039C0 22.9019 0.157502 23.2834 0.440002 23.5647C0.720002 23.8459 1.1025 24.0039 1.5 24.0039H18.5C18.8975 24.0039 19.28 23.8459 19.56 23.5647C19.8425 23.2834 20 22.9019 20 22.5039V13.0039C20 12.7282 19.775 12.5039 19.5 12.5039C19.225 12.5039 19 12.7282 19 13.0039V15.2929ZM12 9.70691L1 20.7069V22.5039C1 22.6367 1.05252 22.7637 1.14752 22.8577C1.24002 22.9514 1.3675 23.0039 1.5 23.0039H18.5C18.6325 23.0039 18.76 22.9514 18.8525 22.8577C18.9475 22.7637 19 22.6367 19 22.5039V16.7069L12 9.70691ZM1 15.2069V19.2929L6.04248 14.2499L4 12.2069L1 15.2069ZM21.46 6.83041C21.3875 6.63416 21.2 6.50391 20.9925 6.50391C20.7825 6.50391 20.595 6.63416 20.5225 6.83041L19.9275 8.43966L18.3175 9.03516C18.1225 9.10766 17.9925 9.29466 17.9925 9.50391C17.9925 9.71316 18.1225 9.90041 18.3175 9.97291L19.9275 10.5684L20.5225 12.1774C20.595 12.3737 20.7825 12.5039 20.9925 12.5039C21.2 12.5039 21.3875 12.3737 21.46 12.1774L22.055 10.5684L23.665 9.97291C23.8625 9.90041 23.9925 9.71316 23.9925 9.50391C23.9925 9.29466 23.8625 9.10766 23.665 9.03516L22.055 8.43966L21.46 6.83041ZM20.9925 8.44466L21.1975 9.00241C21.2475 9.13916 21.3575 9.24716 21.4925 9.29766L22.05 9.50391L21.4925 9.71041C21.3575 9.76091 21.2475 9.86891 21.1975 10.0057L20.9925 10.5632L20.785 10.0057C20.735 9.86891 20.6275 9.76091 20.49 9.71041L19.9325 9.50391L20.49 9.29766C20.6275 9.24716 20.735 9.13916 20.785 9.00241L20.9925 8.44466ZM16.97 0.330406C16.8975 0.134156 16.71 0.00390625 16.5 0.00390625C16.29 0.00390625 16.1025 0.134156 16.03 0.330406L14.8275 3.58191L11.5775 4.78516C11.38 4.85766 11.25 5.04466 11.25 5.25391C11.25 5.46316 11.38 5.65041 11.5775 5.72291L14.8275 6.92616L16.03 10.1774C16.1025 10.3737 16.29 10.5039 16.5 10.5039C16.71 10.5039 16.8975 10.3737 16.97 10.1774L18.1725 6.92616L21.4225 5.72291C21.62 5.65041 21.75 5.46316 21.75 5.25391C21.75 5.04466 21.62 4.85766 21.4225 4.78516L18.1725 3.58191L16.97 0.330406ZM7 5.24991C5.8975 5.24991 5 6.14616 5 7.24991C5 8.35366 5.8975 9.24991 7 9.24991C8.1025 9.24991 9 8.35366 9 7.24991C9 6.14616 8.1025 5.24991 7 5.24991ZM16.5 1.94466L17.315 4.14466C17.365 4.28141 17.4725 4.38941 17.61 4.43991L19.81 5.25391L17.61 6.06791C17.4725 6.11866 17.365 6.22666 17.315 6.36341L16.5 8.56316L15.685 6.36341C15.635 6.22666 15.5275 6.11866 15.39 6.06791L13.19 5.25391L15.39 4.43991C15.5275 4.38941 15.635 4.28141 15.685 4.14466L16.5 1.94466ZM7 6.24991C7.5525 6.24991 8 6.69791 8 7.24991C8 7.80191 7.5525 8.24991 7 8.24991C6.4475 8.24991 6 7.80191 6 7.24991C6 6.69791 6.4475 6.24991 7 6.24991ZM20.5 1.75391H20C19.725 1.75391 19.5 1.97816 19.5 2.25391C19.5 2.52991 19.725 2.75391 20 2.75391H20.5V3.25391C20.5 3.52991 20.725 3.75391 21 3.75391C21.275 3.75391 21.5 3.52991 21.5 3.25391V2.75391H22C22.275 2.75391 22.5 2.52991 22.5 2.25391C22.5 1.97816 22.275 1.75391 22 1.75391H21.5V1.25391C21.5 0.978156 21.275 0.753906 21 0.753906C20.725 0.753906 20.5 0.978156 20.5 1.25391V1.75391Z" stroke="#252525" stroke-width="0.2" mask="url(#path-1-outside-1_2859_5328)"/>
</g>
<defs>
<clipPath id="clip0_2859_5328">
<rect width="24" height="24" fill="white"/>
</clipPath>
</defs>
</svg>
