<svg width="24" height="24" viewBox="0 0 24 24" fill="none" xmlns="http://www.w3.org/2000/svg">
<path d="M23.0696 22.6019V23.0258H0.929688V22.6019C0.929688 22.4494 1.05336 22.3257 1.20591 22.3257H22.7934C22.9459 22.3257 23.0696 22.4494 23.0696 22.6019Z" fill="#FFCC5E"/>
<path d="M22.4781 21.9017V22.3256H1.52148V21.9017C1.52148 21.7492 1.64515 21.6255 1.79771 21.6255H22.2019C22.3544 21.6255 22.4781 21.7492 22.4781 21.9017Z" fill="#FFCC5E"/>
<path d="M21.8866 21.202V21.6259H2.11328V21.202C2.11328 21.0494 2.23695 20.9258 2.3895 20.9258H21.6104C21.7629 20.9258 21.8866 21.0494 21.8866 21.202Z" fill="#FFCC5E"/>
<path d="M10.5605 20.9258H13.4421V21.6259H10.5605V20.9258Z" fill="white"/>
<path d="M3.25977 14.6851H8.60228V16.2867H3.25977V14.6851Z" fill="#EFB237"/>
<path d="M8.41602 9.31494H15.6267V11.1816H8.41602V9.31494Z" fill="#EFB237"/>
<path d="M16.1084 9.00334C16.1084 8.83133 15.969 8.69189 15.797 8.69189H8.24504C8.07303 8.69189 7.93359 8.83133 7.93359 9.00334C7.93359 9.17534 8.07303 9.31478 8.24504 9.31478H15.797C15.969 9.31478 16.1084 9.17534 16.1084 9.00334Z" fill="#FFCC5E"/>
<path d="M16.3202 7.14835C16.3202 6.96745 16.1735 6.8208 15.9926 6.8208H8.0502C7.8693 6.8208 7.72266 6.96745 7.72266 7.14835C7.72266 7.32925 7.8693 7.4759 8.0502 7.4759H15.9926C16.1735 7.4759 16.3202 7.32925 16.3202 7.14835Z" fill="#FFCC5E"/>
<path d="M8.41602 7.47559H15.6267V8.69198H8.41602V7.47559Z" fill="#EFB237"/>
<path d="M2.92578 14.1864V14.4089C2.92578 14.5614 3.04945 14.6851 3.202 14.6851H12.0219V13.9102H3.202C3.04945 13.9102 2.92578 14.0338 2.92578 14.1864Z" fill="#FFCC5E"/>
<path d="M3.84766 13.4115V13.9102H12.0216V13.1353H4.12388C3.97132 13.1353 3.84766 13.2589 3.84766 13.4115Z" fill="#EFB237"/>
<path d="M4.34766 12.6366V13.1353H12.0221V12.3604H4.62388C4.47132 12.3604 4.34766 12.484 4.34766 12.6366Z" fill="#EFB237"/>
<path d="M4.84766 11.8617V12.3604H12.0226V11.5854H5.12388C4.97132 11.5854 4.84766 11.7091 4.84766 11.8617Z" fill="#EFB237"/>
<path d="M3.25977 17.0615H8.60228V20.1505H3.25977V17.0615Z" fill="#EFB237"/>
<path d="M2.92578 20.4271V20.9258H8.6027V20.1509H3.202C3.04945 20.1509 2.92578 20.2745 2.92578 20.4271Z" fill="#FFCC5E"/>
<path d="M2.92578 16.5628V16.7853C2.92578 16.9379 3.04945 17.0616 3.202 17.0616H8.6027V16.2866H3.202C3.04945 16.2866 2.92578 16.4103 2.92578 16.5628Z" fill="#FFCC5E"/>
<path d="M7.69098 13.001C7.45488 13.2051 7.32812 13.5577 7.32812 13.9108H10.0377V13.001H7.69098Z" fill="#FFCC5E"/>
<path d="M8.05427 12.0908C7.81816 12.295 7.69141 12.6475 7.69141 13.0006H10.7215V12.0908H8.05427Z" fill="#FFCC5E"/>
<path d="M8.41755 11.1812C8.18144 11.3853 8.05469 11.7378 8.05469 12.091H12.0224V11.1812H8.41755Z" fill="#FFCC5E"/>
<path d="M5.61914 10.7764H7.51772V11.5848H5.61914V10.7764Z" fill="#EFB237"/>
<path d="M6.04688 10.0596V10.7764H7.091V10.0614C7.091 9.58455 6.90311 9.12689 6.56803 8.7876L6.56763 8.788C6.23391 9.1271 6.04688 9.5838 6.04688 10.0596Z" fill="#FFCC5E"/>
<path d="M15.4414 14.6851H20.7839V16.2867H15.4414V14.6851Z" fill="#EFB237"/>
<path d="M21.1176 14.1864V14.4089C21.1176 14.5614 20.9939 14.6851 20.8413 14.6851H12.0215V13.9102H20.8413C20.9939 13.9102 21.1176 14.0338 21.1176 14.1864Z" fill="#FFCC5E"/>
<path d="M20.1954 13.4115V13.9102H12.0215V13.1353H19.9192C20.0717 13.1353 20.1954 13.2589 20.1954 13.4115Z" fill="#EFB237"/>
<path d="M19.6959 12.6366V13.1353H12.0215V12.3604H19.4197C19.5722 12.3604 19.6959 12.484 19.6959 12.6366Z" fill="#EFB237"/>
<path d="M19.1964 11.8617V12.3604H12.0215V11.5854H18.9202C19.0728 11.5854 19.1964 11.7091 19.1964 11.8617Z" fill="#EFB237"/>
<path d="M10.209 21.6255H13.7908V22.3256H10.209V21.6255Z" fill="white"/>
<path d="M9.85938 22.3257H14.1417V23.0258H9.85938V22.3257Z" fill="white"/>
<path d="M15.4414 17.0615H20.7839V20.1505H15.4414V17.0615Z" fill="#EFB237"/>
<path d="M21.1183 20.4271V20.9258H15.4414V20.1509H20.8421C20.9947 20.1509 21.1183 20.2745 21.1183 20.4271Z" fill="#FFCC5E"/>
<path d="M21.1183 16.5628V16.7853C21.1183 16.9379 20.9947 17.0616 20.8421 17.0616H15.4414V16.2866H20.8421C20.9947 16.2866 21.1183 16.4103 21.1183 16.5628Z" fill="#FFCC5E"/>
<path d="M8.56055 15.8457H15.4411V20.9257H8.56055V15.8457Z" fill="#FFCC5E"/>
<path d="M9.35742 15.8457H10.0823V20.9257H9.35742V15.8457Z" fill="white"/>
<path d="M13.918 15.8457H14.6429V20.9257H13.918V15.8457Z" fill="white"/>
<path d="M11.0273 17.5171H12.9739V20.9256H11.0273V17.5171Z" fill="white"/>
<path d="M8.03516 15.5128C8.03516 15.6967 8.18428 15.8458 8.36822 15.8458H15.6313C15.8152 15.8458 15.9643 15.6967 15.9643 15.5128C15.9643 15.3288 15.8152 15.1797 15.6313 15.1797H8.36822C8.18428 15.1797 8.03516 15.3288 8.03516 15.5128Z" fill="white"/>
<path d="M8.52344 14.7894V15.1793H15.477V14.7894C15.477 14.6369 15.3534 14.5132 15.2008 14.5132H8.79966C8.64711 14.5132 8.52344 14.6369 8.52344 14.7894Z" fill="white"/>
<path d="M16.3526 13.001C16.5887 13.2051 16.7155 13.5577 16.7155 13.9108H14.0059V13.001H16.3526Z" fill="#FFCC5E"/>
<path d="M15.9895 12.0908C16.2256 12.295 16.3524 12.6475 16.3524 13.0006H13.3223V12.0908H15.9895Z" fill="#FFCC5E"/>
<path d="M15.6264 11.1812C15.8625 11.3853 15.9892 11.7378 15.9892 12.091H12.0215V11.1812H15.6264Z" fill="#FFCC5E"/>
<path d="M13.9876 12.3602V14.5129H10.0137V12.3602C10.544 11.747 11.218 11.2387 12.0006 10.8115C12.7833 11.2387 13.4572 11.747 13.9876 12.3602Z" fill="#FFCC5E"/>
<path d="M12.595 13.233V14.513H11.4043V13.233C11.4043 12.9042 11.6708 12.6377 11.9996 12.6377C12.3284 12.6377 12.595 12.9042 12.595 13.233Z" fill="white"/>
<path d="M16.5254 10.7764H18.424V11.5848H16.5254V10.7764Z" fill="#EFB237"/>
<path d="M17.9972 10.0596V10.7764H16.9531V10.0614C16.9531 9.58455 17.141 9.12689 17.4761 8.7876L17.4765 8.788C17.8102 9.1271 17.9972 9.5838 17.9972 10.0596Z" fill="#FFCC5E"/>
<path d="M9.83766 8.4408V8.69176H8.99609V8.4408C8.99609 8.20841 9.18448 8.02002 9.41688 8.02002C9.64927 8.02002 9.83766 8.20841 9.83766 8.4408Z" fill="white"/>
<path d="M11.2127 8.4408V8.69176H10.3711V8.4408C10.3711 8.20841 10.5595 8.02002 10.7919 8.02002C11.0243 8.02002 11.2127 8.20841 11.2127 8.4408Z" fill="white"/>
<path d="M14.207 8.4408V8.69176H15.0486V8.4408C15.0486 8.20841 14.8602 8.02002 14.6278 8.02002C14.3954 8.02002 14.207 8.20841 14.207 8.4408Z" fill="white"/>
<path d="M12.832 8.4408V8.69176H13.6736V8.4408C13.6736 8.20841 13.4852 8.02002 13.2528 8.02002C13.0204 8.02002 12.832 8.20841 12.832 8.4408Z" fill="white"/>
<path d="M15.3904 6.82082H8.6543C8.6543 6.46726 8.8366 6.11738 9.22513 5.91113H14.8196C15.2081 6.11738 15.3904 6.46726 15.3904 6.82082Z" fill="#EFB237"/>
<path d="M14.016 6.82082H10.0273C10.0273 6.53355 10.1194 6.21314 10.3717 5.91113H13.6716C13.9239 6.21314 14.016 6.53355 14.016 6.82082Z" fill="#FFCC5E"/>
<path d="M14.819 5.91115H9.22461C9.22461 5.55759 9.40325 5.20771 9.7918 5.00146H14.2518C14.6404 5.20771 14.819 5.55759 14.819 5.91115Z" fill="#EFB237"/>
<path d="M13.671 5.91115H10.3711C10.3711 5.62388 10.4632 5.30347 10.7154 5.00146H13.3267C13.579 5.30347 13.671 5.62388 13.671 5.91115Z" fill="#FFCC5E"/>
<path d="M14.2511 5.00149H9.79102C9.79102 4.64793 9.96963 4.29621 10.3582 4.0918H13.6839C14.0724 4.29621 14.2511 4.64793 14.2511 5.00149Z" fill="#EFB237"/>
<path d="M13.3297 5.00149H10.7148C10.7148 4.71422 10.8069 4.3938 11.0592 4.0918H12.9854C13.2377 4.3938 13.3297 4.71422 13.3297 5.00149Z" fill="#FFCC5E"/>
<path d="M13.0904 2.48682C13.0904 3.07621 12.611 3.55567 12.0216 3.55567C11.4322 3.55567 10.9551 3.07621 10.9551 2.48682C10.9551 1.89744 11.4322 1.41797 12.0216 1.41797C12.611 1.41797 13.0904 1.89744 13.0904 2.48682Z" fill="#FFCC5E"/>
<path d="M11.0586 3.21338H12.9848V4.0919H11.0586V3.21338Z" fill="#FFCC5E"/>
<path d="M12.335 0.748999C12.335 0.922098 12.195 1.06205 12.0201 1.06205C11.847 1.06205 11.707 0.922098 11.707 0.748999C11.707 0.481596 12.0201 0.0795898 12.0201 0.0795898C12.0201 0.0795898 12.335 0.481596 12.335 0.748999Z" fill="#FFCC5E"/>
<path d="M23.4736 22.9381H23.158V22.602C23.158 22.4007 22.9952 22.2379 22.7939 22.2379H22.5667V21.9019C22.5667 21.7017 22.4028 21.5379 22.2027 21.5379H21.9744V21.2018C21.9744 21.0005 21.8116 20.8377 21.6103 20.8377H21.2064V20.4268C21.2064 20.236 21.0577 20.0791 20.8715 20.0651V17.1476C21.0577 17.1335 21.2064 16.9767 21.2064 16.7858V16.5634C21.2064 16.3714 21.0577 16.2157 20.8715 16.2016V14.771C21.0577 14.757 21.2064 14.6001 21.2064 14.4092V14.1868C21.2064 13.9854 21.0425 13.8227 20.8423 13.8227H20.2838V13.4118C20.2838 13.2104 20.1211 13.0477 19.9197 13.0477H19.7839V12.6367C19.7839 12.4354 19.6212 12.2727 19.4198 12.2727H19.2852V11.8617C19.2852 11.6604 19.1213 11.4976 18.9211 11.4976H18.5125V10.8644H18.6983C18.7468 10.8644 18.7861 10.825 18.7861 10.7766C18.7861 10.7281 18.7468 10.6887 18.6983 10.6887H18.4251C18.425 10.6887 18.4248 10.6887 18.4247 10.6887H18.0852V10.1766H18.2083C18.2568 10.1766 18.2961 10.1372 18.2961 10.0887C18.2961 10.0403 18.2568 10.0009 18.2083 10.0009H18.084C18.0698 9.52933 17.8837 9.08699 17.5642 8.75344C17.5642 8.75338 17.5641 8.75332 17.564 8.75324V8.47636C17.564 8.42789 17.5247 8.38856 17.4762 8.38856C17.4278 8.38856 17.3884 8.42789 17.3884 8.47636V8.75364C17.0644 9.093 16.8806 9.53173 16.8665 10.0009H16.7423C16.6939 10.0009 16.6545 10.0403 16.6545 10.0887C16.6545 10.1372 16.6939 10.1766 16.7423 10.1766H16.8653V10.6887C16.8533 10.6887 16.2403 10.6888 16.2523 10.6887C16.2039 10.6887 16.1645 10.7281 16.1645 10.7766C16.1645 10.825 16.2039 10.8644 16.2523 10.8644H16.438V11.4976H15.958C15.8971 11.3583 15.8151 11.2377 15.7145 11.1441V9.4032H15.7976C16.0177 9.4032 16.1968 9.22407 16.1968 9.00399C16.1968 8.78388 16.0177 8.60475 15.7976 8.60475H15.7145V7.56398H15.9931C16.2226 7.56398 16.4087 7.37666 16.4087 7.14837C16.4087 6.91891 16.2226 6.73275 15.9931 6.73275H15.4745C15.4464 6.3675 15.2427 6.05492 14.9055 5.85939C14.8891 5.47773 14.6854 5.15109 14.3388 4.94973C14.3213 4.55052 14.0989 4.21102 13.7254 4.01432C13.6893 3.9946 13.7034 4.00724 13.0733 4.0038V3.30136H13.2208C13.2688 3.30136 13.3086 3.26155 13.3086 3.21356C13.3086 3.16437 13.2688 3.12575 13.2208 3.12575C13.2081 3.12575 12.972 3.12575 12.9843 3.12575C13.4694 2.39811 12.9922 1.39917 12.1086 1.33335C12.1086 1.33335 12.1086 1.33335 12.1086 1.33335L12.1086 1.13899C12.2889 1.09921 12.4224 0.939975 12.4224 0.749159C12.4224 0.459992 12.1227 0.0689572 12.0887 0.025655C12.0723 0.00456126 12.0466 -0.00830078 12.0196 -0.00830078C11.9927 -0.00830078 11.9669 0.00456126 11.9506 0.025655C11.9166 0.0689572 11.6192 0.459992 11.6192 0.749159C11.6192 0.941147 11.7539 1.10035 11.933 1.14017V1.33335C11.3371 1.37783 10.8665 1.87773 10.8665 2.48651C10.8665 2.72183 10.9367 2.94311 11.0585 3.12575H10.8231C10.7751 3.12575 10.7353 3.16437 10.7353 3.21356C10.7353 3.26155 10.7751 3.30136 10.8231 3.30136H10.9707V4.0038C10.3197 4.00734 10.3513 3.99578 10.3174 4.01432C9.94392 4.21102 9.72265 4.55052 9.70509 4.94973C9.35855 5.15109 9.15485 5.47773 9.13845 5.85939C8.80129 6.05372 8.59758 6.36633 8.56948 6.73275H8.05085C7.82138 6.73275 7.63524 6.91891 7.63524 7.14837C7.63524 7.37666 7.82138 7.56398 8.05085 7.56398H8.32831V8.60475H8.24636C8.02626 8.60475 7.84714 8.78388 7.84714 9.00399C7.84714 9.22407 8.02626 9.4032 8.24636 9.4032H8.32831V11.1453C8.2288 11.2389 8.14685 11.3595 8.08597 11.4976H7.60597V10.8644H7.79197C7.84044 10.8644 7.87977 10.825 7.87977 10.7766C7.87977 10.7281 7.84044 10.6887 7.79197 10.6887H7.51858C7.51843 10.6887 7.51831 10.6887 7.51816 10.6887H7.17865V10.1766H7.30195C7.35043 10.1766 7.38976 10.1372 7.38976 10.0887C7.38976 10.0403 7.35043 10.0009 7.30195 10.0009H7.17744C7.16329 9.53191 6.97969 9.0922 6.65588 8.75289V8.47636C6.65588 8.42789 6.61655 8.38856 6.56807 8.38856C6.5196 8.38856 6.48027 8.42789 6.48027 8.47636V8.75287C6.47234 8.76509 5.98379 9.21279 5.95996 10.0009H5.83602C5.78755 10.0009 5.74822 10.0403 5.74822 10.0887C5.74822 10.1372 5.78755 10.1766 5.83602 10.1766H5.95875V10.6887C5.93211 10.6887 5.59792 10.6888 5.61882 10.6887H5.34601C5.29753 10.6887 5.2582 10.7281 5.2582 10.7766C5.2582 10.825 5.29753 10.8644 5.34601 10.8644H5.53143V11.4976H5.12284C4.92265 11.4976 4.75992 11.6604 4.75992 11.8617V12.2727H4.62411C4.42275 12.2727 4.26002 12.4354 4.26002 12.6367V13.0477H4.12421C3.92402 13.0477 3.76012 13.2104 3.76012 13.4118V13.8227H3.20168C3.00148 13.8227 2.83875 13.9854 2.83875 14.1868V14.4092C2.83875 14.6001 2.98626 14.757 3.17241 14.771V16.2016C2.98626 16.2157 2.83875 16.3714 2.83875 16.5634V16.7858C2.83875 16.9767 2.98626 17.1335 3.17241 17.1476V20.0651C2.98626 20.0791 2.83875 20.236 2.83875 20.4268V20.8377H2.39036C2.18899 20.8377 2.02626 21.0005 2.02626 21.2018V21.5379H1.79797C1.59777 21.5379 1.43387 21.7017 1.43387 21.9019V22.2379H1.20675C1.00538 22.2379 0.84265 22.4007 0.84265 22.602V22.9381H0.527258C0.478782 22.9381 0.439453 22.9774 0.439453 23.0259C0.439453 23.0744 0.478782 23.1137 0.527258 23.1137H23.4736C23.5221 23.1137 23.5614 23.0744 23.5614 23.0259C23.5614 22.9774 23.5221 22.9381 23.4736 22.9381ZM17.4764 8.91619C17.7432 9.21807 17.8954 9.59839 17.9084 10.0009H17.0433C17.0563 9.59719 17.2084 9.21693 17.4764 8.91619ZM17.0409 10.1766H17.9096V10.6887H17.0409V10.1766ZM18.3369 10.8644V11.4965H16.6136V10.8644H18.3369ZM6.5687 8.91619C6.83668 9.21693 6.98767 9.59719 7.00182 10.0009H6.13557C6.14855 9.59839 6.30071 9.21807 6.5687 8.91619ZM6.13436 10.1766H7.00304V10.6887H6.13436V10.1766ZM7.43036 10.8644V11.4965H5.70704V10.8644H7.43036ZM9.94743 22.4136H14.0532V22.938H9.94743V22.4136ZM10.2975 21.7135H13.7031V22.2379H10.2975V21.7135ZM8.64792 20.8377C8.64792 20.7455 8.64792 15.9172 8.64792 15.9335C8.67306 15.9335 9.29587 15.9335 9.26958 15.9335V20.8377C9.25756 20.8377 8.6359 20.8377 8.64792 20.8377ZM3.34802 17.1499H8.47231V20.0627H3.34802V17.1499ZM3.34802 14.7733H8.43719C8.43484 14.7851 8.43601 14.7891 8.43601 15.0918H8.36929C8.13631 15.0918 7.94782 15.2803 7.94782 15.5121C7.94782 15.745 8.13631 15.9335 8.36929 15.9335H8.47231V16.1993H3.34802V14.7733ZM7.72539 13.0887H9.92519C9.92519 13.1054 9.92519 13.8443 9.92519 13.8227H7.41866C7.44128 13.4868 7.57901 13.2229 7.72539 13.0887ZM8.08831 12.179H10.0587C10.0136 12.2258 9.99158 12.2534 9.94743 12.3031C9.9131 12.3403 9.92932 12.3827 9.92519 12.4483V12.9131H7.78158C7.79839 12.6459 7.89684 12.3628 8.08831 12.179ZM12.0009 10.9111C12.8268 11.3687 13.4823 11.906 13.8998 12.3933C13.8998 12.571 13.8998 14.5238 13.8998 14.4245H12.6835V13.2329C12.6835 12.8562 12.3771 12.5498 12.0004 12.5498C11.6237 12.5498 11.3172 12.8562 11.3172 13.2329V14.4245H10.1008C10.1008 13.9446 10.1008 12.8744 10.1008 12.3933C10.4992 11.9283 11.1334 11.3918 12.0009 10.9111ZM9.53435 11.0937V9.4032H10.3888V11.0937H9.53435ZM10.5645 9.4032H11.419V11.0551C11.3991 11.0668 11.3792 11.0797 11.3593 11.0937H10.5645V9.4032ZM12.4493 9.4032V10.9708C12.3182 10.8889 12.1824 10.8104 12.043 10.7343C12.0161 10.7203 11.9845 10.7203 11.9587 10.7343C11.8335 10.8022 11.7129 10.8725 11.5947 10.9439V9.4032H12.4493ZM13.4792 9.4032V11.0937H12.6425C12.6366 11.0891 12.6307 11.0855 12.6249 11.082V9.4032H13.4792ZM14.5093 9.4032V11.0937H13.6548V9.4032H14.5093ZM16.2624 12.9131H14.0754V12.4483C14.0716 12.3877 14.0871 12.3419 14.0544 12.3031C14.01 12.2531 13.9881 12.2258 13.9431 12.179H15.9556C16.1474 12.3631 16.2456 12.6467 16.2624 12.9131ZM16.6253 13.8227H14.0942C14.0942 13.8033 14.0942 13.0585 14.0942 13.0887H16.3186C16.4648 13.2227 16.6045 13.4892 16.6253 13.8227ZM20.6959 16.1993H15.5295V15.9335H15.6313C15.8643 15.9335 16.0528 15.745 16.0528 15.5121C16.0528 15.2803 15.8643 15.0918 15.6313 15.0918H15.5646C15.5646 14.7876 15.5658 14.7852 15.5634 14.7733H20.6959V16.1993ZM20.6959 20.0627H15.5295V17.1499H20.6959V20.0627ZM8.36929 15.7579C8.23348 15.7579 8.12343 15.6479 8.12343 15.5121C8.12343 15.3774 8.23348 15.2674 8.36929 15.2674C8.55262 15.2674 15.9678 15.2674 15.6313 15.2674C15.7671 15.2674 15.8772 15.3774 15.8772 15.5121C15.8772 15.6479 15.7671 15.7579 15.6313 15.7579C15.486 15.7579 8.13095 15.7579 8.36929 15.7579ZM14.0064 15.9335H14.5554V20.8377H14.0064V15.9335ZM14.731 15.9335H15.3527V20.8377H14.731V15.9335ZM15.389 15.0918C14.6006 15.0918 9.81871 15.0918 8.61162 15.0918C8.61162 14.8348 8.60986 14.7851 8.6128 14.7733C8.62208 14.669 8.70907 14.6013 8.80012 14.6013H15.2005C15.3027 14.6013 15.3818 14.6831 15.3878 14.7733C15.389 14.778 15.389 14.8599 15.389 15.0918ZM12.5079 14.4245C12.4861 14.4245 11.4298 14.4245 11.4928 14.4245V13.2329C11.4928 12.953 11.7206 12.7254 12.0004 12.7254C12.2803 12.7254 12.5079 12.953 12.5079 13.2329V14.4245ZM9.44519 15.9335H9.99427V20.8377H9.44519V15.9335ZM10.1699 15.9335H13.8307V20.8377C13.8104 20.8377 13.0317 20.8377 13.0616 20.8377V17.605H13.237C13.2855 17.605 13.3248 17.5657 13.3248 17.5172C13.3248 17.4687 13.2855 17.4294 13.237 17.4294H10.7637C10.7153 17.4294 10.6759 17.4687 10.6759 17.5172C10.6759 17.5657 10.7153 17.605 10.7637 17.605H10.939V20.8377C10.9229 20.8377 10.1395 20.8377 10.1699 20.8377V15.9335ZM11.1146 17.6054H12.886V20.8377H11.1146V17.6054ZM10.6475 21.0133H13.3531V21.5379H10.6475V21.0133ZM22.9824 22.602V22.938H14.2288V22.4136H22.7939C22.8981 22.4136 22.9824 22.4978 22.9824 22.602ZM22.3911 21.9019V22.2379C19.7215 22.2379 16.3461 22.2379 13.8788 22.2379V21.7135H22.2027C22.3068 21.7135 22.3911 21.7977 22.3911 21.9019ZM21.7987 21.2018V21.5379C19.7558 21.5379 14.2153 21.5379 13.5287 21.5379V21.0133C13.5683 21.0133 14.6726 21.0133 14.6432 21.0133H21.6103C21.7145 21.0133 21.7987 21.0976 21.7987 21.2018ZM21.0307 20.4268V20.8377H15.5295V20.2383H20.7837H20.8423C20.9465 20.2383 21.0307 20.3226 21.0307 20.4268ZM21.0307 16.5634V16.7858C21.0307 16.8889 20.9465 16.9743 20.8423 16.9743H20.7837H15.5295V16.3749H20.7837H20.8423C20.9465 16.3749 21.0307 16.4592 21.0307 16.5634ZM21.0307 14.1868V14.4092C21.0307 14.5123 20.9465 14.5977 20.8423 14.5977H20.7837H15.5096C15.4452 14.4947 15.3316 14.4257 15.2005 14.4257H14.0754V13.9983H20.196H20.8423C20.9465 13.9983 21.0307 14.0826 21.0307 14.1868ZM20.1082 13.4118V13.8227H16.8009C16.7892 13.6026 16.7318 13.3966 16.6382 13.2233H19.6961H19.9197C20.0239 13.2233 20.1082 13.3076 20.1082 13.4118ZM19.6083 12.6367V13.0477H16.5199C16.4953 13.0172 16.4684 12.988 16.4391 12.9622C16.4356 12.7784 16.4005 12.604 16.3373 12.4483H19.4198C19.524 12.4483 19.6083 12.5326 19.6083 12.6367ZM18.9211 11.6732C19.0253 11.6732 19.1096 11.7576 19.1096 11.8617V12.2727H16.2506C16.2015 12.1895 16.1429 12.1146 16.0762 12.0526C16.0739 11.9203 16.0551 11.7927 16.02 11.6732H18.9211ZM15.8994 12.0034H13.7746C13.5152 11.7413 13.1881 11.4702 12.9012 11.2693H15.5927C15.7848 11.4512 15.8835 11.7413 15.8994 12.0034ZM15.5388 11.0937H14.6849V9.4032H15.5388V11.0937ZM15.2977 6.73275H14.1012C14.0848 6.47403 13.9982 6.22465 13.8471 5.9987H14.7966C15.0905 6.16145 15.2696 6.42486 15.2977 6.73275ZM11.1006 4.17941H12.9433C13.1189 4.40184 13.2196 4.65353 13.2384 4.91346H10.8056C10.8243 4.65353 10.925 4.40184 11.1006 4.17941ZM10.7576 5.08907H13.2852C13.4608 5.3115 13.5627 5.56319 13.5814 5.82309H10.4626C10.4813 5.56202 10.582 5.3115 10.7576 5.08907ZM10.4134 5.9987H13.6306C13.8062 6.22116 13.9068 6.47285 13.9256 6.73275H10.1184C10.1371 6.47285 10.2378 6.22116 10.4134 5.9987ZM14.7275 5.82309H13.757C13.7406 5.56554 13.654 5.31501 13.5029 5.08907H14.23C14.5215 5.25179 14.6994 5.5152 14.7275 5.82309ZM13.6622 4.17941C13.9548 4.33978 14.1316 4.6032 14.1597 4.91346H13.4151C13.3987 4.6547 13.3121 4.40535 13.1599 4.17941H13.6622ZM11.7948 0.749159C11.7948 0.596958 11.9248 0.370987 12.0196 0.229333C12.1168 0.370987 12.2468 0.596958 12.2468 0.749159C12.2468 0.873235 12.1449 0.973931 12.0196 0.973931C11.8955 0.973931 11.7948 0.873235 11.7948 0.749159ZM11.0421 2.48651C11.0421 1.94599 11.4805 1.50608 12.0198 1.5055C12.0201 1.5055 12.0204 1.5057 12.0208 1.5057C12.0211 1.5057 12.0214 1.5055 12.0218 1.5055C12.8582 1.50635 13.3095 2.49316 12.763 3.12575H11.2797C11.1322 2.95363 11.0421 2.7312 11.0421 2.48651ZM12.8977 3.30136V4.0038H11.1463V3.30136H12.8977ZM10.3806 4.17941H10.884C10.7318 4.40535 10.6452 4.6547 10.6288 4.91346H9.88304C9.91114 4.6032 10.0891 4.33978 10.3806 4.17941ZM9.81397 5.08907H10.5398C10.3888 5.31501 10.3022 5.56554 10.2858 5.82309H9.31641C9.3445 5.5152 9.52246 5.25179 9.81397 5.08907ZM9.24734 5.9987H10.1968C10.0446 6.22465 9.95797 6.47403 9.94158 6.73275H8.74509C8.77436 6.42486 8.95348 6.16145 9.24734 5.9987ZM7.81085 7.14837C7.81085 7.01609 7.91855 6.90836 8.05085 6.90836H15.9931C16.1254 6.90836 16.2331 7.01609 16.2331 7.14837C16.2331 7.28065 16.1254 7.38837 15.9931 7.38837C14.3995 7.38837 9.64129 7.38837 8.05085 7.38837C7.91855 7.38837 7.81085 7.28065 7.81085 7.14837ZM8.50392 7.56398H15.5388V8.60475H15.1361V8.44086C15.1361 8.16104 14.9078 7.93275 14.628 7.93275C14.347 7.93275 14.1188 8.16104 14.1188 8.44086V8.60475H13.7605V8.44086C13.7605 8.16104 13.5322 7.93275 13.2512 7.93275C12.9714 7.93275 12.7431 8.16104 12.7431 8.44086V8.60475H11.3008V8.44086C11.3008 8.16104 11.0725 7.93275 10.7915 7.93275C10.5117 7.93275 10.2834 8.16104 10.2834 8.44086V8.60475H9.92519V8.44086C9.92519 8.16104 9.69689 7.93275 9.41592 7.93275C9.13612 7.93275 8.90782 8.16104 8.90782 8.44086V8.60475H8.50392V7.56398ZM14.9605 8.60475H14.2944V8.44086C14.2944 8.25705 14.4442 8.10836 14.628 8.10836C14.8106 8.10836 14.9605 8.25705 14.9605 8.44086V8.60475ZM13.5849 8.60475H12.9188V8.44086C12.9188 8.25705 13.0674 8.10836 13.2512 8.10836C13.435 8.10836 13.5849 8.25705 13.5849 8.44086V8.60475ZM11.1252 8.60475H10.459V8.44086C10.459 8.25705 10.6089 8.10836 10.7915 8.10836C10.9753 8.10836 11.1252 8.25705 11.1252 8.44086V8.60475ZM9.74958 8.60475H9.08343V8.44086C9.08343 8.25705 9.23212 8.10836 9.41592 8.10836C9.59972 8.10836 9.74958 8.25705 9.74958 8.44086V8.60475ZM8.02275 9.00399C8.02275 8.87989 8.12226 8.78036 8.24636 8.78036H15.7976C15.9217 8.78036 16.0212 8.87989 16.0212 9.00399C16.0212 9.12689 15.9217 9.22759 15.7976 9.22759C14.3948 9.22759 11.6971 9.22759 8.24636 9.22759C8.12226 9.22759 8.02275 9.12689 8.02275 9.00399ZM9.35874 9.4032V11.0937H8.50392V9.4032H9.35874ZM8.45123 11.2693H11.1006C10.8182 11.4671 10.494 11.7339 10.2272 12.0034H8.1445C8.16056 11.7385 8.26162 11.4488 8.45123 11.2693ZM4.93553 11.8617C4.93553 11.7576 5.01982 11.6732 5.12284 11.6732H8.02392C7.9888 11.7927 7.97007 11.9203 7.96772 12.0526C7.901 12.1146 7.84246 12.1895 7.79328 12.2727H4.93553V11.8617ZM4.43563 12.6367C4.43563 12.5326 4.51992 12.4483 4.62411 12.4483H4.84773H7.70665C7.64343 12.604 7.60831 12.7784 7.6048 12.9622C7.57553 12.988 7.5486 13.0172 7.52402 13.0477H4.43563V12.6367ZM3.93573 13.4118C3.93573 13.3076 4.02002 13.2233 4.12421 13.2233H4.34782H7.40577C7.31211 13.3966 7.25475 13.6026 7.24305 13.8227H3.93573V13.4118ZM3.01436 14.4092V14.1868C3.01436 14.0826 3.09865 13.9983 3.20168 13.9983H9.92519V14.4257H8.80012C8.669 14.4257 8.55543 14.4947 8.49104 14.5977C6.46568 14.5977 5.08762 14.5977 3.20168 14.5977C3.09865 14.5977 3.01436 14.5123 3.01436 14.4092ZM3.01436 16.7858V16.5634C3.01436 16.4592 3.09865 16.3749 3.20168 16.3749H3.26021H8.47231V16.9743C7.09764 16.9743 5.13193 16.9743 3.20168 16.9743C3.09865 16.9743 3.01436 16.8889 3.01436 16.7858ZM3.01436 20.4268C3.01436 20.3226 3.09865 20.2383 3.20168 20.2383H3.26021H8.47231V20.8377H3.01436V20.4268ZM2.20187 21.2018C2.20187 21.0976 2.28616 21.0133 2.39036 21.0133H10.4719V21.5379C9.65771 21.5379 4.39254 21.5379 2.20187 21.5379V21.2018ZM1.60948 21.9019C1.60948 21.7977 1.69377 21.7135 1.79797 21.7135H10.1219V22.2379H9.85963H1.60948V21.9019ZM1.01826 22.602C1.01826 22.4978 1.10256 22.4136 1.20675 22.4136H9.77182V22.938H1.01826V22.602Z" fill="black"/>
</svg>
