<svg width="150" height="150" viewBox="0 0 150 150" fill="none" xmlns="http://www.w3.org/2000/svg">
<g clip-path="url(#clip0_3416_5533)">
<path d="M62.5098 98.9897C65.5143 100.601 67.2359 100.29 69.5765 102.014C71.9171 103.738 74.8608 112.702 74.8608 112.702L74.3049 114.039L75.4301 116.467L76.4429 114.039L75.7677 112.702L76.6679 109.423C78.2073 105.111 80.0438 101.771 82.9694 100.196C85.8952 98.6206 87.6146 98.184 90.3962 96.4308C95.7525 92.3528 96.673 87.3071 95.6805 87.2036C94.1479 88.3289 87.6866 89.6139 86.1225 90.7257C81.6776 93.8922 79.965 96.7864 78.2456 102.75L76.3461 107.251L75.3334 113.566L74.3049 108.687L73.6297 105.939L72.7295 103.2C72.3047 101.63 71.7398 100.101 71.0416 98.6319C70.56 97.6146 69.9703 96.019 68.7911 94.5224C67.6706 93.1026 66.2972 91.9024 64.7401 90.9823C63.3898 90.1788 62.9397 90.4354 59.2308 89.1548C55.5961 87.9013 54.9412 87.1496 54.6217 87.4422C53.6202 88.3874 56.6021 95.8209 62.5098 98.9897Z" fill="url(#paint0_linear_3416_5533)"/>
<path d="M57.7756 63.3846C57.6495 63.3036 48.4493 58.681 48.3233 58.6067C47.7899 58.2759 47.2633 57.9631 46.7479 57.666C43.4509 55.7755 40.4464 54.4972 38.0631 52.9871C37.3436 52.5441 36.6589 52.0467 36.0151 51.4995C36.0151 51.5108 36.0151 51.5243 36.0151 51.5378C35.2702 54.7785 36.4967 58.5505 38.2971 61.1138C39.1138 62.3445 40.2349 63.343 41.5514 64.0125C43.955 65.2391 46.9977 65.5271 51.7171 67.7979C52.8086 68.3223 53.9879 68.9547 55.2752 69.7266C58.0864 71.396 60.6903 73.3918 63.0328 75.6726C64.3788 76.9864 65.6007 78.4216 66.6832 79.9598" fill="url(#paint1_linear_3416_5533)"/>
<path d="M57.7756 63.3846C57.6495 63.3036 48.4493 58.681 48.3233 58.6067C47.7899 58.2759 47.2633 57.9631 46.7479 57.666C43.4509 55.7755 40.4464 54.4972 38.0631 52.9871C37.3436 52.5441 36.6589 52.0467 36.0151 51.4995C36.0151 51.5108 36.0151 51.5243 36.0151 51.5378C35.2702 54.7785 36.4967 58.5505 38.2971 61.1138C39.1138 62.3445 40.2349 63.343 41.5514 64.0125C43.955 65.2391 46.9977 65.5271 51.7171 67.7979C52.8086 68.3223 53.9879 68.9547 55.2752 69.7266C58.0864 71.396 60.6903 73.3918 63.0328 75.6726C64.3788 76.9864 65.6007 78.4216 66.6832 79.9598" stroke="#1B67AF" stroke-width="0.0562635" stroke-miterlimit="10"/>
<path d="M70.4239 84.4918C70.5567 85.617 70.6197 86.731 70.7187 87.8541V87.8743C70.7525 88.2637 70.7885 88.6508 70.8245 89.0379C70.8875 89.6883 70.9145 90.3657 71.0315 91.0071C70.8065 89.7468 70.2393 88.3402 69.6654 86.7851C69.2964 85.7813 69.0916 84.8428 68.6865 84.0304C68.5514 83.56 68.1103 82.4685 67.1966 80.9899C66.2042 79.0913 65.1173 77.2435 63.9401 75.4536C63.6948 75.0845 63.445 74.7109 63.1884 74.3418C60.9379 71.0808 59.0744 68.3869 56.9589 65.9653C55.1566 63.8842 53.1241 62.014 50.9004 60.3907C49.4906 59.3616 48.0239 58.4126 46.5074 57.5483C42.1841 55.0727 38.3829 53.6414 35.7746 51.3818C34.4097 50.2372 33.3859 48.7392 32.8151 47.0518C32.6193 46.4847 31.305 42.4202 33.389 39.1299C35.6395 35.556 40.9081 34.5095 43.926 34.7436C56.0924 35.6978 64.0796 59.9654 68.3781 74.6209C68.3791 74.6291 68.3791 74.6374 68.3781 74.6457C68.6077 75.3958 68.8267 76.146 69.0353 76.8962C69.1883 77.4566 69.2964 78.0215 69.3976 78.6043C69.4134 78.7011 69.4291 78.7979 69.4471 78.8947C69.4569 78.9895 69.4734 79.0835 69.4967 79.176C69.5304 79.3605 69.5642 79.5451 69.5957 79.7296L70.03 82.0747C70.0998 82.4663 70.1718 82.8579 70.2416 83.2495C70.3113 83.6411 70.3744 84.0777 70.4239 84.4918Z" fill="url(#paint2_linear_3416_5533)"/>
<path d="M70.4096 84.4715C70.4523 84.8293 70.4883 85.1872 70.5131 85.545C70.5424 85.9524 70.5716 86.3575 70.6054 86.7648C70.7194 88.2052 70.8552 89.6117 71.0127 90.9846C70.7877 89.7243 70.2183 88.3199 69.6467 86.7648C69.2776 85.7633 69.0728 84.8226 68.6677 84.0124C68.2977 82.9427 67.7981 81.9224 67.1801 80.9742C66.1889 79.076 65.1028 77.229 63.9258 75.4401C63.6805 75.071 63.4307 74.6974 63.1763 74.3283C60.9258 71.0695 59.0669 68.3757 56.9514 65.9541C55.1514 63.8737 53.1212 62.0043 50.8997 60.3817C49.4913 59.3527 48.0261 58.4037 46.5111 57.5393C42.1946 55.0637 38.3957 53.6324 35.7918 51.3751C34.4267 50.232 33.4034 48.7345 32.8346 47.0473C32.6388 46.4802 31.3245 42.4179 33.4062 39.1276C35.6635 35.556 40.914 34.5095 43.923 34.7436C56.0759 35.6956 64.0563 59.9496 68.3526 74.6051C68.3535 74.6134 68.3535 74.6217 68.3526 74.6299C68.5161 75.2015 68.6819 75.7739 68.85 76.3471C69.1032 77.2605 69.3075 78.1868 69.4621 79.122C69.8042 80.8887 70.198 82.6733 70.4096 84.4715Z" stroke="#1B67AF" stroke-width="0.0562635" stroke-miterlimit="10"/>
<path d="M48.8024 75.7643C48.951 75.843 49.1378 75.9331 49.5068 76.1154C49.5068 76.1154 49.8197 76.2706 50.1257 76.4169C53.4678 78.0486 57.2037 79.5182 57.2037 79.5182C59.2562 80.3239 59.4115 80.3126 60.3342 80.7762C61.4701 81.3391 62.5449 82.0178 63.5412 82.8017C64.711 83.7592 65.7493 84.8671 66.6289 86.0965C67.4338 87.1905 68.1381 88.355 68.7332 89.5758C69.7392 91.5316 70.3086 93.1767 70.9837 95.0987C71.1323 95.5218 71.4068 96.3252 71.7264 97.3492C72.2553 99.0596 72.5681 100.324 72.7752 101.148C74.2403 107 74.5283 107.382 74.9582 109.975C75.3025 112.05 75.4263 113.65 75.3813 113.657C75.3363 113.663 75.0977 111.687 74.4248 109.063C74.1075 107.828 73.7879 106.813 73.3986 105.672C71.5981 100.385 70.7227 97.725 69.6514 96.2194C68.3506 94.392 66.1068 91.2345 62.6117 90.2577C62.4227 90.206 58.0319 88.9862 55.6351 87.8654L55.347 87.7281C54.1565 87.1217 53.0421 86.3761 52.0274 85.5069C49.2795 83.0178 47.8662 75.7103 48.3568 75.546C48.3726 75.528 48.3726 75.5437 48.8024 75.7643Z" fill="url(#paint3_linear_3416_5533)"/>
<path d="M48.8024 75.7643C48.951 75.843 49.1378 75.9331 49.5068 76.1154C49.5068 76.1154 49.8197 76.2706 50.1257 76.4169C53.4678 78.0486 57.2037 79.5182 57.2037 79.5182C59.2562 80.3239 59.4115 80.3126 60.3342 80.7762C61.4701 81.3391 62.5449 82.0178 63.5412 82.8017C64.711 83.7592 65.7493 84.8671 66.6289 86.0965C67.4338 87.1905 68.1381 88.355 68.7332 89.5758C69.7392 91.5316 70.3086 93.1767 70.9837 95.0987C71.1323 95.5218 71.4068 96.3252 71.7264 97.3492C72.2553 99.0596 72.5681 100.324 72.7752 101.148C74.2403 107 74.5283 107.382 74.9582 109.975C75.3025 112.05 75.4263 113.65 75.3813 113.657C75.3363 113.663 75.0977 111.687 74.4248 109.063C74.1075 107.828 73.7879 106.813 73.3986 105.672C71.5981 100.385 70.7227 97.725 69.6514 96.2194C68.3506 94.392 66.1068 91.2345 62.6117 90.2577C62.4227 90.206 58.0319 88.9862 55.6351 87.8654L55.347 87.7281C54.1565 87.1217 53.0421 86.3761 52.0274 85.5069C49.2795 83.0178 47.8662 75.7103 48.3568 75.546C48.3726 75.528 48.3726 75.5437 48.8024 75.7643Z" stroke="#1B67AF" stroke-width="0.0562635" stroke-miterlimit="10"/>
<path d="M73.5109 101.088C73.5266 101.196 73.5919 101.637 73.6864 102.249C73.7382 102.58 73.889 103.53 74.1185 104.79C74.1748 105.103 74.2333 105.414 74.2896 105.724C74.5011 107 74.6856 108.184 74.8409 109.226C75.21 111.702 75.4103 113.38 75.3968 113.639C75.3968 113.662 75.3968 113.673 75.3856 113.671C75.3504 113.58 75.3226 113.487 75.3023 113.392C75.2415 113.128 75.1448 112.694 75.012 112.077C75.0007 112.023 74.9895 111.969 74.9782 111.911V111.891C74.949 111.751 74.9175 111.603 74.8837 111.441C74.6766 110.471 74.4021 109.174 74.0487 107.54V107.511C74.0487 107.473 74.033 107.43 74.024 107.387C73.9587 107.081 73.889 106.764 73.8169 106.431C72.6624 101.165 72.1178 98.5224 71.805 97.5524C71.3999 96.2876 70.9588 94.9193 70.4366 93.5015C68.9175 89.4055 66.7097 85.0012 62.6925 82.1407C62.5642 82.0485 62.4315 81.9584 62.2987 81.8707C60.406 80.6059 59.0376 80.2368 56.2425 79.1273C54.4556 78.4161 52.0812 77.4011 48.6154 75.6547C48.3678 75.5264 48.118 75.4026 47.8727 75.2698L47.6994 75.1753L47.6252 75.1326L47.3776 74.993L47.1323 74.849L47.0085 74.7725L46.9297 74.723L46.8352 74.6622C46.6912 74.5677 46.5449 74.4664 46.4031 74.3606C46.2613 74.2548 46.0813 74.1176 45.917 73.9803C45.9049 73.969 45.8921 73.9585 45.8787 73.9488L45.8495 73.924L45.773 73.8565C45.7556 73.8433 45.7397 73.8282 45.7257 73.8115C45.6087 73.708 45.4489 73.5594 45.2756 73.3906L45.2013 73.3164C45.1788 73.2894 45.1518 73.2646 45.1293 73.2399C45.0393 73.1453 44.9515 73.0463 44.866 72.9473C44.8588 72.9408 44.8527 72.9332 44.848 72.9248C44.8096 72.8849 44.7735 72.8428 44.74 72.7987C43.9978 71.8774 43.3768 70.8646 42.8923 69.7853C42.8743 69.747 42.8585 69.7088 42.845 69.6773C42.8315 69.6457 42.8338 69.6457 42.827 69.6322L42.7843 69.531C42.7843 69.531 42.7662 69.4882 42.7505 69.4409C42.3943 68.5027 42.1275 67.5329 41.9538 66.5445C41.9065 66.1754 41.8615 65.7951 41.821 65.4192C41.776 64.9691 41.7378 64.519 41.7085 64.0869C42.0371 64.2354 42.5322 64.447 43.1398 64.6811C44.7377 65.291 45.746 65.5183 46.8262 65.8491C48.0709 66.2447 49.2881 66.7221 50.4698 67.2782C52.4847 68.1592 54.4335 69.1844 56.301 70.3457C57.8349 71.315 59.3046 72.3825 60.7008 73.5414C61.0541 73.8385 61.601 74.3044 62.3144 74.9638C64.3849 76.9015 66.2641 79.1003 67.6415 81.5894C68.8455 83.7701 69.6557 86.1287 70.3421 88.512C70.8215 90.1617 71.3053 91.8091 71.7577 93.4632C72.3203 95.5405 72.865 97.629 73.2813 99.7422C73.3623 100.192 73.4433 100.64 73.5109 101.088Z" fill="url(#paint4_linear_3416_5533)"/>
<path d="M73.5109 101.088C73.5266 101.196 73.5919 101.637 73.6864 102.249C73.7382 102.58 73.889 103.53 74.1185 104.79C74.1748 105.103 74.2333 105.414 74.2895 105.724C74.5011 107 74.6856 108.184 74.8409 109.226C75.21 111.702 75.4103 113.38 75.3968 113.639C75.3968 113.662 75.3968 113.673 75.3856 113.671C75.3504 113.58 75.3226 113.487 75.3023 113.392C75.2415 113.128 75.1448 112.694 75.012 112.077C75.0007 112.023 74.9895 111.969 74.9782 111.911V111.891C74.949 111.751 74.9175 111.603 74.8837 111.441C74.6766 110.471 74.4021 109.174 74.0487 107.54V107.511C74.0487 107.473 74.033 107.43 74.024 107.387C73.9587 107.081 73.889 106.764 73.8169 106.431C72.6624 101.165 72.1178 98.5224 71.805 97.5524C71.3999 96.2876 70.9588 94.9193 70.4366 93.5015C68.9175 89.4055 66.7097 85.0012 62.6925 82.1407C62.5642 82.0485 62.4315 81.9584 62.2987 81.8707C60.406 80.6059 59.0376 80.2368 56.2425 79.1273C54.4556 78.4161 52.0812 77.4011 48.6154 75.6547C48.3678 75.5264 48.118 75.4026 47.8727 75.2698L47.6994 75.1753L47.6252 75.1326L47.3776 74.993L47.1323 74.849L47.0085 74.7725L46.9297 74.723L46.8352 74.6622C46.6912 74.5677 46.5449 74.4664 46.4031 74.3606C46.2613 74.2548 46.0813 74.1176 45.917 73.9803C45.9049 73.969 45.8921 73.9585 45.8787 73.9488L45.8495 73.924L45.773 73.8565C45.7556 73.8433 45.7397 73.8282 45.7257 73.8115C45.6087 73.708 45.4489 73.5594 45.2756 73.3906L45.2013 73.3164C45.1788 73.2894 45.1518 73.2646 45.1293 73.2399C45.0393 73.1453 44.9515 73.0463 44.866 72.9473C44.8588 72.9408 44.8527 72.9332 44.848 72.9248C44.8096 72.8849 44.7735 72.8428 44.74 72.7988C43.9978 71.8774 43.3768 70.8646 42.8923 69.7853C42.8743 69.747 42.8585 69.7088 42.845 69.6773C42.8315 69.6457 42.8338 69.6457 42.827 69.6322L42.7843 69.531C42.7843 69.531 42.7662 69.4882 42.7505 69.4409C42.3943 68.5027 42.1275 67.5329 41.9538 66.5445C41.9065 66.1754 41.8615 65.7951 41.821 65.4192C41.776 64.9691 41.7378 64.519 41.7085 64.0869C42.0371 64.2354 42.5322 64.447 43.1398 64.6811C44.7377 65.291 45.746 65.5183 46.8262 65.8491C48.0709 66.2447 49.2881 66.7221 50.4698 67.2782C52.4847 68.1592 54.4335 69.1844 56.301 70.3457C57.8349 71.315 59.3046 72.3825 60.7008 73.5414C61.0541 73.8385 61.601 74.3044 62.3144 74.9638C64.0779 76.5979 65.6389 78.4378 66.964 80.4438C68.2131 82.3973 69.1381 84.6546 69.838 86.8601C70.3781 88.557 70.8755 90.2674 71.3548 91.9823C71.9242 94.0078 72.4689 96.0581 72.9302 98.1173C73.1508 99.1008 73.3646 100.091 73.5109 101.088Z" stroke="#1B67AF" stroke-width="0.0562635" stroke-miterlimit="10"/>
<path d="M90.9602 67.9979C94.6713 64.962 98.0651 61.082 99.0621 60.4676C99.5955 60.1391 103.615 57.5104 104.13 57.2134C107.427 55.3229 110.432 54.0423 112.815 52.5345C113.535 52.0914 114.219 51.5941 114.863 51.0469C114.863 51.0581 114.863 51.0716 114.863 51.0851C115.599 54.3259 114.364 58.0978 112.572 60.6612C111.755 61.8918 110.634 62.8904 109.318 63.5599C106.914 64.7864 103.869 65.0745 99.1521 67.3453C98.0606 67.8697 96.8813 68.5021 95.594 69.274C92.7829 70.9433 90.1789 72.9392 87.8364 75.2199C86.491 76.5302 85.2691 77.9616 84.186 79.4959" fill="url(#paint5_linear_3416_5533)"/>
<path d="M90.9602 67.9979C94.6713 64.962 98.0651 61.082 99.0621 60.4676C99.5955 60.1391 103.615 57.5104 104.13 57.2134C107.427 55.3229 110.432 54.0423 112.815 52.5345C113.535 52.0914 114.219 51.5941 114.863 51.0469C114.863 51.0581 114.863 51.0716 114.863 51.0851C115.599 54.3259 114.364 58.0978 112.572 60.6612C111.755 61.8918 110.634 62.8904 109.318 63.5599C106.914 64.7864 103.869 65.0745 99.1521 67.3453C98.0606 67.8697 96.8813 68.5021 95.594 69.274C92.7829 70.9433 90.1789 72.9392 87.8364 75.2199C86.491 76.5302 85.2691 77.9616 84.186 79.4959" stroke="#1B67AF" stroke-width="0.0562635" stroke-miterlimit="10"/>
<path d="M102.024 75.2809C101.875 75.3574 101.688 75.4475 101.319 75.6298L100.7 75.9336C97.3582 77.563 93.6223 79.0326 93.6223 79.0326C91.5676 79.8405 91.4123 79.827 90.4896 80.2906C89.353 80.8567 88.2782 81.5393 87.2826 82.3274C86.1122 83.2843 85.0739 84.3923 84.1948 85.6222C83.3895 86.7182 82.6852 87.885 82.0906 89.1082C81.0846 91.0662 80.5152 92.7204 79.84 94.6333C79.6915 95.0542 79.4169 95.8599 79.0974 96.8839C78.5685 98.5943 78.2557 99.8613 78.0486 100.683C76.5835 106.523 76.2954 106.919 75.8656 109.512C75.5212 111.587 75.3975 113.187 75.4425 113.194C75.4875 113.2 75.726 111.224 76.399 108.6C76.7163 107.365 77.0381 106.35 77.4275 105.206C79.2279 99.9221 80.1011 97.2619 81.1724 95.7541C82.4732 93.9266 84.717 90.7691 88.212 89.7924C88.4011 89.7406 92.7919 88.5186 95.1887 87.4001L95.4768 87.2606C96.6723 86.6461 97.7898 85.8905 98.8053 85.01C101.553 82.5187 102.969 75.2134 102.476 75.0469C102.453 75.0469 102.453 75.0626 102.024 75.2809Z" fill="url(#paint6_linear_3416_5533)"/>
<path d="M102.024 75.2809C101.875 75.3574 101.688 75.4475 101.319 75.6298L100.7 75.9336C97.3582 77.563 93.6223 79.0326 93.6223 79.0326C91.5676 79.8405 91.4123 79.827 90.4896 80.2906C89.353 80.8567 88.2782 81.5393 87.2826 82.3274C86.1122 83.2843 85.0739 84.3923 84.1948 85.6222C83.3895 86.7182 82.6852 87.885 82.0906 89.1082C81.0846 91.0662 80.5152 92.7204 79.84 94.6333C79.6915 95.0542 79.4169 95.8599 79.0974 96.8839C78.5685 98.5943 78.2557 99.8613 78.0486 100.683C76.5835 106.523 76.2954 106.919 75.8656 109.512C75.5212 111.587 75.3975 113.187 75.4425 113.194C75.4875 113.2 75.726 111.224 76.399 108.6C76.7163 107.365 77.0381 106.35 77.4275 105.206C79.2279 99.9221 80.1011 97.2619 81.1724 95.7541C82.4732 93.9266 84.717 90.7691 88.212 89.7924C88.4011 89.7406 92.7919 88.5186 95.1887 87.4001L95.4768 87.2606C96.6723 86.6461 97.7898 85.8905 98.8053 85.01C101.553 82.5187 102.969 75.2134 102.476 75.0469C102.453 75.0469 102.453 75.0626 102.024 75.2809Z" stroke="#1B67AF" stroke-width="0.0562635" stroke-miterlimit="10"/>
<path d="M80.4453 84.0572C80.3508 84.7324 80.2766 85.4076 80.2338 86.0715C80.137 87.5726 80.0087 89.076 79.8354 90.5726C80.0605 89.3123 80.6276 87.9057 81.2015 86.3505C81.5706 85.3491 81.7754 84.4083 82.1805 83.5959C82.5512 82.5261 83.0516 81.5058 83.6704 80.5577C84.6623 78.658 85.7491 76.8095 86.9269 75.0191C87.1722 74.65 87.422 74.2787 87.6786 73.9096C89.9291 70.6463 91.7926 67.9524 93.9081 65.5308C95.7095 63.4497 97.7403 61.5789 99.962 59.954C101.372 58.9249 102.839 57.9759 104.355 57.1115C108.678 54.6359 112.48 53.2046 115.088 50.9451C116.456 49.8024 117.483 48.3051 118.056 46.6173C118.252 46.0479 119.566 41.9834 117.482 38.6931C115.221 35.1193 109.963 34.0728 106.939 34.3091C94.7858 35.2611 86.7919 59.5286 82.4933 74.1841C82.4927 74.1924 82.4927 74.2006 82.4933 74.2089C82.3808 74.5915 82.2698 74.9741 82.1603 75.3567C82.0972 75.5435 82.05 75.7348 81.9937 75.9238C81.8857 76.2974 81.7687 76.6687 81.6876 77.0491C81.6066 77.4294 81.5459 77.7805 81.4806 78.1473C81.4153 78.5142 81.3388 78.9305 81.269 79.3244C81.1993 79.7182 81.1273 80.1076 81.0552 80.5014C80.9832 80.8952 80.9135 81.2846 80.8437 81.6784C80.6929 82.4616 80.5556 83.2561 80.4453 84.0572Z" fill="url(#paint7_linear_3416_5533)"/>
<path d="M80.4341 84.055C80.245 85.6056 80.182 87.172 80.029 88.7294C79.9705 89.337 79.9457 89.9694 79.8354 90.5703C80.0605 89.31 80.6276 87.9034 81.2015 86.3483C81.4581 85.6506 81.6404 84.9237 81.9104 84.2283C82.0252 83.9267 82.1625 83.6342 82.2705 83.3281C82.3335 83.148 82.4056 82.968 82.4821 82.7924C82.7161 82.2572 82.9791 81.7351 83.2698 81.2283C83.4003 81.0033 83.5578 80.7782 83.6794 80.5397C84.6713 78.64 85.7581 76.7915 86.9359 75.0011C87.1812 74.632 87.431 74.2607 87.6876 73.8916C89.9381 70.6283 91.8016 67.9344 93.9171 65.5128C95.7167 63.4385 97.7445 61.5738 99.962 59.954C101.372 58.9249 102.839 57.9759 104.355 57.1115C108.678 54.636 112.48 53.2046 115.088 50.9451C116.456 49.8024 117.483 48.3051 118.056 46.6173C118.252 46.0479 119.566 41.9834 117.482 38.6931C115.221 35.1193 109.963 34.0728 106.939 34.3091C94.7858 35.2611 86.7919 59.5286 82.4933 74.1841C82.4927 74.1924 82.4927 74.2007 82.4933 74.2089C82.3763 74.5847 82.2683 74.9628 82.1648 75.3342C82.0612 75.7055 81.9667 76.0948 81.8767 76.4752C81.7867 76.8555 81.6989 77.2336 81.6179 77.6162C81.5369 77.9988 81.4581 78.3791 81.3816 78.7617V78.7842C81.3051 79.1736 81.233 79.5607 81.1565 79.95C81.08 80.3394 81.0125 80.7287 80.9427 81.118L80.7537 82.1691C80.6321 82.806 80.5106 83.4248 80.4341 84.055Z" stroke="#1B67AF" stroke-width="0.0562635" stroke-miterlimit="10"/>
<path d="M77.3864 100.638C77.3706 100.746 77.3054 101.187 77.2109 101.799C77.1591 102.13 77.0083 103.08 76.7787 104.34C76.7225 104.655 76.664 104.966 76.6055 105.274C76.3962 106.552 76.2116 107.734 76.0563 108.776C75.6872 111.251 75.4554 113.333 75.4689 113.592C75.4689 113.614 75.5072 113.225 75.5117 113.223C75.5117 113.223 75.4622 113.605 75.4644 113.599C75.4667 113.592 75.559 113.085 75.5972 112.935C75.658 112.671 75.7548 112.237 75.8875 111.62C75.8875 111.566 75.91 111.515 75.9213 111.456V111.434C75.9505 111.294 75.9821 111.148 76.0158 110.983C76.2229 110.011 76.4974 108.717 76.8508 107.081V107.052C76.8508 107.014 76.8665 106.973 76.8755 106.928C76.9408 106.622 77.0106 106.305 77.0826 105.972C78.2371 100.705 78.7817 98.0654 79.0946 97.0932C79.4996 95.8306 79.9385 94.46 80.4629 93.0422C81.982 88.944 84.1898 84.5396 88.207 81.6815C88.3353 81.5892 88.468 81.4992 88.6008 81.4091C90.4935 80.1443 91.8619 79.7753 94.657 78.6657C96.444 77.9546 98.8183 76.9396 102.284 75.1932C102.532 75.0671 102.781 74.9433 103.027 74.8083L103.2 74.7138C103.226 74.7016 103.25 74.6881 103.274 74.6733L103.522 74.5315C103.603 74.4865 103.686 74.437 103.767 74.3875C103.808 74.365 103.85 74.338 103.891 74.3109L103.97 74.2614L104.064 74.2007C104.208 74.1061 104.355 74.0049 104.496 73.9013C104.638 73.7978 104.818 73.6583 104.983 73.5188L105.021 73.4872L105.05 73.4625L105.127 73.395C105.144 73.3826 105.16 73.3682 105.174 73.3522C105.291 73.2464 105.451 73.0979 105.624 72.9291C105.649 72.9044 105.671 72.8773 105.696 72.8548C105.721 72.8323 105.745 72.8053 105.768 72.7783C105.86 72.6838 105.948 72.587 106.034 72.4858L106.052 72.4655C106.09 72.4227 106.126 72.3822 106.16 72.3372C106.902 71.4162 107.523 70.4034 108.007 69.3237L108.054 69.218C108.054 69.2 108.066 69.1842 108.072 69.1707L108.115 69.0694C108.115 69.0694 108.133 69.0267 108.149 68.9817C108.511 68.0448 108.784 67.0757 108.964 66.0875C109.009 65.7184 109.054 65.338 109.094 64.9622C109.141 64.5121 109.18 64.062 109.209 63.6299C108.88 63.7784 108.385 63.99 107.778 64.224C106.18 64.8362 105.172 65.0612 104.091 65.3921C102.84 65.79 101.616 66.2696 100.427 66.8279C98.4168 67.7111 96.4718 68.737 94.6075 69.8976C93.0729 70.8668 91.6032 71.9351 90.2077 73.0957C89.8544 73.3905 89.3075 73.8586 88.5941 74.5157C86.5686 76.4084 84.7119 78.5532 83.3323 80.9658C83.2963 81.0288 83.2603 81.0918 83.2265 81.1548C82.0383 83.2771 81.3158 85.6154 80.6092 87.9312C80.051 89.7601 79.5259 91.5988 79.0338 93.4473C78.4734 95.538 77.9265 97.64 77.5372 99.769C77.4787 100.057 77.4292 100.347 77.3864 100.638Z" fill="url(#paint8_linear_3416_5533)"/>
<path d="M75.4327 113.598C75.4192 113.339 75.6577 111.255 76.0201 108.782C76.1753 107.74 76.3599 106.558 76.5714 105.28C76.63 104.972 76.6862 104.661 76.7425 104.346C76.9675 103.086 77.1228 102.136 77.1746 101.805C77.2691 101.193 77.3344 100.752 77.3501 100.644C77.6784 98.6591 78.1119 96.6931 78.6487 94.7543C79.2038 92.6073 79.804 90.4715 80.4491 88.347C81.2863 85.5428 82.2361 82.7386 83.7709 80.2315C85.09 78.1468 86.6792 76.2459 88.4971 74.5782L88.5601 74.5197C89.2645 73.8625 89.8204 73.3944 90.1737 73.0996C91.5692 71.939 93.0389 70.8708 94.5735 69.9016C96.4377 68.7394 98.3826 67.712 100.393 66.8273C101.582 66.2667 102.806 65.7848 104.057 65.3847C105.138 65.0539 106.146 64.8288 107.744 64.2167C108.351 63.9916 108.846 63.7666 109.175 63.6226C109.146 64.0547 109.107 64.5003 109.062 64.9549C109.022 65.3397 108.977 65.7201 108.93 66.0801C108.756 67.0693 108.489 68.0399 108.133 68.9788C108.117 69.0239 108.099 69.0666 108.099 69.0666L108.056 69.1679C108.056 69.1679 108.045 69.1971 108.038 69.2151L107.991 69.3209C107.507 70.4005 106.886 71.4134 106.144 72.3344C106.11 72.3794 106.074 72.4199 106.036 72.4627L106.018 72.4829C105.932 72.5842 105.844 72.681 105.754 72.7755C105.732 72.8025 105.705 72.8273 105.682 72.852C105.66 72.8768 105.633 72.9015 105.608 72.9263C105.437 73.0951 105.277 73.2436 105.158 73.3494C105.144 73.3654 105.128 73.3797 105.111 73.3922L105.034 73.4597L105.005 73.4844L104.964 73.5182C104.802 73.6555 104.642 73.7815 104.48 73.8985C104.318 74.0155 104.192 74.1033 104.048 74.1978L103.954 74.2586L103.875 74.3081C103.834 74.3351 103.792 74.3621 103.751 74.3846C103.67 74.4342 103.587 74.4837 103.506 74.5287L103.258 74.6705C103.234 74.6853 103.21 74.6988 103.184 74.711L103.011 74.8055C102.765 74.9405 102.516 75.0643 102.268 75.1903C98.8023 76.9368 96.4167 77.9517 94.641 78.6629C91.8459 79.7724 90.4775 80.1415 88.5848 81.4063C88.452 81.4963 88.3193 81.5864 88.191 81.6786C84.1738 84.5368 81.966 88.9411 80.4446 93.0439C79.9247 94.4527 79.4836 95.8233 79.0786 97.0948C78.7657 98.0671 78.2211 100.707 77.0666 105.973C76.9946 106.306 76.9248 106.624 76.8595 106.934C76.8595 106.975 76.8415 107.015 76.8348 107.053V107.083C76.4814 108.719 76.2069 110.008 75.9998 110.985C75.966 111.14 75.9345 111.287 75.9053 111.435V111.458C75.9053 111.516 75.8828 111.568 75.8715 111.622C75.7388 112.239 75.6465 112.673 75.5812 112.936C75.5272 113.085 75.4507 113.564 75.4327 113.598ZM75.4327 113.598C75.4327 113.621 75.4709 113.231 75.4732 113.231C75.4732 113.231 75.4327 113.605 75.4327 113.598Z" stroke="#1B67AF" stroke-width="0.0562635" stroke-miterlimit="10"/>
<path d="M65.3638 126.702C65.3796 126.772 65.3796 126.844 65.3638 126.914L65.2187 127.115L65.0401 127.294L64.8392 127.461C64.6464 127.634 64.4371 127.787 64.2142 127.919C63.9815 128.055 63.739 128.175 63.4887 128.276C63.2425 128.374 62.9887 128.453 62.7298 128.51C62.4992 128.565 62.2635 128.595 62.0267 128.599C61.8596 128.614 61.6915 128.614 61.5244 128.599C61.3327 128.568 61.1428 128.527 60.9552 128.477L60.4083 128.298C60.2486 128.239 60.0953 128.165 59.9507 128.075C59.9507 128.075 59.8838 128.209 59.8168 128.354C59.7498 128.499 59.6717 128.678 59.5713 128.901L59.2364 129.671C59.1025 129.961 58.9686 130.262 58.8346 130.586C58.5445 131.222 58.2766 131.814 58.0088 132.338L57.2945 133.745C57.2089 133.921 57.108 134.089 56.9931 134.247C56.9113 134.357 56.8178 134.458 56.7141 134.548C56.6521 134.616 56.5759 134.669 56.4909 134.704C56.4284 134.719 56.3636 134.719 56.3011 134.704C56.1742 134.7 56.0508 134.662 55.944 134.593C55.797 134.492 55.6718 134.363 55.5757 134.213C55.5805 134.15 55.5805 134.087 55.5757 134.024C55.5812 133.972 55.5812 133.919 55.5757 133.867C55.5533 133.485 55.4704 133.108 55.3301 132.751C55.1238 132.142 54.8815 131.546 54.6047 130.966C54.4373 130.631 54.281 130.274 54.1248 129.905C53.9685 129.537 53.8346 129.169 53.723 128.789C53.6114 128.41 53.5109 128.108 53.4328 127.807C53.3717 127.543 53.3381 127.274 53.3323 127.003C53.3163 126.84 53.3163 126.676 53.3323 126.512C53.3714 126.346 53.4314 126.184 53.5109 126.032C53.5821 125.892 53.6808 125.766 53.8011 125.664C53.9239 125.574 54.073 125.527 54.2252 125.53C54.3336 125.527 54.4417 125.545 54.5432 125.583C54.6447 125.621 54.7376 125.679 54.8167 125.753C54.8934 125.833 54.9528 125.928 54.9912 126.031C55.0296 126.135 55.0462 126.246 55.04 126.356C55.0507 126.445 55.0507 126.535 55.04 126.624C55.0278 126.718 55.0092 126.811 54.9841 126.903L54.9172 127.193C54.9117 127.282 54.9117 127.372 54.9172 127.461C54.9172 127.55 54.9172 127.684 54.9172 127.874C54.9172 128.064 54.973 128.253 55.0176 128.488C55.0623 128.722 55.1181 128.945 55.1962 129.202C55.2743 129.459 55.3636 129.693 55.4641 129.939C55.5645 130.184 55.6761 130.408 55.7877 130.698L56.1114 131.512L56.4016 132.182C56.4909 132.361 56.5467 132.45 56.5913 132.45C56.636 132.45 56.6694 132.394 56.7364 132.283C56.8318 132.132 56.9175 131.975 56.9931 131.814C57.0824 131.613 57.194 131.39 57.2945 131.144C57.3949 130.899 57.5288 130.631 57.6404 130.363L57.9641 129.559L58.2431 128.823L58.444 128.287C58.5222 128.108 58.5891 127.93 58.6449 127.762C58.7007 127.595 58.79 127.439 58.8458 127.294C58.9016 127.149 58.9797 127.015 59.0355 126.903C59.11 126.757 59.2217 126.634 59.3592 126.546C59.4893 126.464 59.6405 126.421 59.7945 126.423C59.8764 126.419 59.9578 126.438 60.0289 126.479C60.1032 126.513 60.1742 126.554 60.2409 126.602L60.4307 126.758C60.4922 126.81 60.5596 126.855 60.6315 126.892L60.8548 127.026L61.2119 127.193L61.6249 127.338C61.7621 127.353 61.9006 127.353 62.0378 127.338C62.2607 127.357 62.4846 127.357 62.7075 127.338C62.9084 127.338 63.0981 127.249 63.2767 127.204C63.4552 127.16 63.6115 127.082 63.7677 127.003L64.2365 126.803L64.7722 126.579C64.8921 126.528 65.0212 126.501 65.1517 126.501C65.2968 126.546 65.3638 126.602 65.3638 126.702ZM67.9419 126.702C67.9341 126.629 67.9072 126.56 67.8638 126.501C67.8258 126.421 67.7727 126.349 67.7075 126.289C67.6381 126.224 67.5635 126.164 67.4843 126.111C67.4169 126.069 67.34 126.046 67.2611 126.044C67.0862 126.044 66.9126 126.074 66.7477 126.133C66.5962 126.191 66.4535 126.27 66.3236 126.367C66.1887 126.452 66.0649 126.553 65.9553 126.669C65.8484 126.782 65.7478 126.901 65.6539 127.026C65.4118 127.343 65.1953 127.679 65.0066 128.03C64.7851 128.427 64.5876 128.837 64.4151 129.258C64.2514 129.682 64.1063 130.106 63.9798 130.53C63.8759 130.894 63.8197 131.269 63.8124 131.646C63.8141 131.73 63.8352 131.811 63.8739 131.885C63.9127 131.958 63.968 132.022 64.0356 132.071C64.2035 132.194 64.408 132.256 64.616 132.249C64.7974 132.232 64.9709 132.166 65.1182 132.059C65.333 131.909 65.5346 131.741 65.7209 131.557C65.9463 131.335 66.1552 131.096 66.3459 130.843C66.5534 130.583 66.74 130.306 66.9039 130.017C67.1882 129.5 67.4344 128.963 67.6406 128.41C67.8394 127.874 67.9415 127.307 67.9419 126.736V126.702ZM75.0179 126.289C74.9906 126.441 74.9495 126.591 74.8951 126.736C74.8058 126.981 74.6831 127.271 74.5268 127.617C74.3706 127.963 74.1697 128.343 73.9353 128.733C73.7101 129.148 73.4565 129.547 73.1763 129.928C72.854 130.371 72.5075 130.795 72.1384 131.2C71.8316 131.523 71.5035 131.825 71.1563 132.104C70.8895 132.312 70.6014 132.492 70.2969 132.64C70.0856 132.748 69.8533 132.809 69.616 132.818C69.3528 132.828 69.0904 132.783 68.8459 132.684C68.6497 132.591 68.4806 132.449 68.3549 132.271C68.214 132.051 68.1085 131.81 68.0424 131.557C67.9642 131.267 67.8861 130.932 67.8191 130.541H67.6964C67.4508 130.921 67.183 131.289 66.8928 131.658C66.6178 132.012 66.3155 132.344 65.9888 132.651C65.7017 132.922 65.3832 133.158 65.0401 133.354C64.7449 133.527 64.411 133.623 64.0691 133.633C63.8872 133.629 63.7068 133.599 63.5334 133.544C63.346 133.474 63.1723 133.372 63.02 133.242C62.8606 133.096 62.7283 132.922 62.6293 132.729C62.522 132.491 62.4686 132.231 62.4731 131.97C62.4771 131.67 62.5107 131.371 62.5735 131.077C62.6353 130.726 62.7211 130.379 62.8302 130.039C62.9418 129.671 63.0646 129.303 63.2097 128.923C63.3548 128.544 63.4999 128.209 63.6561 127.874C63.8124 127.539 63.9798 127.249 64.1472 126.981C64.2838 126.752 64.4407 126.535 64.616 126.334C64.8075 126.13 65.0125 125.94 65.2298 125.765C65.7285 125.347 66.3051 125.032 66.9263 124.838C67.2587 124.735 67.6049 124.682 67.9531 124.682C68.0781 124.674 68.2031 124.696 68.3177 124.747C68.4323 124.797 68.5331 124.875 68.6116 124.972C68.7824 125.233 68.886 125.532 68.9129 125.843C68.924 125.887 68.9429 125.928 68.9687 125.966C69.0156 126.013 69.0568 126.065 69.0915 126.122C69.1425 126.178 69.184 126.242 69.2143 126.311C69.2479 126.365 69.2671 126.427 69.2701 126.49C69.2646 126.611 69.2459 126.731 69.2143 126.847L69.0692 127.316C69.0245 127.48 68.9799 127.669 68.9352 127.885C68.899 128.095 68.8804 128.308 68.8794 128.521C68.8794 128.823 68.8794 129.158 68.8794 129.503C68.8788 129.826 68.9087 130.147 68.9687 130.463C69.0218 130.722 69.1241 130.968 69.2701 131.189C69.3438 131.286 69.4405 131.364 69.5515 131.414C69.6626 131.465 69.7844 131.487 69.9062 131.479C70.0815 131.466 70.2506 131.408 70.3973 131.312C70.628 131.164 70.8447 130.996 71.0446 130.809C71.3038 130.57 71.5497 130.317 71.7813 130.05C72.0654 129.741 72.3336 129.416 72.5848 129.079C72.8813 128.693 73.157 128.29 73.4108 127.874L74.0134 126.758C74.192 126.445 74.3371 126.189 74.4599 126.01C74.5826 125.832 74.6831 125.709 74.7724 125.709C74.8088 125.708 74.8448 125.716 74.8778 125.731C74.9107 125.747 74.9396 125.769 74.9621 125.798C74.9811 125.867 74.9811 125.941 74.9621 126.01V126.088C74.9864 126.122 75.0039 126.16 75.0135 126.2C75.0231 126.24 75.0246 126.282 75.0179 126.323V126.289ZM83.6564 132.283C83.6574 132.402 83.6224 132.518 83.556 132.617C83.4867 132.722 83.3952 132.809 83.2881 132.874C83.1784 132.943 83.0575 132.992 82.931 133.019C82.8086 133.06 82.6803 133.078 82.5515 133.075C82.1921 133.067 81.8355 133.011 81.4912 132.908C81.1006 132.796 80.6988 132.64 80.2747 132.472C79.8506 132.305 79.4376 132.082 79.0135 131.87L77.8304 131.267L76.8483 130.731C76.6459 130.616 76.4372 130.511 76.2233 130.419C76.0892 130.509 75.9623 130.61 75.8438 130.72L75.442 131.144C75.316 131.292 75.2004 131.449 75.096 131.613C75.0239 131.72 74.9675 131.836 74.9286 131.959C74.9451 132.115 74.9451 132.272 74.9286 132.428C74.918 132.565 74.918 132.703 74.9286 132.841C74.9306 133.035 74.9119 133.23 74.8728 133.421C74.8408 133.555 74.7799 133.681 74.6942 133.789C74.6141 133.878 74.5091 133.94 74.3929 133.968C74.251 134.006 74.1046 134.024 73.9576 134.024C73.883 134.033 73.8073 134.023 73.7372 133.996C73.6671 133.969 73.6048 133.924 73.5558 133.867C73.4969 133.707 73.4703 133.536 73.4777 133.365C73.4777 133.175 73.4777 132.908 73.5335 132.562C73.5893 132.216 73.6228 131.825 73.6898 131.39C73.7567 130.954 73.8237 130.463 73.9018 129.95C73.98 129.437 74.0581 128.834 74.1362 128.332C74.2143 127.829 74.2813 127.216 74.3483 126.646C74.4152 126.077 74.4822 125.53 74.5157 124.994C74.5157 124.853 74.5157 124.663 74.5157 124.425C74.5157 124.191 74.5157 123.934 74.5157 123.678C74.5157 123.421 74.5157 123.131 74.5157 122.863C74.5157 122.595 74.5157 122.316 74.5715 122.059C74.6273 121.803 74.5715 121.579 74.6273 121.378C74.6831 121.177 74.6273 121.021 74.6942 120.898C74.6966 120.794 74.7317 120.692 74.7947 120.608C74.8611 120.516 74.9399 120.433 75.0291 120.363C75.1202 120.289 75.2217 120.229 75.3304 120.184C75.4328 120.141 75.5428 120.118 75.6541 120.117C75.7511 120.117 75.8468 120.14 75.9331 120.184C76.0299 120.227 76.1201 120.283 76.201 120.352C76.2727 120.411 76.3331 120.483 76.3795 120.564C76.4212 120.623 76.448 120.692 76.4576 120.765C76.4493 121.094 76.4195 121.422 76.3684 121.747C76.3126 122.148 76.2456 122.595 76.1563 123.108C76.067 123.622 75.9666 124.146 75.855 124.738C75.7434 125.329 75.6429 125.91 75.5425 126.524C75.442 127.137 75.3304 127.751 75.2411 128.365C75.1518 128.979 75.0849 129.593 75.0291 130.162C75.5392 129.725 76.0237 129.26 76.48 128.767C76.9153 128.287 77.317 127.829 77.6742 127.383C78.0313 126.936 78.3662 126.524 78.6787 126.133C78.9912 125.742 79.2702 125.396 79.5381 125.106C79.7683 124.848 80.0266 124.616 80.3082 124.414C80.517 124.254 80.7708 124.165 81.0336 124.157C81.1167 124.156 81.1984 124.179 81.268 124.224C81.3335 124.26 81.3906 124.31 81.4354 124.369C81.4796 124.426 81.5136 124.491 81.5359 124.559C81.5454 124.618 81.5454 124.679 81.5359 124.738C81.5101 124.868 81.4482 124.988 81.3573 125.084C81.2221 125.284 81.0729 125.474 80.9109 125.653L80.2524 126.367C80.0068 126.635 79.7501 126.892 79.4934 127.16L78.7233 127.941L78.0313 128.622L77.4956 129.124L77.2166 129.381L77.9979 129.827L79.1139 130.363L80.3193 130.921L81.4354 131.423L82.4287 131.791C82.641 131.872 82.862 131.929 83.0872 131.959C83.2211 131.963 83.3516 132.002 83.4667 132.071C83.5228 132.081 83.573 132.112 83.608 132.157C83.6429 132.203 83.6602 132.259 83.6564 132.316V132.283ZM92.853 125.977C92.8592 126.047 92.8592 126.118 92.853 126.189C92.8392 126.298 92.8168 126.406 92.786 126.512C92.786 126.624 92.7302 126.736 92.6967 126.847C92.6617 126.938 92.6318 127.032 92.6074 127.126L92.3842 127.684C92.3061 127.919 92.2168 128.164 92.1163 128.432C92.0159 128.7 91.9266 128.979 91.815 129.269L91.536 130.207L91.2793 130.999C91.2011 131.245 91.1454 131.457 91.0896 131.646L90.8887 132.305C90.8105 132.562 90.7324 132.841 90.632 133.131C90.5315 133.421 90.4422 133.733 90.3418 134.057C90.2413 134.381 90.1521 134.693 90.0516 135.017C89.9512 135.341 89.8619 135.642 89.7614 135.943L89.5159 136.78C89.5159 136.948 89.4266 137.126 89.382 137.327C89.3484 137.518 89.296 137.705 89.2257 137.885C89.1665 138.046 89.071 138.191 88.9467 138.309C88.7971 138.435 88.6057 138.498 88.411 138.488C88.3225 138.491 88.2356 138.464 88.1654 138.41C88.0861 138.366 88.0174 138.305 87.9645 138.231C87.9144 138.158 87.8732 138.08 87.8417 137.997C87.8309 137.912 87.8309 137.825 87.8417 137.74C87.8448 137.562 87.8749 137.385 87.931 137.216C87.998 137.004 88.0873 136.769 88.1877 136.513L88.5002 135.687C88.6118 135.396 88.7235 135.106 88.8239 134.827C88.9244 134.548 89.1029 133.957 89.2369 133.566C89.3708 133.175 89.4936 132.818 89.594 132.517C89.6945 132.216 89.7726 131.948 89.8284 131.747C89.8745 131.628 89.9082 131.504 89.9288 131.379C89.935 131.33 89.935 131.282 89.9288 131.233C89.9179 131.217 89.903 131.203 89.8855 131.193C89.868 131.183 89.8484 131.178 89.8284 131.178C89.7321 131.204 89.6439 131.254 89.5717 131.323L89.0583 131.658L88.3886 132.093C88.1396 132.251 87.8825 132.396 87.6185 132.528C87.3677 132.664 87.1065 132.78 86.8373 132.874C86.601 132.96 86.352 133.005 86.1007 133.008C85.771 133.012 85.4441 132.947 85.1408 132.818C84.8822 132.702 84.6447 132.543 84.4377 132.35C84.2608 132.163 84.1173 131.948 84.0136 131.713C83.9187 131.499 83.8693 131.267 83.8685 131.033C83.8551 130.817 83.8551 130.601 83.8685 130.385C83.8685 130.117 83.9577 129.827 84.0247 129.526C84.0917 129.224 84.1698 128.912 84.2703 128.588C84.3707 128.265 84.46 127.941 84.5604 127.651C84.6609 127.361 84.7725 127.07 84.8841 126.803C84.983 126.578 85.0986 126.362 85.2301 126.155C85.3436 125.966 85.4912 125.8 85.6654 125.664C85.773 125.576 85.906 125.525 86.0448 125.519C86.1423 125.514 86.2391 125.538 86.3238 125.586C86.3952 125.624 86.4536 125.682 86.4913 125.753C86.5437 125.825 86.5747 125.91 86.5806 125.999C86.5915 126.099 86.5915 126.2 86.5806 126.3C86.555 126.448 86.506 126.592 86.4355 126.724L86.1007 127.439C85.9667 127.718 85.8328 128.03 85.6877 128.376C85.5483 128.741 85.4291 129.114 85.3306 129.492C85.2693 129.696 85.2282 129.906 85.2078 130.117C85.1974 130.322 85.1974 130.527 85.2078 130.731C85.2021 130.882 85.2452 131.031 85.3306 131.155C85.4195 131.268 85.5294 131.363 85.6542 131.434C85.7661 131.499 85.8862 131.548 86.0113 131.579H86.3238C86.5827 131.579 86.8395 131.534 87.0828 131.445C87.3364 131.348 87.5826 131.233 87.8194 131.099C88.0617 130.968 88.2964 130.822 88.5225 130.664C88.7569 130.508 88.9802 130.363 89.2034 130.24C89.4165 130.107 89.6215 129.962 89.8172 129.805C90.022 129.634 90.2056 129.439 90.3641 129.224C90.4592 129.064 90.5413 128.896 90.6096 128.722C90.6989 128.466 90.7994 128.198 90.8887 127.885C90.978 127.573 91.0896 127.26 91.19 126.937C91.2905 126.613 91.3797 126.311 91.4467 126.055C91.5116 125.8 91.6337 125.563 91.8038 125.363C91.9065 125.237 92.055 125.156 92.2168 125.14C92.3455 125.134 92.473 125.165 92.5851 125.229C92.6696 125.272 92.7365 125.343 92.7748 125.43C92.8227 125.516 92.8531 125.611 92.8641 125.709C92.8652 125.809 92.8615 125.91 92.853 126.01V125.977Z" fill="black"/>
<path d="M40.8502 121.113C40.8678 120.531 40.6611 119.964 40.2729 119.53C40.0736 119.337 39.8372 119.186 39.5778 119.087C39.3185 118.987 39.0417 118.942 38.7642 118.953C38.4426 118.924 38.1189 118.979 37.825 119.113C37.5311 119.247 37.2771 119.455 37.0879 119.716C36.7667 120.284 36.6057 120.927 36.6222 121.579C36.6361 122.215 36.7557 122.845 36.9761 123.442C37.2066 124.173 37.5125 124.878 37.8888 125.546C38.2082 126.129 38.6027 126.668 39.0622 127.148L39.5837 126.962C39.2057 126.288 38.8998 125.576 38.6711 124.838C38.4087 124.103 38.2763 123.328 38.2799 122.548V122.454C38.3713 122.593 38.5106 122.692 38.6711 122.734H39.1367C39.3624 122.734 39.5855 122.686 39.7911 122.593C39.9967 122.5 40.18 122.363 40.3287 122.194C40.6169 121.901 40.8003 121.521 40.8502 121.113ZM45.8791 121.113C45.8928 120.824 45.8488 120.536 45.7497 120.264C45.6505 119.992 45.4983 119.743 45.3017 119.53C45.1025 119.337 44.8661 119.186 44.6067 119.087C44.3474 118.987 44.0705 118.942 43.7931 118.953C43.4714 118.924 43.1478 118.979 42.8539 119.113C42.56 119.247 42.306 119.455 42.1168 119.716C41.7956 120.284 41.6346 120.927 41.6511 121.579C41.665 122.215 41.7846 122.845 42.005 123.442C42.2435 124.17 42.549 124.874 42.9177 125.546C43.2434 126.125 43.6373 126.663 44.0911 127.148L44.6312 126.962C44.2388 126.293 43.9262 125.58 43.6999 124.838C43.4376 124.103 43.3052 123.328 43.3088 122.548V122.454C43.4037 122.589 43.5416 122.688 43.6999 122.734H44.1842C44.4093 122.731 44.6314 122.681 44.8365 122.588C45.0416 122.495 45.2253 122.361 45.3762 122.194C45.6576 121.898 45.8343 121.519 45.8791 121.113Z" fill="black"/>
<path d="M109.507 121.113C109.493 120.824 109.537 120.536 109.636 120.264C109.735 119.992 109.888 119.743 110.084 119.53C110.283 119.337 110.52 119.186 110.779 119.087C111.039 118.987 111.315 118.942 111.593 118.953C111.915 118.924 112.238 118.979 112.532 119.113C112.826 119.247 113.08 119.455 113.269 119.716C113.59 120.284 113.751 120.928 113.735 121.579C113.721 122.215 113.601 122.845 113.381 123.442C113.143 124.17 112.837 124.875 112.468 125.547C112.136 126.121 111.743 126.659 111.295 127.148L110.755 126.962C111.147 126.293 111.46 125.581 111.686 124.839C111.948 124.104 112.081 123.328 112.077 122.548V122.455C111.978 122.586 111.842 122.683 111.686 122.734H111.202C110.977 122.731 110.755 122.681 110.549 122.588C110.344 122.495 110.161 122.361 110.01 122.194C109.728 121.899 109.552 121.519 109.507 121.113ZM104.478 121.113C104.453 120.533 104.653 119.966 105.036 119.53C105.24 119.338 105.48 119.188 105.742 119.089C106.005 118.99 106.284 118.944 106.564 118.953C106.885 118.924 107.209 118.979 107.503 119.113C107.797 119.247 108.051 119.455 108.24 119.716C108.561 120.284 108.722 120.928 108.706 121.579C108.692 122.215 108.572 122.845 108.352 123.442C108.115 124.174 107.803 124.879 107.421 125.547C107.101 126.125 106.713 126.662 106.266 127.148L105.726 126.962C106.11 126.289 106.423 125.578 106.657 124.839C106.919 124.104 107.052 123.328 107.048 122.548V122.455C106.949 122.586 106.813 122.683 106.657 122.734H106.173C105.947 122.732 105.725 122.683 105.52 122.59C105.314 122.497 105.131 122.362 104.981 122.194C104.699 121.899 104.522 121.519 104.478 121.113Z" fill="black"/>
</g>
<defs>
<linearGradient id="paint0_linear_3416_5533" x1="71.8113" y1="114.309" x2="74.863" y2="90.854" gradientUnits="userSpaceOnUse">
<stop offset="0.07"/>
<stop offset="0.27" stop-color="#2897FF"/>
<stop offset="0.45" stop-color="#2897FF"/>
<stop offset="0.6" stop-color="#258BEC"/>
<stop offset="0.77" stop-color="#207ACE"/>
<stop offset="1" stop-color="#185A99"/>
</linearGradient>
<linearGradient id="paint1_linear_3416_5533" x1="55.8806" y1="84.0761" x2="46.5566" y2="50.8649" gradientUnits="userSpaceOnUse">
<stop offset="0.01" stop-color="#2897FF"/>
<stop offset="0.18" stop-color="#2897FF"/>
<stop offset="0.39" stop-color="#2897FF"/>
<stop offset="0.5" stop-color="#258BEC"/>
<stop offset="0.68" stop-color="#207ACE"/>
<stop offset="1" stop-color="#185A99"/>
</linearGradient>
<linearGradient id="paint2_linear_3416_5533" x1="66.6677" y1="95.0783" x2="40.4602" y2="35.7766" gradientUnits="userSpaceOnUse">
<stop offset="0.01" stop-color="#2897FF"/>
<stop offset="0.18" stop-color="#2897FF"/>
<stop offset="0.39" stop-color="#2897FF"/>
<stop offset="0.5" stop-color="#258BEC"/>
<stop offset="0.68" stop-color="#207ACE"/>
<stop offset="1" stop-color="#185A99"/>
</linearGradient>
<linearGradient id="paint3_linear_3416_5533" x1="69.2733" y1="101.51" x2="53.1212" y2="76.2346" gradientUnits="userSpaceOnUse">
<stop offset="0.01" stop-color="#2897FF"/>
<stop offset="0.18" stop-color="#2897FF"/>
<stop offset="0.39" stop-color="#2897FF"/>
<stop offset="0.5" stop-color="#258BEC"/>
<stop offset="0.68" stop-color="#207ACE"/>
<stop offset="1" stop-color="#185A99"/>
</linearGradient>
<linearGradient id="paint4_linear_3416_5533" x1="67.5672" y1="92.6958" x2="45.1361" y2="66.7358" gradientUnits="userSpaceOnUse">
<stop offset="0.01" stop-color="#2897FF"/>
<stop offset="0.18" stop-color="#2897FF"/>
<stop offset="0.39" stop-color="#2897FF"/>
<stop offset="0.5" stop-color="#258BEC"/>
<stop offset="0.68" stop-color="#207ACE"/>
<stop offset="1" stop-color="#185A99"/>
</linearGradient>
<linearGradient id="paint5_linear_3416_5533" x1="104.686" y1="83.7112" x2="95.2677" y2="50.1557" gradientUnits="userSpaceOnUse">
<stop offset="0.01" stop-color="#2897FF"/>
<stop offset="0.18" stop-color="#2897FF"/>
<stop offset="0.39" stop-color="#2897FF"/>
<stop offset="0.5" stop-color="#258BEC"/>
<stop offset="0.68" stop-color="#207ACE"/>
<stop offset="1" stop-color="#185A99"/>
</linearGradient>
<linearGradient id="paint6_linear_3416_5533" x1="73.7118" y1="101.605" x2="106.973" y2="84.1233" gradientUnits="userSpaceOnUse">
<stop offset="0.01" stop-color="#2897FF"/>
<stop offset="0.18" stop-color="#2897FF"/>
<stop offset="0.39" stop-color="#2897FF"/>
<stop offset="0.5" stop-color="#258BEC"/>
<stop offset="0.68" stop-color="#207ACE"/>
<stop offset="1" stop-color="#185A99"/>
</linearGradient>
<linearGradient id="paint7_linear_3416_5533" x1="112.468" y1="95.7871" x2="86.0784" y2="36.0712" gradientUnits="userSpaceOnUse">
<stop offset="0.01" stop-color="#2897FF"/>
<stop offset="0.18" stop-color="#2897FF"/>
<stop offset="0.39" stop-color="#2897FF"/>
<stop offset="0.5" stop-color="#258BEC"/>
<stop offset="0.68" stop-color="#207ACE"/>
<stop offset="1" stop-color="#185A99"/>
</linearGradient>
<linearGradient id="paint8_linear_3416_5533" x1="76.3917" y1="94.9731" x2="114.928" y2="79.0438" gradientUnits="userSpaceOnUse">
<stop offset="0.01" stop-color="#2897FF"/>
<stop offset="0.18" stop-color="#2897FF"/>
<stop offset="0.39" stop-color="#2897FF"/>
<stop offset="0.5" stop-color="#258BEC"/>
<stop offset="0.68" stop-color="#207ACE"/>
<stop offset="1" stop-color="#185A99"/>
</linearGradient>
<clipPath id="clip0_3416_5533">
<rect width="150" height="150" fill="white"/>
</clipPath>
</defs>
</svg>
