<svg width="24" height="24" viewBox="0 0 24 24" fill="none" xmlns="http://www.w3.org/2000/svg">
<g clip-path="url(#clip0_2859_5331)">
<path d="M19.4067 7.09766C19.7346 7.09766 20.0005 6.83184 20.0005 6.50391V1.40625C20.0005 0.561808 19.3137 -0.125 18.4692 -0.125H1.40674C0.562296 -0.125 -0.124512 0.561808 -0.124512 1.40625V22.5938C-0.124512 23.4382 0.562296 24.125 1.40674 24.125H18.4692C19.3137 24.125 20.0005 23.4382 20.0005 22.5938V19.1404C20.0005 18.8124 19.7346 18.5466 19.4067 18.5466C19.0789 18.5466 18.813 18.8124 18.813 19.1404V22.5938C18.813 22.7832 18.6587 22.9375 18.4692 22.9375H1.40674C1.21731 22.9375 1.06299 22.7832 1.06299 22.5938V1.40625C1.06299 1.21682 1.21731 1.0625 1.40674 1.0625H18.4692C18.6587 1.0625 18.813 1.21682 18.813 1.40625V6.50391C18.813 6.83184 19.0789 7.09766 19.4067 7.09766Z" fill="#252525" stroke="#252525" stroke-width="0.25"/>
<path d="M9.93774 2.53125C7.55982 2.53125 5.62524 4.46583 5.62524 6.84375C5.62524 8.07736 6.14603 9.19148 6.97909 9.97823C6.9947 9.99492 7.01129 10.0107 7.02943 10.0251C7.79682 10.7272 8.81809 11.1562 9.9377 11.1562C11.0573 11.1562 12.0786 10.7272 12.846 10.0251C12.8641 10.0107 12.8807 9.99487 12.8963 9.97823C13.7295 9.19148 14.2502 8.07736 14.2502 6.84375C14.2502 4.46583 12.3157 2.53125 9.93774 2.53125ZM9.93774 10.2187C9.17232 10.2187 8.46592 9.96225 7.8991 9.53119C8.31109 8.80064 9.07988 8.34375 9.93774 8.34375C10.7956 8.34375 11.5644 8.80064 11.9764 9.53119C11.4095 9.96225 10.7032 10.2187 9.93774 10.2187ZM9.18774 6.65625V6.35156C9.18774 5.93803 9.52421 5.60156 9.93774 5.60156C10.3513 5.60156 10.6877 5.93803 10.6877 6.35156V6.65625C10.6877 7.06978 10.3513 7.40625 9.93774 7.40625C9.52421 7.40625 9.18774 7.06978 9.18774 6.65625ZM12.6537 8.84451C12.308 8.3318 11.8289 7.93303 11.2726 7.68684C11.4934 7.40152 11.6252 7.04409 11.6252 6.65625V6.35156C11.6252 5.42105 10.8683 4.66406 9.93774 4.66406C9.00723 4.66406 8.25024 5.42105 8.25024 6.35156V6.65625C8.25024 7.04409 8.3821 7.40152 8.60288 7.68684C8.04662 7.93303 7.56751 8.3318 7.22181 8.84451C6.80795 8.28422 6.56274 7.5922 6.56274 6.84375C6.56274 4.98277 8.07676 3.46875 9.93774 3.46875C11.7987 3.46875 13.3127 4.98277 13.3127 6.84375C13.3127 7.5922 13.0675 8.28422 12.6537 8.84451Z" fill="#252525"/>
<path d="M12.469 20.5312H9.93774C9.6789 20.5312 9.46899 20.7411 9.46899 21C9.46899 21.2589 9.6789 21.4688 9.93774 21.4688H12.469C12.7278 21.4688 12.9377 21.2589 12.9377 21C12.9377 20.7411 12.7278 20.5312 12.469 20.5312Z" fill="#252525"/>
<path d="M12.469 17.9062H5.81274C5.5539 17.9062 5.34399 18.1161 5.34399 18.375C5.34399 18.6339 5.5539 18.8438 5.81274 18.8438H12.469C12.7278 18.8438 12.9377 18.6339 12.9377 18.375C12.9377 18.1161 12.7278 17.9062 12.469 17.9062Z" fill="#252525"/>
<path d="M12.469 15.2812H5.81274C5.5539 15.2812 5.34399 15.4911 5.34399 15.75C5.34399 16.0089 5.5539 16.2188 5.81274 16.2188H12.469C12.7278 16.2188 12.9377 16.0089 12.9377 15.75C12.9377 15.4911 12.7278 15.2812 12.469 15.2812Z" fill="#252525"/>
<path d="M4.14213 12.7936C4.05499 12.7064 3.93405 12.6562 3.8103 12.6562C3.68697 12.6562 3.56604 12.7064 3.4789 12.7936C3.39171 12.8808 3.34155 13.0017 3.34155 13.125C3.34155 13.2483 3.39166 13.3692 3.4789 13.4564C3.56655 13.5436 3.68697 13.5938 3.8103 13.5938C3.93405 13.5938 4.05452 13.5436 4.14213 13.4564C4.22932 13.3692 4.27952 13.2483 4.27952 13.125C4.27952 13.0017 4.22936 12.8808 4.14213 12.7936Z" fill="#252525"/>
<path d="M4.14213 15.4186C4.05452 15.3314 3.93405 15.2812 3.8103 15.2812C3.68697 15.2812 3.56655 15.3314 3.4789 15.4186C3.39171 15.5058 3.34155 15.6267 3.34155 15.75C3.34155 15.8733 3.39166 15.9942 3.4789 16.0814C3.56655 16.1686 3.68697 16.2188 3.8103 16.2188C3.93405 16.2188 4.05452 16.1686 4.14213 16.0814C4.22932 15.9942 4.27952 15.8733 4.27952 15.75C4.27952 15.6267 4.22936 15.5058 4.14213 15.4186Z" fill="#252525"/>
<path d="M4.14213 18.0436C4.05452 17.9564 3.93405 17.9062 3.8103 17.9062C3.68697 17.9062 3.56655 17.9564 3.4789 18.0436C3.39171 18.1308 3.34155 18.2517 3.34155 18.375C3.34155 18.4983 3.39166 18.6192 3.4789 18.7064C3.56604 18.7936 3.68697 18.8438 3.8103 18.8438C3.93405 18.8438 4.05499 18.7936 4.14213 18.7064C4.22932 18.6192 4.27952 18.4983 4.27952 18.375C4.27952 18.2517 4.22936 18.1308 4.14213 18.0436Z" fill="#252525"/>
<path d="M12.469 12.6562H5.81274C5.5539 12.6562 5.34399 12.8661 5.34399 13.125C5.34399 13.3839 5.5539 13.5938 5.81274 13.5938H12.469C12.7278 13.5938 12.9377 13.3839 12.9377 13.125C12.9377 12.8661 12.7278 12.6562 12.469 12.6562Z" fill="#252525"/>
<path d="M23.0157 6.10884C22.5603 5.84592 22.0298 5.77607 21.5217 5.91215C21.0138 6.04828 20.5892 6.37406 20.3263 6.82945L14.4275 17.0465C14.3952 17.1025 14.3747 17.1646 14.3676 17.2289L13.9524 20.9481C13.9317 21.1332 14.0226 21.3129 14.1838 21.4061C14.2566 21.4481 14.3375 21.4689 14.4182 21.4689C14.5162 21.4689 14.6139 21.4382 14.6962 21.3776L17.7095 19.1583C17.7616 19.12 17.8052 19.0713 17.8375 19.0153L23.7362 8.79825C24.2791 7.85812 23.9558 6.65165 23.0157 6.10884ZM15.0029 19.9873L15.2198 18.0452L16.5764 18.8285L15.0029 19.9873ZM17.26 18.1405L15.4738 17.1093L20.2075 8.91037L21.9936 9.94162L17.26 18.1405ZM22.9244 8.32945L22.4623 9.12975L20.6762 8.0985L21.1382 7.2982C21.2759 7.05965 21.4983 6.88903 21.7644 6.81773C22.0305 6.74639 22.3084 6.78304 22.5469 6.92076C22.7854 7.05848 22.9561 7.28085 23.0274 7.54692C23.0987 7.81298 23.0621 8.0909 22.9244 8.32945Z" fill="#252525"/>
</g>
<defs>
<clipPath id="clip0_2859_5331">
<rect width="24" height="24" fill="white"/>
</clipPath>
</defs>
</svg>
