<svg width="279" height="299" viewBox="0 0 279 299" fill="none" xmlns="http://www.w3.org/2000/svg">
<path d="M262.74 134.926C248.819 174.73 275.794 227.598 210.432 240.856C186.702 245.669 169.527 234.149 146.569 247.731C105.943 271.766 81.9699 269.4 64.1162 251.234C50.3234 237.201 52.937 220.938 37.8834 211.178C10.0819 193.152 1.54983 169.995 7.92919 140.361C11.2833 124.78 24.9093 114.249 33.2972 103.715C43.1217 91.3775 46.4674 79.4014 51.1863 66.8499C72.2039 10.9461 118.637 -2.47629 153.33 1.24736C182.601 4.38906 201.552 26.4507 210.723 43.5154C229.423 78.3144 284.259 73.3932 262.74 134.926ZM278.645 156.944C278.6 152.542 274.996 149.011 270.594 149.056C266.193 149.101 262.661 152.706 262.706 157.107C262.751 161.509 266.356 165.04 270.757 164.995C275.159 164.95 278.691 161.345 278.645 156.944ZM1.69329 84.6819C3.95071 86.9395 7.6112 86.9395 9.86892 84.6819C12.1263 82.4243 12.1263 78.7638 9.86892 76.5063C7.6112 74.2487 3.95086 74.2487 1.69329 76.5063C-0.564429 78.764 -0.564429 82.4243 1.69329 84.6819ZM220.442 36.6508C219.709 41.6661 223.18 46.3264 228.196 47.0594C233.212 47.7924 237.872 44.3206 238.605 39.305C239.338 34.2897 235.866 29.6295 230.85 28.8963C225.835 28.1635 221.175 31.6353 220.442 36.6508ZM17.8905 82.3207C18.774 88.3768 24.4002 92.5703 30.4567 91.6865C36.513 90.8027 40.7063 85.1767 39.8225 79.1203C38.939 73.0642 33.3128 68.8709 27.2563 69.7545C21.2002 70.6383 17.0069 76.2642 17.8905 82.3207ZM210.777 23.2942C210.393 25.9221 212.212 28.3636 214.84 28.7477C217.467 29.1319 219.909 27.3128 220.293 24.6851C220.677 22.0573 218.858 19.6156 216.23 19.2316C213.603 18.8475 211.161 20.6663 210.777 23.2942ZM43.5781 255.004C43.9121 257.294 46.0397 258.879 48.3296 258.545C50.6196 258.211 52.2052 256.084 51.8711 253.794C51.537 251.504 49.4096 249.918 47.1195 250.252C44.8294 250.586 43.2439 252.714 43.5781 255.004ZM47.724 235.625C47.6639 229.76 42.8611 225.055 36.9963 225.115C31.1319 225.175 26.4264 229.978 26.4865 235.842C26.5464 241.707 31.3495 246.412 37.2138 246.353C43.0785 246.292 47.7841 241.49 47.724 235.625Z" fill="url(#paint0_linear_3048_5548)"/>
<path d="M139.764 136.248C150.618 140.584 127.182 151.55 127.182 151.55C124.866 149.493 104.095 145.83 96.7437 142.893C92.4796 141.19 87.6667 139.109 84.1862 137.361C76.674 133.578 73.669 128.722 74.4985 124.833C74.52 124.676 74.5489 124.52 74.5843 124.368C74.6859 123.968 74.8383 123.587 75.016 123.225C76.6125 120.042 79.3081 117.817 86.1215 120.536C89.6453 121.941 92.7069 123.058 97.9328 124.714C106.747 127.507 130.158 132.41 139.764 136.248Z" fill="#FFD199"/>
<path d="M131.282 137.108C142.188 132.904 132.467 156.882 132.467 156.882C129.37 156.95 111.652 168.392 104.266 171.239C99.981 172.891 95.0378 174.639 91.2974 175.725C83.2172 178.061 78.2405 175.365 76.6405 171.195C75.0404 167.025 75.769 162.622 81.8896 160.26C85.4292 158.894 88.2799 158.114 93.2372 155.773C101.598 151.825 121.63 140.828 131.282 137.108Z" fill="#FFD199"/>
<path d="M131.244 155.605C141.471 151.663 132.355 174.148 132.355 174.148C129.451 174.212 112.837 184.941 105.911 187.611C101.893 189.159 97.371 190.864 93.8636 191.882C86.2866 194.073 80.4759 191.906 78.8601 187.538C77.7017 184.407 78.1169 180.689 84.5342 178.212C87.853 176.931 90.67 175.746 95.3185 173.551C103.159 169.85 122.194 159.094 131.244 155.605Z" fill="#FFD199"/>
<path d="M102.894 136.136C99.283 137.264 96.1031 138.241 93.786 138.882C88.5044 140.344 87.429 140.498 83.7065 141.24C76.5145 142.677 75.5435 147.168 76.4107 151.55C77.2756 155.931 80.1137 159.136 88.4753 158.212C91.6031 157.862 95.5788 157.219 99.3681 156.512L102.894 136.136Z" fill="#FFD199"/>
<path d="M89.8555 202.15V48.7051C89.8555 48.1308 90.321 47.6653 90.8952 47.6653H187.75C188.325 47.6653 188.79 48.1308 188.79 48.7051V202.149C188.79 202.724 188.325 203.189 187.75 203.189H90.8952C90.321 203.189 89.8555 202.724 89.8555 202.15Z" fill="#3E50B4"/>
<path d="M89.8516 201.136V203.168C89.8516 204.348 90.0829 205.481 90.4979 206.526C90.5613 206.678 90.6252 206.83 90.6891 206.973C91.1597 208.003 91.8142 208.936 92.6121 209.742C94.5507 211.713 97.3593 212.957 100.495 212.957H178.111C184.007 212.957 188.794 208.561 188.794 203.168V201.136H89.8516Z" fill="#F9F9F9"/>
<path opacity="0.1" d="M139.335 49.5062V37.4275H100.495C97.3594 37.4275 94.5508 38.6719 92.6122 40.6428C91.8145 41.4488 91.1599 42.3901 90.6892 43.4115C90.6253 43.5549 90.5614 43.7064 90.498 43.8578C90.083 44.9031 89.8594 46.0364 89.8594 47.2172V49.5061L139.335 49.5062Z" fill="white"/>
<path opacity="0.1" d="M89.8594 201.136V203.168C89.8594 204.348 90.083 205.481 90.498 206.526C90.5614 206.678 90.6253 206.83 90.6892 206.973C91.1598 207.994 91.8143 208.936 92.6122 209.742C94.5508 211.713 97.3594 212.957 100.495 212.957H139.335V201.136H89.8594Z" fill="white"/>
<path d="M188.794 47.2174C188.794 41.8238 184.007 37.4277 178.111 37.4277H100.495C97.3593 37.4277 94.5507 38.6721 92.6121 40.643C91.8144 41.449 91.1598 42.3825 90.6891 43.4117C90.6252 43.5552 90.5613 43.7066 90.4979 43.8581C90.0829 44.9034 89.8516 46.0366 89.8516 47.2174V49.5063H125.097C128.335 49.5063 131.431 50.7141 133.911 52.7964C135.375 54.0254 137.263 54.7658 139.324 54.7658C141.385 54.7658 143.273 54.0255 144.737 52.7964C147.217 50.7143 150.313 49.5063 153.552 49.5063H188.794L188.794 47.2174Z" fill="#F9F9F9"/>
<path d="M144.095 46.3371C144.095 48.9718 141.959 51.1076 139.324 51.1076C136.689 51.1076 134.554 48.9718 134.554 46.3371C134.554 43.7023 136.69 41.5664 139.324 41.5664C141.959 41.5664 144.095 43.7023 144.095 46.3371Z" fill="#D8DDEA"/>
<path opacity="0.2" d="M141.701 46.3372C141.701 47.6501 140.637 48.7144 139.324 48.7144C138.011 48.7144 136.947 47.6501 136.947 46.3372C136.947 45.0243 138.011 43.96 139.324 43.96C140.637 43.96 141.701 45.0243 141.701 46.3372Z" fill="white"/>
<path d="M161.324 186.168H117.322C111.774 186.168 107.276 181.67 107.276 176.122C107.276 170.573 111.774 166.076 117.322 166.076H161.324C166.872 166.076 171.37 170.573 171.37 176.122C171.37 181.67 166.872 186.168 161.324 186.168Z" fill="#CDDB38"/>
<path d="M124.963 178.725C124.918 178.638 124.896 178.545 124.896 178.446C124.896 178.367 124.911 178.289 124.942 178.214C124.972 178.139 125.013 178.071 125.065 178.01C125.117 177.949 125.182 177.901 125.262 177.865C125.342 177.83 125.424 177.812 125.509 177.812C125.636 177.812 125.762 177.848 125.889 177.918C125.899 177.923 125.942 177.947 126.019 177.992C126.097 178.037 126.15 178.066 126.178 178.08C126.206 178.094 126.261 178.121 126.343 178.161C126.425 178.201 126.491 178.23 126.541 178.249C126.59 178.268 126.657 178.294 126.741 178.327C126.826 178.36 126.905 178.384 126.978 178.4C127.05 178.417 127.132 178.435 127.224 178.453C127.316 178.472 127.411 178.485 127.509 178.492C127.608 178.499 127.707 178.503 127.805 178.503C127.984 178.503 128.152 178.49 128.309 178.464C128.466 178.438 128.615 178.395 128.756 178.334C128.897 178.273 129.009 178.185 129.091 178.07C129.173 177.955 129.214 177.82 129.214 177.664C129.214 177.495 129.138 177.345 128.985 177.214C128.833 177.082 128.604 176.977 128.298 176.896L127.249 176.622C127 176.551 126.794 176.492 126.632 176.442C126.47 176.393 126.298 176.332 126.115 176.259C125.931 176.186 125.784 176.114 125.671 176.041C125.558 175.968 125.446 175.88 125.336 175.776C125.226 175.673 125.141 175.562 125.083 175.442C125.024 175.322 124.976 175.183 124.938 175.023C124.901 174.863 124.882 174.685 124.882 174.487C124.882 174.168 124.951 173.88 125.09 173.624C125.228 173.368 125.424 173.156 125.678 172.987C125.931 172.818 126.232 172.689 126.579 172.599C126.927 172.51 127.312 172.466 127.735 172.466C128.519 172.466 129.282 172.639 130.024 172.987C130.165 173.053 130.269 173.141 130.338 173.251C130.406 173.361 130.44 173.478 130.44 173.6C130.44 173.755 130.388 173.89 130.285 174.005C130.182 174.12 130.045 174.177 129.876 174.177C129.829 174.177 129.781 174.173 129.732 174.163C129.683 174.154 129.632 174.14 129.58 174.121C129.566 174.116 129.543 174.107 129.51 174.093C128.852 173.863 128.294 173.748 127.833 173.748C127.631 173.748 127.445 173.766 127.273 173.804C127.102 173.842 126.954 173.911 126.829 174.012C126.705 174.113 126.643 174.238 126.643 174.389C126.643 174.595 126.708 174.749 126.84 174.85C126.971 174.951 127.211 175.044 127.559 175.128L128.601 175.389C128.986 175.488 129.311 175.594 129.577 175.709C129.842 175.825 130.075 175.965 130.274 176.132C130.474 176.299 130.621 176.497 130.715 176.727C130.808 176.958 130.856 177.225 130.856 177.53C130.856 178.019 130.729 178.435 130.475 178.777C130.222 179.12 129.882 179.373 129.457 179.535C129.032 179.697 128.542 179.778 127.989 179.778C126.894 179.778 125.953 179.501 125.164 178.947C125.074 178.886 125.007 178.812 124.963 178.725Z" fill="white"/>
<path d="M134.314 177.696C134.629 178.102 135.075 178.306 135.653 178.306C136.165 178.306 136.627 178.186 137.041 177.946C137.163 177.876 137.282 177.841 137.4 177.841C137.456 177.841 137.511 177.849 137.565 177.865C137.619 177.882 137.669 177.905 137.713 177.936C137.758 177.966 137.798 178.003 137.833 178.045C137.868 178.087 137.899 178.133 137.925 178.182C137.95 178.231 137.97 178.284 137.984 178.341C137.999 178.397 138.006 178.456 138.006 178.517C138.006 178.761 137.902 178.97 137.696 179.144C137.484 179.322 137.178 179.47 136.776 179.588C136.375 179.705 135.93 179.764 135.441 179.764C134.413 179.764 133.557 179.431 132.874 178.767C132.19 178.102 131.849 177.221 131.849 176.122C131.849 175.445 132.002 174.831 132.31 174.279C132.618 173.728 133.05 173.292 133.606 172.973C134.163 172.653 134.789 172.494 135.484 172.494C135.93 172.494 136.336 172.551 136.702 172.666C137.069 172.781 137.362 172.923 137.583 173.092C137.696 173.177 137.779 173.271 137.833 173.374C137.887 173.477 137.914 173.586 137.914 173.698C137.914 173.872 137.854 174.023 137.734 174.152C137.615 174.282 137.468 174.346 137.294 174.346C137.275 174.346 137.257 174.346 137.238 174.346C137.219 174.346 137.2 174.344 137.182 174.339C137.163 174.334 137.143 174.33 137.122 174.325C137.101 174.32 137.08 174.314 137.062 174.307C137.043 174.3 137.023 174.292 137.002 174.283C136.981 174.273 136.961 174.264 136.942 174.255C136.519 174.043 136.111 173.937 135.716 173.937C135.43 173.937 135.17 173.987 134.938 174.085C134.705 174.184 134.508 174.326 134.346 174.511C134.184 174.697 134.059 174.926 133.973 175.198C133.886 175.471 133.842 175.776 133.842 176.114C133.842 176.763 134 177.29 134.314 177.696Z" fill="white"/>
<path d="M138.964 176.921C139.034 176.689 139.152 176.489 139.316 176.323C139.48 176.156 139.674 176.021 139.897 175.917C140.12 175.814 140.409 175.732 140.764 175.671C141.118 175.61 141.493 175.569 141.887 175.548C142.282 175.527 142.761 175.516 143.324 175.516V175.009C143.324 174.201 142.925 173.797 142.127 173.797C141.868 173.797 141.594 173.83 141.302 173.896C141.011 173.962 140.795 174.019 140.654 174.069C140.513 174.118 140.323 174.192 140.084 174.29C140.06 174.3 140.035 174.308 140.01 174.315C139.984 174.322 139.959 174.327 139.936 174.329C139.912 174.332 139.889 174.333 139.865 174.333C139.692 174.333 139.544 174.258 139.421 174.107C139.299 173.957 139.238 173.79 139.238 173.607C139.238 173.49 139.267 173.383 139.323 173.287C139.379 173.19 139.466 173.114 139.583 173.058C140.363 172.687 141.244 172.501 142.225 172.501C142.671 172.501 143.069 172.552 143.419 172.653C143.769 172.754 144.079 172.912 144.349 173.128C144.619 173.344 144.827 173.637 144.973 174.005C145.118 174.374 145.191 174.812 145.191 175.319V178.707C145.191 179.017 145.102 179.258 144.923 179.429C144.745 179.601 144.536 179.687 144.296 179.687C144.141 179.687 143.993 179.649 143.852 179.574C143.542 179.405 143.387 179.114 143.387 178.7V178.503C143.228 178.912 142.961 179.224 142.588 179.44C142.215 179.656 141.774 179.764 141.267 179.764C140.567 179.764 139.991 179.583 139.538 179.222C139.084 178.86 138.858 178.369 138.858 177.749C138.858 177.43 138.893 177.154 138.964 176.921ZM142.215 178.464C142.419 178.373 142.603 178.246 142.768 178.084C142.932 177.922 143.065 177.72 143.166 177.478C143.267 177.236 143.317 176.979 143.317 176.707V176.474C143.012 176.474 142.757 176.476 142.553 176.481C142.349 176.486 142.142 176.498 141.933 176.516C141.724 176.535 141.555 176.561 141.426 176.594C141.297 176.627 141.173 176.67 141.056 176.724C140.938 176.778 140.848 176.845 140.785 176.925C140.721 177.005 140.672 177.1 140.637 177.21C140.602 177.32 140.584 177.448 140.584 177.594C140.584 177.909 140.674 178.155 140.855 178.334C141.036 178.512 141.281 178.601 141.591 178.601C141.803 178.602 142.01 178.556 142.215 178.464Z" fill="white"/>
<path d="M147.22 179.384C147.055 179.186 146.973 178.902 146.973 178.531V173.607C146.973 173.278 147.06 173.029 147.234 172.86C147.407 172.691 147.652 172.607 147.966 172.607C148.272 172.607 148.508 172.691 148.674 172.86C148.841 173.029 148.924 173.276 148.924 173.6V173.769C149.347 172.919 150.143 172.494 151.312 172.494C152.021 172.494 152.607 172.728 153.07 173.195C153.533 173.662 153.764 174.33 153.764 175.199V178.531C153.764 178.902 153.677 179.186 153.503 179.384C153.33 179.581 153.081 179.68 152.757 179.68C152.451 179.68 152.217 179.581 152.052 179.384C151.888 179.186 151.806 178.902 151.806 178.531V175.213C151.806 174.753 151.687 174.4 151.45 174.153C151.213 173.906 150.911 173.783 150.545 173.783C150.103 173.783 149.724 173.957 149.407 174.305C149.09 174.652 148.932 175.101 148.932 175.65V178.531C148.932 178.902 148.845 179.186 148.671 179.384C148.497 179.581 148.248 179.68 147.924 179.68C147.619 179.679 147.384 179.581 147.22 179.384Z" fill="white"/>
<path d="M106.112 65.8364H103.072V82.4013H106.112V65.8364Z" fill="#CDDB38"/>
<path d="M119.637 65.8364H103.072V68.8747H119.637V65.8364Z" fill="#CDDB38"/>
<path d="M175.709 138.19H172.669V154.755H175.709V138.19Z" fill="#CDDB38"/>
<path d="M175.709 151.717H159.144V154.755H175.709V151.717Z" fill="#CDDB38"/>
<path d="M175.709 65.5417H172.669V82.1066H175.709V65.5417Z" fill="#CDDB38"/>
<path d="M175.709 65.5417H159.144V68.5801H175.709V65.5417Z" fill="#CDDB38"/>
<path d="M106.112 137.896H103.072V154.46H106.112V137.896Z" fill="#CDDB38"/>
<path d="M119.637 151.422H103.072V154.46H119.637V151.422Z" fill="#CDDB38"/>
<path d="M165.483 73.4895H113.163C111.091 73.4895 109.412 75.1692 109.412 77.2412V142.749C109.412 144.821 111.091 146.501 113.163 146.501H165.483C167.555 146.501 169.234 144.821 169.234 142.749V77.2413C169.234 75.1693 167.555 73.4895 165.483 73.4895Z" fill="white"/>
<path d="M161.065 83.1062H117.581V86.786H161.065V83.1062Z" fill="#D4DAE8"/>
<path d="M161.065 91.603H117.581V95.2828H161.065V91.603Z" fill="#D4DAE8"/>
<path d="M161.065 100.1H117.581V103.78H161.065V100.1Z" fill="#D4DAE8"/>
<path d="M161.065 108.597H117.581V112.277H161.065V108.597Z" fill="#D4DAE8"/>
<path d="M161.065 117.094H117.581V120.774H161.065V117.094Z" fill="#D4DAE8"/>
<path d="M161.065 125.592H117.581V129.271H161.065V125.592Z" fill="#D4DAE8"/>
<path d="M151.119 134.089H117.581V137.768H151.119V134.089Z" fill="#D4DAE8"/>
<path d="M164.429 240.756C164.429 240.756 156.131 240.525 149.661 236.527C139.519 230.272 133.264 219.27 130.336 212.958H157.328L164.429 240.756Z" fill="#F2C391"/>
<path d="M160.846 298.33C162.035 291.652 166.104 262.953 155.381 230.32C145.495 200.217 175.735 174.996 177.522 167.513L181.655 150.135C181.655 150.135 201.258 167.042 200.819 185.767C200.404 203.169 198.241 214.267 200.11 222.637C204.051 240.278 208.184 267.708 217.758 298.33H160.846Z" fill="#FFD199"/>
<path d="M200.816 184.646C200.816 196.71 181.33 178.449 181.33 178.449C182.421 175.436 177.974 154.125 177.974 145.956C177.974 141.216 178.134 135.803 178.464 131.798C179.225 123.151 182.727 118.411 186.769 117.713C186.927 117.676 187.088 117.651 187.246 117.627C187.492 117.59 187.712 117.578 187.944 117.578C188.14 117.578 188.325 117.59 188.509 117.602C192.169 117.909 195.343 119.501 195.343 127.217C195.343 127.217 195.427 131.736 195.453 133.255C195.453 133.255 195.465 134.517 195.465 134.725C195.477 135.117 195.477 135.496 195.477 135.84V136.146C195.795 142.771 200.816 172.95 200.816 184.646Z" fill="#FFD199"/>
<path d="M195.355 128.882C193.444 130.303 191.018 130.438 189.071 128.968C186.255 126.837 185.471 122.183 187.32 118.594C187.504 118.227 187.712 117.884 187.944 117.578C188.14 117.578 188.325 117.59 188.509 117.602C192.169 117.908 195.343 119.501 195.343 127.217V127.646C195.343 127.976 195.355 128.393 195.355 128.882Z" fill="#FFDBB3"/>
<path d="M95.4037 184.581C95.4037 189.062 93.2899 192.303 89.6365 192.695C86.4694 193.034 83.8691 189.062 83.8691 184.581C83.8691 180.101 87.073 177.538 90.3213 175.866C93.1534 174.409 95.4037 180.101 95.4037 184.581Z" fill="#FFD199"/>
<path d="M97.0466 167.423C97.0466 172.572 93.3922 175.276 89.8487 176.191C85.3427 177.354 83.7935 172.572 83.7935 167.423C83.7935 162.275 86.9954 157.447 90.6552 157.447C94.3149 157.447 97.0466 162.275 97.0466 167.423Z" fill="#FFD199"/>
<path d="M95.5797 151.082C94.702 156.155 90.64 158.196 86.9925 158.494C82.354 158.872 81.6427 153.895 82.5206 148.822C83.3983 143.749 87.3767 139.537 90.9827 140.161C94.5889 140.786 96.4575 146.009 95.5797 151.082Z" fill="#FFD199"/>
<g opacity="0.6">
<path d="M238.437 157.79C235.717 157.79 233.521 159.987 233.521 162.707C233.521 165.421 235.717 167.623 238.437 167.623C241.152 167.623 243.353 165.421 243.353 162.707C243.353 159.987 241.152 157.79 238.437 157.79ZM238.437 165.285C237.013 165.285 235.858 164.13 235.858 162.707C235.858 161.283 237.013 160.128 238.437 160.128C239.861 160.128 241.016 161.283 241.016 162.707C241.016 164.13 239.861 165.285 238.437 165.285Z" fill="white"/>
<path d="M80.9665 217.636C77.2945 217.636 74.3291 220.602 74.3291 224.273C74.3291 227.937 77.2945 230.91 80.9665 230.91C84.6309 230.91 87.6024 227.937 87.6024 224.273C87.6024 220.602 84.6309 217.636 80.9665 217.636ZM80.9665 228.449C78.6606 228.449 76.7897 226.579 76.7897 224.273C76.7897 221.968 78.6606 220.097 80.9665 220.097C83.2724 220.097 85.1417 221.968 85.1417 224.273C85.1417 226.579 83.2724 228.449 80.9665 228.449Z" fill="white"/>
<path d="M170.678 19.6454L171.568 21.9084C171.897 22.746 172.56 23.409 173.397 23.7382L175.66 24.6274C176.085 24.7944 176.085 25.3956 175.66 25.5626L173.397 26.452C172.56 26.7811 171.897 27.4441 171.568 28.2818L170.678 30.5447C170.511 30.9696 169.91 30.9696 169.743 30.5447L168.854 28.2819C168.525 27.4441 167.862 26.7813 167.024 26.452L164.761 25.5626C164.336 25.3956 164.336 24.7944 164.761 24.6274L167.024 23.7382C167.862 23.409 168.525 22.746 168.854 21.9082L169.743 19.6453C169.91 19.2204 170.511 19.2204 170.678 19.6454Z" fill="white"/>
<path d="M36.0732 140.436L37.0093 142.818C37.3558 143.7 38.0536 144.397 38.9356 144.744L41.3176 145.68C41.7649 145.856 41.7649 146.489 41.3176 146.664L38.9356 147.6C38.0538 147.947 37.3559 148.645 37.0095 149.527L36.0734 151.909C35.8975 152.356 35.2646 152.356 35.0889 151.909L34.153 149.527C33.8065 148.645 33.1087 147.947 32.2267 147.6L29.8447 146.664C29.3974 146.489 29.3975 145.856 29.8447 145.68L32.2267 144.744C33.1085 144.398 33.8064 143.7 34.153 142.818L35.0889 140.436C35.2645 139.988 35.8974 139.988 36.0732 140.436Z" fill="white"/>
<path d="M215.436 206.418L216.325 208.681C216.655 209.519 217.318 210.182 218.155 210.511L220.418 211.4C220.843 211.567 220.843 212.168 220.418 212.335L218.155 213.225C217.318 213.554 216.655 214.217 216.325 215.054L215.436 217.317C215.269 217.742 214.668 217.742 214.501 217.317L213.612 215.054C213.282 214.217 212.619 213.554 211.782 213.225L209.519 212.335C209.094 212.168 209.094 211.567 209.519 211.4L211.782 210.511C212.619 210.182 213.282 209.519 213.612 208.681L214.501 206.418C214.668 205.993 215.269 205.993 215.436 206.418Z" fill="white"/>
<path d="M201.284 97.3592L202.173 99.6221C202.502 100.46 203.165 101.123 204.003 101.452L206.266 102.341C206.691 102.508 206.691 103.11 206.266 103.276L204.003 104.166C203.165 104.495 202.502 105.158 202.173 105.995L201.284 108.258C201.117 108.683 200.515 108.683 200.348 108.258L199.459 105.995C199.13 105.158 198.467 104.495 197.629 104.166L195.366 103.276C194.942 103.109 194.942 102.508 195.367 102.341L197.63 101.452C198.467 101.123 199.13 100.46 199.459 99.622L200.349 97.359C200.516 96.9343 201.117 96.9343 201.284 97.3592Z" fill="white"/>
<path d="M72.7732 85.667L73.7091 88.049C74.0556 88.9308 74.7535 89.6286 75.6353 89.9752L78.0173 90.9112C78.4646 91.087 78.4646 91.7199 78.0173 91.8956L75.6353 92.8317C74.7535 93.1782 74.0557 93.876 73.7091 94.7578L72.7732 97.1398C72.5973 97.5872 71.9644 97.5872 71.7887 97.1398L70.8527 94.7578C70.5063 93.876 69.8085 93.1782 68.9265 92.8316L66.5445 91.8955C66.0971 91.7196 66.0971 91.0868 66.5445 90.911L68.9265 89.975C69.8083 89.6286 70.5063 88.9308 70.8527 88.0488L71.7887 85.6668C71.9644 85.2198 72.5975 85.2198 72.7732 85.667Z" fill="white"/>
</g>
<defs>
<linearGradient id="paint0_linear_3048_5548" x1="199.247" y1="252.497" x2="69.4172" y2="27.6257" gradientUnits="userSpaceOnUse">
<stop stop-color="#CDE8FF"/>
<stop offset="1" stop-color="#E1EFFF"/>
</linearGradient>
</defs>
</svg>
