<svg width="30" height="30" viewBox="0 0 30 30" fill="none" xmlns="http://www.w3.org/2000/svg">
<g clip-path="url(#clip0_3187_5331)">
<path d="M20.2773 18.0251L20.2782 18.0143C20.3162 18.0182 20.3431 18.0457 20.3595 18.0883C20.3759 18.1307 20.3824 18.1898 20.3787 18.262C20.3712 18.407 20.3228 18.6088 20.2225 18.8417C20.0218 19.3076 19.6147 19.9029 18.9195 20.4361L18.9185 20.4371C18.5574 20.6664 18.2649 20.8096 17.9681 20.9472C17.6713 21.0848 17.3703 21.2165 16.9913 21.4223C16.2365 21.8322 15.7638 22.6981 15.3678 23.8196L15.1373 24.6661L15.3124 25.0102L15.3183 25.0219L15.3134 25.02L15.0519 25.6518L15.0422 25.6752L15.0314 25.6518L14.7372 25.022L14.7323 25.0113L14.7372 25.0132L14.8786 24.669L14.8776 24.666C14.8761 24.6616 14.8735 24.6548 14.8707 24.6465C14.8649 24.6294 14.8561 24.6043 14.845 24.5724C14.8227 24.508 14.7903 24.4155 14.7494 24.3032C14.6674 24.0782 14.5519 23.7732 14.4173 23.4548C14.2827 23.1363 14.1295 22.8039 13.9717 22.5237C13.8135 22.243 13.6511 22.0161 13.5007 21.9062C13.1975 21.6845 12.935 21.5938 12.6497 21.5068C12.4355 21.4415 12.2084 21.3779 11.9428 21.2622L11.6631 21.1274C10.892 20.7172 10.3108 20.029 9.95491 19.4127C9.77693 19.1044 9.65475 18.8133 9.59362 18.5839C9.56307 18.4692 9.54819 18.3693 9.54865 18.2901C9.5491 18.2114 9.56494 18.1501 9.60077 18.1161L9.62026 18.1033C9.62743 18.1 9.63518 18.0982 9.64368 18.0974C9.66014 18.0958 9.6795 18.0985 9.70132 18.105C9.74471 18.1179 9.80411 18.1459 9.8891 18.1854C10.0602 18.2647 10.3391 18.3932 10.8113 18.5542L11.1349 18.6605C11.4232 18.7507 11.6113 18.7974 11.7566 18.8351C11.9507 18.8856 12.0694 18.9212 12.2465 19.0258L12.3963 19.118C12.7415 19.3424 13.0487 19.6211 13.3054 19.944L13.4143 20.091C13.6527 20.4349 13.7852 20.7822 13.8951 21.0122L14.026 21.3018C14.1501 21.5935 14.2548 21.8932 14.3387 22.1992L14.5746 22.9103L14.5755 22.9112L14.7528 23.6245L15.0119 24.8335L15.2603 23.2506L15.2613 23.2477L15.7504 22.0761C15.971 21.301 16.1924 20.7241 16.5028 20.2375C16.8135 19.7504 17.2134 19.354 17.7902 18.94L17.8818 18.884C17.9868 18.828 18.1311 18.7705 18.2963 18.7127C18.5169 18.6354 18.7771 18.5565 19.0367 18.4777C19.2966 18.3987 19.5559 18.3193 19.7751 18.2417C19.9946 18.164 20.1726 18.0886 20.2704 18.0163L20.2782 18.0104L20.2773 18.0251Z" fill="#525252" stroke="#636363" stroke-width="0.0221675"/>
<g filter="url(#filter0_d_3187_5331)">
<path d="M7.57597 10.368C7.70989 10.4452 7.84673 10.5264 7.98533 10.6124C8.3998 10.8695 9.3998 11.4002 10.5998 13.0002L11.3998 14.0002L12.7561 16.1609C12.4748 15.7612 12.1573 15.3883 11.8075 15.0469C11.1989 14.4543 10.5222 13.9357 9.79176 13.5019C9.45726 13.3013 9.15082 13.137 8.8672 13.0007C7.64088 12.4107 6.85024 12.3358 6.22568 12.0171C5.88358 11.8431 5.59228 11.5836 5.38006 11.2639C4.91223 10.5978 4.59351 9.61767 4.78708 8.77557V8.76562C4.95438 8.90782 5.13229 9.03705 5.31925 9.15217C5.93854 9.54457 6.71925 9.87674 7.57597 10.368Z" fill="#525252"/>
<path d="M4.79395 8.75684C4.96082 8.89867 5.13872 9.02774 5.3252 9.14258L5.56445 9.28711C5.81091 9.42966 6.07858 9.5678 6.36328 9.71289C6.74279 9.9063 7.15251 10.1127 7.58105 10.3584L7.99121 10.6025L8.40625 10.8594C8.91913 11.1924 9.70746 11.792 10.6084 12.9932L11.4082 13.9932L11.4092 13.9941L12.7607 16.1484C12.7622 16.1505 12.7642 16.1522 12.7656 16.1543H12.7646L12.7656 16.1553L12.7471 16.167C12.5365 15.8677 12.3053 15.5836 12.0557 15.3164L11.7998 15.0547C11.2678 14.5368 10.684 14.0752 10.0576 13.6777L9.78613 13.5117C9.61895 13.4115 9.45847 13.3204 9.30469 13.2373L8.8623 13.0107C8.24989 12.7161 7.74617 12.5502 7.31738 12.418C6.99598 12.3188 6.71603 12.2382 6.46387 12.1367L6.2207 12.0273C5.8769 11.8525 5.58437 11.5909 5.37109 11.2695V11.2705C4.90249 10.6033 4.58293 9.621 4.77637 8.77539V8.74121L4.79395 8.75684Z" stroke="#636363" stroke-width="0.0221675"/>
</g>
<g filter="url(#filter1_d_3187_5331)">
<path d="M22.2732 10.348C22.1407 10.4275 22.0053 10.5112 21.8682 10.5996C21.4583 10.8638 20.4677 11.4119 19.2958 13.0326L18.5134 14.0464L17.195 16.2305C17.4693 15.826 17.7802 15.4476 18.1239 15.1001C18.7222 14.4969 19.3897 13.9666 20.1125 13.5201C20.4434 13.3137 20.7469 13.1441 21.0281 13.0029C22.244 12.3915 23.0332 12.3029 23.6521 11.9733C23.9911 11.7934 24.2778 11.5289 24.4844 11.2055C24.9172 10.5658 25.2109 9.6458 25.0619 8.83698L24.5662 9.10332C23.9539 9.50647 23.1212 9.8419 22.2732 10.348Z" fill="#525252"/>
<path d="M25.0565 8.82731L24.5611 9.09381L24.5601 9.09383L24.3214 9.24254C24.0727 9.38856 23.7959 9.52861 23.5027 9.67682C23.1123 9.8742 22.6921 10.085 22.268 10.3381L21.8621 10.5904L21.4517 10.8544C20.9446 11.1964 20.1669 11.8096 19.2871 13.0263L18.5049 14.0401L18.5039 14.0411L17.1854 16.2246L17.2041 16.237C17.4096 15.9339 17.6355 15.6451 17.8806 15.3735L18.1318 15.1083C18.6546 14.5812 19.2304 14.1095 19.8497 13.7011L20.1183 13.5294C20.2837 13.4263 20.4425 13.3325 20.5948 13.2467L21.0332 13.0124C21.6403 12.7072 22.1412 12.5325 22.5675 12.3928C22.887 12.2881 23.1658 12.2034 23.416 12.0976L23.6572 11.9831C23.9555 11.8248 24.2136 11.6014 24.4126 11.3301L24.4935 11.2115C24.9274 10.5702 25.2228 9.64726 25.0732 8.83483L25.07 8.82024L25.0565 8.82731Z" stroke="#636363" stroke-width="0.0221675"/>
</g>
<g filter="url(#filter2_d_3187_5331)">
<path d="M13.7287 17.3388C13.7632 17.6312 13.7795 17.9207 13.8053 18.2125V18.2178C13.8141 18.3189 13.8234 18.4195 13.8328 18.5201C13.8491 18.6891 13.8562 18.8651 13.8866 19.0318C13.8281 18.7043 13.6807 18.3388 13.5316 17.9347C13.4357 17.6739 13.3825 17.43 13.2772 17.2189C13.2421 17.0967 13.1275 16.8131 12.8901 16.4289C12.6322 15.9355 12.3498 15.4554 12.0439 14.9903C11.9801 14.8944 11.9152 14.7973 11.8486 14.7014C11.2638 13.854 10.7795 13.154 10.2298 12.5248C9.76151 11.984 9.23338 11.498 8.65557 11.0762C8.28922 10.8088 7.90811 10.5622 7.51405 10.3376C6.39066 9.69437 5.40294 9.32244 4.72516 8.7353C4.37051 8.43786 4.10447 8.04863 3.95616 7.61016C3.90528 7.46279 3.56376 6.40665 4.10528 5.55168C4.69007 4.62302 6.05908 4.35109 6.84329 4.41191C10.0047 4.65987 12.0801 10.9657 13.1971 14.7739C13.1973 14.776 13.1973 14.7782 13.1971 14.7803C13.2567 14.9753 13.3137 15.1702 13.3679 15.3651C13.4076 15.5107 13.4357 15.6575 13.462 15.809C13.4661 15.8341 13.4702 15.8593 13.4749 15.8844C13.4774 15.9091 13.4817 15.9335 13.4877 15.9575C13.4965 16.0055 13.5053 16.0534 13.5135 16.1014L13.6263 16.7107C13.6445 16.8125 13.6632 16.9143 13.6813 17.016C13.6994 17.1178 13.7158 17.2312 13.7287 17.3388Z" fill="#525252"/>
<path d="M13.8159 18.2173L13.8442 18.519L13.8657 18.7759C13.8733 18.8616 13.8828 18.9468 13.8979 19.0298L13.8755 19.0337C13.8463 18.8705 13.7956 18.6976 13.7329 18.5151L13.521 17.939C13.473 17.8084 13.4353 17.6816 13.397 17.562C13.3586 17.4422 13.3193 17.3288 13.2671 17.2241L13.2661 17.2222C13.2314 17.1012 13.1174 16.8186 12.8804 16.4351V16.4341C12.6871 16.0644 12.4797 15.7022 12.2593 15.3481L12.0347 14.9966L11.8394 14.7075C11.3275 13.9659 10.8929 13.3377 10.4243 12.771L10.2212 12.5317C9.81195 12.0592 9.35669 11.629 8.86279 11.2466L8.64893 11.0854C8.37444 10.8851 8.09158 10.6965 7.80127 10.52L7.5083 10.3472C6.94699 10.0258 6.42015 9.77185 5.94775 9.5249C5.53472 9.30898 5.16313 9.09859 4.84912 8.85205L4.71826 8.74365C4.4067 8.48236 4.16314 8.15061 4.00732 7.77686L3.9458 7.61377C3.9202 7.53962 3.82152 7.23779 3.79736 6.84717C3.77323 6.4565 3.82374 5.97556 4.09619 5.54541L4.21533 5.37842C4.51345 5.00533 4.94557 4.75492 5.396 4.6001C5.91077 4.42318 6.45067 4.37036 6.84424 4.40088L6.99268 4.4165C7.72887 4.51905 8.40456 4.94867 9.021 5.59229C9.67853 6.27883 10.2694 7.21044 10.7964 8.25244C11.7188 10.0764 12.4454 12.2415 12.9868 14.0298L13.2075 14.771L13.2085 14.7729V14.7817C13.2676 14.9752 13.3246 15.1684 13.3784 15.3618L13.4312 15.5825C13.4465 15.6565 13.46 15.7313 13.4731 15.8071L13.4858 15.8823V15.8833L13.4985 15.9546V15.9556L13.5239 16.0991L13.6372 16.7085L13.6646 16.8618C13.6737 16.9126 13.6828 16.9634 13.6919 17.0142C13.7101 17.1161 13.7269 17.2297 13.7397 17.3374L13.8159 18.2114L13.8169 18.2124H13.8159V18.2173Z" stroke="#636363" stroke-width="0.0221675"/>
</g>
<g filter="url(#filter3_d_3187_5331)">
<path d="M8.10999 15.0708C8.14859 15.0913 8.19713 15.1147 8.29303 15.1621C8.29303 15.1621 8.37432 15.2024 8.45385 15.2404C9.32227 15.6644 10.293 16.0463 10.293 16.0463C10.8264 16.2556 10.8667 16.2527 11.1065 16.3732C11.4017 16.5194 11.6809 16.6958 11.9398 16.8995C12.2438 17.1483 12.5136 17.4362 12.7422 17.7556C12.9513 18.0399 13.1343 18.3425 13.2889 18.6597C13.5503 19.1679 13.6983 19.5954 13.8737 20.0948C13.9123 20.2048 13.9837 20.4135 14.0667 20.6796C14.2041 21.1241 14.2854 21.4527 14.3392 21.6667C14.7199 23.1872 14.7948 23.2866 14.9065 23.9603C14.996 24.4995 15.0281 24.9153 15.0164 24.917C15.0047 24.9188 14.9427 24.4053 14.7679 23.7235C14.6854 23.4024 14.6024 23.1387 14.5012 22.8422C14.0334 21.4685 13.8059 20.7773 13.5275 20.386C13.1895 19.9112 12.6065 19.0907 11.6983 18.8369C11.6492 18.8235 10.5082 18.5065 9.88543 18.2153L9.81058 18.1796C9.50122 18.022 9.21167 17.8283 8.948 17.6024C8.23397 16.9556 7.86672 15.0568 7.9942 15.0141C7.9983 15.0094 7.9983 15.0135 8.10999 15.0708Z" fill="#525252"/>
<path d="M8.01709 15.0098C8.0318 15.0175 8.05958 15.0322 8.11475 15.0605V15.0615L8.29834 15.1523H8.29932C8.29989 15.1526 8.30029 15.1538 8.30127 15.1543C8.30364 15.1555 8.30758 15.157 8.31201 15.1592C8.32078 15.1635 8.33329 15.1695 8.34814 15.1768C8.37837 15.1916 8.41881 15.2115 8.4585 15.2305L9.11182 15.5352C9.32494 15.6306 9.52798 15.7178 9.70361 15.792C9.87913 15.8662 10.0278 15.9273 10.1323 15.9697C10.1842 15.9908 10.2253 16.0073 10.2534 16.0186C10.2673 16.0241 10.2783 16.0284 10.2856 16.0312C10.2893 16.0327 10.2926 16.0344 10.2944 16.0352L10.2964 16.0361H10.2974L10.814 16.2324C10.9209 16.273 10.9917 16.3029 11.1118 16.3633L11.3306 16.4785C11.5462 16.5996 11.7522 16.7375 11.9468 16.8906L12.1685 17.085C12.384 17.2864 12.5795 17.5087 12.7515 17.749L12.9028 17.9658C13.0502 18.1862 13.1831 18.4168 13.2993 18.6553H13.2983C13.56 19.164 13.7089 19.5917 13.8843 20.0908L14.0776 20.6768L14.2446 21.2568C14.2889 21.4214 14.3232 21.557 14.3501 21.6641L14.5835 22.5684C14.7704 23.2694 14.8337 23.4526 14.9175 23.958L14.9741 24.3359C14.9895 24.4505 15.0014 24.553 15.0103 24.6387C15.0191 24.7244 15.025 24.7939 15.0278 24.8418C15.0292 24.8656 15.0298 24.8845 15.0298 24.8975C15.0298 24.9038 15.0293 24.9092 15.0288 24.9131C15.0286 24.9149 15.0284 24.9171 15.0278 24.9189C15.0275 24.9198 15.0269 24.9214 15.0259 24.9229C15.0249 24.9243 15.0225 24.9271 15.0181 24.9277C15.0124 24.9286 15.0084 24.925 15.0073 24.9238C15.0064 24.9227 15.0058 24.9217 15.0054 24.9209C15.0046 24.9192 15.004 24.9169 15.0034 24.915C15.0021 24.9107 15.0001 24.9041 14.9985 24.8965C14.9953 24.8811 14.9909 24.8583 14.9858 24.8291C14.9756 24.7705 14.9623 24.6847 14.9429 24.5781C14.9235 24.4716 14.8982 24.3439 14.8677 24.2002L14.7573 23.7266C14.7161 23.5661 14.6751 23.4195 14.6313 23.2764L14.4907 22.8457C14.2568 22.159 14.0831 21.6431 13.9331 21.25C13.8205 20.9549 13.7215 20.729 13.6206 20.5527L13.5181 20.3926C13.1797 19.9172 12.5986 19.1002 11.6948 18.8477V18.8467C11.6435 18.8326 10.77 18.5899 10.1362 18.335L9.88037 18.2256L9.80615 18.1895H9.80518C9.57271 18.071 9.35162 17.9319 9.14404 17.7744L8.94092 17.6104C8.76093 17.4473 8.60335 17.2058 8.47021 16.9355C8.33709 16.6653 8.22768 16.3657 8.14502 16.085C8.06233 15.8041 8.00577 15.5414 7.97803 15.3467C7.96424 15.2498 7.95776 15.1693 7.9585 15.1113C7.95888 15.0824 7.96088 15.0577 7.96533 15.04C7.96754 15.0314 7.97034 15.0237 7.97412 15.0176C7.97687 15.0132 7.98144 15.0106 7.98584 15.0078V15.0068C7.98636 15.0062 7.98843 15.0042 7.9917 15.0029C7.99537 15.0016 7.99928 15.0014 8.00146 15.002C8.00524 15.003 8.0104 15.0063 8.01709 15.0098Z" stroke="#636363" stroke-width="0.0221675"/>
</g>
<g filter="url(#filter4_d_3187_5331)">
<path d="M14.5303 21.6512C14.5344 21.6793 14.5514 21.7939 14.576 21.953C14.5894 22.039 14.6286 22.2857 14.6882 22.6132C14.7029 22.6945 14.7181 22.7752 14.7327 22.8559C14.7877 23.1875 14.8356 23.4951 14.876 23.7659C14.9719 24.4091 15.0239 24.8454 15.0204 24.9126C15.0204 24.9185 15.0204 24.9214 15.0175 24.9208C15.0084 24.8973 15.0011 24.873 14.9958 24.8483C14.9801 24.7799 14.9549 24.667 14.9204 24.5068C14.9175 24.4928 14.9146 24.4787 14.9116 24.4635V24.4583C14.904 24.422 14.8958 24.3834 14.8871 24.3413C14.8333 24.0893 14.7619 23.7524 14.6701 23.3278V23.3202C14.6701 23.3103 14.666 23.2992 14.6637 23.2881C14.6467 23.2085 14.6286 23.1261 14.6099 23.0395C14.3099 21.6711 14.1684 20.9846 14.0871 20.7325C13.9818 20.4039 13.8672 20.0483 13.7315 19.6799C13.3368 18.6156 12.7631 17.4711 11.7192 16.7278C11.6859 16.7039 11.6514 16.6805 11.6169 16.6577C11.1251 16.329 10.7695 16.2331 10.0432 15.9448C9.57888 15.76 8.96192 15.4963 8.06134 15.0425C7.99701 15.0091 7.9321 14.977 7.86836 14.9425L7.82333 14.9179L7.80403 14.9068L7.7397 14.8705L7.67596 14.8331L7.64379 14.8132L7.62333 14.8004L7.59877 14.7846C7.56134 14.76 7.52333 14.7337 7.48648 14.7062C7.44964 14.6787 7.40286 14.6431 7.36017 14.6074C7.35703 14.6044 7.35371 14.6017 7.35023 14.5992L7.34262 14.5928L7.32274 14.5752C7.31823 14.5718 7.31411 14.5679 7.31046 14.5635C7.28005 14.5366 7.23853 14.498 7.1935 14.4542L7.1742 14.4349C7.16836 14.4278 7.16134 14.4214 7.15549 14.415C7.1321 14.3904 7.10929 14.3647 7.08707 14.339C7.0852 14.3373 7.08362 14.3353 7.08239 14.3331C7.07242 14.3227 7.06304 14.3118 7.05432 14.3004C6.86147 14.0609 6.70011 13.7978 6.5742 13.5173C6.56953 13.5074 6.56543 13.4974 6.56192 13.4893C6.55841 13.4811 6.559 13.4811 6.55724 13.4776L6.54613 13.4512C6.54613 13.4512 6.54146 13.4401 6.53736 13.4278C6.4448 13.1841 6.37549 12.9321 6.33034 12.6752C6.31806 12.5793 6.30637 12.4805 6.29584 12.3828C6.28415 12.2659 6.2742 12.1489 6.2666 12.0366C6.35198 12.0752 6.48064 12.1302 6.63853 12.191C7.05374 12.3495 7.31572 12.4086 7.59643 12.4945C7.91986 12.5973 8.23614 12.7214 8.54321 12.8659C9.06678 13.0948 9.57316 13.3612 10.0584 13.6629C10.457 13.9148 10.8389 14.1922 11.2017 14.4933C11.2935 14.5705 11.4356 14.6916 11.621 14.8629C12.0792 15.2876 12.4848 15.7656 12.8292 16.2869C13.1537 16.7945 13.3941 17.3811 13.576 17.9542C13.7163 18.3951 13.8455 18.8395 13.9701 19.2852C14.1181 19.8115 14.2596 20.3442 14.3795 20.8793C14.4368 21.1349 14.4923 21.3922 14.5303 21.6512Z" fill="#525252"/>
<path d="M6.27148 12.0269C6.35666 12.0653 6.48517 12.1195 6.64258 12.1802L6.92773 12.2827C7.18915 12.37 7.38864 12.4193 7.59961 12.4839L7.8418 12.5649C8.08181 12.6501 8.31734 12.7475 8.54785 12.856L8.9375 13.0347C9.32386 13.2205 9.70021 13.4273 10.0645 13.6538L10.3604 13.8472C10.6533 14.0458 10.9366 14.2587 11.209 14.4849L11.6289 14.855L11.9629 15.1841C12.1788 15.4097 12.3809 15.6481 12.5684 15.8979L12.8389 16.2808L12.957 16.4751C13.2235 16.9362 13.4276 17.4488 13.5869 17.9507L13.79 18.6147C13.8554 18.8365 13.9182 19.0591 13.9805 19.2817L14.1963 20.0757C14.2652 20.3417 14.3306 20.6088 14.3906 20.8765L14.4727 21.2622C14.4985 21.3909 14.522 21.5203 14.541 21.6499L14.5869 21.9517L14.6992 22.6108L14.7432 22.854L14.8867 23.7642L14.9961 24.5542C15.0084 24.653 15.0175 24.734 15.0234 24.7944C15.0292 24.8539 15.0321 24.8945 15.0312 24.9126V24.9165C15.0312 24.9178 15.0308 24.9205 15.0303 24.9224C15.0297 24.9243 15.0287 24.9279 15.0254 24.9302C15.0219 24.9325 15.018 24.9325 15.0156 24.9321L14.998 24.9282L15.0059 24.9243L14.9854 24.8511L14.9092 24.5093C14.9063 24.4953 14.9033 24.4806 14.9004 24.4653V24.4604L14.876 24.3433C14.8222 24.0913 14.7509 23.7547 14.6592 23.3306V23.3198C14.6591 23.3163 14.6584 23.3122 14.6572 23.3071C14.6561 23.3025 14.6535 23.2962 14.6523 23.2905V23.2896L14.5986 23.0415C14.3735 22.0146 14.2384 21.3722 14.1504 21.0093L14.0762 20.7358C14.0236 20.5717 13.9688 20.4008 13.9102 20.2251L13.7207 19.6841C13.3508 18.6868 12.8246 17.6205 11.9023 16.8804L11.7129 16.7368L11.6104 16.6665C11.3654 16.5028 11.1545 16.3972 10.9141 16.2964L10.0391 15.9556C9.69056 15.8169 9.25621 15.6333 8.68066 15.3589L8.05664 15.0522L7.86328 14.9526L7.81836 14.9272H7.81738L7.79883 14.9165L7.73438 14.8804L7.66992 14.8423L7.6377 14.8228L7.61719 14.8101L7.59277 14.7935C7.55523 14.7688 7.5165 14.7429 7.47949 14.7153C7.44267 14.6879 7.39634 14.6515 7.35352 14.6157H7.35254C7.34973 14.6131 7.34686 14.6102 7.34375 14.6079H7.34277L7.33594 14.6011H7.33496L7.31641 14.5845L7.30273 14.5718L7.18555 14.4624L7.16602 14.4429V14.4419C7.16339 14.4387 7.16042 14.4354 7.15723 14.4321L7.14746 14.4224C7.124 14.3977 7.10128 14.3719 7.0791 14.3462V14.3452C7.07689 14.343 7.07379 14.3411 7.07227 14.3384V14.3374L7.0459 14.3071C6.90087 14.1271 6.77288 13.9341 6.66504 13.73L6.56445 13.522C6.55967 13.5118 6.55518 13.5016 6.55176 13.4937C6.54989 13.4893 6.54941 13.4865 6.54883 13.4849L6.54688 13.4829V13.4819L6.53613 13.4556V13.4546L6.53516 13.4536C6.53464 13.4523 6.53407 13.45 6.5332 13.4478C6.53149 13.4434 6.52845 13.4374 6.52637 13.4312V13.4302C6.45707 13.2474 6.40028 13.0602 6.35742 12.8696L6.31934 12.6772V12.6763L6.28516 12.3843C6.27346 12.2673 6.26347 12.1499 6.25586 12.0376L6.25391 12.019L6.27148 12.0269Z" stroke="#636363" stroke-width="0.0221675" stroke-miterlimit="10"/>
</g>
<g filter="url(#filter5_d_3187_5331)">
<path d="M21.9386 14.9451C21.9 14.965 21.8515 14.9884 21.7556 15.0357L21.5948 15.1147C20.7263 15.5381 19.7556 15.92 19.7556 15.92C19.2217 16.1299 19.1813 16.1264 18.9415 16.2469C18.6462 16.3939 18.3669 16.5713 18.1082 16.7761C17.8041 17.0248 17.5343 17.3126 17.3059 17.6322C17.0966 17.917 16.9136 18.2202 16.7591 18.5381C16.4977 19.0468 16.3497 19.4767 16.1743 19.9737C16.1357 20.0831 16.0644 20.2925 15.9813 20.5585C15.8439 21.003 15.7626 21.3322 15.7088 21.5457C15.3281 23.0632 15.2532 23.1661 15.1415 23.8398C15.0521 24.379 15.0199 24.7948 15.0316 24.7966C15.0433 24.7983 15.1053 24.2849 15.2801 23.603C15.3626 23.2819 15.4462 23.0182 15.5474 22.7211C16.0152 21.348 16.2421 20.6568 16.5205 20.265C16.8585 19.7901 17.4415 18.9697 18.3497 18.7159C18.3989 18.7024 19.5398 18.3849 20.1626 18.0942L20.2375 18.058C20.5481 17.8983 20.8385 17.702 21.1024 17.4732C21.8164 16.8258 22.1842 14.9276 22.0562 14.8843C22.0503 14.8843 22.0503 14.8884 21.9386 14.9451Z" fill="#525252"/>
<path d="M22.0596 14.8735L22.0762 14.8882C22.0799 14.8943 22.0828 14.902 22.085 14.9106C22.0894 14.9283 22.0924 14.9521 22.0928 14.981C22.0936 15.039 22.0861 15.1201 22.0723 15.2173C22.0445 15.4121 21.988 15.6747 21.9053 15.9556C21.8226 16.2362 21.7141 16.536 21.5811 16.8062C21.4479 17.0764 21.2894 17.3178 21.1094 17.481V17.4819C20.9112 17.6538 20.6981 17.8074 20.4727 17.9409L20.2422 18.0679L20.167 18.104C19.8549 18.2496 19.4136 18.4025 19.0439 18.52L18.3525 18.7261C17.6748 18.9155 17.1786 19.4227 16.8301 19.8647L16.5293 20.271C16.391 20.4657 16.2652 20.7361 16.1152 21.1294C16.0403 21.3259 15.9595 21.5531 15.8682 21.8169L15.5576 22.7251C15.5071 22.8736 15.4608 23.0136 15.417 23.1567L15.291 23.606C15.2037 23.9465 15.1442 24.2453 15.1055 24.4585C15.0861 24.5649 15.0717 24.6499 15.0615 24.7085C15.0565 24.7376 15.053 24.7605 15.0498 24.7759C15.0482 24.7835 15.0462 24.7901 15.0449 24.7944C15.0443 24.7964 15.0438 24.7986 15.043 24.8003C15.0425 24.8011 15.0413 24.8028 15.04 24.8042C15.0387 24.8055 15.0353 24.8078 15.0303 24.8071C15.0258 24.8065 15.0235 24.8037 15.0225 24.8022C15.0214 24.8007 15.0208 24.7993 15.0205 24.7983C15.0199 24.7965 15.0188 24.7943 15.0186 24.7925C15.0181 24.7886 15.0186 24.7831 15.0186 24.7769C15.0185 24.7639 15.0191 24.7449 15.0205 24.7212C15.0233 24.6734 15.0292 24.6045 15.0381 24.519C15.0559 24.3473 15.0861 24.1081 15.1309 23.8384L15.2129 23.4087C15.299 23.0237 15.4129 22.6809 15.6982 21.5435L15.8027 21.1362C15.847 20.9715 15.9019 20.7777 15.9707 20.5552L16.1641 19.9702L16.4238 19.2563C16.4697 19.1396 16.5188 19.0227 16.5723 18.9028L16.749 18.5327C16.9038 18.2144 17.0873 17.9107 17.2969 17.6255L17.4766 17.3911C17.6634 17.1633 17.8731 16.9539 18.1016 16.7671L18.2998 16.6187C18.5018 16.4752 18.7146 16.3474 18.9365 16.2368L19.0908 16.1646C19.2288 16.1047 19.3526 16.0667 19.752 15.9097L19.7539 15.9087C19.7558 15.908 19.759 15.9062 19.7627 15.9048C19.77 15.9019 19.781 15.8977 19.7949 15.8921C19.8231 15.8808 19.8648 15.8644 19.917 15.8433C20.0215 15.8009 20.1695 15.7396 20.3447 15.6655C20.6958 15.5172 21.1559 15.3165 21.5898 15.105L21.751 15.0259L21.9336 14.9351L22.0312 14.8833C22.0383 14.8794 22.043 14.8769 22.0459 14.8755C22.0493 14.8738 22.0528 14.8735 22.0566 14.8735H22.0596Z" stroke="#636363" stroke-width="0.0221675"/>
</g>
<g filter="url(#filter6_d_3187_5331)">
<path d="M16.3318 17.2262C16.3073 17.4016 16.288 17.577 16.2768 17.7496C16.2517 18.1396 16.2184 18.5303 16.1733 18.9191C16.2318 18.5917 16.3792 18.2262 16.5283 17.8221C16.6242 17.5618 16.6774 17.3174 16.7827 17.1063C16.879 16.8283 17.009 16.5632 17.1698 16.3168C17.4276 15.8232 17.71 15.3428 18.016 14.8776C18.0798 14.7817 18.1447 14.6852 18.2114 14.5893C18.7961 13.7414 19.2804 13.0414 19.8301 12.4121C20.2982 11.8714 20.8259 11.3852 21.4032 10.963C21.7695 10.6956 22.1506 10.449 22.5447 10.2244C23.6681 9.58113 24.6558 9.2092 25.3336 8.62207C25.6891 8.32515 25.9559 7.93607 26.1049 7.49751C26.1558 7.34955 26.4973 6.29341 25.9558 5.43844C25.3681 4.50979 24.002 4.23786 23.216 4.29926C20.0581 4.54663 17.9809 10.8525 16.864 14.6607C16.8638 14.6628 16.8638 14.665 16.864 14.6671C16.8347 14.7665 16.8059 14.8659 16.7774 14.9653C16.7611 15.0139 16.7488 15.0636 16.7342 15.1127C16.7061 15.2098 16.6757 15.3063 16.6546 15.4051C16.6336 15.5039 16.6178 15.5952 16.6008 15.6905C16.5839 15.7858 16.564 15.894 16.5459 15.9963C16.5277 16.0987 16.509 16.1998 16.4903 16.3022C16.4716 16.4045 16.4535 16.5057 16.4353 16.608C16.3961 16.8115 16.3605 17.018 16.3318 17.2262Z" fill="#525252"/>
<path d="M23.3696 4.28027C23.7441 4.27217 24.2133 4.33259 24.6636 4.4873C25.1782 4.66418 25.6697 4.96542 25.9653 5.43262L26.0571 5.5957C26.2489 5.98108 26.2843 6.39152 26.2632 6.7334C26.2511 6.92892 26.2208 7.10262 26.1899 7.23633L26.1157 7.50098C25.9661 7.94142 25.6973 8.33167 25.3403 8.62988L25.3413 8.63086C25.0015 8.92526 24.5839 9.16533 24.1118 9.41211C23.7574 9.5974 23.3717 9.78632 22.9644 10.0049L22.5503 10.2344C22.2551 10.4026 21.9669 10.5829 21.687 10.7754L21.4097 10.9717C20.905 11.3408 20.4382 11.759 20.0161 12.2197L19.8384 12.4189C19.4265 12.8904 19.0516 13.4024 18.6431 13.9863L18.2202 14.5957L18.0249 14.8838C17.7191 15.3486 17.4367 15.8291 17.1792 16.3223V16.3232C17.019 16.5688 16.8895 16.8333 16.7935 17.1104L16.7925 17.1113C16.7403 17.216 16.701 17.3293 16.6626 17.4492L16.5386 17.8262C16.3893 18.2307 16.2423 18.5948 16.1841 18.9209L16.1626 18.918L16.2212 18.334C16.2383 18.139 16.2535 17.944 16.2661 17.749L16.2886 17.4873C16.2979 17.4 16.3085 17.3123 16.3208 17.2246L16.3687 16.9131C16.386 16.81 16.4047 16.7072 16.4243 16.6055C16.4424 16.5033 16.4603 16.402 16.479 16.2998L16.5903 15.6885C16.6073 15.5933 16.623 15.5014 16.644 15.4023C16.6652 15.3032 16.6952 15.2059 16.7231 15.1094L16.7671 14.9619L16.853 14.6641V14.6572L17.0737 13.916C17.6152 12.1278 18.3428 9.96344 19.2651 8.13965C19.7922 7.09753 20.3832 6.16603 21.0405 5.47949C21.6978 4.79296 22.4221 4.35022 23.2153 4.28809L23.3696 4.28027Z" stroke="#636363" stroke-width="0.0221675"/>
</g>
<g filter="url(#filter7_d_3187_5331)">
<path d="M15.5375 21.5343C15.5334 21.5624 15.5165 21.677 15.4919 21.8361C15.4785 21.9221 15.4393 22.1688 15.3796 22.4963C15.365 22.5782 15.3498 22.6589 15.3346 22.739C15.2802 23.0712 15.2323 23.3782 15.1919 23.649C15.096 24.2922 15.0358 24.8332 15.0393 24.9004C15.0393 24.9063 15.0492 24.8051 15.0504 24.8045C15.0504 24.8045 15.0375 24.9039 15.0381 24.9022C15.0387 24.9004 15.0627 24.7688 15.0726 24.7297C15.0884 24.6612 15.1135 24.5484 15.148 24.3881C15.148 24.3741 15.1539 24.3607 15.1568 24.3455V24.3396C15.1644 24.3034 15.1726 24.2653 15.1814 24.2226C15.2352 23.97 15.3065 23.6338 15.3983 23.2086V23.201C15.3983 23.1911 15.4024 23.1805 15.4048 23.1688C15.4217 23.0893 15.4399 23.0069 15.4586 22.9203C15.7586 21.5519 15.9001 20.8659 15.9814 20.6133C16.0866 20.2852 16.2007 19.9291 16.3369 19.5607C16.7317 18.4957 17.3054 17.3513 18.3492 16.6086C18.3825 16.5846 18.4171 16.5612 18.4516 16.5379C18.9434 16.2092 19.2989 16.1133 20.0252 15.825C20.4896 15.6402 21.1065 15.3764 22.0071 14.9226C22.0714 14.8899 22.1364 14.8577 22.2001 14.8226L22.2451 14.7981C22.2517 14.7949 22.2582 14.7914 22.2644 14.7876L22.3287 14.7507C22.3498 14.739 22.3714 14.7262 22.3925 14.7133C22.403 14.7074 22.4141 14.7004 22.4247 14.6934L22.4451 14.6805L22.4697 14.6648C22.5071 14.6402 22.5451 14.6139 22.582 14.587C22.6188 14.5601 22.6656 14.5238 22.7083 14.4876L22.7182 14.4794L22.7258 14.4729L22.7457 14.4554C22.7502 14.4522 22.7543 14.4484 22.758 14.4443C22.7884 14.4168 22.8299 14.3782 22.8749 14.3343C22.8814 14.3279 22.8872 14.3209 22.8937 14.315C22.9001 14.3092 22.9065 14.3022 22.9124 14.2952C22.9364 14.2706 22.9592 14.2455 22.9814 14.2191L22.9861 14.2139C22.996 14.2028 23.0054 14.1922 23.0141 14.1805C23.2071 13.9412 23.3685 13.678 23.4942 13.3975L23.5065 13.37C23.5065 13.3653 23.5095 13.3612 23.5112 13.3577L23.5223 13.3314C23.5223 13.3314 23.527 13.3203 23.5311 13.3086C23.6252 13.0652 23.6961 12.8134 23.7428 12.5566C23.7545 12.4607 23.7662 12.3618 23.7767 12.2642C23.789 12.1472 23.7989 12.0302 23.8065 11.918C23.7211 11.9566 23.5925 12.0115 23.4346 12.0724C23.0194 12.2314 22.7574 12.2899 22.4767 12.3759C22.1515 12.4793 21.7094 12.6553 21.4006 12.8004C20.8781 13.0299 20.4968 13.245 20.0124 13.5466C19.6136 13.7985 19.2317 14.0761 18.8691 14.3776C18.7773 14.4542 18.6352 14.5759 18.4498 14.7466C17.9235 15.2384 17.441 15.7957 17.0825 16.4226C17.0732 16.439 17.0638 16.4554 17.0551 16.4718C16.7463 17.0232 16.5586 17.6308 16.3749 18.2326C16.2299 18.7078 16.0935 19.1856 15.9656 19.6659C15.82 20.2092 15.6779 20.7554 15.5767 21.3086C15.5615 21.3835 15.5486 21.4589 15.5375 21.5343Z" fill="#525252"/>
<path d="M23.5068 13.3701L23.5166 13.375L23.5039 13.4023C23.3779 13.6834 23.2158 13.9467 23.0225 14.1865L23.0234 14.1875L22.9941 14.2217L22.9893 14.2256L22.9902 14.2266C22.968 14.2529 22.9439 14.2771 22.9199 14.3018L22.9209 14.3027C22.9149 14.3099 22.9082 14.317 22.9014 14.3232L22.8828 14.3418C22.8378 14.3856 22.7961 14.4246 22.7656 14.4521C22.7616 14.4567 22.7569 14.4613 22.752 14.4648L22.7334 14.4814L22.7256 14.4883L22.7148 14.4951L22.7158 14.4961C22.673 14.5324 22.6258 14.5687 22.5889 14.5957L22.4756 14.6738L22.4512 14.6895L22.4307 14.7031L22.4297 14.7021C22.4193 14.7091 22.4081 14.7158 22.3975 14.7217L22.3984 14.7227L22.334 14.7607L22.2695 14.7959L22.2705 14.7969L22.25 14.8076L22.2051 14.832L22.0117 14.9326C21.3362 15.273 20.82 15.5062 20.4082 15.6797L20.0293 15.835C19.393 16.0875 19.0429 16.1929 18.6367 16.4346L18.458 16.5469L18.3555 16.6172C17.4444 17.2654 16.8921 18.2212 16.5039 19.1631L16.3477 19.5645C16.2796 19.7485 16.2169 19.9295 16.1582 20.1055L15.9922 20.6162C15.9517 20.7422 15.8955 20.9768 15.8125 21.3506L15.4697 22.9229L15.416 23.1709C15.4148 23.177 15.4123 23.1837 15.4111 23.1885C15.4099 23.1935 15.4092 23.1977 15.4092 23.2012V23.2109L15.1924 24.2246C15.1836 24.2673 15.1755 24.3057 15.168 24.3418V24.3477C15.1664 24.3557 15.1638 24.3637 15.1621 24.3701C15.1604 24.3767 15.1592 24.3823 15.1592 24.3877V24.3906L15.083 24.7324C15.0781 24.7517 15.0698 24.794 15.0625 24.832C15.0589 24.8509 15.0562 24.8687 15.0537 24.8818C15.0533 24.8842 15.0521 24.8866 15.0518 24.8887V24.8896C15.0513 24.8938 15.0511 24.8972 15.0508 24.8994C15.0506 24.9005 15.0509 24.9016 15.0508 24.9023L15.0498 24.9033V24.9053C15.0497 24.9055 15.0486 24.9063 15.0479 24.9072L15.0469 24.9092C15.0461 24.91 15.0442 24.9114 15.043 24.9121C15.0404 24.913 15.0349 24.9123 15.0322 24.9111C15.0308 24.91 15.029 24.9083 15.0283 24.9072C15.0276 24.9056 15.0274 24.9035 15.0273 24.9033V24.8975C15.0276 24.895 15.0278 24.8911 15.0283 24.8867C15.0288 24.8831 15.0297 24.8785 15.0303 24.874C15.0314 24.8495 15.0327 24.8124 15.0371 24.7656C15.0438 24.6953 15.0541 24.6012 15.0674 24.4893C15.094 24.2652 15.1327 23.9691 15.1807 23.6475L15.3232 22.7373L15.3691 22.4941L15.4805 21.834L15.5264 21.5332L15.5654 21.3066L15.6484 20.8926C15.738 20.4798 15.8459 20.0706 15.9551 19.6631L16.1533 18.9443C16.2215 18.7054 16.2917 18.4671 16.3643 18.2295L16.5049 17.7773C16.6496 17.3268 16.8131 16.881 17.0449 16.4668L17.0732 16.417L17.2129 16.1846C17.5532 15.6502 17.9814 15.1691 18.4424 14.7383L18.8623 14.3691L19.1377 14.1475C19.4171 13.9301 19.7074 13.7262 20.0068 13.5371L20.3545 13.3252C20.6907 13.1266 21.0034 12.9623 21.3955 12.79L21.6484 12.6768C21.9187 12.561 22.2293 12.4429 22.4736 12.3652L22.9023 12.2412C23.0546 12.196 23.2234 12.1409 23.4307 12.0615L23.8018 11.9082L23.8184 11.9004L23.8174 11.9189L23.7881 12.2656C23.7776 12.3632 23.7656 12.4619 23.7539 12.5576V12.5586C23.7071 12.8158 23.6352 13.0677 23.541 13.3115L23.542 13.3125C23.5399 13.3184 23.5369 13.3238 23.5352 13.3281C23.5343 13.3303 23.5337 13.3327 23.5332 13.334V13.335L23.5322 13.3359L23.5215 13.3623L23.5176 13.3701V13.375L23.5068 13.3701Z" stroke="#636363" stroke-width="0.0221675"/>
</g>
<path d="M14.2187 28.7208C14.2203 28.7292 14.2203 28.738 14.2187 28.7464L14.204 28.7706L14.186 28.7922L14.1657 28.8124C14.1462 28.8332 14.125 28.8517 14.1024 28.8676C14.0789 28.8841 14.0544 28.8985 14.0291 28.9107C14.0041 28.9226 13.9785 28.932 13.9523 28.939C13.929 28.9455 13.9051 28.9492 13.8812 28.9497C13.8643 28.9515 13.8473 28.9515 13.8304 28.9497C13.811 28.946 13.7918 28.941 13.7728 28.9349L13.7175 28.9134C13.7013 28.9063 13.6858 28.8973 13.6712 28.8864C13.6712 28.8864 13.6644 28.9026 13.6576 28.9201C13.6509 28.9376 13.643 28.9592 13.6328 28.9861L13.5989 29.079C13.5854 29.114 13.5718 29.1504 13.5583 29.1894C13.5289 29.2662 13.5018 29.3376 13.4747 29.4009L13.4025 29.5706C13.3938 29.5918 13.3836 29.6121 13.372 29.6311C13.3637 29.6445 13.3543 29.6567 13.3438 29.6675C13.3375 29.6757 13.3298 29.6821 13.3212 29.6864C13.3149 29.6881 13.3083 29.6881 13.302 29.6864C13.2892 29.6858 13.2767 29.6812 13.2659 29.6729C13.251 29.6608 13.2383 29.6452 13.2286 29.6271C13.2291 29.6195 13.2291 29.6118 13.2286 29.6042V29.5854C13.2264 29.5392 13.218 29.4937 13.2038 29.4507C13.1829 29.3772 13.1584 29.3053 13.1304 29.2352C13.1135 29.1948 13.0977 29.1517 13.0819 29.1073C13.0661 29.0629 13.0525 29.0184 13.0412 28.9726C13.0299 28.9268 13.0198 28.8905 13.0119 28.8541C13.0057 28.8223 13.0023 28.7898 13.0017 28.7572C13.0001 28.7375 13.0001 28.7176 13.0017 28.6979C13.0057 28.6778 13.0117 28.6583 13.0198 28.64C13.027 28.623 13.0369 28.6079 13.0491 28.5956C13.0615 28.5847 13.0766 28.579 13.092 28.5794C13.103 28.579 13.1139 28.5811 13.1242 28.5858C13.1345 28.5904 13.1439 28.5974 13.1519 28.6063C13.1596 28.616 13.1656 28.6274 13.1695 28.6399C13.1734 28.6524 13.1751 28.6657 13.1744 28.6791C13.1755 28.6898 13.1755 28.7006 13.1744 28.7114C13.1732 28.7227 13.1713 28.734 13.1688 28.745L13.162 28.7801C13.1615 28.7908 13.1615 28.8016 13.162 28.8124C13.162 28.8232 13.162 28.8393 13.162 28.8622C13.162 28.8851 13.1677 28.908 13.1722 28.9363C13.1767 28.9645 13.1823 28.9915 13.1902 29.0225C13.1981 29.0534 13.2072 29.0817 13.2173 29.1113C13.2275 29.141 13.2388 29.1679 13.2501 29.2029L13.2828 29.3012L13.3122 29.382C13.3212 29.4036 13.3314 29.4143 13.3314 29.4143C13.3314 29.4143 13.3393 29.4076 13.346 29.3941C13.3557 29.376 13.3644 29.3571 13.372 29.3376C13.381 29.3133 13.3923 29.2864 13.4025 29.2568C13.4126 29.2271 13.4262 29.1948 13.4375 29.1625L13.4702 29.0656L13.4984 28.9767L13.5188 28.912C13.5267 28.8905 13.5334 28.8689 13.5391 28.8487C13.5447 28.8285 13.5538 28.8097 13.5594 28.7922C13.5651 28.7747 13.573 28.7585 13.5786 28.745C13.5861 28.7275 13.5974 28.7126 13.6113 28.702C13.6245 28.692 13.6398 28.6869 13.6554 28.6871C13.6637 28.6866 13.6719 28.6889 13.6791 28.6939C13.6866 28.698 13.6938 28.703 13.7005 28.7087L13.7197 28.7275C13.726 28.7338 13.7328 28.7393 13.74 28.7437L13.7626 28.7599L13.7987 28.7801L13.8405 28.7976C13.8544 28.7994 13.8684 28.7994 13.8823 28.7976C13.9048 28.7998 13.9275 28.7998 13.95 28.7976C13.9703 28.7976 13.9895 28.7868 14.0076 28.7814C14.0257 28.776 14.0415 28.7666 14.0573 28.7572L14.1047 28.7329L14.1589 28.706C14.171 28.6998 14.1841 28.6966 14.1973 28.6966C14.2119 28.7019 14.2187 28.7087 14.2187 28.7208ZM14.4795 28.7208C14.4787 28.712 14.476 28.7037 14.4716 28.6966C14.4678 28.6869 14.4624 28.6782 14.4558 28.671C14.4488 28.6631 14.4412 28.6559 14.4332 28.6494C14.4264 28.6445 14.4186 28.6417 14.4106 28.6413C14.3929 28.6414 14.3754 28.6451 14.3587 28.6521C14.3434 28.6592 14.329 28.6687 14.3158 28.6804C14.3022 28.6906 14.2896 28.7028 14.2786 28.7168C14.2677 28.7305 14.2576 28.7448 14.2481 28.7599C14.2236 28.7981 14.2017 28.8386 14.1826 28.8811C14.1602 28.929 14.1402 28.9784 14.1228 29.0292C14.1062 29.0804 14.0915 29.1315 14.0787 29.1827C14.0682 29.2265 14.0625 29.2718 14.0618 29.3174C14.062 29.3274 14.0641 29.3373 14.068 29.3461C14.0719 29.355 14.0775 29.3627 14.0844 29.3686C14.1014 29.3834 14.122 29.391 14.1431 29.3901C14.1614 29.388 14.179 29.3801 14.1939 29.3672C14.2156 29.3491 14.236 29.3288 14.2548 29.3066C14.2777 29.2797 14.2988 29.2509 14.3181 29.2204C14.3391 29.189 14.3579 29.1557 14.3745 29.1208C14.4033 29.0584 14.4282 28.9936 14.449 28.9268C14.4691 28.8622 14.4795 28.7938 14.4795 28.7248V28.7208ZM15.1953 28.671C15.1925 28.6893 15.1883 28.7074 15.1828 28.7248C15.1738 28.7545 15.1614 28.7895 15.1456 28.8312C15.1298 28.873 15.1095 28.9188 15.0858 28.9659C15.063 29.016 15.0373 29.0641 15.009 29.11C14.9764 29.1634 14.9413 29.2147 14.904 29.2635C14.873 29.3025 14.8398 29.3389 14.8046 29.3726C14.7777 29.3977 14.7485 29.4194 14.7177 29.4372C14.6964 29.4503 14.6729 29.4577 14.6489 29.4588C14.6222 29.46 14.5957 29.4545 14.571 29.4426C14.5511 29.4313 14.534 29.4142 14.5213 29.3928C14.507 29.3662 14.4964 29.3371 14.4897 29.3066C14.4818 29.2716 14.4739 29.2312 14.4671 29.1841H14.4547C14.4298 29.2298 14.4027 29.2743 14.3734 29.3187C14.3456 29.3615 14.315 29.4015 14.2819 29.4386C14.2529 29.4713 14.2207 29.4998 14.186 29.5234C14.1561 29.5443 14.1223 29.5559 14.0878 29.5571C14.0694 29.5566 14.0511 29.5529 14.0336 29.5463C14.0146 29.5379 13.997 29.5256 13.9816 29.51C13.9655 29.4922 13.9521 29.4713 13.9421 29.448C13.9313 29.4192 13.9259 29.388 13.9263 29.3564C13.9267 29.3202 13.9301 29.2841 13.9365 29.2487C13.9427 29.2063 13.9514 29.1644 13.9624 29.1235C13.9737 29.079 13.9862 29.0346 14.0008 28.9888C14.0155 28.943 14.0302 28.9026 14.046 28.8622C14.0618 28.8218 14.0787 28.7868 14.0957 28.7545C14.1095 28.7268 14.1253 28.7007 14.1431 28.6764C14.1624 28.6518 14.1832 28.6289 14.2052 28.6077C14.2556 28.5573 14.3139 28.5193 14.3768 28.4959C14.4104 28.4834 14.4454 28.4771 14.4806 28.4771C14.4933 28.4761 14.5059 28.4788 14.5175 28.4849C14.5291 28.491 14.5393 28.5003 14.5472 28.5121C14.5645 28.5435 14.575 28.5796 14.5777 28.6171L14.5834 28.6319C14.5881 28.6376 14.5923 28.6439 14.5958 28.6508C14.601 28.6575 14.6052 28.6653 14.6082 28.6737C14.6116 28.6802 14.6136 28.6876 14.6139 28.6952C14.6133 28.7098 14.6114 28.7242 14.6082 28.7383L14.5935 28.7949C14.589 28.8146 14.5845 28.8375 14.58 28.8636C14.5763 28.8889 14.5744 28.9146 14.5743 28.9403C14.5743 28.9767 14.5743 29.0171 14.5743 29.0588C14.5743 29.0977 14.5773 29.1365 14.5834 29.1746C14.5887 29.2059 14.5991 29.2356 14.6139 29.2622C14.6213 29.2739 14.6311 29.2832 14.6423 29.2894C14.6536 29.2955 14.6659 29.2982 14.6782 29.2972C14.6959 29.2956 14.713 29.2887 14.7279 29.277C14.7512 29.2592 14.7731 29.2389 14.7934 29.2164C14.8196 29.1875 14.8444 29.1569 14.8679 29.1248C14.8966 29.0874 14.9237 29.0483 14.9492 29.0076C14.9791 28.961 15.007 28.9124 15.0327 28.8622L15.0937 28.7275C15.1117 28.6898 15.1264 28.6589 15.1388 28.6373C15.1512 28.6158 15.1614 28.601 15.1704 28.601L15.1811 28.6036L15.1896 28.6117C15.1915 28.6201 15.1915 28.6289 15.1896 28.6373V28.6467L15.1948 28.6602L15.1953 28.675V28.671ZM16.0691 29.3941C16.0692 29.4085 16.0656 29.4226 16.0589 29.4345C16.0519 29.4471 16.0427 29.4577 16.0318 29.4655C16.0207 29.4738 16.0085 29.4797 15.9957 29.483C15.9833 29.4879 15.9703 29.4902 15.9573 29.4898C15.921 29.4888 15.8849 29.482 15.8501 29.4696C15.8105 29.4561 15.7699 29.4372 15.727 29.417C15.6841 29.3968 15.6423 29.3699 15.5994 29.3443L15.4798 29.2716L15.3804 29.207C15.3599 29.193 15.3388 29.1804 15.3172 29.1692C15.3036 29.1802 15.2908 29.1923 15.2788 29.2056L15.2382 29.2568C15.2254 29.2746 15.2137 29.2935 15.2032 29.3133C15.1959 29.3262 15.1902 29.3403 15.1862 29.3551C15.1879 29.3739 15.1879 29.3928 15.1862 29.4116C15.1852 29.4282 15.1852 29.4449 15.1862 29.4615C15.1864 29.485 15.1845 29.5085 15.1806 29.5315C15.1774 29.5477 15.1712 29.5629 15.1625 29.5759C15.1544 29.5866 15.1438 29.5941 15.132 29.5975C15.1177 29.6021 15.1029 29.6043 15.088 29.6042C15.0805 29.6053 15.0728 29.6041 15.0657 29.6009C15.0586 29.5976 15.0523 29.5922 15.0474 29.5854C15.0414 29.566 15.0387 29.5454 15.0395 29.5248C15.0395 29.5019 15.0395 29.4695 15.0451 29.4278C15.0508 29.3861 15.0541 29.3389 15.0609 29.2864C15.0677 29.2339 15.0745 29.1746 15.0824 29.1127C15.0903 29.0507 15.0982 28.978 15.1061 28.9174C15.114 28.8568 15.1208 28.7828 15.1275 28.7141C15.1343 28.6454 15.1411 28.5794 15.1445 28.5148C15.1445 28.4977 15.1445 28.4748 15.1445 28.4461C15.1445 28.4178 15.1445 28.3868 15.1445 28.3559C15.1445 28.3249 15.1445 28.2899 15.1445 28.2576C15.1445 28.2252 15.1445 28.1916 15.1501 28.1606C15.1558 28.1296 15.1501 28.1027 15.1558 28.0784C15.1614 28.0542 15.1558 28.0354 15.1625 28.0205C15.1628 28.0079 15.1663 27.9956 15.1727 27.9855C15.1794 27.9744 15.1874 27.9644 15.1964 27.9559C15.2056 27.947 15.2159 27.9397 15.2269 27.9344C15.2372 27.9291 15.2484 27.9263 15.2596 27.9263C15.2694 27.9262 15.2791 27.929 15.2878 27.9344C15.2976 27.9395 15.3068 27.9463 15.3149 27.9546C15.3222 27.9617 15.3283 27.9704 15.333 27.9801C15.3372 27.9874 15.3399 27.9957 15.3409 28.0044C15.3401 28.0441 15.337 28.0837 15.3319 28.1229C15.3262 28.1714 15.3195 28.2252 15.3104 28.2872C15.3014 28.3491 15.2912 28.4124 15.2799 28.4838C15.2687 28.5552 15.2585 28.6252 15.2483 28.6993C15.2382 28.7733 15.2269 28.8474 15.2178 28.9215C15.2088 28.9955 15.202 29.0696 15.1964 29.1383C15.248 29.0856 15.297 29.0294 15.3432 28.9699C15.3872 28.912 15.4278 28.8568 15.464 28.803C15.5001 28.7491 15.534 28.6993 15.5656 28.6521C15.5972 28.605 15.6254 28.5632 15.6525 28.5282C15.6758 28.497 15.7019 28.469 15.7304 28.4447C15.7515 28.4255 15.7772 28.4146 15.8038 28.4138C15.8122 28.4135 15.8204 28.4164 15.8275 28.4218C15.8341 28.4262 15.8399 28.4321 15.8444 28.4393C15.8489 28.4462 15.8523 28.454 15.8546 28.4622C15.8555 28.4694 15.8555 28.4767 15.8546 28.4838C15.852 28.4995 15.8457 28.5139 15.8365 28.5255C15.8228 28.5497 15.8078 28.5726 15.7914 28.5942L15.7248 28.6804C15.6999 28.7127 15.6739 28.7437 15.648 28.776L15.5701 28.8703L15.5001 28.9524L15.4459 29.013L15.4177 29.044L15.4967 29.0979L15.6096 29.1625L15.7315 29.2298L15.8444 29.2904L15.9449 29.3349C15.9664 29.3447 15.9887 29.3514 16.0115 29.3551C16.025 29.3556 16.0383 29.3603 16.0499 29.3686L16.0642 29.379L16.0691 29.3982V29.3941ZM16.9993 28.6333C17 28.6418 17 28.6503 16.9993 28.6589C16.9979 28.6721 16.9957 28.6851 16.9926 28.6979C16.9926 28.7114 16.9869 28.7248 16.9835 28.7383C16.98 28.7493 16.977 28.7606 16.9745 28.772L16.9519 28.8393C16.944 28.8676 16.935 28.8972 16.9248 28.9295C16.9147 28.9619 16.9056 28.9955 16.8943 29.0305L16.8661 29.1437L16.8402 29.2393C16.8323 29.2689 16.8266 29.2945 16.821 29.3174L16.8006 29.3968C16.7927 29.4278 16.7848 29.4615 16.7747 29.4965C16.7645 29.5315 16.7555 29.5692 16.7453 29.6083C16.7352 29.6473 16.7261 29.685 16.716 29.7241C16.7058 29.7631 16.6968 29.7995 16.6866 29.8358L16.6618 29.9368C16.6618 29.957 16.6528 29.9786 16.6482 30.0028C16.6448 30.0258 16.6395 30.0484 16.6324 30.0702C16.6264 30.0896 16.6168 30.1071 16.6042 30.1213C16.5891 30.1364 16.5697 30.1441 16.55 30.1429C16.5411 30.1433 16.5323 30.14 16.5252 30.1335C16.5172 30.1282 16.5102 30.1208 16.5049 30.1119C16.4998 30.1031 16.4956 30.0936 16.4924 30.0836C16.4913 30.0733 16.4913 30.0629 16.4924 30.0527C16.4927 30.0311 16.4958 30.0098 16.5015 29.9894C16.5082 29.9638 16.5173 29.9355 16.5274 29.9045L16.559 29.8049C16.5703 29.7699 16.5816 29.7348 16.5918 29.7012C16.6019 29.6675 16.62 29.5961 16.6336 29.549C16.6471 29.5019 16.6595 29.4588 16.6697 29.4224C16.6798 29.3861 16.6877 29.3537 16.6934 29.3295C16.6981 29.3151 16.7015 29.3002 16.7036 29.2851V29.2676L16.6992 29.2627L16.6934 29.2608C16.6837 29.264 16.6747 29.27 16.6674 29.2783L16.6155 29.3187L16.5478 29.3712C16.5226 29.3903 16.4966 29.4079 16.4699 29.4238C16.4445 29.4402 16.4181 29.4541 16.3908 29.4655C16.3669 29.4759 16.3417 29.4813 16.3163 29.4817C16.283 29.4822 16.2499 29.4744 16.2192 29.4588C16.1931 29.4447 16.169 29.4256 16.1481 29.4022C16.1302 29.3798 16.1157 29.3538 16.1052 29.3255C16.0956 29.2996 16.0906 29.2716 16.0905 29.2433C16.0892 29.2173 16.0892 29.1912 16.0905 29.1652C16.0905 29.1329 16.0996 29.0979 16.1063 29.0615C16.1131 29.0252 16.121 28.9874 16.1312 28.9484C16.1413 28.9093 16.1504 28.8703 16.1605 28.8353C16.1707 28.8003 16.182 28.7652 16.1933 28.7329C16.2033 28.7059 16.215 28.6798 16.2283 28.6548C16.2397 28.632 16.2547 28.6119 16.2723 28.5956C16.2832 28.585 16.2966 28.5788 16.3107 28.5781C16.3205 28.5775 16.3303 28.5803 16.3389 28.5861C16.3461 28.5907 16.352 28.5977 16.3558 28.6063C16.3611 28.615 16.3643 28.6253 16.3649 28.636C16.366 28.648 16.366 28.6602 16.3649 28.6723C16.3623 28.6902 16.3573 28.7075 16.3502 28.7235L16.3163 28.8097C16.3028 28.8433 16.2892 28.8811 16.2746 28.9228C16.2605 28.9669 16.2484 29.0118 16.2384 29.0575C16.2322 29.0821 16.2281 29.1073 16.226 29.1329C16.225 29.1576 16.225 29.1823 16.226 29.207C16.2254 29.2252 16.2298 29.2431 16.2384 29.2581C16.2474 29.2718 16.2585 29.2832 16.2712 29.2918C16.2825 29.2996 16.2946 29.3055 16.3073 29.3093H16.3389C16.3651 29.3093 16.3911 29.3038 16.4157 29.2931C16.4413 29.2814 16.4662 29.2674 16.4902 29.2514C16.5147 29.2355 16.5384 29.2179 16.5613 29.1989C16.585 29.18 16.6076 29.1625 16.6302 29.1477C16.6517 29.1317 16.6725 29.1141 16.6923 29.0952C16.713 29.0745 16.7315 29.051 16.7476 29.0251C16.7572 29.0058 16.7655 28.9855 16.7724 28.9646C16.7815 28.9336 16.7916 28.9013 16.8006 28.8636C16.8097 28.8258 16.821 28.7881 16.8311 28.7491C16.8413 28.71 16.8503 28.6737 16.8571 28.6427C16.8637 28.612 16.876 28.5834 16.8932 28.5592C16.9036 28.544 16.9186 28.5343 16.935 28.5323C16.948 28.5317 16.9609 28.5354 16.9722 28.543C16.9808 28.5483 16.9876 28.5568 16.9914 28.5673C16.9963 28.5777 16.9993 28.5891 17.0005 28.601C17.0006 28.6131 17.0002 28.6252 16.9993 28.6373V28.6333Z" fill="#525252" fill-opacity="0.9"/>
<path d="M11.5896 27.1819C11.5921 27.1008 11.5633 27.0219 11.5092 26.9614C11.4814 26.9344 11.4485 26.9134 11.4124 26.8996C11.3762 26.8857 11.3377 26.8794 11.299 26.8809C11.2542 26.8769 11.2091 26.8846 11.1682 26.9032C11.1273 26.9219 11.0919 26.9509 11.0655 26.9873C11.0208 27.0663 10.9983 27.156 11.0006 27.2468C11.0026 27.3354 11.0192 27.4231 11.0499 27.5062C11.0821 27.6081 11.1247 27.7063 11.1771 27.7994C11.2216 27.8806 11.2765 27.9556 11.3405 28.0225L11.4132 27.9966C11.3605 27.9027 11.3179 27.8036 11.2861 27.7008C11.2495 27.5984 11.2311 27.4904 11.2316 27.3817V27.3687C11.2443 27.388 11.2637 27.4018 11.2861 27.4076H11.3509C11.3824 27.4077 11.4134 27.4009 11.4421 27.388C11.4707 27.375 11.4963 27.356 11.517 27.3324C11.5571 27.2916 11.5827 27.2387 11.5896 27.1819ZM12.2901 27.1819C12.2921 27.1416 12.2859 27.1014 12.2721 27.0635C12.2583 27.0257 12.2371 26.9909 12.2097 26.9614C12.182 26.9344 12.149 26.9134 12.1129 26.8996C12.0768 26.8857 12.0382 26.8794 11.9996 26.8809C11.9548 26.8769 11.9097 26.8846 11.8687 26.9032C11.8278 26.9219 11.7924 26.9509 11.766 26.9873C11.7213 27.0663 11.6989 27.156 11.7012 27.2468C11.7031 27.3354 11.7198 27.4231 11.7505 27.5062C11.7837 27.6077 11.8263 27.7058 11.8776 27.7994C11.923 27.8801 11.9779 27.955 12.0411 28.0225L12.1163 27.9966C12.0616 27.9034 12.0181 27.8041 11.9866 27.7008C11.95 27.5984 11.9316 27.4904 11.9321 27.3817V27.3687C11.9453 27.3875 11.9645 27.4012 11.9866 27.4076H12.054C12.0854 27.4072 12.1163 27.4002 12.1449 27.3873C12.1735 27.3744 12.1991 27.3557 12.2201 27.3324C12.2593 27.2913 12.2839 27.2384 12.2901 27.1819Z" fill="#525252"/>
<path d="M18.7008 27.1819C18.6989 27.1417 18.7051 27.1014 18.7189 27.0635C18.7327 27.0257 18.7539 26.991 18.7813 26.9614C18.809 26.9344 18.842 26.9134 18.8781 26.8996C18.9142 26.8857 18.9528 26.8794 18.9915 26.8809C19.0363 26.8769 19.0813 26.8846 19.1223 26.9032C19.1632 26.9219 19.1986 26.9509 19.225 26.9873C19.2697 27.0663 19.2921 27.156 19.2898 27.2468C19.2879 27.3354 19.2713 27.4231 19.2405 27.5062C19.2073 27.6077 19.1648 27.7059 19.1134 27.7994C19.0672 27.8795 19.0123 27.9544 18.9499 28.0226L18.8747 27.9966C18.9294 27.9035 18.9729 27.8042 19.0044 27.7008C19.041 27.5984 19.0594 27.4904 19.0589 27.3817V27.3687C19.0452 27.387 19.0261 27.4006 19.0044 27.4077H18.937C18.9056 27.4072 18.8747 27.4003 18.8461 27.3873C18.8175 27.3744 18.7919 27.3557 18.7709 27.3324C18.7317 27.2913 18.7071 27.2384 18.7008 27.1819ZM18.0003 27.1819C17.9969 27.1011 18.0247 27.0221 18.0781 26.9614C18.1065 26.9346 18.1399 26.9137 18.1765 26.8999C18.213 26.8861 18.2519 26.8796 18.2909 26.8809C18.3357 26.8769 18.3808 26.8846 18.4217 26.9032C18.4627 26.9219 18.4981 26.9509 18.5244 26.9873C18.5692 27.0663 18.5916 27.156 18.5893 27.2468C18.5874 27.3354 18.5707 27.4231 18.54 27.5062C18.5069 27.6082 18.4635 27.7064 18.4102 27.7994C18.3657 27.88 18.3117 27.9549 18.2494 28.0226L18.1741 27.9966C18.2277 27.9029 18.2712 27.8038 18.3039 27.7008C18.3404 27.5984 18.3588 27.4904 18.3583 27.3817V27.3687C18.3446 27.387 18.3256 27.4006 18.3039 27.4077H18.2364C18.205 27.4073 18.174 27.4005 18.1454 27.3875C18.1168 27.3746 18.0913 27.3558 18.0703 27.3324C18.0311 27.2913 18.0065 27.2384 18.0003 27.1819Z" fill="#525252"/>
</g>
<defs>
<filter id="filter0_d_3187_5331" x="3.59915" y="8.71777" width="10.2841" height="9.6728" filterUnits="userSpaceOnUse" color-interpolation-filters="sRGB">
<feFlood flood-opacity="0" result="BackgroundImageFix"/>
<feColorMatrix in="SourceAlpha" type="matrix" values="0 0 0 0 0 0 0 0 0 0 0 0 0 0 0 0 0 0 127 0" result="hardAlpha"/>
<feOffset dy="1.10837"/>
<feGaussianBlur stdDeviation="0.554187"/>
<feComposite in2="hardAlpha" operator="out"/>
<feColorMatrix type="matrix" values="0 0 0 0 0 0 0 0 0 0 0 0 0 0 0 0 0 0 0.12 0"/>
<feBlend mode="normal" in2="BackgroundImageFix" result="effect1_dropShadow_3187_5331"/>
<feBlend mode="normal" in="SourceGraphic" in2="effect1_dropShadow_3187_5331" result="shape"/>
</filter>
<filter id="filter1_d_3187_5331" x="16.0674" y="8.80322" width="10.164" height="9.65669" filterUnits="userSpaceOnUse" color-interpolation-filters="sRGB">
<feFlood flood-opacity="0" result="BackgroundImageFix"/>
<feColorMatrix in="SourceAlpha" type="matrix" values="0 0 0 0 0 0 0 0 0 0 0 0 0 0 0 0 0 0 127 0" result="hardAlpha"/>
<feOffset dy="1.10837"/>
<feGaussianBlur stdDeviation="0.554187"/>
<feComposite in2="hardAlpha" operator="out"/>
<feColorMatrix type="matrix" values="0 0 0 0 0 0 0 0 0 0 0 0 0 0 0 0 0 0 0.12 0"/>
<feBlend mode="normal" in2="BackgroundImageFix" result="effect1_dropShadow_3187_5331"/>
<feBlend mode="normal" in="SourceGraphic" in2="effect1_dropShadow_3187_5331" result="shape"/>
</filter>
<filter id="filter2_d_3187_5331" x="2.67288" y="4.38184" width="12.3437" height="16.8706" filterUnits="userSpaceOnUse" color-interpolation-filters="sRGB">
<feFlood flood-opacity="0" result="BackgroundImageFix"/>
<feColorMatrix in="SourceAlpha" type="matrix" values="0 0 0 0 0 0 0 0 0 0 0 0 0 0 0 0 0 0 127 0" result="hardAlpha"/>
<feOffset dy="1.10837"/>
<feGaussianBlur stdDeviation="0.554187"/>
<feComposite in2="hardAlpha" operator="out"/>
<feColorMatrix type="matrix" values="0 0 0 0 0 0 0 0 0 0 0 0 0 0 0 0 0 0 0.12 0"/>
<feBlend mode="normal" in2="BackgroundImageFix" result="effect1_dropShadow_3187_5331"/>
<feBlend mode="normal" in="SourceGraphic" in2="effect1_dropShadow_3187_5331" result="shape"/>
</filter>
<filter id="filter3_d_3187_5331" x="6.83889" y="14.9907" width="9.3105" height="12.1655" filterUnits="userSpaceOnUse" color-interpolation-filters="sRGB">
<feFlood flood-opacity="0" result="BackgroundImageFix"/>
<feColorMatrix in="SourceAlpha" type="matrix" values="0 0 0 0 0 0 0 0 0 0 0 0 0 0 0 0 0 0 127 0" result="hardAlpha"/>
<feOffset dy="1.10837"/>
<feGaussianBlur stdDeviation="0.554187"/>
<feComposite in2="hardAlpha" operator="out"/>
<feColorMatrix type="matrix" values="0 0 0 0 0 0 0 0 0 0 0 0 0 0 0 0 0 0 0.12 0"/>
<feBlend mode="normal" in2="BackgroundImageFix" result="effect1_dropShadow_3187_5331"/>
<feBlend mode="normal" in="SourceGraphic" in2="effect1_dropShadow_3187_5331" result="shape"/>
</filter>
<filter id="filter4_d_3187_5331" x="5.13381" y="12.001" width="11.0175" height="15.1586" filterUnits="userSpaceOnUse" color-interpolation-filters="sRGB">
<feFlood flood-opacity="0" result="BackgroundImageFix"/>
<feColorMatrix in="SourceAlpha" type="matrix" values="0 0 0 0 0 0 0 0 0 0 0 0 0 0 0 0 0 0 127 0" result="hardAlpha"/>
<feOffset dy="1.10837"/>
<feGaussianBlur stdDeviation="0.554187"/>
<feComposite in2="hardAlpha" operator="out"/>
<feColorMatrix type="matrix" values="0 0 0 0 0 0 0 0 0 0 0 0 0 0 0 0 0 0 0.12 0"/>
<feBlend mode="normal" in2="BackgroundImageFix" result="effect1_dropShadow_3187_5331"/>
<feBlend mode="normal" in="SourceGraphic" in2="effect1_dropShadow_3187_5331" result="shape"/>
</filter>
<filter id="filter5_d_3187_5331" x="13.8989" y="14.8623" width="9.31294" height="12.1733" filterUnits="userSpaceOnUse" color-interpolation-filters="sRGB">
<feFlood flood-opacity="0" result="BackgroundImageFix"/>
<feColorMatrix in="SourceAlpha" type="matrix" values="0 0 0 0 0 0 0 0 0 0 0 0 0 0 0 0 0 0 127 0" result="hardAlpha"/>
<feOffset dy="1.10837"/>
<feGaussianBlur stdDeviation="0.554187"/>
<feComposite in2="hardAlpha" operator="out"/>
<feColorMatrix type="matrix" values="0 0 0 0 0 0 0 0 0 0 0 0 0 0 0 0 0 0 0.12 0"/>
<feBlend mode="normal" in2="BackgroundImageFix" result="effect1_dropShadow_3187_5331"/>
<feBlend mode="normal" in="SourceGraphic" in2="effect1_dropShadow_3187_5331" result="shape"/>
</filter>
<filter id="filter6_d_3187_5331" x="15.043" y="4.26904" width="12.3452" height="16.8706" filterUnits="userSpaceOnUse" color-interpolation-filters="sRGB">
<feFlood flood-opacity="0" result="BackgroundImageFix"/>
<feColorMatrix in="SourceAlpha" type="matrix" values="0 0 0 0 0 0 0 0 0 0 0 0 0 0 0 0 0 0 127 0" result="hardAlpha"/>
<feOffset dy="1.10837"/>
<feGaussianBlur stdDeviation="0.554187"/>
<feComposite in2="hardAlpha" operator="out"/>
<feColorMatrix type="matrix" values="0 0 0 0 0 0 0 0 0 0 0 0 0 0 0 0 0 0 0.12 0"/>
<feBlend mode="normal" in2="BackgroundImageFix" result="effect1_dropShadow_3187_5331"/>
<feBlend mode="normal" in="SourceGraphic" in2="effect1_dropShadow_3187_5331" result="shape"/>
</filter>
<filter id="filter7_d_3187_5331" x="13.9077" y="11.8823" width="11.0317" height="15.2578" filterUnits="userSpaceOnUse" color-interpolation-filters="sRGB">
<feFlood flood-opacity="0" result="BackgroundImageFix"/>
<feColorMatrix in="SourceAlpha" type="matrix" values="0 0 0 0 0 0 0 0 0 0 0 0 0 0 0 0 0 0 127 0" result="hardAlpha"/>
<feOffset dy="1.10837"/>
<feGaussianBlur stdDeviation="0.554187"/>
<feComposite in2="hardAlpha" operator="out"/>
<feColorMatrix type="matrix" values="0 0 0 0 0 0 0 0 0 0 0 0 0 0 0 0 0 0 0.12 0"/>
<feBlend mode="normal" in2="BackgroundImageFix" result="effect1_dropShadow_3187_5331"/>
<feBlend mode="normal" in="SourceGraphic" in2="effect1_dropShadow_3187_5331" result="shape"/>
</filter>
<clipPath id="clip0_3187_5331">
<rect width="30" height="30" fill="white"/>
</clipPath>
</defs>
</svg>
