<svg id="Layer_1" enable-background="new 0 0 512 512" height="512" viewBox="0 0 512 512" width="512" xmlns="http://www.w3.org/2000/svg"><path d="m368.467 238.866h-80.333c-8.284 0-15-6.716-15-15v-80.333c0-9.447-7.687-17.133-17.134-17.133s-17.134 7.686-17.134 17.133v80.333c0 8.284-6.716 15-15 15h-80.333c-9.447 0-17.133 7.687-17.133 17.134s7.686 17.134 17.133 17.134h80.333c8.284 0 15 6.716 15 15v80.333c0 9.447 7.687 17.133 17.134 17.133s17.134-7.686 17.134-17.133v-80.333c0-8.284 6.716-15 15-15h80.333c9.447 0 17.133-7.687 17.133-17.134s-7.686-17.134-17.133-17.134z"/><path d="m256 0c-141.159 0-256 114.841-256 256s114.841 256 256 256 256-114.841 256-256-114.841-256-256-256zm112.467 303.134h-65.333v65.333c0 25.989-21.145 47.133-47.134 47.133s-47.134-21.144-47.134-47.133v-65.333h-65.333c-25.989 0-47.133-21.145-47.133-47.134s21.144-47.134 47.133-47.134h65.333v-65.333c0-25.989 21.145-47.133 47.134-47.133s47.134 21.144 47.134 47.133v65.333h65.333c25.989 0 47.133 21.145 47.133 47.134s-21.144 47.134-47.133 47.134z"/></svg>