<svg version="1.1" id="Capa_1" xmlns="http://www.w3.org/2000/svg" xmlns:xlink="http://www.w3.org/1999/xlink" x="0px" y="0px" viewBox="0 0 512 512" style="enable-background:new 0 0 512 512;" xml:space="preserve">
<g>
	<g>
		<path style="fill:none;stroke:#000000;stroke-width:22;stroke-linejoin:round;stroke-miterlimit:10;" d="M384.358,399.651H127.642&#10;&#9;&#9;&#9;c-22.091,0-40-17.909-40-40V207.12c0-44.183,35.817-80,80-80h176.715c44.183,0,80,35.817,80,80v152.531&#10;&#9;&#9;&#9;C424.358,381.742,406.449,399.651,384.358,399.651z"/>
		<path style="fill:none;stroke:#000000;stroke-width:22;stroke-linejoin:round;stroke-miterlimit:10;" d="M87.642,314.902H62.517&#10;&#9;&#9;&#9;C34.065,314.902,11,291.837,11,263.385v0c0-28.452,23.065-51.517,51.517-51.517h25.126"/>
		<path style="fill:none;stroke:#000000;stroke-width:22;stroke-linejoin:round;stroke-miterlimit:10;" d="M424.358,314.902h25.126&#10;&#9;&#9;&#9;c28.452,0,51.517-23.065,51.517-51.517v0c0-28.452-23.065-51.517-51.517-51.517h-25.126"/>
		<circle style="fill:none;stroke:#000000;stroke-width:22;stroke-linejoin:round;stroke-miterlimit:10;" cx="256" cy="41" r="30"/>
		
			<line style="fill:none;stroke:#000000;stroke-width:22;stroke-linejoin:round;stroke-miterlimit:10;" x1="256" y1="71" x2="256" y2="127.12"/>
		<path style="fill:none;stroke:#000000;stroke-width:22;stroke-linejoin:round;stroke-miterlimit:10;" d="M43.642,311.334v80.991&#10;&#9;&#9;&#9;c0,44.183,35.817,80,80,80h88.818"/>
	</g>
	<g>
		<path style="fill:none;stroke:#33CCCC;stroke-width:22;stroke-linecap:round;stroke-linejoin:round;stroke-miterlimit:10;" d="&#10;&#9;&#9;&#9;M319.539,305.739c-15.074,18.259-37.989,29.912-63.651,29.912c-25.535,0-48.351-11.539-63.428-29.643"/>
		
			<circle style="fill:none;stroke:#33CCCC;stroke-width:22;stroke-linecap:round;stroke-linejoin:round;stroke-miterlimit:10;" cx="187.461" cy="221.869" r="25"/>
		
			<circle style="fill:none;stroke:#33CCCC;stroke-width:22;stroke-linecap:round;stroke-linejoin:round;stroke-miterlimit:10;" cx="324.539" cy="221.869" r="25"/>
		<path style="fill:none;stroke:#33CCCC;stroke-width:22;stroke-linejoin:round;stroke-miterlimit:10;" d="M270.865,501h-29.729&#10;&#9;&#9;&#9;c-15.837,0-28.675-12.838-28.675-28.675v0c0-15.837,12.838-28.675,28.675-28.675h29.729c15.837,0,28.675,12.838,28.675,28.675v0&#10;&#9;&#9;&#9;C299.539,488.162,286.701,501,270.865,501z"/>
	</g>
</g>
<g>
</g>
<g>
</g>
<g>
</g>
<g>
</g>
<g>
</g>
<g>
</g>
<g>
</g>
<g>
</g>
<g>
</g>
<g>
</g>
<g>
</g>
<g>
</g>
<g>
</g>
<g>
</g>
<g>
</g>
</svg>