<?xml version="1.0" encoding="UTF-8" standalone="no"?>
<!-- Created with Inkscape (http://www.inkscape.org/) -->
<svg xmlns="http://www.w3.org/2000/svg" xmlns:svg="http://www.w3.org/2000/svg" version="1.1" id="svg2109" width="682.66669" height="682.66669" viewBox="0 0 682.66669 682.66669">
  <defs id="defs2113">
    <clipPath clipPathUnits="userSpaceOnUse" id="clipPath2123">
      <path d="M 0,512 H 512 V 0 H 0 Z" id="path2121"/>
    </clipPath>
  </defs>
  <mask id="custom"><rect id="bg" x="0" y="0" width="100%" height="100%" fill="white"/><g transform="matrix(1.3333333,0,0,-1.3333333,0,682.66667)"/></mask><g mask="url(#custom)"><g id="g2115" transform="matrix(1.3333333,0,0,-1.3333333,0,682.66667)">
    <g id="g2117">
      <g id="g2119" clip-path="url(#clipPath2123)">
        <g id="g2125" transform="translate(497,366)">
          <path d="m 0,0 c 0,0 -107.899,-120 -241,-120 -133.101,0 -241,120 -241,120 0,0 107.899,120 241,120 C -107.899,120 0,0 0,0 Z" style="fill:none;stroke:#000000;stroke-width:30;stroke-linecap:round;stroke-linejoin:round;stroke-miterlimit:10;stroke-dasharray:none;stroke-opacity:1" id="path2127"/>
        </g>
        <g id="g2129" transform="translate(376,366)">
          <path d="m 0,0 c 0,-66.274 -53.726,-120 -120,-120 -66.274,0 -120,53.726 -120,120 0,66.274 53.726,120 120,120 C -53.726,120 0,66.274 0,0 Z" style="fill:none;stroke:#000000;stroke-width:30;stroke-linecap:round;stroke-linejoin:round;stroke-miterlimit:10;stroke-dasharray:none;stroke-opacity:1" id="path2131"/>
        </g>
        <g id="g2133" transform="translate(306,366)">
          <path d="m 0,0 c 0,-27.614 -22.386,-50 -50,-50 -27.614,0 -50,22.386 -50,50 0,27.614 22.386,50 50,50 C -22.386,50 0,27.614 0,0 Z" style="fill:none;stroke:#000000;stroke-width:30;stroke-linecap:round;stroke-linejoin:round;stroke-miterlimit:10;stroke-dasharray:none;stroke-opacity:1" id="path2135"/>
        </g>
        <g id="g2137" transform="translate(497,116)">
          <path d="m 0,0 c 0,-49.706 -40.294,-90 -90,-90 -49.706,0 -90,40.294 -90,90 0,49.706 40.294,90 90,90 C -40.294,90 0,49.706 0,0 Z" style="fill:none;stroke:#000000;stroke-width:30;stroke-linecap:round;stroke-linejoin:round;stroke-miterlimit:10;stroke-dasharray:none;stroke-opacity:1" id="path2139"/>
        </g>
        <g id="g2141" transform="translate(432,91)">
          <path d="M 0,0 -50,50" style="fill:none;stroke:#000000;stroke-width:30;stroke-linecap:round;stroke-linejoin:round;stroke-miterlimit:10;stroke-dasharray:none;stroke-opacity:1" id="path2143"/>
        </g>
        <g id="g2145" transform="translate(382,91)">
          <path d="M 0,0 50,50" style="fill:none;stroke:#000000;stroke-width:30;stroke-linecap:round;stroke-linejoin:round;stroke-miterlimit:10;stroke-dasharray:none;stroke-opacity:1" id="path2147"/>
        </g>
      </g>
    </g>
  </g></g>
</svg>
