<svg width="24" height="24" viewBox="0 0 24 24" fill="none" xmlns="http://www.w3.org/2000/svg">
<g clip-path="url(#clip0_2581_210382)">
<mask id="mask0_2581_210382" style="mask-type:luminance" maskUnits="userSpaceOnUse" x="0" y="0" width="24" height="24">
<path d="M24 0H0V24H24V0Z" fill="white"/>
</mask>
<g mask="url(#mask0_2581_210382)">
<mask id="mask1_2581_210382" style="mask-type:luminance" maskUnits="userSpaceOnUse" x="0" y="0" width="24" height="24">
<path d="M0 1.90735e-06H24V24H0V1.90735e-06Z" fill="white"/>
</mask>
<g mask="url(#mask1_2581_210382)">
<path d="M23.2969 11.375C23.2969 11.375 18.2391 17 12 17C5.76089 17 0.703125 11.375 0.703125 11.375C0.703125 11.375 5.76089 5.75 12 5.75C18.2391 5.75 23.2969 11.375 23.2969 11.375Z" stroke="black" stroke-width="1.46484" stroke-miterlimit="10" stroke-linecap="round" stroke-linejoin="round"/>
<path d="M17.625 11.375C17.625 14.4816 15.1066 17 12 17C8.89341 17 6.375 14.4816 6.375 11.375C6.375 8.26841 8.89341 5.75 12 5.75C15.1066 5.75 17.625 8.26841 17.625 11.375Z" stroke="black" stroke-width="1.46484" stroke-miterlimit="10" stroke-linecap="round" stroke-linejoin="round"/>
<path d="M14.3437 11.375C14.3437 12.6694 13.2944 13.7188 12 13.7188C10.7056 13.7188 9.65625 12.6694 9.65625 11.375C9.65625 10.0806 10.7056 9.03125 12 9.03125C13.2944 9.03125 14.3437 10.0806 14.3437 11.375Z" stroke="black" stroke-width="1.46484" stroke-miterlimit="10" stroke-linecap="round" stroke-linejoin="round"/>
</g>
</g>
</g>
<defs>
<clipPath id="clip0_2581_210382">
<rect width="24" height="24" fill="white"/>
</clipPath>
</defs>
</svg>
