<svg width="24" height="24" viewBox="0 0 24 24" fill="none" xmlns="http://www.w3.org/2000/svg">
<mask id="mask0_3345_5564" style="mask-type:luminance" maskUnits="userSpaceOnUse" x="0" y="0" width="24" height="24">
<path d="M24 0H0V24H24V0Z" fill="white"/>
<path d="M5.85986 8.90674C5.34208 8.90674 4.92236 9.32646 4.92236 9.84424C4.92236 10.362 5.34208 10.7817 5.85986 10.7817C6.37764 10.7817 6.79736 10.362 6.79736 9.84424C6.79736 9.32646 6.37764 8.90674 5.85986 8.90674Z" fill="white"/>
<path d="M9.93799 8.90674C9.42021 8.90674 9.00049 9.32646 9.00049 9.84424C9.00049 10.362 9.42021 10.7817 9.93799 10.7817C10.4558 10.7817 10.8755 10.362 10.8755 9.84424C10.8755 9.32646 10.4558 8.90674 9.93799 8.90674Z" fill="white"/>
<path d="M14.0161 8.90674C13.4983 8.90674 13.0786 9.32646 13.0786 9.84424C13.0786 10.362 13.4983 10.7817 14.0161 10.7817C14.5339 10.7817 14.9536 10.362 14.9536 9.84424C14.9536 9.32646 14.5339 8.90674 14.0161 8.90674Z" fill="white"/>
<path d="M18.0942 8.90674C17.5765 8.90674 17.1567 9.32646 17.1567 9.84424C17.1567 10.362 17.5765 10.7817 18.0942 10.7817C18.612 10.7817 19.0317 10.362 19.0317 9.84424C19.0317 9.32646 18.612 8.90674 18.0942 8.90674Z" fill="white"/>
<path d="M6.79736 13.9224C6.79736 13.4046 6.37764 12.9849 5.85986 12.9849C5.34208 12.9849 4.92236 13.4046 4.92236 13.9224C4.92236 14.4401 5.34208 14.8599 5.85986 14.8599C6.37764 14.8599 6.79736 14.4401 6.79736 13.9224Z" fill="white"/>
<path d="M6.79736 18.0005C6.79736 17.4827 6.37764 17.063 5.85986 17.063C5.34208 17.063 4.92236 17.4827 4.92236 18.0005C4.92236 18.5183 5.34208 18.938 5.85986 18.938C6.37764 18.938 6.79736 18.5183 6.79736 18.0005Z" fill="white"/>
<path d="M10.8755 13.9224C10.8755 13.4046 10.4558 12.9849 9.93799 12.9849C9.42021 12.9849 9.00049 13.4046 9.00049 13.9224C9.00049 14.4401 9.42021 14.8599 9.93799 14.8599C10.4558 14.8599 10.8755 14.4401 10.8755 13.9224Z" fill="white"/>
<path d="M10.8755 18.0005C10.8755 17.4827 10.4558 17.063 9.93799 17.063C9.42021 17.063 9.00049 17.4827 9.00049 18.0005C9.00049 18.5183 9.42021 18.938 9.93799 18.938C10.4558 18.938 10.8755 18.5183 10.8755 18.0005Z" fill="white"/>
<path d="M9.93799 8.90674C9.42021 8.90674 9.00049 9.32646 9.00049 9.84424C9.00049 10.362 9.42021 10.7817 9.93799 10.7817C10.4558 10.7817 10.8755 10.362 10.8755 9.84424C10.8755 9.32646 10.4558 8.90674 9.93799 8.90674Z" fill="white"/>
<path d="M10.8755 13.9224C10.8755 13.4046 10.4558 12.9849 9.93799 12.9849C9.42021 12.9849 9.00049 13.4046 9.00049 13.9224C9.00049 14.4401 9.42021 14.8599 9.93799 14.8599C10.4558 14.8599 10.8755 14.4401 10.8755 13.9224Z" fill="white"/>
<path d="M10.8755 18.0005C10.8755 17.4827 10.4558 17.063 9.93799 17.063C9.42021 17.063 9.00049 17.4827 9.00049 18.0005C9.00049 18.5183 9.42021 18.938 9.93799 18.938C10.4558 18.938 10.8755 18.5183 10.8755 18.0005Z" fill="white"/>
<path d="M18.6139 14.8598H17.2843C17.0833 14.8598 16.9053 14.7814 16.8432 14.5912L16.4258 13.304C16.3564 13.0912 16.1705 12.9848 15.9846 12.9848C15.7988 12.9848 15.6129 13.0912 15.5435 13.304L15.1261 14.5912C15.0641 14.7814 14.8859 14.8598 14.685 14.8598H13.3573C12.908 14.8598 12.7212 15.4828 13.0847 15.7457L14.1544 16.5361C14.317 16.6537 14.385 16.8622 14.3229 17.0524L13.9055 18.3314C13.7667 18.7568 14.2558 19.1107 14.6194 18.8477L15.712 18.0571C15.7933 17.9983 15.889 17.9689 15.9846 17.9689C16.0803 17.9689 16.176 17.9983 16.2573 18.0571L17.35 18.8477C17.7135 19.1107 18.2026 18.7568 18.0637 18.3314L17.6464 17.0524C17.5843 16.8622 17.6523 16.6537 17.8149 16.5361L18.8865 15.7457C19.25 15.4828 19.0632 14.8598 18.6139 14.8598Z" fill="white"/>
</mask>
<g mask="url(#mask0_3345_5564)">
<mask id="mask1_3345_5564" style="mask-type:luminance" maskUnits="userSpaceOnUse" x="0" y="0" width="25" height="25">
<path d="M0.00146484 0.00146675H24.0015V24.0015H0.00146484V0.00146675Z" fill="white"/>
</mask>
<g mask="url(#mask1_3345_5564)">
<path d="M23.0645 20.252C23.0645 21.8053 21.8052 23.0645 20.252 23.0645H3.75195C2.19866 23.0645 0.939453 21.8053 0.939453 20.252V5.62695C0.939453 4.07366 2.19866 2.81445 3.75195 2.81445H20.252C21.8052 2.81445 23.0645 4.07366 23.0645 5.62695V15.5645" stroke="#252525" stroke-width="1.875" stroke-miterlimit="10" stroke-linecap="round" stroke-linejoin="round"/>
<path d="M5.86133 8.9082C5.34355 8.9082 4.92383 9.32792 4.92383 9.8457C4.92383 10.3635 5.34355 10.7832 5.86133 10.7832C6.37911 10.7832 6.79883 10.3635 6.79883 9.8457C6.79883 9.32792 6.37911 8.9082 5.86133 8.9082Z" fill="#252525"/>
<path d="M9.93945 8.9082C9.42167 8.9082 9.00195 9.32792 9.00195 9.8457C9.00195 10.3635 9.42167 10.7832 9.93945 10.7832C10.4572 10.7832 10.877 10.3635 10.877 9.8457C10.877 9.32792 10.4572 8.9082 9.93945 8.9082Z" fill="#252525"/>
<path d="M14.0176 8.9082C13.4998 8.9082 13.0801 9.32792 13.0801 9.8457C13.0801 10.3635 13.4998 10.7832 14.0176 10.7832C14.5354 10.7832 14.9551 10.3635 14.9551 9.8457C14.9551 9.32792 14.5354 8.9082 14.0176 8.9082Z" fill="#252525"/>
<path d="M18.0957 8.9082C17.5779 8.9082 17.1582 9.32792 17.1582 9.8457C17.1582 10.3635 17.5779 10.7832 18.0957 10.7832C18.6135 10.7832 19.0332 10.3635 19.0332 9.8457C19.0332 9.32792 18.6135 8.9082 18.0957 8.9082Z" fill="#252525"/>
<path d="M6.79883 13.9238C6.79883 13.406 6.37911 12.9863 5.86133 12.9863C5.34355 12.9863 4.92383 13.406 4.92383 13.9238C4.92383 14.4416 5.34355 14.8613 5.86133 14.8613C6.37911 14.8613 6.79883 14.4416 6.79883 13.9238Z" fill="#252525"/>
<path d="M6.79883 18.002C6.79883 17.4842 6.37911 17.0645 5.86133 17.0645C5.34355 17.0645 4.92383 17.4842 4.92383 18.002C4.92383 18.5197 5.34355 18.9395 5.86133 18.9395C6.37911 18.9395 6.79883 18.5197 6.79883 18.002Z" fill="#252525"/>
<path d="M10.877 13.9238C10.877 13.406 10.4572 12.9863 9.93945 12.9863C9.42167 12.9863 9.00195 13.406 9.00195 13.9238C9.00195 14.4416 9.42167 14.8613 9.93945 14.8613C10.4572 14.8613 10.877 14.4416 10.877 13.9238Z" fill="#252525"/>
<path d="M10.877 18.002C10.877 17.4842 10.4572 17.0645 9.93945 17.0645C9.42167 17.0645 9.00195 17.4842 9.00195 18.002C9.00195 18.5197 9.42167 18.9395 9.93945 18.9395C10.4572 18.9395 10.877 18.5197 10.877 18.002Z" fill="#252525"/>
<path d="M9.93945 8.9082C9.42167 8.9082 9.00195 9.32792 9.00195 9.8457C9.00195 10.3635 9.42167 10.7832 9.93945 10.7832C10.4572 10.7832 10.877 10.3635 10.877 9.8457C10.877 9.32792 10.4572 8.9082 9.93945 8.9082Z" fill="#252525"/>
<path d="M10.877 13.9238C10.877 13.406 10.4572 12.9863 9.93945 12.9863C9.42167 12.9863 9.00195 13.406 9.00195 13.9238C9.00195 14.4416 9.42167 14.8613 9.93945 14.8613C10.4572 14.8613 10.877 14.4416 10.877 13.9238Z" fill="#252525"/>
<path d="M10.877 18.002C10.877 17.4842 10.4572 17.0645 9.93945 17.0645C9.42167 17.0645 9.00195 17.4842 9.00195 18.002C9.00195 18.5197 9.42167 18.9395 9.93945 18.9395C10.4572 18.9395 10.877 18.5197 10.877 18.002Z" fill="#252525"/>
<path d="M5.86133 0.939453V4.68945" stroke="#252525" stroke-width="1.875" stroke-miterlimit="10" stroke-linecap="round" stroke-linejoin="round"/>
<path d="M18.0957 4.68945V0.939453" stroke="#252525" stroke-width="1.875" stroke-miterlimit="10" stroke-linecap="round" stroke-linejoin="round"/>
<path d="M11.9551 0.939453V4.68945" stroke="#252525" stroke-width="1.875" stroke-miterlimit="10" stroke-linecap="round" stroke-linejoin="round"/>
<path d="M18.6153 14.8613H17.2858C17.0848 14.8613 16.9067 14.7829 16.8446 14.5926L16.4272 13.3054C16.3578 13.0927 16.172 12.9863 15.9861 12.9863C15.8002 12.9863 15.6144 13.0927 15.545 13.3054L15.1276 14.5926C15.0655 14.7829 14.8874 14.8613 14.6864 14.8613H13.3588C12.9094 14.8613 12.7226 15.4842 13.0861 15.7472L14.1559 16.5376C14.3184 16.6552 14.3864 16.8636 14.3243 17.0539L13.907 18.3328C13.7682 18.7583 14.2573 19.1121 14.6208 18.8492L15.7135 18.0585C15.7948 17.9997 15.8904 17.9703 15.9861 17.9703C16.0818 17.9703 16.1775 17.9997 16.2588 18.0585L17.3514 18.8492C17.715 19.1121 18.2041 18.7583 18.0652 18.3328L17.6479 17.0539C17.5858 16.8636 17.6538 16.6552 17.8164 16.5376L18.8879 15.7472C19.2515 15.4842 19.0647 14.8613 18.6153 14.8613Z" fill="#252525"/>
</g>
</g>
</svg>
