<?xml version="1.0" encoding="UTF-8" standalone="no"?>
<!-- Created with Inkscape (http://www.inkscape.org/) -->
<svg xmlns="http://www.w3.org/2000/svg" xmlns:svg="http://www.w3.org/2000/svg" version="1.1" id="svg1347" width="682.66669" height="682.66669" viewBox="0 0 682.66669 682.66669">
  <defs id="defs1351">
    <clipPath clipPathUnits="userSpaceOnUse" id="clipPath1361">
      <path d="M 0,512 H 512 V 0 H 0 Z" id="path1359"/>
    </clipPath>
  </defs>
  <mask id="custom"><rect id="bg" x="0" y="0" width="100%" height="100%" fill="white"/><g transform="matrix(1.3333333,0,0,-1.3333333,0,682.66667)"/></mask><g mask="url(#custom)"><g id="g1353" transform="matrix(1.3333333,0,0,-1.3333333,0,682.66667)">
    <g id="g1355">
      <g id="g1357" clip-path="url(#clipPath1361)">
        <g id="g1363" transform="translate(452,20)">
          <path d="m 0,0 h -392 c -22.092,0 -40,17.909 -40,40 v 392 c 0,22.091 17.908,40 40,40 H 0 c 22.092,0 40,-17.909 40,-40 V 40 C 40,17.909 22.092,0 0,0 Z" style="fill:none;stroke:#000000;stroke-width:40;stroke-linecap:butt;stroke-linejoin:miter;stroke-miterlimit:10;stroke-dasharray:none;stroke-opacity:1" id="path1365"/>
        </g>
        <g id="g1367" transform="translate(95.002,268.3306)">
          <path d="M 0,0 122.284,-116.247 320.996,105.669" style="fill:none;stroke:#000000;stroke-width:40;stroke-linecap:butt;stroke-linejoin:miter;stroke-miterlimit:10;stroke-dasharray:none;stroke-opacity:1" id="path1369"/>
        </g>
      </g>
    </g>
  </g></g>
</svg>
