<?xml version="1.0" encoding="iso-8859-1"?>
<!-- Generator: Adobe Illustrator 21.0.0, SVG Export Plug-In . SVG Version: 6.00 Build 0)  -->
<svg xmlns="http://www.w3.org/2000/svg" xmlns:xlink="http://www.w3.org/1999/xlink" version="1.1" id="Capa_1" x="0px" y="0px" viewBox="0 0 512 512" style="enable-background:new 0 0 512 512;" xml:space="preserve" width="512" height="512">
<g>
	<path d="M15,126.4h261.49c-0.81-4.88-1.22-9.89-1.22-15c0-5.11,0.41-10.12,1.22-15H15c-8.28,0-15,6.72-15,15   C0,119.68,6.72,126.4,15,126.4z"/>
	<path d="M15,271h36.55c-0.81-4.88-1.22-9.89-1.22-15s0.41-10.12,1.22-15H15c-8.28,0-15,6.72-15,15S6.72,271,15,271z"/>
	<path d="M15,385.6c-8.28,0-15,6.72-15,15c0,8.28,6.72,15,15,15h181.15c-0.81-4.88-1.22-9.89-1.22-15c0-5.11,0.41-10.12,1.22-15H15z   "/>
	<path d="M497,126.4c8.28,0,15-6.72,15-15c0-8.28-6.72-15-15-15h-36.55c0.81,4.88,1.22,9.89,1.22,15c0,5.11-0.41,10.12-1.22,15H497z   "/>
	<path d="M497,241H235.51c0.81,4.88,1.22,9.89,1.22,15s-0.41,10.12-1.22,15H497c8.28,0,15-6.72,15-15S505.28,241,497,241z"/>
	<path d="M497,385.6H380.11c0.81,4.88,1.22,9.89,1.22,15c0,5.11-0.41,10.12-1.22,15H497c8.28,0,15-6.72,15-15   C512,392.32,505.28,385.6,497,385.6z"/>
	<path d="M288.134,337.4c-34.849,0-63.2,28.351-63.2,63.199s28.352,63.2,63.2,63.2s63.199-28.352,63.199-63.2   S322.982,337.4,288.134,337.4z"/>
	<path d="M143.534,192.8c-34.849,0-63.2,28.351-63.2,63.199s28.352,63.2,63.2,63.2s63.199-28.352,63.199-63.2   S178.382,192.8,143.534,192.8z"/>
	<path d="M368.467,174.6c34.849,0,63.199-28.352,63.199-63.2S403.316,48.2,368.467,48.2s-63.2,28.351-63.2,63.199   S333.619,174.6,368.467,174.6z"/>
</g>















</svg>
