<svg width="150" height="150" viewBox="0 0 150 150" fill="none" xmlns="http://www.w3.org/2000/svg">
<path d="M150 114.719H0V114.794H150V114.719Z" fill="#EBEBEB"/>
<path d="M134.97 119.548H125.034V119.623H134.97V119.548Z" fill="#EBEBEB"/>
<path d="M99.3662 120.362H96.7583V120.437H99.3662V120.362Z" fill="#EBEBEB"/>
<path d="M124.733 116.762H118.976V116.837H124.733V116.762Z" fill="#EBEBEB"/>
<path d="M28.6957 117.266H15.7378V117.341H28.6957V117.266Z" fill="#EBEBEB"/>
<path d="M33.2671 117.266H31.3672V117.341H33.2671V117.266Z" fill="#EBEBEB"/>
<path d="M67.5442 118.533H39.4414V118.608H67.5442V118.533Z" fill="#EBEBEB"/>
<path d="M71.104 101.34H13.1743C12.2302 101.34 11.4619 100.571 11.4619 99.6274V18.1978C11.4619 17.2537 12.2302 16.4854 13.1743 16.4854H71.104C72.0478 16.4854 72.8161 17.2537 72.8161 18.1978V99.6274C72.8161 100.571 72.0478 101.34 71.104 101.34ZM13.1743 16.5607C12.2713 16.5607 11.5369 17.2951 11.5369 18.1981V99.6277C11.5369 100.531 12.2713 101.265 13.1743 101.265H71.104C72.0067 101.265 72.7411 100.531 72.7411 99.6277V18.1978C72.7411 17.2951 72.0067 16.5604 71.104 16.5604L13.1743 16.5607Z" fill="#EBEBEB"/>
<path d="M135.993 101.34H78.0637C77.1196 101.34 76.3516 100.571 76.3516 99.6274V18.1978C76.3516 17.2537 77.1199 16.4854 78.0637 16.4854H135.993C136.937 16.4854 137.705 17.2537 137.705 18.1978V99.6274C137.706 100.571 136.937 101.34 135.993 101.34ZM78.0637 16.5607C77.161 16.5607 76.4266 17.2951 76.4266 18.1981V99.6277C76.4266 100.531 77.161 101.265 78.0637 101.265H135.993C136.896 101.265 137.63 100.531 137.63 99.6277V18.1978C137.63 17.2951 136.896 16.5604 135.993 16.5604L78.0637 16.5607Z" fill="#EBEBEB"/>
<path d="M80.7114 114.763H133.598V47.7928H80.7114V114.763Z" fill="#F0F0F0"/>
<path d="M82.5812 64.5547H131.729V50.2342L82.5812 50.2342V64.5547Z" fill="#E0E0E0"/>
<path d="M128.937 64.5547H131.729V52.5523H128.937V64.5547Z" fill="#EBEBEB"/>
<path d="M115.437 64.5547H118.229V52.5523H115.437V64.5547Z" fill="#EBEBEB"/>
<path d="M98.0675 64.0836L100.819 64.5576L102.857 52.7293L100.106 52.2552L98.0675 64.0836Z" fill="#EBEBEB"/>
<path d="M125.478 64.5547H128.27V54.1342H125.478V64.5547Z" fill="#EBEBEB"/>
<path d="M119.06 64.5547H121.852V54.1342H119.06V64.5547Z" fill="#EBEBEB"/>
<path d="M102.862 64.5547H105.654V54.1342H102.862V64.5547Z" fill="#EBEBEB"/>
<path d="M109.509 63.9491L112.234 64.5547L114.494 54.3822L111.769 53.7767L109.509 63.9491Z" fill="#EBEBEB"/>
<path d="M123.063 64.5547H124.459V51.9565H123.063V64.5547Z" fill="#EBEBEB"/>
<path d="M106.457 64.5547H107.853V51.9565H106.457V64.5547Z" fill="#EBEBEB"/>
<path d="M131.728 66.8223H82.5806V81.1428H131.728V66.8223Z" fill="#E0E0E0"/>
<path d="M85.3724 69.1406H82.5806V81.143H85.3724V69.1406Z" fill="#EBEBEB"/>
<path d="M98.8724 69.1406H96.0806V81.143H98.8724V69.1406Z" fill="#EBEBEB"/>
<path d="M114.199 68.8472L111.448 69.3213L113.486 81.1496L116.237 80.6756L114.199 68.8472Z" fill="#EBEBEB"/>
<path d="M88.8318 70.7227H86.04V81.1432H88.8318V70.7227Z" fill="#EBEBEB"/>
<path d="M95.2496 70.7227H92.4575V81.1432H95.2496V70.7227Z" fill="#EBEBEB"/>
<path d="M111.447 70.7227H108.655V81.1432H111.447V70.7227Z" fill="#EBEBEB"/>
<path d="M102.54 70.3652L99.8149 70.9707L102.075 81.1432L104.801 80.5377L102.54 70.3652Z" fill="#EBEBEB"/>
<path d="M91.246 68.5449H89.8501V81.1431H91.246V68.5449Z" fill="#EBEBEB"/>
<path d="M107.852 68.5449H106.457V81.1431H107.852V68.5449Z" fill="#EBEBEB"/>
<path d="M128.937 81.1426H131.729V69.1402H128.937V81.1426Z" fill="#EBEBEB"/>
<path d="M125.478 81.1426H128.27V70.7221H125.478V81.1426Z" fill="#EBEBEB"/>
<path d="M119.06 81.1426H121.852V70.7221H119.06V81.1426Z" fill="#EBEBEB"/>
<path d="M123.063 81.1426H124.459V68.5444H123.063V81.1426Z" fill="#EBEBEB"/>
<path d="M82.5812 97.7305H131.729V83.41H82.5812V97.7305Z" fill="#E0E0E0"/>
<path d="M100.728 97.7305H103.52V85.7281H100.728V97.7305Z" fill="#EBEBEB"/>
<path d="M83.3576 97.2584L86.1089 97.7324L88.1469 85.9041L85.3956 85.43L83.3576 97.2584Z" fill="#EBEBEB"/>
<path d="M110.768 97.7305H113.56V87.31H110.768V97.7305Z" fill="#EBEBEB"/>
<path d="M104.351 97.7305H107.143V87.31H104.351V97.7305Z" fill="#EBEBEB"/>
<path d="M88.1532 97.7305H90.9453V87.31H88.1532V97.7305Z" fill="#EBEBEB"/>
<path d="M94.7991 97.1249L97.5244 97.7305L99.7846 87.558L97.0593 86.9524L94.7991 97.1249Z" fill="#EBEBEB"/>
<path d="M108.354 97.7305H109.75V85.1323H108.354V97.7305Z" fill="#EBEBEB"/>
<path d="M91.7477 97.7305H93.1436V85.1323H91.7477V97.7305Z" fill="#EBEBEB"/>
<path d="M115.477 97.2594L118.228 97.7334L120.266 85.905L117.515 85.431L115.477 97.2594Z" fill="#EBEBEB"/>
<path d="M120.273 97.7305H123.065V87.31H120.273V97.7305Z" fill="#EBEBEB"/>
<path d="M126.919 97.1249L129.645 97.7305L131.905 87.558L129.179 86.9524L126.919 97.1249Z" fill="#EBEBEB"/>
<path d="M123.868 97.7305H125.264V85.1323H123.868V97.7305Z" fill="#EBEBEB"/>
<path d="M125.477 47.7927V46.7988H123.868C123.868 46.7988 125.477 42.5775 124.459 37.3623C124.459 37.3623 124.482 41.4819 122.889 41.511C120.456 41.5557 120.273 37.3623 120.273 37.3623C120.273 37.3623 119.687 43.3641 121.87 46.7988H120.202V47.7927H125.477Z" fill="#E0E0E0"/>
<path d="M122.357 41.5166C123.133 41.5166 123.761 40.8879 123.761 40.1123C123.761 39.3367 123.133 38.708 122.357 38.708C121.581 38.708 120.953 39.3367 120.953 40.1123C120.953 40.8879 121.581 41.5166 122.357 41.5166Z" fill="#E0E0E0"/>
<path d="M114.678 47.7933V47.2134L112.977 46.4223L113.827 45.5916L111.711 38.1147V42.783C111.711 42.783 112.002 42.783 112.002 43.4556C112.002 44.1282 111.038 43.9698 111.038 43.416C111.038 42.8622 111.354 42.783 111.354 42.783V37.917L109.416 45.3147L110.286 46.4223L108.546 47.2134V47.7933H114.678Z" fill="#E0E0E0"/>
<path d="M104.258 47.7932V47.3321L102.691 46.976V40.1123L101.346 38.2334L100.198 39.7049V42.8552L99.6051 42.0311L98.7741 41.7146L98.1807 43.0133L99.4467 46.976L98.1807 47.3321V47.7932H104.258Z" fill="#E0E0E0"/>
<path d="M93.8533 48.0035L91.9303 38.2334H86.0401L87.436 43.7732L85.3726 47.7932L93.8533 48.0035Z" fill="#E0E0E0"/>
<path d="M55.1231 33.4473H15.9917V35.4579H55.1231V33.4473Z" fill="#E0E0E0"/>
<path d="M19.5168 26.0371H17.793V33.4483H19.5168V26.0371Z" fill="#EBEBEB"/>
<path d="M27.853 26.0371H26.1289V33.4483H27.853V26.0371Z" fill="#EBEBEB"/>
<path d="M37.3163 25.8537L35.6172 26.1465L36.8756 33.4502L38.5747 33.1575L37.3163 25.8537Z" fill="#EBEBEB"/>
<path d="M21.6528 27.0137H19.9287V33.4481H21.6528V27.0137Z" fill="#EBEBEB"/>
<path d="M25.6157 27.0137H23.8916V33.4481H25.6157V27.0137Z" fill="#EBEBEB"/>
<path d="M35.6172 27.0137H33.8931V33.4481H35.6172V27.0137Z" fill="#EBEBEB"/>
<path d="M30.1176 26.7921L28.4346 27.166L29.8302 33.4473L31.5133 33.0733L30.1176 26.7921Z" fill="#EBEBEB"/>
<path d="M23.1436 25.6689H22.2817V33.4479H23.1436V25.6689Z" fill="#EBEBEB"/>
<path d="M33.398 25.6689H32.5361V33.4479H33.398V25.6689Z" fill="#EBEBEB"/>
<path d="M51.3683 27.582H42.9683V33.3813H51.3683V27.582Z" fill="#EBEBEB"/>
<path d="M15.9916 50.4678L55.123 50.4678V48.4572L15.9916 48.4572V50.4678Z" fill="#E0E0E0"/>
<path d="M51.5977 48.458H53.3218V41.0468H51.5977V48.458Z" fill="#EBEBEB"/>
<path d="M43.2617 48.458H44.9858V41.0468H43.2617V48.458Z" fill="#EBEBEB"/>
<path d="M32.537 48.1653L34.2358 48.458L35.4943 41.1543L33.7955 40.8616L32.537 48.1653Z" fill="#EBEBEB"/>
<path d="M49.4617 48.458H51.1855V42.0236H49.4617V48.458Z" fill="#EBEBEB"/>
<path d="M45.499 48.458H47.2231V42.0236H45.499V48.458Z" fill="#EBEBEB"/>
<path d="M35.4971 48.458H37.2212V42.0236H35.4971V48.458Z" fill="#EBEBEB"/>
<path d="M39.6021 48.0841L41.2852 48.458L42.6808 42.1765L40.9978 41.8025L39.6021 48.0841Z" fill="#EBEBEB"/>
<path d="M47.9711 48.458H48.833V40.679H47.9711V48.458Z" fill="#EBEBEB"/>
<path d="M37.7172 48.458H38.5791V40.679H37.7172V48.458Z" fill="#EBEBEB"/>
<path d="M19.7465 48.3916H28.1465V42.5923H19.7465V48.3916Z" fill="#EBEBEB"/>
<path d="M46.9139 77.8389H14.0972V114.763H46.9139V77.8389Z" fill="#E0E0E0"/>
<path d="M45.2847 79.3105H15.7266V85.2557H45.2847V79.3105Z" fill="#EBEBEB"/>
<path d="M45.2847 86.8018H15.7266V92.7469H45.2847V86.8018Z" fill="#EBEBEB"/>
<path d="M45.2847 94.292H15.7266V112.022H45.2847V94.292Z" fill="#EBEBEB"/>
<path d="M31.8813 80.3278H29.13C28.398 80.3278 27.7206 79.9411 27.3486 79.3105H33.663C33.2907 79.9411 32.6133 80.3278 31.8813 80.3278Z" fill="#E0E0E0"/>
<path d="M31.8813 87.8093H29.13C28.398 87.8093 27.7206 87.4226 27.3486 86.792H33.663C33.2907 87.4223 32.6133 87.8093 31.8813 87.8093Z" fill="#E0E0E0"/>
<path d="M31.8813 95.3158H29.13C28.398 95.3158 27.7206 94.9291 27.3486 94.2988H33.663C33.2907 94.9291 32.6133 95.3158 31.8813 95.3158Z" fill="#E0E0E0"/>
<path d="M74.9997 128.268C107.124 128.268 133.166 126.748 133.166 124.872C133.166 122.995 107.124 121.475 74.9997 121.475C42.8751 121.475 16.833 122.995 16.833 124.872C16.833 126.748 42.8751 128.268 74.9997 128.268Z" fill="#F5F5F5"/>
<path d="M32.3537 102.721C32.2907 103.162 33.4865 103.452 34.4621 103.615C34.3826 104.415 33.8498 105.225 33.1139 105.981C32.1884 105.459 30.8669 104.77 30.6233 104.938C30.3575 105.122 31.7105 105.997 32.5568 106.511C31.9616 107.04 31.2914 107.532 30.6401 107.963C30.2252 107.576 29.7395 107.235 29.45 107.419C29.1497 107.61 29.231 108.21 29.3792 108.745C28.3724 109.332 27.6182 109.689 27.6182 109.689C27.6182 109.689 27.1955 108.408 26.9456 106.83C26.9963 106.73 27.0467 106.629 27.0932 106.522C27.2555 106.146 27.0974 105.987 26.8295 105.934C26.7602 105.243 26.7401 104.533 26.813 103.875C27.9527 103.635 29.3384 103.193 28.8194 102.51C28.5062 102.097 27.9332 102.051 27.3368 102.154C27.4202 102.017 27.5123 101.887 27.6182 101.771C29.6924 99.4852 31.1393 101.771 31.1393 101.771C32.3447 100.766 34.0379 101.038 34.4039 102.608C33.7271 102.434 32.4314 102.176 32.3537 102.721Z" fill="#407BFF"/>
<path opacity="0.3" d="M32.3537 102.721C32.2907 103.162 33.4865 103.452 34.4621 103.615C34.3826 104.415 33.8498 105.225 33.1139 105.981C32.1884 105.459 30.8669 104.77 30.6233 104.938C30.3575 105.122 31.7105 105.997 32.5568 106.511C31.9616 107.04 31.2914 107.532 30.6401 107.963C30.2252 107.576 29.7395 107.235 29.45 107.419C29.1497 107.61 29.231 108.21 29.3792 108.745C28.3724 109.332 27.6182 109.689 27.6182 109.689C27.6182 109.689 27.1955 108.408 26.9456 106.83C26.9963 106.73 27.0467 106.629 27.0932 106.522C27.2555 106.146 27.0974 105.987 26.8295 105.934C26.7602 105.243 26.7401 104.533 26.813 103.875C27.9527 103.635 29.3384 103.193 28.8194 102.51C28.5062 102.097 27.9332 102.051 27.3368 102.154C27.4202 102.017 27.5123 101.887 27.6182 101.771C29.6924 99.4852 31.1393 101.771 31.1393 101.771C32.3447 100.766 34.0379 101.038 34.4039 102.608C33.7271 102.434 32.4314 102.176 32.3537 102.721Z" fill="white"/>
<path d="M29.7657 119.517L30.0648 119.493C30.0519 119.338 28.8366 104.035 32.271 102.592C32.6397 102.437 32.9805 102.446 33.312 102.618C34.5528 103.264 35.1477 105.943 35.1534 105.97L35.4468 105.906C35.4216 105.791 34.8162 103.063 33.4509 102.352C33.0408 102.139 32.6049 102.127 32.1549 102.316C28.5216 103.842 29.7132 118.878 29.7657 119.517Z" fill="#407BFF"/>
<path d="M29.333 119.186C29.3939 118.498 30.7958 102.306 28.1744 100.587C27.5459 100.175 26.9858 100.087 26.5097 100.328C25.271 100.953 25.1084 103.601 25.1021 103.713L25.4015 103.73C25.403 103.705 25.5602 101.143 26.645 100.596C27.0182 100.408 27.4775 100.489 28.01 100.838C30.4826 102.46 29.0489 118.993 29.0342 119.16L29.333 119.186Z" fill="#407BFF"/>
<path d="M28.9392 120.494C28.9587 119.967 29.3904 107.573 27.0036 106.488C26.5317 106.274 26.0538 106.27 25.584 106.477C23.946 107.197 22.9347 110.25 22.8921 110.379L23.1774 110.473C23.1873 110.442 24.1896 107.418 25.7049 106.751C26.0988 106.579 26.4834 106.581 26.8794 106.761C28.7097 107.593 28.7706 116.949 28.6395 120.483L28.9392 120.494Z" fill="#407BFF"/>
<path d="M29.5467 119.928L29.8446 119.894C29.424 116.205 28.62 106.375 29.9337 105.203C30.1296 105.028 30.3051 104.974 30.471 105.037C31.3515 105.374 31.8876 108.572 32.0199 109.775L32.3181 109.742C32.2674 109.281 31.7874 105.221 30.5787 104.757C30.3021 104.651 30.018 104.725 29.7339 104.979C28.0359 106.494 29.484 119.38 29.5467 119.928Z" fill="#407BFF"/>
<path d="M34.553 112.935H23.7749L24.6749 125.008H33.653L34.553 112.935Z" fill="#263238"/>
<path opacity="0.2" d="M31.2794 112.935L30.9794 125.008H24.6749L23.7749 112.935H31.2794Z" fill="white"/>
<path d="M33.0847 108.504C33.1972 108.798 34.0342 108.567 34.6915 108.332C34.9171 108.854 34.8658 109.535 34.6711 110.254C33.9214 110.249 32.8702 110.277 32.7778 110.465C32.677 110.669 33.8113 110.745 34.5094 110.772C34.3234 111.302 34.0789 111.835 33.8251 112.325C33.4363 112.228 33.0202 112.184 32.9047 112.397C32.785 112.618 33.0409 112.96 33.3157 113.239C32.896 113.946 32.5534 114.425 32.5534 114.425C32.5534 114.425 31.8535 113.78 31.1584 112.893C31.1554 112.814 31.1518 112.734 31.1437 112.652C31.1152 112.365 30.9628 112.32 30.7795 112.38C30.4999 111.977 30.2443 111.546 30.0631 111.115C30.6841 110.577 31.387 109.829 30.8326 109.586C30.4981 109.439 30.1288 109.606 29.7964 109.874C29.8006 109.761 29.8132 109.65 29.8384 109.541C30.334 107.421 32.0101 108.334 32.0101 108.334C32.4091 107.301 33.5464 106.889 34.3105 107.731C33.8332 107.856 32.9458 108.141 33.0847 108.504Z" fill="#407BFF"/>
<path opacity="0.3" d="M33.0847 108.504C33.1972 108.798 34.0342 108.567 34.6915 108.332C34.9171 108.854 34.8658 109.535 34.6711 110.254C33.9214 110.249 32.8702 110.277 32.7778 110.465C32.677 110.669 33.8113 110.745 34.5094 110.772C34.3234 111.302 34.0789 111.835 33.8251 112.325C33.4363 112.228 33.0202 112.184 32.9047 112.397C32.785 112.618 33.0409 112.96 33.3157 113.239C32.896 113.946 32.5534 114.425 32.5534 114.425C32.5534 114.425 31.8535 113.78 31.1584 112.893C31.1554 112.814 31.1518 112.734 31.1437 112.652C31.1152 112.365 30.9628 112.32 30.7795 112.38C30.4999 111.977 30.2443 111.546 30.0631 111.115C30.6841 110.577 31.387 109.829 30.8326 109.586C30.4981 109.439 30.1288 109.606 29.7964 109.874C29.8006 109.761 29.8132 109.65 29.8384 109.541C30.334 107.421 32.0101 108.334 32.0101 108.334C32.4091 107.301 33.5464 106.889 34.3105 107.731C33.8332 107.856 32.9458 108.141 33.0847 108.504Z" fill="white"/>
<path d="M25.0821 109.938C25.422 109.963 25.7481 110.041 26.067 110.146C26.1501 109.918 26.2044 109.681 26.2122 109.432C26.2806 107.259 24.7245 108.175 23.9022 107.536C23.4921 107.218 22.9899 107.013 22.5264 107.105C22.596 107.225 22.6593 107.349 22.7124 107.477C22.7985 107.685 22.6626 107.902 22.4493 107.942C22.2486 107.98 22.0233 107.962 21.8388 107.87C21.7812 107.841 21.7329 107.799 21.6819 107.761C21.567 107.955 21.4653 108.193 21.3834 108.488C21.2997 108.79 21.2565 109.103 21.2427 109.418C21.3651 109.445 21.4866 109.478 21.6063 109.52C21.7932 109.587 21.8931 109.885 21.7425 110.037C21.6102 110.17 21.4587 110.275 21.294 110.352C21.3477 110.71 21.4476 111.049 21.5676 111.37C21.6045 111.376 21.6417 111.38 21.6783 111.388C21.7575 111.403 21.8355 111.424 21.9129 111.445C21.9573 111.458 22.0014 111.473 22.0431 111.493C22.1508 111.544 22.2294 111.636 22.2462 111.757C22.263 111.875 22.2135 111.998 22.1181 112.071C22.0674 112.109 22.0116 112.14 21.9564 112.17C22.2042 112.562 22.4973 112.873 22.8174 113.039C22.8174 113.039 23.214 112.866 23.733 112.555C23.6682 112.468 23.6031 112.381 23.5428 112.291C23.4714 112.185 23.4399 112.076 23.4507 111.95C23.4609 111.827 23.5353 111.72 23.6268 111.643C23.715 111.569 23.856 111.536 23.9682 111.551C24.078 111.565 24.2115 111.632 24.2748 111.727C24.3468 111.834 24.4263 111.936 24.5049 112.038C24.9021 111.739 25.2972 111.377 25.6089 110.966C25.5966 110.963 25.584 110.959 25.5759 110.957C25.3752 110.904 25.17 110.87 24.9633 110.855C24.705 110.836 24.5442 110.576 24.5643 110.338C24.5862 110.079 24.8415 109.92 25.0821 109.938Z" fill="#407BFF"/>
<path opacity="0.5" d="M25.0821 109.938C25.422 109.963 25.7481 110.041 26.067 110.146C26.1501 109.918 26.2044 109.681 26.2122 109.432C26.2806 107.259 24.7245 108.175 23.9022 107.536C23.4921 107.218 22.9899 107.013 22.5264 107.105C22.596 107.225 22.6593 107.349 22.7124 107.477C22.7985 107.685 22.6626 107.902 22.4493 107.942C22.2486 107.98 22.0233 107.962 21.8388 107.87C21.7812 107.841 21.7329 107.799 21.6819 107.761C21.567 107.955 21.4653 108.193 21.3834 108.488C21.2997 108.79 21.2565 109.103 21.2427 109.418C21.3651 109.445 21.4866 109.478 21.6063 109.52C21.7932 109.587 21.8931 109.885 21.7425 110.037C21.6102 110.17 21.4587 110.275 21.294 110.352C21.3477 110.71 21.4476 111.049 21.5676 111.37C21.6045 111.376 21.6417 111.38 21.6783 111.388C21.7575 111.403 21.8355 111.424 21.9129 111.445C21.9573 111.458 22.0014 111.473 22.0431 111.493C22.1508 111.544 22.2294 111.636 22.2462 111.757C22.263 111.875 22.2135 111.998 22.1181 112.071C22.0674 112.109 22.0116 112.14 21.9564 112.17C22.2042 112.562 22.4973 112.873 22.8174 113.039C22.8174 113.039 23.214 112.866 23.733 112.555C23.6682 112.468 23.6031 112.381 23.5428 112.291C23.4714 112.185 23.4399 112.076 23.4507 111.95C23.4609 111.827 23.5353 111.72 23.6268 111.643C23.715 111.569 23.856 111.536 23.9682 111.551C24.078 111.565 24.2115 111.632 24.2748 111.727C24.3468 111.834 24.4263 111.936 24.5049 112.038C24.9021 111.739 25.2972 111.377 25.6089 110.966C25.5966 110.963 25.584 110.959 25.5759 110.957C25.3752 110.904 25.17 110.87 24.9633 110.855C24.705 110.836 24.5442 110.576 24.5643 110.338C24.5862 110.079 24.8415 109.92 25.0821 109.938Z" fill="white"/>
<path d="M24.4598 102.443C24.2702 102.307 24.0647 102.204 23.8514 102.119C23.9078 101.963 23.9834 101.815 24.0881 101.681C25.0061 100.509 25.4213 101.673 26.1335 101.699C26.4887 101.711 26.8424 101.824 27.0455 102.076C26.9564 102.108 26.8688 102.145 26.7845 102.189C26.648 102.261 26.624 102.435 26.7188 102.549C26.8076 102.657 26.9336 102.747 27.0713 102.779C27.1142 102.789 27.158 102.788 27.2015 102.791C27.1766 102.943 27.1259 103.113 27.0392 103.304C26.9507 103.5 26.8358 103.683 26.705 103.854C26.6288 103.815 26.5505 103.779 26.4689 103.748C26.3414 103.701 26.1578 103.814 26.1707 103.96C26.1818 104.088 26.2151 104.21 26.2682 104.322C26.0828 104.487 25.8815 104.621 25.6772 104.737C25.6553 104.724 25.634 104.71 25.6115 104.698C25.5632 104.671 25.5131 104.648 25.4627 104.625C25.4339 104.612 25.4039 104.601 25.3733 104.593C25.2944 104.573 25.2128 104.586 25.1507 104.642C25.0898 104.697 25.0619 104.783 25.0802 104.863C25.0898 104.906 25.1057 104.946 25.1216 104.987C24.8192 105.084 24.5291 105.119 24.2879 105.065C24.2879 105.065 24.1556 104.8 24.0191 104.409C24.0914 104.392 24.1637 104.375 24.2348 104.354C24.3188 104.33 24.383 104.286 24.4331 104.215C24.4817 104.146 24.4895 104.057 24.4751 103.977C24.4613 103.899 24.4016 103.82 24.3362 103.778C24.2723 103.737 24.1724 103.714 24.0977 103.736C24.0128 103.761 23.9264 103.779 23.8403 103.799C23.7632 103.467 23.714 103.104 23.7308 102.751C23.7389 102.755 23.747 102.758 23.7524 102.76C23.8808 102.821 24.0035 102.893 24.119 102.976C24.263 103.079 24.4616 103.013 24.5558 102.879C24.6587 102.734 24.5942 102.539 24.4598 102.443Z" fill="#407BFF"/>
<path opacity="0.3" d="M24.4598 102.443C24.2702 102.307 24.0647 102.204 23.8514 102.119C23.9078 101.963 23.9834 101.815 24.0881 101.681C25.0061 100.509 25.4213 101.673 26.1335 101.699C26.4887 101.711 26.8424 101.824 27.0455 102.076C26.9564 102.108 26.8688 102.145 26.7845 102.189C26.648 102.261 26.624 102.435 26.7188 102.549C26.8076 102.657 26.9336 102.747 27.0713 102.779C27.1142 102.789 27.158 102.788 27.2015 102.791C27.1766 102.943 27.1259 103.113 27.0392 103.304C26.9507 103.5 26.8358 103.683 26.705 103.854C26.6288 103.815 26.5505 103.779 26.4689 103.748C26.3414 103.701 26.1578 103.814 26.1707 103.96C26.1818 104.088 26.2151 104.21 26.2682 104.322C26.0828 104.487 25.8815 104.621 25.6772 104.737C25.6553 104.724 25.634 104.71 25.6115 104.698C25.5632 104.671 25.5131 104.648 25.4627 104.625C25.4339 104.612 25.4039 104.601 25.3733 104.593C25.2944 104.573 25.2128 104.586 25.1507 104.642C25.0898 104.697 25.0619 104.783 25.0802 104.863C25.0898 104.906 25.1057 104.946 25.1216 104.987C24.8192 105.084 24.5291 105.119 24.2879 105.065C24.2879 105.065 24.1556 104.8 24.0191 104.409C24.0914 104.392 24.1637 104.375 24.2348 104.354C24.3188 104.33 24.383 104.286 24.4331 104.215C24.4817 104.146 24.4895 104.057 24.4751 103.977C24.4613 103.899 24.4016 103.82 24.3362 103.778C24.2723 103.737 24.1724 103.714 24.0977 103.736C24.0128 103.761 23.9264 103.779 23.8403 103.799C23.7632 103.467 23.714 103.104 23.7308 102.751C23.7389 102.755 23.747 102.758 23.7524 102.76C23.8808 102.821 24.0035 102.893 24.119 102.976C24.263 103.079 24.4616 103.013 24.5558 102.879C24.6587 102.734 24.5942 102.539 24.4598 102.443Z" fill="white"/>
<path d="M33.2417 104.618C33.3047 105.059 32.1089 105.349 31.1333 105.512C31.2128 106.312 31.7456 107.122 32.4815 107.878C33.407 107.356 34.7285 106.667 34.9721 106.835C35.2379 107.019 33.8849 107.894 33.0386 108.408C33.6338 108.937 34.304 109.429 34.9553 109.86C35.3702 109.473 35.8559 109.132 36.1454 109.316C36.4457 109.507 36.3644 110.107 36.2162 110.642C37.223 111.229 37.9772 111.586 37.9772 111.586C37.9772 111.586 38.3999 110.305 38.6498 108.727C38.5991 108.627 38.5484 108.526 38.5022 108.419C38.3399 108.043 38.498 107.884 38.7659 107.831C38.8352 107.14 38.8553 106.43 38.7824 105.771C37.6427 105.532 36.257 105.09 36.776 104.406C37.0892 103.994 37.6622 103.947 38.2586 104.05C38.1752 103.913 38.0831 103.784 37.9772 103.667C35.903 101.382 34.4561 103.667 34.4561 103.667C33.2507 102.662 31.5575 102.934 31.1915 104.504C31.8686 104.331 33.164 104.073 33.2417 104.618Z" fill="#407BFF"/>
<path opacity="0.5" d="M33.2417 104.618C33.3047 105.059 32.1089 105.349 31.1333 105.512C31.2128 106.312 31.7456 107.122 32.4815 107.878C33.407 107.356 34.7285 106.667 34.9721 106.835C35.2379 107.019 33.8849 107.894 33.0386 108.408C33.6338 108.937 34.304 109.429 34.9553 109.86C35.3702 109.473 35.8559 109.132 36.1454 109.316C36.4457 109.507 36.3644 110.107 36.2162 110.642C37.223 111.229 37.9772 111.586 37.9772 111.586C37.9772 111.586 38.3999 110.305 38.6498 108.727C38.5991 108.627 38.5484 108.526 38.5022 108.419C38.3399 108.043 38.498 107.884 38.7659 107.831C38.8352 107.14 38.8553 106.43 38.7824 105.771C37.6427 105.532 36.257 105.09 36.776 104.406C37.0892 103.994 37.6622 103.947 38.2586 104.05C38.1752 103.913 38.0831 103.784 37.9772 103.667C35.903 101.382 34.4561 103.667 34.4561 103.667C33.2507 102.662 31.5575 102.934 31.1915 104.504C31.8686 104.331 33.164 104.073 33.2417 104.618Z" fill="white"/>
<path d="M93.18 125.008H42.7998C41.0763 125.008 39.6792 123.611 39.6792 121.887V26.2866C39.6792 24.5631 41.0763 23.166 42.7998 23.166H93.18C94.9035 23.166 96.3006 24.5631 96.3006 26.2866V121.887C96.3009 123.61 94.9035 125.008 93.18 125.008Z" fill="#263238"/>
<path d="M94.4079 26.5778V121.414C94.4079 122.194 93.7809 122.8 93.0009 122.8H42.8649C42.1479 122.8 41.6079 122.245 41.6079 121.528V26.4638C41.6079 25.8428 42.0639 25.2998 42.6849 25.2998H55.2189C55.5729 25.2998 55.8939 25.5308 56.0259 25.8638L56.5449 27.1418C56.6769 27.4718 56.9979 27.6998 57.3519 27.6998H78.6909C79.0449 27.6998 79.3659 27.4808 79.4979 27.1508L80.0169 25.8668C80.1489 25.5338 80.4699 25.2998 80.8239 25.2998H93.1779C93.8619 25.2998 94.4079 25.8938 94.4079 26.5778Z" fill="#407BFF"/>
<path opacity="0.3" d="M94.4079 31.2246H41.6079V116.5H94.4079V31.2246Z" fill="white"/>
<path opacity="0.6" d="M66.8122 26.1488C67.2125 26.1488 67.537 25.8243 67.537 25.424C67.537 25.0237 67.2125 24.6992 66.8122 24.6992C66.4119 24.6992 66.0874 25.0237 66.0874 25.424C66.0874 25.8243 66.4119 26.1488 66.8122 26.1488Z" fill="white"/>
<path opacity="0.6" d="M69.0035 25.4244C69.0035 25.6809 68.7956 25.8888 68.5391 25.8888C68.2826 25.8888 68.0747 25.6809 68.0747 25.4244C68.0747 25.1679 68.2826 24.96 68.5391 24.96C68.7956 24.96 69.0035 25.1679 69.0035 25.4244Z" fill="white"/>
<path opacity="0.6" d="M47.5631 29.1211H48.2153V28.2517H47.5631V29.1211Z" fill="white"/>
<path opacity="0.6" d="M46.5001 29.1211H47.1523V27.9616H46.5001V29.1211Z" fill="white"/>
<path opacity="0.6" d="M45.4376 29.1211H46.0898V27.6715H45.4376V29.1211Z" fill="white"/>
<path opacity="0.6" d="M44.3747 29.1211H45.0269V27.3814H44.3747V29.1211Z" fill="white"/>
<path opacity="0.6" d="M88.5685 27.9355H88.1821V28.8049H88.5685V27.9355Z" fill="white"/>
<path opacity="0.6" d="M88.8348 29.1221H91.9146V27.6179H88.8348V29.1221Z" fill="white"/>
<mask id="mask0_3286_6615" style="mask-type:luminance" maskUnits="userSpaceOnUse" x="44" y="34" width="25" height="27">
<path d="M68.6123 48.8433C68.6123 55.446 63.2597 60.7986 56.657 60.7986C50.0543 60.7986 44.7017 55.446 44.7017 48.8433C44.7017 42.2406 49.5047 34.5693 56.1074 34.5693C62.7104 34.5693 68.6123 42.2406 68.6123 48.8433Z" fill="white"/>
</mask>
<g mask="url(#mask0_3286_6615)">
<path d="M56.6565 60.7993C63.2592 60.7993 68.6118 55.4467 68.6118 48.844C68.6118 42.2412 63.2592 36.8887 56.6565 36.8887C50.0537 36.8887 44.7012 42.2412 44.7012 48.844C44.7012 55.4467 50.0537 60.7993 56.6565 60.7993Z" fill="white"/>
</g>
<mask id="mask1_3286_6615" style="mask-type:luminance" maskUnits="userSpaceOnUse" x="44" y="34" width="25" height="27">
<path d="M68.6123 48.8433C68.6123 55.446 63.2597 60.7986 56.657 60.7986C50.0543 60.7986 44.7017 55.446 44.7017 48.8433C44.7017 42.2406 49.5047 34.5693 56.1074 34.5693C62.7104 34.5693 68.6123 42.2406 68.6123 48.8433Z" fill="white"/>
</mask>
<g mask="url(#mask1_3286_6615)">
<path d="M60.9582 46.834C60.9582 46.834 54.0696 46.5097 48.9375 47.8048C48.9375 47.8048 51.2031 59.2114 51.117 65.7001H62.0373C62.0373 65.7001 62.7471 53.5303 60.9582 46.834Z" fill="#407BFF"/>
<path opacity="0.6" d="M62.0363 65.7004H51.1193C51.1292 64.9942 51.1094 64.2331 51.0692 63.4318C50.9741 61.5589 50.7611 59.4832 50.5031 57.475C50.4782 57.2797 50.453 57.0844 50.4281 56.8891C50.2529 55.5847 50.0651 54.3226 49.8821 53.1709C49.3889 50.0785 48.938 47.8051 48.938 47.8051C54.0686 46.5106 60.9566 46.8337 60.9566 46.8337C62.7449 53.5315 62.0363 65.7004 62.0363 65.7004Z" fill="white"/>
<path d="M52.96 47.2878C53.9491 48.1866 56.3725 47.8542 56.3725 47.8542C56.3725 47.8542 57.8851 47.4402 57.5674 46.9677C56.6764 46.8204 56.245 46.4046 56.0668 45.8727C55.9636 45.5628 55.948 45.2142 55.9765 44.8551C55.9894 44.6664 56.0179 44.4753 56.0512 44.2869L53.0554 42.0684C53.4481 43.5327 53.9284 46.2264 52.96 47.2878Z" fill="#EBB376"/>
<path opacity="0.2" d="M53.7476 43.4785C53.8664 45.2761 55.3436 45.772 56.0666 45.8725C55.9634 45.5626 55.9478 45.214 55.9763 44.8549L53.7476 43.4785Z" fill="black"/>
<path d="M57.4692 37.4502C57.4692 37.4502 58.4952 40.0878 57.2808 41.4618C56.0664 42.8361 54.9297 37.7535 54.9297 37.7535L57.4692 37.4502Z" fill="#263238"/>
<path d="M53.5587 44.5724C54.4878 45.4259 55.6938 45.434 56.619 44.8961C57.2142 44.5514 57.6921 43.9787 57.9072 43.2608C57.9366 43.1669 57.9597 43.0691 57.9795 42.9695C58.3197 41.1416 57.8937 38.1722 55.8846 37.4732C54.4557 36.9644 52.8813 37.7111 52.3731 39.1427C52.2258 39.5489 52.1805 39.9851 52.2342 40.415C52.4538 42.4139 52.4889 43.5998 53.5587 44.5724Z" fill="#EBB376"/>
<path d="M55.3115 40.8217C55.3085 40.9843 55.412 41.113 55.5206 41.107C55.6292 41.1013 55.7066 40.9633 55.6994 40.8004C55.6922 40.6375 55.5965 40.5091 55.4903 40.5148C55.3841 40.5208 55.3043 40.6564 55.3115 40.8217Z" fill="#263238"/>
<path d="M57.1602 40.7277C57.1572 40.8903 57.2631 41.019 57.3693 41.0133C57.4752 41.0076 57.5553 40.8696 57.5481 40.7067C57.5409 40.5438 57.4452 40.4154 57.339 40.4211C57.2331 40.4268 57.1527 40.5726 57.1602 40.7277Z" fill="#263238"/>
<path d="M56.5767 40.8379C56.7969 41.3281 57.0837 41.7856 57.4293 42.1972C57.2103 42.3715 56.9253 42.4399 56.6508 42.3841L56.5767 40.8379Z" fill="#D58745"/>
<path d="M54.7071 40.2522C54.7428 40.2555 54.7776 40.2393 54.7983 40.2099C54.9309 40.0044 55.1526 39.8736 55.3965 39.8571C55.4493 39.8583 55.4928 39.8163 55.494 39.7635C55.4952 39.7107 55.4532 39.6672 55.4004 39.666H55.4001C55.0914 39.6792 54.8079 39.8415 54.6402 40.101C54.6093 40.1439 54.6189 40.2036 54.6615 40.2345C54.6621 40.2351 54.6627 40.2354 54.6633 40.2357C54.6771 40.2435 54.6918 40.2492 54.7071 40.2522Z" fill="#263238"/>
<path d="M57.9216 40.0485C57.9399 40.0548 57.9597 40.0551 57.9783 40.0497C58.0248 40.0251 58.0428 39.9672 58.0179 39.9204C58.0176 39.9198 58.0173 39.9192 58.017 39.9186C57.8736 39.6435 57.6054 39.4554 57.2982 39.4143C57.2457 39.4104 57.1998 39.45 57.1959 39.5025C57.1935 39.5547 57.2322 39.6 57.2844 39.6051C57.5262 39.6447 57.735 39.7962 57.8475 40.0137C57.8658 40.0356 57.8931 40.0482 57.9216 40.0485Z" fill="#263238"/>
<path d="M53.5803 37.835L53.7753 38.7065C53.5014 38.8892 53.3589 39.233 53.5269 39.5672C53.8851 40.2809 53.5779 41.4734 53.0541 41.9885C53.0541 41.9885 53.0046 41.6687 52.7409 41.7719C52.4772 41.8751 52.7178 43.5413 53.3256 44.2874C53.3256 44.2874 52.3059 43.4963 51.6801 41.7839C51.1014 40.2002 51.0636 38.9987 51.3354 38.3372L53.5803 37.835Z" fill="#263238"/>
<path d="M51.4411 42.1059C51.6871 42.549 52.0987 42.8763 52.5856 43.0164C53.2318 43.1973 53.5549 42.6186 53.3773 42.0078C53.2141 41.4663 52.6837 40.7016 52.0342 40.7961C51.3844 40.8909 51.1459 41.5584 51.4411 42.1059Z" fill="#EBB376"/>
<path d="M53.775 38.7062C53.775 38.7062 55.947 39.4763 57.183 38.3291C58.4187 37.1819 56.991 35.6348 56.991 35.6348C56.991 35.6348 56.5557 36.1229 55.8642 36.1721C55.1727 36.2213 53.5725 35.8058 52.2858 36.4601C50.9991 37.1144 50.5161 38.9711 51.6948 39.8132L53.775 38.7062Z" fill="#263238"/>
<path d="M55.5054 42.665C55.5054 42.665 55.8699 43.2629 56.577 43.0508" stroke="#263238" stroke-width="0.15" stroke-miterlimit="10" stroke-linecap="round" stroke-linejoin="round"/>
<path d="M57.3585 47.7074L57.0687 49.1324C57.0687 49.1324 58.728 56.0537 59.085 59.6438L58.4805 60.2495L57.5292 59.6438C57.5292 59.6438 57.444 52.3334 56.6046 49.262L55.1001 48.0299L56.2842 47.6465L57.3585 47.7074Z" fill="#407BFF"/>
<path d="M53.2983 45.9316L56.1759 47.2294L56.3445 46.1893L57.4026 46.5613C57.7824 46.6948 58.0209 47.0716 57.9789 47.4721L57.8595 48.6136L56.3994 47.8147L55.6719 48.8437L52.2153 47.1787L53.2983 45.9316Z" fill="#407BFF"/>
<path opacity="0.7" d="M53.2983 45.9316L56.1759 47.2294L56.3445 46.1893L57.4026 46.5613C57.7824 46.6948 58.0209 47.0716 57.9789 47.4721L57.8595 48.6136L56.3994 47.8147L55.6719 48.8437L52.2153 47.1787L53.2983 45.9316Z" fill="white"/>
<path d="M52.2945 46.9994C52.2945 46.9994 55.0101 49.2092 58.077 56.2487C58.077 56.2487 58.1886 49.3688 57.6108 46.6709L60.9573 46.8332C60.9573 46.8332 63.4068 52.2437 62.1765 63.9323L63.0261 69.7766L59.3355 71.3201L58.485 68.6024L57.6111 71.2733L50.496 70.3214L50.8728 62.9417C50.8728 62.9417 49.1649 50.7455 48.939 47.8049L52.2945 46.9994Z" fill="#263238"/>
<path opacity="0.1" d="M63.0267 69.7765L59.3358 71.3188L58.4844 68.602L57.6105 71.2711L54.8613 70.903L50.4945 70.3195L50.6823 66.6538L50.8725 62.9404C50.8725 62.9404 50.7975 62.4172 50.6823 61.5607C50.5572 60.6643 50.3844 59.3998 50.1942 57.9928C50.1015 57.2992 50.004 56.5705 49.9038 55.8319C49.8012 55.0531 49.6986 54.262 49.5984 53.4934C49.2879 51.0697 49.02 48.8512 48.9399 47.8045L52.0623 47.0533L52.2951 46.9981C52.2951 46.9981 54.9066 49.1239 57.9012 55.8469C57.9588 55.9795 58.0164 56.1124 58.0764 56.2474C58.0764 56.2474 58.0788 56.1097 58.0815 55.8667C58.0941 54.3868 58.1064 48.9859 57.6108 46.6699L60.9585 46.8325C60.9585 46.8325 62.3457 49.8949 62.5083 56.3899C62.526 57.1585 62.5284 57.9775 62.5107 58.8436C62.4756 60.3835 62.373 62.0785 62.1777 63.9316L63.0267 69.7765Z" fill="white"/>
<path opacity="0.2" d="M59.3104 49.8161L60.0865 51.1856C60.0865 51.1856 59.2801 56.4539 57.9832 58.2866V57.1973L52.9603 51.4058L53.8618 50.0135L51.601 50.4596C51.601 50.4596 51.3907 48.3437 52.0618 47.0543L52.2946 46.9991C52.2946 46.9991 55.009 49.2101 58.0762 56.2484C58.0762 56.2484 58.189 49.3676 57.6103 46.6709C57.6103 46.6709 59.2102 47.5373 60.3496 49.8158H59.3104V49.8161Z" fill="white"/>
<path opacity="0.2" d="M62.5112 58.8452C61.6625 58.7174 60.518 58.5023 59.0858 58.1465C59.0858 58.1465 54.7715 60.9434 52.826 61.2788C51.917 61.4366 51.221 61.5218 50.6828 61.5617C50.5577 60.6653 50.3849 59.4008 50.1947 57.9938C50.102 57.3002 50.0045 56.5715 49.9043 55.8329L51.389 51.0029L55.0997 55.5173L57.9014 55.8482L58.0817 55.8683L62.5085 56.3915C62.5262 57.1601 62.5286 57.9788 62.5112 58.8452Z" fill="black"/>
<path d="M60.9582 46.835C62.4342 47.1809 66.9909 53.6402 66.8586 56.2877C66.7266 58.9355 55.2852 57.5417 55.2852 57.5417L55.5837 56.2496L62.3826 53.9708C62.3826 53.9708 62.271 52.4384 61.9143 50.6024C61.4931 48.4355 60.9582 46.835 60.9582 46.835Z" fill="#263238"/>
<path opacity="0.1" d="M66.8578 56.2881C66.7876 57.7179 63.4201 57.9681 60.3376 57.8955C59.341 57.873 58.3771 57.8178 57.5608 57.7554C56.2213 57.6552 55.2847 57.54 55.2847 57.54L55.5826 56.2479L57.9514 55.4541L62.3833 53.9694C62.3833 53.9694 62.2705 52.437 61.915 50.6016C61.8949 50.4915 61.8724 50.3862 61.8499 50.2785C61.4419 48.2778 60.9586 46.833 60.9586 46.833C62.4334 47.1816 66.9907 53.6391 66.8578 56.2881Z" fill="white"/>
<path opacity="0.2" d="M64.3488 53.9491C64.3488 53.9491 62.6061 56.2753 60.3375 57.8953C59.3409 57.8728 58.377 57.8176 57.5607 57.7552C57.3228 57.064 57.3528 56.248 57.3528 56.248L57.9513 55.4542L62.3832 53.9695C62.3832 53.9695 62.2704 52.4371 61.9149 50.6017C61.8948 50.4916 61.8723 50.3863 61.8498 50.2786L61.8723 50.251C61.8723 50.251 63.8532 51.7681 64.3488 53.9491Z" fill="black"/>
<path d="M56.26 55.534C56.26 55.534 54.9064 54.4444 54.3781 54.2794C53.8498 54.1144 52.8262 54.9067 52.8262 54.9067L54.1468 56.7886L56.26 55.534Z" fill="#EBB376"/>
<path d="M62.3351 55.3031L64.3493 53.9489C64.3493 53.9489 62.8304 52.8599 62.6324 52.8269C62.4344 52.7939 61.4438 53.9489 61.4438 53.9489L62.3351 55.3031Z" fill="#EBB376"/>
<path d="M48.9397 47.8062C46.9819 48.7656 49.7829 58.0632 52.2126 59.952C54.642 61.8408 62.8867 55.2858 62.8867 55.2858L61.642 53.5407C61.642 53.5407 55.1902 55.7886 54.355 55.5789C53.5198 55.3692 51.2341 50.5353 50.4949 49.4193C49.7557 48.3033 48.6583 47.6475 48.6583 47.6475" fill="#263238"/>
<path opacity="0.1" d="M48.9397 47.8062C46.9819 48.7656 49.7829 58.0632 52.2126 59.952C54.642 61.8408 62.8867 55.2858 62.8867 55.2858L61.642 53.5407C61.642 53.5407 55.1902 55.7886 54.355 55.5789C53.5198 55.3692 51.2341 50.5353 50.4949 49.4193C49.7557 48.3033 48.6583 47.6475 48.6583 47.6475" fill="white"/>
</g>
<path d="M84.879 43.2893H73.746C72.9531 43.2893 72.3105 42.6464 72.3105 41.8535C72.3105 41.0606 72.9534 40.418 73.746 40.418H84.879C85.6719 40.418 86.3148 41.0609 86.3148 41.8535C86.3145 42.6467 85.6719 43.2893 84.879 43.2893Z" fill="#407BFF"/>
<path d="M89.9531 46.686H72.8606C72.5567 46.686 72.3101 46.4394 72.3101 46.1355C72.3101 45.8316 72.5567 45.585 72.8606 45.585H89.9531C90.257 45.585 90.5036 45.8316 90.5036 46.1355C90.5036 46.4397 90.2573 46.686 89.9531 46.686Z" fill="#407BFF"/>
<path d="M82.7012 49.2485H72.8606C72.5567 49.2485 72.3101 49.0022 72.3101 48.698C72.3101 48.3941 72.5567 48.1475 72.8606 48.1475H82.7012C83.0051 48.1475 83.2517 48.3941 83.2517 48.698C83.2517 49.0022 83.0051 49.2485 82.7012 49.2485Z" fill="#407BFF"/>
<path opacity="0.2" d="M77.9741 55.9976H73.6481C72.9089 55.9976 72.3101 55.3985 72.3101 54.6596C72.3101 53.9204 72.9092 53.3213 73.6481 53.3213H77.9741C78.7133 53.3213 79.3124 53.9204 79.3124 54.6596C79.3124 55.3985 78.7133 55.9976 77.9741 55.9976Z" fill="black"/>
<path d="M62.539 64.415H42.9961V113.384H62.539V64.415Z" fill="#407BFF"/>
<g opacity="0.3">
<path d="M57.4062 77.3481H46.3137C46.0098 77.3481 45.7632 77.1015 45.7632 76.7976C45.7632 76.4937 46.0098 76.2471 46.3137 76.2471H57.4062C57.7101 76.2471 57.9567 76.4934 57.9567 76.7976C57.9567 77.1015 57.7101 77.3481 57.4062 77.3481Z" fill="white"/>
<path d="M53.1543 79.9106H46.3137C46.0098 79.9106 45.7632 79.664 45.7632 79.3601C45.7632 79.0562 46.0098 78.8096 46.3137 78.8096H53.1543C53.4582 78.8096 53.7048 79.0562 53.7048 79.3601C53.7048 79.664 53.4585 79.9106 53.1543 79.9106Z" fill="white"/>
</g>
<g opacity="0.3">
<path d="M54.4067 85.0141H46.3142C46.0103 85.0141 45.7637 84.7675 45.7637 84.4636C45.7637 84.1597 46.0103 83.9131 46.3142 83.9131H54.4067C54.7106 83.9131 54.9572 84.1597 54.9572 84.4636C54.9572 84.7678 54.7106 85.0141 54.4067 85.0141Z" fill="white"/>
<path d="M56.1548 87.5776H46.3142C46.0103 87.5776 45.7637 87.331 45.7637 87.0271C45.7637 86.7232 46.0103 86.4766 46.3142 86.4766H56.1548C56.4587 86.4766 56.7053 86.7232 56.7053 87.0271C56.7053 87.3313 56.459 87.5776 56.1548 87.5776Z" fill="white"/>
</g>
<g opacity="0.3">
<path d="M57.4062 92.6801H46.3137C46.0098 92.6801 45.7632 92.4335 45.7632 92.1296C45.7632 91.8257 46.0098 91.5791 46.3137 91.5791H57.4062C57.7101 91.5791 57.9567 91.8257 57.9567 92.1296C57.9567 92.4338 57.7101 92.6801 57.4062 92.6801Z" fill="white"/>
<path d="M50.1543 95.2426H46.3137C46.0098 95.2426 45.7632 94.9963 45.7632 94.6921C45.7632 94.3882 46.0098 94.1416 46.3137 94.1416H50.1543C50.4582 94.1416 50.7048 94.3882 50.7048 94.6921C50.7048 94.996 50.4585 95.2426 50.1543 95.2426Z" fill="white"/>
</g>
<g opacity="0.3">
<path d="M51.4062 100.346H46.3137C46.0098 100.346 45.7632 100.1 45.7632 99.7956C45.7632 99.4917 46.0098 99.2451 46.3137 99.2451H51.4062C51.7101 99.2451 51.9567 99.4917 51.9567 99.7956C51.9567 100.1 51.7101 100.346 51.4062 100.346Z" fill="white"/>
<path d="M56.1543 102.909H46.3137C46.0098 102.909 45.7632 102.662 45.7632 102.358C45.7632 102.054 46.0098 101.808 46.3137 101.808H56.1543C56.4582 101.808 56.7048 102.054 56.7048 102.358C56.7048 102.662 56.4585 102.909 56.1543 102.909Z" fill="white"/>
</g>
<path opacity="0.3" d="M63.6468 113.384H92.9214V64.4148H63.6468L63.6468 113.384Z" fill="white"/>
<g opacity="0.2">
<path d="M68.2644 69.6821H76.3569C76.6608 69.6821 76.9074 69.4355 76.9074 69.1316C76.9074 68.8277 76.6611 68.5811 76.3569 68.5811H68.2644C67.9602 68.5811 67.7139 68.8274 67.7139 69.1316C67.7139 69.4355 67.9602 69.6821 68.2644 69.6821Z" fill="black"/>
<path d="M87.1565 74.2012H71.864C71.5598 74.2012 71.3135 74.4478 71.3135 74.7517C71.3135 75.0556 71.5601 75.3022 71.864 75.3022H87.1565C87.4604 75.3022 87.707 75.0559 87.707 74.7517C87.707 74.4478 87.4607 74.2012 87.1565 74.2012Z" fill="black"/>
<path d="M68.2644 77.8656H87.105C87.4089 77.8656 87.6555 77.619 87.6555 77.3151C87.6555 77.0112 87.4092 76.7646 87.105 76.7646H68.2644C67.9602 76.7646 67.7139 77.0109 67.7139 77.3151C67.7139 77.6193 67.9602 77.8656 68.2644 77.8656Z" fill="black"/>
<path d="M87.1564 79.8213H68.2639C67.9597 79.8213 67.7134 80.0679 67.7134 80.3718C67.7134 80.6757 67.96 80.9223 68.2639 80.9223H87.1564C87.4603 80.9223 87.7069 80.6757 87.7069 80.3718C87.7069 80.0679 87.4606 79.8213 87.1564 79.8213Z" fill="black"/>
<path d="M68.2644 83.4858H87.105C87.4089 83.4858 87.6555 83.2395 87.6555 82.9353C87.6555 82.6314 87.4092 82.3848 87.105 82.3848H68.2644C67.9602 82.3848 67.7139 82.6314 67.7139 82.9353C67.7139 83.2395 67.9602 83.4858 68.2644 83.4858Z" fill="black"/>
<path d="M87.1564 85.4424H68.2639C67.9597 85.4424 67.7134 85.689 67.7134 85.9929C67.7134 86.2968 67.96 86.5434 68.2639 86.5434H87.1564C87.4603 86.5434 87.7069 86.2968 87.7069 85.9929C87.7069 85.689 87.4606 85.4424 87.1564 85.4424Z" fill="black"/>
<path d="M68.2644 89.1059H82.905C83.2089 89.1059 83.4555 88.8593 83.4555 88.5554C83.4555 88.2515 83.2092 88.0049 82.905 88.0049H68.2644C67.9602 88.0049 67.7139 88.2515 67.7139 88.5554C67.7139 88.8593 67.9602 89.1059 68.2644 89.1059Z" fill="black"/>
<path d="M71.864 94.727H87.1046C87.4085 94.727 87.6551 94.4804 87.6551 94.1765C87.6551 93.8726 87.4088 93.626 87.1046 93.626H71.864C71.5598 93.626 71.3135 93.8726 71.3135 94.1765C71.3135 94.4804 71.5598 94.727 71.864 94.727Z" fill="black"/>
<path d="M87.1564 96.6836H68.2639C67.9597 96.6836 67.7134 96.9302 67.7134 97.2341C67.7134 97.538 67.96 97.7846 68.2639 97.7846H87.1564C87.4603 97.7846 87.7069 97.538 87.7069 97.2341C87.7069 96.9302 87.4606 96.6836 87.1564 96.6836Z" fill="black"/>
<path d="M68.2644 100.347H87.105C87.4089 100.347 87.6555 100.101 87.6555 99.7966C87.6555 99.4927 87.4092 99.2461 87.105 99.2461H68.2644C67.9602 99.2461 67.7139 99.4927 67.7139 99.7966C67.7139 100.1 67.9602 100.347 68.2644 100.347Z" fill="black"/>
<path d="M83.2564 102.304H68.2639C67.9597 102.304 67.7134 102.55 67.7134 102.854C67.7134 103.158 67.96 103.405 68.2639 103.405H83.2564C83.5603 103.405 83.8069 103.158 83.8069 102.854C83.8069 102.55 83.5606 102.304 83.2564 102.304Z" fill="black"/>
<path d="M87.1564 107.924H68.2639C67.9597 107.924 67.7134 108.17 67.7134 108.474C67.7134 108.778 67.96 109.025 68.2639 109.025H87.1564C87.4603 109.025 87.7069 108.778 87.7069 108.474C87.7069 108.17 87.4606 107.924 87.1564 107.924Z" fill="black"/>
</g>
<g opacity="0.3">
<path d="M54.4062 69.6821H46.3137C46.0098 69.6821 45.7632 69.4355 45.7632 69.1316C45.7632 68.8277 46.0098 68.5811 46.3137 68.5811H54.4062C54.7101 68.5811 54.9567 68.8274 54.9567 69.1316C54.9567 69.4355 54.7101 69.6821 54.4062 69.6821Z" fill="white"/>
<path d="M50.1543 72.2446H46.3137C46.0098 72.2446 45.7632 71.998 45.7632 71.6941C45.7632 71.3902 46.0098 71.1436 46.3137 71.1436H50.1543C50.4582 71.1436 50.7048 71.3902 50.7048 71.6941C50.7048 71.998 50.4585 72.2446 50.1543 72.2446Z" fill="white"/>
</g>
<path d="M119.069 54.2594L119.801 52.9292L121.684 50.1909L122.039 47.9229C122.039 47.9229 123.688 48.5382 123.96 49.0128C124.232 49.4874 124.103 51.9219 123.96 52.218C123.817 52.5141 122.114 53.6834 122.114 53.6834L121.206 55.4216L119.069 54.2594Z" fill="#EBB376"/>
<path d="M110.717 44.7275C110.717 44.7275 116.814 54.3014 117.526 55.1585C118.238 56.0156 119.03 52.9298 119.03 52.9298L122.115 54.275C122.115 54.275 121.245 60.1271 118.871 60.3659C116.498 60.6047 111.434 54.3542 111.434 54.3542L110.717 44.7275Z" fill="#263238"/>
<path opacity="0.1" d="M122.114 54.2735C122.114 54.2735 121.244 60.1265 118.871 60.3665C117.686 60.4835 115.826 58.9835 114.266 57.4505C112.703 55.9175 111.434 54.3545 111.434 54.3545L111.188 51.0695L110.717 44.7275C110.717 44.7275 116.813 54.3005 117.527 55.1585C118.238 56.0165 119.03 52.9295 119.03 52.9295L122.114 54.2735Z" fill="white"/>
<path opacity="0.2" d="M114.266 57.4503C112.703 55.9173 111.434 54.3543 111.434 54.3543L111.188 51.0693C111.893 51.7143 114.014 53.9373 114.266 57.4503Z" fill="black"/>
<path d="M98.9182 96.0703L98.9326 93.1006C98.9326 93.0004 98.8633 92.9137 98.7658 92.8915L96.5914 92.3989C96.3967 92.3566 96.2047 92.4805 96.1624 92.6752C96.1567 92.7013 96.154 92.728 96.1543 92.7544C96.1651 93.7153 96.2209 94.4152 96.2149 95.6218C96.2113 96.3649 96.1225 98.6068 96.1177 99.6328C96.1126 100.659 97.1257 100.798 97.2211 100.378C97.6408 98.4958 98.2168 97.0807 98.7607 96.4801C98.8639 96.3685 98.9203 96.2218 98.9182 96.0703Z" fill="#263238"/>
<path d="M112.177 68.7246L113.135 73.7553C113.135 73.7553 120.716 86.025 120.712 93.1095C120.707 101.572 98.6328 96.6897 98.6328 96.6897V92.7936C98.6328 92.7936 111.828 93.9276 113.017 92.604C114.46 90.9975 105.563 78.564 105.563 78.564L112.177 68.7246Z" fill="#263238"/>
<path opacity="0.2" d="M120.713 93.1106C120.71 97.7756 113.999 98.3846 107.978 97.9916C103.964 97.7306 100.256 97.0226 99.0473 96.7766C98.7803 96.7226 98.6333 96.6896 98.6333 96.6896V92.7926C98.6333 92.7926 98.8073 92.8076 99.1193 92.8316C100.619 92.9516 105.29 93.2906 108.824 93.2396C110.924 93.2096 112.625 93.0386 113.018 92.6036C113.726 91.8146 111.938 88.4096 109.937 85.1516C109.937 85.1486 109.937 85.1486 109.937 85.1486C107.864 81.7796 105.563 78.5636 105.563 78.5636L108.461 74.2496L112.175 68.7236L113.135 73.7546C113.135 73.7546 120.716 86.0246 120.713 93.1106Z" fill="white"/>
<path opacity="0.2" d="M108.824 93.24L107.978 97.992C103.964 97.731 100.256 97.023 99.0474 96.777L99.1194 92.832C100.619 92.952 105.29 93.291 108.824 93.24Z" fill="black"/>
<path opacity="0.2" d="M108.473 79.6329C108.473 79.6329 109.706 82.5339 109.937 85.1499C107.864 81.7809 105.563 78.5649 105.563 78.5649L108.461 74.2509L109.988 73.7559C109.988 73.7559 110.326 75.7377 108.473 79.6329Z" fill="black"/>
<path d="M106.501 122.226H103.531C103.431 122.226 103.345 122.296 103.323 122.394L102.841 124.57C102.8 124.765 102.924 124.957 103.119 124.998C103.145 125.003 103.172 125.006 103.198 125.006C104.159 124.99 104.859 124.931 106.065 124.931C106.808 124.931 109.051 125.009 110.077 125.009C111.103 125.009 111.237 123.995 110.817 123.902C108.933 123.491 107.515 122.922 106.911 122.381C106.8 122.279 106.653 122.223 106.501 122.226Z" fill="#263238"/>
<path d="M98.9493 68.8855C98.9493 68.8855 98.2899 71.3494 98.9493 82.6411C99.9618 99.9778 103.175 123.059 103.175 123.059L106.911 122.38C106.911 122.38 106.434 87.8548 106.937 78.3268C106.937 78.3268 112.216 73.5916 112.176 68.7247C112.137 63.8578 98.9493 68.8855 98.9493 68.8855Z" fill="#263238"/>
<path opacity="0.2" d="M98.9493 68.8855C98.9493 68.8855 98.2899 71.3494 98.9493 82.6411C99.9618 99.9778 103.175 123.059 103.175 123.059L106.911 122.38C106.911 122.38 106.434 87.8548 106.937 78.3268C106.937 78.3268 112.216 73.5916 112.176 68.7247C112.137 63.8578 98.9493 68.8855 98.9493 68.8855Z" fill="white"/>
<path d="M112.011 67.3301H98.9497V68.8847L112.177 68.7242L112.011 67.3301Z" fill="#263238"/>
<path d="M103.148 69.3906H103.614V66.6309H103.148V69.3906Z" fill="#263238"/>
<path d="M109.756 69.3906H110.222V66.6309H109.756V69.3906Z" fill="#263238"/>
<path d="M106.058 68.7988H108.473V67.0582H106.058V68.7988Z" fill="white"/>
<path opacity="0.2" d="M103.148 69.3906H103.614V66.6309H103.148V69.3906Z" fill="white"/>
<path opacity="0.2" d="M109.756 69.3906H110.222V66.6309H109.756V69.3906Z" fill="white"/>
<path d="M110.717 44.7269C110.717 44.7269 102.463 44.3381 96.3145 45.8903C96.3145 45.8903 99.0291 59.5571 98.9259 67.3313H112.01C112.01 67.3313 112.86 52.7501 110.717 44.7269Z" fill="#407BFF"/>
<path opacity="0.6" d="M112.008 67.3305H98.9284C98.9404 66.4845 98.9164 65.5725 98.8684 64.6125C98.7544 62.3685 98.4994 59.8815 98.1904 57.4755C98.1604 57.2415 98.1304 57.0075 98.1004 56.7735C97.8904 55.2105 97.6654 53.6985 97.4464 52.3185C96.8554 48.6135 96.3154 45.8895 96.3154 45.8895C102.462 44.3385 110.715 44.7255 110.715 44.7255C112.857 52.7505 112.008 67.3305 112.008 67.3305Z" fill="white"/>
<path d="M101.134 45.2701C102.319 46.3468 105.222 45.9487 105.222 45.9487C105.222 45.9487 107.035 45.4525 106.654 44.8864C105.587 44.71 105.07 44.2117 104.856 43.5745C104.733 43.2031 104.714 42.7855 104.748 42.3553C104.763 42.1294 104.797 41.9005 104.838 41.6746L101.248 39.0166C101.718 40.771 102.294 43.9984 101.134 45.2701Z" fill="#EBB376"/>
<path opacity="0.2" d="M102.077 40.7061C102.22 42.8598 103.99 43.4538 104.856 43.5744C104.732 43.203 104.714 42.7854 104.747 42.3552L102.077 40.7061Z" fill="black"/>
<path d="M100.052 33.4365C100.052 33.4365 99.0504 36.6759 100.619 38.2149C102.187 39.7539 103.113 33.5829 103.113 33.5829L100.052 33.4365Z" fill="#263238"/>
<path d="M105.331 41.6156C104.294 42.7145 102.853 42.827 101.702 42.263C100.961 41.9015 100.341 41.258 100.023 40.4186C99.9797 40.3088 99.944 40.1939 99.9116 40.0766C99.3494 37.9208 99.6059 34.3361 101.947 33.3293C103.611 32.5997 105.557 33.3578 106.286 35.0255C106.496 35.4983 106.588 36.0158 106.56 36.5342C106.468 38.942 106.527 40.3619 105.331 41.6156Z" fill="#EBB376"/>
<path d="M102.917 37.282C102.935 37.4761 102.822 37.6384 102.692 37.6408C102.561 37.6432 102.457 37.4848 102.452 37.2898C102.446 37.0945 102.55 36.9331 102.677 36.9307C102.804 36.9286 102.912 37.0834 102.917 37.282Z" fill="#263238"/>
<path d="M100.7 37.3259C100.718 37.52 100.602 37.6826 100.475 37.6847C100.348 37.6868 100.24 37.5287 100.235 37.3337C100.23 37.1384 100.333 36.977 100.461 36.9746C100.588 36.9725 100.696 37.1399 100.7 37.3259Z" fill="#263238"/>
<path d="M101.407 37.4082C101.185 38.0127 100.881 38.5839 100.503 39.1053C100.78 39.2949 101.127 39.3522 101.45 39.2622L101.407 37.4082Z" fill="#D58745"/>
<path d="M103.591 36.5501C103.548 36.557 103.505 36.5408 103.478 36.5075C103.302 36.2732 103.026 36.1358 102.733 36.1367C102.67 36.1427 102.615 36.0962 102.609 36.0332C102.603 35.9702 102.649 35.9144 102.712 35.9087H102.713C103.083 35.8982 103.436 36.068 103.658 36.3641C103.699 36.4124 103.692 36.4847 103.644 36.5255C103.644 36.5261 103.643 36.5267 103.642 36.5273C103.626 36.5372 103.609 36.545 103.591 36.5501Z" fill="#263238"/>
<path d="M99.7318 36.5807C99.7105 36.5897 99.6868 36.5918 99.664 36.587C99.6061 36.5615 99.58 36.4937 99.6055 36.4361C99.6058 36.4352 99.6061 36.4346 99.6064 36.4337C99.7543 36.0926 100.059 35.8451 100.423 35.7698C100.485 35.7605 100.543 35.804 100.553 35.8664C100.56 35.9288 100.517 35.9861 100.456 35.9966C100.17 36.0644 99.9334 36.2633 99.8176 36.5327C99.7975 36.5606 99.766 36.578 99.7318 36.5807Z" fill="#263238"/>
<path d="M104.732 33.5645L104.573 34.6226C104.916 34.8176 105.116 35.2163 104.943 35.63C104.576 36.5135 105.045 37.9124 105.715 38.4836C105.715 38.4836 105.747 38.0972 106.071 38.198C106.395 38.2988 106.249 40.3106 105.586 41.2541C105.586 41.2541 106.737 40.2218 107.339 38.1221C107.896 36.1799 107.838 34.7411 107.457 33.9734L104.732 33.5645Z" fill="#263238"/>
<path d="M107.652 38.4879C107.396 39.0384 106.931 39.4647 106.361 39.6735C105.605 39.9447 105.169 39.2805 105.329 38.5356C105.478 37.8747 106.047 36.9156 106.832 36.9732C107.616 37.0311 107.958 37.8084 107.652 38.4879Z" fill="#EBB376"/>
<path d="M101.271 39.8523C101.395 40.1514 101.507 40.7076 101.507 40.7076C101.559 40.7064 101.611 40.7055 101.664 40.7016C102.371 40.6689 102.689 40.4202 102.826 40.1541C102.901 40.0083 102.92 39.8556 102.919 39.7317C102.92 39.5886 102.887 39.4863 102.887 39.4863C102.523 39.7278 101.865 39.8088 101.512 39.8376C101.365 39.8508 101.271 39.8523 101.271 39.8523Z" fill="#263238"/>
<path d="M101.513 39.8367L101.589 40.0869C102.255 40.0545 102.72 39.9422 102.92 39.7307C102.92 39.5876 102.888 39.4854 102.888 39.4854C102.523 39.7269 101.866 39.8082 101.513 39.8367Z" fill="white"/>
<path d="M101.664 40.7008C102.371 40.6681 102.689 40.4194 102.826 40.1533C102.585 40.1737 102.297 40.225 102.048 40.3453C101.856 40.4362 101.739 40.5688 101.664 40.7008Z" fill="#DE5753"/>
<path d="M104.573 34.6225C104.573 34.6225 102.043 35.728 100.468 34.462C98.8939 33.196 100.468 31.2256 100.468 31.2256C100.468 31.2256 101.03 31.7719 101.861 31.7719C102.692 31.7719 104.568 31.1389 106.162 31.8115C107.756 32.4841 108.491 34.6615 107.154 35.7685L104.573 34.6225Z" fill="#263238"/>
<path d="M106.405 45.7732L106.057 47.4808C106.057 47.4808 108.046 55.7734 108.473 60.0751L107.749 60.8008L106.609 60.0751C106.609 60.0751 106.507 51.316 105.501 47.6365L103.698 46.1605L105.117 45.7012L106.405 45.7732Z" fill="#407BFF"/>
<path d="M101.54 43.6445L104.988 45.1994L105.19 43.9532L106.458 44.399C106.913 44.5589 107.199 45.0104 107.149 45.4901L107.005 46.8578L105.256 45.9005L104.385 47.1335L100.243 45.1385L101.54 43.6445Z" fill="#407BFF"/>
<path opacity="0.7" d="M101.54 43.6445L104.988 45.1994L105.19 43.9532L106.458 44.399C106.913 44.5589 107.199 45.0104 107.149 45.4901L107.005 46.8578L105.256 45.9005L104.385 47.1335L100.243 45.1385L101.54 43.6445Z" fill="white"/>
<path d="M100.337 44.9258C100.337 44.9258 103.59 47.5736 107.265 56.0078C107.265 56.0078 107.399 47.765 106.707 44.5322L110.716 44.7269C110.716 44.7269 113.651 51.2093 112.177 65.2139L113.195 72.2162L108.773 74.0657L107.754 70.8095L106.707 74.0099L98.1816 72.8693L98.6331 64.0274C98.6331 64.0274 96.5868 49.4147 96.3159 45.8915L100.337 44.9258Z" fill="#263238"/>
<path opacity="0.1" d="M113.195 72.2172L108.773 74.0652L107.753 70.8102L106.706 74.0082L103.412 73.5672L98.1804 72.8682L98.4054 68.4762L98.6334 64.0272C98.6334 64.0272 98.2674 61.3962 97.8204 58.0992C97.5894 56.3892 97.3404 54.5022 97.1064 52.7082C96.7344 49.8042 96.4134 47.1462 96.3174 45.8922L100.058 44.9922L100.337 44.9262C100.337 44.9262 103.589 47.5752 107.264 56.0082C107.264 56.0082 107.399 47.7642 106.706 44.5332L110.717 44.7282C110.717 44.7282 113.651 51.2082 112.178 65.2152L113.195 72.2172Z" fill="white"/>
<path opacity="0.2" d="M108.743 48.3012L109.673 49.9422C109.673 49.9422 108.707 56.2542 107.153 58.4502V57.1452L101.135 50.2062L102.215 48.5382L99.5062 49.0722C99.5062 49.0722 99.2542 46.5372 100.058 44.9922L100.337 44.9262C100.337 44.9262 103.589 47.5752 107.264 56.0082C107.264 56.0082 107.399 47.7642 106.706 44.5332C106.706 44.5332 108.623 45.5712 109.988 48.3012H108.743Z" fill="white"/>
<path opacity="0.2" d="M97.8204 58.0978C97.5894 56.3878 97.3404 54.5008 97.1064 52.7068L98.0634 52.2178C98.0634 52.2178 98.9214 55.5088 97.8204 58.0978Z" fill="black"/>
<path opacity="0.2" d="M103.412 73.5656L98.1802 72.8666L98.4052 68.4746C100.004 69.2516 102.605 70.8836 103.412 73.5656Z" fill="black"/>
<path d="M96.3168 45.8916C96.3168 45.8916 89.913 55.4589 90.546 60.801C91.179 66.1431 98.949 74.8404 98.949 74.8404L101.424 73.3014C101.424 73.3014 95.2143 63.7695 94.6605 60.801C94.3623 59.202 98.0628 52.2177 98.0628 52.2177C98.0628 52.2177 97.815 47.3982 96.3168 45.8916Z" fill="#263238"/>
<path opacity="0.1" d="M96.3168 45.8916C96.3168 45.8916 89.913 55.4589 90.546 60.801C91.179 66.1431 98.949 74.8404 98.949 74.8404L101.424 73.3014C101.424 73.3014 95.2143 63.7695 94.6605 60.801C94.3623 59.202 98.0628 52.2177 98.0628 52.2177C98.0628 52.2177 97.815 47.3982 96.3168 45.8916Z" fill="white"/>
<path d="M116.416 52.5506L116.993 44.684L122.115 45.038L122.719 42.5195L123.96 43.0358L121.368 52.2191L116.416 52.5506Z" fill="#407BFF"/>
<path opacity="0.7" d="M116.416 52.5506L116.993 44.684L122.115 45.038L122.719 42.5195L123.96 43.0358L121.368 52.2191L116.416 52.5506Z" fill="white"/>
<path d="M115.371 53.6837L117.27 45.5342H122.413L124.232 42.5957L122.729 51.3149L120.909 53.2223L115.371 53.6837Z" fill="#407BFF"/>
<path opacity="0.2" d="M122.412 45.5342L120.909 53.2223L122.729 51.3149L124.232 42.5957L122.412 45.5342Z" fill="black"/>
<path d="M123.222 48.4541C123.222 48.4541 122.353 48.743 122.234 49.2572C122.116 49.7714 121.918 52.9364 121.918 52.9364C121.918 52.9364 123.263 52.6199 123.461 51.908C123.659 51.1955 123.222 48.4541 123.222 48.4541Z" fill="#EBB376"/>
</svg>
