<svg width="150" height="150" viewBox="0 0 150 150" fill="none" xmlns="http://www.w3.org/2000/svg">
<path d="M48.5933 88.1991C48.5933 88.0544 48.7285 87.9238 49.0019 87.8638H49.6966C49.9698 87.9238 50.105 88.0544 50.105 88.2027C50.105 88.3509 49.9698 88.478 49.6966 88.5416H49.0019C48.7285 88.478 48.5933 88.3509 48.5933 88.1991Z" fill="#D1DCF8"/>
<path d="M42.9087 88.1991C42.9087 88.0544 43.1629 87.9238 43.6769 87.8638H44.9833C45.4968 87.9238 45.751 88.0544 45.751 88.2027C45.751 88.3509 45.4968 88.478 44.9833 88.5416H43.6769C43.1629 88.478 42.9087 88.3509 42.9087 88.1991Z" fill="#D1DCF8"/>
<path d="M37.2241 88.1991C37.2241 88.0544 37.4783 87.9238 37.9924 87.8638H39.2987C39.8122 87.9238 40.0664 88.0544 40.0664 88.2027C40.0664 88.3509 39.8122 88.478 39.2987 88.5416H37.9924C37.4783 88.478 37.2241 88.3509 37.2241 88.1991Z" fill="#D1DCF8"/>
<path d="M31.5396 88.1991C31.5396 88.0544 31.7938 87.9238 32.3078 87.8638H33.6141C34.1277 87.9238 34.3818 88.0544 34.3818 88.2027C34.3818 88.3509 34.1276 88.478 33.6141 88.5416H32.3078C31.7937 88.478 31.5396 88.3509 31.5396 88.1991Z" fill="#D1DCF8"/>
<path d="M27.1892 86.6909C27.3338 86.6909 27.4645 86.9613 27.5245 87.5081V87.8637H27.8807C28.4269 87.9237 28.6973 88.0544 28.6973 88.2026C28.6973 88.3509 28.4269 88.478 27.8807 88.5416H26.8467V87.5081C26.9102 86.9613 27.0373 86.6909 27.1892 86.6909Z" fill="#D1DCF8"/>
<path d="M27.1892 81.9453C27.3338 81.9453 27.4645 82.1575 27.5245 82.5867V83.6772C27.4645 84.1059 27.3338 84.3181 27.1856 84.3181C27.0374 84.3181 26.9102 84.1059 26.8467 83.6772V82.5867C26.9102 82.1575 27.0373 81.9453 27.1892 81.9453Z" fill="#D1DCF8"/>
<path d="M28.6973 78.0642C28.6973 78.2088 28.4269 78.3395 27.8801 78.3995H27.5245V78.7557C27.4645 79.3019 27.3338 79.5723 27.1856 79.5723C27.0374 79.5723 26.9102 79.3019 26.8467 78.7557V77.7217H27.8801C28.4269 77.7852 28.6973 77.9123 28.6973 78.0642Z" fill="#D1DCF8"/>
<path d="M32.8993 78.0642C32.8993 78.2089 32.7113 78.3395 32.3314 78.3996H31.3658C30.9862 78.3396 30.7983 78.2089 30.7983 78.0606C30.7983 77.9124 30.9863 77.7853 31.3658 77.7217H32.3314C32.7113 77.7853 32.8993 77.9124 32.8993 78.0642Z" fill="#D1DCF8"/>
<path d="M36.5086 79.5723C36.364 79.5723 36.2333 79.302 36.1733 78.7551V78.3996H35.8171C35.2709 78.3396 35.0005 78.2089 35.0005 78.0606C35.0005 77.9124 35.2709 77.7853 35.8171 77.7217H36.8511V78.7551C36.7875 79.302 36.6604 79.5723 36.5086 79.5723Z" fill="#D1DCF8"/>
<path d="M36.5082 85.3652C36.3635 85.3652 36.2329 85.1061 36.1729 84.5823V83.2511C36.2329 82.7278 36.3635 82.4688 36.5118 82.4688C36.66 82.4688 36.7871 82.7278 36.8507 83.2511V84.5823C36.7871 85.1061 36.66 85.3652 36.5082 85.3652Z" fill="#D1DCF8"/>
<path d="M36.5082 91.1582C36.3635 91.1582 36.2329 90.8991 36.1729 90.3753V89.0441C36.2329 88.5208 36.3635 88.2617 36.5118 88.2617C36.66 88.2617 36.7871 88.5208 36.8507 89.0441V90.3753C36.7871 90.8991 36.66 91.1582 36.5082 91.1582Z" fill="#D1DCF8"/>
<path d="M35.0005 95.5628C35.0005 95.4182 35.2709 95.2875 35.8177 95.2275H36.1733V94.8713C36.2333 94.3251 36.364 94.0547 36.5122 94.0547C36.6604 94.0547 36.7875 94.3251 36.8511 94.8713V95.9053H35.8177C35.2709 95.8418 35.0005 95.7147 35.0005 95.5628Z" fill="#D1DCF8"/>
<path d="M28.3208 95.5629C28.3208 95.4182 28.6195 95.2876 29.2235 95.2275H30.7585C31.3619 95.2875 31.6606 95.4182 31.6606 95.5664C31.6606 95.7147 31.3619 95.8418 30.7585 95.9054H29.2235C28.6195 95.8418 28.3208 95.7147 28.3208 95.5629Z" fill="#D1DCF8"/>
<path d="M21.6411 95.5629C21.6411 95.4182 21.9398 95.2876 22.5438 95.2275H24.0789C24.6823 95.2875 24.981 95.4182 24.981 95.5664C24.981 95.7147 24.6823 95.8418 24.0789 95.9054H22.5438C21.9398 95.8418 21.6411 95.7147 21.6411 95.5629Z" fill="#D1DCF8"/>
<path d="M16.7927 94.0547C16.9374 94.0547 17.068 94.3251 17.128 94.8719V95.2275H17.4842C18.0304 95.2875 18.3008 95.4182 18.3008 95.5664C18.3008 95.7147 18.0304 95.8418 17.4842 95.9054H16.4502V94.8719C16.5138 94.3251 16.6408 94.0547 16.7927 94.0547Z" fill="#D1DCF8"/>
<path d="M16.7927 88.4839C16.9374 88.4839 17.068 88.733 17.128 89.2367V90.5168C17.068 91.02 16.9374 91.2691 16.7891 91.2691C16.6409 91.2691 16.5138 91.02 16.4502 90.5168V89.2367C16.5138 88.733 16.6408 88.4839 16.7927 88.4839Z" fill="#D1DCF8"/>
<path d="M16.7927 82.9136C16.9374 82.9136 17.068 83.1627 17.128 83.6664V84.9465C17.068 85.4497 16.9374 85.6988 16.7891 85.6988C16.6409 85.6988 16.5138 85.4497 16.4502 84.9465V83.6664C16.5138 83.1627 16.6408 82.9136 16.7927 82.9136Z" fill="#D1DCF8"/>
<path d="M16.7927 77.3433C16.9374 77.3433 17.068 77.5924 17.128 78.0961V79.3762C17.068 79.8794 16.9374 80.1285 16.7891 80.1285C16.6409 80.1285 16.5138 79.8794 16.4502 79.3762V78.0961C16.5138 77.5924 16.6408 77.3433 16.7927 77.3433Z" fill="#D1DCF8"/>
<path d="M16.7927 71.7729C16.9374 71.7729 17.068 72.022 17.128 72.5258V73.8059C17.068 74.3091 16.9374 74.5582 16.7891 74.5582C16.6409 74.5582 16.5138 74.3091 16.4502 73.8059V72.5258C16.5138 72.022 16.6408 71.7729 16.7927 71.7729Z" fill="#D1DCF8"/>
<path d="M16.7927 66.2021C16.9374 66.2021 17.068 66.4512 17.128 66.955V68.2351C17.068 68.7383 16.9374 68.9874 16.7891 68.9874C16.6409 68.9874 16.5138 68.7383 16.4502 68.2351V66.955C16.5138 66.4512 16.6408 66.2021 16.7927 66.2021Z" fill="#D1DCF8"/>
<path d="M16.7927 60.6318C16.9374 60.6318 17.068 60.8809 17.128 61.3847V62.6648C17.068 63.1679 16.9374 63.4171 16.7891 63.4171C16.6409 63.4171 16.5138 63.1679 16.4502 62.6648V61.3847C16.5138 60.8809 16.6408 60.6318 16.7927 60.6318Z" fill="#D1DCF8"/>
<path d="M18.3008 56.3386C18.3008 56.4832 18.0304 56.6139 17.4836 56.6739H17.128V57.0301C17.068 57.5763 16.9374 57.8467 16.7891 57.8467C16.6409 57.8467 16.5138 57.5763 16.4502 57.0301V55.9961H17.4836C18.0304 56.0597 18.3008 56.1867 18.3008 56.3386Z" fill="#D1DCF8"/>
<path d="M23.024 56.3386C23.024 56.4833 22.8128 56.614 22.3857 56.6739H21.3004C20.8738 56.614 20.6626 56.4833 20.6626 56.335C20.6626 56.1868 20.8738 56.0597 21.3004 55.9961H22.3857C22.8128 56.0597 23.024 56.1868 23.024 56.3386Z" fill="#D1DCF8"/>
<path d="M27.7466 56.3386C27.7466 56.4833 27.5354 56.614 27.1084 56.6739H26.0231C25.5965 56.614 25.3853 56.4833 25.3853 56.335C25.3853 56.1868 25.5964 56.0597 26.0231 55.9961H27.1084C27.5354 56.0597 27.7466 56.1868 27.7466 56.3386Z" fill="#D1DCF8"/>
<path d="M31.6232 54.8232C31.7679 54.8232 31.8985 55.0936 31.9585 55.6404V56.6739H30.9246C30.3783 56.6139 30.1079 56.4832 30.1079 56.335C30.1079 56.1867 30.3783 56.0596 30.9246 55.996H31.2807V55.6404C31.3443 55.0937 31.4714 54.8232 31.6232 54.8232Z" fill="#D1DCF8"/>
<path d="M31.6232 48.9136C31.7679 48.9136 31.8986 49.1779 31.9586 49.7122V51.0703C31.8986 51.6041 31.7679 51.8684 31.6197 51.8684C31.4714 51.8684 31.3443 51.6042 31.2808 51.0703V49.7122C31.3443 49.1779 31.4714 48.9136 31.6232 48.9136Z" fill="#D1DCF8"/>
<path d="M31.6232 43.0039C31.7679 43.0039 31.8986 43.2681 31.9586 43.8025V45.1606C31.8986 45.6944 31.7679 45.9587 31.6197 45.9587C31.4714 45.9587 31.3443 45.6944 31.2808 45.1606V43.8025C31.3443 43.2682 31.4714 43.0039 31.6232 43.0039Z" fill="#D1DCF8"/>
<path d="M31.6232 37.0942C31.7679 37.0942 31.8986 37.3585 31.9586 37.8929V39.2509C31.8986 39.7848 31.7679 40.0491 31.6197 40.0491C31.4714 40.0491 31.3443 39.7848 31.2808 39.2509V37.8929C31.3443 37.3585 31.4714 37.0942 31.6232 37.0942Z" fill="#D1DCF8"/>
<path d="M31.6232 31.1846C31.7679 31.1846 31.8986 31.4488 31.9586 31.9832V33.3412C31.8986 33.8751 31.7679 34.1394 31.6197 34.1394C31.4714 34.1394 31.3443 33.8751 31.2808 33.3412V31.9832C31.3443 31.4488 31.4714 31.1846 31.6232 31.1846Z" fill="#D1DCF8"/>
<path d="M33.1314 26.7219C33.1314 26.8665 32.861 26.9972 32.3142 27.0572H31.9586V27.4134C31.8986 27.9596 31.7679 28.23 31.6197 28.23C31.4714 28.23 31.3443 27.9596 31.2808 27.4134V26.3794H32.3142C32.861 26.443 33.1314 26.5701 33.1314 26.7219Z" fill="#D1DCF8"/>
<path d="M39.0427 26.7219C39.0427 26.8666 38.7783 26.9973 38.2438 27.0573H36.8853C36.3513 26.9973 36.0869 26.8666 36.0869 26.7183C36.0869 26.5701 36.3513 26.443 36.8853 26.3794H38.2438C38.7783 26.443 39.0427 26.5701 39.0427 26.7219Z" fill="#D1DCF8"/>
<path d="M44.9543 26.7219C44.9543 26.8666 44.69 26.9973 44.1554 27.0573H42.7969C42.2629 26.9973 41.9985 26.8666 41.9985 26.7183C41.9985 26.5701 42.2629 26.443 42.7969 26.3794H44.1554C44.69 26.443 44.9543 26.5701 44.9543 26.7219Z" fill="#D1DCF8"/>
<path d="M50.8659 26.7219C50.8659 26.8666 50.6016 26.9973 50.067 27.0573H48.7085C48.1745 26.9973 47.9102 26.8666 47.9102 26.7183C47.9102 26.5701 48.1745 26.443 48.7085 26.3794H50.067C50.6016 26.443 50.8659 26.5701 50.8659 26.7219Z" fill="#D1DCF8"/>
<path d="M56.7776 26.7219C56.7776 26.8666 56.5132 26.9973 55.9787 27.0573H54.6202C54.0861 26.9973 53.8218 26.8666 53.8218 26.7183C53.8218 26.5701 54.0861 26.443 54.6202 26.3794H55.9787C56.5132 26.443 56.7776 26.5701 56.7776 26.7219Z" fill="#D1DCF8"/>
<path d="M62.6892 26.7219C62.6892 26.8666 62.4248 26.9973 61.8902 27.0573H60.5318C59.9978 26.9973 59.7334 26.8666 59.7334 26.7183C59.7334 26.5701 59.9978 26.443 60.5318 26.3794H61.8902C62.4248 26.443 62.6892 26.5701 62.6892 26.7219Z" fill="#D1DCF8"/>
<path d="M68.6003 26.7219C68.6003 26.8666 68.3359 26.9973 67.8014 27.0573H66.4429C65.9089 26.9973 65.6445 26.8666 65.6445 26.7183C65.6445 26.5701 65.9089 26.443 66.4429 26.3794H67.8014C68.336 26.443 68.6003 26.5701 68.6003 26.7219Z" fill="#D1DCF8"/>
<path d="M74.5119 26.7219C74.5119 26.8666 74.2475 26.9973 73.713 27.0573H72.3545C71.8205 26.9973 71.5562 26.8666 71.5562 26.7183C71.5562 26.5701 71.8205 26.443 72.3545 26.3794H73.713C74.2476 26.443 74.5119 26.5701 74.5119 26.7219Z" fill="#D1DCF8"/>
<path d="M80.4235 26.7219C80.4235 26.8666 80.1592 26.9973 79.6246 27.0573H78.2662C77.7321 26.9973 77.4678 26.8666 77.4678 26.7183C77.4678 26.5701 77.7321 26.443 78.2662 26.3794H79.6246C80.1592 26.443 80.4235 26.5701 80.4235 26.7219Z" fill="#D1DCF8"/>
<path d="M86.3351 26.7219C86.3351 26.8666 86.0708 26.9973 85.5362 27.0573H84.1778C83.6438 26.9973 83.3794 26.8666 83.3794 26.7183C83.3794 26.5701 83.6438 26.443 84.1778 26.3794H85.5362C86.0708 26.443 86.3351 26.5701 86.3351 26.7219Z" fill="#D1DCF8"/>
<path d="M92.2468 26.7219C92.2468 26.8666 91.9824 26.9973 91.4479 27.0573H90.0894C89.5554 26.9973 89.291 26.8666 89.291 26.7183C89.291 26.5701 89.5554 26.443 90.0894 26.3794H91.4479C91.9824 26.443 92.2468 26.5701 92.2468 26.7219Z" fill="#D1DCF8"/>
<path d="M98.1584 26.7219C98.1584 26.8666 97.894 26.9973 97.3595 27.0573H96.001C95.467 26.9973 95.2026 26.8666 95.2026 26.7183C95.2026 26.5701 95.467 26.443 96.001 26.3794H97.3595C97.8941 26.443 98.1584 26.5701 98.1584 26.7219Z" fill="#D1DCF8"/>
<path d="M104.07 26.7219C104.07 26.8666 103.805 26.9973 103.271 27.0573H101.912C101.378 26.9973 101.114 26.8666 101.114 26.7183C101.114 26.5701 101.378 26.443 101.912 26.3794H103.271C103.805 26.443 104.07 26.5701 104.07 26.7219Z" fill="#D1DCF8"/>
<path d="M109.981 26.7219C109.981 26.8666 109.717 26.9973 109.182 27.0573H107.824C107.29 26.9973 107.025 26.8666 107.025 26.7183C107.025 26.5701 107.29 26.443 107.824 26.3794H109.182C109.717 26.443 109.981 26.5701 109.981 26.7219Z" fill="#D1DCF8"/>
<path d="M114.445 28.23C114.3 28.23 114.17 27.9596 114.11 27.4128V27.0573H113.754C113.207 26.9973 112.937 26.8666 112.937 26.7183C112.937 26.5701 113.207 26.443 113.754 26.3794H114.788V27.4128C114.724 27.9596 114.597 28.23 114.445 28.23Z" fill="#D1DCF8"/>
<path d="M114.445 34.6316C114.301 34.6316 114.17 34.3453 114.11 33.7664V32.2953C114.17 31.717 114.301 31.4307 114.449 31.4307C114.597 31.4307 114.724 31.717 114.788 32.2953V33.7664C114.724 34.3453 114.597 34.6316 114.445 34.6316Z" fill="#D1DCF8"/>
<path d="M114.445 39.3442C114.301 39.3442 114.17 39.209 114.11 38.9356V38.2409C114.17 37.9677 114.301 37.8325 114.449 37.8325C114.597 37.8325 114.724 37.9677 114.788 38.2409V38.9356C114.724 39.209 114.597 39.3442 114.445 39.3442Z" fill="#D1DCF8"/>
<path d="M100.688 40.5743V121.238C100.688 125.476 97.2484 128.909 93.0104 128.909H51.1758C46.9378 128.909 43.498 125.476 43.498 121.238V40.5743C43.498 36.3362 46.9378 32.9028 51.1758 32.9028H93.0104C97.2484 32.9028 100.688 36.3362 100.688 40.5743Z" fill="#3A4146"/>
<path d="M100.688 40.5743V121.238C100.688 125.476 97.2484 128.909 93.0104 128.909H51.1758C46.9378 128.909 43.498 125.476 43.498 121.238V40.5743C43.498 36.3362 46.9378 32.9028 51.1758 32.9028H93.0104C97.2484 32.9028 100.688 36.3362 100.688 40.5743Z" fill="#4A5258"/>
<path d="M51.1755 126.758C48.1288 126.758 45.6499 124.282 45.6499 121.238V40.5743C45.6499 37.5308 48.126 35.0547 51.1698 35.0547H57.6882C58.2203 35.0547 58.6533 35.4874 58.6533 36.0195C58.6533 37.0455 59.4878 37.88 60.5138 37.88H84.0463C85.0723 37.88 85.9068 37.0455 85.9068 36.0195C85.9068 35.4874 86.3398 35.0547 86.8719 35.0547H93.0105C96.0572 35.0547 98.5361 37.5336 98.5361 40.5808V121.238C98.5361 124.282 96.0572 126.758 93.0105 126.758H51.1755Z" fill="white"/>
<g opacity="0.5">
<path d="M51.1755 126.758C48.1288 126.758 45.6499 124.282 45.6499 121.238V40.5743C45.6499 37.5308 48.126 35.0547 51.1698 35.0547H57.6882C58.2203 35.0547 58.6533 35.4874 58.6533 36.0195C58.6533 37.0455 59.4878 37.88 60.5138 37.88H84.0463C85.0723 37.88 85.9068 37.0455 85.9068 36.0195C85.9068 35.4874 86.3398 35.0547 86.8719 35.0547H93.0105C96.0572 35.0547 98.5361 37.5336 98.5361 40.5808V121.238C98.5361 124.282 96.0572 126.758 93.0105 126.758H51.1755Z" fill="#64D3FF"/>
</g>
<g opacity="0.1">
<path d="M47.6489 81.4219V119.359L50.7689 117.074L52.8996 119.463L55.0354 117.073L57.1673 119.464L59.2987 117.074L61.4291 119.463L63.5649 117.073L65.6968 119.464L67.8282 117.074L69.9587 119.463L72.0944 117.073L74.2266 119.464L76.3578 117.074L78.4884 119.463L80.624 117.073L82.7561 119.464L84.8873 117.074L87.0187 119.464L89.1506 117.073L91.2864 119.463L93.4171 117.074L96.537 119.359V81.4219H47.6489Z" fill="black"/>
</g>
<path d="M65.0208 36.8258C65.5401 36.8258 65.961 36.4048 65.961 35.8855C65.961 35.3663 65.5401 34.9453 65.0208 34.9453C64.5015 34.9453 64.0806 35.3663 64.0806 35.8855C64.0806 36.4048 64.5015 36.8258 65.0208 36.8258Z" fill="#2E363A"/>
<path d="M80.1057 35.8834V35.8884C80.1057 36.1167 79.9231 36.2991 79.6949 36.2991H67.1851C66.9569 36.2991 66.7744 36.1166 66.7744 35.8884V35.8834C66.7744 35.6551 66.957 35.4727 67.1851 35.4727H79.6949C79.9231 35.4726 80.1057 35.6551 80.1057 35.8834Z" fill="#2E363A"/>
<path d="M96.5383 44.6494V116.918L94.3176 114.527L92.0968 116.918L89.8709 114.527L87.6501 116.918L85.4242 114.527L83.2035 116.918L80.9828 114.527L78.7569 116.918L76.5361 114.527L74.3154 116.918L72.0946 114.527L69.8687 116.918L67.6479 114.527L65.4272 116.918L63.2064 114.527L60.9805 116.918L58.7598 114.527L56.539 116.918L54.3183 114.527L52.0924 116.918L49.8716 114.527L47.6509 116.918V44.6494C47.6509 43.5931 48.5062 42.7378 49.5573 42.7378H94.6265C95.683 42.7378 96.5383 43.5931 96.5383 44.6494Z" fill="white"/>
<path d="M62.9629 50.276C62.924 50.2371 62.9048 50.1894 62.9048 50.1328V47.3727C62.9048 47.3161 62.924 47.2676 62.9629 47.2273C63.0015 47.1869 63.0492 47.167 63.1061 47.167C63.1626 47.167 63.2111 47.1869 63.2515 47.2273C63.2916 47.2676 63.3117 47.3161 63.3117 47.3727V50.1328C63.3117 50.1894 63.2916 50.2372 63.2515 50.276C63.2111 50.3147 63.1626 50.3341 63.1061 50.3341C63.0492 50.3341 63.0015 50.3146 62.9629 50.276Z" fill="#4A5258"/>
<path d="M64.2378 50.276C64.1989 50.2372 64.1797 50.1894 64.1797 50.1329V47.4622C64.1797 47.3815 64.208 47.3124 64.2646 47.2541C64.3212 47.196 64.3898 47.167 64.4703 47.167H64.5286C64.6238 47.167 64.706 47.2115 64.7746 47.3011L66.4967 49.7884V47.3727C66.4967 47.3161 66.5162 47.2676 66.555 47.2273C66.5937 47.1869 66.6414 47.167 66.6982 47.167C66.7548 47.167 66.8033 47.1869 66.8434 47.2273C66.8837 47.2676 66.9039 47.3161 66.9039 47.3727V50.0433C66.9039 50.1238 66.8749 50.1924 66.8166 50.249C66.7585 50.3059 66.6891 50.3342 66.6087 50.3342H66.5551C66.5073 50.3342 66.4625 50.3228 66.4207 50.3007C66.3789 50.2783 66.3447 50.249 66.3179 50.2133L64.5867 47.7128V50.1329C64.5867 50.1895 64.5665 50.2372 64.5264 50.2761C64.4861 50.3147 64.4376 50.3342 64.381 50.3342C64.3241 50.3341 64.2764 50.3147 64.2378 50.276Z" fill="#4A5258"/>
<path d="M68.5633 50.1284L67.4584 47.4487C67.4495 47.4248 67.4448 47.3995 67.4448 47.3727C67.4448 47.31 67.4628 47.2603 67.4987 47.2229C67.5344 47.1854 67.5836 47.167 67.6461 47.167C67.6879 47.167 67.7261 47.1795 67.7602 47.2049C67.7944 47.2302 67.8208 47.2639 67.8385 47.3055L68.8898 49.9269L69.9409 47.3055C69.9589 47.2639 69.985 47.2302 70.0194 47.2049C70.0536 47.1795 70.0915 47.167 70.1333 47.167C70.1961 47.167 70.2453 47.1854 70.281 47.2229C70.3169 47.2603 70.3346 47.3099 70.3346 47.3727C70.3346 47.3995 70.3302 47.4249 70.3213 47.4487L69.2163 50.1284C69.1538 50.2655 69.0613 50.3341 68.939 50.3341H68.8406C68.7184 50.3341 68.6259 50.2655 68.5633 50.1284Z" fill="#4A5258"/>
<path d="M71.3769 50.1506C71.1414 50.0135 70.9593 49.824 70.8312 49.5824C70.703 49.341 70.6358 49.0635 70.6299 48.7505C70.6358 48.4373 70.703 48.16 70.8312 47.9184C70.9593 47.6768 71.1414 47.4875 71.3769 47.3502C71.6126 47.2132 71.8869 47.1445 72.2001 47.1445C72.5131 47.1445 72.7867 47.2132 73.021 47.3502C73.255 47.4875 73.437 47.6775 73.5667 47.9206C73.6964 48.1637 73.7643 48.4402 73.7702 48.7505C73.7643 49.0608 73.6964 49.3373 73.5667 49.5802C73.437 49.8233 73.255 50.0135 73.021 50.1505C72.7867 50.2878 72.5131 50.3565 72.2001 50.3565C71.8869 50.3565 71.6126 50.2878 71.3769 50.1506ZM72.8219 49.8152C72.9978 49.7079 73.1319 49.5618 73.2245 49.3767C73.317 49.192 73.3632 48.983 73.3632 48.7505C73.3632 48.5178 73.317 48.3091 73.2245 48.1241C73.1319 47.9393 72.9978 47.7932 72.8219 47.6859C72.6458 47.5784 72.4386 47.5247 72.2001 47.5247C71.9585 47.5247 71.7504 47.5784 71.5759 47.6859C71.4015 47.7932 71.2681 47.9393 71.1756 48.1241C71.0831 48.3092 71.0368 48.5178 71.0368 48.7505C71.0368 48.983 71.0831 49.192 71.1756 49.3767C71.2681 49.5618 71.4015 49.7079 71.5759 49.8152C71.7504 49.9225 71.9586 49.9761 72.2001 49.9761C72.4386 49.9761 72.6457 49.9225 72.8219 49.8152Z" fill="#4A5258"/>
<path d="M74.5082 50.276C74.4694 50.2371 74.4502 50.1894 74.4502 50.1328V47.3727C74.4502 47.3161 74.4694 47.2676 74.5082 47.2273C74.5469 47.1869 74.5946 47.167 74.6514 47.167C74.708 47.167 74.7565 47.1869 74.7968 47.2273C74.837 47.2676 74.8571 47.3161 74.8571 47.3727V50.1328C74.8571 50.1894 74.837 50.2372 74.7968 50.276C74.7565 50.3147 74.708 50.3341 74.6514 50.3341C74.5946 50.3341 74.5469 50.3146 74.5082 50.276Z" fill="#4A5258"/>
<path d="M76.2999 50.1618C76.0627 50.0321 75.8764 49.8456 75.7406 49.6025C75.605 49.3597 75.5371 49.0755 75.5371 48.7505C75.5371 48.4254 75.605 48.1413 75.7406 47.8982C75.8764 47.6553 76.0627 47.4688 76.2999 47.3391C76.5368 47.2092 76.8045 47.1445 77.1027 47.1445C77.3055 47.1445 77.4868 47.1684 77.6462 47.2161C77.8059 47.2639 77.9646 47.3323 78.1228 47.4218C78.1883 47.4575 78.2212 47.5143 78.2212 47.5918C78.2212 47.6366 78.2048 47.676 78.172 47.7104C78.1391 47.7446 78.096 47.7618 78.0421 47.7618C78.0123 47.7618 77.9855 47.7559 77.9616 47.7439C77.8305 47.6752 77.7023 47.6231 77.5771 47.5874C77.4518 47.5515 77.3069 47.5338 77.143 47.5338C76.8864 47.5338 76.6682 47.5866 76.4876 47.6924C76.3072 47.7983 76.1716 47.9429 76.0806 48.1265C75.9896 48.3098 75.9441 48.5177 75.9441 48.7505C75.9441 48.983 75.9896 49.1911 76.0806 49.3744C76.1716 49.5577 76.3072 49.7027 76.4876 49.8085C76.6682 49.9143 76.8864 49.9672 77.143 49.9672C77.3069 49.9672 77.4518 49.9492 77.5771 49.9135C77.7023 49.8776 77.8305 49.8257 77.9616 49.7571C77.9855 49.745 78.0123 49.7391 78.0421 49.7391C78.096 49.7391 78.139 49.7556 78.172 49.7883C78.2048 49.821 78.2212 49.8614 78.2212 49.9091C78.2212 49.9866 78.1883 50.0432 78.1228 50.0791C77.9646 50.1684 77.8059 50.2371 77.6462 50.2848C77.4868 50.3325 77.3055 50.3564 77.1027 50.3564C76.8045 50.3564 76.5368 50.2914 76.2999 50.1618Z" fill="#4A5258"/>
<path d="M78.8921 50.2537C78.8532 50.2148 78.834 50.1671 78.834 50.1105V47.3951C78.834 47.3386 78.8532 47.2901 78.8921 47.2497C78.9307 47.2094 78.9784 47.1895 79.0353 47.1895H80.829C80.8828 47.1895 80.9281 47.2079 80.9655 47.2453C81.0027 47.2827 81.0214 47.328 81.0214 47.3816C81.0214 47.4355 81.0027 47.4801 80.9655 47.516C80.9281 47.5516 80.8828 47.5696 80.829 47.5696H79.241V48.5582H80.668C80.7217 48.5582 80.7672 48.5769 80.8044 48.6141C80.8418 48.6515 80.8605 48.697 80.8605 48.7507C80.8605 48.8043 80.8418 48.8491 80.8044 48.8848C80.7672 48.9207 80.7217 48.9384 80.668 48.9384H79.241V49.9317H80.829C80.8828 49.9317 80.9281 49.9501 80.9655 49.9876C81.0027 50.025 81.0214 50.0702 81.0214 50.1239C81.0214 50.1778 81.0027 50.2223 80.9655 50.2582C80.9281 50.2939 80.8828 50.3119 80.829 50.3119H79.0353C78.9784 50.3118 78.9307 50.2924 78.8921 50.2537Z" fill="#4A5258"/>
<path d="M50.9429 55.6843C50.9429 55.829 50.8077 55.9597 50.5343 56.0197H49.8395C49.5664 55.9597 49.4312 55.829 49.4312 55.6807C49.4312 55.5325 49.5664 55.4054 49.8395 55.3418H50.5343C50.8077 55.4054 50.9429 55.5325 50.9429 55.6843Z" fill="#D1DCF8"/>
<path d="M56.5835 55.6843C56.5835 55.829 56.3312 55.9597 55.8212 56.0197H54.525C54.0154 55.9597 53.7632 55.829 53.7632 55.6807C53.7632 55.5325 54.0154 55.4054 54.525 55.3418H55.8212C56.3312 55.4054 56.5835 55.5325 56.5835 55.6843Z" fill="#D1DCF8"/>
<path d="M62.2241 55.6843C62.2241 55.829 61.9718 55.9597 61.4618 56.0197H60.1656C59.6561 55.9597 59.4038 55.829 59.4038 55.6807C59.4038 55.5325 59.6561 55.4054 60.1656 55.3418H61.4618C61.9718 55.4054 62.2241 55.5325 62.2241 55.6843Z" fill="#D1DCF8"/>
<path d="M67.8647 55.6843C67.8647 55.829 67.6125 55.9597 67.1024 56.0197H65.8062C65.2967 55.9597 65.0444 55.829 65.0444 55.6807C65.0444 55.5325 65.2967 55.4054 65.8062 55.3418H67.1024C67.6125 55.4054 67.8647 55.5325 67.8647 55.6843Z" fill="#D1DCF8"/>
<path d="M73.5048 55.6843C73.5048 55.829 73.2526 55.9597 72.7425 56.0197H71.4464C70.9368 55.9597 70.6846 55.829 70.6846 55.6807C70.6846 55.5325 70.9368 55.4054 71.4464 55.3418H72.7425C73.2526 55.4054 73.5048 55.5325 73.5048 55.6843Z" fill="#D1DCF8"/>
<path d="M79.1455 55.6843C79.1455 55.829 78.8932 55.9597 78.3832 56.0197H77.087C76.5774 55.9597 76.3252 55.829 76.3252 55.6807C76.3252 55.5325 76.5774 55.4054 77.087 55.3418H78.3832C78.8932 55.4054 79.1455 55.5325 79.1455 55.6843Z" fill="#D1DCF8"/>
<path d="M84.7861 55.6843C84.7861 55.829 84.5338 55.9597 84.0238 56.0197H82.7276C82.2181 55.9597 81.9658 55.829 81.9658 55.6807C81.9658 55.5325 82.2181 55.4054 82.7276 55.3418H84.0238C84.5338 55.4054 84.7861 55.5325 84.7861 55.6843Z" fill="#D1DCF8"/>
<path d="M90.4267 55.6843C90.4267 55.829 90.1745 55.9597 89.6644 56.0197H88.3682C87.8587 55.9597 87.6064 55.829 87.6064 55.6807C87.6064 55.5325 87.8587 55.4054 88.3682 55.3418H89.6644C90.1745 55.4054 90.4267 55.5325 90.4267 55.6843Z" fill="#D1DCF8"/>
<path d="M94.7588 55.6843C94.7588 55.829 94.6236 55.9597 94.3502 56.0197H93.6554C93.3823 55.9597 93.2471 55.829 93.2471 55.6807C93.2471 55.5325 93.3823 55.4054 93.6554 55.3418H94.3502C94.6236 55.4054 94.7588 55.5325 94.7588 55.6843Z" fill="#D1DCF8"/>
<path d="M64.7784 61.5117H50.5686C50.3126 61.5117 50.105 61.3041 50.105 61.0481V60.22C50.105 59.9639 50.3126 59.7563 50.5686 59.7563H64.7784C65.0345 59.7563 65.2421 59.9639 65.2421 60.22V61.0481C65.2421 61.3041 65.0345 61.5117 64.7784 61.5117Z" fill="#D1DCF8"/>
<path d="M84.9218 65.2539H50.5686C50.3126 65.2539 50.105 65.0463 50.105 64.7902V63.9622C50.105 63.7061 50.3126 63.4985 50.5686 63.4985H84.9218C85.1779 63.4985 85.3855 63.7061 85.3855 63.9622V64.7902C85.3855 65.0463 85.1779 65.2539 84.9218 65.2539Z" fill="#D1DCF8"/>
<path d="M93.9093 94.7057H50.2803C50.1759 94.7057 50.0913 94.621 50.0913 94.5167V68.3682C50.0913 68.2638 50.1759 68.1792 50.2803 68.1792H93.9092C94.0136 68.1792 94.0982 68.2638 94.0982 68.3682V94.5167C94.0982 94.621 94.0136 94.7057 93.9093 94.7057ZM50.4692 94.3277H93.7203V68.5571H50.4692V94.3277Z" fill="#D1DCF8"/>
<path d="M93.9093 73.2281H50.2803C50.1759 73.2281 50.0913 73.1435 50.0913 73.0391V68.3682C50.0913 68.2638 50.1759 68.1792 50.2803 68.1792H93.9092C94.0136 68.1792 94.0982 68.2638 94.0982 68.3682V73.0391C94.0982 73.1435 94.0136 73.2281 93.9093 73.2281ZM50.4692 72.8502H93.7203V68.5571H50.4692V72.8502Z" fill="#D1DCF8"/>
<path d="M73.7391 77.2246H52.7241C52.5494 77.2246 52.4077 77.083 52.4077 76.9082V75.7783C52.4077 75.6036 52.5494 75.4619 52.7241 75.4619H73.7391C73.9139 75.4619 74.0555 75.6036 74.0555 75.7783V76.9082C74.0555 77.083 73.9139 77.2246 73.7391 77.2246Z" fill="#E4ECF9"/>
<path d="M91.4655 77.2246H81.9854C81.8106 77.2246 81.6689 77.083 81.6689 76.9082V75.7783C81.6689 75.6036 81.8106 75.4619 81.9854 75.4619H91.4655C91.6402 75.4619 91.7819 75.6036 91.7819 75.7783V76.9082C91.7819 77.083 91.6402 77.2246 91.4655 77.2246Z" fill="#E4ECF9"/>
<path d="M73.7391 80.9063H52.7241C52.5494 80.9063 52.4077 80.7646 52.4077 80.5899V79.46C52.4077 79.2852 52.5494 79.1436 52.7241 79.1436H73.7391C73.9139 79.1436 74.0555 79.2852 74.0555 79.46V80.5899C74.0555 80.7646 73.9139 80.9063 73.7391 80.9063Z" fill="#E4ECF9"/>
<path d="M91.4655 80.9063H81.9854C81.8106 80.9063 81.6689 80.7646 81.6689 80.5899V79.46C81.6689 79.2852 81.8106 79.1436 81.9854 79.1436H91.4655C91.6402 79.1436 91.7819 79.2852 91.7819 79.46V80.5899C91.7819 80.7646 91.6402 80.9063 91.4655 80.9063Z" fill="#E4ECF9"/>
<path d="M73.7391 84.5879H52.7241C52.5494 84.5879 52.4077 84.4462 52.4077 84.2715V83.1416C52.4077 82.9669 52.5494 82.8252 52.7241 82.8252H73.7391C73.9139 82.8252 74.0555 82.9669 74.0555 83.1416V84.2715C74.0555 84.4462 73.9139 84.5879 73.7391 84.5879Z" fill="#E4ECF9"/>
<path d="M91.4655 84.5879H81.9854C81.8106 84.5879 81.6689 84.4462 81.6689 84.2715V83.1416C81.6689 82.9669 81.8106 82.8252 81.9854 82.8252H91.4655C91.6402 82.8252 91.7819 82.9669 91.7819 83.1416V84.2715C91.7819 84.4462 91.6402 84.5879 91.4655 84.5879Z" fill="#E4ECF9"/>
<path d="M73.7391 88.27H52.7241C52.5494 88.27 52.4077 88.1284 52.4077 87.9536V86.8237C52.4077 86.649 52.5494 86.5073 52.7241 86.5073H73.7391C73.9139 86.5073 74.0555 86.649 74.0555 86.8237V87.9536C74.0555 88.1283 73.9139 88.27 73.7391 88.27Z" fill="#E4ECF9"/>
<path d="M91.4655 88.27H81.9854C81.8106 88.27 81.6689 88.1284 81.6689 87.9536V86.8237C81.6689 86.649 81.8106 86.5073 81.9854 86.5073H91.4655C91.6402 86.5073 91.7819 86.649 91.7819 86.8237V87.9536C91.7819 88.1283 91.6402 88.27 91.4655 88.27Z" fill="#E4ECF9"/>
<path d="M70.5792 106.334H52.5802C52.116 106.334 51.7397 105.958 51.7397 105.494V102.793C51.7397 102.328 52.116 101.952 52.5802 101.952H70.5792C71.0434 101.952 71.4197 102.328 71.4197 102.793V105.494C71.4197 105.958 71.0434 106.334 70.5792 106.334Z" fill="#E4ECF9"/>
<path d="M116.517 125.634L113.938 127.403L112.439 126.743C112.439 126.743 112.402 125.506 112.372 123.67C112.357 122.283 112.334 121.047 112.334 120.972C112.334 120.784 116.187 121.009 116.367 121.069C116.442 121.092 116.479 121.938 116.494 122.958C116.532 124.472 116.517 125.499 116.517 125.634Z" fill="#FEC9AC"/>
<g opacity="0.5">
<path d="M116.494 122.958C115.34 123.505 114.058 123.767 112.784 123.707C112.649 123.7 112.507 123.692 112.372 123.67C112.357 122.283 112.334 121.047 112.334 120.972C112.334 120.784 116.187 121.009 116.367 121.069C116.442 121.092 116.479 121.938 116.494 122.958Z" fill="#FFAB90"/>
</g>
<path d="M117.806 128.508C117.771 128.741 117.568 128.905 117.33 128.905H105.72C105.517 128.905 105.338 128.781 105.264 128.592C105.09 128.122 104.858 127.25 105.398 126.879C106.151 126.363 107.746 126.839 108.845 126.061C109.94 125.289 111.253 122.658 112.828 124.446C112.828 124.446 114.096 126.388 114.958 125.977C115.82 125.566 116.464 123.441 117.499 124.253C118.019 124.664 117.974 127.508 117.806 128.508Z" fill="#2E363A"/>
<path d="M126.418 125.634L123.839 127.403L122.34 126.743C122.34 126.743 122.303 125.506 122.273 123.67C122.258 122.283 122.235 121.047 122.235 120.972C122.235 120.784 126.088 121.009 126.268 121.069C126.343 121.092 126.38 121.938 126.395 122.958C126.433 124.472 126.418 125.499 126.418 125.634Z" fill="#FEC9AC"/>
<g opacity="0.5">
<path d="M126.395 122.958C125.241 123.505 123.959 123.767 122.685 123.707C122.55 123.7 122.408 123.692 122.273 123.67C122.258 122.283 122.235 121.047 122.235 120.972C122.235 120.784 126.088 121.009 126.268 121.069C126.343 121.092 126.38 121.938 126.395 122.958Z" fill="#FFAB90"/>
</g>
<path d="M127.707 128.508C127.672 128.741 127.469 128.905 127.231 128.905H115.62C115.417 128.905 115.239 128.781 115.165 128.592C114.991 128.122 114.759 127.25 115.298 126.879C116.051 126.363 117.646 126.839 118.746 126.061C119.841 125.289 121.154 122.658 122.729 124.446C122.729 124.446 123.997 126.388 124.859 125.977C125.721 125.566 126.365 123.441 127.4 124.253C127.92 124.664 127.875 127.508 127.707 128.508Z" fill="#3A4146"/>
<path d="M110.36 71.2425C110.36 71.2425 107.146 74.1629 103.21 73.5182C103.138 73.5086 103.066 73.4893 102.994 73.4701C99.8569 72.6185 93.3474 64.1749 91.3893 60.9081C91.3893 60.9081 89.1088 60.6869 89.1762 59.4744C89.2724 57.7713 90.8793 56.6454 90.8793 56.6454C90.8793 56.6454 88.2813 53.5086 89.0655 52.9024C89.8497 52.301 92.568 56.4867 92.568 56.4867C92.568 56.4867 92.5872 55.0962 93.41 54.7932C94.2374 54.4949 93.333 57.9733 93.333 57.9733C93.333 57.9733 103.379 65.575 104.235 66.2918C104.49 66.0465 106.4 64.9062 107.545 64.2327C108.055 63.9295 108.411 63.7227 108.411 63.7227L110.36 71.2425Z" fill="#FEC9AC"/>
<g opacity="0.5">
<path d="M110.36 71.2425C110.36 71.2425 107.146 74.1629 103.21 73.5182C103.138 73.5085 103.066 73.4893 102.994 73.4701C104.413 72.2817 105.467 70.6555 106.188 68.9331C106.669 67.7784 107.016 66.5757 107.3 65.3584C107.386 64.9832 107.468 64.6079 107.545 64.2327C108.055 63.9295 108.411 63.7227 108.411 63.7227L110.36 71.2425Z" fill="#FFAB90"/>
</g>
<path d="M104.1 66.3396C104.004 66.3589 103.994 66.3396 104.042 66.2915C104.081 66.3156 104.1 66.3348 104.1 66.3396Z" fill="#FEC9AC"/>
<path d="M125.262 54.6518C125.244 54.6698 123.711 56.3828 123.106 56.203C122.501 56.0234 122.315 55.077 122.315 55.077L122.89 54.2505L123.86 53.7773L125.262 54.6518Z" fill="#2E363A"/>
<path d="M109.794 122.255C109.794 123.531 117.709 123.531 117.709 122.255C117.709 122.046 116.599 107.985 116.599 107.985L120.516 122.241V122.255C120.62 123.343 127.715 122.666 127.611 121.578C127.733 121.549 127.873 112.86 127.803 104.157C127.751 96.1318 127.524 88.0771 126.984 86.7802C126.984 86.7802 111.276 83.0628 109.044 86.6218C108.957 86.7802 108.87 86.9532 108.835 87.1549C107.876 91.5784 109.794 122.255 109.794 122.255Z" fill="#3A4146"/>
<path d="M114.449 92.9473C114.449 92.9473 114.449 115.612 117.709 122.255C117.918 122.255 116.598 107.985 116.598 107.985L120.516 122.241C120.516 121.362 114.449 92.9473 114.449 92.9473Z" fill="#2E363A"/>
<path d="M109.044 86.6218C111.45 86.8955 113.647 88.0771 115.32 89.5612C117.116 91.175 118.371 93.1346 119.539 95.0942C120.707 97.0682 121.823 99.0711 123.409 100.843C124.595 102.183 126.059 103.365 127.802 104.157C127.75 96.1318 127.524 88.0771 126.983 86.7803C126.983 86.7803 111.275 83.0628 109.044 86.6218Z" fill="#2E363A"/>
<path d="M109.948 73.3402C109.948 73.3402 111.075 67.6623 113.08 64.1909L109.948 73.3402Z" fill="#42C1F4"/>
<path d="M135.563 69.9244C134.964 71.6734 132.952 74.3028 131.257 75.6565C130.376 76.3632 129.574 76.7166 129.107 76.4172L127.382 75.6505L126.657 75.327L129.071 86.947C129.071 86.947 119.589 92.6909 108.275 86.7433C108.275 86.7433 108.346 85.773 108.472 84.3294C108.748 81.2448 109.281 75.9859 109.946 73.3384H109.85L108.934 73.3086C107.304 73.5421 106.136 64.7494 107.436 63.4497C107.454 63.4197 107.478 63.4017 107.502 63.3838C107.502 63.3838 112.845 59.4007 120.793 60.311C126.196 60.922 131.089 64.4739 133.659 66.6781C134.869 67.7143 135.563 68.451 135.563 68.451C135.821 68.7444 135.791 69.2716 135.563 69.9244Z" fill="#1B67AF"/>
<path d="M119.265 63.3422C116.055 62.935 118.031 60.9704 118.277 60.1737C118.325 60.0181 118.331 59.7724 118.319 59.4969C118.307 59.2992 118.283 59.0837 118.259 58.88C118.253 58.844 118.247 58.8082 118.241 58.7782C118.181 58.335 118.109 57.9636 118.109 57.9456L119.05 57.0471L119.487 56.6279L119.936 56.2026H122.338L122.913 56.7477L123.194 60.2216L123.218 60.5271L123.242 60.7966C123.242 60.7966 123.566 63.8933 119.265 63.3422Z" fill="#FEC9AC"/>
<path d="M123.219 60.5277C123.033 60.3419 122.871 60.1264 122.751 59.8927C122.428 59.2699 122.368 58.5212 122.596 57.8623C121.985 58.3715 121.32 58.8207 120.583 59.126C119.87 59.4316 119.086 59.5814 118.319 59.4974C118.307 59.2997 118.283 59.0842 118.259 58.8805C118.253 58.8445 118.247 58.8087 118.241 58.7787C118.181 58.3355 118.109 57.9641 118.109 57.9461L119.05 57.0476L119.487 56.6284L119.936 56.2031H122.338L122.913 56.7481L123.195 60.2221L123.219 60.5277Z" fill="#F2BDA2"/>
<path d="M122.587 57.6252C122.587 57.6252 117.482 60.5748 116.291 57.4739C115.1 54.3731 118.503 50.0054 118.503 50.0054L122.379 51.1966C122.379 51.1966 123.684 54.1277 123.495 54.4489C123.306 54.7701 122.852 55.5453 122.909 55.5453C122.965 55.5453 124.526 55.0239 124.342 56.6361C124.169 58.1507 122.587 57.6252 122.587 57.6252Z" fill="#FEC9AC"/>
<path d="M119.235 54.7305C119.17 54.9536 119.275 55.1807 119.47 55.2377C119.665 55.2947 119.876 55.16 119.941 54.9369C120.006 54.7137 119.901 54.4866 119.706 54.4296C119.511 54.3726 119.3 54.5073 119.235 54.7305Z" fill="#4F2D2B"/>
<path d="M117.221 53.8968C117.163 54.0966 117.257 54.2999 117.432 54.351C117.606 54.402 117.795 54.2814 117.853 54.0816C117.912 53.8818 117.818 53.6785 117.643 53.6274C117.469 53.5764 117.28 53.697 117.221 53.8968Z" fill="#4F2D2B"/>
<path d="M117.76 56.3352C117.739 56.3577 117.542 56.2332 117.286 55.8533C117.262 55.8108 117.236 55.7758 117.212 55.7133C117.185 55.6507 117.201 55.5579 117.23 55.5117C117.283 55.419 117.343 55.3535 117.4 55.2731C117.515 55.1196 117.629 54.9628 117.751 54.8226C118.047 54.4923 118.212 54.3449 118.241 54.3687C118.269 54.3924 118.153 54.5811 117.881 54.9313C117.756 55.0742 117.65 55.2223 117.54 55.369C117.488 55.4416 117.422 55.5173 117.381 55.5874C117.365 55.6235 117.364 55.6311 117.372 55.6575C117.381 55.6835 117.408 55.7266 117.431 55.7652C117.646 56.1396 117.791 56.306 117.76 56.3352Z" fill="#4F2D2B"/>
<path d="M120.876 53.7747C120.838 53.7883 120.787 53.6987 120.658 53.5619C120.559 53.4404 120.418 53.3426 120.273 53.302C120.106 53.2423 120.021 53.2846 119.997 53.2516C119.966 53.2316 120.07 53.0923 120.316 53.1381C120.508 53.193 120.666 53.3074 120.789 53.4542C120.918 53.6429 120.908 53.7659 120.876 53.7747Z" fill="#4F2D2B"/>
<path d="M117.539 52.3382C117.52 52.3133 117.585 52.2122 117.797 52.1819C117.974 52.1733 118.154 52.2421 118.282 52.3638C118.35 52.4398 118.388 52.5152 118.387 52.5827C118.384 52.6518 118.341 52.6704 118.329 52.6587C118.301 52.6299 118.302 52.5956 118.166 52.4873C118.069 52.3957 117.936 52.3448 117.803 52.3512C117.646 52.3448 117.558 52.3746 117.539 52.3382Z" fill="#4F2D2B"/>
<path d="M118.931 57.4403C118.939 57.4706 118.815 57.5479 118.537 57.5419C118.305 57.5214 118.079 57.4474 117.88 57.3269C117.652 57.1679 117.598 57.0321 117.623 57.0118C117.653 56.9837 117.751 57.0673 117.967 57.1817C118.144 57.2889 118.346 57.355 118.552 57.3731C118.794 57.4082 118.923 57.3989 118.931 57.4403Z" fill="#4F2D2B"/>
<path d="M122.908 55.5439C122.643 55.6899 122.518 56.1609 122.483 56.6759C122.453 57.1611 121.961 55.0407 122.213 53.8308C122.003 53.202 121.776 52.5491 121.548 52.1837C120.967 51.2374 119.89 51.6645 118.589 51.2612C117.801 51.017 116.044 50.1772 116.211 48.9733C116.385 47.7634 117.505 48.9853 118.2 48.0029C118.895 47.0207 120.272 46.4936 121.566 48.5481C121.566 48.5481 125.292 47.3322 125.927 50.89C126.759 55.5439 124.122 54.8743 122.908 55.5439Z" fill="#2E363A"/>
<path d="M135.565 69.9243C134.964 71.6755 132.953 74.3024 131.254 75.6592C130.374 76.3616 129.575 76.7176 129.109 76.4193L127.382 75.6495L126.655 75.3272L129.07 86.9461C129.07 86.9461 119.587 92.6907 108.276 86.7441C108.276 86.7441 108.349 85.7722 108.474 84.3289C111.928 83.9247 115.623 84.988 118.794 83.5591C121.334 82.414 122.989 79.8449 123.711 77.1554C124.35 74.7643 124.581 72.1278 124.562 69.6212C124.519 69.2892 124.5 68.9572 124.49 68.6205C124.509 68.6445 124.528 68.6685 124.543 68.6926C125.26 69.6116 125.986 70.5449 126.944 71.2137C127.92 71.9017 129.186 72.2866 130.326 71.9498C131.091 71.7237 131.74 71.1944 132.217 70.5594C132.688 69.9243 133.001 69.1738 133.241 68.4232C133.419 67.8507 133.564 67.2637 133.66 66.6768C134.868 67.716 135.565 68.4521 135.565 68.4521C135.82 68.7455 135.791 69.2699 135.565 69.9243Z" fill="#125476"/>
<path d="M129.251 83.8573C129.251 83.8573 125.226 88.0978 123.866 84.019C122.932 81.2039 128.388 81.0122 128.388 81.0122" fill="#FEC9AC"/>
<path d="M139.458 75.9816C138.313 79.2628 129.248 83.8574 129.248 83.8574L128.387 81.0092L132.125 76.1018L131.255 75.6592C131.49 75.4668 131.736 75.255 131.981 75.0193C133.492 73.5808 135.051 71.4302 135.565 69.9243C136.388 70.8192 137.581 72.1615 138.438 73.3932C139.169 74.4468 139.65 75.4235 139.458 75.9816Z" fill="#FEC9AC"/>
<path d="M112.523 68.3941C111.661 69.0768 110.371 72.3022 109.91 73.3026C109.892 73.3086 109.868 73.3206 109.85 73.3384L108.934 73.3086C107.304 73.5421 106.136 64.7494 107.436 63.4497C107.622 67.8394 109.708 68.0914 112.523 68.3941Z" fill="#125476"/>
<path d="M116.459 61.5955C116.501 61.5859 116.562 61.7877 116.746 62.1525C116.93 62.5119 117.263 63.0468 117.912 63.5324C118.455 63.9501 119.119 64.194 119.802 64.2193C120.486 64.2502 121.176 64.0845 121.791 63.7769C122.525 63.4202 122.992 62.9986 123.297 62.7233C123.601 62.4419 123.748 62.2912 123.779 62.3158C123.807 62.3365 123.714 62.5304 123.444 62.862C123.171 63.1865 122.717 63.6675 121.943 64.0801C121.28 64.4111 120.535 64.5913 119.787 64.5579C119.04 64.5312 118.298 64.2588 117.707 63.8022C117.016 63.2444 116.701 62.636 116.561 62.2321C116.421 61.8209 116.429 61.6012 116.459 61.5955Z" fill="white"/>
<path d="M18.4639 65.1016C22.8622 65.1016 26.4278 61.5361 26.4278 57.1377C26.4278 52.7394 22.8622 49.1738 18.4639 49.1738C14.0656 49.1738 10.5 52.7394 10.5 57.1377C10.5 61.5361 14.0656 65.1016 18.4639 65.1016Z" fill="#71C687"/>
<path d="M18.4639 60.8816C19.0913 60.8816 19.6031 60.3698 19.6031 59.7423V57.3376C19.6031 57.1939 19.7223 57.0747 19.866 57.0747C20.0132 57.0747 20.1289 57.1939 20.1289 57.3376V59.7423C20.1289 60.6572 19.3823 61.4074 18.4639 61.4074C17.5455 61.4074 16.7988 60.6572 16.7988 59.7423C16.7988 59.5951 16.918 59.4794 17.0617 59.4794C17.2089 59.4794 17.3246 59.5951 17.3246 59.7423C17.3246 60.3698 17.8364 60.8816 18.4639 60.8816Z" fill="white"/>
<path d="M21.5309 57.3377V59.7424C21.5309 61.432 20.1568 62.8097 18.4637 62.8097C16.7741 62.8097 15.3965 61.432 15.3965 59.7424V57.3377C15.3965 56.0898 16.1431 54.9786 17.2999 54.5019C17.4331 54.4458 17.5874 54.5089 17.6435 54.6456C17.696 54.7788 17.633 54.933 17.4998 54.9856C16.5428 55.3817 15.9223 56.3036 15.9223 57.3377V59.7424C15.9223 61.1411 17.0616 62.2839 18.4637 62.2839C19.8659 62.2839 21.0052 61.1411 21.0052 59.7424V57.3377C21.0052 55.9356 19.8659 54.7963 18.4637 54.7963C18.32 54.7963 18.2008 54.6806 18.2008 54.5334C18.2008 54.3897 18.32 54.2705 18.4637 54.2705C20.1568 54.2705 21.5309 55.6481 21.5309 57.3377Z" fill="white"/>
<path d="M13.7841 54.7577C13.3494 55.5429 13.1181 56.4367 13.1181 57.3376V58.2631C13.1181 58.4103 13.0024 58.526 12.8552 58.526C12.7115 58.526 12.5923 58.4103 12.5923 58.2631V57.3376C12.5923 56.3456 12.8447 55.3676 13.3249 54.5018C13.395 54.3756 13.5563 54.33 13.6825 54.4001C13.8087 54.4702 13.8542 54.6315 13.7841 54.7577Z" fill="white"/>
<path d="M24.3353 57.3374C24.3353 57.4846 24.2196 57.6003 24.0724 57.6003C23.9287 57.6003 23.8095 57.4846 23.8095 57.3374C23.8095 54.3894 21.4118 51.9916 18.4638 51.9916C17.0686 51.9916 15.7435 52.5315 14.741 53.506C14.6359 53.6076 14.4711 53.6041 14.3694 53.5025C14.2678 53.3973 14.2713 53.229 14.373 53.1309C15.4771 52.0582 16.9284 51.4658 18.4638 51.4658C21.7028 51.4658 24.3353 54.1019 24.3353 57.3374Z" fill="white"/>
<path d="M22.9335 57.3376V59.7423C22.9335 60.0753 22.8984 60.4048 22.8248 60.7273C22.7967 60.85 22.6881 60.9341 22.5689 60.9341C22.5479 60.9341 22.5303 60.9306 22.5093 60.9271C22.3691 60.8956 22.2779 60.7554 22.313 60.6116C22.3761 60.3277 22.4076 60.0332 22.4076 59.7423V57.3376C22.4076 55.1642 20.6409 53.394 18.4641 53.394C16.2907 53.394 14.5205 55.1642 14.5205 57.3376V59.7423C14.5205 60.0017 14.5485 60.2611 14.5976 60.5135C14.6256 60.6537 14.5345 60.7939 14.3907 60.8219C14.2505 60.85 14.1103 60.7589 14.0823 60.6151C14.0227 60.3277 13.9946 60.0332 13.9946 59.7423V57.3376C13.9946 54.8733 15.9997 52.8682 18.464 52.8682C20.9284 52.8682 22.9335 54.8733 22.9335 57.3376Z" fill="white"/>
<path d="M18.4641 60.0824C18.3204 60.0824 18.2012 59.9668 18.2012 59.8195V57.2571C18.2012 57.1133 18.3203 56.9941 18.4641 56.9941C18.6113 56.9941 18.727 57.1133 18.727 57.2571V59.8195C18.727 59.9668 18.6113 60.0824 18.4641 60.0824Z" fill="white"/>
<path d="M19.5646 56.086C19.6732 56.1807 19.6837 56.3489 19.5856 56.4576C19.491 56.5662 19.3262 56.5768 19.2175 56.4821C19.0072 56.2998 18.7408 56.1982 18.4639 56.1982C17.8364 56.1982 17.3246 56.71 17.3246 57.3374V58.5398C17.3246 58.6835 17.209 58.8027 17.0617 58.8027C16.918 58.8027 16.7988 58.6835 16.7988 58.5398V57.3374C16.7988 56.419 17.5455 55.6724 18.4639 55.6724C18.8705 55.6724 19.2596 55.8196 19.5646 56.086Z" fill="white"/>
<path d="M33.2659 35.7149C37.343 35.7149 40.648 32.4099 40.648 28.3328C40.648 24.2558 37.343 20.9507 33.2659 20.9507C29.1889 20.9507 25.8838 24.2558 25.8838 28.3328C25.8838 32.4099 29.1889 35.7149 33.2659 35.7149Z" fill="#F3F6FD"/>
<path d="M38.9223 28.806V29.9545C38.9223 30.0374 38.8542 30.1054 38.7617 30.1054H37.73C37.5791 29.8231 37.2822 29.6334 36.9367 29.6334C36.5911 29.6334 36.2942 29.8231 36.1434 30.1054H34.4595V25.8762C34.4595 25.7692 34.5471 25.6719 34.6639 25.6719H36.7176C36.8004 25.6719 36.8831 25.7205 36.9221 25.7983L37.9781 28.188C38.0219 28.2609 38.0998 28.3097 38.1825 28.3097H38.4308C38.7033 28.3096 38.9223 28.5286 38.9223 28.806Z" fill="#42C1F4"/>
<path d="M34.4593 25.3604V30.1055H31.0914C30.9405 29.8232 30.6437 29.6335 30.2981 29.6335C29.9526 29.6335 29.6557 29.8232 29.5048 30.1055H28.2881C28.2054 30.1055 28.1519 30.0423 28.1519 29.9692V25.3604C28.1519 25.2875 28.2054 25.2241 28.2881 25.2241H34.323C34.396 25.2242 34.4593 25.2875 34.4593 25.3604Z" fill="#FFCF3D"/>
<path d="M35.1377 26.3841V27.9866C35.1377 28.0214 35.1667 28.0504 35.2015 28.0504H37.1443C37.1917 28.0504 37.2226 27.9992 37.2004 27.9567L36.5229 26.3542C36.5112 26.3339 36.49 26.3203 36.4658 26.3203H35.2015C35.1667 26.3203 35.1377 26.3493 35.1377 26.3841Z" fill="white"/>
<path d="M37.8514 29.9266C37.8514 30.4279 37.4426 30.8417 36.9365 30.8417C36.4303 30.8417 36.0215 30.4279 36.0215 29.9266C36.0215 29.7661 36.0653 29.6103 36.1432 29.4789C36.294 29.1966 36.5909 29.0068 36.9365 29.0068C37.282 29.0068 37.5789 29.1966 37.7297 29.4789C37.8076 29.6103 37.8514 29.7661 37.8514 29.9266Z" fill="#2E363A"/>
<path d="M31.2132 29.9266C31.2132 30.4279 30.8045 30.8417 30.2983 30.8417C29.7921 30.8417 29.3833 30.4279 29.3833 29.9266C29.3833 29.7661 29.4271 29.6103 29.505 29.4789C29.6558 29.1966 29.9528 29.0068 30.2983 29.0068C30.6438 29.0068 30.9407 29.1966 31.0916 29.4789C31.1694 29.6103 31.2132 29.7661 31.2132 29.9266Z" fill="#2E363A"/>
<path d="M36.937 30.316C37.1529 30.316 37.3287 30.1406 37.3287 29.9246C37.3287 29.708 37.1529 29.5317 36.937 29.5317C36.7211 29.5317 36.5454 29.708 36.5454 29.9246C36.5454 30.1406 36.7211 30.316 36.937 30.316Z" fill="white"/>
<path d="M30.2976 30.316C30.5135 30.316 30.6893 30.1406 30.6893 29.9246C30.6893 29.708 30.5135 29.5317 30.2976 29.5317C30.0817 29.5317 29.9062 29.708 29.9062 29.9246C29.9063 30.1406 30.0817 30.316 30.2976 30.316Z" fill="white"/>
<path d="M118.489 39.9275C120.721 37.6956 120.721 34.0769 118.489 31.8449C116.257 29.613 112.638 29.613 110.407 31.8449C108.175 34.0769 108.175 37.6956 110.407 39.9275C112.638 42.1595 116.257 42.1595 118.489 39.9275Z" fill="#F3F6FD"/>
<path d="M115.716 34.8227C115.977 34.1921 115.678 33.4691 115.047 33.2079C114.417 32.9467 113.694 33.2462 113.432 33.8768C113.171 34.5074 113.471 35.2303 114.101 35.4915C114.732 35.7527 115.455 35.4532 115.716 34.8227Z" fill="#EE984F"/>
<path d="M112.026 38.3722H116.869C117.01 38.3722 117.128 38.2392 117.083 38.0988C116.758 36.9527 115.708 36.1025 114.451 36.1025C113.194 36.1025 112.137 36.9527 111.812 38.0988C111.775 38.2392 111.886 38.3722 112.026 38.3722Z" fill="#EE984F"/>
<path d="M18.5225 95.8489C18.6778 94.8924 18.0282 93.9912 17.0718 93.836C16.1153 93.6807 15.2141 94.3303 15.0589 95.2867C14.9037 96.2432 15.5532 97.1444 16.5097 97.2996C17.4661 97.4548 18.3673 96.8053 18.5225 95.8489Z" fill="#BBCAEA"/>
<path d="M31.1625 126.907C36.0421 126.907 39.9979 126.309 39.9979 125.571C39.9979 124.832 36.0421 124.234 31.1625 124.234C26.2829 124.234 22.3271 124.832 22.3271 125.571C22.3271 126.309 26.2829 126.907 31.1625 126.907Z" fill="#FFD964"/>
<path d="M22.3271 127.713C22.3271 128.451 26.2829 129.05 31.1625 129.05C36.0422 129.05 39.9979 128.451 39.9979 127.713V125.571C39.9979 126.309 36.0421 126.908 31.1625 126.908C26.2829 126.908 22.3271 126.309 22.3271 125.571V127.713Z" fill="#FCC230"/>
<path d="M31.1625 124.37C36.0421 124.37 39.9979 123.771 39.9979 123.033C39.9979 122.295 36.0421 121.696 31.1625 121.696C26.2829 121.696 22.3271 122.295 22.3271 123.033C22.3271 123.771 26.2829 124.37 31.1625 124.37Z" fill="#FFD964"/>
<path d="M22.3271 125.176C22.3271 125.914 26.2829 126.513 31.1625 126.513C36.0422 126.513 39.9979 125.914 39.9979 125.176V123.034C39.9979 123.772 36.0421 124.37 31.1625 124.37C26.2829 124.37 22.3271 123.772 22.3271 123.034V125.176Z" fill="#FCC230"/>
<path d="M22.3271 122.638C22.3271 123.377 26.2829 123.975 31.1625 123.975C36.0422 123.975 39.9979 123.377 39.9979 122.638V120.496C39.9979 121.234 36.0421 121.833 31.1625 121.833C26.2829 121.833 22.3271 121.234 22.3271 120.496V122.638Z" fill="#FCC230"/>
<path d="M31.1625 121.833C36.0421 121.833 39.9979 121.235 39.9979 120.496C39.9979 119.758 36.0421 119.16 31.1625 119.16C26.2829 119.16 22.3271 119.758 22.3271 120.496C22.3271 121.235 26.2829 121.833 31.1625 121.833Z" fill="#FFD964"/>
<path d="M33.0927 118.757C37.9723 118.757 41.928 118.158 41.928 117.42C41.928 116.682 37.9723 116.083 33.0927 116.083C28.213 116.083 24.2573 116.682 24.2573 117.42C24.2573 118.158 28.213 118.757 33.0927 118.757Z" fill="#FFD964"/>
<path d="M24.2573 119.563C24.2573 120.301 28.213 120.899 33.0927 120.899C37.9723 120.899 41.928 120.301 41.928 119.563V117.42C41.928 118.159 37.9723 118.757 33.0927 118.757C28.2131 118.757 24.2573 118.159 24.2573 117.42V119.563Z" fill="#FCC230"/>
<path d="M26.1313 116.486C26.1313 117.225 30.0871 117.823 34.9667 117.823C39.8464 117.823 43.8021 117.225 43.8021 116.486V114.344C43.8021 115.082 39.8464 115.681 34.9667 115.681C30.0871 115.681 26.1313 115.082 26.1313 114.344V116.486Z" fill="#FCC230"/>
<path d="M34.9667 115.681C39.8463 115.681 43.8021 115.082 43.8021 114.344C43.8021 113.606 39.8463 113.007 34.9667 113.007C30.0871 113.007 26.1313 113.606 26.1313 114.344C26.1313 115.082 30.0871 115.681 34.9667 115.681Z" fill="#FFD964"/>
<path d="M43.0139 128.751C47.5248 128.751 51.1816 125.094 51.1816 120.583C51.1816 116.072 47.5248 112.416 43.0139 112.416C38.503 112.416 34.8462 116.072 34.8462 120.583C34.8462 125.094 38.503 128.751 43.0139 128.751Z" fill="#FFCF3D"/>
<path d="M47.7787 125.349C50.4109 122.716 50.4109 118.449 47.7787 115.816C45.1465 113.184 40.8788 113.184 38.2465 115.816C35.6143 118.449 35.6143 122.716 38.2465 125.349C40.8788 127.981 45.1465 127.981 47.7787 125.349Z" fill="#FFD964"/>
<path d="M44.6154 122.379C44.486 122.574 44.302 122.73 44.0635 122.846C43.8251 122.961 43.549 123.028 43.2356 123.047V123.53C43.2356 123.589 43.2164 123.638 43.1778 123.677C43.1391 123.715 43.088 123.735 43.0245 123.735C42.9655 123.735 42.9165 123.717 42.8781 123.68C42.8395 123.644 42.82 123.594 42.82 123.53V123.047C42.3297 123.015 41.8708 122.908 41.4439 122.727C41.3892 122.704 41.3437 122.666 41.3076 122.614C41.2711 122.562 41.2529 122.506 41.2529 122.447C41.2529 122.37 41.279 122.303 41.3314 122.246C41.3836 122.189 41.4505 122.161 41.5324 122.161C41.5777 122.161 41.621 122.17 41.6619 122.188C42.0297 122.352 42.4158 122.443 42.82 122.461V120.894C42.5112 120.812 42.2511 120.723 42.04 120.628C41.8287 120.532 41.6528 120.397 41.512 120.222C41.371 120.048 41.3007 119.826 41.3007 119.558C41.3007 119.322 41.3585 119.104 41.4744 118.904C41.5902 118.704 41.7627 118.538 41.9923 118.407C42.2216 118.275 42.4974 118.195 42.82 118.168V117.691C42.82 117.632 42.8394 117.582 42.8781 117.541C42.9164 117.5 42.9654 117.48 43.0245 117.48C43.0835 117.48 43.1335 117.5 43.1743 117.541C43.2151 117.582 43.2356 117.632 43.2356 117.691V118.161C43.6809 118.179 44.0761 118.255 44.4213 118.386C44.5482 118.432 44.6119 118.522 44.6119 118.659C44.6119 118.731 44.5869 118.797 44.5371 118.856C44.487 118.915 44.4213 118.945 44.3396 118.945C44.3123 118.945 44.2758 118.936 44.2303 118.918C43.9215 118.809 43.5899 118.747 43.2356 118.734V120.355C43.5628 120.433 43.8342 120.517 44.05 120.608C44.2655 120.698 44.4461 120.833 44.5915 121.013C44.7369 121.192 44.8095 121.43 44.8095 121.725C44.8095 121.966 44.7448 122.184 44.6154 122.379ZM42.149 119.974C42.3011 120.083 42.5247 120.176 42.82 120.253V118.754C42.5476 118.791 42.3296 118.873 42.166 119.003C42.0024 119.132 41.9207 119.301 41.9207 119.51C41.9207 119.71 41.9967 119.865 42.149 119.974ZM44.1964 121.684C44.1964 121.507 44.1157 121.37 43.9545 121.272C43.7931 121.174 43.5535 121.082 43.2356 120.996V122.461C43.876 122.415 44.1964 122.156 44.1964 121.684Z" fill="#FCC230"/>
<path d="M82.8401 102.953C82.5687 102.627 82.4331 102.212 82.4331 101.708C82.4331 101.204 82.5687 100.789 82.8401 100.463C83.1112 100.136 83.4955 99.9731 83.993 99.9731C84.4906 99.9731 84.8749 100.136 85.1463 100.463C85.4177 100.789 85.5532 101.204 85.5532 101.708C85.5532 102.212 85.4177 102.627 85.1463 102.953C84.8749 103.279 84.4906 103.442 83.993 103.442C83.4955 103.442 83.1112 103.279 82.8401 102.953ZM84.6424 102.502C84.7974 102.296 84.8749 102.031 84.8749 101.708C84.8749 101.385 84.7974 101.12 84.6424 100.913C84.4874 100.706 84.2708 100.603 83.993 100.603C83.7152 100.603 83.499 100.706 83.344 100.913C83.189 101.12 83.1112 101.385 83.1112 101.708C83.1112 102.031 83.189 102.296 83.344 102.502C83.499 102.709 83.7152 102.813 83.993 102.813C84.2708 102.813 84.4874 102.709 84.6424 102.502ZM83.7704 106.907C83.7056 106.845 83.6734 106.769 83.6734 106.679C83.6734 106.621 83.6894 106.566 83.7219 106.514L87.6658 100.206C87.7303 100.103 87.8208 100.051 87.9372 100.051C88.0341 100.051 88.1131 100.076 88.1747 100.128C88.2359 100.18 88.2667 100.251 88.2667 100.341C88.2667 100.413 88.244 100.484 88.1987 100.555L84.2839 106.824C84.2514 106.876 84.2096 106.918 84.1579 106.95C84.1062 106.983 84.0514 106.999 83.993 106.999C83.9091 106.999 83.8348 106.968 83.7704 106.907ZM86.7744 106.587C86.503 106.261 86.3674 105.846 86.3674 105.342C86.3674 104.838 86.503 104.423 86.7744 104.096C87.0458 103.77 87.4298 103.607 87.9276 103.607C88.4249 103.607 88.8095 103.77 89.0806 104.096C89.352 104.423 89.4875 104.838 89.4875 105.342C89.4875 105.846 89.352 106.261 89.0806 106.587C88.8095 106.913 88.4249 107.076 87.9276 107.076C87.4298 107.076 87.0458 106.913 86.7744 106.587ZM88.5767 106.136C88.7317 105.93 88.8094 105.665 88.8094 105.342C88.8094 105.019 88.7317 104.754 88.5767 104.547C88.4216 104.341 88.2051 104.237 87.9276 104.237C87.6495 104.237 87.4333 104.341 87.2783 104.547C87.1232 104.754 87.0458 105.019 87.0458 105.342C87.0458 105.665 87.1232 105.93 87.2783 106.136C87.4333 106.343 87.6495 106.446 87.9276 106.446C88.2051 106.446 88.4216 106.343 88.5767 106.136Z" fill="#4A5258"/>
</svg>
