<svg width="412" height="371" viewBox="0 0 412 371" fill="none" xmlns="http://www.w3.org/2000/svg">
<g clip-path="url(#clip0_3045_5453)">
<path fill-rule="evenodd" clip-rule="evenodd" d="M412 0V371H0V0H412Z" fill="white"/>
<path d="M329.416 170.926C315.496 210.73 342.471 263.598 277.109 276.856C253.379 281.669 236.204 270.149 213.246 283.731C172.619 307.766 148.647 305.4 130.793 287.234C117 273.201 119.614 256.938 104.56 247.178C76.7587 229.152 68.2266 205.995 74.6059 176.361C77.9601 160.78 91.5861 150.249 99.974 139.715C109.799 127.378 113.144 115.401 117.863 102.85C138.881 46.9461 185.314 33.5237 220.007 37.2474C249.278 40.3891 268.229 62.4507 277.399 79.5154C296.1 114.314 350.936 109.393 329.416 170.926ZM345.322 192.944C345.277 188.542 341.672 185.011 337.271 185.056C332.869 185.101 329.338 188.706 329.383 193.107C329.428 197.509 333.033 201.04 337.434 200.995C341.836 200.95 345.367 197.345 345.322 192.944ZM68.37 120.682C70.6275 122.939 74.288 122.939 76.5457 120.682C78.8031 118.424 78.8031 114.764 76.5457 112.506C74.288 110.249 70.6276 110.249 68.37 112.506C66.1123 114.764 66.1123 118.424 68.37 120.682ZM287.118 72.6508C286.385 77.6661 289.857 82.3264 294.873 83.0594C299.889 83.7924 304.549 80.3206 305.282 75.305C306.015 70.2897 302.543 65.6295 297.527 64.8963C292.512 64.1635 287.852 67.6353 287.118 72.6508ZM84.5672 118.321C85.4508 124.377 91.077 128.57 97.1334 127.686C103.19 126.803 107.383 121.177 106.499 115.12C105.616 109.064 99.9895 104.871 93.9331 105.754C87.8769 106.638 83.6837 112.264 84.5672 118.321ZM277.454 59.2942C277.07 61.9221 278.888 64.3636 281.516 64.7477C284.144 65.1319 286.586 63.3128 286.97 60.6851C287.354 58.0573 285.535 55.6156 282.907 55.2316C280.279 54.8475 277.837 56.6663 277.454 59.2942ZM110.255 291.004C110.589 293.294 112.716 294.879 115.006 294.545C117.296 294.211 118.882 292.084 118.548 289.794C118.214 287.504 116.086 285.918 113.796 286.252C111.506 286.586 109.921 288.714 110.255 291.004ZM114.401 271.625C114.341 265.761 109.538 261.055 103.673 261.115C97.8086 261.175 93.1031 265.978 93.1632 271.843C93.2232 277.707 98.0263 282.412 103.891 282.353C109.755 282.292 114.461 277.49 114.401 271.625Z" fill="url(#paint0_linear_3045_5453)"/>
<path d="M206.44 172.248C217.294 176.584 193.859 187.55 193.859 187.55C191.542 185.493 170.771 181.83 163.42 178.893C159.156 177.19 154.343 175.109 150.863 173.361C143.35 169.578 140.345 164.722 141.175 160.833C141.196 160.676 141.225 160.52 141.261 160.368C141.362 159.968 141.515 159.587 141.692 159.225C143.289 156.042 145.984 153.817 152.798 156.536C156.322 157.941 159.383 159.058 164.609 160.714C173.423 163.507 196.834 168.41 206.44 172.248Z" fill="#FFD199"/>
<path d="M197.959 173.108C208.865 168.904 199.143 192.882 199.143 192.882C196.046 192.95 178.328 204.392 170.942 207.239C166.657 208.891 161.714 210.639 157.974 211.725C149.893 214.061 144.917 211.365 143.317 207.195C141.717 203.025 142.445 198.622 148.566 196.26C152.105 194.894 154.956 194.114 159.913 191.773C168.274 187.825 188.307 176.828 197.959 173.108Z" fill="#FFD199"/>
<path d="M197.921 191.605C208.147 187.663 199.032 210.148 199.032 210.148C196.127 210.212 179.513 220.941 172.587 223.611C168.569 225.159 164.047 226.864 160.54 227.882C152.963 230.073 147.152 227.906 145.536 223.538C144.378 220.407 144.793 216.689 151.21 214.212C154.529 212.931 157.346 211.746 161.995 209.551C169.835 205.85 188.87 195.094 197.921 191.605Z" fill="#FFD199"/>
<path d="M169.569 172.136C165.959 173.264 162.779 174.241 160.462 174.882C155.18 176.344 154.105 176.498 150.382 177.24C143.19 178.677 142.219 183.168 143.086 187.55C143.951 191.931 146.789 195.136 155.151 194.212C158.279 193.862 162.255 193.219 166.044 192.512L169.569 172.136Z" fill="#FFD199"/>
<path d="M156.532 238.15V84.7051C156.532 84.1308 156.998 83.6653 157.572 83.6653H254.427C255.001 83.6653 255.467 84.1308 255.467 84.7051V238.149C255.467 238.724 255.001 239.189 254.427 239.189H157.572C156.998 239.189 156.532 238.724 156.532 238.15Z" fill="#3E50B4"/>
<path d="M156.528 237.136V239.168C156.528 240.348 156.76 241.481 157.175 242.526C157.238 242.678 157.302 242.83 157.366 242.973C157.836 244.003 158.491 244.936 159.289 245.742C161.227 247.713 164.036 248.957 167.172 248.957H244.788C250.684 248.957 255.471 244.561 255.471 239.168V237.136H156.528Z" fill="#F9F9F9"/>
<path opacity="0.1" d="M206.012 85.5062V73.4275H167.172C164.036 73.4275 161.228 74.6719 159.289 76.6428C158.491 77.4488 157.837 78.3901 157.366 79.4115C157.302 79.5549 157.238 79.7064 157.175 79.8578C156.76 80.9031 156.536 82.0364 156.536 83.2172V85.5061L206.012 85.5062Z" fill="white"/>
<path opacity="0.1" d="M156.536 237.136V239.168C156.536 240.348 156.76 241.481 157.175 242.526C157.238 242.678 157.302 242.83 157.366 242.973C157.837 243.994 158.491 244.936 159.289 245.742C161.228 247.713 164.036 248.957 167.172 248.957H206.012V237.136H156.536Z" fill="white"/>
<path d="M255.471 83.2174C255.471 77.8238 250.684 73.4277 244.788 73.4277H167.172C164.036 73.4277 161.227 74.6721 159.289 76.643C158.491 77.449 157.837 78.3825 157.366 79.4117C157.302 79.5552 157.238 79.7066 157.175 79.8581C156.76 80.9034 156.528 82.0366 156.528 83.2174V85.5063H191.774C195.012 85.5063 198.108 86.7141 200.588 88.7964C202.052 90.0254 203.939 90.7658 206.001 90.7658C208.062 90.7658 209.95 90.0255 211.414 88.7964C213.894 86.7143 216.99 85.5063 220.229 85.5063H255.471L255.471 83.2174Z" fill="#F9F9F9"/>
<path d="M210.772 82.3371C210.772 84.9718 208.636 87.1076 206.001 87.1076C203.366 87.1076 201.23 84.9718 201.23 82.3371C201.23 79.7023 203.366 77.5664 206.001 77.5664C208.636 77.5664 210.772 79.7023 210.772 82.3371Z" fill="#D8DDEA"/>
<path opacity="0.2" d="M208.379 82.3372C208.379 83.6501 207.314 84.7144 206.001 84.7144C204.688 84.7144 203.624 83.6501 203.624 82.3372C203.624 81.0243 204.688 79.96 206.001 79.96C207.314 79.96 208.379 81.0243 208.379 82.3372Z" fill="white"/>
<path d="M228.001 222.168H183.999C178.451 222.168 173.953 217.67 173.953 212.122C173.953 206.573 178.451 202.076 183.999 202.076H228.001C233.549 202.076 238.047 206.573 238.047 212.122C238.047 217.67 233.549 222.168 228.001 222.168Z" fill="#CDDB38"/>
<path d="M191.64 214.725C191.595 214.638 191.573 214.545 191.573 214.446C191.573 214.367 191.588 214.289 191.618 214.214C191.649 214.139 191.69 214.071 191.742 214.01C191.793 213.949 191.859 213.901 191.939 213.865C192.019 213.83 192.101 213.812 192.186 213.812C192.312 213.812 192.439 213.848 192.566 213.918C192.575 213.923 192.619 213.947 192.696 213.992C192.774 214.037 192.827 214.066 192.855 214.08C192.883 214.094 192.938 214.121 193.02 214.161C193.102 214.201 193.168 214.23 193.217 214.249C193.267 214.268 193.334 214.294 193.418 214.327C193.503 214.36 193.581 214.384 193.654 214.4C193.727 214.417 193.809 214.435 193.901 214.453C193.992 214.472 194.087 214.485 194.186 214.492C194.285 214.499 194.383 214.503 194.482 214.503C194.66 214.503 194.828 214.49 194.986 214.464C195.143 214.438 195.292 214.395 195.433 214.334C195.574 214.273 195.685 214.185 195.768 214.07C195.85 213.955 195.891 213.82 195.891 213.664C195.891 213.495 195.815 213.345 195.662 213.214C195.509 213.082 195.28 212.977 194.975 212.896L193.925 212.622C193.676 212.551 193.471 212.492 193.309 212.442C193.147 212.393 192.974 212.332 192.791 212.259C192.608 212.186 192.46 212.114 192.347 212.041C192.235 211.968 192.123 211.88 192.013 211.776C191.903 211.673 191.818 211.562 191.759 211.442C191.701 211.322 191.653 211.183 191.615 211.023C191.577 210.863 191.559 210.685 191.559 210.487C191.559 210.168 191.628 209.88 191.766 209.624C191.905 209.368 192.101 209.156 192.355 208.987C192.608 208.818 192.909 208.689 193.256 208.599C193.604 208.51 193.989 208.466 194.411 208.466C195.196 208.466 195.959 208.639 196.701 208.987C196.842 209.053 196.946 209.141 197.014 209.251C197.083 209.361 197.117 209.478 197.117 209.6C197.117 209.755 197.065 209.89 196.962 210.005C196.858 210.12 196.722 210.177 196.553 210.177C196.506 210.177 196.458 210.173 196.409 210.163C196.359 210.154 196.309 210.14 196.257 210.121C196.243 210.116 196.219 210.107 196.187 210.093C195.529 209.863 194.97 209.748 194.51 209.748C194.308 209.748 194.121 209.766 193.95 209.804C193.779 209.842 193.631 209.911 193.506 210.012C193.382 210.113 193.32 210.238 193.32 210.389C193.32 210.595 193.385 210.749 193.517 210.85C193.648 210.951 193.888 211.044 194.235 211.128L195.278 211.389C195.663 211.488 195.988 211.594 196.254 211.709C196.519 211.825 196.751 211.965 196.951 212.132C197.151 212.299 197.297 212.497 197.391 212.727C197.485 212.958 197.532 213.225 197.532 213.53C197.532 214.019 197.405 214.435 197.152 214.777C196.898 215.12 196.559 215.373 196.134 215.535C195.709 215.697 195.219 215.778 194.665 215.778C193.571 215.778 192.629 215.501 191.84 214.947C191.751 214.886 191.684 214.812 191.64 214.725Z" fill="white"/>
<path d="M200.991 213.696C201.306 214.102 201.752 214.306 202.329 214.306C202.841 214.306 203.304 214.186 203.717 213.946C203.839 213.876 203.959 213.841 204.077 213.841C204.133 213.841 204.188 213.849 204.242 213.865C204.296 213.882 204.345 213.905 204.39 213.936C204.435 213.966 204.475 214.003 204.51 214.045C204.545 214.087 204.576 214.133 204.601 214.182C204.627 214.231 204.647 214.284 204.661 214.341C204.675 214.397 204.682 214.456 204.682 214.517C204.682 214.761 204.579 214.97 204.372 215.144C204.161 215.322 203.855 215.47 203.453 215.588C203.052 215.705 202.607 215.764 202.118 215.764C201.09 215.764 200.234 215.431 199.55 214.767C198.867 214.102 198.525 213.221 198.525 212.122C198.525 211.445 198.679 210.831 198.987 210.279C199.294 209.728 199.726 209.292 200.283 208.973C200.84 208.653 201.465 208.494 202.16 208.494C202.607 208.494 203.013 208.551 203.379 208.666C203.745 208.781 204.039 208.923 204.26 209.092C204.372 209.177 204.456 209.271 204.51 209.374C204.564 209.477 204.591 209.586 204.591 209.698C204.591 209.872 204.531 210.023 204.411 210.152C204.291 210.282 204.145 210.346 203.971 210.346C203.952 210.346 203.933 210.346 203.915 210.346C203.896 210.346 203.877 210.344 203.858 210.339C203.839 210.334 203.82 210.33 203.798 210.325C203.777 210.32 203.757 210.314 203.739 210.307C203.72 210.3 203.7 210.292 203.679 210.283C203.657 210.273 203.637 210.264 203.619 210.255C203.196 210.043 202.787 209.937 202.393 209.937C202.106 209.937 201.847 209.987 201.615 210.085C201.382 210.184 201.185 210.326 201.023 210.511C200.861 210.697 200.736 210.926 200.649 211.198C200.562 211.471 200.519 211.776 200.519 212.114C200.519 212.763 200.677 213.29 200.991 213.696Z" fill="white"/>
<path d="M205.64 212.921C205.71 212.689 205.828 212.489 205.992 212.323C206.157 212.156 206.35 212.021 206.573 211.917C206.796 211.814 207.085 211.732 207.44 211.671C207.795 211.61 208.169 211.569 208.563 211.548C208.958 211.527 209.437 211.516 210.001 211.516V211.009C210.001 210.201 209.601 209.797 208.803 209.797C208.545 209.797 208.27 209.83 207.979 209.896C207.687 209.962 207.471 210.019 207.331 210.069C207.19 210.118 206.999 210.192 206.76 210.29C206.736 210.3 206.712 210.308 206.686 210.315C206.66 210.322 206.636 210.327 206.612 210.329C206.588 210.332 206.565 210.333 206.542 210.333C206.368 210.333 206.22 210.258 206.098 210.107C205.976 209.957 205.915 209.79 205.915 209.607C205.915 209.49 205.943 209.383 205.999 209.287C206.055 209.19 206.142 209.114 206.26 209.058C207.039 208.687 207.92 208.501 208.901 208.501C209.347 208.501 209.746 208.552 210.096 208.653C210.445 208.754 210.755 208.912 211.025 209.128C211.295 209.344 211.503 209.637 211.649 210.005C211.794 210.374 211.867 210.812 211.867 211.319V214.707C211.867 215.017 211.778 215.258 211.6 215.429C211.421 215.601 211.212 215.687 210.972 215.687C210.818 215.687 210.669 215.649 210.529 215.574C210.219 215.405 210.064 215.114 210.064 214.7V214.503C209.904 214.912 209.638 215.224 209.264 215.44C208.891 215.656 208.451 215.764 207.943 215.764C207.243 215.764 206.667 215.583 206.214 215.222C205.761 214.86 205.534 214.369 205.534 213.749C205.534 213.43 205.57 213.154 205.64 212.921ZM208.891 214.464C209.095 214.373 209.28 214.246 209.444 214.084C209.608 213.922 209.741 213.72 209.842 213.478C209.943 213.236 209.994 212.979 209.994 212.707V212.474C209.688 212.474 209.434 212.476 209.229 212.481C209.025 212.486 208.818 212.498 208.609 212.516C208.4 212.535 208.231 212.561 208.102 212.594C207.973 212.627 207.85 212.67 207.732 212.724C207.615 212.778 207.524 212.845 207.461 212.925C207.398 213.005 207.348 213.1 207.313 213.21C207.278 213.32 207.26 213.448 207.26 213.594C207.26 213.909 207.35 214.155 207.531 214.334C207.712 214.512 207.958 214.601 208.268 214.601C208.479 214.602 208.687 214.556 208.891 214.464Z" fill="white"/>
<path d="M213.897 215.384C213.733 215.186 213.65 214.902 213.65 214.531V209.607C213.65 209.278 213.737 209.029 213.911 208.86C214.085 208.691 214.329 208.607 214.644 208.607C214.949 208.607 215.185 208.691 215.352 208.86C215.518 209.029 215.602 209.276 215.602 209.6V209.769C216.024 208.919 216.82 208.494 217.99 208.494C218.699 208.494 219.285 208.728 219.747 209.195C220.21 209.662 220.441 210.33 220.441 211.199V214.531C220.441 214.902 220.354 215.186 220.18 215.384C220.007 215.581 219.758 215.68 219.434 215.68C219.129 215.68 218.894 215.581 218.73 215.384C218.565 215.186 218.483 214.902 218.483 214.531V211.213C218.483 210.753 218.364 210.4 218.127 210.153C217.89 209.906 217.588 209.783 217.222 209.783C216.78 209.783 216.401 209.957 216.084 210.305C215.767 210.652 215.609 211.101 215.609 211.65V214.531C215.609 214.902 215.522 215.186 215.348 215.384C215.174 215.581 214.926 215.68 214.601 215.68C214.296 215.679 214.061 215.581 213.897 215.384Z" fill="white"/>
<path d="M172.789 101.836H169.749V118.401H172.789V101.836Z" fill="#CDDB38"/>
<path d="M186.314 101.836H169.749V104.875H186.314V101.836Z" fill="#CDDB38"/>
<path d="M242.386 174.19H239.347V190.755H242.386V174.19Z" fill="#CDDB38"/>
<path d="M242.386 187.717H225.821V190.755H242.386V187.717Z" fill="#CDDB38"/>
<path d="M242.386 101.542H239.347V118.107H242.386V101.542Z" fill="#CDDB38"/>
<path d="M242.386 101.542H225.821V104.58H242.386V101.542Z" fill="#CDDB38"/>
<path d="M172.789 173.896H169.749V190.46H172.789V173.896Z" fill="#CDDB38"/>
<path d="M186.314 187.422H169.749V190.46H186.314V187.422Z" fill="#CDDB38"/>
<path d="M232.16 109.49H179.841C177.769 109.49 176.089 111.169 176.089 113.241V178.749C176.089 180.821 177.769 182.501 179.841 182.501H232.16C234.232 182.501 235.912 180.821 235.912 178.749V113.241C235.912 111.169 234.232 109.49 232.16 109.49Z" fill="white"/>
<path d="M227.742 119.106H184.258V122.786H227.742V119.106Z" fill="#D4DAE8"/>
<path d="M227.742 127.603H184.258V131.283H227.742V127.603Z" fill="#D4DAE8"/>
<path d="M227.742 136.1H184.258V139.78H227.742V136.1Z" fill="#D4DAE8"/>
<path d="M227.742 144.597H184.258V148.277H227.742V144.597Z" fill="#D4DAE8"/>
<path d="M227.742 153.094H184.258V156.774H227.742V153.094Z" fill="#D4DAE8"/>
<path d="M227.742 161.592H184.258V165.271H227.742V161.592Z" fill="#D4DAE8"/>
<path d="M217.796 170.089H184.258V173.768H217.796V170.089Z" fill="#D4DAE8"/>
<path d="M231.106 276.756C231.106 276.756 222.808 276.525 216.337 272.527C206.196 266.272 199.941 255.27 197.013 248.958H224.004L231.106 276.756Z" fill="#F2C391"/>
<path d="M227.523 334.33C228.712 327.652 232.781 298.953 222.058 266.32C212.172 236.217 242.411 210.996 244.199 203.513L248.331 186.135C248.331 186.135 267.935 203.042 267.496 221.767C267.081 239.169 264.918 250.267 266.787 258.637C270.728 276.278 274.86 303.708 284.435 334.33H227.523Z" fill="#FFD199"/>
<path d="M267.493 220.646C267.493 232.71 248.007 214.449 248.007 214.449C249.097 211.436 244.65 190.125 244.65 181.956C244.65 177.216 244.811 171.803 245.141 167.798C245.901 159.151 249.404 154.411 253.446 153.713C253.604 153.676 253.764 153.651 253.922 153.627C254.169 153.59 254.389 153.578 254.621 153.578C254.817 153.578 255.001 153.59 255.186 153.602C258.845 153.909 262.02 155.501 262.02 163.217C262.02 163.217 262.104 167.736 262.13 169.255C262.13 169.255 262.142 170.517 262.142 170.725C262.154 171.117 262.154 171.496 262.154 171.84V172.146C262.472 178.771 267.493 208.95 267.493 220.646Z" fill="#FFD199"/>
<path d="M262.032 164.882C260.12 166.303 257.695 166.438 255.748 164.968C252.932 162.837 252.148 158.183 253.997 154.594C254.181 154.227 254.389 153.884 254.621 153.578C254.817 153.578 255.001 153.59 255.186 153.602C258.845 153.908 262.02 155.501 262.02 163.217V163.646C262.02 163.976 262.032 164.393 262.032 164.882Z" fill="#FFDBB3"/>
<path d="M162.08 220.581C162.08 225.062 159.967 228.303 156.313 228.695C153.146 229.034 150.546 225.062 150.546 220.581C150.546 216.101 153.75 213.538 156.998 211.866C159.83 210.409 162.08 216.101 162.08 220.581Z" fill="#FFD199"/>
<path d="M163.723 203.423C163.723 208.572 160.068 211.276 156.525 212.191C152.019 213.354 150.47 208.572 150.47 203.423C150.47 198.275 153.672 193.447 157.331 193.447C160.991 193.447 163.723 198.275 163.723 203.423Z" fill="#FFD199"/>
<path d="M162.256 187.082C161.379 192.155 157.317 194.196 153.669 194.494C149.031 194.872 148.319 189.895 149.197 184.822C150.075 179.749 154.053 175.537 157.659 176.161C161.266 176.786 163.134 182.009 162.256 187.082Z" fill="#FFD199"/>
<g opacity="0.6">
<path d="M305.115 193.79C302.395 193.79 300.198 195.987 300.198 198.707C300.198 201.421 302.395 203.623 305.115 203.623C307.83 203.623 310.031 201.421 310.031 198.707C310.031 195.987 307.83 193.79 305.115 193.79ZM305.115 201.285C303.691 201.285 302.536 200.13 302.536 198.707C302.536 197.283 303.691 196.128 305.115 196.128C306.539 196.128 307.693 197.283 307.693 198.707C307.693 200.13 306.539 201.285 305.115 201.285Z" fill="white"/>
<path d="M147.644 253.636C143.972 253.636 141.007 256.602 141.007 260.273C141.007 263.937 143.972 266.91 147.644 266.91C151.309 266.91 154.28 263.937 154.28 260.273C154.28 256.602 151.309 253.636 147.644 253.636ZM147.644 264.449C145.338 264.449 143.467 262.579 143.467 260.273C143.467 257.968 145.338 256.097 147.644 256.097C149.95 256.097 151.819 257.968 151.819 260.273C151.819 262.579 149.95 264.449 147.644 264.449Z" fill="white"/>
<path d="M237.355 55.6454L238.244 57.9084C238.574 58.746 239.236 59.409 240.074 59.7382L242.337 60.6274C242.762 60.7944 242.762 61.3956 242.337 61.5626L240.074 62.452C239.236 62.7811 238.574 63.4441 238.244 64.2818L237.355 66.5447C237.188 66.9696 236.587 66.9696 236.42 66.5447L235.531 64.2819C235.201 63.4441 234.538 62.7813 233.701 62.452L231.438 61.5626C231.013 61.3956 231.013 60.7944 231.438 60.6274L233.701 59.7382C234.539 59.409 235.202 58.746 235.531 57.9082L236.42 55.6453C236.587 55.2204 237.188 55.2204 237.355 55.6454Z" fill="white"/>
<path d="M102.75 176.436L103.687 178.818C104.033 179.7 104.731 180.397 105.613 180.744L107.995 181.68C108.442 181.856 108.442 182.489 107.995 182.664L105.613 183.6C104.731 183.947 104.033 184.645 103.687 185.527L102.751 187.909C102.575 188.356 101.942 188.356 101.766 187.909L100.83 185.527C100.484 184.645 99.7859 183.947 98.904 183.6L96.522 182.664C96.0746 182.489 96.0748 181.856 96.522 181.68L98.904 180.744C99.7858 180.398 100.484 179.7 100.83 178.818L101.766 176.436C101.942 175.988 102.575 175.988 102.75 176.436Z" fill="white"/>
<path d="M282.113 242.418L283.002 244.681C283.331 245.519 283.994 246.182 284.832 246.511L287.095 247.4C287.52 247.567 287.52 248.168 287.095 248.335L284.832 249.225C283.994 249.554 283.331 250.217 283.002 251.054L282.113 253.317C281.946 253.742 281.345 253.742 281.178 253.317L280.288 251.054C279.959 250.217 279.296 249.554 278.459 249.225L276.196 248.335C275.771 248.168 275.771 247.567 276.196 247.4L278.459 246.511C279.296 246.182 279.959 245.519 280.288 244.681L281.178 242.418C281.345 241.993 281.946 241.993 282.113 242.418Z" fill="white"/>
<path d="M267.962 133.359L268.851 135.622C269.18 136.46 269.843 137.123 270.681 137.452L272.943 138.341C273.368 138.508 273.368 139.11 272.943 139.276L270.681 140.166C269.843 140.495 269.18 141.158 268.851 141.995L267.961 144.258C267.794 144.683 267.193 144.683 267.026 144.258L266.137 141.995C265.808 141.158 265.145 140.495 264.307 140.166L262.044 139.276C261.619 139.109 261.619 138.508 262.044 138.341L264.307 137.452C265.145 137.123 265.808 136.46 266.137 135.622L267.026 133.359C267.193 132.934 267.795 132.934 267.962 133.359Z" fill="white"/>
<path d="M139.451 121.667L140.387 124.049C140.733 124.931 141.431 125.629 142.313 125.975L144.695 126.911C145.142 127.087 145.142 127.72 144.695 127.896L142.313 128.832C141.431 129.178 140.733 129.876 140.387 130.758L139.451 133.14C139.275 133.587 138.642 133.587 138.466 133.14L137.53 130.758C137.184 129.876 136.486 129.178 135.604 128.832L133.222 127.895C132.775 127.72 132.775 127.087 133.222 126.911L135.604 125.975C136.486 125.629 137.184 124.931 137.53 124.049L138.466 121.667C138.642 121.22 139.275 121.22 139.451 121.667Z" fill="white"/>
</g>
</g>
<defs>
<linearGradient id="paint0_linear_3045_5453" x1="265.923" y1="288.497" x2="136.094" y2="63.6257" gradientUnits="userSpaceOnUse">
<stop stop-color="#CDE8FF"/>
<stop offset="1" stop-color="#E1EFFF"/>
</linearGradient>
<clipPath id="clip0_3045_5453">
<rect width="412" height="371" fill="white"/>
</clipPath>
</defs>
</svg>
