<svg width="412" height="371" viewBox="0 0 412 371" fill="none" xmlns="http://www.w3.org/2000/svg">
<g clip-path="url(#clip0_3045_5453)">
<path d="M329.416 170.926C315.496 210.73 342.471 263.598 277.109 276.856C253.379 281.669 236.204 270.149 213.246 283.731C172.619 307.766 148.647 305.4 130.793 287.234C117 273.201 119.614 256.938 104.56 247.178C76.7587 229.152 68.2266 205.995 74.6059 176.361C77.9601 160.78 91.5861 150.249 99.974 139.715C109.799 127.378 113.144 115.401 117.863 102.85C138.881 46.9461 185.314 33.5237 220.007 37.2474C249.278 40.3891 268.229 62.4507 277.399 79.5154C296.1 114.314 350.936 109.393 329.416 170.926ZM345.322 192.944C345.277 188.542 341.672 185.011 337.271 185.056C332.869 185.101 329.338 188.706 329.383 193.107C329.428 197.509 333.033 201.04 337.434 200.995C341.836 200.95 345.367 197.345 345.322 192.944ZM68.37 120.682C70.6275 122.939 74.288 122.939 76.5457 120.682C78.8031 118.424 78.8031 114.764 76.5457 112.506C74.288 110.249 70.6276 110.249 68.37 112.506C66.1123 114.764 66.1123 118.424 68.37 120.682ZM287.118 72.6508C286.385 77.6661 289.857 82.3264 294.873 83.0594C299.889 83.7924 304.549 80.3206 305.282 75.305C306.015 70.2897 302.543 65.6295 297.527 64.8963C292.512 64.1635 287.852 67.6353 287.118 72.6508ZM84.5672 118.321C85.4508 124.377 91.077 128.57 97.1334 127.686C103.19 126.803 107.383 121.177 106.499 115.12C105.616 109.064 99.9895 104.871 93.9331 105.754C87.8769 106.638 83.6837 112.264 84.5672 118.321ZM277.454 59.2942C277.07 61.9221 278.888 64.3636 281.516 64.7477C284.144 65.1319 286.586 63.3128 286.97 60.6851C287.354 58.0573 285.535 55.6156 282.907 55.2316C280.279 54.8475 277.837 56.6663 277.454 59.2942ZM110.255 291.004C110.589 293.294 112.716 294.879 115.006 294.545C117.296 294.211 118.882 292.084 118.548 289.794C118.214 287.504 116.086 285.918 113.796 286.252C111.506 286.586 109.921 288.714 110.255 291.004ZM114.401 271.625C114.341 265.761 109.538 261.055 103.673 261.115C97.8086 261.175 93.1031 265.978 93.1632 271.843C93.2232 277.707 98.0263 282.412 103.891 282.353C109.755 282.292 114.461 277.49 114.401 271.625Z" fill="#A3BDD3"/>
<path d="M206.44 172.248C217.294 176.584 193.859 187.55 193.859 187.55C191.542 185.493 170.771 181.83 163.42 178.893C159.156 177.19 154.343 175.109 150.863 173.361C143.35 169.578 140.345 164.722 141.175 160.833C141.196 160.676 141.225 160.52 141.261 160.368C141.362 159.968 141.515 159.587 141.692 159.225C143.289 156.042 145.984 153.817 152.798 156.536C156.322 157.941 159.383 159.058 164.609 160.714C173.423 163.507 196.834 168.41 206.44 172.248Z" fill="#FFD199"/>
<path d="M197.959 173.108C208.865 168.904 199.143 192.882 199.143 192.882C196.046 192.95 178.328 204.392 170.942 207.239C166.657 208.891 161.714 210.639 157.974 211.725C149.893 214.061 144.917 211.365 143.317 207.195C141.717 203.025 142.445 198.622 148.566 196.26C152.105 194.894 154.956 194.114 159.913 191.773C168.274 187.825 188.307 176.828 197.959 173.108Z" fill="#FFD199"/>
<path d="M197.921 191.605C208.147 187.663 199.032 210.148 199.032 210.148C196.127 210.212 179.513 220.941 172.587 223.611C168.569 225.159 164.047 226.864 160.54 227.882C152.963 230.073 147.152 227.906 145.536 223.538C144.378 220.407 144.793 216.689 151.21 214.212C154.529 212.931 157.346 211.746 161.995 209.551C169.835 205.85 188.87 195.094 197.921 191.605Z" fill="#FFD199"/>
<path d="M169.569 172.136C165.959 173.264 162.779 174.241 160.462 174.882C155.18 176.344 154.105 176.498 150.382 177.24C143.19 178.677 142.219 183.168 143.086 187.55C143.951 191.931 146.789 195.136 155.151 194.212C158.279 193.862 162.255 193.219 166.044 192.512L169.569 172.136Z" fill="#FFD199"/>
<path d="M156.532 238.15V84.7051C156.532 84.1308 156.998 83.6653 157.572 83.6653H254.427C255.001 83.6653 255.467 84.1308 255.467 84.7051V238.149C255.467 238.724 255.001 239.189 254.427 239.189H157.572C156.998 239.189 156.532 238.724 156.532 238.15Z" fill="#3E50B4"/>
<path d="M156.528 237.136V239.168C156.528 240.348 156.76 241.481 157.175 242.526C157.238 242.678 157.302 242.83 157.366 242.973C157.836 244.003 158.491 244.936 159.289 245.742C161.227 247.713 164.036 248.957 167.172 248.957H244.788C250.684 248.957 255.471 244.561 255.471 239.168V237.136H156.528Z" fill="#F9F9F9"/>
<path d="M255.471 83.2174C255.471 77.8238 250.684 73.4277 244.788 73.4277H167.172C164.036 73.4277 161.227 74.6721 159.289 76.643C158.491 77.449 157.837 78.3825 157.366 79.4117C157.302 79.5552 157.238 79.7066 157.175 79.8581C156.76 80.9034 156.528 82.0366 156.528 83.2174V85.5063H191.774C195.012 85.5063 198.108 86.7141 200.588 88.7964C202.052 90.0254 203.939 90.7658 206.001 90.7658C208.062 90.7658 209.95 90.0255 211.414 88.7964C213.894 86.7143 216.99 85.5063 220.229 85.5063H255.471L255.471 83.2174Z" fill="#F9F9F9"/>
<path d="M210.772 82.3371C210.772 84.9718 208.636 87.1076 206.001 87.1076C203.366 87.1076 201.23 84.9718 201.23 82.3371C201.23 79.7023 203.366 77.5664 206.001 77.5664C208.636 77.5664 210.772 79.7023 210.772 82.3371Z" fill="#D8DDEA"/>
<path d="M228.001 222.168H183.999C178.451 222.168 173.953 217.67 173.953 212.122C173.953 206.573 178.451 202.076 183.999 202.076H228.001C233.549 202.076 238.047 206.573 238.047 212.122C238.047 217.67 233.549 222.168 228.001 222.168Z" fill="#CDDB38"/>
<path d="M172.789 101.836H169.749V118.401H172.789V101.836Z" fill="#CDDB38"/>
<path d="M186.314 101.836H169.749V104.875H186.314V101.836Z" fill="#CDDB38"/>
<path d="M242.386 174.19H239.347V190.755H242.386V174.19Z" fill="#CDDB38"/>
<path d="M242.386 187.717H225.821V190.755H242.386V187.717Z" fill="#CDDB38"/>
<path d="M242.386 101.542H239.347V118.107H242.386V101.542Z" fill="#CDDB38"/>
<path d="M242.386 101.542H225.821V104.58H242.386V101.542Z" fill="#CDDB38"/>
<path d="M172.789 173.896H169.749V190.46H172.789V173.896Z" fill="#CDDB38"/>
<path d="M186.314 187.422H169.749V190.46H186.314V187.422Z" fill="#CDDB38"/>
<path d="M227.742 119.106H184.258V122.786H227.742V119.106Z" fill="#D4DAE8"/>
<path d="M227.742 127.603H184.258V131.283H227.742V127.603Z" fill="#D4DAE8"/>
<path d="M227.742 136.1H184.258V139.78H227.742V136.1Z" fill="#D4DAE8"/>
<path d="M227.742 144.597H184.258V148.277H227.742V144.597Z" fill="#D4DAE8"/>
<path d="M227.742 153.094H184.258V156.774H227.742V153.094Z" fill="#D4DAE8"/>
<path d="M227.742 161.592H184.258V165.271H227.742V161.592Z" fill="#D4DAE8"/>
<path d="M217.796 170.089H184.258V173.768H217.796V170.089Z" fill="#D4DAE8"/>
<path d="M231.106 276.756C231.106 276.756 222.808 276.525 216.337 272.527C206.196 266.272 199.941 255.27 197.013 248.958H224.004L231.106 276.756Z" fill="#F2C391"/>
<path d="M227.523 334.33C228.712 327.652 232.781 298.953 222.058 266.32C212.172 236.217 242.411 210.996 244.199 203.513L248.331 186.135C248.331 186.135 267.935 203.042 267.496 221.767C267.081 239.169 264.918 250.267 266.787 258.637C270.728 276.278 274.86 303.708 284.435 334.33H227.523Z" fill="#FFD199"/>
<path d="M267.493 220.646C267.493 232.71 248.007 214.449 248.007 214.449C249.097 211.436 244.65 190.125 244.65 181.956C244.65 177.216 244.811 171.803 245.141 167.798C245.901 159.151 249.404 154.411 253.446 153.713C253.604 153.676 253.764 153.651 253.922 153.627C254.169 153.59 254.389 153.578 254.621 153.578C254.817 153.578 255.001 153.59 255.186 153.602C258.845 153.909 262.02 155.501 262.02 163.217C262.02 163.217 262.104 167.736 262.13 169.255C262.13 169.255 262.142 170.517 262.142 170.725C262.154 171.117 262.154 171.496 262.154 171.84V172.146C262.472 178.771 267.493 208.95 267.493 220.646Z" fill="#FFD199"/>
<path d="M262.032 164.882C260.12 166.303 257.695 166.438 255.748 164.968C252.932 162.837 252.148 158.183 253.997 154.594C254.181 154.227 254.389 153.884 254.621 153.578C254.817 153.578 255.001 153.59 255.186 153.602C258.845 153.908 262.02 155.501 262.02 163.217V163.646C262.02 163.976 262.032 164.393 262.032 164.882Z" fill="#FFDBB3"/>
<path d="M162.08 220.581C162.08 225.062 159.967 228.303 156.313 228.695C153.146 229.034 150.546 225.062 150.546 220.581C150.546 216.101 153.75 213.538 156.998 211.866C159.83 210.409 162.08 216.101 162.08 220.581Z" fill="#FFD199"/>
<path d="M163.723 203.423C163.723 208.572 160.068 211.276 156.525 212.191C152.019 213.354 150.47 208.572 150.47 203.423C150.47 198.275 153.672 193.447 157.331 193.447C160.991 193.447 163.723 198.275 163.723 203.423Z" fill="#FFD199"/>
<path d="M162.256 187.082C161.379 192.155 157.317 194.196 153.669 194.494C149.031 194.872 148.319 189.895 149.197 184.822C150.075 179.749 154.053 175.537 157.659 176.161C161.266 176.786 163.134 182.009 162.256 187.082Z" fill="#FFD199"/>
</g>
<defs>
<clipPath id="clip0_3045_5453">
<rect width="412" height="371" fill="white"/>
</clipPath>
</defs>
</svg>
