<svg width="302" height="308" viewBox="0 0 302 308" fill="none" xmlns="http://www.w3.org/2000/svg">
<g clip-path="url(#clip0_3433_6520)">
<path d="M253.55 169.354C241.968 203.128 264.41 247.985 210.032 259.234C190.29 263.318 176.001 253.543 156.901 265.068C123.102 285.461 103.157 283.453 88.3038 268.04C76.8288 256.133 79.0032 242.334 66.4792 234.053C43.3496 218.758 36.2513 199.109 41.5587 173.965C44.3491 160.745 55.6854 151.81 62.6637 142.872C70.8373 132.404 73.6208 122.242 77.5467 111.593C95.0323 64.1592 133.663 52.7704 162.526 55.9299C186.878 58.5956 202.645 77.3146 210.274 91.7937C225.832 121.32 271.453 117.145 253.55 169.354ZM266.783 188.036C266.745 184.301 263.746 181.305 260.084 181.343C256.422 181.382 253.484 184.44 253.522 188.175C253.559 191.909 256.558 194.906 260.22 194.868C263.882 194.829 266.82 191.771 266.783 188.036ZM36.3707 126.723C38.2487 128.638 41.2941 128.638 43.1724 126.723C45.0505 124.807 45.0505 121.701 43.1724 119.786C41.2941 117.87 38.2489 117.87 36.3707 119.786C34.4923 121.702 34.4923 124.807 36.3707 126.723ZM218.36 85.9691C217.75 90.2246 220.638 94.1788 224.811 94.8007C228.984 95.4226 232.861 92.4769 233.471 88.2212C234.081 83.9658 231.192 80.0117 227.019 79.3896C222.847 78.7678 218.97 81.7136 218.36 85.9691ZM49.846 124.719C50.5811 129.858 55.2618 133.416 60.3005 132.666C65.3391 131.916 68.8278 127.143 68.0925 122.004C67.3574 116.865 62.6767 113.307 57.638 114.057C52.5995 114.807 49.1109 119.581 49.846 124.719ZM210.319 74.6363C210 76.866 211.513 78.9376 213.699 79.2635C215.885 79.5895 217.917 78.046 218.236 75.8165C218.556 73.5868 217.042 71.5151 214.856 71.1892C212.67 70.8633 210.638 72.4065 210.319 74.6363ZM71.217 271.238C71.4948 273.181 73.2649 274.527 75.17 274.243C77.0752 273.96 78.3943 272.155 78.1164 270.212C77.8384 268.269 76.0686 266.923 74.1633 267.207C72.258 267.49 70.9389 269.295 71.217 271.238ZM74.6662 254.796C74.6162 249.82 70.6205 245.827 65.7412 245.878C60.8623 245.929 56.9475 250.004 56.9975 254.98C57.0474 259.956 61.0433 263.949 65.9222 263.898C70.8013 263.847 74.7162 259.772 74.6662 254.796Z" fill="url(#paint0_linear_3433_6520)"/>
<path d="M151.24 170.475C160.27 174.155 140.772 183.459 140.772 183.459C138.845 181.713 121.564 178.605 115.449 176.114C111.901 174.668 107.897 172.903 105.002 171.42C98.7518 168.21 96.2517 164.09 96.9418 160.79C96.9597 160.656 96.9838 160.524 97.0132 160.396C97.0978 160.056 97.2245 159.732 97.3724 159.426C98.7006 156.725 100.943 154.837 106.612 157.144C109.543 158.336 112.09 159.284 116.438 160.689C123.771 163.059 143.248 167.219 151.24 170.475Z" fill="#FFD199"/>
<path d="M144.183 171.205C153.256 167.638 145.169 187.983 145.169 187.983C142.592 188.041 127.851 197.749 121.706 200.165C118.142 201.566 114.029 203.049 110.917 203.971C104.195 205.953 100.055 203.666 98.7234 200.127C97.3922 196.589 97.9984 192.853 103.09 190.849C106.035 189.69 108.407 189.028 112.531 187.042C119.487 183.692 136.153 174.361 144.183 171.205Z" fill="#FFD199"/>
<path d="M144.152 186.9C152.66 183.555 145.076 202.633 145.076 202.633C142.66 202.687 128.837 211.791 123.075 214.056C119.733 215.37 115.971 216.817 113.053 217.68C106.749 219.539 101.915 217.701 100.57 213.994C99.6065 211.337 99.952 208.183 105.291 206.081C108.052 204.994 110.396 203.989 114.263 202.126C120.786 198.986 136.622 189.86 144.152 186.9Z" fill="#FFD199"/>
<path d="M120.565 170.38C117.561 171.338 114.916 172.167 112.988 172.711C108.594 173.951 107.699 174.081 104.602 174.711C98.619 175.93 97.8112 179.741 98.5326 183.459C99.2522 187.177 101.613 189.896 108.57 189.112C111.172 188.815 114.48 188.269 117.632 187.669L120.565 170.38Z" fill="#FFD199"/>
<path d="M109.718 226.393V96.1977C109.718 95.7104 110.106 95.3154 110.583 95.3154H191.162C191.64 95.3154 192.028 95.7104 192.028 96.1977V226.393C192.028 226.88 191.64 227.275 191.162 227.275H110.583C110.106 227.275 109.718 226.88 109.718 226.393Z" fill="#3E50B4"/>
<path d="M109.715 225.533V227.257C109.715 228.259 109.907 229.22 110.253 230.107C110.305 230.235 110.358 230.364 110.412 230.486C110.803 231.359 111.348 232.151 112.011 232.835C113.624 234.507 115.961 235.563 118.57 235.563H183.143C188.048 235.563 192.031 231.833 192.031 227.257V225.533H109.715Z" fill="#F9F9F9"/>
<path opacity="0.1" d="M150.883 96.8775V86.6289H118.57C115.961 86.6289 113.625 87.6847 112.012 89.3571C111.348 90.0409 110.804 90.8396 110.412 91.7062C110.359 91.828 110.306 91.9564 110.253 92.0849C109.908 92.9719 109.722 93.9334 109.722 94.9353V96.8774L150.883 96.8775Z" fill="white"/>
<path opacity="0.1" d="M109.722 225.533V227.257C109.722 228.259 109.908 229.22 110.253 230.107C110.306 230.235 110.359 230.364 110.412 230.486C110.804 231.352 111.348 232.151 112.012 232.835C113.625 234.507 115.961 235.563 118.57 235.563H150.883V225.533H109.722Z" fill="white"/>
<path d="M192.031 94.9348C192.031 90.3584 188.048 86.6284 183.143 86.6284H118.57C115.961 86.6284 113.624 87.6842 112.011 89.3566C111.348 90.0404 110.803 90.8325 110.412 91.7057C110.358 91.8275 110.305 91.956 110.253 92.0845C109.907 92.9714 109.715 93.9329 109.715 94.9348V96.8769H139.037C141.731 96.8769 144.307 97.9017 146.37 99.6685C147.588 100.711 149.159 101.339 150.874 101.339C152.589 101.339 154.159 100.711 155.377 99.6685C157.441 97.9018 160.016 96.8769 162.711 96.8769H192.031L192.031 94.9348Z" fill="#F9F9F9"/>
<path d="M154.843 94.1885C154.843 96.424 153.066 98.2362 150.874 98.2362C148.682 98.2362 146.905 96.424 146.905 94.1885C146.905 91.9529 148.682 90.1406 150.874 90.1406C153.066 90.1406 154.843 91.9529 154.843 94.1885Z" fill="#D8DDEA"/>
<path opacity="0.2" d="M152.852 94.1884C152.852 95.3024 151.967 96.2055 150.874 96.2055C149.782 96.2055 148.896 95.3024 148.896 94.1884C148.896 93.0744 149.782 92.1714 150.874 92.1714C151.967 92.1714 152.852 93.0744 152.852 94.1884Z" fill="white"/>
<path d="M169.177 212.832H132.569C127.953 212.832 124.211 209.016 124.211 204.308C124.211 199.601 127.953 195.785 132.569 195.785H169.177C173.793 195.785 177.535 199.601 177.535 204.308C177.535 209.016 173.793 212.832 169.177 212.832Z" fill="#CDDB38"/>
<path d="M138.926 206.517C138.889 206.444 138.871 206.365 138.871 206.281C138.871 206.214 138.883 206.148 138.909 206.084C138.934 206.02 138.968 205.962 139.011 205.911C139.054 205.859 139.109 205.818 139.175 205.788C139.242 205.758 139.31 205.743 139.381 205.743C139.486 205.743 139.592 205.773 139.697 205.833C139.705 205.837 139.741 205.858 139.805 205.896C139.87 205.933 139.914 205.958 139.937 205.97C139.961 205.982 140.006 206.005 140.075 206.039C140.143 206.073 140.198 206.098 140.239 206.114C140.28 206.13 140.336 206.152 140.406 206.18C140.476 206.207 140.542 206.228 140.602 206.242C140.663 206.256 140.731 206.271 140.808 206.287C140.884 206.303 140.963 206.314 141.045 206.32C141.127 206.326 141.209 206.329 141.291 206.329C141.44 206.329 141.579 206.318 141.71 206.296C141.841 206.274 141.965 206.237 142.082 206.186C142.199 206.134 142.292 206.059 142.361 205.961C142.429 205.864 142.463 205.749 142.463 205.618C142.463 205.474 142.4 205.347 142.273 205.235C142.146 205.124 141.955 205.034 141.701 204.966L140.828 204.733C140.621 204.673 140.45 204.623 140.315 204.58C140.18 204.539 140.037 204.487 139.884 204.425C139.732 204.363 139.609 204.302 139.515 204.24C139.421 204.178 139.329 204.103 139.237 204.016C139.145 203.928 139.075 203.833 139.026 203.732C138.977 203.63 138.937 203.512 138.906 203.376C138.874 203.241 138.859 203.089 138.859 202.922C138.859 202.651 138.916 202.407 139.032 202.19C139.147 201.973 139.31 201.792 139.521 201.649C139.732 201.505 139.982 201.396 140.271 201.32C140.56 201.244 140.881 201.207 141.232 201.207C141.885 201.207 142.52 201.354 143.137 201.649C143.254 201.705 143.341 201.779 143.398 201.873C143.455 201.967 143.483 202.065 143.483 202.169C143.483 202.3 143.44 202.415 143.354 202.512C143.268 202.61 143.155 202.659 143.014 202.659C142.975 202.659 142.935 202.655 142.894 202.647C142.853 202.639 142.811 202.627 142.768 202.611C142.756 202.607 142.737 202.599 142.709 202.587C142.162 202.392 141.697 202.294 141.314 202.294C141.146 202.294 140.991 202.31 140.848 202.342C140.706 202.374 140.583 202.433 140.479 202.518C140.376 202.604 140.324 202.711 140.324 202.838C140.324 203.014 140.379 203.144 140.488 203.23C140.597 203.316 140.797 203.394 141.086 203.466L141.953 203.687C142.274 203.771 142.544 203.861 142.765 203.959C142.986 204.057 143.179 204.176 143.345 204.318C143.511 204.459 143.633 204.627 143.711 204.823C143.79 205.018 143.829 205.245 143.829 205.504C143.829 205.918 143.723 206.271 143.512 206.562C143.301 206.853 143.019 207.067 142.665 207.205C142.312 207.342 141.904 207.411 141.444 207.411C140.533 207.411 139.75 207.176 139.093 206.706C139.019 206.654 138.963 206.591 138.926 206.517Z" fill="white"/>
<path d="M146.706 205.644C146.967 205.989 147.339 206.161 147.819 206.161C148.245 206.161 148.63 206.06 148.974 205.856C149.075 205.797 149.175 205.767 149.273 205.767C149.319 205.767 149.365 205.774 149.41 205.788C149.455 205.802 149.496 205.822 149.533 205.848C149.57 205.874 149.604 205.904 149.633 205.94C149.662 205.976 149.688 206.015 149.709 206.057C149.731 206.098 149.747 206.143 149.759 206.191C149.771 206.239 149.777 206.289 149.777 206.341C149.777 206.548 149.691 206.725 149.519 206.873C149.343 207.024 149.088 207.149 148.754 207.249C148.42 207.348 148.05 207.398 147.643 207.398C146.788 207.398 146.076 207.117 145.507 206.553C144.939 205.989 144.654 205.241 144.654 204.308C144.654 203.734 144.782 203.214 145.038 202.745C145.294 202.277 145.654 201.907 146.117 201.636C146.58 201.365 147.1 201.23 147.679 201.23C148.05 201.23 148.388 201.279 148.692 201.376C148.997 201.474 149.241 201.595 149.425 201.738C149.519 201.81 149.588 201.889 149.633 201.977C149.678 202.065 149.7 202.156 149.7 202.252C149.7 202.399 149.651 202.528 149.551 202.637C149.451 202.747 149.329 202.802 149.185 202.802C149.169 202.802 149.153 202.802 149.138 202.802C149.122 202.802 149.107 202.8 149.091 202.796C149.075 202.792 149.059 202.788 149.041 202.784C149.024 202.78 149.007 202.775 148.991 202.769C148.976 202.763 148.959 202.756 148.942 202.748C148.924 202.74 148.907 202.732 148.892 202.724C148.54 202.545 148.2 202.455 147.872 202.455C147.634 202.455 147.418 202.497 147.224 202.581C147.031 202.664 146.867 202.785 146.732 202.942C146.597 203.099 146.494 203.294 146.421 203.525C146.349 203.756 146.313 204.015 146.313 204.302C146.313 204.852 146.444 205.3 146.706 205.644Z" fill="white"/>
<path d="M150.574 204.987C150.632 204.79 150.73 204.621 150.867 204.479C151.004 204.338 151.165 204.223 151.35 204.135C151.536 204.048 151.776 203.978 152.071 203.926C152.366 203.874 152.678 203.84 153.006 203.822C153.334 203.804 153.733 203.795 154.202 203.795V203.364C154.202 202.679 153.869 202.337 153.205 202.337C152.99 202.337 152.762 202.364 152.52 202.42C152.277 202.476 152.098 202.525 151.98 202.567C151.863 202.608 151.705 202.671 151.506 202.755C151.486 202.763 151.466 202.77 151.444 202.776C151.423 202.782 151.402 202.786 151.383 202.788C151.363 202.79 151.344 202.791 151.324 202.791C151.179 202.791 151.056 202.727 150.955 202.6C150.853 202.472 150.802 202.33 150.802 202.175C150.802 202.076 150.826 201.985 150.873 201.903C150.92 201.822 150.992 201.757 151.089 201.709C151.738 201.394 152.471 201.237 153.287 201.237C153.658 201.237 153.99 201.28 154.281 201.365C154.572 201.451 154.829 201.585 155.054 201.769C155.279 201.952 155.452 202.2 155.573 202.513C155.694 202.826 155.755 203.197 155.755 203.628V206.503C155.755 206.766 155.68 206.97 155.532 207.115C155.383 207.261 155.21 207.333 155.01 207.333C154.881 207.333 154.758 207.302 154.641 207.238C154.383 207.094 154.254 206.847 154.254 206.497V206.329C154.121 206.676 153.9 206.941 153.589 207.124C153.279 207.307 152.912 207.399 152.49 207.399C151.908 207.399 151.428 207.246 151.051 206.939C150.674 206.632 150.486 206.216 150.486 205.69C150.486 205.419 150.515 205.185 150.574 204.987ZM153.279 206.296C153.448 206.219 153.602 206.111 153.739 205.973C153.875 205.836 153.986 205.665 154.07 205.459C154.154 205.254 154.196 205.036 154.196 204.805V204.608C153.942 204.608 153.73 204.61 153.56 204.614C153.39 204.618 153.218 204.628 153.044 204.644C152.87 204.66 152.73 204.681 152.622 204.709C152.515 204.737 152.412 204.774 152.315 204.82C152.217 204.866 152.142 204.922 152.089 204.99C152.036 205.058 151.995 205.139 151.966 205.232C151.937 205.326 151.922 205.434 151.922 205.558C151.922 205.825 151.997 206.034 152.147 206.186C152.298 206.337 152.502 206.413 152.76 206.413C152.936 206.413 153.109 206.374 153.279 206.296Z" fill="white"/>
<path d="M157.442 207.077C157.306 206.909 157.237 206.668 157.237 206.353V202.175C157.237 201.896 157.31 201.685 157.454 201.542C157.599 201.398 157.802 201.327 158.064 201.327C158.318 201.327 158.514 201.398 158.653 201.542C158.791 201.685 158.861 201.894 158.861 202.169V202.313C159.212 201.592 159.874 201.231 160.847 201.231C161.437 201.231 161.925 201.429 162.31 201.826C162.694 202.222 162.887 202.789 162.887 203.526V206.353C162.887 206.668 162.815 206.909 162.67 207.077C162.526 207.244 162.319 207.328 162.049 207.328C161.795 207.328 161.6 207.244 161.463 207.077C161.326 206.909 161.258 206.668 161.258 206.353V203.538C161.258 203.148 161.159 202.848 160.962 202.639C160.764 202.429 160.514 202.325 160.209 202.325C159.841 202.325 159.526 202.472 159.262 202.767C158.999 203.062 158.867 203.443 158.867 203.909V206.353C158.867 206.668 158.794 206.909 158.65 207.077C158.505 207.244 158.298 207.328 158.029 207.328C157.775 207.328 157.579 207.244 157.442 207.077Z" fill="white"/>
<path d="M123.243 110.734H120.714V124.789H123.243V110.734Z" fill="#CDDB38"/>
<path d="M134.495 110.734H120.714V113.312H134.495V110.734Z" fill="#CDDB38"/>
<path d="M181.145 172.125H178.616V186.18H181.145V172.125Z" fill="#CDDB38"/>
<path d="M181.145 183.602H167.364V186.18H181.145V183.602Z" fill="#CDDB38"/>
<path d="M181.145 110.484H178.616V124.539H181.145V110.484Z" fill="#CDDB38"/>
<path d="M181.145 110.484H167.363V113.062H181.145V110.484Z" fill="#CDDB38"/>
<path d="M123.243 171.875H120.714V185.93H123.243V171.875Z" fill="#CDDB38"/>
<path d="M134.496 183.352H120.714V185.93H134.496V183.352Z" fill="#CDDB38"/>
<path d="M172.637 117.228H129.11C127.386 117.228 125.988 118.653 125.988 120.411V175.993C125.988 177.751 127.386 179.176 129.11 179.176H172.637C174.361 179.176 175.758 177.751 175.758 175.993V120.411C175.758 118.653 174.361 117.228 172.637 117.228Z" fill="white"/>
<path d="M168.961 125.388H132.784V128.51H168.961V125.388Z" fill="#D4DAE8"/>
<path d="M168.961 132.597H132.784V135.719H168.961V132.597Z" fill="#D4DAE8"/>
<path d="M168.961 139.806H132.784V142.928H168.961V139.806Z" fill="#D4DAE8"/>
<path d="M168.961 147.016H132.784V150.138H168.961V147.016Z" fill="#D4DAE8"/>
<path d="M168.961 154.226H132.784V157.348H168.961V154.226Z" fill="#D4DAE8"/>
<path d="M168.961 161.436H132.784V164.558H168.961V161.436Z" fill="#D4DAE8"/>
<path d="M160.687 168.645H132.784V171.767H160.687V168.645Z" fill="#D4DAE8"/>
<path d="M171.76 259.15C171.76 259.15 164.857 258.953 159.474 255.562C151.036 250.254 145.832 240.919 143.396 235.564H165.852L171.76 259.15Z" fill="#F2C391"/>
<path d="M168.779 308C169.768 302.334 173.153 277.983 164.233 250.295C156.008 224.753 181.166 203.354 182.653 197.004L186.091 182.259C186.091 182.259 202.4 196.604 202.035 212.493C201.69 227.258 199.89 236.675 201.445 243.776C204.723 258.744 208.162 282.018 216.127 308H168.779Z" fill="#FFD199"/>
<path d="M202.033 211.542C202.033 221.778 185.821 206.284 185.821 206.284C186.729 203.727 183.029 185.645 183.029 178.714C183.029 174.692 183.163 170.099 183.437 166.7C184.07 159.364 186.984 155.342 190.347 154.75C190.478 154.719 190.612 154.698 190.743 154.677C190.948 154.646 191.131 154.635 191.324 154.635C191.487 154.635 191.641 154.646 191.794 154.656C194.839 154.916 197.48 156.267 197.48 162.814C197.48 162.814 197.55 166.648 197.571 167.937C197.571 167.937 197.581 169.008 197.581 169.184C197.591 169.517 197.591 169.839 197.591 170.13V170.39C197.856 176.012 202.033 201.617 202.033 211.542Z" fill="#FFD199"/>
<path d="M197.489 164.227C195.899 165.433 193.881 165.547 192.261 164.3C189.919 162.492 189.266 158.543 190.804 155.498C190.958 155.186 191.131 154.895 191.324 154.635C191.487 154.635 191.64 154.646 191.794 154.656C194.838 154.916 197.479 156.267 197.479 162.814V163.178C197.479 163.458 197.489 163.812 197.489 164.227Z" fill="#FFDBB3"/>
<path d="M114.334 211.486C114.334 215.288 112.575 218.039 109.536 218.37C106.901 218.658 104.738 215.288 104.738 211.486C104.738 207.685 107.403 205.51 110.106 204.092C112.462 202.855 114.334 207.685 114.334 211.486Z" fill="#FFD199"/>
<path d="M115.7 196.927C115.7 201.296 112.66 203.59 109.712 204.367C105.963 205.354 104.674 201.296 104.674 196.927C104.674 192.559 107.338 188.462 110.383 188.462C113.428 188.462 115.7 192.559 115.7 196.927Z" fill="#FFD199"/>
<path d="M114.48 183.063C113.75 187.367 110.371 189.099 107.336 189.352C103.477 189.673 102.885 185.45 103.616 181.145C104.346 176.841 107.656 173.267 110.656 173.797C113.656 174.326 115.211 178.758 114.48 183.063Z" fill="#FFD199"/>
<g opacity="0.6">
<path d="M233.331 188.754C231.068 188.754 229.241 190.618 229.241 192.925C229.241 195.228 231.068 197.097 233.331 197.097C235.59 197.097 237.421 195.228 237.421 192.925C237.421 190.618 235.59 188.754 233.331 188.754ZM233.331 195.113C232.147 195.113 231.185 194.133 231.185 192.925C231.185 191.717 232.147 190.737 233.331 190.737C234.516 190.737 235.476 191.718 235.476 192.925C235.476 194.133 234.516 195.113 233.331 195.113Z" fill="white"/>
<path d="M102.322 239.532C99.2674 239.532 96.8003 242.048 96.8003 245.163C96.8003 248.272 99.2674 250.795 102.322 250.795C105.371 250.795 107.843 248.272 107.843 245.163C107.843 242.048 105.371 239.532 102.322 239.532ZM102.322 248.707C100.404 248.707 98.8474 247.119 98.8474 245.163C98.8474 243.207 100.404 241.62 102.322 241.62C104.241 241.62 105.796 243.207 105.796 245.163C105.796 247.119 104.241 248.707 102.322 248.707Z" fill="white"/>
<path d="M176.958 71.5405L177.698 73.4606C177.972 74.1713 178.524 74.7338 179.221 75.0131L181.103 75.7676C181.457 75.9093 181.457 76.4195 181.103 76.5611L179.221 77.3157C178.524 77.595 177.972 78.1576 177.698 78.8683L176.958 80.7884C176.82 81.1489 176.319 81.1489 176.18 80.7884L175.441 78.8684C175.167 78.1576 174.615 77.5952 173.918 77.3157L172.036 76.5611C171.682 76.4195 171.682 75.9093 172.036 75.7676L173.918 75.0131C174.615 74.7338 175.167 74.1713 175.441 73.4604L176.18 71.5404C176.319 71.1799 176.82 71.1799 176.958 71.5405Z" fill="white"/>
<path d="M64.9731 174.029L65.7519 176.05C66.0402 176.798 66.6207 177.39 67.3545 177.684L69.3362 178.479C69.7084 178.628 69.7084 179.165 69.3362 179.314L67.3545 180.108C66.6208 180.402 66.0403 180.994 65.7521 181.742L64.9733 183.764C64.827 184.143 64.3004 184.143 64.1542 183.764L63.3756 181.742C63.0873 180.994 62.5068 180.402 61.773 180.108L59.7913 179.314C59.4191 179.165 59.4192 178.628 59.7913 178.479L61.773 177.684C62.5066 177.39 63.0872 176.798 63.3756 176.05L64.1542 174.029C64.3003 173.649 64.8268 173.649 64.9731 174.029Z" fill="white"/>
<path d="M214.195 230.014L214.935 231.934C215.209 232.645 215.76 233.207 216.457 233.487L218.34 234.241C218.693 234.383 218.693 234.893 218.34 235.035L216.457 235.789C215.76 236.068 215.209 236.631 214.935 237.342L214.195 239.262C214.056 239.622 213.556 239.622 213.417 239.262L212.677 237.342C212.403 236.631 211.852 236.068 211.155 235.789L209.272 235.035C208.918 234.893 208.918 234.383 209.272 234.241L211.155 233.487C211.852 233.207 212.403 232.645 212.677 231.934L213.417 230.014C213.556 229.654 214.056 229.654 214.195 230.014Z" fill="white"/>
<path d="M202.421 137.479L203.161 139.399C203.435 140.11 203.986 140.672 204.683 140.952L206.566 141.706C206.919 141.848 206.919 142.358 206.566 142.5L204.683 143.254C203.986 143.533 203.435 144.096 203.161 144.807L202.421 146.727C202.282 147.087 201.782 147.087 201.643 146.727L200.903 144.807C200.629 144.096 200.078 143.533 199.381 143.254L197.498 142.5C197.145 142.358 197.145 141.848 197.498 141.706L199.381 140.952C200.078 140.672 200.629 140.11 200.903 139.399L201.643 137.479C201.782 137.118 202.282 137.118 202.421 137.479Z" fill="white"/>
<path d="M95.506 127.559L96.2847 129.58C96.5729 130.328 97.1536 130.92 97.8872 131.214L99.869 132.008C100.241 132.157 100.241 132.694 99.869 132.843L97.8872 133.638C97.1536 133.932 96.573 134.524 96.2847 135.272L95.506 137.293C95.3597 137.673 94.8332 137.673 94.687 137.293L93.9083 135.272C93.6201 134.524 93.0395 133.932 92.3058 133.638L90.3241 132.843C89.9519 132.694 89.9519 132.157 90.3241 132.008L92.3058 131.214C93.0394 130.92 93.6201 130.328 93.9083 129.579L94.687 127.558C94.8332 127.179 95.3599 127.179 95.506 127.559Z" fill="white"/>
</g>
</g>
<defs>
<linearGradient id="paint0_linear_3433_6520" x1="200.726" y1="269.111" x2="89.4954" y2="80.2067" gradientUnits="userSpaceOnUse">
<stop stop-color="#CDE8FF"/>
<stop offset="1" stop-color="#E1EFFF"/>
</linearGradient>
<clipPath id="clip0_3433_6520">
<path d="M0 0H282C293.046 0 302 8.95431 302 20V288C302 299.046 293.046 308 282 308H0V0Z" fill="white"/>
</clipPath>
</defs>
</svg>
