<svg width="161" height="164" viewBox="0 0 161 164" fill="none" xmlns="http://www.w3.org/2000/svg">
<g clip-path="url(#clip0_3286_6919)">
<path d="M161 0H0V164H161V0Z" fill="white"/>
<path d="M135.171 90.1758C128.996 108.159 140.96 132.044 111.971 138.034C101.446 140.208 93.8285 135.004 83.646 141.14C65.627 151.999 54.9945 150.93 47.0759 142.723C40.9584 136.382 42.1176 129.035 35.4409 124.626C23.1103 116.482 19.3261 106.019 22.1555 92.631C23.6431 85.5917 29.6866 80.8338 33.4069 76.0748C37.7643 70.5009 39.2482 65.0902 41.3411 59.4195C50.663 34.1627 71.2574 28.0986 86.6446 29.7809C99.6272 31.2003 108.032 41.1676 112.1 48.8772C120.394 64.5991 144.715 62.3757 135.171 90.1758ZM142.225 100.123C142.205 98.1345 140.606 96.539 138.654 96.5594C136.702 96.5798 135.136 98.2083 135.156 100.197C135.176 102.185 136.775 103.781 138.727 103.761C140.679 103.74 142.245 102.112 142.225 100.123ZM19.3897 67.4758C20.3909 68.4958 22.0144 68.4958 23.0158 67.4758C24.017 66.4559 24.017 64.8021 23.0158 63.7822C22.0144 62.7622 20.391 62.7622 19.3897 63.7822C18.3883 64.8022 18.3883 66.4559 19.3897 67.4758ZM116.41 45.7758C116.085 48.0417 117.625 50.1472 119.85 50.4784C122.074 50.8095 124.141 49.241 124.466 46.975C124.791 44.7091 123.251 42.6037 121.027 42.2725C118.802 41.9414 116.736 43.5099 116.41 45.7758ZM26.5736 66.4091C26.9654 69.1452 29.4608 71.0398 32.147 70.6405C34.8331 70.2411 36.693 67.6994 36.301 64.9632C35.9091 62.2271 33.4138 60.3326 30.7276 60.7318C28.0415 61.1311 26.1817 63.6728 26.5736 66.4091ZM112.124 39.7415C111.953 40.9287 112.76 42.0318 113.926 42.2053C115.091 42.3789 116.174 41.557 116.344 40.3699C116.515 39.1826 115.708 38.0795 114.542 37.906C113.377 37.7325 112.294 38.5542 112.124 39.7415ZM37.9667 144.426C38.1148 145.46 39.0585 146.177 40.0741 146.026C41.0898 145.875 41.793 144.914 41.6448 143.879C41.4967 142.844 40.5531 142.128 39.5374 142.279C38.5217 142.43 37.8185 143.391 37.9667 144.426ZM39.8055 135.671C39.7789 133.021 37.6487 130.895 35.0475 130.922C32.4465 130.949 30.3595 133.119 30.3861 135.769C30.4127 138.418 32.543 140.544 35.144 140.517C37.7451 140.49 39.8322 138.32 39.8055 135.671Z" fill="url(#paint0_linear_3286_6919)"/>
<path d="M80.6277 90.7727C85.4417 92.7319 75.0475 97.686 75.0475 97.686C74.0202 96.7566 64.8076 95.1017 61.5472 93.775C59.656 93.0054 57.5213 92.0654 55.9777 91.2756C52.6458 89.5664 51.313 87.3728 51.6809 85.6156C51.6904 85.5445 51.7032 85.4741 51.719 85.4056C51.764 85.2248 51.8316 85.0525 51.9104 84.8892C52.6185 83.4511 53.8141 82.4461 56.836 83.6741C58.3989 84.3092 59.7568 84.8139 62.0746 85.562C65.9839 86.8238 76.3672 89.039 80.6277 90.7727Z" fill="#FFD199"/>
<path d="M76.8659 91.1614C81.7031 89.2622 77.3914 100.095 77.3914 100.095C76.0176 100.126 68.1592 105.295 64.8833 106.582C62.9829 107.328 60.7905 108.118 59.1316 108.608C55.5478 109.664 53.3405 108.446 52.6308 106.562C51.9212 104.678 52.2443 102.688 54.959 101.621C56.5288 101.004 57.7932 100.652 59.9919 99.5942C63.7001 97.8107 72.585 92.8422 76.8659 91.1614Z" fill="#FFD199"/>
<path d="M76.8489 99.5186C81.3847 97.7377 77.3416 107.896 77.3416 107.896C76.0535 107.925 68.6845 112.772 65.6126 113.978C63.8307 114.678 61.8251 115.448 60.2695 115.908C56.9089 116.898 54.3317 115.919 53.615 113.946C53.1012 112.531 53.2854 110.851 56.1316 109.732C57.6036 109.153 58.8531 108.618 60.9148 107.626C64.392 105.954 72.8346 101.095 76.8489 99.5186Z" fill="#FFD199"/>
<path d="M64.2751 90.7222C62.6737 91.232 61.2634 91.6735 60.2357 91.9631C57.8931 92.6233 57.4162 92.6929 55.7651 93.0283C52.5753 93.6773 52.1446 95.7063 52.5292 97.6861C52.9129 99.6657 54.1716 101.113 57.8802 100.696C59.2675 100.538 61.0308 100.247 62.7114 99.9279L64.2751 90.7222Z" fill="#FFD199"/>
<path d="M58.4917 120.546V51.2217C58.4917 50.9623 58.6982 50.752 58.9529 50.752H101.911C102.165 50.752 102.372 50.9623 102.372 51.2217V120.546C102.372 120.806 102.165 121.016 101.911 121.016H58.9529C58.6982 121.016 58.4917 120.806 58.4917 120.546Z" fill="#3E50B4"/>
<path d="M58.4902 120.089V121.007C58.4902 121.54 58.5928 122.052 58.7769 122.524C58.805 122.593 58.8334 122.661 58.8617 122.726C59.0704 123.191 59.3607 123.613 59.7146 123.977C60.5744 124.867 61.8201 125.429 63.2109 125.429H97.6357C100.251 125.429 102.374 123.443 102.374 121.007V120.089H58.4902Z" fill="#F9F9F9"/>
<path opacity="0.1" d="M80.4374 51.5835V46.1265H63.2109C61.8201 46.1265 60.5744 46.6887 59.7146 47.5791C59.3608 47.9433 59.0705 48.3685 58.8617 48.83C58.8334 48.8948 58.805 48.9632 58.7769 49.0316C58.5928 49.5039 58.4937 50.0159 58.4937 50.5493V51.5835L80.4374 51.5835Z" fill="white"/>
<path opacity="0.1" d="M58.4937 120.089V121.007C58.4937 121.54 58.5928 122.052 58.7769 122.524C58.805 122.593 58.8334 122.661 58.8617 122.726C59.0704 123.187 59.3607 123.613 59.7146 123.977C60.5744 124.867 61.8201 125.429 63.2109 125.429H80.4374V120.089H58.4937Z" fill="white"/>
<path d="M102.374 50.5493C102.374 48.1126 100.251 46.1265 97.6357 46.1265H63.2109C61.8201 46.1265 60.5744 46.6887 59.7146 47.5791C59.3608 47.9433 59.0705 48.365 58.8617 48.83C58.8334 48.8948 58.805 48.9632 58.7769 49.0316C58.5928 49.5039 58.4902 50.0159 58.4902 50.5493V51.5835H74.1224C75.5587 51.5835 76.9318 52.1291 78.0318 53.0699C78.6811 53.6251 79.5183 53.9596 80.4325 53.9596C81.3468 53.9596 82.1841 53.6252 82.8334 53.0699C83.9335 52.1292 85.3067 51.5835 86.743 51.5835H102.374L102.374 50.5493Z" fill="#F9F9F9"/>
<path d="M82.5487 50.1519C82.5487 51.3422 81.6014 52.3072 80.4328 52.3072C79.2642 52.3072 78.3169 51.3422 78.3169 50.1519C78.3169 48.9616 79.2642 47.9966 80.4328 47.9966C81.6014 47.9966 82.5487 48.9616 82.5487 50.1519Z" fill="#D8DDEA"/>
<path opacity="0.2" d="M81.4872 50.1521C81.4872 50.7453 81.0151 51.2261 80.4328 51.2261C79.8505 51.2261 79.3784 50.7453 79.3784 50.1521C79.3784 49.559 79.8505 49.0781 80.4328 49.0781C81.0151 49.0781 81.4872 49.559 81.4872 50.1521Z" fill="white"/>
<path d="M90.1904 113.326H70.6745C68.2137 113.326 66.2188 111.294 66.2188 108.788C66.2188 106.281 68.2136 104.249 70.6745 104.249H90.1904C92.6511 104.249 94.6461 106.281 94.6461 108.788C94.6461 111.294 92.6512 113.326 90.1904 113.326Z" fill="#CDDB38"/>
<path d="M74.0633 109.964C74.0434 109.924 74.0336 109.882 74.0336 109.838C74.0336 109.802 74.0403 109.767 74.0539 109.733C74.0674 109.699 74.0856 109.668 74.1086 109.64C74.1315 109.613 74.1606 109.591 74.1961 109.575C74.2315 109.559 74.2679 109.551 74.3054 109.551C74.3617 109.551 74.4179 109.567 74.4742 109.599C74.4783 109.601 74.4976 109.612 74.5319 109.632C74.5663 109.653 74.5897 109.666 74.6022 109.672C74.6147 109.679 74.6391 109.691 74.6756 109.709C74.712 109.727 74.7412 109.74 74.7631 109.749C74.7849 109.757 74.8147 109.769 74.8521 109.784C74.8896 109.799 74.9245 109.81 74.9568 109.817C74.9891 109.825 75.0255 109.832 75.0662 109.841C75.1068 109.849 75.1489 109.855 75.1927 109.859C75.2365 109.862 75.2802 109.863 75.324 109.863C75.4031 109.863 75.4776 109.858 75.5474 109.846C75.6171 109.834 75.6833 109.814 75.7458 109.787C75.8083 109.759 75.8577 109.72 75.8942 109.668C75.9306 109.616 75.9489 109.555 75.9489 109.485C75.9489 109.408 75.915 109.34 75.8474 109.281C75.7797 109.221 75.678 109.174 75.5427 109.138L75.0771 109.013C74.9667 108.982 74.8756 108.955 74.8037 108.932C74.7319 108.91 74.6553 108.882 74.5741 108.85C74.4929 108.817 74.4273 108.784 74.3772 108.751C74.3273 108.718 74.2777 108.678 74.2288 108.632C74.1799 108.585 74.1424 108.534 74.1164 108.48C74.0903 108.426 74.069 108.363 74.0523 108.291C74.0356 108.219 74.0273 108.138 74.0273 108.049C74.0273 107.905 74.0581 107.775 74.1195 107.659C74.1809 107.544 74.2679 107.448 74.3804 107.371C74.4928 107.295 74.6261 107.237 74.7803 107.196C74.9344 107.156 75.1053 107.136 75.2927 107.136C75.6405 107.136 75.979 107.214 76.3081 107.371C76.3706 107.401 76.4169 107.441 76.4472 107.491C76.4774 107.54 76.4925 107.593 76.4925 107.648C76.4925 107.718 76.4696 107.779 76.4237 107.831C76.3779 107.883 76.3175 107.909 76.2425 107.909C76.2216 107.909 76.2003 107.907 76.1784 107.903C76.1566 107.899 76.1342 107.892 76.1113 107.884C76.105 107.882 76.0946 107.877 76.08 107.871C75.7884 107.767 75.5405 107.715 75.3364 107.715C75.2468 107.715 75.164 107.723 75.088 107.74C75.012 107.757 74.9463 107.789 74.8911 107.834C74.8359 107.88 74.8084 107.937 74.8084 108.005C74.8084 108.098 74.8375 108.167 74.8958 108.213C74.9541 108.259 75.0604 108.301 75.2146 108.339L75.6769 108.457C75.8477 108.501 75.992 108.549 76.1097 108.601C76.2274 108.653 76.3305 108.717 76.419 108.792C76.5075 108.868 76.5726 108.957 76.6143 109.061C76.656 109.165 76.6768 109.286 76.6768 109.424C76.6768 109.645 76.6205 109.832 76.5081 109.987C76.3957 110.142 76.2451 110.256 76.0567 110.329C75.8681 110.403 75.6509 110.439 75.4052 110.439C74.9199 110.439 74.5023 110.314 74.1523 110.064C74.1127 110.036 74.083 110.003 74.0633 109.964Z" fill="white"/>
<path d="M78.2108 109.499C78.3503 109.682 78.5482 109.774 78.8044 109.774C79.0314 109.774 79.2366 109.72 79.4199 109.612C79.4741 109.58 79.5272 109.564 79.5793 109.564C79.6042 109.564 79.6287 109.568 79.6527 109.575C79.6766 109.583 79.6985 109.593 79.7183 109.607C79.7381 109.621 79.7558 109.637 79.7714 109.656C79.787 109.676 79.8006 109.696 79.8121 109.718C79.8235 109.741 79.8324 109.765 79.8386 109.79C79.8448 109.816 79.848 109.842 79.848 109.87C79.848 109.98 79.8022 110.074 79.7105 110.153C79.6167 110.234 79.4809 110.3 79.3027 110.353C79.1247 110.406 78.9273 110.433 78.7106 110.433C78.2545 110.433 77.8749 110.283 77.5718 109.983C77.2687 109.682 77.1172 109.284 77.1172 108.788C77.1172 108.482 77.1854 108.205 77.3218 107.955C77.4582 107.706 77.6499 107.509 77.8967 107.365C78.1436 107.221 78.4212 107.148 78.7294 107.148C78.9273 107.148 79.1075 107.174 79.2699 107.226C79.4324 107.278 79.5626 107.343 79.6605 107.419C79.7105 107.457 79.7475 107.5 79.7714 107.546C79.7953 107.593 79.8074 107.642 79.8074 107.693C79.8074 107.771 79.7808 107.84 79.7277 107.898C79.6746 107.956 79.6095 107.985 79.5324 107.985C79.5241 107.985 79.5158 107.985 79.5075 107.985C79.4991 107.985 79.4908 107.984 79.4825 107.982C79.4741 107.98 79.4653 107.978 79.4559 107.976C79.4465 107.974 79.4376 107.971 79.4293 107.968C79.421 107.965 79.4121 107.961 79.4028 107.957C79.3934 107.952 79.3845 107.948 79.3762 107.944C79.1887 107.849 79.0075 107.801 78.8325 107.801C78.7055 107.801 78.5904 107.823 78.4873 107.868C78.3842 107.912 78.2967 107.976 78.2249 108.06C78.153 108.144 78.0977 108.247 78.0592 108.37C78.0207 108.493 78.0015 108.631 78.0015 108.784C78.0015 109.077 78.0713 109.315 78.2108 109.499Z" fill="white"/>
<path d="M80.273 109.149C80.3043 109.044 80.3563 108.954 80.4293 108.878C80.5021 108.803 80.5881 108.742 80.687 108.695C80.7859 108.649 80.914 108.612 81.0713 108.584C81.2286 108.556 81.3947 108.538 81.5697 108.528C81.7446 108.519 81.9571 108.514 82.207 108.514V108.285C82.207 107.92 82.0299 107.737 81.6759 107.737C81.5613 107.737 81.4394 107.752 81.3103 107.782C81.1811 107.812 81.0853 107.838 81.0228 107.86C80.9603 107.882 80.8759 107.916 80.7697 107.96C80.7593 107.964 80.7484 107.968 80.737 107.971C80.7255 107.974 80.7145 107.977 80.7041 107.978C80.6937 107.979 80.6833 107.979 80.6729 107.979C80.5958 107.979 80.5302 107.945 80.476 107.877C80.4218 107.81 80.3948 107.734 80.3948 107.652C80.3948 107.599 80.4073 107.55 80.4323 107.507C80.4573 107.463 80.4958 107.429 80.5479 107.403C80.8936 107.236 81.2842 107.152 81.7195 107.152C81.9174 107.152 82.0939 107.175 82.2491 107.22C82.4043 107.266 82.5417 107.338 82.6616 107.435C82.7813 107.533 82.8735 107.665 82.9381 107.831C83.0026 107.998 83.0349 108.196 83.0349 108.425V109.956C83.0349 110.096 82.9953 110.204 82.9163 110.282C82.837 110.359 82.7444 110.398 82.6381 110.398C82.5694 110.398 82.5037 110.381 82.4412 110.347C82.3037 110.271 82.235 110.139 82.235 109.953V109.863C82.1642 110.048 82.046 110.189 81.8805 110.287C81.7149 110.384 81.5196 110.433 81.2946 110.433C80.9842 110.433 80.7285 110.351 80.5276 110.188C80.3265 110.025 80.2261 109.803 80.2261 109.523C80.2261 109.379 80.2418 109.254 80.273 109.149ZM81.7149 109.846C81.8055 109.804 81.8873 109.747 81.9602 109.674C82.033 109.601 82.0919 109.51 82.1367 109.4C82.1815 109.291 82.2039 109.175 82.2039 109.052V108.947C82.0685 108.947 81.9555 108.948 81.8649 108.95C81.7743 108.952 81.6826 108.957 81.5899 108.966C81.4972 108.974 81.4222 108.986 81.365 109.001C81.3077 109.016 81.253 109.035 81.201 109.06C81.1489 109.084 81.1088 109.114 81.0807 109.15C81.0525 109.187 81.0307 109.229 81.015 109.279C80.9995 109.329 80.9916 109.387 80.9916 109.453C80.9916 109.595 81.0317 109.706 81.1119 109.787C81.1921 109.868 81.3009 109.908 81.4384 109.908C81.5322 109.908 81.6243 109.887 81.7149 109.846Z" fill="white"/>
<path d="M83.9345 110.261C83.8616 110.172 83.8252 110.043 83.8252 109.876V107.651C83.8252 107.503 83.8638 107.39 83.9408 107.314C84.0178 107.238 84.1261 107.199 84.2658 107.199C84.4011 107.199 84.5058 107.238 84.5797 107.314C84.6536 107.39 84.6906 107.502 84.6906 107.648V107.724C84.8781 107.34 85.2311 107.148 85.7498 107.148C86.0643 107.148 86.3242 107.254 86.5293 107.465C86.7345 107.676 86.8371 107.978 86.8371 108.371V109.876C86.8371 110.044 86.7985 110.172 86.7215 110.261C86.6444 110.35 86.5341 110.395 86.3903 110.395C86.2549 110.395 86.1508 110.35 86.0779 110.261C86.0049 110.172 85.9686 110.044 85.9686 109.876V108.377C85.9686 108.169 85.9159 108.009 85.8108 107.898C85.7055 107.787 85.5718 107.731 85.4093 107.731C85.2135 107.731 85.0453 107.809 84.9047 107.966C84.7642 108.123 84.6938 108.326 84.6938 108.574V109.876C84.6938 110.044 84.6552 110.172 84.5782 110.261C84.5011 110.35 84.3908 110.395 84.247 110.395C84.1116 110.395 84.0074 110.35 83.9345 110.261Z" fill="white"/>
<path d="M65.7022 58.9619H64.354V66.4458H65.7022V58.9619Z" fill="#CDDB38"/>
<path d="M71.7009 58.9619H64.354V60.3346H71.7009V58.9619Z" fill="#CDDB38"/>
<path d="M96.5708 91.6504H95.2227V99.1342H96.5708V91.6504Z" fill="#CDDB38"/>
<path d="M96.5706 97.7617H89.2236V99.1344H96.5706V97.7617Z" fill="#CDDB38"/>
<path d="M96.5708 58.8286H95.2227V66.3125H96.5708V58.8286Z" fill="#CDDB38"/>
<path d="M96.5706 58.8286H89.2236V60.2013H96.5706V58.8286Z" fill="#CDDB38"/>
<path d="M65.7022 91.5176H64.354V99.0014H65.7022V91.5176Z" fill="#CDDB38"/>
<path d="M71.7009 97.6284H64.354V99.0011H71.7009V97.6284Z" fill="#CDDB38"/>
<path d="M92.035 62.4194H68.83C67.9111 62.4194 67.166 63.1783 67.166 64.1144V93.7102C67.166 94.6464 67.9111 95.4052 68.83 95.4052H92.035C92.954 95.4052 93.6989 94.6464 93.6989 93.7102V64.1145C93.6989 63.1784 92.954 62.4194 92.035 62.4194Z" fill="white"/>
<path d="M90.0756 66.7642H70.7891V68.4267H90.0756V66.7642Z" fill="#D4DAE8"/>
<path d="M90.0756 70.603H70.7891V72.2655H90.0756V70.603Z" fill="#D4DAE8"/>
<path d="M90.0756 74.4414H70.7891V76.1039H90.0756V74.4414Z" fill="#D4DAE8"/>
<path d="M90.0756 78.2808H70.7891V79.9433H90.0756V78.2808Z" fill="#D4DAE8"/>
<path d="M90.0756 82.1196H70.7891V83.7821H90.0756V82.1196Z" fill="#D4DAE8"/>
<path d="M90.0756 85.9585H70.7891V87.621H90.0756V85.9585Z" fill="#D4DAE8"/>
<path d="M85.6642 89.7974H70.7891V91.4599H85.6642V89.7974Z" fill="#D4DAE8"/>
<path d="M91.5674 137.989C91.5674 137.989 87.887 137.884 85.0173 136.078C80.5193 133.252 77.7449 128.282 76.4463 125.43H88.4178L91.5674 137.989Z" fill="#F2C391"/>
<path d="M89.9783 164C90.5056 160.983 92.3102 148.017 87.5544 133.274C83.1697 119.674 96.5816 108.28 97.3743 104.898L99.2073 97.0474C99.2073 97.0474 107.902 104.686 107.707 113.146C107.523 121.008 106.564 126.022 107.393 129.803C109.141 137.773 110.974 150.166 115.22 164H89.9783Z" fill="#FFD199"/>
<path d="M107.706 112.639C107.706 118.089 99.0637 109.839 99.0637 109.839C99.5475 108.478 97.5752 98.8496 97.5752 95.1589C97.5752 93.0174 97.6462 90.5716 97.7927 88.7622C98.1301 84.8556 99.6833 82.7143 101.476 82.3988C101.546 82.3822 101.617 82.3712 101.688 82.3601C101.797 82.3434 101.894 82.3379 101.997 82.3379C102.084 82.3379 102.166 82.3434 102.248 82.349C103.871 82.4873 105.279 83.2067 105.279 86.6927C105.279 86.6927 105.316 88.7345 105.328 89.4207C105.328 89.4207 105.333 89.9907 105.333 90.0847C105.338 90.2618 105.338 90.4333 105.338 90.5883V90.7267C105.48 93.7201 107.706 107.354 107.706 112.639Z" fill="#FFD199"/>
<path d="M105.284 87.4452C104.436 88.0872 103.36 88.148 102.497 87.484C101.248 86.5212 100.9 84.4185 101.72 82.7972C101.802 82.6312 101.894 82.4762 101.997 82.3379C102.084 82.3379 102.166 82.3434 102.247 82.349C103.871 82.4873 105.279 83.2067 105.279 86.6927V86.8865C105.279 87.036 105.284 87.224 105.284 87.4452Z" fill="#FFDBB3"/>
<path d="M60.9528 112.609C60.9528 114.634 60.0153 116.098 58.3949 116.275C56.9902 116.428 55.8369 114.634 55.8369 112.609C55.8369 110.585 57.2579 109.427 58.6986 108.672C59.9547 108.013 60.9528 110.585 60.9528 112.609Z" fill="#FFD199"/>
<path d="M61.6813 104.857C61.6813 107.184 60.0605 108.405 58.4889 108.819C56.4904 109.344 55.8032 107.184 55.8032 104.857C55.8032 102.531 57.2234 100.35 58.8466 100.35C60.4698 100.35 61.6813 102.531 61.6813 104.857Z" fill="#FFD199"/>
<path d="M61.0311 97.4747C60.6418 99.7667 58.8402 100.689 57.2224 100.823C55.1651 100.994 54.8496 98.7459 55.239 96.4539C55.6283 94.1619 57.3928 92.2591 58.9922 92.541C60.5916 92.823 61.4204 95.1827 61.0311 97.4747Z" fill="#FFD199"/>
<g opacity="0.6">
<path d="M124.392 100.505C123.185 100.505 122.211 101.498 122.211 102.727C122.211 103.953 123.185 104.948 124.392 104.948C125.596 104.948 126.572 103.953 126.572 102.727C126.572 101.498 125.596 100.505 124.392 100.505ZM124.392 103.892C123.76 103.892 123.248 103.37 123.248 102.727C123.248 102.083 123.76 101.562 124.392 101.562C125.023 101.562 125.535 102.083 125.535 102.727C125.535 103.37 125.023 103.892 124.392 103.892Z" fill="white"/>
<path d="M54.5493 127.543C52.9207 127.543 51.6055 128.883 51.6055 130.542C51.6055 132.197 52.9207 133.54 54.5493 133.54C56.1746 133.54 57.4925 132.197 57.4925 130.542C57.4925 128.883 56.1746 127.543 54.5493 127.543ZM54.5493 132.429C53.5266 132.429 52.6968 131.583 52.6968 130.542C52.6968 129.5 53.5266 128.655 54.5493 128.655C55.5721 128.655 56.4011 129.5 56.4011 130.542C56.4011 131.583 55.5721 132.429 54.5493 132.429Z" fill="white"/>
<path d="M94.3385 38.0932L94.733 39.1156C94.879 39.4941 95.173 39.7936 95.5445 39.9423L96.5482 40.344C96.7366 40.4195 96.7366 40.6911 96.5482 40.7666L95.5445 41.1684C95.173 41.3171 94.879 41.6166 94.733 41.9951L94.3385 43.0174C94.2645 43.2094 93.9978 43.2094 93.9237 43.0174L93.5293 41.9951C93.3833 41.6166 93.0893 41.3171 92.7178 41.1684L91.7141 40.7666C91.5256 40.6911 91.5256 40.4195 91.7141 40.344L92.7178 39.9423C93.0893 39.7936 93.3834 39.4941 93.5294 39.1155L93.9238 38.0932C93.9978 37.9012 94.2645 37.9012 94.3385 38.0932Z" fill="white"/>
<path d="M34.6379 92.6652L35.053 93.7415C35.2067 94.1399 35.5162 94.4551 35.9074 94.6117L36.9639 95.0346C37.1623 95.114 37.1623 95.4 36.9639 95.4794L35.9074 95.9023C35.5163 96.0588 35.2068 96.3741 35.0531 96.7725L34.6379 97.8487C34.5599 98.0507 34.2792 98.0507 34.2013 97.8487L33.7862 96.7725C33.6325 96.3741 33.323 96.0589 32.9318 95.9023L31.8754 95.4794C31.6769 95.4 31.677 95.114 31.8754 95.0346L32.9318 94.6117C33.3229 94.4552 33.6324 94.1399 33.7862 93.7415L34.2013 92.6653C34.2791 92.4631 34.5599 92.4631 34.6379 92.6652Z" fill="white"/>
<path d="M114.19 122.476L114.585 123.498C114.731 123.876 115.025 124.176 115.396 124.325L116.4 124.726C116.588 124.802 116.588 125.073 116.4 125.149L115.396 125.551C115.025 125.699 114.731 125.999 114.585 126.377L114.19 127.4C114.116 127.592 113.849 127.592 113.775 127.4L113.381 126.377C113.235 125.999 112.941 125.699 112.569 125.551L111.566 125.149C111.377 125.073 111.377 124.802 111.566 124.726L112.569 124.325C112.941 124.176 113.235 123.876 113.381 123.498L113.775 122.476C113.849 122.284 114.116 122.284 114.19 122.476Z" fill="white"/>
<path d="M107.913 73.203L108.308 74.2254C108.454 74.6039 108.748 74.9034 109.119 75.0521L110.123 75.4539C110.311 75.5293 110.311 75.801 110.123 75.8764L109.119 76.2781C108.748 76.4268 108.454 76.7264 108.308 77.1048L107.913 78.1272C107.839 78.3191 107.572 78.3191 107.498 78.1272L107.104 77.1048C106.958 76.7264 106.664 76.4268 106.292 76.2781L105.289 75.8764C105.1 75.8009 105.1 75.5292 105.289 75.4539L106.293 75.0521C106.664 74.9034 106.958 74.6039 107.104 74.2254L107.498 73.203C107.573 73.0111 107.839 73.0111 107.913 73.203Z" fill="white"/>
<path d="M50.9153 67.9211L51.3304 68.9972C51.4841 69.3956 51.7936 69.7109 52.1847 69.8675L53.2412 70.2903C53.4396 70.3698 53.4396 70.6557 53.2412 70.7351L52.1847 71.158C51.7936 71.3146 51.4841 71.6298 51.3304 72.0282L50.9153 73.1044C50.8373 73.3065 50.5566 73.3065 50.4787 73.1044L50.0635 72.0282C49.9099 71.6298 49.6004 71.3146 49.2092 71.158L48.1527 70.7351C47.9543 70.6556 47.9543 70.3697 48.1527 70.2903L49.2092 69.8674C49.6003 69.7109 49.9099 69.3956 50.0635 68.9972L50.4787 67.921C50.5566 67.719 50.8374 67.719 50.9153 67.9211Z" fill="white"/>
</g>
</g>
<defs>
<linearGradient id="paint0_linear_3286_6919" x1="107.01" y1="143.293" x2="47.8177" y2="42.6448" gradientUnits="userSpaceOnUse">
<stop stop-color="#CDE8FF"/>
<stop offset="1" stop-color="#E1EFFF"/>
</linearGradient>
<clipPath id="clip0_3286_6919">
<path d="M0 0H141C152.046 0 161 8.95431 161 20V144C161 155.046 152.046 164 141 164H0V0Z" fill="white"/>
</clipPath>
</defs>
</svg>
