<svg width="44" height="44" viewBox="0 0 44 44" fill="none" xmlns="http://www.w3.org/2000/svg">
<rect width="44" height="44" rx="3" fill="#1976D2"/>
<path d="M20.424 22.0812C20.3886 22.0812 19.6476 22.0815 19.3058 22.0811C19.1299 22.081 19.0671 22.0178 19.0671 21.8407C19.0669 21.3859 19.0668 20.931 19.0671 20.4762C19.0672 20.3014 19.1336 20.2347 19.3073 20.2346C19.6491 20.2343 20.3861 20.2344 20.424 20.2344C20.424 20.2033 20.4239 19.5466 20.424 19.2442C20.4242 18.7971 20.504 18.3692 20.7311 17.9774C20.9636 17.5763 21.302 17.3016 21.7357 17.1427C22.0135 17.0409 22.3018 17.0003 22.5966 17.0001C22.9653 16.9998 23.3341 17.0002 23.703 17.0009C23.8615 17.0011 23.9318 17.0712 23.9322 17.2308C23.9328 17.6586 23.9328 18.0865 23.9322 18.5142C23.9319 18.6755 23.8646 18.7403 23.7024 18.7421C23.4002 18.7454 23.0976 18.7434 22.7957 18.7555C22.4907 18.7555 22.3303 18.9045 22.3303 19.2201C22.323 19.554 22.3272 19.8883 22.3272 20.2343C22.3558 20.2343 23.2238 20.2342 23.6294 20.2343C23.8137 20.2343 23.8767 20.2977 23.8767 20.483C23.8767 20.9353 23.8766 21.3878 23.8763 21.8402C23.8761 22.0227 23.817 22.081 23.6316 22.0811C23.2259 22.0814 22.3613 22.0812 22.3235 22.0812V25.7425C22.3235 25.9377 22.2621 26 22.0695 26C21.5999 26 21.1302 26.0001 20.6607 26C20.4905 26 20.4241 25.9338 20.4241 25.7636C20.424 24.5712 20.424 22.1231 20.424 22.0812Z" fill="white"/>
<g clip-path="url(#clip0_3345_5693)">
<path d="M22.7654 10.8512C22.4024 10.8152 22.0716 11.1069 22.0469 11.4789C22.0214 11.8509 22.3026 12.1727 22.6746 12.1974C27.8054 12.5454 31.8254 16.8512 31.8254 21.9999C31.8254 27.4179 27.4184 31.8249 22.0004 31.8249C19.1571 31.8249 16.4549 30.5942 14.5866 28.4484C14.3414 28.1679 13.9146 28.1387 13.6341 28.3824C13.3529 28.6269 13.3236 29.0537 13.5681 29.3349C15.6936 31.7747 18.7664 33.1749 22.0004 33.1749C28.1624 33.1749 33.1754 28.1612 33.1754 21.9999C33.1754 16.1432 28.6026 11.2457 22.7654 10.8512Z" fill="white"/>
<path d="M16.3225 13.8401C16.45 13.8401 16.5775 13.8018 16.69 13.7343C16.69 13.7268 16.6975 13.7268 16.6975 13.7268C17.485 13.2168 18.34 12.8268 19.2325 12.5718C19.5857 12.4668 19.795 12.0851 19.69 11.7318C19.585 11.3876 19.2025 11.1701 18.85 11.2751C17.83 11.5743 16.855 12.0168 15.955 12.5951C15.7667 12.7226 15.6475 12.9326 15.6475 13.1651C15.6475 13.3001 15.685 13.4201 15.7525 13.5326C15.88 13.7276 16.09 13.8401 16.3225 13.8401Z" fill="white"/>
<path d="M12.1744 21.9997C12.1744 21.6247 11.8752 21.3247 11.5002 21.3247C11.1252 21.3247 10.8252 21.6247 10.8252 21.9997C10.8252 23.0572 10.9752 24.0997 11.2602 25.0972C11.2677 25.1122 11.2677 25.1347 11.2759 25.1497V25.1572C11.3652 25.4347 11.6284 25.6297 11.9202 25.6297C11.9877 25.6297 12.0477 25.6222 12.1077 25.6072C12.4009 25.5172 12.6027 25.2547 12.5952 24.9547C12.5952 24.8872 12.5877 24.8272 12.5727 24.7672C12.3102 23.8672 12.1744 22.9372 12.1744 21.9997Z" fill="white"/>
<path d="M13.9976 15.1674C13.7044 14.9499 13.2694 15.0099 13.0519 15.3016C12.4151 16.1574 11.8976 17.0949 11.5301 18.0924C11.5001 18.1674 11.4844 18.2424 11.4844 18.3249C11.4844 18.6024 11.6569 18.8649 11.9194 18.9631C11.9951 18.9841 12.0776 18.9999 12.1601 18.9999C12.4376 18.9999 12.6926 18.8274 12.7901 18.5649C13.1201 17.6874 13.5701 16.8616 14.1326 16.1116C14.3576 15.8124 14.2969 15.3916 13.9976 15.1674Z" fill="white"/>
</g>
<defs>
<clipPath id="clip0_3345_5693">
<rect width="24" height="24" fill="white" transform="translate(10 10)"/>
</clipPath>
</defs>
</svg>
