<svg width="44" height="44" viewBox="0 0 44 44" fill="none" xmlns="http://www.w3.org/2000/svg">
<g clip-path="url(#clip0_3345_5696)">
<path d="M38.5 0H5.5C2.46675 0 0 2.46675 0 5.5V38.5C0 41.5332 2.46675 44 5.5 44H38.5C41.5332 44 44 41.5332 44 38.5V5.5C44 2.46675 41.5332 0 38.5 0Z" fill="#1976D2"/>
<path d="M35.75 22.1C35.75 22.0448 35.7052 22 35.65 22H30.35C30.2948 22 30.25 21.9552 30.25 21.9V16.5C30.25 14.982 31.482 15.125 33 15.125H35.65C35.7052 15.125 35.75 15.0802 35.75 15.025V8.35C35.75 8.29477 35.7052 8.25 35.65 8.25H30.25C25.6933 8.25 22 11.9433 22 16.5V21.9C22 21.9552 21.9552 22 21.9 22H16.6C16.5448 22 16.5 22.0448 16.5 22.1V28.775C16.5 28.8302 16.5448 28.875 16.6 28.875H21.9C21.9552 28.875 22 28.9198 22 28.975V43.9C22 43.9552 22.0448 44 22.1 44H30.15C30.2052 44 30.25 43.9552 30.25 43.9V28.975C30.25 28.9198 30.2948 28.875 30.35 28.875H35.65C35.7052 28.875 35.75 28.8302 35.75 28.775V22.1Z" fill="#FAFAFA"/>
</g>
<defs>
<clipPath id="clip0_3345_5696">
<rect width="44" height="44" fill="white"/>
</clipPath>
</defs>
</svg>
