<svg width="44" height="44" viewBox="0 0 44 44" fill="none" xmlns="http://www.w3.org/2000/svg">
<path d="M19.7047 23.2404C19.6293 23.2404 18.0484 23.2409 17.3193 23.2401C16.9439 23.2399 16.81 23.105 16.81 22.7273C16.8095 21.7569 16.8093 20.7866 16.81 19.8163C16.8103 19.4433 16.9519 19.301 17.3224 19.3008C18.0515 19.3003 19.6238 19.3005 19.7047 19.3005C19.7047 19.2341 19.7044 17.8332 19.7047 17.1881C19.7051 16.2343 19.8753 15.3213 20.3599 14.4854C20.8559 13.6298 21.5779 13.0437 22.5031 12.7049C23.0956 12.4877 23.7107 12.401 24.3395 12.4005C25.1263 12.4001 25.913 12.4008 26.6999 12.4022C27.0381 12.4027 27.1881 12.5522 27.1888 12.8928C27.1903 13.8055 27.1903 14.7182 27.1888 15.6307C27.1883 15.9749 27.0446 16.1131 26.6987 16.1169C26.0539 16.1239 25.4085 16.1196 24.7643 16.1455C24.1137 16.1455 23.7715 16.4633 23.7715 17.1367C23.7559 17.849 23.765 18.5621 23.765 19.3003C23.8259 19.3003 25.6775 19.3001 26.543 19.3003C26.9361 19.3003 27.0705 19.4354 27.0705 19.8307C27.0705 20.7957 27.0703 21.761 27.0695 22.7261C27.0693 23.1156 26.9431 23.2399 26.5475 23.2401C25.6821 23.2406 23.8377 23.2404 23.7571 23.2404V31.0512C23.7571 31.4676 23.626 31.6003 23.2151 31.6003C22.2134 31.6003 21.2114 31.6005 20.2096 31.6003C19.8465 31.6003 19.7049 31.4592 19.7049 31.0961C19.7047 28.5523 19.7047 23.3297 19.7047 23.2404Z" fill="#05549F"/>
</svg>
