<svg id="Layer_1" enable-background="new 0 0 512 512" viewBox="0 0 512 512" xmlns="http://www.w3.org/2000/svg"><g><g><path d="m349.65 0c-10.33 0-18.74 8.4-18.74 18.73v58.1h37.47v-58.1c0-10.33-8.4-18.73-18.73-18.73z"/></g><path d="m300.91 76.83v-58.1c0-10.33-8.4-18.73-18.73-18.73s-18.74 8.4-18.74 18.73v61.85c5.77-2.41 12.1-3.75 18.74-3.75z"/><path d="m177.71 359.83h152.71v44.22h-152.71z"/><path d="m177.71 434.05h152.71v77.95h-152.71z"/><path d="m366.38 106.83h-84.2c-14.784-.142-23.891 16.915-15.62 29.06 3.35 5.06 9.1 8.4 15.62 8.4h60.72v30h-4.5c-6.99 0-13.6 1.62-19.49 4.5h-.01c-8.9 4.36-16.13 11.59-20.49 20.49v.01c-2.89 5.89-4.51 12.52-4.51 19.51h-30c0-16.72 5.54-32.18 14.88-44.63-14.15-.98-26.66-8.03-34.94-18.55-18.215 14.244-46.694 12.359-62.86-3.92-12.828 12.988-35.323 17.472-52.47 9.86v71.58l49.2 51.75v44.94h152.71v-41.06l66.07-60.72v-91.11c0-16.61-13.5-30.11-30.11-30.11z"/><path d="m21.855 322h62.202v30h-62.202z" transform="matrix(.837 -.547 .547 .837 -175.6 83.75)"/><path d="m37.956 21.899h30v62.202h-30z" transform="matrix(.547 -.837 .837 .547 -20.372 68.375)"/><path d="m0 178h59.033v30h-59.033z"/><path d="m444.044 305.899h30v62.202h-30z" transform="matrix(.547 -.837 .837 .547 -74.072 537.195)"/><path d="m427.943 38h62.202v30h-62.202z" transform="matrix(.837 -.547 .547 .837 45.679 259.542)"/><path d="m452.967 178h59.033v30h-59.033z"/><path d="m214.71 135.3c10.422.024 18.771-8.603 18.73-18.74v-70.84c0-10.33-8.4-18.73-18.73-18.73s-18.73 8.4-18.73 18.73v68.53c-.998 11.128 7.381 21.083 18.73 21.05z"/><path d="m147.24 135.3c10.33 0 18.74-8.41 18.74-18.74v-32.61c-1.025-24.835-36.445-24.854-37.47 0v32.61c0 10.33 8.4 18.74 18.73 18.74z"/></g><g/><g/><g/><g/><g/><g/><g/><g/><g/><g/><g/><g/><g/><g/><g/></svg>