<svg width="46" height="46" viewBox="0 0 46 46" fill="none" xmlns="http://www.w3.org/2000/svg">
<g clip-path="url(#clip0_2581_210301)">
<path d="M44.6342 32.689L39.3009 27.3569L33.3688 29.814C32.0402 30.3643 30.851 31.1589 29.8342 32.1757L24.4673 37.5342L32.1484 45.1955L44.6342 32.689Z" fill="#8FB339"/>
<path d="M20.2949 5.91088L30.1881 1.81311C28.8959 0.184371 26.6331 -0.469915 24.617 0.360213L18.9825 2.70812C18.5498 2.88626 18.2164 3.21817 18.0386 3.64489C17.8608 4.0716 17.8598 4.5421 18.0358 4.96952C18.2117 5.39695 18.5436 5.73027 18.9704 5.90805C19.3972 6.08592 19.8675 6.0869 20.2949 5.91088Z" fill="#8FB339"/>
<path d="M8.42611 8.15373L16.6969 11.5796C17.124 11.7565 17.5944 11.7565 18.0215 11.5796C18.4486 11.4027 18.7812 11.0701 18.9581 10.6431C19.3233 9.76146 18.9032 8.74702 18.0216 8.38183L17.9544 8.35402C17.9493 8.3519 9.75075 4.95592 9.75075 4.95592C9.53721 4.86747 9.31282 4.82324 9.08852 4.82324C8.86412 4.82324 8.63982 4.86747 8.4262 4.95592C7.99913 5.13282 7.66651 5.46543 7.48961 5.8925C7.31271 6.31957 7.31271 6.78998 7.48961 7.21714C7.66642 7.64421 7.99904 7.97683 8.42611 8.15373Z" fill="#8FB339"/>
<path d="M7.49925 14.3823L14.3589 17.2237C15.2406 17.5889 16.255 17.1687 16.6201 16.2871C16.9853 15.4055 16.5651 14.3911 15.6835 14.0259C15.6835 14.0258 8.82389 11.1844 8.82389 11.1844C8.39682 11.0075 7.92632 11.0075 7.49925 11.1844C7.07218 11.3613 6.73956 11.694 6.56266 12.121C6.19747 13.0028 6.61766 14.0171 7.49925 14.3823Z" fill="#8FB339"/>
<path d="M6.57235 20.6117L12.021 22.8686C12.448 23.0455 12.9184 23.0455 13.3455 22.8686C13.7726 22.6917 14.1052 22.3591 14.2821 21.9321C14.459 21.505 14.459 21.0346 14.2821 20.6075C14.1052 20.1804 13.7726 19.8478 13.3455 19.6709C13.3455 19.6708 7.89699 17.4139 7.89699 17.4139C7.46992 17.237 6.99942 17.237 6.57244 17.4139C6.14537 17.5908 5.81275 17.9234 5.63585 18.3505C5.45895 18.7776 5.45895 19.248 5.63585 19.6752C5.81266 20.1022 6.14528 20.4348 6.57235 20.6117Z" fill="#8FB339"/>
<path d="M5.64524 26.8408L8.27183 27.9288C9.15343 28.2943 10.1679 27.8738 10.5331 26.9922C10.8982 26.1106 10.4781 25.0962 9.59647 24.731L6.96988 23.6429C6.54272 23.466 6.07231 23.466 5.64533 23.6429C5.21826 23.8198 4.88565 24.1524 4.70866 24.5795C4.34347 25.4612 4.76365 26.4756 5.64524 26.8408Z" fill="#8FB339"/>
<path d="M13.0463 45.1949L27.9621 30.3024C29.2254 29.0391 30.7037 28.0513 32.3553 27.3673L39.5499 24.3874C39.9769 24.2105 40.3096 23.8778 40.4865 23.4508C40.6634 23.0237 40.6634 22.5533 40.4865 22.1261C40.1213 21.2444 39.1067 20.8242 38.2251 21.1895L34.22 22.8485L33.2066 20.4018L37.2118 18.7429C37.2127 18.7425 38.6229 18.1584 38.6229 18.1584C39.05 17.9815 39.3826 17.6489 39.5596 17.2217C39.7365 16.7946 39.7365 16.3242 39.5596 15.8971C39.3827 15.47 39.0501 15.1374 38.6229 14.9604C38.1958 14.7836 37.7254 14.7835 37.2983 14.9604L31.882 17.2039L30.8687 14.7572L36.285 12.5137C36.286 12.5133 37.6961 11.9293 37.6961 11.9293C38.1232 11.7524 38.4558 11.4197 38.6328 10.9926C38.8097 10.5655 38.8097 10.0951 38.6328 9.66794C38.4559 9.24087 38.1233 8.90826 37.6962 8.73127C37.2692 8.55445 36.7989 8.55437 36.3718 8.73127L29.5442 11.5594L28.5308 9.1127L35.3582 6.28475C35.3586 6.28458 36.7693 5.7002 36.7693 5.7002C37.1964 5.5233 37.529 5.19069 37.7059 4.76362C37.8828 4.33655 37.8828 3.86614 37.7059 3.43898C37.529 3.01191 37.1964 2.67929 36.7692 2.5023C36.3422 2.3254 35.8718 2.3254 35.4446 2.5023L21.4073 8.31664C21.8321 9.35007 21.8652 10.5448 21.4048 11.6561C20.9643 12.7197 20.1416 13.5508 19.0856 14.0036C19.4941 15.0273 19.521 16.2044 19.0669 17.3007C18.6128 18.397 17.7617 19.211 16.7489 19.646C17.1752 20.7128 17.1692 21.882 16.7288 22.9453C16.2812 24.026 15.4396 24.8676 14.359 25.3151C13.9993 25.4641 13.6274 25.5624 13.2516 25.6122C13.3829 26.3941 13.3048 27.2204 12.9796 28.0054C12.2818 29.6899 10.6474 30.7085 8.92834 30.7086C8.3709 30.7086 7.80462 30.6015 7.25838 30.3752L4.63179 29.2873C4.47581 29.2226 4.32627 29.1492 4.18194 29.0692L0.561035 32.689L13.0463 45.1949Z" fill="#8FB339"/>
</g>
<defs>
<clipPath id="clip0_2581_210301">
<rect width="45.1955" height="45.1955" fill="white"/>
</clipPath>
</defs>
</svg>
