<svg width="46" height="46" viewBox="0 0 46 46" fill="none" xmlns="http://www.w3.org/2000/svg">
<g clip-path="url(#clip0_2581_210310)">
<path d="M14.2249 30.9836H30.9709C31.3632 30.16 31.6379 29.2702 31.7722 28.3354H13.4236C13.5579 29.2702 13.8326 30.16 14.2249 30.9836Z" fill="#FB8B24"/>
<path d="M22.5978 36.28C25.1174 36.28 27.4051 35.269 29.0774 33.6318H16.1182C17.7905 35.269 20.0782 36.28 22.5978 36.28Z" fill="#FB8B24"/>
<path d="M5.27297 28.2684C6.06416 27.4773 7.00267 24.7611 7.65059 22.6219C7.74513 22.3097 7.66065 21.9725 7.43009 21.7419C7.19952 21.5114 6.86214 21.4269 6.55028 21.5215C4.41108 22.1694 1.69494 23.1079 0.903668 23.8991C-0.300897 25.1038 -0.300897 27.0638 0.903668 28.2684C1.50595 28.8707 2.29714 29.1719 3.08832 29.1719C3.87951 29.1719 4.6706 28.8707 5.27297 28.2684Z" fill="#FB8B24"/>
<path d="M44.2921 23.8992C43.5009 23.108 40.7848 22.1695 38.6455 21.5216C38.3335 21.4268 37.9962 21.5114 37.7657 21.742C37.5351 21.9725 37.4506 22.3097 37.5452 22.622C38.1931 24.7612 39.1316 27.4773 39.9228 28.2685C40.5251 28.8708 41.3162 29.172 42.1074 29.172C42.8986 29.172 43.6898 28.8708 44.2921 28.2685C45.4966 27.0638 45.4966 25.1038 44.2921 23.8992Z" fill="#FB8B24"/>
<path d="M38.0502 30.141C37.3447 29.4355 36.4319 28.0816 35.0106 23.3895C34.6324 22.1407 34.9706 20.7918 35.8933 19.8692C36.7966 18.9507 38.1855 18.6072 39.4148 18.9876C42.5551 19.9387 44.1987 20.662 45.1546 21.2481C44.831 15.7197 42.5253 10.5672 38.5769 6.61875C34.3086 2.35061 28.6339 0 22.5978 0C16.5617 0 10.887 2.35061 6.61872 6.61866C2.6703 10.5671 0.364534 15.7196 0.0410156 21.248C0.997005 20.6619 2.64099 19.9385 5.78234 18.9869C7.01038 18.6073 8.3997 18.9511 9.3022 19.8691C10.2249 20.7916 10.5631 22.1405 10.1848 23.3894C8.76365 28.0814 7.85083 29.4353 7.14527 30.1408C6.06243 31.2235 4.62165 31.8198 3.08809 31.8198C2.68398 31.8198 2.28666 31.7773 1.9003 31.6965C3.01509 34.2302 4.60267 36.5604 6.61872 38.5765C10.887 42.8449 16.5617 45.1955 22.5978 45.1955C28.6339 45.1955 34.3086 42.8449 38.5769 38.5768C40.593 36.5607 42.1806 34.2304 43.2953 31.6968C42.9089 31.7775 42.5116 31.8201 42.1075 31.8201C40.5739 31.8201 39.1331 31.2237 38.0502 30.141ZM27.9824 14.4767L31.5133 11.8285C32.0983 11.3897 32.9282 11.5083 33.367 12.0933C33.8058 12.6783 33.6872 13.5082 33.1022 13.947L30.9837 15.5359L33.1022 17.1248C33.6872 17.5636 33.8058 18.3936 33.367 18.9786C32.9282 19.5635 32.0983 19.6822 31.5133 19.2434L27.9824 16.5952C27.2762 16.0656 27.2762 15.0063 27.9824 14.4767ZM12.0934 13.947C11.5084 13.5082 11.3898 12.6783 11.8286 12.0933C12.2674 11.5083 13.0973 11.3897 13.6823 11.8285L17.2132 14.4767C17.9193 15.0063 17.9193 16.0656 17.2132 16.5952L13.6823 19.2434C13.0973 19.6822 12.2674 19.5635 11.8286 18.9786C11.3898 18.3936 11.5084 17.5636 12.0934 17.1248L14.2119 15.5359L12.0934 13.947ZM22.5978 38.9281C16.0269 38.9281 10.681 33.5823 10.681 27.0114C10.681 26.2801 11.2739 25.6873 12.0051 25.6873H33.1905C33.9217 25.6873 34.5146 26.2801 34.5146 27.0114C34.5146 33.5823 29.1687 38.9281 22.5978 38.9281Z" fill="#FB8B24"/>
</g>
<defs>
<clipPath id="clip0_2581_210310">
<rect width="45.1955" height="45.1955" fill="white"/>
</clipPath>
</defs>
</svg>
