<svg width="16" height="16" viewBox="0 0 16 16" fill="none" xmlns="http://www.w3.org/2000/svg">
<path d="M5.74391 1.04004C3.96791 1.66404 2.43191 3.00804 1.56791 4.68804C1.27991 5.26404 1.03991 5.88804 0.943907 6.56004C0.607907 8.14404 0.847907 9.87204 1.56791 11.312C2.04791 12.272 2.71991 13.088 3.58391 13.76C4.35191 14.384 5.26391 14.864 6.27191 15.104C7.51991 15.44 8.81591 15.44 10.0159 15.152C11.1199 14.912 12.1759 14.384 13.0399 13.568C13.9519 12.752 14.5759 11.696 14.9119 10.496C15.2959 9.24804 15.3439 7.90404 15.1039 6.60804C12.7999 6.60804 10.4959 6.60804 8.19191 6.60804V9.48804H12.1759C12.0319 10.4 11.4559 11.264 10.6879 11.744C10.2079 12.08 9.63191 12.272 9.05591 12.368C8.47991 12.464 7.85591 12.464 7.27991 12.368C6.70391 12.272 6.12791 11.984 5.64791 11.648C4.87991 11.12 4.25591 10.304 3.96791 9.39204C3.63191 8.48004 3.63191 7.47204 3.96791 6.51204C4.20791 5.88804 4.54391 5.26404 5.02391 4.78404C5.59991 4.16004 6.36791 3.72804 7.23191 3.58404C7.95191 3.44004 8.67191 3.44004 9.39191 3.68004C9.96791 3.87204 10.5439 4.20804 10.9759 4.59204C11.4079 4.16004 11.8879 3.68004 12.3199 3.24804C12.5599 3.00804 12.7999 2.76804 13.0399 2.52804C12.3679 1.90404 11.5519 1.37604 10.6879 1.04004C9.10391 0.512043 7.32791 0.512043 5.74391 1.04004Z" fill="white"/>
</svg>
