<svg width="76" height="77" viewBox="0 0 76 77" fill="none" xmlns="http://www.w3.org/2000/svg">
<path d="M26.3438 2.04014C17.1678 5.26414 9.23176 12.2081 4.76776 20.8881C3.27976 23.8641 2.03976 27.0881 1.54376 30.5601C-0.192237 38.7441 1.04776 47.6721 4.76776 55.1121C7.24776 60.0721 10.7198 64.2881 15.1838 67.7601C19.1518 70.9841 23.8638 73.4641 29.0718 74.7041C35.5198 76.4401 42.2158 76.4402 48.4158 74.9522C54.1198 73.7122 59.5758 70.9841 64.0398 66.7681C68.7518 62.5521 71.9758 57.0961 73.7118 50.8961C75.6958 44.4482 75.9438 37.5041 74.7038 30.8081C62.7998 30.8081 50.8958 30.8081 38.9918 30.8081V45.6881H59.5758C58.8318 50.4002 55.8558 54.8641 51.8878 57.3441C49.4078 59.0801 46.4318 60.0721 43.4558 60.5681C40.4798 61.0641 37.2558 61.0641 34.2798 60.5681C31.3038 60.0721 28.3278 58.5841 25.8478 56.8481C21.8798 54.1201 18.6558 49.9041 17.1678 45.1921C15.4318 40.4801 15.4318 35.2721 17.1678 30.3121C18.4078 27.0881 20.1438 23.8641 22.6238 21.3841C25.5998 18.1601 29.5678 15.9281 34.0318 15.1841C37.7518 14.4401 41.4718 14.4401 45.1918 15.6801C48.1678 16.6721 51.1438 18.4081 53.3758 20.3921C55.6078 18.1601 58.0878 15.6801 60.3198 13.4481C61.5598 12.2081 62.7998 10.9681 64.0398 9.72814C60.5678 6.50414 56.3518 3.77614 51.8878 2.04014C43.7038 -0.687859 34.5278 -0.687859 26.3438 2.04014Z" fill="white"/>
<path d="M26.3436 2.03994C34.5276 -0.688064 43.7036 -0.688063 51.8876 2.28794C56.3516 4.02394 60.5676 6.50394 64.0396 9.97594C62.7996 11.2159 61.5596 12.4559 60.3196 13.6959C58.0876 15.9279 55.6076 18.4079 53.3756 20.6399C51.1436 18.4079 48.1676 16.6719 45.1916 15.9279C41.7196 14.9359 37.7516 14.6879 34.0316 15.4319C29.8156 16.4239 25.8476 18.6559 22.6236 21.6319C20.1436 24.1119 18.1596 27.3359 17.1676 30.5599C12.9516 27.3359 8.98358 24.1119 4.76758 20.8879C9.23158 12.2079 17.1676 5.26394 26.3436 2.03994Z" fill="#EA4335"/>
<path d="M1.54376 30.5602C2.28776 27.3362 3.27976 24.1122 4.76776 20.8882C8.98376 24.1122 12.9518 27.3362 17.1678 30.5602C15.4318 35.2722 15.4318 40.4802 17.1678 45.4402C12.9518 48.6642 8.98376 51.8882 4.76776 55.1122C1.04776 47.4242 -0.192237 38.7442 1.54376 30.5602Z" fill="#FBBC05"/>
<path d="M38.7437 30.8081H74.4557C75.6957 37.5041 75.4477 44.4481 73.4637 50.8961C71.7277 56.8481 68.5037 62.3041 63.7917 66.7681C59.8237 63.5441 55.8557 60.5681 51.6397 57.3441C55.6077 54.6161 58.3357 50.4001 59.3277 45.6881C52.3837 45.6881 45.4397 45.6881 38.7437 45.6881C38.7437 40.7281 38.7437 35.7681 38.7437 30.8081Z" fill="#4285F4"/>
<path d="M4.76758 55.1119C8.98358 51.8879 12.9516 48.6639 17.1676 45.4399C18.6556 50.1519 21.8796 54.3679 25.8476 57.0959C28.3276 58.8319 31.3036 60.0719 34.2796 60.8159C37.2556 61.3119 40.2316 61.3119 43.4556 60.8159C46.4316 60.3199 49.4076 59.0799 51.8876 57.5919C55.8556 60.8159 59.8236 63.7919 64.0396 67.0159C59.5756 70.9839 54.3676 73.7119 48.4156 75.1999C41.9676 76.6879 35.2716 76.6879 29.0716 74.9519C24.1116 73.7119 19.3996 71.2319 15.1836 68.0079C10.9676 64.2879 7.24758 59.8239 4.76758 55.1119Z" fill="#34A853"/>
</svg>
