<?xml version="1.0" encoding="UTF-8" standalone="no"?>
<!-- Created with Inkscape (http://www.inkscape.org/) -->

<svg
   version="1.1"
   id="svg1842"
   xml:space="preserve"
   width="682.66669"
   height="682.66669"
   viewBox="0 0 682.66669 682.66669"
   xmlns="http://www.w3.org/2000/svg"
   xmlns:svg="http://www.w3.org/2000/svg"><defs
     id="defs1846"><clipPath
       clipPathUnits="userSpaceOnUse"
       id="clipPath1856"><path
         d="M 0,512 H 512 V 0 H 0 Z"
         id="path1854" /></clipPath></defs><g
     id="g1848"
     transform="matrix(1.3333333,0,0,-1.3333333,0,682.66667)"><g
       id="g1850"><g
         id="g1852"
         clip-path="url(#clipPath1856)"><g
           id="g1858"
           transform="translate(423.2667,484.0859)"><path
             d="M 0,0 C -17.307,0 -32.683,-8.24 -42.44,-21.004 -52.197,-8.24 -67.573,0 -84.88,0 c -29.491,0 -53.398,-23.907 -53.398,-53.397 0,-8.473 2.519,-17.037 7.959,-26.379 14.753,5.316 30.464,8.091 46.204,8.091 36.311,0 73.182,-14.734 99.867,-43.72 4.003,4.113 8.042,8.353 12.059,12.692 17.799,19.222 25.587,34.408 25.587,49.316 C 53.398,-23.907 29.491,0 0,0"
             style="fill:#000000;fill-opacity:1;fill-rule:nonzero;stroke:none"
             id="path1860" /></g><g
           id="g1862"
           transform="translate(146.5421,410.2583)"><path
             d="m 0,0 c -1.875,20.835 -19.375,37.166 -40.698,37.166 -13.247,0 -25.017,-6.307 -32.485,-16.077 -7.469,9.77 -19.239,16.077 -32.486,16.077 -22.574,0 -40.873,-18.3 -40.873,-40.873 0,-11.411 5.961,-23.035 19.585,-37.748 10.46,-11.296 21.118,-21.751 30.166,-30.251 6.384,12.406 14.723,23.883 24.873,34.033 C -52.044,-17.799 -27.098,-4.843 0,0"
             style="fill:#000000;fill-opacity:1;fill-rule:nonzero;stroke:none"
             id="path1864" /></g><g
           id="g1866"
           transform="translate(301.7658,86.8447)"><path
             d="m 0,0 c -9.474,10.791 -16.588,20.866 -21.654,30.657 -6.812,13.165 -10.123,26.01 -10.123,39.27 0,49.109 39.953,89.063 89.063,89.063 13.908,0 27.789,-3.303 40.143,-9.552 2.32,-1.173 4.588,-2.451 6.8,-3.828 2.21,1.377 4.479,2.655 6.799,3.828 8.258,4.177 17.2,7.03 26.375,8.468 4.008,10.853 5.925,21.316 5.925,31.709 0,58.51 -47.432,105.942 -105.942,105.942 -34.337,0 -64.843,-16.349 -84.201,-41.672 -19.359,25.323 -49.865,41.672 -84.202,41.672 -58.509,0 -105.941,-47.432 -105.941,-105.942 0,-16.895 5.052,-33.974 15.959,-52.62 10.034,-0.231 19.675,-2.599 28.375,-6.892 9.163,4.522 19.363,6.937 29.974,6.937 37.337,0 67.713,-30.375 67.713,-67.712 0,-10.1 -2.583,-20.214 -7.677,-30.058 -3.176,-6.138 -7.411,-12.359 -12.844,-18.865 37.313,-35.447 65.901,-59.613 68.643,-61.922 C -44.639,-39.685 -26.18,-24.083 0,0"
             style="fill:#000000;fill-opacity:1;fill-rule:nonzero;stroke:none"
             id="path1868" /></g><g
           id="g1870"
           transform="translate(158.7576,121.3428)"><path
             d="m 0,0 c 12.571,13.576 18.071,24.301 18.071,34.83 0,20.827 -16.885,37.712 -37.713,37.712 -12.223,0 -23.082,-5.819 -29.974,-14.834 -6.891,9.015 -17.75,14.834 -29.973,14.834 -20.828,0 -37.713,-16.885 -37.713,-37.712 0,-10.529 5.5,-21.254 18.071,-34.83 23.481,-25.359 48.071,-46.147 49.615,-47.448 C -48.071,-46.147 -23.482,-25.359 0,0"
             style="fill:#000000;fill-opacity:1;fill-rule:nonzero;stroke:none"
             id="path1872" /></g><g
           id="g1874"
           transform="translate(405.9943,27.9141)"><path
             d="m 0,0 c 2.419,2.036 40.929,34.593 77.705,74.31 19.687,21.262 28.301,38.059 28.301,54.547 0,32.62 -26.444,59.063 -59.063,59.063 -19.143,0 -36.15,-9.114 -46.943,-23.232 -10.793,14.118 -27.8,23.232 -46.943,23.232 -32.619,0 -59.063,-26.443 -59.063,-59.063 0,-16.488 8.614,-33.285 28.301,-54.547 C -40.929,34.593 -2.419,2.036 0,0"
             style="fill:#000000;fill-opacity:1;fill-rule:nonzero;stroke:none"
             id="path1876" /></g></g></g></g></svg>
