<svg width="18" height="18" viewBox="0 0 18 18" fill="none" xmlns="http://www.w3.org/2000/svg">
<g clip-path="url(#clip0_2579_209858)">
<path d="M0.96075 0.164043C0.741375 -0.055332 0.38475 -0.055332 0.165375 0.164043C-0.054 0.383418 -0.054 0.740043 0.165375 0.959418L4.15462 4.94979C2.808 5.81942 1.4625 7.02992 0.135 8.62854C-0.045 8.83104 -0.045 9.13479 0.135 9.34854C3.0375 12.8473 6.03 14.6248 9 14.6248C10.2758 14.6248 11.5515 14.2749 12.8273 13.6224L17.0404 17.8355C17.1495 17.9447 17.2935 17.9998 17.4375 17.9998C17.5815 17.9998 17.7255 17.9447 17.8358 17.8355C18.0551 17.6162 18.0551 17.2595 17.8358 17.0402L0.96075 0.164043ZM9 12.3748C7.1325 12.3748 5.625 10.8673 5.625 8.99979C5.625 8.27079 5.8635 7.60029 6.255 7.05017L7.0695 7.86467C6.86925 8.19879 6.75 8.58354 6.75 8.99979C6.75 10.2373 7.7625 11.2498 9 11.2498C9.41625 11.2498 9.801 11.1305 10.1351 10.9303L10.9496 11.7448C10.3995 12.1363 9.729 12.3748 9 12.3748ZM8.13375 5.74854L6.255 3.86979C10.1362 2.46354 14.0625 4.04979 17.865 8.62854C18.045 8.83104 18.045 9.13479 17.865 9.34854C16.8525 10.5748 15.8175 11.5873 14.7825 12.3973L12.2513 9.86604C12.33 9.59604 12.375 9.30354 12.375 8.99979C12.375 7.13229 10.8675 5.62479 9 5.62479C8.69625 5.62479 8.40375 5.66979 8.13375 5.74854Z" fill="black"/>
</g>
<defs>
<clipPath id="clip0_2579_209858">
<rect width="18" height="18" fill="white"/>
</clipPath>
</defs>
</svg>
