<svg width="28" height="28" viewBox="0 0 28 28" fill="none" xmlns="http://www.w3.org/2000/svg">
<path d="M22.4766 14.9727V20.6241C22.4766 22.4331 21.0044 23.9053 19.1953 23.9053H16.7344C16.4325 23.9053 16.1875 23.6603 16.1875 23.3585V17.1859C16.1875 15.9795 15.2064 14.9984 14 14.9984C12.7936 14.9984 11.8125 15.9795 11.8125 17.1859V23.3585C11.8125 23.6603 11.5675 23.9053 11.2656 23.9053H8.80469C6.99563 23.9053 5.52344 22.4331 5.52344 20.6241V14.9727C4.5943 14.8212 3.88281 14.0129 3.88281 13.0417C3.88281 12.4937 4.11469 11.9676 4.51883 11.5979L11.7857 4.95393C12.3922 4.39939 13.178 4.09424 14 4.09424C14.822 4.09424 15.6078 4.39939 16.2143 4.95393L23.4812 11.5979C23.8853 11.9676 24.1172 12.4937 24.1172 13.0417C24.1172 14.0129 23.4057 14.8212 22.4766 14.9727ZM23.5703 13.0417C23.5703 13.8199 22.9392 14.451 22.161 14.451H21.9297V20.6235C21.9297 22.1335 20.7052 23.3579 19.1953 23.3579H16.7344V17.1853C16.7344 15.6754 15.5099 14.451 14 14.451C12.4901 14.451 11.2656 15.6754 11.2656 17.1853V23.3579H8.80469C7.29477 23.3579 6.07031 22.1335 6.07031 20.6235V14.451H5.83898C5.06078 14.451 4.42969 13.8199 4.42969 13.0417C4.42969 12.6457 4.59594 12.2684 4.88797 12.0015L12.1548 5.35752C13.1994 4.40268 14.8006 4.40268 15.8452 5.35752L23.112 12.0015C23.4041 12.2684 23.5703 12.6463 23.5703 13.0417Z" fill="#2897FF"/>
</svg>
