<svg width="28" height="28" viewBox="0 0 28 28" fill="none" xmlns="http://www.w3.org/2000/svg">
<mask id="path-1-inside-1_2574_209032" fill="white">
<path d="M22.4766 14.9727V20.6241C22.4766 22.4331 21.0044 23.9053 19.1953 23.9053H16.7344C16.4325 23.9053 16.1875 23.6603 16.1875 23.3585V17.1859C16.1875 15.9795 15.2064 14.9984 14 14.9984C12.7936 14.9984 11.8125 15.9795 11.8125 17.1859V23.3585C11.8125 23.6603 11.5675 23.9053 11.2656 23.9053H8.80469C6.99563 23.9053 5.52344 22.4331 5.52344 20.6241V14.9727C4.5943 14.8212 3.88281 14.0129 3.88281 13.0417C3.88281 12.4937 4.11469 11.9676 4.51883 11.5979L11.7857 4.95393C12.3922 4.39939 13.178 4.09424 14 4.09424C14.822 4.09424 15.6078 4.39939 16.2143 4.95393L23.4812 11.5979C23.8853 11.9676 24.1172 12.4937 24.1172 13.0417C24.1172 14.0129 23.4057 14.8212 22.4766 14.9727ZM23.5703 13.0417C23.5703 13.8199 22.9392 14.451 22.161 14.451H21.9297V20.6235C21.9297 22.1335 20.7052 23.3579 19.1953 23.3579H16.7344V17.1853C16.7344 15.6754 15.5099 14.451 14 14.451C12.4901 14.451 11.2656 15.6754 11.2656 17.1853V23.3579H8.80469C7.29477 23.3579 6.07031 22.1335 6.07031 20.6235V14.451H5.83898C5.06078 14.451 4.42969 13.8199 4.42969 13.0417C4.42969 12.6457 4.59594 12.2684 4.88797 12.0015L12.1548 5.35752C13.1994 4.40268 14.8006 4.40268 15.8452 5.35752L23.112 12.0015C23.4041 12.2684 23.5703 12.6463 23.5703 13.0417Z"/>
</mask>
<path d="M22.4766 14.9727L22.3157 13.9857L21.4766 14.1225V14.9727H22.4766ZM5.52344 14.9727H6.52344V14.1225L5.68435 13.9857L5.52344 14.9727ZM4.51883 11.5979L3.84406 10.8599L3.84387 10.8601L4.51883 11.5979ZM11.7857 4.95393L12.4605 5.69196L12.4605 5.69194L11.7857 4.95393ZM16.2143 4.95393L15.5395 5.69194L15.5395 5.69196L16.2143 4.95393ZM23.4812 11.5979L24.1561 10.8601L24.1559 10.8599L23.4812 11.5979ZM21.9297 14.451V13.451H20.9297V14.451H21.9297ZM16.7344 23.3579H15.7344V24.3579H16.7344V23.3579ZM11.2656 23.3579V24.3579H12.2656V23.3579H11.2656ZM6.07031 14.451H7.07031V13.451H6.07031V14.451ZM4.88797 12.0015L5.56257 12.7397L5.56274 12.7395L4.88797 12.0015ZM12.1548 5.35752L11.4801 4.61944L11.4801 4.61949L12.1548 5.35752ZM15.8452 5.35752L16.5199 4.61949L16.5199 4.61944L15.8452 5.35752ZM23.112 12.0015L22.4373 12.7395L22.4374 12.7397L23.112 12.0015ZM21.4766 14.9727V20.6241H23.4766V14.9727H21.4766ZM21.4766 20.6241C21.4766 21.8809 20.4521 22.9053 19.1953 22.9053V24.9053C21.5567 24.9053 23.4766 22.9854 23.4766 20.6241H21.4766ZM19.1953 22.9053H16.7344V24.9053H19.1953V22.9053ZM16.7344 22.9053C16.9848 22.9053 17.1875 23.108 17.1875 23.3585H15.1875C15.1875 24.2126 15.8802 24.9053 16.7344 24.9053V22.9053ZM17.1875 23.3585V17.1859H15.1875V23.3585H17.1875ZM17.1875 17.1859C17.1875 15.4272 15.7587 13.9984 14 13.9984V15.9984C14.6541 15.9984 15.1875 16.5318 15.1875 17.1859H17.1875ZM14 13.9984C12.2413 13.9984 10.8125 15.4272 10.8125 17.1859H12.8125C12.8125 16.5318 13.3459 15.9984 14 15.9984V13.9984ZM10.8125 17.1859V23.3585H12.8125V17.1859H10.8125ZM10.8125 23.3585C10.8125 23.108 11.0152 22.9053 11.2656 22.9053V24.9053C12.1198 24.9053 12.8125 24.2126 12.8125 23.3585H10.8125ZM11.2656 22.9053H8.80469V24.9053H11.2656V22.9053ZM8.80469 22.9053C7.54791 22.9053 6.52344 21.8809 6.52344 20.6241H4.52344C4.52344 22.9854 6.44334 24.9053 8.80469 24.9053V22.9053ZM6.52344 20.6241V14.9727H4.52344V20.6241H6.52344ZM5.68435 13.9857C5.2305 13.9117 4.88281 13.5142 4.88281 13.0417H2.88281C2.88281 14.5116 3.9581 15.7307 5.36252 15.9596L5.68435 13.9857ZM4.88281 13.0417C4.88281 12.7744 4.99668 12.5161 5.19378 12.3358L3.84387 10.8601C3.2327 11.4191 2.88281 12.2129 2.88281 13.0417H4.88281ZM5.1936 12.3359L12.4605 5.69196L11.1109 4.2159L3.84406 10.8599L5.1936 12.3359ZM12.4605 5.69194C12.8827 5.30593 13.4278 5.09424 14 5.09424V3.09424C12.9283 3.09424 11.9017 3.49286 11.1109 4.21592L12.4605 5.69194ZM14 5.09424C14.5722 5.09424 15.1173 5.30593 15.5395 5.69194L16.8891 4.21592C16.0983 3.49286 15.0717 3.09424 14 3.09424V5.09424ZM15.5395 5.69196L22.8064 12.3359L24.1559 10.8599L16.8891 4.2159L15.5395 5.69196ZM22.8062 12.3358C23.0033 12.5161 23.1172 12.7744 23.1172 13.0417H25.1172C25.1172 12.2129 24.7673 11.4191 24.1561 10.8601L22.8062 12.3358ZM23.1172 13.0417C23.1172 13.5142 22.7695 13.9117 22.3157 13.9857L22.6375 15.9596C24.0419 15.7307 25.1172 14.5116 25.1172 13.0417H23.1172ZM22.5703 13.0417C22.5703 13.2676 22.3869 13.451 22.161 13.451V15.451C23.4915 15.451 24.5703 14.3721 24.5703 13.0417H22.5703ZM22.161 13.451H21.9297V15.451H22.161V13.451ZM20.9297 14.451V20.6235H22.9297V14.451H20.9297ZM20.9297 20.6235C20.9297 21.5812 20.153 22.3579 19.1953 22.3579V24.3579C21.2575 24.3579 22.9297 22.6857 22.9297 20.6235H20.9297ZM19.1953 22.3579H16.7344V24.3579H19.1953V22.3579ZM17.7344 23.3579V17.1853H15.7344V23.3579H17.7344ZM17.7344 17.1853C17.7344 15.1231 16.0622 13.451 14 13.451V15.451C14.9576 15.451 15.7344 16.2277 15.7344 17.1853H17.7344ZM14 13.451C11.9378 13.451 10.2656 15.1231 10.2656 17.1853H12.2656C12.2656 16.2277 13.0424 15.451 14 15.451V13.451ZM10.2656 17.1853V23.3579H12.2656V17.1853H10.2656ZM11.2656 22.3579H8.80469V24.3579H11.2656V22.3579ZM8.80469 22.3579C7.84705 22.3579 7.07031 21.5812 7.07031 20.6235H5.07031C5.07031 22.6857 6.74248 24.3579 8.80469 24.3579V22.3579ZM7.07031 20.6235V14.451H5.07031V20.6235H7.07031ZM6.07031 13.451H5.83898V15.451H6.07031V13.451ZM5.83898 13.451C5.61307 13.451 5.42969 13.2676 5.42969 13.0417H3.42969C3.42969 14.3721 4.5085 15.451 5.83898 15.451V13.451ZM5.42969 13.0417C5.42969 12.9263 5.47805 12.8169 5.56257 12.7397L4.21337 11.2633C3.71382 11.7198 3.42969 12.3652 3.42969 13.0417H5.42969ZM5.56274 12.7395L12.8296 6.09555L11.4801 4.61949L4.2132 11.2635L5.56274 12.7395ZM12.8296 6.0956C13.4921 5.48998 14.5079 5.48998 15.1704 6.0956L16.5199 4.61944C15.0933 3.31537 12.9067 3.31537 11.4801 4.61944L12.8296 6.0956ZM15.1704 6.09555L22.4373 12.7395L23.7868 11.2635L16.5199 4.61949L15.1704 6.09555ZM22.4374 12.7397C22.5218 12.8168 22.5703 12.9266 22.5703 13.0417H24.5703C24.5703 12.3659 24.2863 11.72 23.7866 11.2633L22.4374 12.7397Z" fill="#F4F4F4" fill-opacity="0.5" mask="url(#path-1-inside-1_2574_209032)"/>
</svg>
