<svg width="48" height="48" viewBox="0 0 48 48" fill="none" xmlns="http://www.w3.org/2000/svg">
<rect x="0.5" y="0.5" width="47" height="47" rx="4.5" stroke="#CFCFCF"/>
<g clip-path="url(#clip0_3349_5847)">
<path d="M4.74996 4.99388C1.29229 8.58538 1.99996 12.4005 1.99996 23.9909C1.99996 33.6159 0.320625 43.2647 9.10963 45.5362C11.8541 46.242 36.1715 46.242 38.9123 45.5325C42.5716 44.5884 45.549 41.6202 45.956 36.4447C46.0128 35.7224 46.0128 12.2722 45.9541 11.5352C45.5215 6.02238 42.128 2.84521 37.6565 2.20171C36.6316 2.05321 36.4263 2.00921 31.1683 2.00004C12.5178 2.00921 8.42946 1.17871 4.74996 4.99388Z" fill="url(#paint0_linear_3349_5847)"/>
<path d="M23.9962 7.75494C17.3393 7.75494 11.018 7.16277 8.60349 13.3594C7.60616 15.9188 7.75099 19.2426 7.75099 24.0019C7.75099 28.1783 7.61716 32.1034 8.60349 34.6426C11.0125 40.8429 17.3852 40.2489 23.9925 40.2489C30.367 40.2489 36.9395 40.9126 39.3833 34.6426C40.3825 32.0576 40.2358 28.7833 40.2358 24.0019C40.2358 17.6549 40.586 13.5574 37.5078 10.4811C34.3912 7.36444 30.1763 7.75494 23.9888 7.75494H23.9962ZM22.5405 10.6828C36.4262 10.6608 38.1935 9.11711 37.2182 30.5616C36.8717 38.1461 31.0967 37.3138 23.998 37.3138C11.0547 37.3138 10.6825 36.9434 10.6825 23.9946C10.6825 10.8954 11.7092 10.6901 22.5405 10.6791V10.6828ZM32.6678 13.3796C31.5917 13.3796 30.719 14.2523 30.719 15.3284C30.719 16.4046 31.5917 17.2773 32.6678 17.2773C33.744 17.2773 34.6167 16.4046 34.6167 15.3284C34.6167 14.2523 33.744 13.3796 32.6678 13.3796ZM23.9962 15.6584C19.389 15.6584 15.6545 19.3948 15.6545 24.0019C15.6545 28.6091 19.389 32.3436 23.9962 32.3436C28.6033 32.3436 32.336 28.6091 32.336 24.0019C32.336 19.3948 28.6033 15.6584 23.9962 15.6584ZM23.9962 18.5863C31.1553 18.5863 31.1645 29.4176 23.9962 29.4176C16.8388 29.4176 16.8278 18.5863 23.9962 18.5863Z" fill="white"/>
</g>
<defs>
<linearGradient id="paint0_linear_3349_5847" x1="4.83433" y1="43.1897" x2="45.7277" y2="7.797" gradientUnits="userSpaceOnUse">
<stop stop-color="#FFDD55"/>
<stop offset="0.5" stop-color="#FF543E"/>
<stop offset="1" stop-color="#C837AB"/>
</linearGradient>
<clipPath id="clip0_3349_5847">
<rect width="44" height="44" fill="white" transform="translate(2 2)"/>
</clipPath>
</defs>
</svg>
