<svg id="Capa_1" enable-background="new 0 0 512 512" height="512" viewBox="0 0 512 512" width="512" xmlns="http://www.w3.org/2000/svg"><g><path d="m161.146 351h189.708c4.444-9.33 7.556-19.411 9.078-30h-207.864c1.522 10.589 4.634 20.67 9.078 30z"/><path d="m256 411c28.544 0 54.46-11.453 73.405-30h-146.81c18.945 18.547 44.861 30 73.405 30z"/><path d="m59.733 320.241c8.963-8.963 19.595-39.733 26.935-63.967 1.071-3.537.114-7.357-2.498-9.969-2.612-2.611-6.434-3.569-9.967-2.497-24.234 7.34-55.004 17.972-63.968 26.935-13.646 13.647-13.646 35.851 0 49.498 6.823 6.823 15.786 10.235 24.749 10.235s17.925-3.412 24.749-10.235z"/><path d="m501.766 270.743c-8.963-8.963-39.733-19.595-63.968-26.935-3.534-1.073-7.355-.115-9.967 2.497s-3.569 6.432-2.498 9.969c7.34 24.234 17.972 55.004 26.935 63.967 6.823 6.823 15.786 10.235 24.749 10.235s17.926-3.412 24.749-10.235c13.645-13.647 13.645-35.851 0-49.498z"/><path d="m431.054 341.454c-7.992-7.992-18.333-23.33-34.434-76.484-4.285-14.148-.454-29.429 9.999-39.88 10.233-10.406 25.968-14.297 39.894-9.988 35.575 10.775 54.194 18.969 65.023 25.609-3.665-62.629-29.786-121-74.516-165.73-48.353-48.352-112.64-74.981-181.02-74.981s-132.667 26.629-181.02 74.98c-44.73 44.73-70.851 103.101-74.516 165.73 10.83-6.64 29.454-14.835 65.041-25.615 13.912-4.301 29.651-.406 39.875 9.993 10.453 10.451 14.284 25.732 9.999 39.88-16.1 53.154-26.441 68.492-34.434 76.484-12.267 12.266-28.589 19.021-45.962 19.021-4.578 0-9.079-.482-13.456-1.397 12.629 28.703 30.614 55.101 53.453 77.941 48.353 48.354 112.64 74.983 181.02 74.983s132.667-26.629 181.02-74.98c22.84-22.84 40.825-49.238 53.453-77.941-4.377.915-8.878 1.397-13.456 1.397-17.373 0-33.696-6.756-45.963-19.022zm-114.054-177.454 40-30c6.627-4.971 16.029-3.627 21 3s3.627 16.029-3 21l-24 18 24 18c6.627 4.971 7.971 14.373 3 21s-14.373 7.971-21 3l-40-30c-8-6-8-18 0-24zm-180-6c-6.627-4.971-7.971-14.373-3-21s14.373-7.971 21-3l40 30c8 6 8 18 0 24l-40 30c-6.627 4.971-16.029 3.627-21-3s-3.627-16.029 3-21l24-18zm119 283c-74.439 0-135-60.561-135-135 0-8.284 6.716-15 15-15h240c8.284 0 15 6.716 15 15 0 74.439-60.561 135-135 135z"/></g></svg>