<?xml version="1.0" encoding="UTF-8"?>
<svg xmlns="http://www.w3.org/2000/svg" xmlns:xlink="http://www.w3.org/1999/xlink" version="1.1" id="Capa_1" x="0px" y="0px" viewBox="0 0 512 512" style="enable-background:new 0 0 512 512;" xml:space="preserve" width="512" height="512">
<g>
	<g>
		
			<circle style="fill:none;stroke:#000000;stroke-width:30;stroke-linecap:round;stroke-linejoin:round;stroke-miterlimit:10;" cx="119.975" cy="391.525" r="104.975"/>
		<path style="fill:none;stroke:#000000;stroke-width:30;stroke-linecap:round;stroke-linejoin:round;stroke-miterlimit:10;" d="&#10;&#9;&#9;&#9;M120,286.5h272c57.99,0,105,47.01,105,105v0c0,57.99-47.01,105-105,105H120c-57.99,0-105-47.01-105-105v0&#10;&#9;&#9;&#9;C15,333.51,62.01,286.5,120,286.5z"/>
		
			<circle style="fill:none;stroke:#000000;stroke-width:30;stroke-linecap:round;stroke-linejoin:round;stroke-miterlimit:10;" cx="120.975" cy="391.525" r="30.025"/>
		
			<line style="fill:none;stroke:#000000;stroke-width:30;stroke-linecap:round;stroke-linejoin:round;stroke-miterlimit:10;" x1="120.975" y1="361.5" x2="120.975" y2="331.55"/>
		
			<line style="fill:none;stroke:#000000;stroke-width:30;stroke-linecap:round;stroke-linejoin:round;stroke-miterlimit:10;" x1="99.744" y1="370.294" x2="85.207" y2="355.757"/>
		
			<line style="fill:none;stroke:#000000;stroke-width:30;stroke-linecap:round;stroke-linejoin:round;stroke-miterlimit:10;" x1="90.95" y1="391.525" x2="61" y2="391.525"/>
		
			<line style="fill:none;stroke:#000000;stroke-width:30;stroke-linecap:round;stroke-linejoin:round;stroke-miterlimit:10;" x1="99.744" y1="412.756" x2="85.207" y2="427.293"/>
		
			<line style="fill:none;stroke:#000000;stroke-width:30;stroke-linecap:round;stroke-linejoin:round;stroke-miterlimit:10;" x1="120.975" y1="421.55" x2="120.975" y2="451.5"/>
		
			<line style="fill:none;stroke:#000000;stroke-width:30;stroke-linecap:round;stroke-linejoin:round;stroke-miterlimit:10;" x1="142.206" y1="412.756" x2="156.743" y2="427.293"/>
		
			<line style="fill:none;stroke:#000000;stroke-width:30;stroke-linecap:round;stroke-linejoin:round;stroke-miterlimit:10;" x1="151" y1="391.525" x2="180.95" y2="391.525"/>
		
			<line style="fill:none;stroke:#000000;stroke-width:30;stroke-linecap:round;stroke-linejoin:round;stroke-miterlimit:10;" x1="142.206" y1="370.294" x2="156.743" y2="355.757"/>
	</g>
	
		<circle style="fill:none;stroke:#000000;stroke-width:30;stroke-linecap:round;stroke-linejoin:round;stroke-miterlimit:10;" cx="392.025" cy="120.475" r="104.975"/>
	<path style="fill:none;stroke:#000000;stroke-width:30;stroke-linecap:round;stroke-linejoin:round;stroke-miterlimit:10;" d="&#10;&#9;&#9;M392,225.5H120c-57.99,0-105-47.01-105-105v0c0-57.99,47.01-105,105-105h272c57.99,0,105,47.01,105,105v0&#10;&#9;&#9;C497,178.49,449.99,225.5,392,225.5z"/>
	<path style="fill:none;stroke:#000000;stroke-width:30;stroke-linecap:round;stroke-linejoin:round;stroke-miterlimit:10;" d="&#10;&#9;&#9;M347.03,119.39c24.387,2.439,46.282-18.352,43.92-43.9c24.747-0.707,46.07,19.326,46.07,44.99c0,24.85-20.14,45-45,45&#10;&#9;&#9;C366.698,165.48,346.332,144.52,347.03,119.39z"/>
	
		<line style="fill:none;stroke:#000000;stroke-width:30;stroke-linecap:round;stroke-linejoin:round;stroke-miterlimit:10;" x1="285.95" y1="346.525" x2="285.95" y2="436.5"/>
	
		<line style="fill:none;stroke:#000000;stroke-width:30;stroke-linecap:round;stroke-linejoin:round;stroke-miterlimit:10;" x1="345.95" y1="346.525" x2="345.95" y2="436.5"/>
	
		<line style="fill:none;stroke:#000000;stroke-width:30;stroke-linecap:round;stroke-linejoin:round;stroke-miterlimit:10;" x1="165.95" y1="76.463" x2="165.95" y2="166.438"/>
	
		<line style="fill:none;stroke:#000000;stroke-width:30;stroke-linecap:round;stroke-linejoin:round;stroke-miterlimit:10;" x1="225.95" y1="76.463" x2="225.95" y2="166.438"/>
</g>















</svg>
