<svg width="61" height="61" viewBox="0 0 61 61" fill="none" xmlns="http://www.w3.org/2000/svg">
<g clip-path="url(#clip0_2581_210317)">
<mask id="mask0_2581_210317" style="mask-type:luminance" maskUnits="userSpaceOnUse" x="0" y="0" width="61" height="61">
<path d="M0 0.000133514H60.2606V60.2607H0V0.000133514Z" fill="white"/>
</mask>
<g mask="url(#mask0_2581_210317)">
<path d="M49.8171 3.2854C47.7801 3.2854 45.9704 4.25522 44.822 5.7575C43.6737 4.25522 41.864 3.2854 39.827 3.2854C36.356 3.2854 33.5422 6.09917 33.5422 9.57004C33.5422 10.5673 33.8387 11.5752 34.479 12.6748C36.2154 12.0491 38.0645 11.7225 39.917 11.7225C44.1907 11.7225 48.5303 13.4566 51.671 16.8682C52.1422 16.3841 52.6175 15.885 53.0903 15.3744C55.1852 13.112 56.1018 11.3247 56.1018 9.57004C56.1018 6.09917 53.2881 3.2854 49.8171 3.2854Z" fill="#F71735"/>
<path d="M17.2475 11.9745C17.0268 9.52231 14.9671 7.60021 12.4575 7.60021C10.8983 7.60021 9.51306 8.34252 8.6341 9.49242C7.75502 8.34252 6.36974 7.60021 4.81061 7.60021C2.15373 7.60021 0 9.75405 0 12.4108C0 13.7539 0.70159 15.122 2.30509 16.8536C3.53619 18.1831 4.7906 19.4136 5.85552 20.4141C6.60689 18.9539 7.58837 17.6031 8.78299 16.4085C11.1221 14.0694 14.0581 12.5445 17.2475 11.9745Z" fill="#F71735"/>
<path d="M35.5168 50.0394C34.4018 48.7693 33.5645 47.5835 32.9682 46.4312C32.1665 44.8817 31.7768 43.3699 31.7768 41.8092C31.7768 36.0293 36.4791 31.3268 42.2592 31.3268C43.8961 31.3268 45.5298 31.7156 46.9839 32.451C47.2569 32.5891 47.5239 32.7395 47.7842 32.9016C48.0443 32.7395 48.3114 32.5891 48.5844 32.451C49.5564 31.9594 50.6088 31.6236 51.6887 31.4544C52.1604 30.177 52.386 28.9456 52.386 27.7223C52.386 20.8359 46.8034 15.2533 39.917 15.2533C35.8757 15.2533 32.2852 17.1776 30.0069 20.158C27.7284 17.1776 24.1379 15.2533 20.0966 15.2533C13.2103 15.2533 7.62769 20.8359 7.62769 27.7223C7.62769 29.7108 8.22229 31.721 9.506 33.9155C10.687 33.9427 11.8217 34.2214 12.8456 34.7267C13.9241 34.1945 15.1246 33.9102 16.3735 33.9102C20.7679 33.9102 24.3431 37.4853 24.3431 41.8797C24.3431 43.0684 24.0391 44.2588 23.4395 45.4174C23.0657 46.1399 22.5673 46.872 21.9278 47.6378C26.3194 51.8098 29.6841 54.654 30.0069 54.9258C30.263 54.7102 32.4355 52.8739 35.5168 50.0394Z" fill="#F71735"/>
<path d="M18.6852 45.979C20.1647 44.3812 20.8121 43.1189 20.8121 41.8796C20.8121 39.4284 18.8248 37.4411 16.3734 37.4411C14.9348 37.4411 13.6567 38.1259 12.8456 39.187C12.0345 38.1259 10.7564 37.4411 9.31784 37.4411C6.86646 37.4411 4.87915 39.4284 4.87915 41.8796C4.87915 43.1189 5.52648 44.3812 7.00604 45.979C9.76968 48.9637 12.6638 51.4104 12.8456 51.5635C13.0274 51.4104 15.9214 48.9637 18.6852 45.979Z" fill="#F71735"/>
<path d="M47.7842 56.9751C48.0689 56.7355 52.6014 52.9036 56.9298 48.2291C59.2469 45.7266 60.2607 43.7497 60.2607 41.8091C60.2607 37.9698 57.1483 34.8576 53.3092 34.8576C51.0561 34.8576 49.0545 35.9303 47.7842 37.5919C46.5139 35.9303 44.5122 34.8576 42.2591 34.8576C38.42 34.8576 35.3076 37.9698 35.3076 41.8091C35.3076 43.7497 36.3215 45.7266 38.6385 48.2291C42.967 52.9036 47.4994 56.7355 47.7842 56.9751Z" fill="#F71735"/>
</g>
</g>
<defs>
<clipPath id="clip0_2581_210317">
<rect width="60.2606" height="60.2606" fill="white"/>
</clipPath>
</defs>
</svg>
