<?xml version="1.0" encoding="UTF-8" standalone="no"?>
<!-- Created with Inkscape (http://www.inkscape.org/) -->

<svg
   version="1.1"
   id="svg4323"
   xml:space="preserve"
   width="682.66669"
   height="682.66669"
   viewBox="0 0 682.66669 682.66669"
   xmlns="http://www.w3.org/2000/svg"
   xmlns:svg="http://www.w3.org/2000/svg"><defs
     id="defs4327"><clipPath
       clipPathUnits="userSpaceOnUse"
       id="clipPath4337"><path
         d="M 0,512 H 512 V 0 H 0 Z"
         id="path4335" /></clipPath></defs><g
     id="g4329"
     transform="matrix(1.3333333,0,0,-1.3333333,0,682.66667)"><g
       id="g4331"><g
         id="g4333"
         clip-path="url(#clipPath4337)"><g
           id="g4339"
           transform="translate(198.4263,439.4263)"><path
             d="m 0,0 c 0,31.797 25.777,57.574 57.574,57.574 31.797,0 57.573,-25.777 57.573,-57.574 0,-31.797 -25.776,-57.573 -57.573,-57.573 C 25.777,-57.573 0,-31.797 0,0"
             style="fill:#000000;fill-opacity:1;fill-rule:nonzero;stroke:none"
             id="path4341" /></g><g
           id="g4343"
           transform="translate(198.4263,256)"><path
             d="m 0,0 c 0,31.797 25.777,57.573 57.574,57.573 31.797,0 57.573,-25.776 57.573,-57.573 0,-31.797 -25.776,-57.574 -57.573,-57.574 C 25.777,-57.574 0,-31.797 0,0"
             style="fill:#000000;fill-opacity:1;fill-rule:nonzero;stroke:none"
             id="path4345" /></g><g
           id="g4347"
           transform="translate(198.4263,72.5732)"><path
             d="m 0,0 c 0,31.797 25.777,57.574 57.574,57.574 31.797,0 57.573,-25.777 57.573,-57.574 0,-31.797 -25.776,-57.573 -57.573,-57.573 C 25.777,-57.573 0,-31.797 0,0"
             style="fill:#000000;fill-opacity:1;fill-rule:nonzero;stroke:none"
             id="path4349" /></g><g
           id="g4351"
           transform="translate(198.4263,439.4263)"><path
             d="m 0,0 c 0,31.797 25.777,57.574 57.574,57.574 31.797,0 57.573,-25.777 57.573,-57.574 0,-31.797 -25.776,-57.573 -57.573,-57.573 C 25.777,-57.573 0,-31.797 0,0 Z"
             style="fill:none;stroke:#000000;stroke-width:30;stroke-linecap:butt;stroke-linejoin:miter;stroke-miterlimit:10;stroke-dasharray:none;stroke-opacity:1"
             id="path4353" /></g><g
           id="g4355"
           transform="translate(198.4263,256)"><path
             d="m 0,0 c 0,31.797 25.777,57.573 57.574,57.573 31.797,0 57.573,-25.776 57.573,-57.573 0,-31.797 -25.776,-57.574 -57.573,-57.574 C 25.777,-57.574 0,-31.797 0,0 Z"
             style="fill:none;stroke:#000000;stroke-width:30;stroke-linecap:butt;stroke-linejoin:miter;stroke-miterlimit:10;stroke-dasharray:none;stroke-opacity:1"
             id="path4357" /></g><g
           id="g4359"
           transform="translate(198.4263,72.5732)"><path
             d="m 0,0 c 0,31.797 25.777,57.574 57.574,57.574 31.797,0 57.573,-25.777 57.573,-57.574 0,-31.797 -25.776,-57.573 -57.573,-57.573 C 25.777,-57.573 0,-31.797 0,0 Z"
             style="fill:none;stroke:#000000;stroke-width:30;stroke-linecap:butt;stroke-linejoin:miter;stroke-miterlimit:10;stroke-dasharray:none;stroke-opacity:1"
             id="path4361" /></g></g></g></g></svg>
