<svg width="20" height="22" viewBox="0 0 20 22" fill="none" xmlns="http://www.w3.org/2000/svg">
<path d="M1.93142 0.735447L5.39157 4.1956C5.59857 2.11702 7.35729 0.48837 9.48945 0.48837C11.7604 0.48837 13.6079 2.3359 13.6079 4.60678V10.8655C13.6079 11.3294 13.5296 11.7752 13.3876 12.1916L14.615 13.419C14.8744 12.9053 15.0593 12.3476 15.1526 11.7584C15.2253 11.2981 15.6577 10.9841 16.1178 11.0568C16.5781 11.1296 16.8922 11.5617 16.8194 12.022C16.6712 12.9591 16.3408 13.8539 15.8573 14.6612L19.2616 18.0655C19.5912 18.3951 19.5912 18.9292 19.2616 19.2588C19.0969 19.4235 18.8809 19.5059 18.665 19.5059C18.4491 19.5059 18.2331 19.4236 18.0684 19.2588L14.8227 16.0131C14.6659 16.1757 14.5014 16.3319 14.3291 16.4807C13.138 17.5093 11.6576 18.1289 10.1065 18.2595V19.8242H12.3889C12.8548 19.8242 13.2326 20.202 13.2326 20.668C13.2326 21.1339 12.8548 21.5117 12.3889 21.5117H6.1366C5.67057 21.5117 5.29285 21.1339 5.29285 20.668C5.29285 20.202 5.67057 19.8242 6.1366 19.8242H8.41901V18.2066C7.03428 18.0029 5.72429 17.4086 4.64991 16.4807C3.31672 15.3294 2.43233 13.7459 2.15965 12.0221C2.08688 11.5618 2.40096 11.1297 2.86123 11.0569C3.32164 10.9841 3.75364 11.2982 3.82648 11.7585C4.26298 14.518 6.69755 16.5989 9.48959 16.5989C11.088 16.5989 12.5684 15.9161 13.6247 14.8151L12.491 13.6814C11.7392 14.4822 10.6722 14.984 9.48959 14.984C7.21864 14.984 5.37118 13.1365 5.37118 10.8655C5.37118 10.3996 5.7489 10.0218 6.21493 10.0218C6.68089 10.0218 7.05868 10.3996 7.05868 10.8655C7.05868 12.2059 8.14922 13.2965 9.48966 13.2965C10.207 13.2965 10.8525 12.984 11.2978 12.4882L0.738358 1.92872C0.408804 1.59917 0.408804 1.065 0.738358 0.735447C1.06763 0.405893 1.60201 0.405893 1.93142 0.735447ZM11.9204 4.60671C11.9204 3.26628 10.8299 2.1758 9.48945 2.1758C8.14908 2.1758 7.05854 3.26628 7.05854 4.60671V5.86243L11.9204 10.7243V4.60671Z" fill="black"/>
</svg>
