<svg width="53" height="53" viewBox="0 0 53 53" fill="none" xmlns="http://www.w3.org/2000/svg">
<g clip-path="url(#clip0_2581_210351)">
<path d="M36.194 0C35.1247 0 34.2542 0.869531 34.2542 1.93885V7.95311H38.1329V1.93885C38.1329 0.869531 37.2633 0 36.194 0Z" fill="#519872"/>
<path d="M31.1488 7.95311V1.93885C31.1488 0.869531 30.2792 0 29.2099 0C28.1406 0 27.27 0.869531 27.27 1.93885V8.34129C27.8673 8.09182 28.5226 7.95311 29.2099 7.95311H31.1488Z" fill="#519872"/>
<path d="M18.3958 37.248H34.2036V41.8255H18.3958V37.248Z" fill="#519872"/>
<path d="M18.3958 44.9312H34.2036V53.0002H18.3958V44.9312Z" fill="#519872"/>
<path d="M37.926 11.0587H29.21C27.6796 11.044 26.7369 12.8097 27.5931 14.0668C27.9398 14.5906 28.5351 14.9364 29.21 14.9364H35.4954V18.0418H35.0296C34.3061 18.0418 33.6218 18.2095 33.0121 18.5077H33.0111C32.0898 18.959 31.3414 19.7074 30.89 20.6287V20.6297C30.5909 21.2394 30.4232 21.9258 30.4232 22.6493H27.3177C27.3177 20.9185 27.8912 19.3182 28.858 18.0294C27.3933 17.928 26.0983 17.1982 25.2412 16.1092C23.3557 17.5837 20.4076 17.3886 18.7342 15.7034C17.4063 17.0479 15.0777 17.5121 13.3027 16.7241V24.1337L18.3957 29.4907V34.1427H34.2036V29.8923L41.0429 23.6068V14.1755C41.0429 12.4561 39.6454 11.0587 37.926 11.0587Z" fill="#519872"/>
<path d="M1.94873 35.3311L7.33807 31.809L9.03676 34.4083L3.64742 37.9303L1.94873 35.3311Z" fill="#519872"/>
<path d="M1.93774 5.0293L3.63644 2.43002L9.02578 5.95209L7.32709 8.55136L1.93774 5.0293Z" fill="#519872"/>
<path d="M0 18.4258H6.11084V21.5312H0V18.4258Z" fill="#519872"/>
<path d="M43.9792 34.4561L45.6779 31.8568L51.0673 35.3788L49.3686 37.9781L43.9792 34.4561Z" fill="#519872"/>
<path d="M43.9583 5.92773L49.3476 2.40567L51.0463 5.00494L45.6569 8.52701L43.9583 5.92773Z" fill="#519872"/>
<path d="M46.8889 18.4258H52.9998V21.5312H46.8889V18.4258Z" fill="#519872"/>
<path d="M22.2258 14.0057C23.3046 14.0082 24.1689 13.1152 24.1646 12.0658V4.73279C24.1646 3.66348 23.2951 2.79395 22.2258 2.79395C21.1564 2.79395 20.2869 3.66348 20.2869 4.73279V11.8267C20.1836 12.9786 21.051 14.0091 22.2258 14.0057Z" fill="#519872"/>
<path d="M15.2416 14.0056C16.3109 14.0056 17.1815 13.135 17.1815 12.0657V8.69008C17.0754 6.11927 13.4088 6.1173 13.3027 8.69008V12.0657C13.3027 13.135 14.1723 14.0056 15.2416 14.0056Z" fill="#519872"/>
</g>
<defs>
<clipPath id="clip0_2581_210351">
<rect width="53" height="53" fill="white"/>
</clipPath>
</defs>
</svg>
