<svg width="32" height="32" viewBox="0 0 32 32" fill="none" xmlns="http://www.w3.org/2000/svg">
<path d="M13.8364 4.3667C14.9849 3.3172 16.7073 3.2517 17.9272 4.17041L18.1636 4.3667L28.0142 13.3735C28.3062 13.6404 28.4731 14.0188 28.4731 14.4146C28.473 15.193 27.8414 15.8245 27.063 15.8247H26.2485V24.6919C26.2485 26.4625 24.813 27.8979 23.0425 27.8979H20.2065V20.0308C20.2063 17.7081 18.3223 15.8247 15.9995 15.8247C13.6769 15.8249 11.7937 17.7082 11.7935 20.0308V27.8979H8.95752C7.18692 27.8979 5.75053 26.4625 5.75049 24.6919V15.8247H4.93701C4.1585 15.8245 3.52701 15.1931 3.52686 14.4146C3.52686 14.0675 3.65453 13.7346 3.88232 13.478L3.98584 13.3735L13.8364 4.3667Z" stroke="#F4F4F4" stroke-opacity="0.5"/>
</svg>
