<svg width="32" height="32" viewBox="0 0 32 32" fill="none" xmlns="http://www.w3.org/2000/svg">
<path d="M27.4903 17.0318V24.6926C27.4903 27.1448 25.4947 29.1404 23.0424 29.1404H19.7065C19.2973 29.1404 18.9652 28.8083 18.9652 28.3991V20.0319C18.9652 18.3966 17.6353 17.0667 15.9999 17.0667C14.3646 17.0667 13.0347 18.3966 13.0347 20.0319V28.3991C13.0347 28.8083 12.7026 29.1404 12.2934 29.1404H8.95746C6.5052 29.1404 4.50958 27.1448 4.50958 24.6926V17.0318C3.25009 16.8265 2.28564 15.7308 2.28564 14.4143C2.28564 13.6715 2.59996 12.9583 3.14779 12.4572L12.9984 3.45099C13.8205 2.6993 14.8857 2.28564 15.9999 2.28564C17.1141 2.28564 18.1794 2.6993 19.0015 3.45099L28.8521 12.4572C29.3999 12.9583 29.7142 13.6715 29.7142 14.4143C29.7142 15.7308 28.7498 16.8265 27.4903 17.0318ZM28.9729 14.4143C28.9729 15.4692 28.1174 16.3246 27.0625 16.3246H26.749V24.6918C26.749 26.7386 25.0892 28.3984 23.0424 28.3984H19.7065V20.0312C19.7065 17.9844 18.0467 16.3246 15.9999 16.3246C13.9532 16.3246 12.2934 17.9844 12.2934 20.0312V28.3984H8.95746C6.91069 28.3984 5.2509 26.7386 5.2509 24.6918V16.3246H4.93732C3.88243 16.3246 3.02696 15.4692 3.02696 14.4143C3.02696 13.8776 3.25232 13.366 3.64818 13.0043L13.4987 3.99808C14.9146 2.70375 17.0852 2.70375 18.5011 3.99808L28.3517 13.0043C28.7475 13.366 28.9729 13.8783 28.9729 14.4143Z" fill="#2897FF"/>
</svg>
