<svg width="36" height="36" viewBox="0 0 36 36" fill="none" xmlns="http://www.w3.org/2000/svg">
<path d="M22.233 22.2328C25.4976 18.9682 25.4976 13.6753 22.233 10.4108C18.9685 7.14621 13.6756 7.14621 10.411 10.4108C7.14645 13.6753 7.14645 18.9682 10.411 22.2328C13.6756 25.4973 18.9685 25.4973 22.233 22.2328Z" fill="#2897FF"/>
<path d="M16.0686 6.73145C18.535 6.66855 20.9311 7.55788 22.76 9.21387C24.5888 10.8698 25.7102 13.1656 25.8918 15.626C26.0734 18.0865 25.3016 20.5232 23.7356 22.4297L23.304 22.9551L30.677 30.3281C30.6999 30.351 30.7182 30.3783 30.7307 30.4082C30.7431 30.4379 30.7501 30.4697 30.7502 30.502C30.7503 30.5342 30.7439 30.5668 30.7317 30.5967C30.7196 30.6261 30.7012 30.6531 30.679 30.6758C30.656 30.6987 30.6289 30.7171 30.5989 30.7295C30.5689 30.7419 30.5366 30.748 30.5042 30.748C30.4718 30.748 30.4393 30.7419 30.4094 30.7295C30.3947 30.7234 30.3806 30.7158 30.3674 30.707L30.3293 30.6758L22.9563 23.3027L22.4309 23.7373C20.5288 25.3087 18.0951 26.0877 15.634 25.9131C13.173 25.7385 10.8733 24.624 9.21216 22.7998C7.55102 20.9756 6.65625 18.5818 6.71216 16.1152C6.7681 13.6487 7.77085 11.2978 9.51294 9.55078C11.255 7.80399 13.6024 6.79441 16.0686 6.73145Z" fill="#2897FF" stroke="#2897FF" stroke-width="1.5"/>
</svg>
