<svg width="38" height="38" viewBox="0 0 38 38" fill="none" xmlns="http://www.w3.org/2000/svg">
<path d="M16.9604 7.06348C19.5746 6.99681 22.1148 7.93916 24.0532 9.69434C25.9915 11.4495 27.1801 13.8834 27.3726 16.4912C27.565 19.0991 26.7462 21.6815 25.0864 23.7021L24.6548 24.2275L32.4106 31.9834C32.4388 32.0114 32.4617 32.0444 32.4771 32.0811C32.4923 32.1175 32.5003 32.1568 32.5005 32.1963C32.5006 32.236 32.4922 32.2758 32.4771 32.3125C32.4622 32.3485 32.4408 32.3814 32.4136 32.4092C32.3855 32.4373 32.3516 32.4604 32.3149 32.4756C32.2784 32.4907 32.2392 32.498 32.1997 32.498C32.16 32.498 32.1202 32.4908 32.0835 32.4756C32.0653 32.468 32.0481 32.4582 32.0317 32.4473L31.9858 32.4092L24.7124 25.1357L24.23 24.6543L23.7036 25.0879C21.6876 26.7534 19.1079 27.5796 16.4995 27.3945C13.8914 27.2094 11.4544 26.0279 9.69385 24.0947C7.93323 22.1613 6.98424 19.624 7.04346 17.0098C7.10272 14.3955 8.16579 11.9044 10.0122 10.0527C11.8586 8.20111 14.3464 7.13022 16.9604 7.06348Z" stroke="#F4F4F4" stroke-opacity="0.5" stroke-width="1.5"/>
</svg>
