<svg width="24" height="24" viewBox="0 0 24 24" fill="none" xmlns="http://www.w3.org/2000/svg">
<path fill-rule="evenodd" clip-rule="evenodd" d="M6.59923 22.9371C4.06869 22.9371 2 20.8672 2 18.3365V6.59923C2 4.07005 4.06869 2 6.59923 2H18.3367C20.8672 2 22.9359 4.07005 22.9359 6.59923V18.3367C22.9359 20.8672 20.8672 22.9373 18.3367 22.9373L6.59923 22.9371ZM6.26173 12.8578H12.0781V18.6739C12.0781 18.7773 12.1192 18.8765 12.1923 18.9496C12.2655 19.0227 12.3647 19.0638 12.4681 19.0638C12.5715 19.0638 12.6707 19.0227 12.7438 18.9496C12.8169 18.8765 12.858 18.7773 12.858 18.6739V12.8578H18.6739C18.7773 12.8578 18.8765 12.8167 18.9496 12.7436C19.0228 12.6705 19.0639 12.5713 19.0639 12.4678C19.0639 12.3644 19.0228 12.2652 18.9496 12.1921C18.8765 12.119 18.7773 12.0779 18.6739 12.0779H12.8578V6.26183C12.8578 6.15841 12.8167 6.05922 12.7436 5.98609C12.6705 5.91296 12.5713 5.87187 12.4678 5.87187C12.3644 5.87187 12.2652 5.91296 12.1921 5.98609C12.119 6.05922 12.0779 6.15841 12.0779 6.26183V12.0781H6.26183C6.15841 12.0781 6.05922 12.1192 5.98609 12.1923C5.91296 12.2655 5.87187 12.3647 5.87187 12.4681C5.87187 12.5715 5.91296 12.6707 5.98609 12.7438C6.05922 12.8169 6.15831 12.8578 6.26173 12.8578Z" fill="#2897FF"/>
</svg>
