<?xml version="1.0" encoding="UTF-8"?>
<svg xmlns="http://www.w3.org/2000/svg" xmlns:xlink="http://www.w3.org/1999/xlink" version="1.1" id="Layer_1" x="0px" y="0px" viewBox="0 0 512.92 512.92" style="enable-background:new 0 0 512.92 512.92;" xml:space="preserve" width="512" height="512">
<path style="fill:none;stroke:#000000;stroke-width:40;stroke-linecap:round;stroke-linejoin:round;stroke-miterlimit:10;" d="&#10;&#9;M178,492.46h193c47.436,0,88.345-33.326,97.935-79.783l22.304-108.043c10.247-49.639-27.662-96.174-78.348-96.174H236.622&#10;&#9;c-47.703,0-88.764,33.694-98.076,80.48L106,452.46c-5.941,21.783-24.04,39.991-46.247,39.998C37.885,492.464,20,473.823,20,451.955&#10;&#9;l0-102.495v-229c0-55.228,44.772-100,100-100h66c55.228,0,100,44.772,100,100h101c22.735,0,43.433,8.721,58.932,23 M226,323.46h168"/>















</svg>
