<svg width="44" height="44" viewBox="0 0 44 44" fill="none" xmlns="http://www.w3.org/2000/svg">
<path d="M38.5 1.375H5.5C4.95809 1.37424 4.42135 1.48042 3.92054 1.68745C3.41972 1.89448 2.96469 2.1983 2.58149 2.58149C2.1983 2.96469 1.89448 3.41972 1.68745 3.92054C1.48042 4.42135 1.37424 4.95809 1.375 5.5V38.5C1.37428 39.0419 1.48048 39.5786 1.68753 40.0794C1.89457 40.5802 2.19839 41.0352 2.58157 41.4184C2.96476 41.8016 3.41978 42.1054 3.92058 42.3125C4.42137 42.5195 4.9581 42.6257 5.5 42.625H38.5C39.0419 42.6257 39.5786 42.5195 40.0794 42.3125C40.5802 42.1054 41.0352 41.8016 41.4184 41.4184C41.8016 41.0352 42.1054 40.5802 42.3125 40.0794C42.5195 39.5786 42.6257 39.0419 42.625 38.5V5.5C42.6258 4.95809 42.5196 4.42135 42.3126 3.92054C42.1055 3.41972 41.8017 2.96469 41.4185 2.58149C41.0353 2.1983 40.5803 1.89448 40.0795 1.68745C39.5787 1.48042 39.0419 1.37424 38.5 1.375ZM6.875 22C6.875 21.1842 7.11693 20.3866 7.57019 19.7083C8.02345 19.0299 8.66769 18.5012 9.42143 18.189C10.1752 17.8768 11.0046 17.7951 11.8048 17.9543C12.6049 18.1134 13.3399 18.5063 13.9168 19.0832C14.4937 19.6601 14.8866 20.3951 15.0457 21.1953C15.2049 21.9954 15.1232 22.8248 14.811 23.5786C14.4988 24.3323 13.9701 24.9766 13.2917 25.4298C12.6134 25.8831 11.8159 26.125 11 26.125C10.4581 26.1258 9.92135 26.0196 9.42054 25.8126C8.91972 25.6055 8.46469 25.3017 8.08149 24.9185C7.6983 24.5353 7.39448 24.0803 7.18745 23.5795C6.98042 23.0787 6.87424 22.5419 6.875 22ZM17.875 22C17.875 21.1842 18.1169 20.3866 18.5702 19.7083C19.0235 19.0299 19.6677 18.5012 20.4214 18.189C21.1752 17.8768 22.0046 17.7951 22.8048 17.9543C23.6049 18.1134 24.3399 18.5063 24.9168 19.0832C25.4937 19.6601 25.8866 20.3951 26.0457 21.1953C26.2049 21.9954 26.1232 22.8248 25.811 23.5786C25.4988 24.3323 24.9701 24.9766 24.2917 25.4298C23.6134 25.8831 22.8159 26.125 22 26.125C21.4581 26.1258 20.9213 26.0196 20.4205 25.8126C19.9197 25.6055 19.4647 25.3017 19.0815 24.9185C18.6983 24.5353 18.3945 24.0803 18.1875 23.5795C17.9804 23.0787 17.8742 22.5419 17.875 22ZM33 26.125C32.1842 26.125 31.3866 25.8831 30.7083 25.4298C30.0299 24.9766 29.5012 24.3323 29.189 23.5786C28.8768 22.8248 28.7951 21.9954 28.9543 21.1953C29.1134 20.3951 29.5063 19.6601 30.0832 19.0832C30.6601 18.5063 31.3951 18.1134 32.1953 17.9543C32.9954 17.7951 33.8248 17.8768 34.5786 18.189C35.3323 18.5012 35.9766 19.0299 36.4298 19.7083C36.8831 20.3866 37.125 21.1842 37.125 22C37.1257 22.5419 37.0195 23.0786 36.8125 23.5794C36.6054 24.0802 36.3016 24.5352 35.9184 24.9184C35.5352 25.3016 35.0802 25.6054 34.5794 25.8125C34.0786 26.0195 33.5419 26.1257 33 26.125Z" fill="black"/>
</svg>
