<svg width="45" height="54" viewBox="0 0 45 54" fill="none" xmlns="http://www.w3.org/2000/svg">
<path d="M4.45801 29.0869V20.1372H44.5796V29.0869H4.45801Z" fill="#27AE60"/>
<path d="M4.45801 20.1372V11.1875H44.5796V20.1372H4.45801Z" fill="white"/>
<path d="M4.45801 11.1875V2.23782H44.5796V11.1875H4.45801Z" fill="#F39C12"/>
<path opacity="0.2" d="M1.5603 2.23779H6.01826V29.0868H1.5603V2.23779Z" fill="#3B3C3D"/>
<path d="M0 0H4.90375V53.6981H0V0Z" fill="#464C63"/>
<path d="M28.4193 15.6626C28.4193 16.701 28.0084 17.6969 27.2768 18.4312C26.5453 19.1655 25.5532 19.578 24.5186 19.578C23.4841 19.578 22.4919 19.1655 21.7604 18.4312C21.0289 17.6969 20.6179 16.701 20.6179 15.6626C20.6179 14.6241 21.0289 13.6282 21.7604 12.8939C22.4919 12.1596 23.4841 11.7471 24.5186 11.7471C25.5532 11.7471 26.5453 12.1596 27.2768 12.8939C28.0084 13.6282 28.4193 14.6241 28.4193 15.6626Z" fill="#000088"/>
<path d="M27.932 15.6624C27.932 16.1123 27.8437 16.5578 27.6721 16.9735C27.5006 17.3891 27.2492 17.7668 26.9323 18.085C26.6153 18.4031 26.2391 18.6555 25.825 18.8276C25.4109 18.9998 24.9671 19.0884 24.5188 19.0884C23.6136 19.0884 22.7455 18.7275 22.1054 18.085C21.4653 17.4425 21.1057 16.571 21.1057 15.6624C21.1057 14.7537 21.4653 13.8823 22.1054 13.2398C22.7455 12.5973 23.6136 12.2363 24.5188 12.2363C24.9671 12.2363 25.4109 12.3249 25.825 12.4971C26.2391 12.6693 26.6153 12.9217 26.9323 13.2398C27.2492 13.5579 27.5006 13.9356 27.6721 14.3513C27.8437 14.767 27.932 15.2125 27.932 15.6624Z" fill="white"/>
<path d="M25.2014 15.6627C25.2014 15.8445 25.1295 16.0188 25.0015 16.1473C24.8735 16.2758 24.6998 16.348 24.5188 16.348C24.3378 16.348 24.1641 16.2758 24.0361 16.1473C23.9081 16.0188 23.8362 15.8445 23.8362 15.6627C23.8362 15.481 23.9081 15.3067 24.0361 15.1782C24.1641 15.0497 24.3378 14.9775 24.5188 14.9775C24.6998 14.9775 24.8735 15.0497 25.0015 15.1782C25.1295 15.3067 25.2014 15.481 25.2014 15.6627Z" fill="#000088"/>
<path d="M28.0718 16.1321C28.0659 16.1772 28.0424 16.218 28.0065 16.2457C27.9706 16.2733 27.9252 16.2855 27.8803 16.2796C27.8581 16.2767 27.8367 16.2694 27.8173 16.2581C27.7979 16.2469 27.7808 16.2319 27.7672 16.2141C27.7536 16.1962 27.7435 16.1758 27.7377 16.1541C27.7319 16.1324 27.7305 16.1097 27.7334 16.0874C27.7363 16.0651 27.7436 16.0436 27.7548 16.0241C27.766 16.0046 27.7809 15.9876 27.7987 15.9739C27.8165 15.9602 27.8368 15.9501 27.8584 15.9443C27.8801 15.9385 27.9027 15.937 27.9249 15.9399C27.9697 15.9459 28.0104 15.9695 28.038 16.0055C28.0655 16.0415 28.0777 16.0871 28.0718 16.1321Z" fill="#000088"/>
<path d="M24.5186 19.0887L24.6357 17.0331L24.5186 16.0542L24.4016 17.0331L24.5186 19.0887Z" fill="#000088"/>
<path d="M27.8298 17.0396C27.8212 17.0604 27.8086 17.0793 27.7928 17.0952C27.7769 17.1111 27.7581 17.1237 27.7374 17.1323C27.7167 17.1409 27.6945 17.1453 27.6721 17.1453C27.6497 17.1453 27.6275 17.1409 27.6068 17.1323C27.565 17.1149 27.5318 17.0816 27.5145 17.0396C27.4971 16.9976 27.4971 16.9505 27.5145 16.9085C27.5318 16.8665 27.565 16.8332 27.6068 16.8158C27.6486 16.7984 27.6956 16.7984 27.7374 16.8158C27.7581 16.8244 27.7769 16.837 27.7928 16.8529C27.8086 16.8688 27.8212 16.8877 27.8298 16.9085C27.8384 16.9293 27.8428 16.9515 27.8428 16.974C27.8428 16.9965 27.8384 17.0188 27.8298 17.0396Z" fill="#000088"/>
<path d="M23.6353 18.9721L24.2783 17.0169L24.4177 16.041L24.0523 16.9561L23.6353 18.9721Z" fill="#000088"/>
<path d="M27.3619 17.8527C27.3344 17.8888 27.2937 17.9124 27.2488 17.9183C27.204 17.9242 27.1586 17.912 27.1227 17.8844C27.0868 17.8567 27.0633 17.8159 27.0574 17.7708C27.0515 17.7258 27.0636 17.6802 27.0912 17.6442C27.1187 17.6081 27.1594 17.5845 27.2043 17.5786C27.2492 17.5727 27.2945 17.5849 27.3304 17.6125C27.3664 17.6402 27.3898 17.681 27.3958 17.7261C27.4017 17.7711 27.3895 17.8167 27.3619 17.8527Z" fill="#000088"/>
<path d="M22.8123 18.6299L23.9375 16.9084L24.3238 16.002L23.7349 16.7909L22.8123 18.6299Z" fill="#000088"/>
<path d="M26.7003 18.5167C26.6825 18.5304 26.6623 18.5404 26.6406 18.5462C26.619 18.5521 26.5964 18.5535 26.5742 18.5506C26.5519 18.5477 26.5305 18.5404 26.5111 18.5291C26.4917 18.5179 26.4747 18.5029 26.461 18.4851C26.4335 18.449 26.4213 18.4035 26.4272 18.3584C26.4331 18.3134 26.4566 18.2725 26.4925 18.2449C26.5103 18.2312 26.5306 18.2211 26.5523 18.2153C26.5739 18.2095 26.5965 18.208 26.6187 18.2109C26.6409 18.2139 26.6624 18.2212 26.6818 18.2324C26.7012 18.2437 26.7182 18.2586 26.7318 18.2765C26.7594 18.3125 26.7715 18.3581 26.7656 18.4031C26.7597 18.4482 26.7362 18.489 26.7003 18.5167Z" fill="#000088"/>
<path d="M22.1052 18.0852L23.636 16.7147L24.2429 15.9395L23.4705 16.5486L22.1052 18.0852Z" fill="#000088"/>
<path d="M25.89 18.9863C25.8482 19.0037 25.8012 19.0037 25.7594 18.9863C25.7176 18.9689 25.6844 18.9356 25.667 18.8936C25.6585 18.8728 25.6541 18.8505 25.6541 18.828C25.6541 18.8055 25.6585 18.7833 25.667 18.7625C25.6756 18.7417 25.6882 18.7228 25.704 18.7069C25.7199 18.691 25.7387 18.6784 25.7594 18.6698C25.7801 18.6612 25.8023 18.6567 25.8247 18.6567C25.8471 18.6567 25.8693 18.6612 25.89 18.6698C25.9107 18.6784 25.9295 18.691 25.9454 18.7069C25.9612 18.7228 25.9738 18.7417 25.9824 18.7625C25.991 18.7833 25.9954 18.8055 25.9954 18.828C25.9954 18.8505 25.9909 18.8728 25.9824 18.8936C25.9738 18.9144 25.9612 18.9333 25.9454 18.9492C25.9295 18.9651 25.9107 18.9777 25.89 18.9863Z" fill="#000088"/>
<path d="M21.5627 17.3756L23.3948 16.4496L24.1808 15.8584L23.2777 16.2461L21.5627 17.3756Z" fill="#000088"/>
<path d="M24.9864 19.2293C24.9642 19.2323 24.9416 19.2308 24.9199 19.225C24.8983 19.2191 24.878 19.2091 24.8602 19.1954C24.8424 19.1817 24.8275 19.1646 24.8163 19.1451C24.8051 19.1257 24.7978 19.1041 24.7949 19.0818C24.792 19.0595 24.7935 19.0369 24.7993 19.0151C24.8051 18.9934 24.8151 18.9731 24.8287 18.9552C24.8424 18.9374 24.8594 18.9224 24.8788 18.9111C24.8982 18.8999 24.9196 18.8926 24.9418 18.8896C24.9867 18.8837 25.0321 18.8959 25.068 18.9236C25.1039 18.9512 25.1274 18.9921 25.1333 19.0371C25.1362 19.0594 25.1348 19.0821 25.129 19.1038C25.1232 19.1256 25.1131 19.1459 25.0995 19.1638C25.0859 19.1816 25.0689 19.1966 25.0494 19.2078C25.03 19.2191 25.0086 19.2264 24.9864 19.2293Z" fill="#000088"/>
<path d="M21.2219 16.5495L23.2303 16.131L24.142 15.7642L23.1697 15.9041L21.2219 16.5495Z" fill="#000088"/>
<path d="M24.051 19.2293C24.0061 19.2234 23.9654 19.1998 23.9379 19.1638C23.9103 19.1277 23.8981 19.0822 23.904 19.0371C23.91 18.9921 23.9334 18.9512 23.9694 18.9236C24.0053 18.8959 24.0506 18.8837 24.0955 18.8896C24.1177 18.8926 24.1392 18.8999 24.1586 18.9111C24.178 18.9224 24.195 18.9374 24.2086 18.9552C24.2223 18.9731 24.2323 18.9934 24.2381 19.0151C24.2439 19.0369 24.2454 19.0595 24.2424 19.0818C24.2395 19.1041 24.2322 19.1257 24.221 19.1451C24.2098 19.1646 24.1949 19.1817 24.1771 19.1954C24.1594 19.2091 24.1391 19.2191 24.1174 19.225C24.0958 19.2308 24.0732 19.2323 24.051 19.2293Z" fill="#000088"/>
<path d="M21.1055 15.6629L23.1533 15.7803L24.1285 15.6629L23.1533 15.5454L21.1055 15.6629Z" fill="#000088"/>
<path d="M23.1473 18.9863C23.1266 18.9777 23.1078 18.9651 23.092 18.9492C23.0761 18.9333 23.0636 18.9144 23.055 18.8936C23.0464 18.8728 23.042 18.8505 23.042 18.828C23.042 18.8055 23.0464 18.7833 23.055 18.7625C23.0723 18.7205 23.1055 18.6872 23.1473 18.6698C23.1892 18.6524 23.2361 18.6524 23.278 18.6698C23.2987 18.6784 23.3175 18.691 23.3333 18.7069C23.3492 18.7228 23.3617 18.7417 23.3703 18.7625C23.3789 18.7833 23.3833 18.8055 23.3833 18.828C23.3833 18.8505 23.3789 18.8728 23.3703 18.8936C23.353 18.9356 23.3198 18.9689 23.278 18.9863C23.2361 19.0037 23.1892 19.0037 23.1473 18.9863Z" fill="#000088"/>
<path d="M21.2219 14.7759L23.1697 15.4214L24.142 15.5613L23.2303 15.1945L21.2219 14.7759Z" fill="#000088"/>
<path d="M22.337 18.5167C22.3011 18.489 22.2776 18.4482 22.2717 18.4031C22.2658 18.3581 22.278 18.3125 22.3055 18.2765C22.3192 18.2586 22.3362 18.2437 22.3556 18.2324C22.375 18.2212 22.3964 18.2139 22.4186 18.2109C22.4409 18.208 22.4634 18.2095 22.4851 18.2153C22.5067 18.2211 22.527 18.2312 22.5448 18.2449C22.5626 18.2586 22.5775 18.2756 22.5887 18.2951C22.5999 18.3146 22.6072 18.3361 22.6101 18.3584C22.613 18.3807 22.6116 18.4034 22.6058 18.4251C22.6 18.4468 22.59 18.4672 22.5763 18.4851C22.5627 18.5029 22.5457 18.5179 22.5263 18.5291C22.5068 18.5404 22.4854 18.5477 22.4632 18.5506C22.441 18.5535 22.4184 18.5521 22.3968 18.5462C22.3751 18.5404 22.3548 18.5304 22.337 18.5167Z" fill="#000088"/>
<path d="M21.5627 13.9497L23.2777 15.0792L24.1808 15.467L23.3948 14.8758L21.5627 13.9497Z" fill="#000088"/>
<path d="M21.6754 17.8527C21.6479 17.8167 21.6357 17.7711 21.6416 17.7261C21.6475 17.681 21.671 17.6402 21.7069 17.6125C21.7247 17.5989 21.745 17.5888 21.7666 17.583C21.7883 17.5772 21.8108 17.5757 21.8331 17.5786C21.8553 17.5816 21.8767 17.5889 21.8961 17.6001C21.9155 17.6113 21.9325 17.6263 21.9462 17.6442C21.9737 17.6802 21.9859 17.7258 21.98 17.7708C21.9741 17.8159 21.9506 17.8567 21.9147 17.8844C21.8969 17.898 21.8766 17.9081 21.855 17.9139C21.8333 17.9197 21.8107 17.9212 21.7885 17.9183C21.7663 17.9154 21.7449 17.9081 21.7255 17.8968C21.7061 17.8856 21.689 17.8706 21.6754 17.8527Z" fill="#000088"/>
<path d="M22.1052 13.2402L23.4705 14.7768L24.2429 15.386L23.636 14.6107L22.1052 13.2402Z" fill="#000088"/>
<path d="M21.2078 17.0396C21.1905 16.9976 21.1905 16.9505 21.2078 16.9085C21.2251 16.8665 21.2584 16.8332 21.3002 16.8158C21.3209 16.8072 21.3431 16.8027 21.3655 16.8027C21.3879 16.8027 21.4101 16.8072 21.4308 16.8158C21.4515 16.8244 21.4703 16.837 21.4862 16.8529C21.502 16.8688 21.5146 16.8877 21.5231 16.9085C21.5317 16.9293 21.5361 16.9515 21.5361 16.974C21.5361 16.9965 21.5317 17.0188 21.5231 17.0396C21.5146 17.0604 21.502 17.0793 21.4862 17.0952C21.4703 17.1111 21.4515 17.1237 21.4308 17.1323C21.4101 17.1409 21.3879 17.1453 21.3655 17.1453C21.3431 17.1453 21.3209 17.1409 21.3002 17.1323C21.2795 17.1237 21.2607 17.1111 21.2448 17.0952C21.229 17.0793 21.2164 17.0604 21.2078 17.0396Z" fill="#000088"/>
<path d="M22.8123 12.6958L23.7349 14.5348L24.3238 15.3238L23.9375 14.4173L22.8123 12.6958Z" fill="#000088"/>
<path d="M20.9656 16.1321C20.9626 16.1098 20.9641 16.0872 20.9699 16.0654C20.9757 16.0437 20.9857 16.0233 20.9994 16.0055C21.013 15.9876 21.03 15.9727 21.0494 15.9614C21.0689 15.9502 21.0903 15.9429 21.1125 15.9399C21.1574 15.934 21.2028 15.9462 21.2387 15.9739C21.2746 16.0015 21.2981 16.0424 21.304 16.0874C21.3099 16.1325 21.2977 16.178 21.2702 16.2141C21.2426 16.2501 21.2019 16.2737 21.157 16.2796C21.1348 16.2826 21.1123 16.2811 21.0906 16.2752C21.069 16.2694 21.0487 16.2594 21.0309 16.2457C21.0131 16.232 20.9982 16.2149 20.987 16.1954C20.9758 16.1759 20.9685 16.1544 20.9656 16.1321Z" fill="#000088"/>
<path d="M23.6353 12.3535L24.0523 14.3695L24.4177 15.2846L24.2783 14.3087L23.6353 12.3535Z" fill="#000088"/>
<path d="M20.9656 15.1934C20.9685 15.1711 20.9758 15.1496 20.987 15.1301C20.9982 15.1106 21.0131 15.0935 21.0309 15.0798C21.0487 15.0661 21.069 15.0561 21.0906 15.0503C21.1123 15.0444 21.1348 15.043 21.157 15.0459C21.2019 15.0518 21.2426 15.0754 21.2702 15.1115C21.2977 15.1475 21.3099 15.1931 21.304 15.2381C21.2981 15.2831 21.2746 15.324 21.2387 15.3516C21.2028 15.3793 21.1574 15.3915 21.1125 15.3856C21.0903 15.3826 21.0689 15.3753 21.0494 15.3641C21.03 15.3528 21.013 15.3379 20.9994 15.32C20.9857 15.3022 20.9757 15.2818 20.9699 15.2601C20.9641 15.2383 20.9626 15.2157 20.9656 15.1934Z" fill="#000088"/>
<path d="M24.5186 12.2368L24.4016 14.2924L24.5186 15.2713L24.6357 14.2924L24.5186 12.2368Z" fill="#000088"/>
<path d="M21.2078 14.2859C21.2164 14.2651 21.229 14.2463 21.2448 14.2303C21.2607 14.2144 21.2795 14.2018 21.3002 14.1932C21.3209 14.1846 21.3431 14.1802 21.3655 14.1802C21.3879 14.1802 21.4101 14.1846 21.4308 14.1932C21.4515 14.2018 21.4703 14.2144 21.4862 14.2303C21.502 14.2463 21.5146 14.2651 21.5231 14.2859C21.5317 14.3067 21.5361 14.329 21.5361 14.3515C21.5361 14.374 21.5317 14.3962 21.5231 14.417C21.5146 14.4378 21.502 14.4567 21.4862 14.4726C21.4703 14.4885 21.4515 14.5011 21.4308 14.5097C21.4101 14.5184 21.3879 14.5228 21.3655 14.5228C21.3431 14.5228 21.3209 14.5184 21.3002 14.5097C21.2584 14.4924 21.2251 14.459 21.2078 14.417C21.1905 14.3751 21.1905 14.3279 21.2078 14.2859Z" fill="#000088"/>
<path d="M25.4021 12.3535L24.759 14.3087L24.6196 15.2846L24.9851 14.3695L25.4021 12.3535Z" fill="#000088"/>
<path d="M21.6754 13.4728C21.689 13.4549 21.7061 13.44 21.7255 13.4287C21.7449 13.4175 21.7663 13.4102 21.7885 13.4072C21.8107 13.4043 21.8333 13.4058 21.855 13.4116C21.8766 13.4174 21.8969 13.4275 21.9147 13.4412C21.9506 13.4688 21.9741 13.5097 21.98 13.5547C21.9859 13.5997 21.9737 13.6453 21.9462 13.6813C21.9325 13.6992 21.9155 13.7142 21.8961 13.7254C21.8767 13.7367 21.8553 13.744 21.8331 13.7469C21.8108 13.7498 21.7883 13.7484 21.7666 13.7425C21.745 13.7367 21.7247 13.7267 21.7069 13.713C21.671 13.6853 21.6475 13.6445 21.6416 13.5994C21.6357 13.5544 21.6479 13.5088 21.6754 13.4728Z" fill="#000088"/>
<path d="M26.2252 12.6958L25.0999 14.4173L24.7136 15.3238L25.3026 14.5348L26.2252 12.6958Z" fill="#000088"/>
<path d="M22.337 12.8088C22.3548 12.7951 22.3751 12.7851 22.3968 12.7793C22.4184 12.7735 22.441 12.772 22.4632 12.7749C22.4854 12.7778 22.5068 12.7851 22.5263 12.7964C22.5457 12.8076 22.5627 12.8226 22.5763 12.8405C22.6039 12.8765 22.616 12.9221 22.6101 12.9671C22.6042 13.0121 22.5807 13.053 22.5448 13.0806C22.527 13.0943 22.5067 13.1044 22.4851 13.1102C22.4634 13.116 22.4409 13.1175 22.4186 13.1146C22.3964 13.1116 22.375 13.1043 22.3556 13.0931C22.3362 13.0818 22.3192 13.0669 22.3055 13.049C22.278 13.013 22.2658 12.9674 22.2717 12.9224C22.2776 12.8773 22.3011 12.8365 22.337 12.8088Z" fill="#000088"/>
<path d="M26.932 13.2402L25.4012 14.6107L24.7944 15.386L25.5667 14.7768L26.932 13.2402Z" fill="#000088"/>
<path d="M23.1473 12.3392C23.1892 12.3218 23.2361 12.3218 23.278 12.3392C23.3198 12.3566 23.353 12.3899 23.3703 12.4319C23.3789 12.4527 23.3833 12.475 23.3833 12.4975C23.3833 12.52 23.3789 12.5422 23.3703 12.563C23.3617 12.5838 23.3492 12.6027 23.3333 12.6186C23.3175 12.6345 23.2987 12.6471 23.278 12.6557C23.2361 12.6731 23.1892 12.6731 23.1473 12.6557C23.1055 12.6383 23.0723 12.605 23.055 12.563C23.0464 12.5422 23.042 12.52 23.042 12.4975C23.042 12.475 23.0464 12.4527 23.055 12.4319C23.0636 12.4111 23.0761 12.3923 23.092 12.3763C23.1078 12.3604 23.1266 12.3478 23.1473 12.3392Z" fill="#000088"/>
<path d="M27.4745 13.9497L25.6425 14.8758L24.8564 15.467L25.7595 15.0792L27.4745 13.9497Z" fill="#000088"/>
<path d="M24.051 12.0962C24.0732 12.0933 24.0958 12.0947 24.1174 12.1006C24.1391 12.1064 24.1594 12.1164 24.1771 12.1301C24.1949 12.1438 24.2098 12.1609 24.221 12.1804C24.2322 12.1999 24.2395 12.2214 24.2424 12.2437C24.2454 12.266 24.2439 12.2886 24.2381 12.3104C24.2323 12.3321 24.2223 12.3525 24.2086 12.3703C24.195 12.3882 24.178 12.4031 24.1586 12.4144C24.1392 12.4256 24.1177 12.4329 24.0955 12.4359C24.0506 12.4418 24.0053 12.4296 23.9694 12.4019C23.9334 12.3743 23.91 12.3334 23.904 12.2884C23.8981 12.2433 23.9103 12.1978 23.9379 12.1618C23.9654 12.1257 24.0061 12.1021 24.051 12.0962Z" fill="#000088"/>
<path d="M27.8156 14.7759L25.8072 15.1945L24.8955 15.5613L25.8677 15.4214L27.8156 14.7759Z" fill="#000088"/>
<path d="M24.9864 12.0962C25.0086 12.0991 25.03 12.1064 25.0494 12.1177C25.0689 12.1289 25.0859 12.1439 25.0995 12.1617C25.1131 12.1796 25.1232 12.2 25.129 12.2217C25.1348 12.2434 25.1362 12.2661 25.1333 12.2884C25.1274 12.3334 25.1039 12.3743 25.068 12.4019C25.0321 12.4296 24.9867 12.4418 24.9418 12.4359C24.9196 12.4329 24.8982 12.4256 24.8788 12.4144C24.8594 12.4031 24.8424 12.3882 24.8287 12.3703C24.8151 12.3525 24.8051 12.3321 24.7993 12.3104C24.7935 12.2886 24.792 12.266 24.7949 12.2437C24.7978 12.2214 24.8051 12.1999 24.8163 12.1804C24.8275 12.1609 24.8424 12.1438 24.8602 12.1301C24.878 12.1164 24.8983 12.1064 24.9199 12.1006C24.9416 12.0947 24.9642 12.0933 24.9864 12.0962Z" fill="#000088"/>
<path d="M27.9317 15.6629L25.8839 15.5454L24.9087 15.6629L25.8839 15.7803L27.9317 15.6629Z" fill="#000088"/>
<path d="M25.89 12.3392C25.9107 12.3478 25.9295 12.3604 25.9454 12.3763C25.9612 12.3922 25.9738 12.4111 25.9824 12.4319C25.991 12.4527 25.9954 12.475 25.9954 12.4975C25.9954 12.52 25.991 12.5422 25.9824 12.563C25.9738 12.5838 25.9612 12.6027 25.9454 12.6186C25.9295 12.6345 25.9107 12.6471 25.89 12.6557C25.8693 12.6643 25.8471 12.6688 25.8247 12.6688C25.8023 12.6688 25.7801 12.6643 25.7594 12.6557C25.7176 12.6383 25.6844 12.605 25.667 12.563C25.6497 12.5211 25.6497 12.4739 25.667 12.4319C25.6844 12.3899 25.7176 12.3566 25.7594 12.3392C25.8012 12.3218 25.8482 12.3218 25.89 12.3392Z" fill="#000088"/>
<path d="M27.8156 16.5495L25.8677 15.9041L24.8955 15.7642L25.8072 16.131L27.8156 16.5495Z" fill="#000088"/>
<path d="M26.7003 12.8088C26.7362 12.8365 26.7597 12.8773 26.7656 12.9224C26.7715 12.9674 26.7594 13.013 26.7318 13.049C26.7182 13.0669 26.7012 13.0818 26.6818 13.0931C26.6624 13.1043 26.6409 13.1116 26.6187 13.1146C26.5965 13.1175 26.5739 13.116 26.5523 13.1102C26.5306 13.1044 26.5103 13.0943 26.4925 13.0806C26.4566 13.053 26.4331 13.0121 26.4272 12.9671C26.4213 12.9221 26.4335 12.8765 26.461 12.8405C26.4747 12.8226 26.4917 12.8076 26.5111 12.7964C26.5305 12.7851 26.5519 12.7778 26.5742 12.7749C26.5964 12.772 26.619 12.7735 26.6406 12.7793C26.6623 12.7851 26.6825 12.7951 26.7003 12.8088Z" fill="#000088"/>
<path d="M27.4745 17.3756L25.7595 16.2461L24.8564 15.8584L25.6425 16.4496L27.4745 17.3756Z" fill="#000088"/>
<path d="M27.3619 13.4728C27.3895 13.5088 27.4017 13.5544 27.3958 13.5994C27.3898 13.6445 27.3664 13.6853 27.3304 13.713C27.2945 13.7406 27.2492 13.7528 27.2043 13.7469C27.1594 13.741 27.1187 13.7174 27.0912 13.6813C27.0636 13.6453 27.0515 13.5997 27.0574 13.5547C27.0633 13.5097 27.0868 13.4688 27.1227 13.4412C27.1586 13.4135 27.204 13.4013 27.2488 13.4072C27.2937 13.4132 27.3344 13.4367 27.3619 13.4728Z" fill="#000088"/>
<path d="M26.932 18.0852L25.5667 16.5486L24.7944 15.9395L25.4012 16.7147L26.932 18.0852Z" fill="#000088"/>
<path d="M27.8298 14.2859C27.8384 14.3067 27.8428 14.329 27.8428 14.3515C27.8428 14.374 27.8384 14.3962 27.8298 14.417C27.8212 14.4378 27.8086 14.4567 27.7928 14.4726C27.7769 14.4885 27.7581 14.5011 27.7374 14.5097C27.6956 14.5271 27.6486 14.5271 27.6068 14.5097C27.565 14.4924 27.5318 14.459 27.5145 14.417C27.4971 14.3751 27.4971 14.3279 27.5145 14.2859C27.5318 14.2439 27.565 14.2106 27.6068 14.1932C27.6275 14.1846 27.6497 14.1802 27.6721 14.1802C27.6945 14.1802 27.7167 14.1846 27.7374 14.1932C27.7581 14.2018 27.7769 14.2144 27.7928 14.2303C27.8086 14.2463 27.8212 14.2651 27.8298 14.2859Z" fill="#000088"/>
<path d="M26.2252 18.6299L25.3026 16.7909L24.7136 16.002L25.0999 16.9084L26.2252 18.6299Z" fill="#000088"/>
<path d="M28.0718 15.1934C28.0777 15.2384 28.0655 15.284 28.038 15.32C28.0104 15.3561 27.9697 15.3796 27.9249 15.3856C27.9027 15.3885 27.8801 15.387 27.8584 15.3812C27.8368 15.3754 27.8165 15.3653 27.7987 15.3516C27.7809 15.3379 27.766 15.3209 27.7548 15.3014C27.7436 15.2819 27.7363 15.2604 27.7334 15.2381C27.7305 15.2158 27.7319 15.1931 27.7377 15.1714C27.7435 15.1497 27.7536 15.1293 27.7672 15.1115C27.7808 15.0936 27.7979 15.0786 27.8173 15.0674C27.8367 15.0561 27.8581 15.0488 27.8803 15.0459C27.9252 15.04 27.9706 15.0522 28.0065 15.0798C28.0424 15.1075 28.0659 15.1483 28.0718 15.1934Z" fill="#000088"/>
<path d="M25.4021 18.9721L24.9851 16.9561L24.6196 16.041L24.759 17.0169L25.4021 18.9721Z" fill="#000088"/>
<path d="M36.5506 52.9026L35.214 46.3172C34.9895 45.2111 34.1615 44.2961 33.0324 43.9063L30.2111 42.9325H15.5718L19.0188 39.7078L15.9145 36.8037L9.41907 42.8801C8.51953 43.7216 8.20838 44.9678 8.61646 46.095C8.98852 47.1228 9.90345 47.8967 11.0339 48.1399L19.1946 50.0272V53.0082C19.1946 53.321 19.4657 53.5746 19.8001 53.5746H35.9557C36.3354 53.5747 36.6214 53.2515 36.5506 52.9026Z" fill="#8BC727"/>
<path d="M36.5506 52.9026L35.2139 46.3173C34.9894 45.2111 34.1615 44.2961 33.0323 43.9064L31.9697 43.5396C32.6129 44.0548 33.0631 44.7657 33.2259 45.5676L34.7006 52.8332C34.7787 53.2182 34.4632 53.5747 34.0443 53.5747H35.9557C36.3354 53.5747 36.6214 53.2515 36.5506 52.9026Z" fill="#81B823"/>
<path d="M23.5984 42.9323L26.0448 45.507L28.4914 42.9323V38.897H23.5984V42.9323Z" fill="#F6A96C"/>
<path d="M20.6038 32.4607V36.5632C20.6038 39.3743 23.0399 41.6533 26.0449 41.6533C29.05 41.6533 31.4861 39.3743 31.4861 36.5632V32.4607C31.4861 29.6495 29.05 27.3706 26.0449 27.3706C23.0398 27.3707 20.6038 29.6495 20.6038 32.4607Z" fill="#FED2A4"/>
<path d="M26.0449 27.3711C25.7748 27.3711 25.5093 27.3898 25.2498 27.4254C27.8779 27.7854 29.8958 29.9027 29.8958 32.4612V36.5636C29.8958 39.1222 27.8779 41.2395 25.2498 41.5995C25.5093 41.6351 25.7748 41.6538 26.0449 41.6538C29.0499 41.6538 31.486 39.3748 31.486 36.5636V32.4612C31.486 29.65 29.0499 27.3711 26.0449 27.3711Z" fill="#FFBD86"/>
<path d="M23.1394 30.1987C22.6949 30.1987 22.2612 30.3162 21.8851 30.5385L20.7732 31.1958C20.6627 31.6002 20.6038 32.0241 20.6038 32.4608V36.5632C20.6038 37.619 20.9474 38.5996 21.5357 39.4127C22.0409 38.7971 22.3154 38.0477 22.3154 37.2585V36.5895L24.9005 33.8499C25.6888 33.0146 25.6837 31.7589 24.8885 30.9291C24.4436 30.4649 23.806 30.1987 23.1394 30.1987Z" fill="#FFBD86"/>
<path d="M32.0395 36.4547C33.0174 36.4547 33.8103 35.7131 33.8103 34.7982C33.8103 33.8833 33.0175 33.1416 32.0395 33.1416H31.4861V36.4547H32.0395V36.4547Z" fill="#F6A96C"/>
<path d="M26.0448 45.5072L23.9994 47.4206C23.8077 47.5999 23.4813 47.5268 23.3972 47.2857L21.8784 42.9325L23.5983 42.2021L26.0448 45.5072Z" fill="#78A91F"/>
<path d="M26.0449 45.5072L28.0903 47.4206C28.2819 47.5999 28.6084 47.5268 28.6925 47.2857L30.2113 42.9325L28.4914 42.2021L26.0449 45.5072Z" fill="#78A91F"/>
<path d="M31.5495 31.1962H20.5404L19.4536 29.5018C19.0221 28.829 19.1749 27.963 19.8145 27.4556L21.7929 25.8862C22.1689 25.588 22.6458 25.4243 23.1388 25.4243H28.9513C29.4442 25.4243 29.9211 25.588 30.2971 25.8862L32.2755 27.4556C32.9152 27.963 33.0679 28.829 32.6365 29.5018L31.5495 31.1962Z" fill="#8BC727"/>
<path d="M32.2752 27.4556L30.2968 25.8862C29.9208 25.588 29.4439 25.4243 28.951 25.4243H27.3608C27.8537 25.4243 28.3306 25.588 28.7066 25.8863L30.6851 27.4557C31.1446 27.8202 31.352 28.3697 31.2726 28.8997C31.2441 29.0899 31.0225 29.1952 30.839 29.1087C30.8379 29.1082 30.8367 29.1077 30.8355 29.1071C29.4328 28.4472 27.7762 28.0984 26.0448 28.0984C24.3134 28.0984 22.6568 28.4472 21.2541 29.1071C20.5453 29.4405 20.055 29.7781 19.772 29.9984L20.5402 31.1962H31.5494L32.6361 29.5018C33.0676 28.829 32.9148 27.963 32.2752 27.4556Z" fill="#81B823"/>
<path d="M26.0448 29.4717C29.722 29.4717 31.5494 31.1963 31.5494 31.1963L31.9357 32.7301C31.9886 32.9403 31.8182 33.1417 31.5873 33.1417C31.5221 33.1417 31.4582 33.1251 31.4024 33.0935C30.9101 32.8143 28.3316 31.417 26.0448 31.417C23.758 31.417 21.1796 32.8143 20.6873 33.0935C20.6315 33.1251 20.5676 33.1417 20.5023 33.1417C20.2715 33.1417 20.1011 32.9402 20.154 32.7301L20.5403 31.1963C20.5403 31.1963 22.3676 29.4717 26.0448 29.4717Z" fill="#8BC727"/>
<path d="M31.9357 32.7298L31.5495 31.196C31.5495 31.196 31.0891 30.7618 30.166 30.3291L30.612 32.1C30.6621 32.2989 30.5401 32.491 30.3483 32.5558C30.8642 32.7951 31.2431 33.0029 31.4024 33.0932C31.4583 33.1249 31.5221 33.1414 31.5874 33.1414C31.8182 33.1414 31.9887 32.94 31.9357 32.7298Z" fill="#81B823"/>
<path d="M19.0188 39.7076L20.0802 38.7148C20.4931 38.3285 20.7251 37.8046 20.7251 37.2583V36.2189C20.7251 36.095 20.7734 35.9754 20.8611 35.8825L23.7083 32.8651C23.9629 32.5953 23.9612 32.1899 23.7044 31.9219C23.4573 31.6641 23.0474 31.6108 22.7345 31.7958L18.8876 34.0698C18.7957 34.1241 18.7106 34.1878 18.6338 34.2597L15.9146 36.8035L19.0188 39.7076Z" fill="#FED2A4"/>
<path d="M30.2107 42.9326L33.0322 43.9063C34.1614 44.2965 34.9891 45.2113 35.2137 46.3175L35.692 48.6731" stroke="#252525" stroke-opacity="0.5" stroke-width="0.364742" stroke-miterlimit="10" stroke-linecap="round" stroke-linejoin="round"/>
<path d="M11.9097 40.5504L15.9142 36.8042L19.0185 39.7082L15.5715 42.9327H21.878" stroke="#252525" stroke-opacity="0.5" stroke-width="0.364742" stroke-miterlimit="10" stroke-linecap="round" stroke-linejoin="round"/>
<path d="M36.0867 50.6209L36.5502 52.9031C36.6211 53.2521 36.335 53.5753 35.9554 53.5753H19.7996C19.4652 53.5753 19.1941 53.3217 19.1941 53.0089V50.0279L11.0336 48.1406C10.4681 48.0188 9.95707 47.7645 9.54051 47.4122C9.12395 47.0599 8.80184 46.6096 8.61596 46.0959C8.20787 44.9682 8.51908 43.7221 9.41881 42.881L10.4112 41.9526" stroke="#252525" stroke-opacity="0.5" stroke-width="0.364742" stroke-miterlimit="10" stroke-linecap="round" stroke-linejoin="round"/>
<path d="M23.5979 42.2024V41.1104" stroke="#252525" stroke-opacity="0.5" stroke-width="0.364742" stroke-miterlimit="10" stroke-linecap="round" stroke-linejoin="round"/>
<path d="M28.491 41.1104V42.2024" stroke="#252525" stroke-opacity="0.5" stroke-width="0.364742" stroke-miterlimit="10" stroke-linecap="round" stroke-linejoin="round"/>
<path d="M31.4853 36.4546V36.5633C31.4853 37.9685 30.8761 39.241 29.8914 40.1622C28.9066 41.0833 27.5464 41.6532 26.0443 41.6532C23.3966 41.6532 21.1904 39.8841 20.7036 37.5399" stroke="#252525" stroke-opacity="0.5" stroke-width="0.364742" stroke-miterlimit="10" stroke-linecap="round" stroke-linejoin="round"/>
<path d="M31.4856 36.4552H32.039C33.0169 36.4552 33.8098 35.7136 33.8098 34.7987C33.8098 33.8837 33.017 33.1421 32.039 33.1421H31.4856V36.4552Z" stroke="#252525" stroke-opacity="0.5" stroke-width="0.364742" stroke-miterlimit="10" stroke-linecap="round" stroke-linejoin="round"/>
<path d="M26.0443 45.5077L23.9989 47.4211C23.8073 47.6004 23.4808 47.5273 23.3967 47.2862L21.8779 42.933L23.5978 42.2026L26.0443 45.5077Z" stroke="#252525" stroke-opacity="0.5" stroke-width="0.364742" stroke-miterlimit="10" stroke-linecap="round" stroke-linejoin="round"/>
<path d="M26.0444 45.5077L28.0898 47.4211C28.2815 47.6004 28.6079 47.5273 28.692 47.2862L30.2108 42.933L28.491 42.2026L26.0444 45.5077Z" stroke="#252525" stroke-opacity="0.5" stroke-width="0.364742" stroke-miterlimit="10" stroke-linecap="round" stroke-linejoin="round"/>
<path d="M27.104 25.4248H28.9507C29.4435 25.4248 29.9206 25.5885 30.2966 25.887L32.2747 27.4559C32.9147 27.9634 33.0673 28.8295 32.6356 29.5024L31.5488 31.1965" stroke="#252525" stroke-opacity="0.5" stroke-width="0.364742" stroke-miterlimit="10" stroke-linecap="round" stroke-linejoin="round"/>
<path d="M20.5401 31.1965L19.4533 29.5024C19.0216 28.8295 19.1742 27.9634 19.8142 27.4559L21.7923 25.887C22.1683 25.5885 22.6454 25.4248 23.1382 25.4248H24.9849" stroke="#252525" stroke-opacity="0.5" stroke-width="0.364742" stroke-miterlimit="10" stroke-linecap="round" stroke-linejoin="round"/>
<path d="M23.6019 31.8342C24.3817 31.594 25.2318 31.4173 26.0443 31.4173C28.3312 31.4173 30.9099 32.8146 31.4021 33.0938C31.4578 33.1256 31.5214 33.142 31.5868 33.142C31.8175 33.142 31.9882 32.9404 31.9349 32.7302L31.5487 31.1964C31.5487 31.1964 29.7213 29.4717 26.0443 29.4717C22.3673 29.4717 20.54 31.1964 20.54 31.1964L20.1537 32.7302C20.1471 32.7563 20.144 32.7823 20.144 32.8078C20.144 32.9755 20.2791 33.121 20.4613 33.1397" stroke="#252525" stroke-opacity="0.5" stroke-width="0.364742" stroke-miterlimit="10" stroke-linecap="round" stroke-linejoin="round"/>
<path d="M19.0184 39.7081L20.0797 38.7153C20.4926 38.329 20.7246 37.8051 20.7246 37.2588V36.2194C20.7246 36.0955 20.7729 35.9759 20.8606 35.883L23.7078 32.8656C23.9624 32.5958 23.9607 32.1904 23.7039 31.9224C23.4568 31.6646 23.0469 31.6113 22.734 31.7963L18.8871 34.0703C18.7952 34.1246 18.7101 34.1883 18.6333 34.2602L15.9141 36.8039L19.0184 39.7081Z" stroke="#252525" stroke-opacity="0.5" stroke-width="0.364742" stroke-miterlimit="10" stroke-linecap="round" stroke-linejoin="round"/>
<path d="M32.8945 53.5752V50.0278" stroke="#252525" stroke-opacity="0.5" stroke-width="0.364742" stroke-miterlimit="10" stroke-linecap="round" stroke-linejoin="round"/>
<path d="M14.4612 43.9714L15.5716 42.9326" stroke="#252525" stroke-opacity="0.5" stroke-width="0.364742" stroke-miterlimit="10" stroke-linecap="round" stroke-linejoin="round"/>
<path d="M28.8579 50.0278H30.9374" stroke="#252525" stroke-opacity="0.5" stroke-width="0.364742" stroke-miterlimit="10" stroke-linecap="round" stroke-linejoin="round"/>
<path d="M23.2309 50.0278H21.1514" stroke="#252525" stroke-opacity="0.5" stroke-width="0.364742" stroke-miterlimit="10" stroke-linecap="round" stroke-linejoin="round"/>
<path d="M14.5549 38.0757L17.6593 40.9798" stroke="#252525" stroke-opacity="0.5" stroke-width="0.364742" stroke-miterlimit="10" stroke-linecap="round" stroke-linejoin="round"/>
<path d="M26.0444 45.5078V53.5753" stroke="#252525" stroke-opacity="0.5" stroke-width="0.364742" stroke-miterlimit="10" stroke-linecap="round" stroke-linejoin="round"/>
</svg>
