<svg width="45" height="54" viewBox="0 0 45 54" fill="none" xmlns="http://www.w3.org/2000/svg">
<path d="M4.45801 29.0869V20.1372H44.5796V29.0869H4.45801Z" fill="#27AE60"/>
<path d="M4.45801 20.1372V11.1875H44.5796V20.1372H4.45801Z" fill="white"/>
<path d="M4.45801 11.1875V2.23782H44.5796V11.1875H4.45801Z" fill="#F39C12"/>
<path opacity="0.2" d="M1.5603 2.23779H6.01826V29.0868H1.5603V2.23779Z" fill="#3B3C3D"/>
<path d="M0 0H4.90375V53.6981H0V0Z" fill="#464C63"/>
<path d="M28.4193 15.6626C28.4193 16.701 28.0084 17.6969 27.2768 18.4312C26.5453 19.1655 25.5532 19.578 24.5186 19.578C23.4841 19.578 22.4919 19.1655 21.7604 18.4312C21.0289 17.6969 20.6179 16.701 20.6179 15.6626C20.6179 14.6241 21.0289 13.6282 21.7604 12.8939C22.4919 12.1596 23.4841 11.7471 24.5186 11.7471C25.5532 11.7471 26.5453 12.1596 27.2768 12.8939C28.0084 13.6282 28.4193 14.6241 28.4193 15.6626Z" fill="#000088"/>
<path d="M27.932 15.6624C27.932 16.1123 27.8437 16.5578 27.6721 16.9735C27.5006 17.3891 27.2492 17.7668 26.9323 18.085C26.6153 18.4031 26.2391 18.6555 25.825 18.8276C25.4109 18.9998 24.9671 19.0884 24.5188 19.0884C23.6136 19.0884 22.7455 18.7275 22.1054 18.085C21.4653 17.4425 21.1057 16.571 21.1057 15.6624C21.1057 14.7537 21.4653 13.8823 22.1054 13.2398C22.7455 12.5973 23.6136 12.2363 24.5188 12.2363C24.9671 12.2363 25.4109 12.3249 25.825 12.4971C26.2391 12.6693 26.6153 12.9217 26.9323 13.2398C27.2492 13.5579 27.5006 13.9356 27.6721 14.3513C27.8437 14.767 27.932 15.2125 27.932 15.6624Z" fill="white"/>
<path d="M25.2014 15.6627C25.2014 15.8445 25.1295 16.0188 25.0015 16.1473C24.8735 16.2758 24.6998 16.348 24.5188 16.348C24.3378 16.348 24.1641 16.2758 24.0361 16.1473C23.9081 16.0188 23.8362 15.8445 23.8362 15.6627C23.8362 15.481 23.9081 15.3067 24.0361 15.1782C24.1641 15.0497 24.3378 14.9775 24.5188 14.9775C24.6998 14.9775 24.8735 15.0497 25.0015 15.1782C25.1295 15.3067 25.2014 15.481 25.2014 15.6627Z" fill="#000088"/>
<path d="M28.0718 16.1321C28.0659 16.1772 28.0424 16.218 28.0065 16.2457C27.9706 16.2733 27.9252 16.2855 27.8803 16.2796C27.8581 16.2767 27.8367 16.2694 27.8173 16.2581C27.7979 16.2469 27.7808 16.2319 27.7672 16.2141C27.7536 16.1962 27.7435 16.1758 27.7377 16.1541C27.7319 16.1324 27.7305 16.1097 27.7334 16.0874C27.7363 16.0651 27.7436 16.0436 27.7548 16.0241C27.766 16.0046 27.7809 15.9876 27.7987 15.9739C27.8165 15.9602 27.8368 15.9501 27.8584 15.9443C27.8801 15.9385 27.9027 15.937 27.9249 15.9399C27.9697 15.9459 28.0104 15.9695 28.038 16.0055C28.0655 16.0415 28.0777 16.0871 28.0718 16.1321Z" fill="#000088"/>
<path d="M24.5186 19.0887L24.6357 17.0331L24.5186 16.0542L24.4016 17.0331L24.5186 19.0887Z" fill="#000088"/>
<path d="M27.8298 17.0396C27.8212 17.0604 27.8086 17.0793 27.7928 17.0952C27.7769 17.1111 27.7581 17.1237 27.7374 17.1323C27.7167 17.1409 27.6945 17.1453 27.6721 17.1453C27.6497 17.1453 27.6275 17.1409 27.6068 17.1323C27.565 17.1149 27.5318 17.0816 27.5145 17.0396C27.4971 16.9976 27.4971 16.9505 27.5145 16.9085C27.5318 16.8665 27.565 16.8332 27.6068 16.8158C27.6486 16.7984 27.6956 16.7984 27.7374 16.8158C27.7581 16.8244 27.7769 16.837 27.7928 16.8529C27.8086 16.8688 27.8212 16.8877 27.8298 16.9085C27.8384 16.9293 27.8428 16.9515 27.8428 16.974C27.8428 16.9965 27.8384 17.0188 27.8298 17.0396Z" fill="#000088"/>
<path d="M23.6353 18.9721L24.2783 17.0169L24.4177 16.041L24.0523 16.9561L23.6353 18.9721Z" fill="#000088"/>
<path d="M27.3619 17.8527C27.3344 17.8888 27.2937 17.9124 27.2488 17.9183C27.204 17.9242 27.1586 17.912 27.1227 17.8844C27.0868 17.8567 27.0633 17.8159 27.0574 17.7708C27.0515 17.7258 27.0636 17.6802 27.0912 17.6442C27.1187 17.6081 27.1594 17.5845 27.2043 17.5786C27.2492 17.5727 27.2945 17.5849 27.3304 17.6125C27.3664 17.6402 27.3898 17.681 27.3958 17.7261C27.4017 17.7711 27.3895 17.8167 27.3619 17.8527Z" fill="#000088"/>
<path d="M22.8123 18.6299L23.9375 16.9084L24.3238 16.002L23.7349 16.7909L22.8123 18.6299Z" fill="#000088"/>
<path d="M26.7003 18.5167C26.6825 18.5304 26.6623 18.5404 26.6406 18.5462C26.619 18.5521 26.5964 18.5535 26.5742 18.5506C26.5519 18.5477 26.5305 18.5404 26.5111 18.5291C26.4917 18.5179 26.4747 18.5029 26.461 18.4851C26.4335 18.449 26.4213 18.4035 26.4272 18.3584C26.4331 18.3134 26.4566 18.2725 26.4925 18.2449C26.5103 18.2312 26.5306 18.2211 26.5523 18.2153C26.5739 18.2095 26.5965 18.208 26.6187 18.2109C26.6409 18.2139 26.6624 18.2212 26.6818 18.2324C26.7012 18.2437 26.7182 18.2586 26.7318 18.2765C26.7594 18.3125 26.7715 18.3581 26.7656 18.4031C26.7597 18.4482 26.7362 18.489 26.7003 18.5167Z" fill="#000088"/>
<path d="M22.1052 18.0852L23.636 16.7147L24.2429 15.9395L23.4705 16.5486L22.1052 18.0852Z" fill="#000088"/>
<path d="M25.89 18.9863C25.8482 19.0037 25.8012 19.0037 25.7594 18.9863C25.7176 18.9689 25.6844 18.9356 25.667 18.8936C25.6585 18.8728 25.6541 18.8505 25.6541 18.828C25.6541 18.8055 25.6585 18.7833 25.667 18.7625C25.6756 18.7417 25.6882 18.7228 25.704 18.7069C25.7199 18.691 25.7387 18.6784 25.7594 18.6698C25.7801 18.6612 25.8023 18.6567 25.8247 18.6567C25.8471 18.6567 25.8693 18.6612 25.89 18.6698C25.9107 18.6784 25.9295 18.691 25.9454 18.7069C25.9612 18.7228 25.9738 18.7417 25.9824 18.7625C25.991 18.7833 25.9954 18.8055 25.9954 18.828C25.9954 18.8505 25.9909 18.8728 25.9824 18.8936C25.9738 18.9144 25.9612 18.9333 25.9454 18.9492C25.9295 18.9651 25.9107 18.9777 25.89 18.9863Z" fill="#000088"/>
<path d="M21.5627 17.3756L23.3948 16.4496L24.1808 15.8584L23.2777 16.2461L21.5627 17.3756Z" fill="#000088"/>
<path d="M24.9864 19.2293C24.9642 19.2323 24.9416 19.2308 24.9199 19.225C24.8983 19.2191 24.878 19.2091 24.8602 19.1954C24.8424 19.1817 24.8275 19.1646 24.8163 19.1451C24.8051 19.1257 24.7978 19.1041 24.7949 19.0818C24.792 19.0595 24.7935 19.0369 24.7993 19.0151C24.8051 18.9934 24.8151 18.9731 24.8287 18.9552C24.8424 18.9374 24.8594 18.9224 24.8788 18.9111C24.8982 18.8999 24.9196 18.8926 24.9418 18.8896C24.9867 18.8837 25.0321 18.8959 25.068 18.9236C25.1039 18.9512 25.1274 18.9921 25.1333 19.0371C25.1362 19.0594 25.1348 19.0821 25.129 19.1038C25.1232 19.1256 25.1131 19.1459 25.0995 19.1638C25.0859 19.1816 25.0689 19.1966 25.0494 19.2078C25.03 19.2191 25.0086 19.2264 24.9864 19.2293Z" fill="#000088"/>
<path d="M21.2219 16.5495L23.2303 16.131L24.142 15.7642L23.1697 15.9041L21.2219 16.5495Z" fill="#000088"/>
<path d="M24.051 19.2293C24.0061 19.2234 23.9654 19.1998 23.9379 19.1638C23.9103 19.1277 23.8981 19.0822 23.904 19.0371C23.91 18.9921 23.9334 18.9512 23.9694 18.9236C24.0053 18.8959 24.0506 18.8837 24.0955 18.8896C24.1177 18.8926 24.1392 18.8999 24.1586 18.9111C24.178 18.9224 24.195 18.9374 24.2086 18.9552C24.2223 18.9731 24.2323 18.9934 24.2381 19.0151C24.2439 19.0369 24.2454 19.0595 24.2424 19.0818C24.2395 19.1041 24.2322 19.1257 24.221 19.1451C24.2098 19.1646 24.1949 19.1817 24.1771 19.1954C24.1594 19.2091 24.1391 19.2191 24.1174 19.225C24.0958 19.2308 24.0732 19.2323 24.051 19.2293Z" fill="#000088"/>
<path d="M21.1055 15.6629L23.1533 15.7803L24.1285 15.6629L23.1533 15.5454L21.1055 15.6629Z" fill="#000088"/>
<path d="M23.1473 18.9863C23.1266 18.9777 23.1078 18.9651 23.092 18.9492C23.0761 18.9333 23.0636 18.9144 23.055 18.8936C23.0464 18.8728 23.042 18.8505 23.042 18.828C23.042 18.8055 23.0464 18.7833 23.055 18.7625C23.0723 18.7205 23.1055 18.6872 23.1473 18.6698C23.1892 18.6524 23.2361 18.6524 23.278 18.6698C23.2987 18.6784 23.3175 18.691 23.3333 18.7069C23.3492 18.7228 23.3617 18.7417 23.3703 18.7625C23.3789 18.7833 23.3833 18.8055 23.3833 18.828C23.3833 18.8505 23.3789 18.8728 23.3703 18.8936C23.353 18.9356 23.3198 18.9689 23.278 18.9863C23.2361 19.0037 23.1892 19.0037 23.1473 18.9863Z" fill="#000088"/>
<path d="M21.2219 14.7759L23.1697 15.4214L24.142 15.5613L23.2303 15.1945L21.2219 14.7759Z" fill="#000088"/>
<path d="M22.337 18.5167C22.3011 18.489 22.2776 18.4482 22.2717 18.4031C22.2658 18.3581 22.278 18.3125 22.3055 18.2765C22.3192 18.2586 22.3362 18.2437 22.3556 18.2324C22.375 18.2212 22.3964 18.2139 22.4186 18.2109C22.4409 18.208 22.4634 18.2095 22.4851 18.2153C22.5067 18.2211 22.527 18.2312 22.5448 18.2449C22.5626 18.2586 22.5775 18.2756 22.5887 18.2951C22.5999 18.3146 22.6072 18.3361 22.6101 18.3584C22.613 18.3807 22.6116 18.4034 22.6058 18.4251C22.6 18.4468 22.59 18.4672 22.5763 18.4851C22.5627 18.5029 22.5457 18.5179 22.5263 18.5291C22.5068 18.5404 22.4854 18.5477 22.4632 18.5506C22.441 18.5535 22.4184 18.5521 22.3968 18.5462C22.3751 18.5404 22.3548 18.5304 22.337 18.5167Z" fill="#000088"/>
<path d="M21.5627 13.9497L23.2777 15.0792L24.1808 15.467L23.3948 14.8758L21.5627 13.9497Z" fill="#000088"/>
<path d="M21.6754 17.8527C21.6479 17.8167 21.6357 17.7711 21.6416 17.7261C21.6475 17.681 21.671 17.6402 21.7069 17.6125C21.7247 17.5989 21.745 17.5888 21.7666 17.583C21.7883 17.5772 21.8108 17.5757 21.8331 17.5786C21.8553 17.5816 21.8767 17.5889 21.8961 17.6001C21.9155 17.6113 21.9325 17.6263 21.9462 17.6442C21.9737 17.6802 21.9859 17.7258 21.98 17.7708C21.9741 17.8159 21.9506 17.8567 21.9147 17.8844C21.8969 17.898 21.8766 17.9081 21.855 17.9139C21.8333 17.9197 21.8107 17.9212 21.7885 17.9183C21.7663 17.9154 21.7449 17.9081 21.7255 17.8968C21.7061 17.8856 21.689 17.8706 21.6754 17.8527Z" fill="#000088"/>
<path d="M22.1052 13.2402L23.4705 14.7768L24.2429 15.386L23.636 14.6107L22.1052 13.2402Z" fill="#000088"/>
<path d="M21.2078 17.0396C21.1905 16.9976 21.1905 16.9505 21.2078 16.9085C21.2251 16.8665 21.2584 16.8332 21.3002 16.8158C21.3209 16.8072 21.3431 16.8027 21.3655 16.8027C21.3879 16.8027 21.4101 16.8072 21.4308 16.8158C21.4515 16.8244 21.4703 16.837 21.4862 16.8529C21.502 16.8688 21.5146 16.8877 21.5231 16.9085C21.5317 16.9293 21.5361 16.9515 21.5361 16.974C21.5361 16.9965 21.5317 17.0188 21.5231 17.0396C21.5146 17.0604 21.502 17.0793 21.4862 17.0952C21.4703 17.1111 21.4515 17.1237 21.4308 17.1323C21.4101 17.1409 21.3879 17.1453 21.3655 17.1453C21.3431 17.1453 21.3209 17.1409 21.3002 17.1323C21.2795 17.1237 21.2607 17.1111 21.2448 17.0952C21.229 17.0793 21.2164 17.0604 21.2078 17.0396Z" fill="#000088"/>
<path d="M22.8123 12.6958L23.7349 14.5348L24.3238 15.3238L23.9375 14.4173L22.8123 12.6958Z" fill="#000088"/>
<path d="M20.9656 16.1321C20.9626 16.1098 20.9641 16.0872 20.9699 16.0654C20.9757 16.0437 20.9857 16.0233 20.9994 16.0055C21.013 15.9876 21.03 15.9727 21.0494 15.9614C21.0689 15.9502 21.0903 15.9429 21.1125 15.9399C21.1574 15.934 21.2028 15.9462 21.2387 15.9739C21.2746 16.0015 21.2981 16.0424 21.304 16.0874C21.3099 16.1325 21.2977 16.178 21.2702 16.2141C21.2426 16.2501 21.2019 16.2737 21.157 16.2796C21.1348 16.2826 21.1123 16.2811 21.0906 16.2752C21.069 16.2694 21.0487 16.2594 21.0309 16.2457C21.0131 16.232 20.9982 16.2149 20.987 16.1954C20.9758 16.1759 20.9685 16.1544 20.9656 16.1321Z" fill="#000088"/>
<path d="M23.6353 12.3535L24.0523 14.3695L24.4177 15.2846L24.2783 14.3087L23.6353 12.3535Z" fill="#000088"/>
<path d="M20.9656 15.1934C20.9685 15.1711 20.9758 15.1496 20.987 15.1301C20.9982 15.1106 21.0131 15.0935 21.0309 15.0798C21.0487 15.0661 21.069 15.0561 21.0906 15.0503C21.1123 15.0444 21.1348 15.043 21.157 15.0459C21.2019 15.0518 21.2426 15.0754 21.2702 15.1115C21.2977 15.1475 21.3099 15.1931 21.304 15.2381C21.2981 15.2831 21.2746 15.324 21.2387 15.3516C21.2028 15.3793 21.1574 15.3915 21.1125 15.3856C21.0903 15.3826 21.0689 15.3753 21.0494 15.3641C21.03 15.3528 21.013 15.3379 20.9994 15.32C20.9857 15.3022 20.9757 15.2818 20.9699 15.2601C20.9641 15.2383 20.9626 15.2157 20.9656 15.1934Z" fill="#000088"/>
<path d="M24.5186 12.2368L24.4016 14.2924L24.5186 15.2713L24.6357 14.2924L24.5186 12.2368Z" fill="#000088"/>
<path d="M21.2078 14.2859C21.2164 14.2651 21.229 14.2463 21.2448 14.2303C21.2607 14.2144 21.2795 14.2018 21.3002 14.1932C21.3209 14.1846 21.3431 14.1802 21.3655 14.1802C21.3879 14.1802 21.4101 14.1846 21.4308 14.1932C21.4515 14.2018 21.4703 14.2144 21.4862 14.2303C21.502 14.2463 21.5146 14.2651 21.5231 14.2859C21.5317 14.3067 21.5361 14.329 21.5361 14.3515C21.5361 14.374 21.5317 14.3962 21.5231 14.417C21.5146 14.4378 21.502 14.4567 21.4862 14.4726C21.4703 14.4885 21.4515 14.5011 21.4308 14.5097C21.4101 14.5184 21.3879 14.5228 21.3655 14.5228C21.3431 14.5228 21.3209 14.5184 21.3002 14.5097C21.2584 14.4924 21.2251 14.459 21.2078 14.417C21.1905 14.3751 21.1905 14.3279 21.2078 14.2859Z" fill="#000088"/>
<path d="M25.4021 12.3535L24.759 14.3087L24.6196 15.2846L24.9851 14.3695L25.4021 12.3535Z" fill="#000088"/>
<path d="M21.6754 13.4728C21.689 13.4549 21.7061 13.44 21.7255 13.4287C21.7449 13.4175 21.7663 13.4102 21.7885 13.4072C21.8107 13.4043 21.8333 13.4058 21.855 13.4116C21.8766 13.4174 21.8969 13.4275 21.9147 13.4412C21.9506 13.4688 21.9741 13.5097 21.98 13.5547C21.9859 13.5997 21.9737 13.6453 21.9462 13.6813C21.9325 13.6992 21.9155 13.7142 21.8961 13.7254C21.8767 13.7367 21.8553 13.744 21.8331 13.7469C21.8108 13.7498 21.7883 13.7484 21.7666 13.7425C21.745 13.7367 21.7247 13.7267 21.7069 13.713C21.671 13.6853 21.6475 13.6445 21.6416 13.5994C21.6357 13.5544 21.6479 13.5088 21.6754 13.4728Z" fill="#000088"/>
<path d="M26.2252 12.6958L25.0999 14.4173L24.7136 15.3238L25.3026 14.5348L26.2252 12.6958Z" fill="#000088"/>
<path d="M22.337 12.8088C22.3548 12.7951 22.3751 12.7851 22.3968 12.7793C22.4184 12.7735 22.441 12.772 22.4632 12.7749C22.4854 12.7778 22.5068 12.7851 22.5263 12.7964C22.5457 12.8076 22.5627 12.8226 22.5763 12.8405C22.6039 12.8765 22.616 12.9221 22.6101 12.9671C22.6042 13.0121 22.5807 13.053 22.5448 13.0806C22.527 13.0943 22.5067 13.1044 22.4851 13.1102C22.4634 13.116 22.4409 13.1175 22.4186 13.1146C22.3964 13.1116 22.375 13.1043 22.3556 13.0931C22.3362 13.0818 22.3192 13.0669 22.3055 13.049C22.278 13.013 22.2658 12.9674 22.2717 12.9224C22.2776 12.8773 22.3011 12.8365 22.337 12.8088Z" fill="#000088"/>
<path d="M26.932 13.2402L25.4012 14.6107L24.7944 15.386L25.5667 14.7768L26.932 13.2402Z" fill="#000088"/>
<path d="M23.1473 12.3392C23.1892 12.3218 23.2361 12.3218 23.278 12.3392C23.3198 12.3566 23.353 12.3899 23.3703 12.4319C23.3789 12.4527 23.3833 12.475 23.3833 12.4975C23.3833 12.52 23.3789 12.5422 23.3703 12.563C23.3617 12.5838 23.3492 12.6027 23.3333 12.6186C23.3175 12.6345 23.2987 12.6471 23.278 12.6557C23.2361 12.6731 23.1892 12.6731 23.1473 12.6557C23.1055 12.6383 23.0723 12.605 23.055 12.563C23.0464 12.5422 23.042 12.52 23.042 12.4975C23.042 12.475 23.0464 12.4527 23.055 12.4319C23.0636 12.4111 23.0761 12.3923 23.092 12.3763C23.1078 12.3604 23.1266 12.3478 23.1473 12.3392Z" fill="#000088"/>
<path d="M27.4745 13.9497L25.6425 14.8758L24.8564 15.467L25.7595 15.0792L27.4745 13.9497Z" fill="#000088"/>
<path d="M24.051 12.0962C24.0732 12.0933 24.0958 12.0947 24.1174 12.1006C24.1391 12.1064 24.1594 12.1164 24.1771 12.1301C24.1949 12.1438 24.2098 12.1609 24.221 12.1804C24.2322 12.1999 24.2395 12.2214 24.2424 12.2437C24.2454 12.266 24.2439 12.2886 24.2381 12.3104C24.2323 12.3321 24.2223 12.3525 24.2086 12.3703C24.195 12.3882 24.178 12.4031 24.1586 12.4144C24.1392 12.4256 24.1177 12.4329 24.0955 12.4359C24.0506 12.4418 24.0053 12.4296 23.9694 12.4019C23.9334 12.3743 23.91 12.3334 23.904 12.2884C23.8981 12.2433 23.9103 12.1978 23.9379 12.1618C23.9654 12.1257 24.0061 12.1021 24.051 12.0962Z" fill="#000088"/>
<path d="M27.8156 14.7759L25.8072 15.1945L24.8955 15.5613L25.8677 15.4214L27.8156 14.7759Z" fill="#000088"/>
<path d="M24.9864 12.0962C25.0086 12.0991 25.03 12.1064 25.0494 12.1177C25.0689 12.1289 25.0859 12.1439 25.0995 12.1617C25.1131 12.1796 25.1232 12.2 25.129 12.2217C25.1348 12.2434 25.1362 12.2661 25.1333 12.2884C25.1274 12.3334 25.1039 12.3743 25.068 12.4019C25.0321 12.4296 24.9867 12.4418 24.9418 12.4359C24.9196 12.4329 24.8982 12.4256 24.8788 12.4144C24.8594 12.4031 24.8424 12.3882 24.8287 12.3703C24.8151 12.3525 24.8051 12.3321 24.7993 12.3104C24.7935 12.2886 24.792 12.266 24.7949 12.2437C24.7978 12.2214 24.8051 12.1999 24.8163 12.1804C24.8275 12.1609 24.8424 12.1438 24.8602 12.1301C24.878 12.1164 24.8983 12.1064 24.9199 12.1006C24.9416 12.0947 24.9642 12.0933 24.9864 12.0962Z" fill="#000088"/>
<path d="M27.9317 15.6629L25.8839 15.5454L24.9087 15.6629L25.8839 15.7803L27.9317 15.6629Z" fill="#000088"/>
<path d="M25.89 12.3392C25.9107 12.3478 25.9295 12.3604 25.9454 12.3763C25.9612 12.3922 25.9738 12.4111 25.9824 12.4319C25.991 12.4527 25.9954 12.475 25.9954 12.4975C25.9954 12.52 25.991 12.5422 25.9824 12.563C25.9738 12.5838 25.9612 12.6027 25.9454 12.6186C25.9295 12.6345 25.9107 12.6471 25.89 12.6557C25.8693 12.6643 25.8471 12.6688 25.8247 12.6688C25.8023 12.6688 25.7801 12.6643 25.7594 12.6557C25.7176 12.6383 25.6844 12.605 25.667 12.563C25.6497 12.5211 25.6497 12.4739 25.667 12.4319C25.6844 12.3899 25.7176 12.3566 25.7594 12.3392C25.8012 12.3218 25.8482 12.3218 25.89 12.3392Z" fill="#000088"/>
<path d="M27.8156 16.5495L25.8677 15.9041L24.8955 15.7642L25.8072 16.131L27.8156 16.5495Z" fill="#000088"/>
<path d="M26.7003 12.8088C26.7362 12.8365 26.7597 12.8773 26.7656 12.9224C26.7715 12.9674 26.7594 13.013 26.7318 13.049C26.7182 13.0669 26.7012 13.0818 26.6818 13.0931C26.6624 13.1043 26.6409 13.1116 26.6187 13.1146C26.5965 13.1175 26.5739 13.116 26.5523 13.1102C26.5306 13.1044 26.5103 13.0943 26.4925 13.0806C26.4566 13.053 26.4331 13.0121 26.4272 12.9671C26.4213 12.9221 26.4335 12.8765 26.461 12.8405C26.4747 12.8226 26.4917 12.8076 26.5111 12.7964C26.5305 12.7851 26.5519 12.7778 26.5742 12.7749C26.5964 12.772 26.619 12.7735 26.6406 12.7793C26.6623 12.7851 26.6825 12.7951 26.7003 12.8088Z" fill="#000088"/>
<path d="M27.4745 17.3756L25.7595 16.2461L24.8564 15.8584L25.6425 16.4496L27.4745 17.3756Z" fill="#000088"/>
<path d="M27.3619 13.4728C27.3895 13.5088 27.4017 13.5544 27.3958 13.5994C27.3898 13.6445 27.3664 13.6853 27.3304 13.713C27.2945 13.7406 27.2492 13.7528 27.2043 13.7469C27.1594 13.741 27.1187 13.7174 27.0912 13.6813C27.0636 13.6453 27.0515 13.5997 27.0574 13.5547C27.0633 13.5097 27.0868 13.4688 27.1227 13.4412C27.1586 13.4135 27.204 13.4013 27.2488 13.4072C27.2937 13.4132 27.3344 13.4367 27.3619 13.4728Z" fill="#000088"/>
<path d="M26.932 18.0852L25.5667 16.5486L24.7944 15.9395L25.4012 16.7147L26.932 18.0852Z" fill="#000088"/>
<path d="M27.8298 14.2859C27.8384 14.3067 27.8428 14.329 27.8428 14.3515C27.8428 14.374 27.8384 14.3962 27.8298 14.417C27.8212 14.4378 27.8086 14.4567 27.7928 14.4726C27.7769 14.4885 27.7581 14.5011 27.7374 14.5097C27.6956 14.5271 27.6486 14.5271 27.6068 14.5097C27.565 14.4924 27.5318 14.459 27.5145 14.417C27.4971 14.3751 27.4971 14.3279 27.5145 14.2859C27.5318 14.2439 27.565 14.2106 27.6068 14.1932C27.6275 14.1846 27.6497 14.1802 27.6721 14.1802C27.6945 14.1802 27.7167 14.1846 27.7374 14.1932C27.7581 14.2018 27.7769 14.2144 27.7928 14.2303C27.8086 14.2463 27.8212 14.2651 27.8298 14.2859Z" fill="#000088"/>
<path d="M26.2252 18.6299L25.3026 16.7909L24.7136 16.002L25.0999 16.9084L26.2252 18.6299Z" fill="#000088"/>
<path d="M28.0718 15.1934C28.0777 15.2384 28.0655 15.284 28.038 15.32C28.0104 15.3561 27.9697 15.3796 27.9249 15.3856C27.9027 15.3885 27.8801 15.387 27.8584 15.3812C27.8368 15.3754 27.8165 15.3653 27.7987 15.3516C27.7809 15.3379 27.766 15.3209 27.7548 15.3014C27.7436 15.2819 27.7363 15.2604 27.7334 15.2381C27.7305 15.2158 27.7319 15.1931 27.7377 15.1714C27.7435 15.1497 27.7536 15.1293 27.7672 15.1115C27.7808 15.0936 27.7979 15.0786 27.8173 15.0674C27.8367 15.0561 27.8581 15.0488 27.8803 15.0459C27.9252 15.04 27.9706 15.0522 28.0065 15.0798C28.0424 15.1075 28.0659 15.1483 28.0718 15.1934Z" fill="#000088"/>
<path d="M25.4021 18.9721L24.9851 16.9561L24.6196 16.041L24.759 17.0169L25.4021 18.9721Z" fill="#000088"/>
<g clip-path="url(#clip0_3222_5461)">
<path d="M32.065 53.0016L31.2027 48.753C31.0578 48.0394 30.5237 47.449 29.7952 47.1976L27.975 46.5693H18.5303L20.7542 44.4889L18.7514 42.6152L14.5608 46.5355C13.9805 47.0784 13.7797 47.8824 14.043 48.6096C14.283 49.2727 14.8733 49.772 15.6026 49.9289L20.8676 51.1465V53.0697C20.8676 53.2716 21.0425 53.4352 21.2582 53.4352H31.6812C31.9262 53.4352 32.1107 53.2267 32.065 53.0016Z" fill="#8BC727"/>
<path d="M32.065 53.0016L31.2027 48.753C31.0578 48.0394 30.5236 47.449 29.7952 47.1976L29.1096 46.9609C29.5245 47.2934 29.815 47.752 29.92 48.2693L30.8715 52.9568C30.9219 53.2052 30.7183 53.4352 30.4481 53.4352H31.6812C31.9262 53.4352 32.1107 53.2267 32.065 53.0016Z" fill="#81B823"/>
<path d="M23.7087 46.5693L25.2871 48.2304L26.8655 46.5693V43.9658H23.7087V46.5693Z" fill="#F6A96C"/>
<path d="M21.7766 39.8137V42.4605C21.7766 44.2741 23.3483 45.7444 25.287 45.7444C27.2258 45.7444 28.7975 44.2741 28.7975 42.4605V39.8137C28.7975 38.0001 27.2258 36.5298 25.287 36.5298C23.3483 36.5298 21.7766 38.0001 21.7766 39.8137Z" fill="#FED2A4"/>
<path d="M25.2869 36.5298C25.1126 36.5298 24.9414 36.5418 24.7739 36.5648C26.4695 36.7971 27.7714 38.1631 27.7714 39.8137V42.4605C27.7714 44.1111 26.4695 45.4771 24.7739 45.7094C24.9414 45.7324 25.1126 45.7444 25.2869 45.7444C27.2256 45.7444 28.7973 44.2741 28.7973 42.4605V39.8137C28.7973 38 27.2256 36.5298 25.2869 36.5298Z" fill="#FFBD86"/>
<path d="M23.4125 38.354C23.1257 38.354 22.8459 38.4298 22.6033 38.5732L21.8859 38.9973C21.8146 39.2582 21.7766 39.5317 21.7766 39.8134V42.4601C21.7766 43.1413 21.9983 43.7739 22.3779 44.2985C22.7038 43.9013 22.8809 43.4179 22.8809 42.9087V42.4771L24.5487 40.7096C25.0573 40.1707 25.054 39.3606 24.541 38.8252C24.2539 38.5258 23.8426 38.354 23.4125 38.354Z" fill="#FFBD86"/>
<path d="M29.1544 42.3904C29.7853 42.3904 30.2969 41.912 30.2969 41.3217C30.2969 40.7314 29.7854 40.2529 29.1544 40.2529H28.7974V42.3904H29.1544V42.3904Z" fill="#F6A96C"/>
<path d="M25.2868 48.2304L23.9673 49.4649C23.8436 49.5806 23.633 49.5334 23.5787 49.3779L22.5989 46.5693L23.7084 46.0981L25.2868 48.2304Z" fill="#78A91F"/>
<path d="M25.2871 48.2304L26.6067 49.4649C26.7304 49.5806 26.941 49.5334 26.9952 49.3779L27.9751 46.5693L26.8655 46.0981L25.2871 48.2304Z" fill="#78A91F"/>
<path d="M28.8385 38.9977H21.7358L21.0347 37.9045C20.7563 37.4705 20.8549 36.9118 21.2675 36.5844L22.544 35.5719C22.7865 35.3795 23.0942 35.2739 23.4122 35.2739H27.1622C27.4802 35.2739 27.7879 35.3795 28.0305 35.5719L29.3069 36.5844C29.7196 36.9118 29.8181 37.4705 29.5398 37.9045L28.8385 38.9977Z" fill="#8BC727"/>
<path d="M29.3066 36.5844L28.0302 35.5719C27.7876 35.3795 27.48 35.2739 27.1619 35.2739H26.136C26.454 35.2739 26.7617 35.3795 27.0043 35.572L28.2807 36.5845C28.5771 36.8197 28.711 37.1742 28.6598 37.5161C28.6414 37.6388 28.4984 37.7067 28.38 37.651C28.3793 37.6506 28.3785 37.6503 28.3778 37.6499C27.4728 37.2242 26.404 36.9991 25.287 36.9991C24.17 36.9991 23.1012 37.2242 22.1962 37.6499C21.7389 37.865 21.4226 38.0828 21.24 38.2249L21.7356 38.9977H28.8383L29.5394 37.9045C29.8178 37.4705 29.7192 36.9118 29.3066 36.5844Z" fill="#81B823"/>
<path d="M25.287 37.8853C27.6594 37.8853 28.8384 38.9979 28.8384 38.9979L29.0876 39.9875C29.1217 40.1231 29.0118 40.253 28.8628 40.253C28.8207 40.253 28.7795 40.2423 28.7435 40.2219C28.4259 40.0418 26.7624 39.1403 25.287 39.1403C23.8117 39.1403 22.1482 40.0418 21.8305 40.2219C21.7945 40.2423 21.7533 40.253 21.7112 40.253C21.5623 40.253 21.4523 40.123 21.4865 39.9875L21.7357 38.9979C21.7357 38.9979 22.9146 37.8853 25.287 37.8853Z" fill="#8BC727"/>
<path d="M29.0876 39.9873L28.8383 38.9978C28.8383 38.9978 28.5413 38.7177 27.9458 38.4385L28.2335 39.581C28.2658 39.7093 28.1872 39.8333 28.0634 39.875C28.3963 40.0295 28.6407 40.1635 28.7435 40.2218C28.7795 40.2422 28.8207 40.2529 28.8628 40.2529C29.0117 40.2528 29.1217 40.1229 29.0876 39.9873Z" fill="#81B823"/>
<path d="M20.754 44.4887L21.4387 43.8482C21.7051 43.5989 21.8548 43.2609 21.8548 42.9085V42.2379C21.8548 42.158 21.886 42.0808 21.9425 42.0209L23.7794 40.0742C23.9437 39.9001 23.9426 39.6386 23.7769 39.4657C23.6175 39.2993 23.3531 39.2649 23.1512 39.3843L20.6693 40.8514C20.61 40.8864 20.5551 40.9275 20.5056 40.9739L18.7512 42.615L20.754 44.4887Z" fill="#FED2A4"/>
<path d="M27.9746 46.5693L29.7949 47.1975C30.5234 47.4493 31.0574 48.0394 31.2023 48.7531L31.5109 50.2729" stroke="#252525" stroke-opacity="0.5" stroke-width="0.235317" stroke-miterlimit="10" stroke-linecap="round" stroke-linejoin="round"/>
<path d="M16.1675 45.0326L18.7511 42.6157L20.7538 44.4892L18.53 46.5696H22.5987" stroke="#252525" stroke-opacity="0.5" stroke-width="0.235317" stroke-miterlimit="10" stroke-linecap="round" stroke-linejoin="round"/>
<path d="M31.7655 51.5299L32.0646 53.0023C32.1103 53.2275 31.9258 53.436 31.6808 53.436H21.2577C21.042 53.436 20.8671 53.2724 20.8671 53.0706V51.1473L15.6023 49.9297C15.2374 49.8512 14.9077 49.6871 14.639 49.4598C14.3702 49.2325 14.1624 48.942 14.0425 48.6106C13.7792 47.883 13.98 47.0791 14.5605 46.5364L15.2007 45.9375" stroke="#252525" stroke-opacity="0.5" stroke-width="0.235317" stroke-miterlimit="10" stroke-linecap="round" stroke-linejoin="round"/>
<path d="M23.7083 46.0986V45.394" stroke="#252525" stroke-opacity="0.5" stroke-width="0.235317" stroke-miterlimit="10" stroke-linecap="round" stroke-linejoin="round"/>
<path d="M26.8652 45.394V46.0986" stroke="#252525" stroke-opacity="0.5" stroke-width="0.235317" stroke-miterlimit="10" stroke-linecap="round" stroke-linejoin="round"/>
<path d="M28.797 42.3901V42.4603C28.797 43.3669 28.404 44.1878 27.7686 44.7821C27.1333 45.3764 26.2558 45.7441 25.2866 45.7441C23.5784 45.7441 22.1551 44.6027 21.8411 43.0904" stroke="#252525" stroke-opacity="0.5" stroke-width="0.235317" stroke-miterlimit="10" stroke-linecap="round" stroke-linejoin="round"/>
<path d="M28.7971 42.3904H29.1542C29.7851 42.3904 30.2966 41.912 30.2966 41.3217C30.2966 40.7314 29.7851 40.2529 29.1542 40.2529H28.7971V42.3904Z" stroke="#252525" stroke-opacity="0.5" stroke-width="0.235317" stroke-miterlimit="10" stroke-linecap="round" stroke-linejoin="round"/>
<path d="M25.2866 48.2309L23.967 49.4654C23.8434 49.581 23.6327 49.5339 23.5785 49.3783L22.5986 46.5698L23.7082 46.0986L25.2866 48.2309Z" stroke="#252525" stroke-opacity="0.5" stroke-width="0.235317" stroke-miterlimit="10" stroke-linecap="round" stroke-linejoin="round"/>
<path d="M25.2866 48.2309L26.6062 49.4654C26.7299 49.581 26.9405 49.5339 26.9947 49.3783L27.9746 46.5698L26.865 46.0986L25.2866 48.2309Z" stroke="#252525" stroke-opacity="0.5" stroke-width="0.235317" stroke-miterlimit="10" stroke-linecap="round" stroke-linejoin="round"/>
<path d="M25.9702 35.2744H27.1616C27.4796 35.2744 27.7874 35.38 28.03 35.5726L29.3062 36.5848C29.719 36.9122 29.8175 37.471 29.539 37.9051L28.8378 38.9981" stroke="#252525" stroke-opacity="0.5" stroke-width="0.235317" stroke-miterlimit="10" stroke-linecap="round" stroke-linejoin="round"/>
<path d="M21.7355 38.9981L21.0344 37.9051C20.7558 37.471 20.8543 36.9122 21.2672 36.5848L22.5433 35.5726C22.7859 35.38 23.0937 35.2744 23.4117 35.2744H24.6031" stroke="#252525" stroke-opacity="0.5" stroke-width="0.235317" stroke-miterlimit="10" stroke-linecap="round" stroke-linejoin="round"/>
<path d="M23.7108 39.4094C24.214 39.2545 24.7624 39.1405 25.2866 39.1405C26.762 39.1405 28.4257 40.042 28.7433 40.2221C28.7792 40.2426 28.8202 40.2532 28.8624 40.2532C29.0112 40.2532 29.1214 40.1231 29.087 39.9875L28.8378 38.998C28.8378 38.998 27.6589 37.8853 25.2866 37.8853C22.9144 37.8853 21.7354 38.998 21.7354 38.998L21.4862 39.9875C21.4819 40.0043 21.48 40.0212 21.48 40.0376C21.48 40.1458 21.5671 40.2397 21.6847 40.2517" stroke="#252525" stroke-opacity="0.5" stroke-width="0.235317" stroke-miterlimit="10" stroke-linecap="round" stroke-linejoin="round"/>
<path d="M20.7537 44.4892L21.4385 43.8486C21.7049 43.5994 21.8545 43.2614 21.8545 42.909V42.2384C21.8545 42.1585 21.8857 42.0813 21.9423 42.0213L23.7792 40.0747C23.9434 39.9006 23.9423 39.639 23.7767 39.4662C23.6173 39.2998 23.3528 39.2654 23.1509 39.3848L20.6691 40.8519C20.6098 40.8869 20.5549 40.928 20.5053 40.9744L18.751 42.6155L20.7537 44.4892Z" stroke="#252525" stroke-opacity="0.5" stroke-width="0.235317" stroke-miterlimit="10" stroke-linecap="round" stroke-linejoin="round"/>
<path d="M29.7061 53.4356V51.147" stroke="#252525" stroke-opacity="0.5" stroke-width="0.235317" stroke-miterlimit="10" stroke-linecap="round" stroke-linejoin="round"/>
<path d="M17.8137 47.2395L18.5301 46.5693" stroke="#252525" stroke-opacity="0.5" stroke-width="0.235317" stroke-miterlimit="10" stroke-linecap="round" stroke-linejoin="round"/>
<path d="M27.1018 51.147H28.4434" stroke="#252525" stroke-opacity="0.5" stroke-width="0.235317" stroke-miterlimit="10" stroke-linecap="round" stroke-linejoin="round"/>
<path d="M23.4715 51.147H22.1299" stroke="#252525" stroke-opacity="0.5" stroke-width="0.235317" stroke-miterlimit="10" stroke-linecap="round" stroke-linejoin="round"/>
<path d="M17.8743 43.436L19.8771 45.3096" stroke="#252525" stroke-opacity="0.5" stroke-width="0.235317" stroke-miterlimit="10" stroke-linecap="round" stroke-linejoin="round"/>
<path d="M25.2866 48.231V53.4358" stroke="#252525" stroke-opacity="0.5" stroke-width="0.235317" stroke-miterlimit="10" stroke-linecap="round" stroke-linejoin="round"/>
</g>
<defs>
<clipPath id="clip0_3222_5461">
<rect width="20" height="18.7097" fill="white" transform="translate(13 35)"/>
</clipPath>
</defs>
</svg>
