<svg width="32" height="32" viewBox="0 0 32 32" fill="none" xmlns="http://www.w3.org/2000/svg">
<path d="M18.5335 18.4851C20.9895 16.0291 20.9895 12.0471 18.5335 9.59106C16.0774 7.13503 12.0954 7.13503 9.63941 9.59106C7.18339 12.0471 7.18339 16.0291 9.63941 18.4851C12.0954 20.9411 16.0774 20.9411 18.5335 18.4851Z" fill="#2897FF"/>
<mask id="path-2-inside-1_2574_209040" fill="white">
<path d="M25.2869 25.2359C25.2172 25.3056 25.1345 25.3609 25.0435 25.3986C24.9525 25.4363 24.8549 25.4557 24.7564 25.4557C24.6578 25.4557 24.5603 25.4363 24.4692 25.3986C24.3782 25.3609 24.2955 25.3056 24.2259 25.2359L19.0419 20.0519C17.4991 21.3265 15.5251 21.9584 13.529 21.8168C11.5329 21.6752 9.66788 20.7709 8.32055 19.2913C6.97321 17.8117 6.24694 15.8704 6.29229 13.8698C6.33764 11.8692 7.15114 9.96279 8.56413 8.54579C9.97713 7.12879 11.8812 6.3099 13.8817 6.25888C15.8822 6.20787 17.8255 6.92864 19.3089 8.27178C20.7923 9.61492 21.7019 11.4774 21.8492 13.4731C21.9964 15.4688 21.37 17.4446 20.0999 18.9909L25.2839 24.1749C25.3538 24.2444 25.4093 24.3269 25.4473 24.4178C25.4852 24.5087 25.5049 24.6063 25.5052 24.7048C25.5055 24.8033 25.4863 24.9009 25.4489 24.9921C25.4114 25.0832 25.3564 25.1661 25.2869 25.2359Z"/>
</mask>
<path d="M25.2869 25.2359C25.2172 25.3056 25.1345 25.3609 25.0435 25.3986C24.9525 25.4363 24.8549 25.4557 24.7564 25.4557C24.6578 25.4557 24.5603 25.4363 24.4692 25.3986C24.3782 25.3609 24.2955 25.3056 24.2259 25.2359L19.0419 20.0519C17.4991 21.3265 15.5251 21.9584 13.529 21.8168C11.5329 21.6752 9.66788 20.7709 8.32055 19.2913C6.97321 17.8117 6.24694 15.8704 6.29229 13.8698C6.33764 11.8692 7.15114 9.96279 8.56413 8.54579C9.97713 7.12879 11.8812 6.3099 13.8817 6.25888C15.8822 6.20787 17.8255 6.92864 19.3089 8.27178C20.7923 9.61492 21.7019 11.4774 21.8492 13.4731C21.9964 15.4688 21.37 17.4446 20.0999 18.9909L25.2839 24.1749C25.3538 24.2444 25.4093 24.3269 25.4473 24.4178C25.4852 24.5087 25.5049 24.6063 25.5052 24.7048C25.5055 24.8033 25.4863 24.9009 25.4489 24.9921C25.4114 25.0832 25.3564 25.1661 25.2869 25.2359Z" fill="#2897FF"/>
<path d="M25.2869 25.2359L26.3479 26.2962L26.3502 26.2939L25.2869 25.2359ZM24.2259 25.2359L25.2869 24.1756L25.2865 24.1753L24.2259 25.2359ZM19.0419 20.0519L20.1025 18.9913L19.138 18.0268L18.0865 18.8955L19.0419 20.0519ZM20.0999 18.9909L18.9408 18.0388L18.0775 19.0898L19.0392 20.0516L20.0999 18.9909ZM25.2839 24.1749L24.2232 25.2356L24.2266 25.2389L25.2839 24.1749ZM24.2259 24.1756C24.2955 24.1059 24.3782 24.0506 24.4692 24.0129L25.6177 26.7843C25.8908 26.6712 26.1389 26.5053 26.3479 26.2962L24.2259 24.1756ZM24.4692 24.0129C24.5603 23.9752 24.6578 23.9557 24.7564 23.9557V26.9557C25.052 26.9557 25.3447 26.8975 25.6177 26.7843L24.4692 24.0129ZM24.7564 23.9557C24.8549 23.9557 24.9525 23.9752 25.0435 24.0129L23.895 26.7843C24.1681 26.8975 24.4608 26.9557 24.7564 26.9557V23.9557ZM25.0435 24.0129C25.1345 24.0506 25.2172 24.1059 25.2869 24.1756L23.1649 26.2962C23.3738 26.5053 23.6219 26.6712 23.895 26.7843L25.0435 24.0129ZM25.2865 24.1753L20.1025 18.9913L17.9812 21.1126L23.1652 26.2966L25.2865 24.1753ZM18.0865 18.8955C16.8408 19.9246 15.2469 20.4349 13.6352 20.3206L13.4229 23.3131C15.8033 23.4819 18.1575 22.7283 19.9972 21.2083L18.0865 18.8955ZM13.6352 20.3206C12.0234 20.2062 10.5175 19.476 9.42961 18.2814L7.21148 20.3012C8.81825 22.0657 11.0424 23.1442 13.4229 23.3131L13.6352 20.3206ZM9.42961 18.2814C8.34171 17.0867 7.75528 15.5192 7.7919 13.9038L4.79267 13.8358C4.73859 16.2216 5.60471 18.5368 7.21148 20.3012L9.42961 18.2814ZM7.7919 13.9038C7.82852 12.2884 8.48538 10.7491 9.62629 9.60495L7.50197 7.48664C5.8169 9.17649 4.84675 11.45 4.79267 13.8358L7.7919 13.9038ZM9.62629 9.60495C10.7672 8.4608 12.3047 7.79959 13.9199 7.75839L13.8435 4.75937C11.4578 4.82021 9.18704 5.79678 7.50197 7.48664L9.62629 9.60495ZM13.9199 7.75839C15.5352 7.7172 17.1044 8.29919 18.3021 9.3837L20.3157 7.15986C18.5467 5.5581 16.2291 4.69853 13.8435 4.75937L13.9199 7.75839ZM18.3021 9.3837C19.4999 10.4682 20.2343 11.9721 20.3532 13.5835L23.3451 13.3627C23.1695 10.9827 22.0847 8.76163 20.3157 7.15986L18.3021 9.3837ZM20.3532 13.5835C20.4721 15.1949 19.9664 16.7902 18.9408 18.0388L21.259 19.943C22.7737 18.0989 23.5207 15.7427 23.3451 13.3627L20.3532 13.5835ZM19.0392 20.0516L24.2232 25.2356L26.3445 23.1142L21.1605 17.9303L19.0392 20.0516ZM24.2266 25.2389C24.1567 25.1694 24.1011 25.0869 24.0632 24.996L26.8314 23.8397C26.7174 23.5669 26.5509 23.3193 26.3412 23.1109L24.2266 25.2389ZM24.0632 24.996C24.0252 24.9051 24.0055 24.8076 24.0052 24.709L27.0052 24.7005C27.0044 24.405 26.9453 24.1124 26.8314 23.8397L24.0632 24.996ZM24.0052 24.709C24.0049 24.6105 24.0241 24.5129 24.0615 24.4217L26.8362 25.5624C26.9486 25.289 27.006 24.9961 27.0052 24.7005L24.0052 24.709ZM24.0615 24.4217C24.099 24.3306 24.1541 24.2478 24.2236 24.1779L26.3502 26.2939C26.5587 26.0844 26.7238 25.8358 26.8362 25.5624L24.0615 24.4217Z" fill="#2897FF" mask="url(#path-2-inside-1_2574_209040)"/>
</svg>
