<svg width="24" height="24" viewBox="0 0 24 24" fill="none" xmlns="http://www.w3.org/2000/svg">
<path d="M14.6893 0.75L14.75 0.81066V1.2V4C14.75 5.21421 15.7858 6.25 17 6.25H19.8H20.1893L20.25 6.31066V21C20.25 22.2858 19.2858 23.25 18 23.25H6C4.71421 23.25 3.75 22.2858 3.75 21V3C3.75 1.71421 4.71421 0.75 6 0.75H14.6893ZM14.2303 17.8303L14.45 17.6107L14.45 17.3L13.7 17.3C14.45 17.3 14.45 17.2996 14.45 17.2993L14.45 17.2985L14.45 17.297L14.45 17.294L14.4499 17.2876L14.4496 17.2739C14.4494 17.2688 14.4492 17.2634 14.4489 17.2577C14.4486 17.2527 14.4483 17.2476 14.4479 17.2423C14.4463 17.2196 14.4434 17.1921 14.4382 17.1611C14.4285 17.1026 14.4076 17.0131 14.3583 16.9146C14.3347 16.8674 14.3031 16.8153 14.2613 16.7632C14.2028 16.6333 14.1074 16.5036 13.9535 16.401C13.8056 16.3024 13.6604 16.2714 13.5726 16.2597C13.4966 16.2496 13.4253 16.2499 13.404 16.25C13.4023 16.25 13.401 16.25 13.4 16.25H13.15V12.4C13.15 12.0796 13.0399 11.7543 12.7928 11.5072C12.5457 11.2601 12.2204 11.15 11.9 11.15C11.5796 11.15 11.2543 11.2601 11.0072 11.5072C10.7601 11.7543 10.65 12.0796 10.65 12.4V16.15H10.4H10.0893L9.86967 16.3697L9.76967 16.4697C9.63792 16.6014 9.475 16.8309 9.475 17.15C9.475 17.4691 9.63792 17.6986 9.76967 17.8303L10.3 17.3L9.76967 17.8303L11.2697 19.3303C11.4921 19.5528 11.7761 19.625 12 19.625C12.2239 19.625 12.5079 19.5528 12.7303 19.3303L14.2303 17.8303Z" stroke="#F4F4F4" stroke-opacity="0.5" stroke-width="1.5"/>
</svg>
