<?xml version="1.0" encoding="UTF-8" standalone="no"?>
<!-- Created with Inkscape (http://www.inkscape.org/) -->

<svg
   version="1.1"
   id="svg603"
   xml:space="preserve"
   width="682.66669"
   height="682.66669"
   viewBox="0 0 682.66669 682.66669"
   xmlns="http://www.w3.org/2000/svg"
   xmlns:svg="http://www.w3.org/2000/svg"><defs
     id="defs607"><clipPath
       clipPathUnits="userSpaceOnUse"
       id="clipPath617"><path
         d="M 0,512 H 512 V 0 H 0 Z"
         id="path615" /></clipPath></defs><g
     id="g609"
     transform="matrix(1.3333333,0,0,-1.3333333,0,682.66667)"><g
       id="g611"><g
         id="g613"
         clip-path="url(#clipPath617)"><g
           id="g619"
           transform="translate(406,300)"><path
             d="m 0,0 v -75 c 0,-82.705 -67.295,-150 -150,-150 -82.705,0 -150,67.295 -150,150 V 0"
             style="fill:none;stroke:#000000;stroke-width:30;stroke-linecap:butt;stroke-linejoin:miter;stroke-miterlimit:10;stroke-dasharray:none;stroke-opacity:1"
             id="path621" /></g><g
           id="g623"
           transform="translate(256,135)"><path
             d="m 0,0 c -49.706,0 -90,40.294 -90,90 v 182 c 0,49.706 40.294,90 90,90 49.706,0 90,-40.294 90,-90 V 90 C 90,40.294 49.706,0 0,0 Z"
             style="fill:none;stroke:#000000;stroke-width:30;stroke-linecap:butt;stroke-linejoin:miter;stroke-miterlimit:10;stroke-dasharray:none;stroke-opacity:1"
             id="path625" /></g><g
           id="g627"
           transform="translate(166,285)"><path
             d="M 0,0 H 180"
             style="fill:none;stroke:#000000;stroke-width:30;stroke-linecap:butt;stroke-linejoin:miter;stroke-miterlimit:10;stroke-dasharray:none;stroke-opacity:1"
             id="path629" /></g><g
           id="g631"
           transform="translate(256,135.0012)"><path
             d="M 0,0 V -120.001"
             style="fill:none;stroke:#000000;stroke-width:30;stroke-linecap:butt;stroke-linejoin:miter;stroke-miterlimit:10;stroke-dasharray:none;stroke-opacity:1"
             id="path633" /></g><g
           id="g635"
           transform="translate(181,15)"><path
             d="M 0,0 H 150"
             style="fill:none;stroke:#000000;stroke-width:30;stroke-linecap:butt;stroke-linejoin:miter;stroke-miterlimit:10;stroke-dasharray:none;stroke-opacity:1"
             id="path637" /></g></g></g></g></svg>
