<svg width="46" height="46" viewBox="0 0 46 46" fill="none" xmlns="http://www.w3.org/2000/svg">
<g clip-path="url(#clip0_2581_210298)">
<path d="M22.5977 0C10.1178 0 0 10.1178 0 22.5977C0 35.0777 10.1178 45.1955 22.5977 45.1955C35.0777 45.1955 45.1955 35.0777 45.1955 22.5977C45.1955 10.1178 35.0777 0 22.5977 0ZM27.6902 8.09281C28.7097 9.7488 32.0588 10.8902 34.5781 10.997L34.466 13.6425C31.7948 13.5295 27.1861 12.3272 25.4348 9.48045L27.6902 8.09281ZM17.5053 8.09281L19.7607 9.48045C18.0093 12.3272 13.4006 13.5295 10.7295 13.6425L10.6174 10.997C13.1367 10.8902 16.4858 9.7488 17.5053 8.09281ZM8.7831 16.9218H11.4313C11.4313 18.3298 12.5762 19.4747 13.9832 19.4747C15.3912 19.4747 16.5361 18.3298 16.5361 16.9218H19.1842C19.1842 19.7898 16.8512 22.1228 13.9832 22.1228C11.1161 22.1228 8.7831 19.7898 8.7831 16.9218ZM29.7001 32.9997C28.4908 30.1406 25.7023 28.2922 22.5977 28.2922H22.5898C19.4747 28.2957 16.6861 30.1538 15.483 33.0289L13.0405 32.0067C14.6559 28.1439 18.4039 25.6475 22.5898 25.644H22.5977C26.7686 25.644 30.514 28.1262 32.1391 31.9687L29.7001 32.9997ZM31.2122 22.1228C28.3443 22.1228 26.0112 19.7898 26.0112 16.9218H28.6594C28.6594 18.3298 29.8043 19.4747 31.2122 19.4747C32.6193 19.4747 33.7642 18.3298 33.7642 16.9218H36.4124C36.4124 19.7898 34.0793 22.1228 31.2122 22.1228Z" fill="#FFDD00"/>
</g>
<defs>
<clipPath id="clip0_2581_210298">
<rect width="45.1955" height="45.1955" fill="white"/>
</clipPath>
</defs>
</svg>
