<svg width="44" height="44" viewBox="0 0 44 44" fill="none" xmlns="http://www.w3.org/2000/svg">
<mask id="mask0_3287_6821" style="mask-type:luminance" maskUnits="userSpaceOnUse" x="20" y="10" width="24" height="24">
<path d="M20 10H44V34H20V10Z" fill="white"/>
</mask>
<g mask="url(#mask0_3287_6821)">
<path d="M25.2221 10.7031C24.8229 10.7031 24.4389 10.8617 24.1564 11.1445C23.874 11.4269 23.7158 11.8098 23.7158 12.2094V32.2674C23.7158 32.836 24.1752 33.2969 24.7438 33.2969H24.7476C25.0526 33.2969 25.3426 33.1757 25.5572 32.9602C26.5551 31.9631 29.4998 29.0184 30.7161 27.8043C31.055 27.4636 31.5182 27.2719 32.0002 27.2719C32.4822 27.2719 32.9454 27.4636 33.2843 27.8043C34.5043 29.0222 37.4641 31.9812 38.4507 32.9693C38.6616 33.179 38.944 33.2969 39.2415 33.2969C39.8177 33.2969 40.2846 32.8303 40.2846 32.2546V12.2094C40.2846 11.8098 40.1264 11.4269 39.844 11.1445C39.5615 10.8617 39.1775 10.7031 38.7783 10.7031H25.2221Z" stroke="black" stroke-miterlimit="10" stroke-linecap="round" stroke-linejoin="round"/>
</g>
</svg>
