<svg width="45" height="44" viewBox="0 0 45 44" fill="none" xmlns="http://www.w3.org/2000/svg">
<mask id="mask0_3287_6820" style="mask-type:luminance" maskUnits="userSpaceOnUse" x="20" y="10" width="25" height="24">
<path d="M20.5 10H44.5V34H20.5V10Z" fill="white"/>
</mask>
<g mask="url(#mask0_3287_6820)">
<path d="M25.7221 10.7031C25.3229 10.7031 24.9389 10.8617 24.6564 11.1445C24.374 11.4269 24.2158 11.8098 24.2158 12.2094V32.2674C24.2158 32.836 24.6752 33.2969 25.2438 33.2969H25.2476C25.5526 33.2969 25.8426 33.1757 26.0572 32.9602C27.0551 31.9631 29.9998 29.0184 31.2161 27.8043C31.555 27.4636 32.0182 27.2719 32.5002 27.2719C32.9822 27.2719 33.4454 27.4636 33.7843 27.8043C35.0043 29.0222 37.9641 31.9812 38.9507 32.9693C39.1616 33.179 39.444 33.2969 39.7415 33.2969C40.3177 33.2969 40.7846 32.8303 40.7846 32.2546V12.2094C40.7846 11.8098 40.6264 11.4269 40.344 11.1445C40.0615 10.8617 39.6775 10.7031 39.2783 10.7031H25.7221Z" fill="#E10000" stroke="#E10000" stroke-miterlimit="10" stroke-linecap="round" stroke-linejoin="round"/>
</g>
</svg>
