<?xml version="1.0" encoding="UTF-8" standalone="no"?>
<!-- Created with Inkscape (http://www.inkscape.org/) -->
<svg xmlns="http://www.w3.org/2000/svg" xmlns:svg="http://www.w3.org/2000/svg" version="1.1" id="svg1056" width="682.66669" height="682.66669" viewBox="0 0 682.66669 682.66669">
  <defs id="defs1060">
    <clipPath clipPathUnits="userSpaceOnUse" id="clipPath1078">
      <path d="M 0,512 H 512 V 0 H 0 Z" id="path1076"/>
    </clipPath>
  </defs>
  <mask id="custom"><rect id="bg" x="0" y="0" width="100%" height="100%" fill="white"/><g transform="matrix(1.3333333,0,0,-1.3333333,0,682.66667)"/></mask><g mask="url(#custom)"><g id="g1062" transform="matrix(1.3333333,0,0,-1.3333333,0,682.66667)">
    <g id="g1064" transform="translate(321.71,123.99)">
      <path d="M 0,0 -131.42,92.55" style="fill:none;stroke:#000000;stroke-width:30;stroke-linecap:butt;stroke-linejoin:round;stroke-miterlimit:10;stroke-dasharray:none;stroke-opacity:1" id="path1066"/>
    </g>
    <g id="g1068" transform="translate(190.29,295.46)">
      <path d="M 0,0 131.42,92.55" style="fill:none;stroke:#000000;stroke-width:30;stroke-linecap:butt;stroke-linejoin:round;stroke-miterlimit:10;stroke-dasharray:none;stroke-opacity:1" id="path1070"/>
    </g>
    <g id="g1072">
      <g id="g1074" clip-path="url(#clipPath1078)">
        <g id="g1080" transform="translate(202.79,256)">
          <path d="m 0,0 c 0,-14.69 -4.62,-28.31 -12.5,-39.46 -12.4,-17.59 -32.87,-29.07 -56.03,-29.07 -37.85,0 -68.53,30.68 -68.53,68.53 0,37.85 30.68,68.53 68.53,68.53 23.16,0 43.63,-11.48 56.03,-29.07 C -4.62,28.31 0,14.69 0,0 Z" style="fill:none;stroke:#000000;stroke-width:30;stroke-linecap:round;stroke-linejoin:round;stroke-miterlimit:10;stroke-dasharray:none;stroke-opacity:1" id="path1082"/>
        </g>
        <g id="g1084" transform="translate(446.27,427.47)">
          <path d="m 0,0 c 0,-37.84 -30.68,-68.53 -68.53,-68.53 -23.15,0 -43.62,11.48 -56.03,29.07 -7.87,11.15 -12.5,24.77 -12.5,39.46 0,37.85 30.68,68.53 68.53,68.53 C -30.68,68.53 0,37.85 0,0 Z" style="fill:none;stroke:#000000;stroke-width:30;stroke-linecap:round;stroke-linejoin:round;stroke-miterlimit:10;stroke-dasharray:none;stroke-opacity:1" id="path1086"/>
        </g>
        <g id="g1088" transform="translate(446.2683,84.528)">
          <path d="m 0,0 c 0,-37.847 -30.681,-68.528 -68.528,-68.528 -37.847,0 -68.528,30.681 -68.528,68.528 0,37.847 30.681,68.528 68.528,68.528 C -30.681,68.528 0,37.847 0,0 Z" style="fill:none;stroke:#000000;stroke-width:30;stroke-linecap:round;stroke-linejoin:round;stroke-miterlimit:10;stroke-dasharray:none;stroke-opacity:1" id="path1090"/>
        </g>
      </g>
    </g>
  </g></g>
</svg>
