<svg id="Layer_1" enable-background="new 0 0 512 512" height="512" viewBox="0 0 512 512" width="512" xmlns="http://www.w3.org/2000/svg"><g id="Layer_2_00000096021273016167918260000012612172293593108647_"><g id="Layer_1-2"><g id="_45.Star"><path d="m346.9 153.1-90.9 95.6v-237.8c12.7-.1 24.3 7.1 29.9 18.5l53.3 108c.1.2.2.4.3.7z" fill="#faf180"/><path d="m165.1 153.1 90.9 95.6v-237.8c-12.7-.1-24.3 7.1-29.9 18.5l-53.3 108c-.1.2-.2.4-.3.7z" fill="#ffaa39"/><path d="m508.9 191.9-252.9 56.8 90.9-95.6 16.5 2.4c.2 0 .6.1.8.1l119.3 17.4c11.1 1.6 20.7 8.7 25.4 18.9z" fill="#ffc943"/><path d="m501.9 229.8-86.2 84.1-12.5 12.2-147.2-77.4 252.9-56.8c6 12.8 3.2 28-7 37.9z" fill="#ffaa39"/><path d="m414.9 493.3-158.9-244.6 147.1 77.4 3 17.2 20.3 118.8c2.1 11.7-2.3 23.7-11.5 31.2z" fill="#ffc943"/><path d="m414.9 493.3c-10.3 8.7-24.9 10.2-36.7 3.9l-106.6-56.1c-.2-.1-.5-.2-.8-.3l-14.8-7.8v-184.3z" fill="#ffaa39"/><path d="m256 248.7v184.3l-14.8 7.8c-.2.1-.6.2-.8.3l-106.6 56.1c-11.9 6.4-26.4 4.8-36.7-3.9z" fill="#faf180"/><path d="m256 248.7-158.8 244.6c-9.2-7.5-13.7-19.5-11.6-31.2l20.3-118.8 3-17.2z" fill="#ffc943"/><path d="m256 248.7-147.1 77.4-12.5-12.2-86.2-84.1c-10.2-9.8-13-25-7-37.9z" fill="#ffaa39"/><path d="m256 248.7-252.9-56.8c4.7-10.2 14.3-17.3 25.4-18.9l119.2-17.3c.2 0 .6-.1.8-.1l16.5-2.4z" fill="#ffc943"/></g></g></g></svg>