<?xml version="1.0" encoding="UTF-8" standalone="no"?>
<!-- Created with Inkscape (http://www.inkscape.org/) -->

<svg
   version="1.1"
   id="svg4980"
   width="682.66669"
   height="682.66669"
   viewBox="0 0 682.66669 682.66669"
   xmlns="http://www.w3.org/2000/svg"
   xmlns:svg="http://www.w3.org/2000/svg">
  <defs
     id="defs4984">
    <clipPath
       clipPathUnits="userSpaceOnUse"
       id="clipPath4994">
      <path
         d="M 0,512 H 512 V 0 H 0 Z"
         id="path4992" />
    </clipPath>
  </defs>
  <g
     id="g4986"
     transform="matrix(1.3333333,0,0,-1.3333333,0,682.66667)">
    <g
       id="g4988">
      <g
         id="g4990"
         clip-path="url(#clipPath4994)">
        <g
           id="g4996"
           transform="translate(150.499,210.9561)">
          <path
             d="m 0,0 c -5.483,0 -10.53,2.992 -13.161,7.804 l -45.798,83.752 -83.739,45.805 c -4.81,2.632 -7.801,7.678 -7.801,13.16 0,5.483 2.991,10.529 7.801,13.161 l 83.739,45.806 45.798,83.752 c 2.631,4.812 7.678,7.804 13.161,7.804 5.483,0 10.53,-2.992 13.161,-7.804 l 45.798,-83.752 83.739,-45.805 c 4.81,-2.632 7.801,-7.678 7.801,-13.161 0,-5.482 -2.991,-10.528 -7.801,-13.16 L 58.959,91.556 13.161,7.804 C 10.53,2.992 5.483,0 0,0"
             style="fill:#ffda45;fill-opacity:1;fill-rule:nonzero;stroke:none"
             id="path4998" />
        </g>
        <g
           id="g5000"
           transform="translate(404.7734,108.4785)">
          <path
             d="M 0,0 C -5.483,0 -10.53,2.992 -13.161,7.804 L -43.66,63.578 -99.425,94.082 c -4.81,2.632 -7.802,7.678 -7.802,13.16 0,5.483 2.992,10.529 7.802,13.16 l 55.765,30.505 30.499,55.774 c 2.631,4.811 7.678,7.803 13.161,7.803 5.483,0 10.53,-2.992 13.161,-7.803 L 43.66,150.907 99.425,120.402 c 4.81,-2.631 7.802,-7.677 7.802,-13.16 0,-5.482 -2.992,-10.528 -7.802,-13.16 L 43.66,63.578 13.161,7.804 C 10.53,2.992 5.483,0 0,0"
             style="fill:#ffda45;fill-opacity:1;fill-rule:nonzero;stroke:none"
             id="path5002" />
        </g>
        <g
           id="g5004"
           transform="translate(226.2148)">
          <path
             d="m 0,0 c -5.483,0 -10.53,2.992 -13.161,7.804 l -19.198,35.107 -35.102,19.201 c -4.81,2.632 -7.801,7.678 -7.801,13.16 0,5.483 2.991,10.529 7.801,13.161 l 35.102,19.201 19.198,35.107 c 2.631,4.812 7.678,7.804 13.161,7.804 5.483,0 10.53,-2.992 13.161,-7.804 L 32.359,107.634 67.461,88.433 c 4.81,-2.632 7.801,-7.678 7.801,-13.161 0,-5.482 -2.991,-10.528 -7.801,-13.16 L 32.359,42.911 13.161,7.804 C 10.53,2.992 5.483,0 0,0"
             style="fill:#ffda45;fill-opacity:1;fill-rule:nonzero;stroke:none"
             id="path5006" />
        </g>
        <g
           id="g5008"
           transform="translate(293.1968,374.6387)">
          <path
             d="m 0,0 -83.738,45.806 -45.799,83.752 c -2.558,4.678 -7.4,7.628 -12.707,7.788 v -301.013 c 5.307,0.16 10.149,3.11 12.707,7.788 L -83.738,-72.127 0,-26.32 c 4.81,2.632 7.801,7.677 7.801,13.16 C 7.801,-7.678 4.81,-2.632 0,0"
             style="fill:#ffa426;fill-opacity:1;fill-rule:nonzero;stroke:none"
             id="path5010" />
        </g>
        <g
           id="g5012"
           transform="translate(293.6758,88.4326)">
          <path
             d="M 0,0 -35.102,19.201 -54.3,54.309 c -2.631,4.811 -7.678,7.803 -13.161,7.803 -0.08,0 -0.159,-0.007 -0.239,-0.008 V -88.425 c 0.08,-0.001 0.159,-0.008 0.239,-0.008 5.483,0 10.53,2.993 13.161,7.804 L -35.102,-45.521 0,-26.32 c 4.81,2.632 7.801,7.677 7.801,13.16 C 7.801,-7.678 4.81,-2.632 0,0"
             style="fill:#ffa426;fill-opacity:1;fill-rule:nonzero;stroke:none"
             id="path5014" />
        </g>
        <g
           id="g5016"
           transform="translate(504.1987,228.8809)">
          <path
             d="m 0,0 -55.765,30.505 -30.5,55.773 c -2.631,4.812 -7.677,7.804 -13.16,7.804 v -214.484 c 5.483,0 10.529,2.992 13.16,7.803 l 30.5,55.775 L 0,-26.32 c 4.81,2.632 7.801,7.677 7.801,13.16 C 7.801,-7.678 4.81,-2.632 0,0"
             style="fill:#ffa426;fill-opacity:1;fill-rule:nonzero;stroke:none"
             id="path5018" />
        </g>
      </g>
    </g>
  </g>
</svg>
