<svg width="89" height="28" viewBox="0 0 89 28" fill="none" xmlns="http://www.w3.org/2000/svg">
<path opacity="0.7" d="M68.0084 6.51396C67.9026 8.41386 66.2958 9.86735 64.42 9.76019C62.5443 9.65303 61.1097 8.02578 61.2155 6.12588C61.3213 4.22595 62.9274 2.77243 64.8032 2.87959C66.6789 2.98675 68.1142 4.61403 68.0084 6.51396Z" fill="url(#paint0_radial_2575_209267)"/>
<path d="M64.9484 8.97056C64.8931 8.97056 64.8377 8.96891 64.7819 8.96579C64.0047 8.9214 63.291 8.57304 62.7724 7.98488C62.2539 7.39672 61.9924 6.63925 62.0362 5.85201C62.1231 4.28974 63.4002 3.06592 64.9438 3.06592C64.9991 3.06592 65.0544 3.06757 65.1101 3.07068C65.8877 3.11516 66.6014 3.46352 67.12 4.05168C67.6385 4.63975 67.9 5.39719 67.8562 6.18455C67.769 7.74673 66.4918 8.97056 64.9484 8.97056Z" fill="url(#paint1_linear_2575_209267)"/>
<path d="M64.9423 3.42002C64.9909 3.42002 65.0398 3.4214 65.089 3.42422C66.5039 3.50505 67.5856 4.73214 67.5058 6.16481C67.4288 7.54768 66.2978 8.61695 64.9468 8.61695C64.8981 8.61695 64.8492 8.61557 64.8 8.61277C63.3856 8.53197 62.3036 7.30488 62.3834 5.87219C62.4604 4.48932 63.5917 3.42007 64.9423 3.42002ZM64.9424 2.7124C63.2138 2.71246 61.7833 4.08292 61.6859 5.83233C61.5846 7.65237 62.9639 9.21661 64.7607 9.31924C64.8231 9.32283 64.8851 9.32456 64.9468 9.32456C66.6755 9.32456 68.1059 7.95414 68.2033 6.20464C68.3047 4.38463 66.9252 2.82039 65.1283 2.7177C65.066 2.71414 65.004 2.7124 64.9424 2.7124Z" fill="white"/>
<path d="M64.4065 5.84029C64.3436 5.8367 64.2955 5.78217 64.2991 5.71849C64.307 5.57635 64.1993 5.45422 64.0589 5.44619C63.9186 5.43819 63.798 5.54729 63.7901 5.68942C63.7866 5.75308 63.7327 5.80179 63.6698 5.7982C63.607 5.79461 63.5589 5.74008 63.5624 5.67642C63.5774 5.40713 63.8059 5.20042 64.0718 5.21563C64.3376 5.23081 64.5417 5.46225 64.5267 5.73152C64.5232 5.79517 64.4693 5.84388 64.4065 5.84029Z" fill="#002538"/>
<path d="M66.2302 5.94432C66.1673 5.94074 66.1192 5.8862 66.1228 5.82252C66.1307 5.68038 66.023 5.55825 65.8827 5.55022C65.7423 5.54222 65.6217 5.65132 65.6138 5.79345C65.6103 5.85711 65.5564 5.90582 65.4936 5.90223C65.4307 5.89864 65.3826 5.84411 65.3862 5.78042C65.4012 5.51116 65.6296 5.30445 65.8955 5.31963C66.1613 5.33481 66.3654 5.56625 66.3504 5.83552C66.3469 5.8992 66.2931 5.94791 66.2302 5.94432Z" fill="#002538"/>
<path d="M64.8761 7.2516C64.5728 7.23428 64.3238 6.9904 64.2968 6.68433C64.2912 6.62079 64.3376 6.56473 64.4003 6.55905C64.463 6.55343 64.5184 6.60029 64.524 6.6638C64.5409 6.85653 64.6979 7.01007 64.8889 7.02102C65.0801 7.03193 65.2531 6.89721 65.2913 6.70766C65.3039 6.64515 65.3642 6.60488 65.4259 6.61765C65.4876 6.63041 65.5274 6.69142 65.5148 6.75393C65.454 7.05496 65.1794 7.26893 64.8761 7.2516Z" fill="#002538"/>
<path opacity="0.7" d="M87.6076 19.205C87.2747 20.8679 85.6736 21.9427 84.0319 21.6056C82.3901 21.2684 81.3293 19.6469 81.6622 17.984C81.995 16.3211 83.5956 15.2462 85.2374 15.5833C86.8791 15.9205 87.9405 17.5421 87.6076 19.205Z" fill="url(#paint2_radial_2575_209267)"/>
<path d="M84.9707 21.0418C84.795 21.0418 84.6178 21.0237 84.4441 20.988C83.7541 20.8463 83.1596 20.4408 82.7706 19.8463C82.3815 19.2516 82.2442 18.5392 82.3843 17.8401C82.6326 16.5999 83.7183 15.6997 84.9658 15.6997C85.1414 15.6997 85.3186 15.7178 85.4921 15.7534C86.1826 15.8952 86.7769 16.3007 87.166 16.8953C87.5551 17.4899 87.6922 18.2023 87.5522 18.9015C87.304 20.1416 86.2184 21.0418 84.9707 21.0418Z" fill="url(#paint3_linear_2575_209267)"/>
<path d="M84.9672 16.0538C85.1179 16.0538 85.2707 16.069 85.4241 16.1005C86.6624 16.3548 87.4623 17.5775 87.2113 18.8314C86.9914 19.93 86.0378 20.6884 84.9721 20.6884C84.8214 20.6884 84.6685 20.6732 84.5151 20.6417C83.277 20.3874 82.477 19.1647 82.728 17.9107C82.9479 16.8121 83.9018 16.0539 84.9672 16.0538ZM84.9674 15.3462C83.5542 15.3463 82.3244 16.3657 82.0433 17.7701C81.7161 19.4046 82.7627 21.0039 84.3762 21.3352C84.5726 21.3755 84.773 21.396 84.9721 21.396C86.3851 21.396 87.6148 20.3766 87.896 18.9721C88.2231 17.3376 87.1765 15.7383 85.5629 15.4069C85.3666 15.3666 85.1662 15.3462 84.9674 15.3462Z" fill="white"/>
<path d="M84.5179 18.1457C84.4629 18.1344 84.4274 18.0801 84.4385 18.0244C84.4634 17.9 84.3837 17.7782 84.2609 17.753C84.1381 17.7278 84.0179 17.8085 83.993 17.9329C83.9819 17.9886 83.9282 18.0247 83.8732 18.0134C83.8182 18.0021 83.7826 17.9477 83.7938 17.892C83.841 17.6563 84.0686 17.5035 84.3013 17.5512C84.534 17.599 84.685 17.8296 84.6378 18.0653C84.6266 18.121 84.573 18.1571 84.5179 18.1457Z" fill="#002538"/>
<path d="M86.1141 18.4733C86.0591 18.4621 86.0235 18.4077 86.0347 18.352C86.0596 18.2276 85.98 18.1059 85.8571 18.0807C85.7343 18.0554 85.6141 18.1361 85.5892 18.2605C85.5781 18.3163 85.5244 18.3523 85.4694 18.341C85.4144 18.3297 85.3788 18.2753 85.39 18.2196C85.4371 17.9839 85.6648 17.8311 85.8975 17.8789C86.1302 17.9266 86.2811 18.1573 86.2339 18.3929C86.2228 18.4486 86.1691 18.4846 86.1141 18.4733Z" fill="#002538"/>
<path d="M84.7483 19.4511C84.4829 19.3966 84.2938 19.1492 84.3087 18.8757C84.3118 18.8189 84.3597 18.7754 84.4158 18.7785C84.4718 18.7816 84.5148 18.8302 84.5117 18.8869C84.5024 19.0592 84.6214 19.215 84.7887 19.2493C84.956 19.2837 85.1257 19.1872 85.1833 19.0249C85.2023 18.9713 85.2605 18.9436 85.3134 18.9628C85.3662 18.9821 85.3936 19.041 85.3746 19.0946C85.283 19.3523 85.0138 19.5056 84.7483 19.4511Z" fill="#002538"/>
<path opacity="0.7" d="M47.4125 12.4602C45.9066 17.5927 40.5767 20.5171 35.5094 18.9918C30.4421 17.4665 27.5559 12.0689 29.0618 6.93637C30.5677 1.80383 35.8959 -1.12114 40.9632 0.404191C46.0305 1.92955 48.9185 7.32765 47.4125 12.4602Z" fill="url(#paint4_radial_2575_209267)"/>
<path d="M39.3442 16.7577C38.6159 16.7577 37.8895 16.6502 37.1851 16.4381C35.2475 15.8549 33.6503 14.5423 32.6875 12.7421C31.7246 10.942 31.5116 8.86982 32.0874 6.90739C33.0346 3.67877 36.0162 1.42383 39.3382 1.42383C40.0662 1.42383 40.7924 1.53137 41.4965 1.74334C43.4346 2.32667 45.0321 3.63938 45.9949 5.43954C46.9576 7.2396 47.1706 9.31167 46.5948 11.2743C45.6475 14.5029 42.6659 16.7577 39.3442 16.7577Z" fill="url(#paint5_linear_2575_209267)"/>
<path d="M39.3405 1.77792C40.0214 1.7779 40.7135 1.87626 41.3994 2.08273C45.2217 3.23327 47.3979 7.30346 46.2623 11.1738C45.3306 14.3492 42.4586 16.4042 39.3465 16.4042C38.6654 16.4042 37.9732 16.3059 37.2868 16.0993C33.4657 14.9491 31.2889 10.8788 32.4245 7.00839C33.3563 3.83281 36.2287 1.77798 39.3405 1.77792ZM39.3406 1.07031C37.6698 1.07034 36.0045 1.625 34.6514 2.63211C33.2523 3.67341 32.2507 5.11699 31.7549 6.80681C31.1525 8.85991 31.3754 11.0277 32.3827 12.911C33.3899 14.7943 35.0609 16.1674 37.0879 16.7776C37.8247 16.9994 38.5846 17.1118 39.3465 17.1118C41.0174 17.1118 42.6827 16.5572 44.0358 15.55C45.4347 14.5087 46.4363 13.0651 46.932 11.3753C47.5345 9.3222 47.3116 7.15441 46.3044 5.27128C45.2971 3.38797 43.6258 2.01472 41.5984 1.40444C40.8619 1.18271 40.1023 1.07031 39.3406 1.07031Z" fill="white"/>
<path d="M37.9933 8.24955C37.8235 8.19843 37.7268 8.01756 37.7772 7.84554C37.8899 7.46161 37.6731 7.05638 37.2941 6.94228C36.915 6.82818 36.515 7.04771 36.4023 7.43166C36.3518 7.60368 36.1732 7.70169 36.0034 7.65057C35.8336 7.59945 35.7368 7.41857 35.7873 7.24655C36.0007 6.51911 36.7586 6.10318 37.4768 6.31938C38.195 6.53559 38.6057 7.30324 38.3922 8.03067C38.3418 8.20269 38.1632 8.30068 37.9933 8.24955Z" fill="#002538"/>
<path d="M42.922 9.73444C42.7522 9.68331 42.6554 9.50244 42.7059 9.33042C42.8186 8.94649 42.6018 8.54126 42.2228 8.42716C41.8437 8.31306 41.4436 8.53259 41.331 8.91654C41.2805 9.08856 41.1019 9.18655 40.9321 9.13545C40.7623 9.08433 40.6655 8.90345 40.716 8.73141C40.9294 8.00397 41.6874 7.58806 42.4056 7.80424C43.1237 8.02041 43.5344 8.78809 43.3209 9.51553C43.2705 9.68758 43.0919 9.78556 42.922 9.73444Z" fill="#002538"/>
<path d="M38.3693 12.422C37.55 12.1754 37.0243 11.3442 37.1465 10.4884C37.1719 10.3108 37.3346 10.1877 37.5099 10.2133C37.6852 10.2391 37.8068 10.4038 37.7815 10.5814C37.7045 11.1202 38.0358 11.6438 38.5521 11.7992C39.0685 11.9546 39.6283 11.6993 39.8544 11.2054C39.929 11.0426 40.1197 10.9719 40.2804 11.0473C40.4411 11.1228 40.5111 11.316 40.4365 11.4788C40.0775 12.2632 39.1887 12.6687 38.3693 12.422Z" fill="#002538"/>
<path opacity="0.7" d="M63.2842 14.9529C62.1753 20.6448 56.7195 24.3488 51.1 23.2256C45.4805 22.1025 41.8247 16.5773 42.9336 10.8855C44.0424 5.19357 49.4963 1.48916 55.1159 2.61232C60.7354 3.73548 64.3931 9.26101 63.2842 14.9529Z" fill="url(#paint6_radial_2575_209267)"/>
<path d="M54.2477 20.4275C53.7173 20.4275 53.182 20.3743 52.6572 20.2694C48.2376 19.3861 45.3515 15.0252 46.2236 10.5482C46.9771 6.68038 50.3447 3.87305 54.2308 3.87305C54.7611 3.87305 55.2959 3.92617 55.8206 4.03104C57.9622 4.45915 59.8108 5.70603 61.0258 7.54218C62.2409 9.37817 62.6774 11.5836 62.2548 13.7524C61.5014 17.6201 58.134 20.4275 54.2477 20.4275Z" fill="url(#paint7_linear_2575_209267)"/>
<path d="M54.231 4.22666C54.7332 4.2266 55.2419 4.27578 55.7532 4.378C59.9921 5.22521 62.7485 9.39159 61.9123 13.6837C61.177 17.4579 57.9082 20.0735 54.248 20.0735C53.7457 20.0735 53.2364 20.0243 52.7249 19.9221C48.4874 19.0752 45.7303 14.9087 46.5665 10.6166C47.3018 6.84232 50.5715 4.22701 54.231 4.22666ZM54.2317 3.51904H54.2309C50.1783 3.51943 46.6667 6.44674 45.8811 10.4795C45.4405 12.7409 45.8957 15.0407 47.1627 16.9553C48.4298 18.8699 50.3571 20.1701 52.5897 20.6163C53.1369 20.7257 53.6948 20.7811 54.2479 20.7811C58.3004 20.7811 61.812 17.8539 62.5977 13.8207C63.5072 9.15235 60.4974 4.60496 55.8884 3.68377C55.3416 3.57446 54.7842 3.51904 54.2317 3.51904Z" fill="white"/>
<path d="M52.6981 11.3845C52.5098 11.3468 52.3872 11.1617 52.4244 10.9709C52.5073 10.5451 52.2328 10.1303 51.8124 10.0463C51.3921 9.96229 50.9826 10.2404 50.8996 10.6661C50.8624 10.8569 50.6797 10.981 50.4913 10.9434C50.303 10.9057 50.1804 10.7206 50.2176 10.5298C50.3747 9.72312 51.1505 9.19635 51.947 9.35552C52.7435 9.51471 53.2635 10.3005 53.1064 11.1072C53.0693 11.298 52.8865 11.4221 52.6981 11.3845Z" fill="#002538"/>
<path d="M58.1629 12.4767C57.9746 12.4391 57.8521 12.2539 57.8892 12.0632C57.9722 11.6374 57.6977 11.2226 57.2773 11.1386C56.8569 11.0546 56.4474 11.3326 56.3644 11.7584C56.3273 11.9492 56.1445 12.0733 55.9561 12.0357C55.7678 11.998 55.6453 11.8129 55.6824 11.6221C55.8396 10.8154 56.6154 10.2886 57.4119 10.4478C58.2083 10.607 58.7284 11.3928 58.5713 12.1995C58.5341 12.3902 58.3513 12.5144 58.1629 12.4767Z" fill="#002538"/>
<path d="M53.5242 15.8453C52.6156 15.6637 51.965 14.8211 52.0108 13.8854C52.0203 13.6912 52.1835 13.5416 52.3752 13.5512C52.5669 13.561 52.7146 13.7261 52.7051 13.9203C52.6763 14.5095 53.0863 15.04 53.6588 15.1544C54.2314 15.2689 54.8098 14.9359 55.004 14.3798C55.0681 14.1964 55.2667 14.1005 55.4477 14.1653C55.6286 14.2302 55.7234 14.4314 55.6594 14.6146C55.3509 15.4978 54.433 16.0269 53.5242 15.8453Z" fill="#002538"/>
<path opacity="0.7" d="M12.3293 6.52727C11.9016 8.2217 10.1984 9.24424 8.52546 8.81104C6.85257 8.37787 5.84335 6.65299 6.27104 4.95855C6.6987 3.26412 8.4014 2.24144 10.0743 2.67461C11.7472 3.10778 12.7569 4.83283 12.3293 6.52727Z" fill="url(#paint8_radial_2575_209267)"/>
<path d="M9.65401 8.27303C9.42836 8.27303 9.20201 8.24408 8.98164 8.18699C8.28096 8.00567 7.69218 7.55882 7.32344 6.92878C6.95485 6.29873 6.85048 5.56103 7.02957 4.85145C7.33622 3.6366 8.41403 2.78809 9.65044 2.78809C9.87591 2.78809 10.1021 2.81703 10.3225 2.87413C11.7687 3.24858 12.6445 4.7449 12.2747 6.20975C11.968 7.4246 10.8904 8.27303 9.65401 8.27303Z" fill="url(#paint9_linear_2575_209267)"/>
<path d="M9.64916 3.14218C9.84246 3.14218 10.0388 3.16645 10.2347 3.21716C11.4966 3.54394 12.2575 4.84462 11.935 6.12236C11.6625 7.20163 10.7041 7.91954 9.6525 7.91954C9.45911 7.91954 9.2627 7.89527 9.0667 7.84456C7.80521 7.5179 7.04409 6.21719 7.36663 4.93945C7.63909 3.86006 8.59766 3.14221 9.64916 3.14218ZM9.64916 2.43457C8.25288 2.4346 7.03596 3.39257 6.68976 4.76417C6.48755 5.56523 6.60545 6.39815 7.02167 7.10944C7.43792 7.82079 8.10279 8.32529 8.89368 8.53011C9.14242 8.59453 9.39769 8.62715 9.65253 8.62715C11.0487 8.62715 12.2656 7.66922 12.6118 6.29764C13.0293 4.64383 12.0405 2.9544 10.4077 2.53161C10.1591 2.46722 9.90391 2.43457 9.64916 2.43457Z" fill="white"/>
<path d="M9.20114 5.27274C9.14509 5.25824 9.11122 5.20043 9.12557 5.14363C9.15757 5.01688 9.08178 4.8874 8.95664 4.85498C8.8315 4.82257 8.70366 4.89934 8.67165 5.02609C8.65731 5.08289 8.60027 5.11713 8.54419 5.10263C8.48811 5.0881 8.45428 5.0303 8.46863 4.9735C8.52927 4.73335 8.77144 4.58792 9.00853 4.64931C9.24566 4.71073 9.38921 4.95602 9.3286 5.19617C9.31428 5.253 9.25719 5.28727 9.20114 5.27274Z" fill="#002538"/>
<path d="M10.8261 5.69461C10.77 5.68008 10.7362 5.62228 10.7506 5.56548C10.7826 5.43873 10.7068 5.30925 10.5816 5.27683C10.4565 5.24441 10.3286 5.32119 10.2966 5.44794C10.2823 5.50474 10.2252 5.53898 10.1692 5.52448C10.1131 5.50995 10.0793 5.45217 10.0936 5.39537C10.1542 5.1552 10.3964 5.0098 10.6335 5.07119C10.8706 5.13258 11.0142 5.3779 10.9536 5.61805C10.9392 5.67485 10.8822 5.70912 10.8261 5.69461Z" fill="#002538"/>
<path d="M9.3728 6.63094C9.10231 6.5609 8.92039 6.29628 8.94961 6.01542C8.95568 5.95715 9.00725 5.91488 9.06479 5.921C9.12232 5.92721 9.16405 5.97939 9.15801 6.03766C9.1396 6.2145 9.25425 6.38114 9.42469 6.42526C9.59517 6.46942 9.77473 6.37896 9.84239 6.21489C9.86467 6.16076 9.92606 6.13526 9.97944 6.15782C10.0328 6.18041 10.0581 6.24257 10.0358 6.29666C9.92836 6.55728 9.64332 6.701 9.3728 6.63094Z" fill="#002538"/>
<path opacity="0.7" d="M15.1151 13.8466C16.023 18.017 13.4205 22.1439 9.30313 23.0635C5.18578 23.9831 1.11238 21.3473 0.204436 17.177C-0.703482 13.0066 1.89766 8.88002 6.01502 7.96038C10.1324 7.04078 14.2072 9.67623 15.1151 13.8466Z" fill="url(#paint10_radial_2575_209267)"/>
<path d="M8.19483 20.841C5.35514 20.841 2.84957 18.7993 2.23724 15.9865C1.51216 12.656 3.59713 9.34901 6.88492 8.61469C7.31984 8.5175 7.76415 8.46826 8.20575 8.46826C11.0453 8.46826 13.5508 10.5099 14.1632 13.3228C14.8882 16.6531 12.8031 19.9602 9.51499 20.6947C9.08021 20.7917 8.63605 20.841 8.19483 20.841Z" fill="url(#paint11_linear_2575_209267)"/>
<path d="M8.20585 8.82236C10.8492 8.82221 13.2296 10.6773 13.8222 13.3992C14.5068 16.5441 12.5455 19.6558 9.43981 20.3494C9.02234 20.4427 8.60537 20.4874 8.19478 20.4874C5.55194 20.4874 3.17104 18.6325 2.5784 15.9105C1.89378 12.7658 3.85549 9.65393 6.9603 8.96046C7.37788 8.86719 7.7952 8.82239 8.20585 8.82236ZM8.20617 8.11475V8.82236L8.20605 8.11475H8.20579C7.73898 8.11478 7.26932 8.16684 6.80986 8.26944C5.12602 8.64551 3.68757 9.66334 2.7595 11.1354C1.83146 12.6074 1.52484 14.3574 1.89613 16.0629C2.21471 17.526 3.02697 18.8439 4.18334 19.7739C5.32283 20.6903 6.74745 21.1951 8.19475 21.1951C8.66139 21.1951 9.13087 21.143 9.59022 21.0404C13.0665 20.264 15.2709 16.7678 14.5044 13.2469C14.1859 11.7838 13.3737 10.466 12.2176 9.536C11.0782 8.61951 9.65356 8.11475 8.20617 8.11475Z" fill="white"/>
<path d="M6.93323 14.597C6.79522 14.6279 6.6587 14.5395 6.62829 14.3998C6.56037 14.0878 6.25453 13.89 5.94652 13.9588C5.63854 14.0276 5.44321 14.3374 5.5111 14.6493C5.54154 14.7891 5.45433 14.9274 5.31635 14.9582C5.17835 14.989 5.04183 14.9007 5.01139 14.7609C4.88271 14.1699 5.25275 13.583 5.83631 13.4526C6.41987 13.3223 6.9993 13.6971 7.12798 14.2882C7.15841 14.4279 7.07123 14.5662 6.93323 14.597Z" fill="#002538"/>
<path d="M10.9389 13.702C10.8009 13.7328 10.6643 13.6445 10.6339 13.5048C10.566 13.1928 10.2601 12.9949 9.95214 13.0637C9.64412 13.1325 9.44882 13.4423 9.51672 13.7543C9.54716 13.8941 9.45997 14.0324 9.32197 14.0632C9.18396 14.094 9.04744 14.0057 9.01701 13.8659C8.88832 13.2749 9.25837 12.688 9.84192 12.5576C10.4255 12.4273 11.0049 12.8021 11.1336 13.3932C11.1641 13.5329 11.0769 13.6712 10.9389 13.702Z" fill="#002538"/>
<path d="M8.78713 17.3618C8.12138 17.5105 7.43743 17.1363 7.19613 16.4915C7.14603 16.3576 7.21256 16.208 7.3447 16.1573C7.47684 16.1067 7.62454 16.1739 7.67464 16.3078C7.82658 16.7138 8.25747 16.9493 8.67697 16.8556C9.09656 16.7619 9.38979 16.3647 9.35901 15.9315C9.34884 15.7887 9.45493 15.6648 9.59587 15.6545C9.7368 15.6442 9.85927 15.7516 9.86941 15.8944C9.91826 16.5822 9.45298 17.2131 8.78713 17.3618Z" fill="#002538"/>
<path opacity="0.7" d="M52.7399 19.0782C53.2847 20.6418 52.4746 22.3569 50.9309 22.9087C49.3873 23.4605 47.6943 22.6401 47.1495 21.0765C46.6047 19.513 47.4143 17.798 48.958 17.2462C50.5016 16.6944 52.1951 17.5146 52.7399 19.0782Z" fill="url(#paint12_radial_2575_209267)"/>
<path d="M50.1137 22.3401C49.02 22.3401 48.0405 21.6379 47.6763 20.5927C47.4466 19.9334 47.4839 19.2229 47.7819 18.592C48.0797 17.9612 48.6023 17.4856 49.2531 17.2529C49.5315 17.1535 49.821 17.103 50.1135 17.103C51.2071 17.103 52.1865 17.8052 52.5505 18.8503C53.0248 20.2115 52.3175 21.7097 50.9736 22.1902C50.6954 22.2896 50.4062 22.3401 50.1137 22.3401Z" fill="url(#paint13_linear_2575_209267)"/>
<path d="M50.1121 17.4566C51.0334 17.4566 51.8959 18.0379 52.2199 18.9679C52.6307 20.1469 52.0204 21.4401 50.8559 21.8563C50.61 21.9442 50.3589 21.986 50.1122 21.986C49.1909 21.986 48.3284 21.4047 48.0043 20.4748C47.5935 19.2957 48.204 18.0025 49.3681 17.5864C49.6142 17.4984 49.8653 17.4566 50.1121 17.4566ZM50.1122 16.749H50.1122C49.7798 16.749 49.4512 16.8063 49.1356 16.9191C48.3966 17.1832 47.8035 17.7231 47.4654 18.4392C47.1273 19.1552 47.0848 19.9618 47.3455 20.7103C47.7589 21.8965 48.8707 22.6936 50.1122 22.6936C50.4444 22.6936 50.7729 22.6364 51.0884 22.5236C51.8275 22.2594 52.4208 21.7196 52.7589 21.0035C53.0969 20.2874 53.1395 19.4809 52.8786 18.7324C52.4653 17.5461 51.3536 16.749 50.1122 16.749Z" fill="white"/>
<path d="M49.6256 19.7604C49.5739 19.7789 49.5171 19.7514 49.4989 19.699C49.4581 19.582 49.331 19.5205 49.2156 19.5617C49.1001 19.603 49.0393 19.7318 49.08 19.8487C49.0983 19.9011 49.0711 19.9586 49.0194 19.9771C48.9677 19.9956 48.9109 19.9681 48.8927 19.9157C48.8154 19.6941 48.9306 19.4502 49.1494 19.372C49.3682 19.2938 49.609 19.4104 49.6862 19.632C49.7045 19.6844 49.6774 19.7419 49.6256 19.7604Z" fill="#002538"/>
<path d="M51.1281 19.2238C51.0763 19.2423 51.0196 19.2148 51.0013 19.1624C50.9606 19.0454 50.8335 18.9838 50.718 19.0251C50.6025 19.0664 50.5417 19.1951 50.5825 19.3121C50.6007 19.3645 50.5736 19.422 50.5218 19.4405C50.4701 19.459 50.4134 19.4315 50.3951 19.3791C50.3179 19.1575 50.4331 18.9136 50.6519 18.8354C50.8707 18.7571 51.1114 18.8738 51.1887 19.0954C51.2069 19.1478 51.1798 19.2053 51.1281 19.2238Z" fill="#002538"/>
<path d="M50.4689 20.7372C50.2193 20.8264 49.9383 20.715 49.8152 20.4781C49.7896 20.4289 49.8083 20.3681 49.8568 20.3422C49.9054 20.3163 49.9654 20.3352 49.991 20.3843C50.0685 20.5335 50.2456 20.6036 50.4028 20.5474C50.5602 20.4912 50.6546 20.324 50.6225 20.1586C50.6119 20.1041 50.647 20.0512 50.7008 20.0405C50.7546 20.0298 50.8069 20.0653 50.8174 20.1198C50.8684 20.3825 50.7186 20.648 50.4689 20.7372Z" fill="#002538"/>
<path opacity="0.7" d="M45.7101 20.4378C46.3219 22.6345 45.0592 24.918 42.8904 25.5376C40.7216 26.1572 38.4677 24.8784 37.8559 22.6817C37.2442 20.4849 38.5062 18.2017 40.675 17.582C42.8437 16.9624 45.0984 18.241 45.7101 20.4378Z" fill="url(#paint14_radial_2575_209267)"/>
<path d="M42.0423 24.5573C40.5164 24.5573 39.1611 23.5172 38.7465 22.0281C38.498 21.1359 38.6073 20.1992 39.0545 19.3904C39.5016 18.5816 40.2328 17.9976 41.1136 17.746C41.4182 17.6589 41.7319 17.6147 42.0455 17.6147C43.5714 17.6147 44.9267 18.6548 45.3415 20.1438C45.8542 21.9856 44.7921 23.9066 42.9739 24.4261C42.6695 24.5131 42.356 24.5573 42.0423 24.5573Z" fill="url(#paint15_linear_2575_209267)"/>
<path d="M42.0466 17.9689C43.3898 17.9688 44.6237 18.8665 45.0062 20.2402C45.4675 21.8967 44.5161 23.6185 42.8801 24.0859C42.6009 24.1656 42.3198 24.2037 42.0433 24.2037C40.7004 24.2037 39.4662 23.306 39.0836 21.9323C38.6223 20.2758 39.5741 18.554 41.2095 18.0867C41.4888 18.0069 41.7701 17.9689 42.0466 17.9689ZM42.0468 17.2612C41.7008 17.2613 41.3553 17.3098 41.0199 17.4057C39.0163 17.9781 37.8461 20.0949 38.4112 22.1244C38.8682 23.7653 40.3618 24.9112 42.0434 24.9112C42.3891 24.9112 42.7344 24.8627 43.0698 24.7668C44.0406 24.4895 44.8466 23.8459 45.3393 22.9546C45.8319 22.0634 45.9525 21.0312 45.6787 20.0481C45.2217 18.4072 43.7282 17.2612 42.0468 17.2612Z" fill="white"/>
<path d="M41.3718 21.0954C41.2991 21.1162 41.2236 21.0734 41.2031 20.9997C41.1573 20.8354 40.9881 20.7394 40.8258 20.7858C40.6636 20.8321 40.5689 21.0035 40.6146 21.1679C40.6351 21.2415 40.5928 21.318 40.5201 21.3388C40.4474 21.3595 40.3719 21.3167 40.3514 21.243C40.2647 20.9317 40.4442 20.607 40.7516 20.5192C41.059 20.4314 41.3796 20.6132 41.4663 20.9245C41.4868 20.9982 41.4445 21.0747 41.3718 21.0954Z" fill="#002538"/>
<path d="M43.4805 20.4924C43.4078 20.5132 43.3323 20.4703 43.3117 20.3967C43.266 20.2324 43.0968 20.1364 42.9345 20.1828C42.7723 20.2291 42.6775 20.4005 42.7233 20.5648C42.7438 20.6385 42.7015 20.715 42.6288 20.7357C42.5561 20.7565 42.4806 20.7136 42.4601 20.64C42.3733 20.3287 42.5529 20.0039 42.8603 19.9161C43.1677 19.8283 43.4883 20.0101 43.575 20.3215C43.5955 20.3951 43.5532 20.4716 43.4805 20.4924Z" fill="#002538"/>
<path d="M42.4465 22.5117C42.0958 22.6118 41.7194 22.4336 41.571 22.0971C41.5402 22.0273 41.5711 21.9454 41.6401 21.9141C41.709 21.883 41.7899 21.9143 41.8207 21.9841C41.9142 22.196 42.1513 22.3082 42.3722 22.2451C42.5933 22.1819 42.7376 21.9608 42.708 21.7306C42.6982 21.6548 42.751 21.5853 42.8259 21.5754C42.9008 21.5655 42.9694 21.619 42.9792 21.6948C43.0262 22.0603 42.7972 22.4115 42.4465 22.5117Z" fill="#002538"/>
<path opacity="0.7" d="M39.1565 16.9417C39.9798 20.4104 37.8702 23.8989 34.4456 24.7327C31.021 25.5665 27.5778 23.43 26.7546 19.9614C25.9313 16.4926 28.0397 13.0044 31.4643 12.1706C34.8889 11.3368 38.3333 13.473 39.1565 16.9417Z" fill="url(#paint16_radial_2575_209267)"/>
<path d="M33.3883 22.9546C30.9971 22.9546 28.9362 21.3076 28.3766 18.9494C28.0544 17.5925 28.2734 16.1897 28.993 14.9995C29.7125 13.8092 30.8467 12.9741 32.1863 12.6479C32.5839 12.5511 32.991 12.502 33.3963 12.502C35.7874 12.502 37.8483 14.149 38.4078 16.507C38.7299 17.864 38.5111 19.2668 37.7915 20.457C37.0721 21.6472 35.9377 22.4824 34.5977 22.8087C34.2003 22.9055 33.7934 22.9546 33.3883 22.9546Z" fill="url(#paint17_linear_2575_209267)"/>
<path d="M33.397 12.8556C35.5694 12.8554 37.539 14.3563 38.069 16.5895C38.6898 19.2052 37.1001 21.8355 34.5169 22.4645C34.1392 22.5564 33.7611 22.6005 33.3891 22.6005C31.2171 22.6005 29.247 21.0997 28.717 18.8665C28.0962 16.2508 29.6863 13.6204 32.2687 12.9916C32.6464 12.8997 33.0249 12.8556 33.397 12.8556ZM33.3974 12.1479H33.3969C32.9641 12.148 32.5295 12.2003 32.1054 12.3036C29.1526 13.0226 27.3279 16.0408 28.0377 19.0319C28.6353 21.5497 30.8359 23.3081 33.3891 23.3081C33.8217 23.3081 34.2561 23.2558 34.6802 23.1525C36.1109 22.8041 37.3219 21.9124 38.0902 20.6415C38.8584 19.3708 39.0922 17.873 38.7483 16.4241C38.1507 13.9064 35.9504 12.1479 33.3974 12.1479Z" fill="white"/>
<path d="M32.3312 17.6997C32.2164 17.7276 32.101 17.656 32.0734 17.5398C32.0118 17.2803 31.7533 17.1199 31.4971 17.1823C31.2409 17.2447 31.0826 17.5065 31.1442 17.766C31.1717 17.8823 31.1011 17.9992 30.9863 18.0271C30.8715 18.055 30.7561 17.9835 30.7285 17.8672C30.6119 17.3756 30.9118 16.8795 31.3972 16.7613C31.8826 16.6432 32.3723 16.947 32.489 17.4386C32.5166 17.5548 32.4459 17.6717 32.3312 17.6997Z" fill="#002538"/>
<path d="M35.6637 16.8887C35.5489 16.9166 35.4335 16.845 35.4059 16.7287C35.3443 16.4693 35.0858 16.3089 34.8296 16.3713C34.5734 16.4337 34.4151 16.6955 34.4767 16.955C34.5043 17.0713 34.4336 17.1881 34.3188 17.2161C34.204 17.244 34.0887 17.1724 34.0611 17.0562C33.9444 16.5646 34.2443 16.0685 34.7297 15.9503C35.2151 15.8321 35.7049 16.1359 35.8215 16.6276C35.8491 16.7438 35.7785 16.8607 35.6637 16.8887Z" fill="#002538"/>
<path d="M33.9254 19.9789C33.3717 20.1137 32.7946 19.8121 32.583 19.2773C32.5391 19.1664 32.5923 19.0403 32.7019 18.9958C32.8115 18.9515 32.9359 19.0053 32.9798 19.1163C33.1131 19.453 33.4766 19.6428 33.8255 19.5579C34.1745 19.4729 34.4132 19.1364 34.3808 18.7752C34.3701 18.6561 34.4568 18.5508 34.5743 18.54C34.6919 18.5292 34.7959 18.6169 34.8065 18.736C34.858 19.3097 34.4792 19.844 33.9254 19.9789Z" fill="#002538"/>
<path opacity="0.7" d="M71.4551 16.5282C73.0892 20.8457 70.9576 25.6883 66.6949 27.3434C62.4323 28.9986 57.6524 26.8396 56.0183 22.5221C54.3842 18.2046 56.5143 13.3625 60.777 11.7074C65.0396 10.0522 69.821 12.2106 71.4551 16.5282Z" fill="url(#paint18_radial_2575_209267)"/>
<path d="M64.1735 25.1897C61.4658 25.1897 58.9952 23.4686 58.0257 20.907C57.3964 19.2442 57.4438 17.4325 58.1596 15.8058C58.8755 14.1791 60.1738 12.9321 61.8155 12.2947C62.5736 12.0004 63.3661 11.8511 64.1709 11.8511C66.8784 11.8511 69.3491 13.5722 70.3184 16.1338C70.9479 17.7967 70.9003 19.6084 70.1846 21.2349C69.4688 22.8616 68.1703 24.1087 66.5281 24.7463C65.7705 25.0405 64.9782 25.1897 64.1735 25.1897Z" fill="url(#paint19_linear_2575_209267)"/>
<path d="M64.1732 12.2047C66.6805 12.2045 69.0437 13.7477 69.9946 16.2603C71.2269 19.5161 69.6208 23.1672 66.4054 24.4157C65.6717 24.7007 64.9174 24.8357 64.1758 24.8357C61.6688 24.8357 59.3051 23.2927 58.3541 20.7801C57.1219 17.5244 58.7285 13.873 61.9428 12.6249C62.6768 12.3399 63.4315 12.2048 64.1732 12.2047ZM64.1737 11.4971V12.2047L64.1735 11.4971C63.3252 11.4971 62.4907 11.6543 61.6928 11.9641C58.124 13.3499 56.3336 17.4184 57.7018 21.0334C58.7228 23.7309 61.3245 25.5433 64.1758 25.5433C65.0234 25.5433 65.8577 25.3862 66.6555 25.0765C70.2246 23.6906 72.0152 19.6221 70.6469 16.007C69.626 13.3095 67.0246 11.4971 64.1737 11.4971Z" fill="white"/>
<path d="M62.8183 18.6646C62.6755 18.7201 62.5153 18.6478 62.4605 18.5031C62.3383 18.1801 61.9794 18.0181 61.6605 18.1419C61.3416 18.2657 61.1817 18.6292 61.3039 18.9522C61.3587 19.0969 61.2872 19.2591 61.1444 19.3146C61.0015 19.3701 60.8413 19.2977 60.7865 19.153C60.5549 18.5411 60.858 17.8525 61.4622 17.6179C62.0663 17.3833 62.7462 17.6903 62.9778 18.3022C63.0326 18.4469 62.9612 18.6092 62.8183 18.6646Z" fill="#002538"/>
<path d="M66.9636 17.0548C66.8207 17.1102 66.6605 17.0379 66.6058 16.8932C66.4835 16.5702 66.1246 16.4082 65.8058 16.532C65.4869 16.6558 65.3269 17.0193 65.4492 17.3423C65.5039 17.487 65.4325 17.6493 65.2897 17.7048C65.1468 17.7602 64.9866 17.6879 64.9318 17.5432C64.7002 16.9313 65.0033 16.2426 65.6074 16.008C66.2116 15.7734 66.8915 16.0804 67.1231 16.6923C67.1779 16.837 67.1065 16.9993 66.9636 17.0548Z" fill="#002538"/>
<path d="M65.2417 21.3226C64.5525 21.5902 63.7607 21.301 63.4 20.6498C63.3251 20.5147 63.3726 20.3436 63.506 20.2678C63.6395 20.1921 63.8083 20.2401 63.8832 20.3752C64.1103 20.7852 64.6091 20.9672 65.0433 20.7986C65.4777 20.6299 65.7286 20.1568 65.627 19.6981C65.5934 19.5469 65.6873 19.3968 65.8366 19.3628C65.9858 19.3289 66.1341 19.424 66.1676 19.5752C66.3291 20.3037 65.931 21.0549 65.2417 21.3226Z" fill="#002538"/>
<path opacity="0.7" d="M83.6555 15.9447C82.1882 21.2494 76.7517 24.3452 71.5144 22.859C66.2771 21.3728 63.2217 15.8673 64.689 10.5625C66.1563 5.25776 71.591 2.16152 76.8284 3.64772C82.0656 5.13393 85.1228 10.64 83.6555 15.9447Z" fill="url(#paint20_radial_2575_209267)"/>
<path d="M75.3026 20.4885C74.5952 20.4885 73.8879 20.3896 73.2004 20.1945C71.2005 19.627 69.5386 18.3045 68.5206 16.4708C67.5027 14.637 67.2508 12.5116 67.8111 10.4858C68.748 7.09826 71.8253 4.73242 75.2946 4.73242C76.0017 4.73242 76.7087 4.83123 77.3959 5.02628C81.5247 6.19792 83.9426 10.5534 82.7858 14.7352C81.8489 18.1227 78.7716 20.4885 75.3026 20.4885Z" fill="url(#paint21_linear_2575_209267)"/>
<path d="M75.2976 5.08652C75.961 5.08646 76.6347 5.17712 77.3048 5.36729C81.2553 6.48836 83.559 10.6399 82.4526 14.6401C81.5338 17.9616 78.5523 20.1351 75.3056 20.1351C74.6422 20.1351 73.9679 20.0444 73.2976 19.8541C69.3483 18.7334 67.044 14.5818 68.1505 10.5815C69.0692 7.26007 72.0514 5.08684 75.2976 5.08652ZM75.2983 4.37891H75.2976C71.6723 4.37926 68.4567 6.85137 67.4777 10.3906C66.269 14.7604 68.7953 19.3114 73.1092 20.5355C73.8273 20.7393 74.5664 20.8427 75.3056 20.8427C78.9307 20.8427 82.1462 18.3706 83.1253 14.831C83.7108 12.7142 83.4475 10.4932 82.384 8.57722C81.3204 6.66103 79.5835 5.27907 77.4933 4.68591C76.7754 4.48218 76.0369 4.37891 75.2983 4.37891Z" fill="white"/>
<path d="M73.8962 11.7677C73.7207 11.7179 73.6182 11.5334 73.6674 11.3556C73.7772 10.9588 73.5477 10.5455 73.1559 10.4343C72.7642 10.3231 72.3561 10.5555 72.2463 10.9523C72.1972 11.1301 72.015 11.2339 71.8395 11.1841C71.664 11.1342 71.5615 10.9497 71.6107 10.772C71.8187 10.0201 72.5917 9.57981 73.334 9.79045C74.0763 10.0011 74.511 10.7841 74.303 11.536C74.2539 11.7137 74.0717 11.8175 73.8962 11.7677Z" fill="#002538"/>
<path d="M78.9885 13.213C78.8129 13.1632 78.7105 12.9787 78.7597 12.8009C78.8695 12.4041 78.64 11.9908 78.2482 11.8796C77.8564 11.7684 77.4484 12.0008 77.3386 12.3976C77.2894 12.5754 77.1073 12.6792 76.9318 12.6293C76.7562 12.5795 76.6538 12.395 76.703 12.2173C76.911 11.4654 77.684 11.0251 78.4263 11.2358C79.1686 11.4464 79.6033 12.2294 79.3953 12.9813C79.3461 13.1591 79.164 13.2628 78.9885 13.213Z" fill="#002538"/>
<path d="M74.3489 16.0534C73.5021 15.8131 72.948 14.9665 73.06 14.0842C73.0833 13.9011 73.2487 13.7717 73.4295 13.7953C73.6102 13.8189 73.738 13.9863 73.7147 14.1695C73.6442 14.725 73.9933 15.2581 74.5269 15.4096C75.0606 15.561 75.6326 15.2893 75.8572 14.7775C75.9313 14.6087 76.1264 14.5329 76.2929 14.6078C76.4595 14.6829 76.5345 14.8805 76.4604 15.0492C76.1036 15.862 75.1958 16.2937 74.3489 16.0534Z" fill="#002538"/>
<path opacity="0.7" d="M19.8009 21.7974C19.3444 23.5898 17.5394 24.6681 15.7697 24.2057C14.0001 23.7434 12.9359 21.9154 13.3923 20.123C13.8488 18.3306 15.6533 17.2521 17.4229 17.7145C19.1925 18.1768 20.2574 20.0049 19.8009 21.7974Z" fill="url(#paint22_radial_2575_209267)"/>
<path d="M16.9718 23.618C16.7327 23.618 16.493 23.5871 16.2595 23.5261C15.5237 23.3339 14.906 22.8629 14.5198 22.2C14.1338 21.537 14.0258 20.7616 14.2157 20.0163C14.5399 18.7432 15.6718 17.854 16.9684 17.854C17.2075 17.854 17.4472 17.8849 17.6805 17.9459C18.4165 18.1381 19.0344 18.6091 19.4204 19.2721C19.8064 19.935 19.9143 20.7105 19.7245 21.4557C19.4003 22.7288 18.2685 23.618 16.9718 23.618Z" fill="url(#paint23_linear_2575_209267)"/>
<path d="M16.9697 18.2081C17.1761 18.2081 17.3856 18.2342 17.5947 18.2888C18.9295 18.6376 19.7319 20.016 19.3877 21.3676C19.0974 22.5075 18.0842 23.2645 16.9733 23.2645C16.7669 23.2645 16.5572 23.2384 16.348 23.1837C15.0136 22.8351 14.211 21.4566 14.5552 20.105C14.8455 18.9652 15.859 18.2082 16.9697 18.2081ZM16.9699 17.5005H16.9697C15.5138 17.5006 14.2427 18.499 13.8787 19.9283C13.4388 21.6557 14.4683 23.4234 16.1736 23.8689C16.4356 23.9374 16.7047 23.9722 16.9733 23.9722C18.4292 23.9722 19.7002 22.9738 20.0642 21.5444C20.2773 20.7077 20.156 19.8369 19.7226 19.0927C19.2892 18.3483 18.5954 17.8195 17.7692 17.6037C17.5072 17.5352 17.2383 17.5005 16.9699 17.5005Z" fill="white"/>
<path d="M16.49 20.4625C16.4307 20.447 16.3951 20.3858 16.4104 20.3257C16.4445 20.1916 16.3646 20.0544 16.2322 20.0198C16.0998 19.9852 15.9643 20.0662 15.9302 20.2002C15.9149 20.2603 15.8544 20.2965 15.7951 20.281C15.7358 20.2654 15.7002 20.2042 15.7155 20.1441C15.7802 19.8901 16.0368 19.7367 16.2877 19.8022C16.5385 19.8678 16.6899 20.1278 16.6252 20.3818C16.6098 20.4419 16.5494 20.478 16.49 20.4625Z" fill="#002538"/>
<path d="M18.2117 20.9127C18.1524 20.8972 18.1168 20.8359 18.1321 20.7759C18.1662 20.6418 18.0863 20.5045 17.9539 20.47C17.8215 20.4354 17.6861 20.5163 17.6519 20.6504C17.6366 20.7105 17.5761 20.7466 17.5168 20.7311C17.4575 20.7156 17.4219 20.6544 17.4371 20.5943C17.5018 20.3403 17.7585 20.1869 18.0093 20.2524C18.2601 20.318 18.4115 20.578 18.3468 20.832C18.3315 20.892 18.271 20.9282 18.2117 20.9127Z" fill="#002538"/>
<path d="M16.6738 21.8997C16.3876 21.8249 16.1957 21.5445 16.2273 21.2473C16.2338 21.1856 16.2885 21.141 16.3494 21.1476C16.4103 21.1543 16.4544 21.2097 16.4478 21.2714C16.4279 21.4585 16.5489 21.6351 16.7292 21.6822C16.9095 21.7293 17.0998 21.634 17.1717 21.4605C17.1955 21.4033 17.2605 21.3764 17.317 21.4005C17.3734 21.4245 17.4 21.4903 17.3763 21.5475C17.262 21.8231 16.96 21.9745 16.6738 21.8997Z" fill="#002538"/>
<path opacity="0.7" d="M30.5836 6.96984C32.3042 12.2777 29.4499 17.9943 24.2095 19.7371C18.969 21.4798 13.3265 18.5889 11.6059 13.281C9.88529 7.97311 12.7378 2.25705 17.9783 0.51432C23.2187 -1.22841 28.8631 1.6619 30.5836 6.96984Z" fill="url(#paint24_radial_2575_209267)"/>
<path d="M21.6815 16.9232C18.2691 16.9232 15.2607 14.7152 14.1954 11.4288C12.8401 7.24701 15.0958 2.72798 19.2239 1.35505C20.023 1.08934 20.8507 0.95459 21.6841 0.95459C25.0964 0.95459 28.1046 3.16261 29.1699 6.44891C30.5254 10.6307 28.2694 15.1498 24.1407 16.5229C23.342 16.7885 22.5146 16.9232 21.6815 16.9232Z" fill="url(#paint25_linear_2575_209267)"/>
<path d="M21.6861 1.30823C24.8524 1.30814 27.7986 3.34665 28.8399 6.55914C30.1374 10.5618 27.9865 14.872 24.0337 16.1865C23.2539 16.4458 22.4617 16.5692 21.6833 16.5692C18.5172 16.5692 15.5707 14.5311 14.5293 11.3183C13.2318 7.31567 15.3832 3.00519 19.3349 1.69107C20.1151 1.43157 20.9074 1.30823 21.6861 1.30823ZM21.6862 0.600586H21.686C20.8155 0.600615 19.9512 0.741279 19.1169 1.01869C17.0284 1.71325 15.3321 3.19007 14.3402 5.17718C13.3484 7.16421 13.1798 9.42354 13.8656 11.539C14.978 14.9709 18.1198 17.2768 21.6834 17.2768C22.5536 17.2768 23.4177 17.1362 24.2517 16.8588C26.3406 16.1641 28.0373 14.6872 29.0292 12.7001C30.0209 10.7132 30.1894 8.45395 29.5036 6.33838C28.3912 2.90645 25.2496 0.600586 21.6862 0.600586Z" fill="white"/>
<path d="M20.0317 9.03172C19.856 9.09014 19.6669 8.99328 19.6092 8.81538C19.4805 8.4183 19.0569 8.20133 18.6649 8.3317C18.2728 8.46207 18.0586 8.89118 18.1873 9.28825C18.245 9.46616 18.1494 9.65768 17.9737 9.7161C17.7981 9.77452 17.609 9.67765 17.5513 9.49975C17.3075 8.74743 17.7133 7.93451 18.4561 7.68751C19.1988 7.44051 20.0014 7.85156 20.2453 8.60388C20.3029 8.78175 20.2073 8.97331 20.0317 9.03172Z" fill="#002538"/>
<path d="M25.1303 7.33592C24.9547 7.39434 24.7656 7.29747 24.7079 7.11957C24.5792 6.72249 24.1556 6.50553 23.7635 6.6359C23.3715 6.76626 23.1573 7.19537 23.286 7.59245C23.3437 7.77035 23.248 7.96191 23.0724 8.02029C22.8968 8.07871 22.7076 7.98185 22.65 7.80395C22.4061 7.05165 22.812 6.2387 23.5547 5.9917C24.2974 5.7447 25.1 6.15578 25.3439 6.90808C25.4016 7.08598 25.306 7.27753 25.1303 7.33592Z" fill="#002538"/>
<path d="M22.8013 12.3833C21.954 12.6651 21.0154 12.2687 20.618 11.4614C20.5355 11.2938 20.6028 11.0903 20.7682 11.0067C20.9336 10.9233 21.1346 10.9913 21.2171 11.1588C21.4673 11.6672 22.0586 11.9167 22.5925 11.7391C23.1266 11.5615 23.4569 11.0056 23.3609 10.4459C23.3292 10.2614 23.4513 10.0859 23.6334 10.0539C23.8155 10.0218 23.9888 10.1454 24.0204 10.3299C24.1729 11.2187 23.6488 12.1015 22.8013 12.3833Z" fill="#002538"/>
<path opacity="0.7" d="M87.8865 7.47515C88.0419 9.45794 86.5804 11.1931 84.6228 11.3505C82.6652 11.5078 80.9526 10.0278 80.7972 8.04498C80.6419 6.06216 82.1026 4.32704 84.0602 4.16967C86.0178 4.01236 87.7311 5.49235 87.8865 7.47515Z" fill="url(#paint26_radial_2575_209267)"/>
<path d="M84.6413 10.4694C83.0732 10.4694 81.7476 9.22758 81.6232 7.64233C81.5593 6.82491 81.8132 6.03126 82.3386 5.40736C82.8639 4.78347 83.5977 4.40416 84.4046 4.33936C84.486 4.3328 84.5672 4.32959 84.6473 4.32959C86.2155 4.32959 87.5413 5.57138 87.6656 7.15663C87.7296 7.97405 87.4756 8.76779 86.9502 9.39154C86.4249 10.0155 85.6912 10.3947 84.8841 10.4596C84.8027 10.4662 84.7215 10.4694 84.6413 10.4694Z" fill="url(#paint27_linear_2575_209267)"/>
<path d="M84.6459 4.68369C86.031 4.68357 87.2045 5.76279 87.3159 7.18495C87.4331 8.68016 86.3317 9.98858 84.855 10.1073C84.783 10.1131 84.7111 10.1159 84.6401 10.1159C83.2553 10.1159 82.0815 9.03685 81.9701 7.61465C81.853 6.11944 82.9546 4.811 84.4308 4.69234C84.5029 4.68654 84.5748 4.68369 84.6459 4.68369ZM84.6461 3.97607H84.6458C84.5561 3.9761 84.4651 3.97972 84.3755 3.98696C82.5177 4.1363 81.1262 5.78879 81.2737 7.67063C81.4121 9.4386 82.8908 10.8235 84.64 10.8235C84.7296 10.8235 84.8206 10.8199 84.9103 10.8127C85.8104 10.7403 86.6288 10.3173 87.2147 9.6215C87.8005 8.9258 88.0838 8.04058 88.0123 7.12897C87.8738 5.36097 86.3952 3.97607 84.6461 3.97607Z" fill="white"/>
<path d="M84.0661 7.29259C84.0005 7.29785 83.943 7.24826 83.9378 7.18184C83.9262 7.0335 83.7976 6.92239 83.6512 6.93416C83.5047 6.94596 83.3951 7.07618 83.4067 7.22452C83.4119 7.29097 83.3629 7.34912 83.2973 7.35439C83.2317 7.35965 83.1743 7.31006 83.1691 7.24361C83.1471 6.9626 83.3549 6.71584 83.6323 6.69351C83.9098 6.67122 84.1534 6.88168 84.1754 7.16272C84.1806 7.22917 84.1317 7.28729 84.0661 7.29259Z" fill="#002538"/>
<path d="M85.9713 7.13978C85.9057 7.14505 85.8483 7.09545 85.8431 7.029C85.8315 6.88066 85.7029 6.76956 85.5565 6.78136C85.41 6.79312 85.3003 6.92337 85.3119 7.07169C85.3171 7.13816 85.2682 7.19629 85.2026 7.20155C85.137 7.20685 85.0796 7.15723 85.0744 7.09078C85.0523 6.80974 85.2602 6.56298 85.5376 6.54068C85.815 6.51839 86.0587 6.72888 86.0807 7.00988C86.0859 7.07636 86.0369 7.13449 85.9713 7.13978Z" fill="#002538"/>
<path d="M84.7472 8.68665C84.4307 8.71209 84.1388 8.49515 84.0682 8.182C84.0536 8.11702 84.0937 8.05231 84.1579 8.03748C84.222 8.02268 84.2859 8.06331 84.3006 8.12829C84.345 8.32546 84.5289 8.46206 84.7283 8.446C84.9278 8.42997 85.0882 8.26568 85.1014 8.0639C85.1057 7.99736 85.1625 7.94703 85.2281 7.95144C85.2938 7.95585 85.3435 8.01333 85.3392 8.07984C85.3183 8.40032 85.0638 8.6612 84.7472 8.68665Z" fill="#002538"/>
<path opacity="0.7" d="M27.3237 20.3723C26.8462 22.2607 24.9473 23.3995 23.0829 22.9159C21.2185 22.4323 20.0945 20.5092 20.572 18.6208C21.0495 16.7324 22.9478 15.5934 24.8122 16.077C26.6765 16.5606 27.8012 18.4838 27.3237 20.3723Z" fill="url(#paint28_radial_2575_209267)"/>
<path d="M24.3424 22.2756C24.0939 22.2756 23.8447 22.2437 23.6018 22.1807C22.0117 21.7681 21.0492 20.122 21.4565 18.5113C21.7942 17.1759 22.9793 16.2432 24.3386 16.2432C24.5872 16.2432 24.8364 16.2751 25.0791 16.3381C25.8495 16.538 26.4971 17.0297 26.9022 17.7228C27.3074 18.4159 27.4219 19.2273 27.2246 20.0076C26.8868 21.343 25.7018 22.2756 24.3424 22.2756Z" fill="url(#paint29_linear_2575_209267)"/>
<path d="M24.3372 16.5973C24.553 16.5973 24.7722 16.6244 24.9909 16.6812C26.3972 17.046 27.2448 18.4961 26.8847 19.9201C26.5807 21.1226 25.5126 21.9221 24.341 21.9221C24.1251 21.9221 23.9057 21.895 23.6869 21.8382C22.281 21.4735 21.4333 20.0234 21.7934 18.5994C22.0974 17.3969 23.1657 16.5974 24.3372 16.5973ZM24.3374 15.8896H24.3371C22.8182 15.8898 21.4939 16.9318 21.1166 18.4238C20.6615 20.2236 21.7368 22.0628 23.5136 22.5237C23.7848 22.5941 24.0632 22.6297 24.341 22.6297C25.8599 22.6297 27.1842 21.5877 27.5615 20.0956C28.0166 18.2959 26.9412 16.4566 25.1643 15.9957C24.8932 15.9253 24.615 15.8896 24.3374 15.8896Z" fill="white"/>
<path d="M23.8393 18.9714C23.7768 18.9552 23.7391 18.8908 23.7551 18.8275C23.7908 18.6862 23.7064 18.5418 23.5669 18.5057C23.4275 18.4695 23.2849 18.555 23.2492 18.6962C23.2332 18.7596 23.1696 18.7977 23.1071 18.7815C23.0446 18.7653 23.007 18.7008 23.023 18.6375C23.0906 18.3699 23.3607 18.2079 23.6249 18.2765C23.8892 18.345 24.0491 18.6185 23.9814 18.8862C23.9654 18.9495 23.9018 18.9876 23.8393 18.9714Z" fill="#002538"/>
<path d="M25.6535 19.4426C25.591 19.4264 25.5533 19.362 25.5693 19.2987C25.605 19.1574 25.5206 19.013 25.3812 18.9769C25.2417 18.9407 25.0992 19.0262 25.0634 19.1674C25.0474 19.2307 24.9838 19.2689 24.9213 19.2527C24.8589 19.2365 24.8212 19.172 24.8372 19.1087C24.9049 18.8411 25.1749 18.6791 25.4391 18.7477C25.7034 18.8162 25.8633 19.0897 25.7956 19.3573C25.7796 19.4207 25.716 19.4588 25.6535 19.4426Z" fill="#002538"/>
<path d="M24.0332 20.4854C23.7317 20.4072 23.5291 20.1122 23.5618 19.7992C23.5686 19.7342 23.6261 19.6871 23.6903 19.694C23.7544 19.7009 23.8009 19.7592 23.7941 19.8241C23.7735 20.0212 23.9012 20.207 24.0911 20.2563C24.2811 20.3056 24.4813 20.2048 24.5568 20.0219C24.5817 19.9616 24.6501 19.9333 24.7096 19.9584C24.7691 19.9837 24.7972 20.053 24.7723 20.1132C24.6524 20.4036 24.3347 20.5637 24.0332 20.4854Z" fill="#002538"/>
<defs>
<radialGradient id="paint0_radial_2575_209267" cx="0" cy="0" r="1" gradientUnits="userSpaceOnUse" gradientTransform="translate(64.6119 6.31992) rotate(3.26824) scale(3.40206 3.44558)">
<stop offset="0.5323" stop-color="#FFC800"/>
<stop offset="0.5898" stop-color="#FFD22F"/>
<stop offset="0.6741" stop-color="#FFE06D"/>
<stop offset="0.755" stop-color="#FFEBA1"/>
<stop offset="0.8302" stop-color="#FFF4CA"/>
<stop offset="0.8984" stop-color="#FFFAE7"/>
<stop offset="0.9572" stop-color="#FFFEF9"/>
<stop offset="1" stop-color="white"/>
</radialGradient>
<linearGradient id="paint1_linear_2575_209267" x1="64.7767" y1="9.06412" x2="65.1113" y2="3.20481" gradientUnits="userSpaceOnUse">
<stop stop-color="#FF9F36"/>
<stop offset="0.2921" stop-color="#FFAE22"/>
<stop offset="0.7319" stop-color="#FFC109"/>
<stop offset="1" stop-color="#FFC800"/>
</linearGradient>
<radialGradient id="paint2_radial_2575_209267" cx="0" cy="0" r="1" gradientUnits="userSpaceOnUse" gradientTransform="translate(84.6349 18.5945) rotate(11.5996) scale(3.03481 3.07074)">
<stop offset="0.5323" stop-color="#FFC800"/>
<stop offset="0.5898" stop-color="#FFD22F"/>
<stop offset="0.6741" stop-color="#FFE06D"/>
<stop offset="0.755" stop-color="#FFEBA1"/>
<stop offset="0.8302" stop-color="#FFF4CA"/>
<stop offset="0.8984" stop-color="#FFFAE7"/>
<stop offset="0.9572" stop-color="#FFFEF9"/>
<stop offset="1" stop-color="white"/>
</radialGradient>
<linearGradient id="paint3_linear_2575_209267" x1="84.4271" y1="21.0754" x2="85.4941" y2="15.8774" gradientUnits="userSpaceOnUse">
<stop stop-color="#FF9F36"/>
<stop offset="0.2921" stop-color="#FFAE22"/>
<stop offset="0.7319" stop-color="#FFC109"/>
<stop offset="1" stop-color="#FFC800"/>
</linearGradient>
<radialGradient id="paint4_radial_2575_209267" cx="0" cy="0" r="1" gradientUnits="userSpaceOnUse" gradientTransform="translate(38.2372 9.69826) rotate(16.7524) scale(9.5822 9.68521)">
<stop offset="0.5323" stop-color="#FFC800"/>
<stop offset="0.5898" stop-color="#FFD22F"/>
<stop offset="0.6741" stop-color="#FFE06D"/>
<stop offset="0.755" stop-color="#FFEBA1"/>
<stop offset="0.8302" stop-color="#FFF4CA"/>
<stop offset="0.8984" stop-color="#FFFAE7"/>
<stop offset="0.9572" stop-color="#FFFEF9"/>
<stop offset="1" stop-color="white"/>
</radialGradient>
<linearGradient id="paint5_linear_2575_209267" x1="37.1135" y1="16.6833" x2="41.501" y2="2.10726" gradientUnits="userSpaceOnUse">
<stop stop-color="#FF9F36"/>
<stop offset="0.2921" stop-color="#FFAE22"/>
<stop offset="0.7319" stop-color="#FFC109"/>
<stop offset="1" stop-color="#FFC800"/>
</linearGradient>
<radialGradient id="paint6_radial_2575_209267" cx="0" cy="0" r="1" gradientUnits="userSpaceOnUse" gradientTransform="translate(53.1089 12.9192) rotate(11.3025) scale(10.3767 10.5001)">
<stop offset="0.5323" stop-color="#FFC800"/>
<stop offset="0.5898" stop-color="#FFD22F"/>
<stop offset="0.6741" stop-color="#FFE06D"/>
<stop offset="0.755" stop-color="#FFEBA1"/>
<stop offset="0.8302" stop-color="#FFF4CA"/>
<stop offset="0.8984" stop-color="#FFFAE7"/>
<stop offset="0.9572" stop-color="#FFFEF9"/>
<stop offset="1" stop-color="white"/>
</radialGradient>
<linearGradient id="paint7_linear_2575_209267" x1="52.6047" y1="20.5403" x2="55.8276" y2="4.41492" gradientUnits="userSpaceOnUse">
<stop stop-color="#FF9F36"/>
<stop offset="0.2921" stop-color="#FFAE22"/>
<stop offset="0.7319" stop-color="#FFC109"/>
<stop offset="1" stop-color="#FFC800"/>
</linearGradient>
<radialGradient id="paint8_radial_2575_209267" cx="0" cy="0" r="1" gradientUnits="userSpaceOnUse" gradientTransform="translate(9.30014 5.74289) rotate(14.5157) scale(3.12907 3.16433)">
<stop offset="0.5323" stop-color="#FFC800"/>
<stop offset="0.5898" stop-color="#FFD22F"/>
<stop offset="0.6741" stop-color="#FFE06D"/>
<stop offset="0.755" stop-color="#FFEBA1"/>
<stop offset="0.8302" stop-color="#FFF4CA"/>
<stop offset="0.8984" stop-color="#FFFAE7"/>
<stop offset="0.9572" stop-color="#FFFEF9"/>
<stop offset="1" stop-color="white"/>
</radialGradient>
<linearGradient id="paint9_linear_2575_209267" x1="8.95937" y1="8.27563" x2="10.3245" y2="3.00301" gradientUnits="userSpaceOnUse">
<stop stop-color="#FF9F36"/>
<stop offset="0.2921" stop-color="#FFAE22"/>
<stop offset="0.7319" stop-color="#FFC109"/>
<stop offset="1" stop-color="#FFC800"/>
</linearGradient>
<radialGradient id="paint10_radial_2575_209267" cx="0" cy="0" r="1" gradientUnits="userSpaceOnUse" gradientTransform="translate(7.65976 15.5118) rotate(-12.5896) scale(7.63915 7.72822)">
<stop offset="0.5323" stop-color="#FFC800"/>
<stop offset="0.5898" stop-color="#FFD22F"/>
<stop offset="0.6741" stop-color="#FFE06D"/>
<stop offset="0.755" stop-color="#FFEBA1"/>
<stop offset="0.8302" stop-color="#FFF4CA"/>
<stop offset="0.8984" stop-color="#FFFAE7"/>
<stop offset="0.9572" stop-color="#FFFEF9"/>
<stop offset="1" stop-color="white"/>
</radialGradient>
<linearGradient id="paint11_linear_2575_209267" x1="9.55892" y1="20.8961" x2="6.8804" y2="8.9029" gradientUnits="userSpaceOnUse">
<stop stop-color="#FF9F36"/>
<stop offset="0.2921" stop-color="#FFAE22"/>
<stop offset="0.7319" stop-color="#FFC109"/>
<stop offset="1" stop-color="#FFC800"/>
</linearGradient>
<radialGradient id="paint12_radial_2575_209267" cx="0" cy="0" r="1" gradientUnits="userSpaceOnUse" gradientTransform="translate(49.9447 20.0773) rotate(-19.6733) scale(2.96844 2.99805)">
<stop offset="0.5323" stop-color="#FFC800"/>
<stop offset="0.5898" stop-color="#FFD22F"/>
<stop offset="0.6741" stop-color="#FFE06D"/>
<stop offset="0.755" stop-color="#FFEBA1"/>
<stop offset="0.8302" stop-color="#FFF4CA"/>
<stop offset="0.8984" stop-color="#FFFAE7"/>
<stop offset="0.9572" stop-color="#FFFEF9"/>
<stop offset="1" stop-color="white"/>
</radialGradient>
<linearGradient id="paint13_linear_2575_209267" x1="51.0024" y1="22.2725" x2="49.2528" y2="17.3789" gradientUnits="userSpaceOnUse">
<stop stop-color="#FF9F36"/>
<stop offset="0.2921" stop-color="#FFAE22"/>
<stop offset="0.7319" stop-color="#FFC109"/>
<stop offset="1" stop-color="#FFC800"/>
</linearGradient>
<radialGradient id="paint14_radial_2575_209267" cx="0" cy="0" r="1" gradientUnits="userSpaceOnUse" gradientTransform="translate(41.783 21.5597) rotate(-15.9428) scale(4.08427 4.12897)">
<stop offset="0.5323" stop-color="#FFC800"/>
<stop offset="0.5898" stop-color="#FFD22F"/>
<stop offset="0.6741" stop-color="#FFE06D"/>
<stop offset="0.755" stop-color="#FFEBA1"/>
<stop offset="0.8302" stop-color="#FFF4CA"/>
<stop offset="0.8984" stop-color="#FFFAE7"/>
<stop offset="0.9572" stop-color="#FFFEF9"/>
<stop offset="1" stop-color="white"/>
</radialGradient>
<linearGradient id="paint15_linear_2575_209267" x1="43.0051" y1="24.5375" x2="41.1118" y2="17.91" gradientUnits="userSpaceOnUse">
<stop stop-color="#FF9F36"/>
<stop offset="0.2921" stop-color="#FFAE22"/>
<stop offset="0.7319" stop-color="#FFC109"/>
<stop offset="1" stop-color="#FFC800"/>
</linearGradient>
<radialGradient id="paint16_radial_2575_209267" cx="0" cy="0" r="1" gradientUnits="userSpaceOnUse" gradientTransform="translate(32.9555 18.4515) rotate(-13.6839) scale(6.38225 6.45529)">
<stop offset="0.5323" stop-color="#FFC800"/>
<stop offset="0.5898" stop-color="#FFD22F"/>
<stop offset="0.6741" stop-color="#FFE06D"/>
<stop offset="0.755" stop-color="#FFEBA1"/>
<stop offset="0.8302" stop-color="#FFF4CA"/>
<stop offset="0.8984" stop-color="#FFFAE7"/>
<stop offset="0.9572" stop-color="#FFFEF9"/>
<stop offset="1" stop-color="white"/>
</radialGradient>
<linearGradient id="paint17_linear_2575_209267" x1="34.6381" y1="22.9782" x2="32.1825" y2="12.8925" gradientUnits="userSpaceOnUse">
<stop stop-color="#FF9F36"/>
<stop offset="0.2921" stop-color="#FFAE22"/>
<stop offset="0.7319" stop-color="#FFC109"/>
<stop offset="1" stop-color="#FFC800"/>
</linearGradient>
<radialGradient id="paint18_radial_2575_209267" cx="0" cy="0" r="1" gradientUnits="userSpaceOnUse" gradientTransform="translate(63.7367 19.5251) rotate(-21.2213) scale(8.27996 8.35881)">
<stop offset="0.5323" stop-color="#FFC800"/>
<stop offset="0.5898" stop-color="#FFD22F"/>
<stop offset="0.6741" stop-color="#FFE06D"/>
<stop offset="0.755" stop-color="#FFEBA1"/>
<stop offset="0.8302" stop-color="#FFF4CA"/>
<stop offset="0.8984" stop-color="#FFFAE7"/>
<stop offset="0.9572" stop-color="#FFFEF9"/>
<stop offset="1" stop-color="white"/>
</radialGradient>
<linearGradient id="paint19_linear_2575_209267" x1="66.6071" y1="24.9539" x2="61.817" y2="12.6179" gradientUnits="userSpaceOnUse">
<stop stop-color="#FF9F36"/>
<stop offset="0.2921" stop-color="#FFAE22"/>
<stop offset="0.7319" stop-color="#FFC109"/>
<stop offset="1" stop-color="#FFC800"/>
</linearGradient>
<radialGradient id="paint20_radial_2575_209267" cx="0" cy="0" r="1" gradientUnits="userSpaceOnUse" gradientTransform="translate(74.1722 13.2536) rotate(15.842) scale(9.85783 9.96596)">
<stop offset="0.5323" stop-color="#FFC800"/>
<stop offset="0.5898" stop-color="#FFD22F"/>
<stop offset="0.6741" stop-color="#FFE06D"/>
<stop offset="0.755" stop-color="#FFEBA1"/>
<stop offset="0.8302" stop-color="#FFF4CA"/>
<stop offset="0.8984" stop-color="#FFFAE7"/>
<stop offset="0.9572" stop-color="#FFFEF9"/>
<stop offset="1" stop-color="white"/>
</radialGradient>
<linearGradient id="paint21_linear_2575_209267" x1="73.1308" y1="20.4476" x2="77.4011" y2="5.39866" gradientUnits="userSpaceOnUse">
<stop stop-color="#FF9F36"/>
<stop offset="0.2921" stop-color="#FFAE22"/>
<stop offset="0.7319" stop-color="#FFC109"/>
<stop offset="1" stop-color="#FFC800"/>
</linearGradient>
<radialGradient id="paint22_radial_2575_209267" cx="0" cy="0" r="1" gradientUnits="userSpaceOnUse" gradientTransform="translate(16.5966 20.9602) rotate(14.6392) scale(3.31189 3.34912)">
<stop offset="0.5323" stop-color="#FFC800"/>
<stop offset="0.5898" stop-color="#FFD22F"/>
<stop offset="0.6741" stop-color="#FFE06D"/>
<stop offset="0.755" stop-color="#FFEBA1"/>
<stop offset="0.8302" stop-color="#FFF4CA"/>
<stop offset="0.8984" stop-color="#FFFAE7"/>
<stop offset="0.9572" stop-color="#FFFEF9"/>
<stop offset="1" stop-color="white"/>
</radialGradient>
<linearGradient id="paint23_linear_2575_209267" x1="16.236" y1="23.6192" x2="17.6826" y2="18.0814" gradientUnits="userSpaceOnUse">
<stop stop-color="#FF9F36"/>
<stop offset="0.2921" stop-color="#FFAE22"/>
<stop offset="0.7319" stop-color="#FFC109"/>
<stop offset="1" stop-color="#FFC800"/>
</linearGradient>
<radialGradient id="paint24_radial_2575_209267" cx="0" cy="0" r="1" gradientUnits="userSpaceOnUse" gradientTransform="translate(21.0947 10.1254) rotate(-18.3948) scale(9.99999 10.1033)">
<stop offset="0.5323" stop-color="#FFC800"/>
<stop offset="0.5898" stop-color="#FFD22F"/>
<stop offset="0.6741" stop-color="#FFE06D"/>
<stop offset="0.755" stop-color="#FFEBA1"/>
<stop offset="0.8302" stop-color="#FFF4CA"/>
<stop offset="0.8984" stop-color="#FFFAE7"/>
<stop offset="0.9572" stop-color="#FFFEF9"/>
<stop offset="1" stop-color="white"/>
</radialGradient>
<linearGradient id="paint25_linear_2575_209267" x1="24.223" y1="16.7758" x2="19.2217" y2="1.73676" gradientUnits="userSpaceOnUse">
<stop stop-color="#FF9F36"/>
<stop offset="0.2921" stop-color="#FFAE22"/>
<stop offset="0.7319" stop-color="#FFC109"/>
<stop offset="1" stop-color="#FFC800"/>
</linearGradient>
<radialGradient id="paint26_radial_2575_209267" cx="0" cy="0" r="1" gradientUnits="userSpaceOnUse" gradientTransform="translate(84.3418 7.76006) rotate(-4.59365) scale(3.55613 3.60133)">
<stop offset="0.5323" stop-color="#FFC800"/>
<stop offset="0.5898" stop-color="#FFD22F"/>
<stop offset="0.6741" stop-color="#FFE06D"/>
<stop offset="0.755" stop-color="#FFEBA1"/>
<stop offset="0.8302" stop-color="#FFF4CA"/>
<stop offset="0.8984" stop-color="#FFFAE7"/>
<stop offset="0.9572" stop-color="#FFFEF9"/>
<stop offset="1" stop-color="white"/>
</radialGradient>
<linearGradient id="paint27_linear_2575_209267" x1="84.8921" y1="10.5617" x2="84.4034" y2="4.47909" gradientUnits="userSpaceOnUse">
<stop stop-color="#FF9F36"/>
<stop offset="0.2921" stop-color="#FFAE22"/>
<stop offset="0.7319" stop-color="#FFC109"/>
<stop offset="1" stop-color="#FFC800"/>
</linearGradient>
<radialGradient id="paint28_radial_2575_209267" cx="0" cy="0" r="1" gradientUnits="userSpaceOnUse" gradientTransform="translate(23.9478 19.4965) rotate(14.5432) scale(3.48766 3.52694)">
<stop offset="0.5323" stop-color="#FFC800"/>
<stop offset="0.5898" stop-color="#FFD22F"/>
<stop offset="0.6741" stop-color="#FFE06D"/>
<stop offset="0.755" stop-color="#FFEBA1"/>
<stop offset="0.8302" stop-color="#FFF4CA"/>
<stop offset="0.8984" stop-color="#FFFAE7"/>
<stop offset="0.9572" stop-color="#FFFEF9"/>
<stop offset="1" stop-color="white"/>
</radialGradient>
<linearGradient id="paint29_linear_2575_209267" x1="23.5772" y1="22.2782" x2="25.0814" y2="16.4799" gradientUnits="userSpaceOnUse">
<stop stop-color="#FF9F36"/>
<stop offset="0.2921" stop-color="#FFAE22"/>
<stop offset="0.7319" stop-color="#FFC109"/>
<stop offset="1" stop-color="#FFC800"/>
</linearGradient>
</defs>
</svg>
