<svg width="24" height="24" viewBox="0 0 24 24" fill="none" xmlns="http://www.w3.org/2000/svg">
<g clip-path="url(#clip0_2579_209619)">
<mask id="mask0_2579_209619" style="mask-type:luminance" maskUnits="userSpaceOnUse" x="0" y="0" width="24" height="24">
<path d="M24 0H0V24H24V0Z" fill="white"/>
<path d="M17.547 17.7046L16.8917 15.3925L16.2364 17.7046H17.547ZM14.7979 19.2638C14.7979 19.2487 14.8054 19.2185 14.8129 19.1884L16.2666 14.4511C16.3344 14.2251 16.6129 14.1196 16.8917 14.1196C17.1779 14.1196 17.4566 14.2251 17.5244 14.4511L18.9779 19.1884C18.9854 19.2185 18.9931 19.2412 18.9931 19.2638C18.9931 19.4973 18.6391 19.6704 18.3754 19.6704C18.2097 19.6704 18.0817 19.6177 18.0441 19.4746L17.7578 18.4729H16.0331L15.7469 19.4746C15.7092 19.6177 15.5812 19.6704 15.4155 19.6704C15.1519 19.6704 14.7979 19.5048 14.7979 19.2638Z" fill="white"/>
<path d="M7.91938 6.48135C7.83313 7.13127 7.53852 7.7159 7.10465 8.16609C6.67087 7.7159 6.37626 7.13127 6.29001 6.48135H7.91938ZM9.26502 9.08685C8.70318 9.08685 8.1772 8.93146 7.72701 8.66174C8.2701 8.07562 8.63123 7.31873 8.71855 6.48135H9.26502C9.48393 6.48135 9.66154 6.30388 9.66154 6.08479C9.66154 5.86584 9.48393 5.68827 9.26502 5.68827H7.50116V4.72541C7.50116 4.50637 7.32365 4.3289 7.10465 4.3289C6.88574 4.3289 6.70823 4.50637 6.70823 4.72541V5.68827H4.94437C4.72546 5.68827 4.54785 5.86584 4.54785 6.08479C4.54785 6.30388 4.72546 6.48135 4.94437 6.48135H5.49084C5.57821 7.31873 5.93929 8.07562 6.48238 8.66165C6.0322 8.93127 5.50626 9.08685 4.94437 9.08685C4.72546 9.08685 4.54785 9.26427 4.54785 9.48332C4.54785 9.70227 4.72546 9.87988 4.94437 9.87988C5.74663 9.87988 6.49105 9.62891 7.10465 9.2024C7.71834 9.62891 8.46276 9.87988 9.26502 9.87988C9.48393 9.87988 9.66154 9.70227 9.66154 9.48332C9.66154 9.26427 9.48393 9.08685 9.26502 9.08685Z" fill="white"/>
</mask>
<g mask="url(#mask0_2579_209619)">
<mask id="mask1_2579_209619" style="mask-type:luminance" maskUnits="userSpaceOnUse" x="0" y="0" width="24" height="24">
<path d="M0 1.90735e-06H24V24H0V1.90735e-06Z" fill="white"/>
</mask>
<g mask="url(#mask1_2579_209619)">
<path d="M17.547 17.7046L16.8917 15.3925L16.2364 17.7046H17.547ZM14.7979 19.2638C14.7979 19.2487 14.8054 19.2185 14.8129 19.1884L16.2666 14.4511C16.3344 14.2251 16.6129 14.1196 16.8917 14.1196C17.1779 14.1196 17.4566 14.2251 17.5244 14.4511L18.9779 19.1884C18.9854 19.2185 18.9931 19.2412 18.9931 19.2638C18.9931 19.4973 18.6391 19.6704 18.3754 19.6704C18.2097 19.6704 18.0817 19.6177 18.0441 19.4746L17.7578 18.4729H16.0331L15.7469 19.4746C15.7092 19.6177 15.5812 19.6704 15.4155 19.6704C15.1519 19.6704 14.7979 19.5048 14.7979 19.2638Z" fill="black"/>
<path d="M21.414 10.4938H12.3767C11.3411 10.4938 10.4939 11.341 10.4939 12.3766V17.6484L7.85791 19.5313L10.4939 21.414C10.4939 22.4496 11.3411 23.2969 12.3767 23.2969H21.414C22.4496 23.2969 23.2968 22.4496 23.2968 21.414V12.3766C23.2968 11.341 22.4496 10.4938 21.414 10.4938Z" stroke="black" stroke-width="1.40625" stroke-miterlimit="10" stroke-linecap="round" stroke-linejoin="round"/>
<path d="M10.4939 13.5059H2.586C1.55044 13.5059 0.703125 12.6586 0.703125 11.623V2.58553C0.703125 1.55002 1.55044 0.702751 2.586 0.702751H11.6233C12.6588 0.702751 13.506 1.55002 13.506 2.58553L16.142 4.46836L13.506 6.35119V10.4934" stroke="black" stroke-width="1.40625" stroke-miterlimit="10" stroke-linecap="round" stroke-linejoin="round"/>
<path d="M7.91938 6.48135C7.83313 7.13127 7.53852 7.7159 7.10465 8.16609C6.67087 7.7159 6.37626 7.13127 6.29001 6.48135H7.91938ZM9.26502 9.08685C8.70318 9.08685 8.1772 8.93146 7.72701 8.66174C8.2701 8.07562 8.63123 7.31873 8.71855 6.48135H9.26502C9.48393 6.48135 9.66154 6.30388 9.66154 6.08479C9.66154 5.86584 9.48393 5.68827 9.26502 5.68827H7.50116V4.72541C7.50116 4.50637 7.32365 4.3289 7.10465 4.3289C6.88574 4.3289 6.70823 4.50637 6.70823 4.72541V5.68827H4.94437C4.72546 5.68827 4.54785 5.86584 4.54785 6.08479C4.54785 6.30388 4.72546 6.48135 4.94437 6.48135H5.49084C5.57821 7.31873 5.93929 8.07562 6.48238 8.66165C6.0322 8.93127 5.50626 9.08685 4.94437 9.08685C4.72546 9.08685 4.54785 9.26427 4.54785 9.48332C4.54785 9.70227 4.72546 9.87988 4.94437 9.87988C5.74663 9.87988 6.49105 9.62891 7.10465 9.2024C7.71834 9.62891 8.46276 9.87988 9.26502 9.87988C9.48393 9.87988 9.66154 9.70227 9.66154 9.48332C9.66154 9.26427 9.48393 9.08685 9.26502 9.08685Z" fill="black"/>
</g>
</g>
</g>
<defs>
<clipPath id="clip0_2579_209619">
<rect width="24" height="24" fill="white"/>
</clipPath>
</defs>
</svg>
