<svg width="24" height="24" viewBox="0 0 24 24" fill="none" xmlns="http://www.w3.org/2000/svg">
<g clip-path="url(#clip0_3112_5331)">
<path d="M17.2687 9.49219C17.8733 8.52188 18.2015 7.40156 18.2062 6.24844C18.2155 4.59844 17.578 3.03281 16.4062 1.84688C15.239 0.665625 13.6874 0.009375 12.0374 0C12.028 0 12.014 0 12.0046 0C10.3499 0 8.79834 0.642188 7.62646 1.80469C6.44521 2.97656 5.79834 4.54219 5.79834 6.20625C5.79834 7.37344 6.12178 8.50781 6.73584 9.49219C7.52334 10.7531 8.70459 11.6672 10.0687 12.1125C10.1015 12.1219 10.1343 12.1313 10.1624 12.1406C10.4577 12.2297 10.7577 12.3 11.0624 12.3469C11.0718 12.3469 11.0812 12.3516 11.0905 12.3516C11.1515 12.3609 11.2124 12.3703 11.278 12.375C11.2968 12.375 11.3155 12.3797 11.3343 12.3797C11.3858 12.3844 11.4421 12.3891 11.4937 12.3937C11.5171 12.3937 11.5405 12.3984 11.5593 12.3984C11.6108 12.4031 11.6671 12.4031 11.7187 12.4078C11.7421 12.4078 11.7608 12.4078 11.7843 12.4125C11.8593 12.4172 11.9296 12.4172 12.0046 12.4172C12.0796 12.4172 12.1499 12.4172 12.2249 12.4125C12.2483 12.4125 12.2671 12.4125 12.2905 12.4078C12.3421 12.4031 12.3983 12.4031 12.4499 12.3984C12.4733 12.3984 12.4968 12.3937 12.5202 12.3937C12.5718 12.3891 12.628 12.3844 12.6796 12.3797C12.6983 12.3797 12.7171 12.375 12.7358 12.375C12.7968 12.3656 12.8577 12.3609 12.9187 12.3516C12.928 12.3516 12.9374 12.3469 12.9515 12.3469C13.2562 12.3 13.5562 12.2297 13.8468 12.1406C13.8749 12.1313 13.903 12.1219 13.9312 12.1172C15.2952 11.6719 16.4765 10.7578 17.2687 9.49219Z" fill="#727272"/>
<path d="M0.412427 19.5563C0.328052 19.861 0.445239 20.1845 0.693677 20.3673C4.00305 22.7438 7.91243 24.0001 11.9999 24.0001C16.0874 24.0001 19.9968 22.7438 23.3062 20.3626C23.5546 20.1845 23.6671 19.8563 23.5874 19.5517C23.3015 18.4876 22.8656 17.4704 22.2937 16.5235C20.6671 13.8188 17.3718 12.6048 14.2827 13.561C13.5468 13.7907 12.7781 13.9032 11.9999 13.9032C11.2218 13.9032 10.4531 13.786 9.71711 13.5563C9.0093 13.336 8.29211 13.2329 7.58899 13.2329C5.20774 13.2329 2.96243 14.4329 1.70618 16.5188C1.1343 17.4751 0.703052 18.4923 0.412427 19.5563Z" fill="#727272"/>
</g>
<defs>
<clipPath id="clip0_3112_5331">
<rect width="24" height="24" fill="white"/>
</clipPath>
</defs>
</svg>
