<svg width="44" height="44" viewBox="0 0 44 44" fill="none" xmlns="http://www.w3.org/2000/svg">
<g clip-path="url(#clip0_3299_6358)">
<path d="M18.3367 29.0373C19.218 29.51 19.723 29.4189 20.4096 29.9246C21.0961 30.4303 21.9596 33.0597 21.9596 33.0597L21.7966 33.4518L22.1266 34.1641L22.4237 33.4518L22.2257 33.0597L22.4897 32.0978C22.9413 30.833 23.48 29.8533 24.3382 29.3912C25.1964 28.9291 25.7007 28.801 26.5167 28.2867C28.0879 27.0905 28.3579 25.6104 28.0667 25.5801C27.6172 25.9102 25.7219 26.2871 25.2631 26.6132C23.9592 27.5421 23.4569 28.391 22.9525 30.1404L22.3953 31.4608L22.0983 33.3132L21.7966 31.8819L21.5985 31.0759L21.3345 30.2725C21.2099 29.8119 21.0442 29.3633 20.8393 28.9324C20.6981 28.634 20.5251 28.1659 20.1792 27.7269C19.8505 27.3105 19.4476 26.9584 18.9909 26.6885C18.5948 26.4528 18.4628 26.5281 17.3748 26.1524C16.3087 25.7847 16.1166 25.5642 16.0228 25.6501C15.7291 25.9273 16.6038 28.1078 18.3367 29.0373Z" fill="url(#paint0_linear_3299_6358)"/>
<path d="M16.9481 18.5927C16.9111 18.569 14.2124 17.213 14.1754 17.1912C14.019 17.0942 13.8645 17.0024 13.7133 16.9153C12.7462 16.3607 11.8649 15.9858 11.1658 15.5428C10.9547 15.4128 10.7539 15.267 10.565 15.1064C10.565 15.1097 10.565 15.1137 10.565 15.1177C10.3465 16.0683 10.7063 17.1747 11.2344 17.9266C11.474 18.2876 11.8028 18.5805 12.189 18.7769C12.894 19.1367 13.7866 19.2212 15.1709 19.8873C15.4911 20.0411 15.837 20.2266 16.2146 20.4531C17.0392 20.9427 17.8031 21.5282 18.4902 22.1972C18.885 22.5826 19.2435 23.0036 19.561 23.4548" fill="url(#paint1_linear_3299_6358)"/>
<path d="M16.9481 18.5927C16.9111 18.569 14.2124 17.213 14.1754 17.1912C14.019 17.0942 13.8645 17.0024 13.7133 16.9153C12.7462 16.3607 11.8649 15.9858 11.1658 15.5428C10.9547 15.4128 10.7539 15.267 10.565 15.1064C10.565 15.1097 10.565 15.1137 10.565 15.1177C10.3465 16.0683 10.7063 17.1747 11.2344 17.9266C11.474 18.2876 11.8028 18.5805 12.189 18.7769C12.894 19.1367 13.7866 19.2212 15.1709 19.8873C15.4911 20.0411 15.837 20.2266 16.2146 20.4531C17.0392 20.9427 17.8031 21.5282 18.4902 22.1972C18.885 22.5826 19.2435 23.0036 19.561 23.4548" stroke="#1B67AF" stroke-width="0.0187545" stroke-miterlimit="10"/>
<path d="M20.6577 24.7846C20.6966 25.1146 20.7151 25.4414 20.7442 25.7708V25.7768C20.7541 25.891 20.7646 26.0045 20.7752 26.1181C20.7937 26.3089 20.8016 26.5076 20.8359 26.6957C20.7699 26.326 20.6035 25.9134 20.4352 25.4573C20.3269 25.1628 20.2669 24.8875 20.148 24.6492C20.1084 24.5113 19.979 24.1911 19.711 23.7574C19.4199 23.2004 19.1011 22.6584 18.7558 22.1334C18.6838 22.0251 18.6105 21.9155 18.5353 21.8072C17.8751 20.8507 17.3285 20.0605 16.7079 19.3501C16.1793 18.7397 15.5831 18.1911 14.9308 17.7149C14.5172 17.4131 14.087 17.1347 13.6422 16.8811C12.374 16.155 11.259 15.7351 10.4939 15.0723C10.0935 14.7365 9.7932 14.2971 9.62577 13.8022C9.56833 13.6358 9.1828 12.4436 9.79411 11.4784C10.4543 10.4301 11.9997 10.1231 12.885 10.1918C16.4538 10.4717 18.7967 17.5902 20.0576 21.8891C20.0579 21.8915 20.0579 21.894 20.0576 21.8964C20.1249 22.1164 20.1892 22.3365 20.2504 22.5565C20.2952 22.7209 20.3269 22.8866 20.3566 23.0576C20.3613 23.086 20.3659 23.1144 20.3712 23.1427C20.374 23.1706 20.3789 23.1981 20.3857 23.2253C20.3956 23.2794 20.4055 23.3335 20.4147 23.3877L20.5421 24.0756C20.5626 24.1904 20.5837 24.3053 20.6042 24.4202C20.6247 24.535 20.6431 24.6631 20.6577 24.7846Z" fill="url(#paint2_linear_3299_6358)"/>
<path d="M20.6538 24.7786C20.6663 24.8836 20.6769 24.9886 20.6841 25.0935C20.6927 25.213 20.7013 25.3318 20.7112 25.4513C20.7446 25.8738 20.7845 26.2864 20.8307 26.6891C20.7647 26.3194 20.5976 25.9075 20.43 25.4513C20.3217 25.1576 20.2616 24.8816 20.1428 24.6439C20.0343 24.3302 19.8877 24.0309 19.7064 23.7527C19.4157 23.1959 19.0971 22.6541 18.7518 22.1294C18.6799 22.0211 18.6066 21.9116 18.532 21.8033C17.8718 20.8474 17.3266 20.0572 16.706 19.3468C16.178 18.7366 15.5825 18.1882 14.9308 17.7123C14.5177 17.4104 14.0879 17.1321 13.6435 16.8785C12.3773 16.1523 11.263 15.7325 10.4992 15.0703C10.0988 14.735 9.79861 14.2958 9.63175 13.8009C9.57432 13.6345 9.18878 12.4429 9.79943 11.4778C10.4616 10.4301 12.0017 10.1231 12.8843 10.1918C16.4492 10.471 18.7901 17.5855 20.0504 21.8845C20.0506 21.8869 20.0506 21.8893 20.0504 21.8917C20.0983 22.0594 20.147 22.2273 20.1963 22.3954C20.2705 22.6634 20.3305 22.9351 20.3758 23.2094C20.4762 23.7276 20.5917 24.2512 20.6538 24.7786Z" stroke="#1B67AF" stroke-width="0.0187545" stroke-miterlimit="10"/>
<path d="M14.3151 22.2238C14.3587 22.2469 14.4135 22.2733 14.5218 22.3268C14.5218 22.3268 14.6135 22.3724 14.7033 22.4153C15.6837 22.8939 16.7795 23.325 16.7795 23.325C17.3816 23.5613 17.4271 23.558 17.6978 23.694C18.031 23.8591 18.3463 24.0582 18.6385 24.2882C18.9817 24.569 19.2862 24.894 19.5443 25.2546C19.7804 25.5755 19.9869 25.9171 20.1615 26.2752C20.4566 26.8489 20.6236 27.3315 20.8217 27.8953C20.8652 28.0194 20.9458 28.255 21.0395 28.5554C21.1947 29.0571 21.2864 29.4281 21.3471 29.6698C21.7769 31.3862 21.8614 31.4984 21.9875 32.2589C22.0885 32.8676 22.1248 33.3369 22.1116 33.3389C22.0984 33.3409 22.0284 32.7613 21.831 31.9915C21.738 31.6291 21.6442 31.3314 21.53 30.9967C21.0019 29.446 20.7451 28.6657 20.4308 28.224C20.0493 27.688 19.3911 26.7618 18.3659 26.4753C18.3104 26.4601 17.0225 26.1023 16.3194 25.7735L16.2349 25.7332C15.8857 25.5553 15.5588 25.3366 15.2611 25.0817C14.4551 24.3515 14.0405 22.208 14.1844 22.1598C14.1891 22.1545 14.1891 22.1591 14.3151 22.2238Z" fill="url(#paint3_linear_3299_6358)"/>
<path d="M14.3151 22.2238C14.3587 22.2469 14.4135 22.2733 14.5218 22.3268C14.5218 22.3268 14.6135 22.3724 14.7033 22.4153C15.6837 22.8939 16.7795 23.325 16.7795 23.325C17.3816 23.5613 17.4271 23.558 17.6978 23.694C18.031 23.8591 18.3463 24.0582 18.6385 24.2882C18.9817 24.569 19.2862 24.894 19.5443 25.2546C19.7804 25.5755 19.9869 25.9171 20.1615 26.2752C20.4566 26.8489 20.6236 27.3315 20.8217 27.8953C20.8652 28.0194 20.9458 28.255 21.0395 28.5554C21.1947 29.0571 21.2864 29.4281 21.3471 29.6698C21.7769 31.3862 21.8614 31.4984 21.9875 32.2589C22.0885 32.8676 22.1248 33.3369 22.1116 33.3389C22.0984 33.3409 22.0284 32.7613 21.831 31.9915C21.738 31.6291 21.6442 31.3314 21.53 30.9967C21.0019 29.446 20.7451 28.6657 20.4308 28.224C20.0493 27.688 19.3911 26.7618 18.3659 26.4753C18.3104 26.4601 17.0225 26.1023 16.3194 25.7735L16.2349 25.7332C15.8857 25.5553 15.5588 25.3366 15.2611 25.0817C14.4551 24.3515 14.0405 22.208 14.1844 22.1598C14.1891 22.1545 14.1891 22.1591 14.3151 22.2238Z" stroke="#1B67AF" stroke-width="0.0187545" stroke-miterlimit="10"/>
<path d="M21.5631 29.6525C21.5677 29.6842 21.5868 29.8136 21.6146 29.9931C21.6297 30.0902 21.674 30.3688 21.7413 30.7384C21.7578 30.8302 21.775 30.9213 21.7915 31.0124C21.8535 31.3867 21.9077 31.734 21.9532 32.0396C22.0615 32.7658 22.1202 33.2583 22.1163 33.3342C22.1163 33.3408 22.1163 33.3441 22.113 33.3434C22.1027 33.3168 22.0945 33.2895 22.0886 33.2616C22.0707 33.1843 22.0423 33.0569 22.0034 32.876C22.0001 32.8602 21.9968 32.8444 21.9935 32.8272V32.8212C21.9849 32.7803 21.9757 32.7367 21.9658 32.6892C21.905 32.4047 21.8245 32.0244 21.7208 31.5452V31.5366C21.7208 31.5254 21.7162 31.5128 21.7136 31.5003C21.6944 31.4105 21.674 31.3174 21.6529 31.2197C21.3142 29.6749 21.1544 28.8999 21.0627 28.6154C20.9438 28.2444 20.8145 27.843 20.6613 27.4271C20.2157 26.2256 19.5681 24.9337 18.3897 24.0946C18.3521 24.0676 18.3131 24.0411 18.2742 24.0154C17.719 23.6444 17.3176 23.5361 16.4977 23.2107C15.9735 23.0021 15.277 22.7043 14.2604 22.192C14.1878 22.1544 14.1145 22.1181 14.0425 22.0792L13.9917 22.0514L13.9699 22.0389L13.8973 21.998L13.8254 21.9557L13.789 21.9333L13.7659 21.9187L13.7382 21.9009C13.696 21.8732 13.6531 21.8435 13.6115 21.8124C13.5699 21.7814 13.5171 21.7412 13.4689 21.7009C13.4653 21.6976 13.4616 21.6945 13.4576 21.6916L13.4491 21.6844L13.4266 21.6646C13.4215 21.6607 13.4169 21.6563 13.4128 21.6514C13.3784 21.621 13.3316 21.5774 13.2807 21.5279L13.2589 21.5061C13.2523 21.4982 13.2444 21.491 13.2378 21.4837C13.2114 21.456 13.1857 21.4269 13.1606 21.3979C13.1585 21.396 13.1567 21.3937 13.1553 21.3913C13.144 21.3796 13.1335 21.3672 13.1236 21.3543C12.9059 21.084 12.7238 20.787 12.5816 20.4703C12.5763 20.4591 12.5717 20.4479 12.5678 20.4387C12.5638 20.4294 12.5645 20.4294 12.5625 20.4255L12.5499 20.3957C12.5499 20.3957 12.5446 20.3832 12.54 20.3693C12.4355 20.0941 12.3573 19.8097 12.3063 19.5197C12.2925 19.4115 12.2793 19.2999 12.2674 19.1896C12.2542 19.0576 12.243 18.9256 12.2344 18.7988C12.3308 18.8424 12.476 18.9045 12.6542 18.9731C13.1229 19.152 13.4187 19.2187 13.7356 19.3157C14.1007 19.4318 14.4577 19.5718 14.8044 19.7349C15.3954 19.9934 15.967 20.2941 16.5148 20.6347C16.9648 20.9191 17.3959 21.2322 17.8054 21.5722C17.9091 21.6593 18.0695 21.7959 18.2788 21.9894C18.8861 22.5578 19.4374 23.2027 19.8414 23.9329C20.1946 24.5726 20.4322 25.2644 20.6336 25.9635C20.7742 26.4474 20.9161 26.9307 21.0488 27.4159C21.2138 28.0252 21.3736 28.6378 21.4957 29.2577C21.5195 29.3897 21.5433 29.5211 21.5631 29.6525Z" fill="url(#paint4_linear_3299_6358)"/>
<path d="M21.5631 29.6525C21.5677 29.6842 21.5868 29.8136 21.6146 29.9931C21.6297 30.0902 21.674 30.3688 21.7413 30.7384C21.7578 30.8302 21.775 30.9213 21.7915 31.0124C21.8535 31.3867 21.9077 31.734 21.9532 32.0396C22.0615 32.7658 22.1202 33.2583 22.1163 33.3342C22.1163 33.3408 22.1163 33.3441 22.113 33.3434C22.1027 33.3168 22.0945 33.2895 22.0886 33.2616C22.0707 33.1843 22.0423 33.0569 22.0034 32.876C22.0001 32.8602 21.9968 32.8444 21.9935 32.8272V32.8212C21.9849 32.7803 21.9757 32.7367 21.9658 32.6892C21.905 32.4047 21.8245 32.0244 21.7208 31.5452V31.5366C21.7208 31.5254 21.7162 31.5128 21.7136 31.5003C21.6944 31.4105 21.674 31.3174 21.6529 31.2197C21.3142 29.6749 21.1544 28.8999 21.0627 28.6154C20.9438 28.2444 20.8145 27.843 20.6613 27.4271C20.2157 26.2256 19.5681 24.9337 18.3897 24.0946C18.3521 24.0676 18.3131 24.0411 18.2742 24.0154C17.719 23.6444 17.3176 23.5361 16.4977 23.2107C15.9735 23.0021 15.277 22.7043 14.2604 22.192C14.1878 22.1544 14.1145 22.1181 14.0425 22.0792L13.9917 22.0514L13.9699 22.0389L13.8973 21.998L13.8254 21.9557L13.789 21.9333L13.7659 21.9187L13.7382 21.9009C13.696 21.8732 13.6531 21.8435 13.6115 21.8124C13.5699 21.7814 13.5171 21.7412 13.4689 21.7009C13.4653 21.6976 13.4616 21.6945 13.4576 21.6916L13.4491 21.6844L13.4266 21.6646C13.4215 21.6607 13.4169 21.6563 13.4128 21.6514C13.3784 21.621 13.3316 21.5774 13.2807 21.5279L13.2589 21.5061C13.2523 21.4982 13.2444 21.491 13.2378 21.4837C13.2114 21.456 13.1857 21.4269 13.1606 21.3979C13.1585 21.396 13.1567 21.3937 13.1553 21.3913C13.144 21.3796 13.1335 21.3672 13.1236 21.3543C12.9059 21.084 12.7238 20.787 12.5816 20.4703C12.5763 20.4591 12.5717 20.4479 12.5678 20.4387C12.5638 20.4294 12.5645 20.4294 12.5625 20.4255L12.5499 20.3957C12.5499 20.3957 12.5446 20.3832 12.54 20.3693C12.4355 20.0941 12.3573 19.8097 12.3063 19.5197C12.2925 19.4115 12.2793 19.2999 12.2674 19.1896C12.2542 19.0576 12.243 18.9256 12.2344 18.7988C12.3308 18.8424 12.476 18.9045 12.6542 18.9731C13.1229 19.152 13.4187 19.2187 13.7356 19.3157C14.1007 19.4318 14.4577 19.5718 14.8044 19.7349C15.3954 19.9934 15.967 20.2941 16.5148 20.6347C16.9648 20.9191 17.3959 21.2322 17.8054 21.5722C17.9091 21.6593 18.0695 21.7959 18.2788 21.9894C18.7961 22.4687 19.254 23.0084 19.6427 23.5969C20.0091 24.1699 20.2804 24.832 20.4857 25.479C20.6441 25.9767 20.79 26.4784 20.9306 26.9815C21.0977 27.5756 21.2574 28.177 21.3927 28.7811C21.4574 29.0696 21.5202 29.36 21.5631 29.6525Z" stroke="#1B67AF" stroke-width="0.0187545" stroke-miterlimit="10"/>
<path d="M26.6814 19.9459C27.77 19.0554 28.7655 17.9173 29.058 17.7371C29.2144 17.6407 30.3935 16.8696 30.5447 16.7825C31.5118 16.2279 32.3931 15.8523 33.0922 15.41C33.3033 15.28 33.5041 15.1342 33.693 14.9736C33.693 14.9769 33.693 14.9809 33.693 14.9849C33.9088 15.9355 33.5464 17.0419 33.0209 17.7938C32.7813 18.1548 32.4525 18.4477 32.0663 18.6441C31.3613 19.0039 30.4681 19.0884 29.0844 19.7545C28.7642 19.9083 28.4183 20.0938 28.0407 20.3203C27.2161 20.8099 26.4523 21.3954 25.7651 22.0644C25.3705 22.4488 25.012 22.8686 24.6943 23.3187" fill="url(#paint5_linear_3299_6358)"/>
<path d="M26.6814 19.9459C27.77 19.0554 28.7655 17.9173 29.058 17.7371C29.2144 17.6407 30.3935 16.8696 30.5447 16.7825C31.5118 16.2279 32.3931 15.8523 33.0922 15.41C33.3033 15.28 33.5041 15.1342 33.693 14.9736C33.693 14.9769 33.693 14.9809 33.693 14.9849C33.9088 15.9355 33.5464 17.0419 33.0209 17.7938C32.7813 18.1548 32.4525 18.4477 32.0663 18.6441C31.3613 19.0039 30.4681 19.0884 29.0844 19.7545C28.7642 19.9083 28.4183 20.0938 28.0407 20.3203C27.2161 20.8099 26.4523 21.3954 25.7651 22.0644C25.3705 22.4488 25.012 22.8686 24.6943 23.3187" stroke="#1B67AF" stroke-width="0.0187545" stroke-miterlimit="10"/>
<path d="M29.9267 22.0823C29.8831 22.1048 29.8283 22.1312 29.7201 22.1847L29.5385 22.2738C28.5582 22.7517 27.4623 23.1828 27.4623 23.1828C26.8596 23.4198 26.814 23.4158 26.5434 23.5518C26.21 23.7179 25.8947 23.9181 25.6027 24.1493C25.2594 24.43 24.9548 24.755 24.6969 25.1158C24.4607 25.4373 24.2541 25.7795 24.0797 26.1383C23.7846 26.7127 23.6176 27.1979 23.4195 27.759C23.3759 27.8825 23.2954 28.1188 23.2017 28.4192C23.0465 28.9209 22.9548 29.2926 22.894 29.5335C22.4643 31.2466 22.3798 31.3628 22.2537 32.1233C22.1527 32.732 22.1164 33.2014 22.1296 33.2034C22.1428 33.2053 22.2127 32.6257 22.4101 31.856C22.5032 31.4935 22.5976 31.1958 22.7118 30.8605C23.2399 29.3104 23.4961 28.5301 23.8103 28.0878C24.1919 27.5517 24.8501 26.6255 25.8753 26.339C25.9308 26.3238 27.2187 25.9654 27.9218 25.6373L28.0063 25.5964C28.357 25.4161 28.6848 25.1945 28.9827 24.9362C29.7887 24.2054 30.204 22.0625 30.0594 22.0137C30.0528 22.0137 30.0528 22.0183 29.9267 22.0823Z" fill="url(#paint6_linear_3299_6358)"/>
<path d="M29.9267 22.0823C29.8831 22.1048 29.8283 22.1312 29.7201 22.1847L29.5385 22.2738C28.5582 22.7517 27.4623 23.1828 27.4623 23.1828C26.8596 23.4198 26.814 23.4158 26.5434 23.5518C26.21 23.7179 25.8947 23.9181 25.6027 24.1493C25.2594 24.43 24.9548 24.755 24.6969 25.1158C24.4607 25.4373 24.2541 25.7795 24.0797 26.1383C23.7846 26.7127 23.6176 27.1979 23.4195 27.759C23.3759 27.8825 23.2954 28.1188 23.2017 28.4192C23.0465 28.9209 22.9548 29.2926 22.894 29.5335C22.4643 31.2466 22.3798 31.3628 22.2537 32.1233C22.1527 32.732 22.1164 33.2014 22.1296 33.2034C22.1428 33.2053 22.2127 32.6257 22.4101 31.856C22.5032 31.4935 22.5976 31.1958 22.7118 30.8605C23.2399 29.3104 23.4961 28.5301 23.8103 28.0878C24.1919 27.5517 24.8501 26.6255 25.8753 26.339C25.9308 26.3238 27.2187 25.9654 27.9218 25.6373L28.0063 25.5964C28.357 25.4161 28.6848 25.1945 28.9827 24.9362C29.7887 24.2054 30.204 22.0625 30.0594 22.0137C30.0528 22.0137 30.0528 22.0183 29.9267 22.0823Z" stroke="#1B67AF" stroke-width="0.0187545" stroke-miterlimit="10"/>
<path d="M23.5978 24.6568C23.5701 24.8548 23.5483 25.0529 23.5358 25.2476C23.5074 25.688 23.4698 26.1289 23.4189 26.568C23.485 26.1983 23.6513 25.7857 23.8197 25.3295C23.9279 25.0357 23.988 24.7598 24.1068 24.5215C24.2156 24.2077 24.3623 23.9084 24.5439 23.6302C24.8348 23.073 25.1536 22.5308 25.4991 22.0056C25.5711 21.8973 25.6443 21.7884 25.7196 21.6801C26.3798 20.7229 26.9264 19.9327 27.5469 19.2224C28.0753 18.6119 28.671 18.0631 29.3227 17.5865C29.7363 17.2846 30.1665 17.0063 30.6114 16.7527C31.8795 16.0265 32.9945 15.6067 33.7597 14.9439C34.161 14.6087 34.4622 14.1695 34.6304 13.6744C34.6878 13.5074 35.0734 12.3151 34.4621 11.35C33.7986 10.3017 32.2565 9.99468 31.3692 10.064C27.8044 10.3432 25.4595 17.4617 24.1986 21.7607C24.1984 21.7631 24.1984 21.7655 24.1986 21.7679C24.1656 21.8802 24.133 21.9924 24.1009 22.1046C24.0824 22.1594 24.0685 22.2155 24.052 22.271C24.0203 22.3806 23.986 22.4895 23.9623 22.6011C23.9385 22.7126 23.9207 22.8156 23.9015 22.9232C23.8824 23.0308 23.8599 23.153 23.8395 23.2685C23.819 23.384 23.7979 23.4982 23.7767 23.6137C23.7556 23.7293 23.7352 23.8435 23.7147 23.959C23.6705 24.1887 23.6302 24.4218 23.5978 24.6568Z" fill="url(#paint7_linear_3299_6358)"/>
<path d="M23.5945 24.6561C23.5391 25.111 23.5206 25.5705 23.4757 26.0273C23.4586 26.2055 23.4513 26.391 23.4189 26.5673C23.485 26.1976 23.6513 25.785 23.8197 25.3288C23.8949 25.1242 23.9484 24.911 24.0276 24.707C24.0613 24.6185 24.1015 24.5327 24.1332 24.4429C24.1517 24.3901 24.1728 24.3373 24.1953 24.2858C24.2639 24.1288 24.3411 23.9756 24.4263 23.827C24.4646 23.761 24.5108 23.6949 24.5465 23.625C24.8375 23.0677 25.1563 22.5255 25.5017 22.0003C25.5737 21.8921 25.647 21.7831 25.7222 21.6749C26.3824 20.7176 26.929 19.9274 27.5496 19.2171C28.0774 18.6086 28.6723 18.0616 29.3227 17.5865C29.7363 17.2846 30.1665 17.0063 30.6114 16.7527C31.8795 16.0265 32.9945 15.6067 33.7597 14.9439C34.161 14.6087 34.4622 14.1695 34.6304 13.6744C34.6878 13.5074 35.0734 12.3151 34.4621 11.35C33.7986 10.3017 32.2565 9.99468 31.3692 10.064C27.8044 10.3432 25.4595 17.4617 24.1986 21.7607C24.1984 21.7631 24.1984 21.7655 24.1986 21.7679C24.1643 21.8782 24.1326 21.9891 24.1022 22.098C24.0718 22.2069 24.0441 22.3212 24.0177 22.4327C23.9913 22.5443 23.9656 22.6552 23.9418 22.7674C23.918 22.8796 23.8949 22.9912 23.8725 23.1034V23.11C23.85 23.2243 23.8289 23.3378 23.8065 23.452C23.784 23.5662 23.7642 23.6804 23.7437 23.7946L23.6883 24.1029C23.6526 24.2897 23.617 24.4713 23.5945 24.6561Z" stroke="#1B67AF" stroke-width="0.0187545" stroke-miterlimit="10"/>
<path d="M22.7005 29.5197C22.6959 29.5514 22.6768 29.6808 22.649 29.8603C22.6338 29.9574 22.5896 30.236 22.5223 30.6057C22.5058 30.6981 22.4886 30.7892 22.4714 30.8796C22.41 31.2546 22.3559 31.6012 22.3104 31.9068C22.2021 32.633 22.1341 33.2437 22.1381 33.3196C22.1381 33.3262 22.1493 33.212 22.1506 33.2113C22.1506 33.2113 22.1361 33.3235 22.1367 33.3216C22.1374 33.3196 22.1645 33.171 22.1757 33.1268C22.1935 33.0496 22.2219 32.9222 22.2609 32.7413C22.2609 32.7254 22.2675 32.7102 22.2708 32.6931V32.6865C22.2793 32.6456 22.2886 32.6026 22.2985 32.5545C22.3592 32.2693 22.4398 31.8897 22.5434 31.4097V31.4012C22.5434 31.3899 22.548 31.3781 22.5507 31.3648C22.5698 31.2751 22.5903 31.182 22.6114 31.0843C22.9501 29.5395 23.1098 28.7651 23.2016 28.48C23.3204 28.1096 23.4491 27.7076 23.603 27.2917C24.0486 26.0895 24.6962 24.7976 25.8746 23.9592C25.9122 23.9321 25.9511 23.9057 25.9901 23.8793C26.5453 23.5083 26.9467 23.4 27.7666 23.0746C28.2907 22.866 28.9872 22.5682 30.0038 22.056C30.0765 22.019 30.1497 21.9827 30.2217 21.9431L30.2725 21.9153C30.28 21.9118 30.2873 21.9078 30.2943 21.9035L30.3669 21.8619C30.3907 21.8487 30.4151 21.8341 30.4389 21.8196C30.4508 21.813 30.4633 21.8051 30.4752 21.7972L30.4983 21.7827L30.526 21.7648C30.5683 21.7371 30.6112 21.7074 30.6528 21.677C30.6944 21.6467 30.7472 21.6057 30.7954 21.5648L30.8066 21.5556L30.8152 21.5483L30.8376 21.5285C30.8427 21.5249 30.8474 21.5206 30.8515 21.5159C30.8858 21.4849 30.9327 21.4413 30.9835 21.3918C30.9908 21.3846 30.9974 21.3767 31.0046 21.3701C31.0119 21.3634 31.0192 21.3555 31.0258 21.3476C31.0528 21.3199 31.0786 21.2915 31.1037 21.2618L31.109 21.2558C31.1202 21.2433 31.1307 21.2314 31.1406 21.2182C31.3585 20.948 31.5406 20.651 31.6826 20.3343L31.6965 20.3032C31.6965 20.298 31.6998 20.2933 31.7018 20.2894L31.7143 20.2597C31.7143 20.2597 31.7196 20.2471 31.7242 20.2339C31.8305 19.9591 31.9105 19.6748 31.9632 19.385C31.9764 19.2767 31.9896 19.1651 32.0015 19.0549C32.0153 18.9228 32.0266 18.7908 32.0352 18.6641C31.9388 18.7076 31.7935 18.7697 31.6153 18.8383C31.1466 19.0179 30.8508 19.0839 30.534 19.181C30.1669 19.2977 29.8079 19.4384 29.4592 19.6021C28.8694 19.8612 28.2989 20.1621 27.752 20.5026C27.3019 20.7869 26.8708 21.1003 26.4614 21.4407C26.3578 21.5272 26.1974 21.6645 25.9881 21.8572C25.394 22.4124 24.8493 23.0416 24.4447 23.7493C24.4341 23.7677 24.4235 23.7862 24.4136 23.8047C24.0651 24.4272 23.8532 25.1131 23.6459 25.7925C23.4821 26.3289 23.3281 26.8683 23.1838 27.4105C23.0194 28.0238 22.859 28.6404 22.7447 29.2649C22.7276 29.3494 22.7131 29.4345 22.7005 29.5197Z" fill="url(#paint8_linear_3299_6358)"/>
<path d="M22.1271 33.3216C22.1232 33.2457 22.1931 32.6344 22.2994 31.9088C22.345 31.6032 22.3991 31.2566 22.4612 30.8816C22.4783 30.7912 22.4948 30.7001 22.5113 30.6077C22.5773 30.238 22.6229 29.9594 22.6381 29.8624C22.6658 29.6828 22.6849 29.5534 22.6896 29.5217C22.7859 28.9395 22.913 28.3628 23.0705 27.7941C23.2333 27.1643 23.4094 26.5378 23.5986 25.9146C23.8442 25.0921 24.1228 24.2695 24.573 23.5341C24.9599 22.9226 25.4261 22.365 25.9593 21.8758L25.9778 21.8586C26.1844 21.6658 26.3475 21.5285 26.4511 21.442C26.8605 21.1016 27.2916 20.7883 27.7418 20.504C28.2886 20.163 28.8591 19.8617 29.4489 19.6022C29.7975 19.4377 30.1565 19.2964 30.5237 19.179C30.8405 19.082 31.1363 19.016 31.605 18.8364C31.7832 18.7704 31.9285 18.7044 32.0249 18.6621C32.0163 18.7889 32.0051 18.9196 31.9919 19.0529C31.98 19.1658 31.9668 19.2774 31.9529 19.383C31.902 19.6732 31.8237 19.9579 31.7192 20.2333C31.7146 20.2465 31.7093 20.259 31.7093 20.259L31.6968 20.2887C31.6968 20.2887 31.6935 20.2973 31.6915 20.3026L31.6776 20.3336C31.5356 20.6503 31.3535 20.9474 31.1356 21.2176C31.1257 21.2308 31.1152 21.2427 31.1039 21.2552L31.0987 21.2612C31.0736 21.2909 31.0478 21.3192 31.0214 21.347C31.0148 21.3549 31.0069 21.3622 31.0003 21.3694C30.9937 21.3767 30.9858 21.3839 30.9785 21.3912C30.9283 21.4407 30.8815 21.4843 30.8465 21.5153C30.8424 21.52 30.8377 21.5242 30.8326 21.5279L30.8102 21.5477L30.8016 21.5549L30.7897 21.5648C30.7422 21.6051 30.6953 21.6421 30.6478 21.6764C30.6002 21.7107 30.5633 21.7365 30.521 21.7642L30.4933 21.782L30.4702 21.7965C30.4583 21.8045 30.4458 21.8124 30.4339 21.819C30.4101 21.8335 30.3857 21.848 30.3619 21.8612L30.2893 21.9028C30.2823 21.9072 30.275 21.9111 30.2675 21.9147L30.2167 21.9424C30.1447 21.982 30.0715 22.0184 29.9988 22.0553C28.9822 22.5676 28.2824 22.8653 27.7616 23.0739C26.9416 23.3994 26.5403 23.5077 25.9851 23.8787C25.9461 23.9051 25.9072 23.9315 25.8695 23.9586C24.6912 24.797 24.0436 26.0889 23.5973 27.2924C23.4448 27.7056 23.3154 28.1077 23.1966 28.4806C23.1048 28.7658 22.945 29.5402 22.6064 31.085C22.5853 31.1827 22.5648 31.2758 22.5457 31.3669C22.5457 31.3787 22.5404 31.3906 22.5384 31.4018V31.4104C22.4347 31.8904 22.3542 32.2686 22.2935 32.5551C22.2836 32.6007 22.2743 32.6436 22.2657 32.6872V32.6938C22.2657 32.7109 22.2591 32.7261 22.2558 32.742C22.2169 32.9228 22.1898 33.0503 22.1707 33.1275C22.1548 33.1711 22.1324 33.3117 22.1271 33.3216ZM22.1271 33.3216C22.1271 33.3282 22.1383 33.214 22.139 33.214C22.139 33.214 22.1271 33.3236 22.1271 33.3216Z" stroke="#1B67AF" stroke-width="0.0187545" stroke-miterlimit="10"/>
<g clip-path="url(#clip1_3299_6358)">
<path d="M35.5 4V16" stroke="#FFBA26" stroke-width="2.5" stroke-miterlimit="10" stroke-linecap="round" stroke-linejoin="round"/>
<path d="M28.5 10H41.5" stroke="#FFBA26" stroke-width="2.5" stroke-miterlimit="10" stroke-linecap="round" stroke-linejoin="round"/>
</g>
</g>
<defs>
<linearGradient id="paint0_linear_3299_6358" x1="21.0651" y1="33.531" x2="21.9603" y2="26.6509" gradientUnits="userSpaceOnUse">
<stop offset="0.07"/>
<stop offset="0.27" stop-color="#2897FF"/>
<stop offset="0.45" stop-color="#2897FF"/>
<stop offset="0.6" stop-color="#258BEC"/>
<stop offset="0.77" stop-color="#207ACE"/>
<stop offset="1" stop-color="#185A99"/>
</linearGradient>
<linearGradient id="paint1_linear_3299_6358" x1="16.3922" y1="24.6622" x2="13.6572" y2="14.9203" gradientUnits="userSpaceOnUse">
<stop offset="0.01" stop-color="#2897FF"/>
<stop offset="0.18" stop-color="#2897FF"/>
<stop offset="0.39" stop-color="#2897FF"/>
<stop offset="0.5" stop-color="#258BEC"/>
<stop offset="0.68" stop-color="#207ACE"/>
<stop offset="1" stop-color="#185A99"/>
</linearGradient>
<linearGradient id="paint2_linear_3299_6358" x1="19.5559" y1="27.8899" x2="11.8683" y2="10.4948" gradientUnits="userSpaceOnUse">
<stop offset="0.01" stop-color="#2897FF"/>
<stop offset="0.18" stop-color="#2897FF"/>
<stop offset="0.39" stop-color="#2897FF"/>
<stop offset="0.5" stop-color="#258BEC"/>
<stop offset="0.68" stop-color="#207ACE"/>
<stop offset="1" stop-color="#185A99"/>
</linearGradient>
<linearGradient id="paint3_linear_3299_6358" x1="20.3199" y1="29.776" x2="15.582" y2="22.3618" gradientUnits="userSpaceOnUse">
<stop offset="0.01" stop-color="#2897FF"/>
<stop offset="0.18" stop-color="#2897FF"/>
<stop offset="0.39" stop-color="#2897FF"/>
<stop offset="0.5" stop-color="#258BEC"/>
<stop offset="0.68" stop-color="#207ACE"/>
<stop offset="1" stop-color="#185A99"/>
</linearGradient>
<linearGradient id="paint4_linear_3299_6358" x1="19.8196" y1="27.1908" x2="13.2398" y2="19.5758" gradientUnits="userSpaceOnUse">
<stop offset="0.01" stop-color="#2897FF"/>
<stop offset="0.18" stop-color="#2897FF"/>
<stop offset="0.39" stop-color="#2897FF"/>
<stop offset="0.5" stop-color="#258BEC"/>
<stop offset="0.68" stop-color="#207ACE"/>
<stop offset="1" stop-color="#185A99"/>
</linearGradient>
<linearGradient id="paint5_linear_3299_6358" x1="30.7077" y1="24.5552" x2="27.945" y2="14.7122" gradientUnits="userSpaceOnUse">
<stop offset="0.01" stop-color="#2897FF"/>
<stop offset="0.18" stop-color="#2897FF"/>
<stop offset="0.39" stop-color="#2897FF"/>
<stop offset="0.5" stop-color="#258BEC"/>
<stop offset="0.68" stop-color="#207ACE"/>
<stop offset="1" stop-color="#185A99"/>
</linearGradient>
<linearGradient id="paint6_linear_3299_6358" x1="21.6219" y1="29.8042" x2="31.3784" y2="24.6761" gradientUnits="userSpaceOnUse">
<stop offset="0.01" stop-color="#2897FF"/>
<stop offset="0.18" stop-color="#2897FF"/>
<stop offset="0.39" stop-color="#2897FF"/>
<stop offset="0.5" stop-color="#258BEC"/>
<stop offset="0.68" stop-color="#207ACE"/>
<stop offset="1" stop-color="#185A99"/>
</linearGradient>
<linearGradient id="paint7_linear_3299_6358" x1="32.9912" y1="28.0975" x2="25.2502" y2="10.5809" gradientUnits="userSpaceOnUse">
<stop offset="0.01" stop-color="#2897FF"/>
<stop offset="0.18" stop-color="#2897FF"/>
<stop offset="0.39" stop-color="#2897FF"/>
<stop offset="0.5" stop-color="#258BEC"/>
<stop offset="0.68" stop-color="#207ACE"/>
<stop offset="1" stop-color="#185A99"/>
</linearGradient>
<linearGradient id="paint8_linear_3299_6358" x1="22.4087" y1="27.8581" x2="33.7126" y2="23.1855" gradientUnits="userSpaceOnUse">
<stop offset="0.01" stop-color="#2897FF"/>
<stop offset="0.18" stop-color="#2897FF"/>
<stop offset="0.39" stop-color="#2897FF"/>
<stop offset="0.5" stop-color="#258BEC"/>
<stop offset="0.68" stop-color="#207ACE"/>
<stop offset="1" stop-color="#185A99"/>
</linearGradient>
<clipPath id="clip0_3299_6358">
<rect width="44" height="44" fill="white"/>
</clipPath>
<clipPath id="clip1_3299_6358">
<rect width="22.8516" height="22.8516" fill="white" transform="translate(27.2461 0.0976562)"/>
</clipPath>
</defs>
</svg>
