<svg width="48" height="48" viewBox="0 0 48 48" fill="none" xmlns="http://www.w3.org/2000/svg">
<rect x="0.5" y="0.5" width="47" height="47" rx="4.5" stroke="#CFCFCF"/>
<g clip-path="url(#clip0_3349_5820)">
<path d="M13.1848 2C12.9384 2 12.4457 2 12.0022 2C11.0168 2.04927 9.73572 2.09854 9.19373 2.24636C8.30683 2.44345 7.4692 2.68981 6.7794 3.03471C5.99104 3.42889 5.25196 3.97088 4.61142 4.61142C3.97088 5.25196 3.47816 5.94177 3.03471 6.7794C2.68981 7.4692 2.39418 8.30683 2.24636 9.14446C2.14782 9.73572 2.04927 11.0168 2 12.0022V13.1848V34.8152V35.9978C2.04927 36.9832 2.09854 38.2643 2.24636 38.8063C2.44345 39.6932 2.68981 40.5308 3.03471 41.2206C3.42889 42.009 3.97088 42.748 4.61142 43.3886C5.25196 44.0291 5.94177 44.5218 6.7794 44.9653C7.4692 45.3102 8.30683 45.6058 9.14446 45.7536C9.73572 45.8522 11.0168 45.9507 12.0022 46H13.1848H34.8152H35.9978C36.9832 45.9507 38.2643 45.9015 38.8063 45.7536C39.6932 45.5565 40.5308 45.3102 41.2206 44.9653C42.009 44.5711 42.748 44.0291 43.3886 43.3886C44.0291 42.748 44.5218 42.0582 44.9653 41.2206C45.3102 40.5308 45.6058 39.6932 45.7536 38.8555C45.8522 38.2643 45.9507 36.9832 46 35.9978C46 35.6036 46 35.0616 46 34.8152V13.1848C46 12.9384 46 12.4457 46 12.0022C45.9507 11.0168 45.9015 9.73572 45.7536 9.19373C45.5565 8.30683 45.3102 7.4692 44.9653 6.7794C44.5711 5.99104 44.0291 5.25196 43.3886 4.61142C42.748 3.97088 42.0582 3.47816 41.2206 3.03471C40.5308 2.68981 39.6932 2.39418 38.8555 2.24636C38.2643 2.14782 36.9832 2.04927 35.9978 2C35.6036 2 35.0616 2 34.8152 2H13.1848Z" fill="url(#paint0_linear_3349_5820)"/>
<path d="M32.0066 26.3403C31.6124 26.1432 29.6415 25.2071 29.2966 25.0592C28.9517 24.9114 28.6561 24.8622 28.4097 25.2563C28.1634 25.6505 27.375 26.5374 27.1779 26.7838C26.9316 27.0301 26.7345 27.0794 26.3403 26.8823C25.9461 26.6852 24.665 26.291 23.1376 24.9607C21.9551 23.926 21.1667 22.6449 20.9204 22.2507C20.674 21.8566 20.9204 21.6595 21.1175 21.4624C21.3145 21.2653 21.5116 21.0189 21.7087 20.7726C21.9058 20.5262 21.9551 20.3784 22.1029 20.132C22.2507 19.8857 22.1522 19.6393 22.0536 19.4422C21.9551 19.2451 21.1667 17.3235 20.8218 16.5352C20.4769 15.7961 20.1813 15.8946 19.9349 15.8454C19.6886 15.8454 19.4422 15.8454 19.1958 15.8454C18.9495 15.8454 18.506 15.9439 18.1611 16.3381C17.8162 16.7323 16.7815 17.6684 16.7815 19.59C16.7815 21.5117 18.2104 23.3347 18.4075 23.6304C18.6046 23.8767 21.216 27.8185 25.1578 29.4937C26.0939 29.8879 26.833 30.1343 27.4243 30.3314C28.3605 30.627 29.2474 30.5777 29.9372 30.4792C30.6762 30.3806 32.3022 29.543 32.5979 28.6561C32.9428 27.7692 32.9428 26.9809 32.8442 26.833C32.6471 26.636 32.4008 26.5374 32.0066 26.3403ZM24.468 36.4904C22.1029 36.4904 19.8364 35.8498 17.8162 34.6673L17.3235 34.3717L12.3963 35.6528L13.7266 30.8734L13.431 30.3806C12.1499 28.3112 11.4601 25.9461 11.4601 23.4825C11.4601 16.3381 17.3235 10.524 24.5172 10.524C27.917 10.524 31.2182 11.8543 33.6818 14.3179C36.1455 16.7815 37.4758 20.0335 37.4758 23.4825C37.4758 30.627 31.6124 36.4904 24.468 36.4904ZM35.5542 12.4456C32.5979 9.48926 28.6561 7.86328 24.468 7.86328C15.8453 7.86328 8.79943 14.8599 8.79943 23.4825C8.79943 26.2418 9.53851 28.9025 10.8689 31.2675L8.65161 39.3482L16.9293 37.1802C19.1958 38.412 21.8073 39.1018 24.4187 39.1018C33.0413 39.1018 40.0872 32.1052 40.0872 23.4825C40.1365 19.3437 38.5105 15.4019 35.5542 12.4456Z" fill="white"/>
</g>
<defs>
<linearGradient id="paint0_linear_3349_5820" x1="24.0148" y1="2.00985" x2="24.0148" y2="45.9704" gradientUnits="userSpaceOnUse">
<stop stop-color="#62FA7F"/>
<stop offset="0.6865" stop-color="#22CC40"/>
<stop offset="1" stop-color="#05B723"/>
</linearGradient>
<clipPath id="clip0_3349_5820">
<rect width="44" height="44" fill="white" transform="translate(2 2)"/>
</clipPath>
</defs>
</svg>
