<svg width="48" height="48" viewBox="0 0 48 48" fill="none" xmlns="http://www.w3.org/2000/svg">
<rect x="0.5" y="0.5" width="47" height="47" rx="4.5" stroke="#CFCFCF"/>
<g clip-path="url(#clip0_3349_5841)">
<path d="M13.1848 2C12.9384 2 12.4457 2 12.0022 2C11.0168 2.04927 9.73572 2.09854 9.19373 2.24636C8.30683 2.44345 7.4692 2.68981 6.7794 3.03471C5.99104 3.42889 5.25196 3.97088 4.61142 4.61142C3.97088 5.25196 3.47816 5.94177 3.03471 6.7794C2.68981 7.4692 2.39418 8.30683 2.24636 9.14446C2.14782 9.73572 2.04927 11.0168 2 12.0022V13.1848V34.8152V35.9978C2.04927 36.9832 2.09854 38.2643 2.24636 38.8063C2.44345 39.6932 2.68981 40.5308 3.03471 41.2206C3.42889 42.009 3.97088 42.748 4.61142 43.3886C5.25196 44.0291 5.94177 44.5218 6.7794 44.9653C7.4692 45.3102 8.30683 45.6058 9.14446 45.7536C9.73572 45.8522 11.0168 45.9507 12.0022 46H13.1848H34.8152H35.9978C36.9832 45.9507 38.2643 45.9015 38.8063 45.7536C39.6932 45.5565 40.5308 45.3102 41.2206 44.9653C42.009 44.5711 42.748 44.0291 43.3886 43.3886C44.0291 42.748 44.5218 42.0582 44.9653 41.2206C45.3102 40.5308 45.6058 39.6932 45.7536 38.8555C45.8522 38.2643 45.9507 36.9832 46 35.9978C46 35.6036 46 35.0616 46 34.8152V13.1848C46 12.9384 46 12.4457 46 12.0022C45.9507 11.0168 45.9015 9.73572 45.7536 9.19373C45.5565 8.30683 45.3102 7.4692 44.9653 6.7794C44.5711 5.99104 44.0291 5.25196 43.3886 4.61142C42.748 3.97088 42.0582 3.47816 41.2206 3.03471C40.5308 2.68981 39.6932 2.39418 38.8555 2.24636C38.2643 2.14782 36.9832 2.04927 35.9978 2C35.6036 2 35.0616 2 34.8152 2H13.1848Z" fill="url(#paint0_linear_3349_5841)"/>
<g clip-path="url(#clip1_3349_5841)">
<path fill-rule="evenodd" clip-rule="evenodd" d="M25 12.8462C19.3922 12.8462 14.8462 17.3922 14.8462 23C14.8462 24.9995 15.4232 26.8614 16.4194 28.4316C16.5681 28.666 16.6035 28.9548 16.5157 29.2181L15.3826 32.6174L18.7819 31.4843C19.0452 31.3966 19.334 31.4319 19.5684 31.5806C21.1386 32.5769 23.0005 33.1538 25 33.1538C26.68 33.1538 28.2622 32.7466 29.6558 32.0262C30.1087 31.792 30.6656 31.9694 30.8997 32.4223C31.1338 32.8751 30.9564 33.432 30.5035 33.6661C28.854 34.5189 26.9819 35 25 35C22.7991 35 20.7345 34.4068 18.9598 33.3711L14.215 34.9526C13.8833 35.0631 13.5176 34.9769 13.2704 34.7296C13.0232 34.4825 12.9368 34.1167 13.0474 33.785L14.629 29.0402C13.5933 27.2656 13 25.2009 13 23C13 16.3726 18.3726 11 25 11C31.6274 11 37 16.3726 37 23C37 24.9141 36.5511 26.726 35.7521 28.3339C35.5253 28.7904 34.9713 28.9766 34.5147 28.7497C34.0582 28.5228 33.872 27.9689 34.099 27.5122C34.7739 26.1541 35.1538 24.6228 35.1538 23C35.1538 17.3922 30.6079 12.8462 25 12.8462Z" fill="white"/>
<g clip-path="url(#clip2_3349_5841)">
<path d="M25.4311 20.0129C25.8472 20.2738 26.139 20.7153 26.1922 21.2278C26.3619 21.3071 26.5502 21.3527 26.7499 21.3527C27.479 21.3527 28.0699 20.7618 28.0699 20.0328C28.0699 19.3038 27.479 18.7129 26.7499 18.7129C26.0279 18.7131 25.4421 19.2935 25.4311 20.0129ZM24.5664 22.7154C25.2954 22.7154 25.8863 22.1244 25.8863 21.3955C25.8863 20.6665 25.2953 20.0756 24.5664 20.0756C23.8374 20.0756 23.2462 20.6667 23.2462 21.3956C23.2462 22.1245 23.8374 22.7154 24.5664 22.7154ZM25.1263 22.8054H24.0063C23.0744 22.8054 22.3162 23.5637 22.3162 24.4956V25.8653L22.3197 25.8867L22.414 25.9163C23.3034 26.1941 24.076 26.2868 24.7119 26.2868C25.9541 26.2868 26.674 25.9327 26.7184 25.9101L26.8066 25.8655H26.816V24.4956C26.8163 23.5637 26.0582 22.8054 25.1263 22.8054ZM27.3101 21.4428H26.1987C26.1867 21.8874 25.9969 22.2878 25.6966 22.5758C26.525 22.8221 27.131 23.5903 27.131 24.4976V24.9197C28.2284 24.8795 28.8607 24.5685 28.9024 24.5476L28.9906 24.5029H29V23.1327C29 22.2009 28.2419 21.4428 27.3101 21.4428ZM22.2503 21.3529C22.5085 21.3529 22.7487 21.2775 22.9523 21.1492C23.017 20.7272 23.2432 20.3585 23.5663 20.1073C23.5677 20.0826 23.57 20.0581 23.57 20.0332C23.57 19.3041 22.979 18.7132 22.2503 18.7132C21.5211 18.7132 20.9303 19.3041 20.9303 20.0332C20.9303 20.7619 21.5211 21.3529 22.2503 21.3529ZM23.4357 22.5758C23.1369 22.2893 22.9478 21.891 22.934 21.4491C22.8927 21.446 22.852 21.4428 22.81 21.4428H21.69C20.7581 21.4428 20 22.2009 20 23.1327V24.5026L20.0035 24.5237L20.0978 24.5535C20.8113 24.7762 21.448 24.8789 22.001 24.9112V24.4976C22.0013 23.5903 22.6071 22.8224 23.4357 22.5758Z" fill="white"/>
</g>
</g>
</g>
<defs>
<linearGradient id="paint0_linear_3349_5841" x1="24.0148" y1="2.00985" x2="24.0148" y2="45.9704" gradientUnits="userSpaceOnUse">
<stop stop-color="#62FA7F"/>
<stop offset="0.6865" stop-color="#22CC40"/>
<stop offset="1" stop-color="#05B723"/>
</linearGradient>
<clipPath id="clip0_3349_5841">
<rect width="44" height="44" fill="white" transform="translate(2 2)"/>
</clipPath>
<clipPath id="clip1_3349_5841">
<rect width="24" height="24" fill="white" transform="translate(13 11)"/>
</clipPath>
<clipPath id="clip2_3349_5841">
<rect width="9" height="9" fill="white" transform="translate(20 18)"/>
</clipPath>
</defs>
</svg>
