<svg width="48" height="48" viewBox="0 0 48 48" fill="none" xmlns="http://www.w3.org/2000/svg">
<rect x="0.5" y="0.5" width="47" height="47" rx="4.5" stroke="#CFCFCF"/>
<g clip-path="url(#clip0_3349_5834)">
<path d="M13.1848 2C12.9384 2 12.4457 2 12.0022 2C11.0168 2.04927 9.73572 2.09854 9.19373 2.24636C8.30683 2.44345 7.4692 2.68981 6.7794 3.03471C5.99104 3.42889 5.25196 3.97088 4.61142 4.61142C3.97088 5.25196 3.47816 5.94177 3.03471 6.7794C2.68981 7.4692 2.39418 8.30683 2.24636 9.14446C2.14782 9.73572 2.04927 11.0168 2 12.0022V13.1848V34.8152V35.9978C2.04927 36.9832 2.09854 38.2643 2.24636 38.8063C2.44345 39.6932 2.68981 40.5308 3.03471 41.2206C3.42889 42.009 3.97088 42.748 4.61142 43.3886C5.25196 44.0291 5.94177 44.5218 6.7794 44.9653C7.4692 45.3102 8.30683 45.6058 9.14446 45.7536C9.73572 45.8522 11.0168 45.9507 12.0022 46H13.1848H34.8152H35.9978C36.9832 45.9507 38.2643 45.9015 38.8063 45.7536C39.6932 45.5565 40.5308 45.3102 41.2206 44.9653C42.009 44.5711 42.748 44.0291 43.3886 43.3886C44.0291 42.748 44.5218 42.0582 44.9653 41.2206C45.3102 40.5308 45.6058 39.6932 45.7536 38.8555C45.8522 38.2643 45.9507 36.9832 46 35.9978C46 35.6036 46 35.0616 46 34.8152V13.1848C46 12.9384 46 12.4457 46 12.0022C45.9507 11.0168 45.9015 9.73572 45.7536 9.19373C45.5565 8.30683 45.3102 7.4692 44.9653 6.7794C44.5711 5.99104 44.0291 5.25196 43.3886 4.61142C42.748 3.97088 42.0582 3.47816 41.2206 3.03471C40.5308 2.68981 39.6932 2.39418 38.8555 2.24636C38.2643 2.14782 36.9832 2.04927 35.9978 2C35.6036 2 35.0616 2 34.8152 2H13.1848Z" fill="url(#paint0_linear_3349_5834)"/>
<g clip-path="url(#clip1_3349_5834)">
<path fill-rule="evenodd" clip-rule="evenodd" d="M24 12.8462C18.3922 12.8462 13.8462 17.3922 13.8462 23C13.8462 24.9995 14.4232 26.8614 15.4194 28.4316C15.5681 28.666 15.6035 28.9548 15.5157 29.2181L14.3826 32.6174L17.7819 31.4843C18.0452 31.3966 18.334 31.4319 18.5684 31.5806C20.1386 32.5769 22.0005 33.1538 24 33.1538C25.68 33.1538 27.2622 32.7466 28.6558 32.0262C29.1087 31.792 29.6656 31.9694 29.8997 32.4223C30.1338 32.8751 29.9564 33.432 29.5035 33.6661C27.854 34.5189 25.9819 35 24 35C21.7991 35 19.7345 34.4068 17.9598 33.3711L13.215 34.9526C12.8833 35.0631 12.5176 34.9769 12.2704 34.7296C12.0232 34.4825 11.9368 34.1167 12.0474 33.785L13.629 29.0402C12.5933 27.2656 12 25.2009 12 23C12 16.3726 17.3726 11 24 11C30.6274 11 36 16.3726 36 23C36 24.9141 35.5511 26.726 34.7521 28.3339C34.5253 28.7904 33.9713 28.9766 33.5147 28.7497C33.0582 28.5228 32.872 27.9689 33.099 27.5122C33.7739 26.1541 34.1538 24.6228 34.1538 23C34.1538 17.3922 29.6079 12.8462 24 12.8462Z" fill="white"/>
<path fill-rule="evenodd" clip-rule="evenodd" d="M23.2052 17.8284C23.7092 17.7513 24.0553 17.2803 23.9783 16.7764C23.9012 16.2724 23.4302 15.9264 22.9262 16.0034C21.7363 16.1853 20.5767 16.6737 19.5724 17.4797C18.5681 18.2856 17.8402 19.3118 17.4048 20.4342C17.2204 20.9094 17.4563 21.4442 17.9316 21.6285C18.4069 21.8129 18.9417 21.5771 19.126 21.1018C19.4471 20.274 19.9835 19.5169 20.7279 18.9195C21.4723 18.3222 22.3276 17.9625 23.2052 17.8284ZM30.5985 25.5642C30.7828 25.0888 30.547 24.5542 30.0717 24.3698C29.5964 24.1855 29.0616 24.4213 28.8772 24.8966C28.5561 25.7244 28.0197 26.4815 27.2754 27.0789C26.531 27.6762 25.6757 28.0358 24.798 28.17C24.2941 28.247 23.948 28.718 24.025 29.222C24.1021 29.7259 24.5731 30.072 25.077 29.9949C26.267 29.813 27.4265 29.3247 28.4308 28.5186C29.4351 27.7127 30.1631 26.6865 30.5985 25.5642ZM18.8308 23.7956C18.7538 23.2916 18.2828 22.9456 17.7788 23.0226C17.2749 23.0997 16.9288 23.5706 17.0058 24.0746C17.1878 25.2646 17.6762 26.4241 18.4821 27.4284C19.2881 28.4327 20.3143 29.1606 21.4366 29.596C21.9119 29.7804 22.4467 29.5445 22.6311 29.0693C22.8154 28.594 22.5795 28.0592 22.1043 27.8748C21.2764 27.5537 20.5194 27.0173 19.922 26.273C19.3246 25.5285 18.965 24.6732 18.8308 23.7956Z" fill="white"/>
<path fill-rule="evenodd" clip-rule="evenodd" d="M27.6926 15.3081C28.2024 15.3081 28.6157 15.7214 28.6157 16.2312V22.385C28.6157 22.8948 28.2024 23.3081 27.6926 23.3081C27.1828 23.3081 26.7695 22.8948 26.7695 22.385V16.2312C26.7695 15.7214 27.1828 15.3081 27.6926 15.3081Z" fill="white"/>
<path fill-rule="evenodd" clip-rule="evenodd" d="M23.6924 19.3078C23.6924 18.798 24.1057 18.3848 24.6155 18.3848H30.7693C31.2791 18.3848 31.6924 18.798 31.6924 19.3078C31.6924 19.8176 31.2791 20.2309 30.7693 20.2309H24.6155C24.1057 20.2309 23.6924 19.8176 23.6924 19.3078Z" fill="white"/>
</g>
</g>
<defs>
<linearGradient id="paint0_linear_3349_5834" x1="24.0148" y1="2.00985" x2="24.0148" y2="45.9704" gradientUnits="userSpaceOnUse">
<stop stop-color="#62FA7F"/>
<stop offset="0.6865" stop-color="#22CC40"/>
<stop offset="1" stop-color="#05B723"/>
</linearGradient>
<clipPath id="clip0_3349_5834">
<rect width="44" height="44" fill="white" transform="translate(2 2)"/>
</clipPath>
<clipPath id="clip1_3349_5834">
<rect width="24" height="24" fill="white" transform="translate(12 11)"/>
</clipPath>
</defs>
</svg>
